P2

60 60
255
253 234 255 234 255 255 255 245 255 255 255 255 255 255 253 249 242 255 237 202 240 245 215 255 238 255 252 242 254 255 255 241 255 255 249 255 255 255 250 255 229 253 246 255 255 255 247 249 243 224 236 255 255 229 236 255 255 252 255 216 
255 253 255 230 255 255 225 251 255 249 245 233 251 231 255 252 254 252 253 255 250 255 255 255 255 254 255 216 255 249 255 255 239 253 255 251 255 196 255 248 244 245 242 255 255 255 229 255 255 251 235 234 239 255 246 255 246 247 245 248 
255 255 255 255 218 255 252 231 255 255 254 249 214 255 255 255 212 231 209 231 248 246 255 255 255 242 230 255 255 209 248 255 255 244 255 255 255 255 251 247 222 255 255 255 235 223 239 245 242 235 255 202 255 246 215 255 251 242 255 255 
252 249 233 254 240 218 253 255 255 238 253 221 244 224 255 255 234 255 255 255 247 249 255 226 223 237 243 243 255 251 247 249 247 250 235 249 235 255 244 233 255 213 255 255 246 255 218 244 216 237 251 220 255 255 234 205 229 255 219 255 
255 253 255 220 217 249 252 237 233 219 244 216 248 239 255 207 255 246 255 250 252 255 233 242 255 255 237 226 240 238 240 248 245 248 245 255 254 255 223 248 255 255 255 255 255 255 249 189 247 237 255 255 246 255 245 255 227 255 255 218 
255 225 255 245 255 248 252 232 255 231 255 209 255 245 241 241 221 208 235 248 210 248 255 252 247 255 242 249 238 248 255 229 255 255 245 255 255 226 245 229 224 255 244 171 242 230 251 219 209 255 224 251 237 255 255 239 236 255 234 245 
231 255 255 252 213 247 251 255 219 241 255 255 224 220 225 255 230 240 205 255 225 216 224 255 255 248 245 216 255 253 255 255 204 250 209 235 251 203 214 254 252 235 255 255 233 255 234 246 227 232 247 255 255 255 216 239 229 233 255 253 
255 240 252 255 247 224 223 241 220 255 255 249 236 226 253 255 235 235 255 247 255 221 228 255 228 251 234 255 239 246 229 253 254 238 211 255 252 229 218 255 253 236 255 234 255 204 247 248 203 225 244 246 251 255 228 238 242 255 255 232 
248 243 240 251 255 216 238 211 239 254 245 255 255 255 219 242 241 217 234 255 249 234 255 230 192 224 255 183 223 255 227 208 255 255 199 238 233 219 217 228 211 243 255 245 231 246 255 255 255 248 255 223 255 199 255 255 245 243 246 229 
240 255 248 233 255 208 229 242 241 218 255 240 228 222 225 239 237 238 210 231 252 255 219 247 247 217 181 255 235 220 253 243 239 218 239 255 251 237 255 243 229 215 232 246 246 253 220 238 224 255 251 255 236 218 237 222 224 222 255 226 
222 252 235 233 255 248 255 243 255 223 248 255 232 242 246 222 234 229 242 210 255 240 247 242 235 239 251 255 225 219 232 250 237 253 218 220 224 196 255 245 255 240 225 255 255 255 216 214 234 242 243 255 210 210 255 255 215 255 255 245 
255 231 248 236 217 245 255 236 245 237 214 237 217 233 225 211 223 220 220 248 250 255 212 198 235 249 255 225 223 250 237 222 224 225 239 228 229 227 255 234 236 233 243 251 207 255 219 182 222 250 184 219 255 232 255 255 222 255 238 237 
252 255 249 253 242 255 255 241 255 227 255 219 214 249 241 220 253 223 241 224 221 255 197 208 241 222 230 240 219 255 233 231 209 246 214 239 217 234 244 215 241 223 217 214 238 252 255 225 214 230 205 230 253 255 202 238 238 255 255 255 
255 227 233 255 255 235 199 238 229 220 255 239 238 202 220 213 222 227 213 238 255 241 205 227 255 255 230 255 255 215 212 254 206 223 248 220 216 228 206 240 209 255 232 225 255 234 255 237 250 253 212 229 255 220 217 245 250 218 255 230 
255 255 241 244 255 255 243 240 217 214 246 248 224 214 245 232 251 218 217 230 193 245 214 218 220 230 216 214 216 206 238 231 239 250 216 213 227 219 222 233 239 217 201 230 221 238 253 209 193 251 216 214 249 244 231 255 239 246 252 225 
255 255 242 241 244 255 254 230 244 255 251 255 205 229 221 192 255 233 210 250 227 222 206 219 237 255 222 213 232 207 200 251 207 225 221 204 234 194 218 218 209 229 237 221 232 251 228 255 209 255 240 210 219 255 225 231 209 250 255 255 
244 244 241 253 241 236 236 255 251 218 222 222 212 219 237 228 217 252 216 206 250 207 232 230 255 205 214 255 208 240 225 207 208 215 242 239 226 215 223 215 196 215 216 231 221 251 195 210 231 250 161 255 248 236 206 251 254 247 255 255 
209 255 240 250 250 228 255 250 218 245 251 255 234 231 224 214 212 206 205 255 239 232 188 238 209 234 205 208 242 255 193 215 219 229 215 212 229 205 202 238 191 245 202 214 245 226 222 244 245 235 242 218 244 255 199 254 211 255 226 255 
255 255 255 248 230 255 255 230 225 225 191 242 224 195 242 225 190 214 226 184 198 225 189 248 253 213 210 221 207 210 219 204 203 227 216 224 204 205 196 232 227 234 202 209 227 241 232 245 232 255 231 237 242 217 221 255 218 241 234 250 
229 206 255 255 255 207 255 216 208 235 243 233 255 213 238 213 216 215 218 252 202 223 212 246 223 195 223 239 216 189 203 250 219 232 255 192 195 223 204 248 238 208 197 197 198 253 251 255 255 211 214 253 248 255 226 255 248 255 251 245 
255 216 243 255 247 242 255 228 196 255 198 233 224 246 239 233 228 191 219 232 241 202 204 252 249 223 234 228 222 223 222 152 208 215 228 213 215 245 216 252 211 204 197 213 253 195 223 202 255 220 240 225 228 231 232 255 215 255 239 252 
255 255 251 251 255 255 241 208 239 214 255 243 245 246 252 218 255 235 201 235 206 244 191 232 228 189 213 206 209 194 172 209 211 202 188 251 196 210 255 195 211 203 196 231 225 213 228 230 223 240 222 217 246 242 248 253 239 221 249 235 
255 255 236 251 255 214 255 245 240 255 236 244 228 245 255 219 233 246 255 227 226 242 202 222 206 223 203 172 216 206 224 204 198 225 226 213 232 219 239 219 255 226 217 208 200 252 255 232 230 245 235 237 245 233 215 241 255 246 220 231 
255 243 217 239 251 200 255 232 194 250 243 200 244 218 222 249 207 235 239 221 205 250 216 184 182 161 173 193 222 206 216 242 204 215 202 218 210 225 228 200 196 203 255 237 255 195 222 255 197 244 236 224 242 255 254 239 254 255 251 255 
255 238 242 228 227 250 217 231 244 242 230 245 232 225 242 217 222 204 219 225 197 246 219 199 176 211 207 192 206 196 215 184 248 212 243 213 219 205 214 213 200 237 212 230 231 206 255 222 227 199 255 255 245 228 255 253 230 255 211 251 
255 215 244 255 255 221 243 226 232 255 255 202 237 221 234 202 229 233 222 212 213 223 179 172 206 193 210 198 207 234 224 242 239 202 202 203 180 185 181 210 237 202 223 252 231 194 241 203 206 232 246 254 218 245 253 243 227 223 255 255 
239 255 255 249 238 247 254 255 193 232 248 225 241 214 236 220 218 205 229 231 227 216 201 204 173 217 199 183 199 180 187 193 185 204 186 215 221 225 182 187 190 207 200 205 208 225 241 230 248 222 203 255 253 225 253 255 251 255 251 246 
255 253 255 243 224 255 219 244 226 255 243 212 231 240 233 231 213 218 253 171 181 227 180 193 240 192 210 222 163 228 199 212 189 213 202 171 207 213 212 246 229 206 195 212 255 207 208 237 255 235 234 235 226 232 234 255 255 245 251 255 
247 226 255 243 239 252 255 241 206 211 230 184 207 236 238 238 191 195 232 220 218 209 193 214 170 219 189 187 210 220 185 212 229 201 220 203 235 206 227 229 214 254 163 231 212 220 250 237 243 212 219 232 243 232 230 241 239 246 231 255 
255 220 220 255 221 236 233 246 233 255 232 247 255 255 255 230 190 255 237 198 231 194 222 228 198 208 175 154 177 167 201 219 215 157 200 195 200 224 237 204 172 195 197 202 219 215 252 236 233 255 247 242 213 240 252 255 255 255 230 255 
225 255 241 255 226 255 255 236 252 219 230 232 245 245 228 197 204 224 212 231 226 191 227 198 197 232 188 207 225 196 195 207 234 213 200 186 218 206 219 197 197 239 235 255 222 247 224 248 231 221 222 252 226 219 255 255 234 255 255 255 
255 255 254 255 255 245 245 255 249 234 241 238 255 244 255 237 217 221 212 210 185 203 224 209 232 211 184 203 233 196 238 221 190 176 209 213 214 253 198 241 236 219 196 226 251 240 239 212 217 250 252 206 243 230 255 252 255 248 233 240 
255 249 224 255 250 240 233 242 250 197 238 240 235 228 255 251 212 209 226 207 201 198 185 221 220 154 224 213 204 219 168 181 175 201 203 216 214 196 202 209 232 218 236 194 205 255 233 225 220 255 248 217 255 255 255 255 235 210 223 219 
241 255 250 255 245 252 255 231 199 212 232 167 225 238 204 216 237 201 221 246 225 199 233 218 192 216 203 171 212 202 185 201 205 198 211 216 190 200 222 203 207 227 231 231 194 242 230 225 216 255 246 255 230 243 255 255 238 243 244 202 
255 255 234 235 254 255 243 255 235 250 242 234 228 221 214 211 251 209 236 191 196 210 199 215 226 201 201 215 216 201 200 186 214 190 193 208 214 219 236 233 217 223 223 213 216 245 210 236 236 219 255 253 255 238 247 255 255 247 229 251 
255 255 255 255 255 230 254 255 223 238 251 183 221 246 241 210 243 187 226 201 180 179 195 211 216 205 234 181 207 165 185 237 225 172 186 194 220 183 203 209 222 218 255 191 208 242 230 255 255 233 228 240 242 210 233 248 233 237 255 252 
255 255 193 222 233 255 254 236 243 242 205 213 233 234 220 217 255 211 184 232 207 216 207 230 218 221 203 212 245 241 190 221 209 203 207 229 203 211 226 231 197 238 161 206 226 219 236 228 255 239 218 243 210 255 255 255 206 237 255 255 
253 255 255 255 232 235 228 241 246 223 213 254 243 226 235 255 220 214 245 239 220 217 205 184 187 231 216 225 185 190 223 237 224 200 216 233 255 189 217 199 223 236 192 234 202 216 252 192 217 219 236 248 239 218 253 255 197 255 255 255 
243 251 219 248 214 255 243 207 209 198 246 246 213 184 225 237 238 255 212 217 222 239 212 186 220 192 236 198 211 199 185 218 206 213 196 186 212 201 186 198 176 200 216 218 198 227 226 216 215 188 230 237 230 255 249 254 255 246 255 193 
235 255 248 255 217 255 245 200 214 208 245 217 243 220 229 205 255 207 210 234 239 189 200 162 180 215 184 236 197 217 226 203 189 199 220 218 250 213 228 213 213 230 223 255 235 214 219 246 202 254 255 221 239 255 255 255 255 251 255 253 
255 245 255 231 249 236 232 255 234 255 254 233 241 217 242 236 183 218 201 217 241 224 210 204 201 207 223 160 220 194 215 221 186 210 190 220 236 210 179 223 231 217 213 201 230 229 235 206 255 232 217 241 253 243 255 241 235 249 235 244 
255 255 250 243 255 239 244 255 212 231 192 184 220 208 255 188 238 213 219 228 182 224 232 190 195 227 255 215 192 247 213 227 201 231 209 233 214 228 216 239 183 202 194 235 214 209 224 255 227 255 231 255 240 250 241 255 245 255 250 255 
255 255 223 224 255 249 247 214 245 229 234 230 226 231 209 255 211 205 215 218 238 204 207 207 238 255 230 241 209 234 246 242 232 200 224 247 192 230 227 239 228 211 195 235 254 208 249 228 231 221 230 220 255 208 253 255 247 255 211 248 
255 255 255 250 213 249 242 255 198 245 245 225 245 217 227 209 226 238 206 250 221 180 246 217 246 224 222 218 197 177 206 204 172 251 228 241 218 229 200 219 230 228 193 208 239 226 181 228 207 227 217 255 235 255 251 255 255 242 227 255 
231 251 255 255 225 255 255 255 255 244 210 245 226 174 197 255 216 192 243 228 224 181 211 238 192 221 223 232 232 246 225 226 223 221 213 216 232 204 217 241 238 209 232 208 207 235 192 229 223 217 233 255 252 255 230 255 251 255 242 255 
234 189 219 239 238 255 252 255 243 224 229 253 225 234 229 221 239 205 212 220 204 210 226 214 219 208 244 190 231 242 234 228 201 190 219 203 191 231 250 243 217 199 238 227 212 223 195 229 234 227 239 255 252 221 255 254 227 237 238 237 
240 255 255 230 255 248 255 255 247 237 255 228 255 229 220 198 207 225 236 221 223 255 234 243 208 249 241 251 198 203 220 210 232 246 227 237 217 217 213 226 253 247 194 223 216 231 213 209 246 198 255 237 224 223 251 255 255 223 255 251 
249 244 255 252 211 246 234 250 212 240 211 191 209 233 255 235 212 242 174 223 246 179 205 236 255 255 255 250 215 186 229 247 225 235 215 237 255 204 244 229 255 208 237 231 247 240 221 221 210 237 245 235 242 224 230 255 250 255 241 255 
242 255 255 255 232 251 244 241 254 245 226 221 236 255 215 233 241 230 250 220 231 231 201 223 250 202 232 223 255 216 231 206 244 235 249 255 226 240 207 227 226 218 231 236 211 203 255 230 221 227 210 255 238 239 237 245 255 255 251 255 
255 255 230 232 226 249 222 231 214 255 215 245 233 236 233 255 225 248 202 216 222 254 212 203 209 237 214 255 200 185 209 234 249 255 255 239 218 231 253 214 214 255 238 227 234 250 255 225 241 255 231 229 255 222 246 255 239 253 255 246 
255 255 255 255 255 255 207 241 232 248 243 242 216 243 251 250 226 227 247 229 190 240 217 226 237 248 248 242 255 203 243 186 223 239 238 199 234 221 228 227 225 235 233 226 253 237 237 241 235 243 255 215 224 231 244 255 255 234 255 242 
255 223 255 228 247 239 220 249 198 255 238 207 222 229 230 214 237 255 210 255 227 255 223 224 213 237 255 193 255 255 245 255 194 247 250 195 171 231 236 238 220 249 237 230 252 244 246 208 239 255 254 233 251 255 230 228 237 255 232 255 
237 255 255 212 224 255 221 238 241 227 239 233 244 230 255 228 246 239 253 231 242 253 209 238 228 245 249 255 255 255 255 248 221 245 255 232 217 216 255 255 245 253 240 224 224 242 219 244 245 255 231 216 198 208 255 255 247 253 255 246 
255 255 255 255 242 235 235 232 235 206 255 241 252 213 245 237 253 239 223 255 252 243 248 194 221 209 250 230 252 218 244 234 250 218 205 244 238 245 211 203 245 215 239 255 255 255 251 235 248 192 237 222 228 255 200 255 252 238 255 255 
255 245 255 255 252 255 255 255 218 255 224 255 211 231 249 200 255 254 209 255 252 230 200 249 219 243 240 242 214 254 230 221 243 248 254 255 255 255 212 236 186 233 249 239 240 232 255 249 237 246 237 254 231 223 216 220 234 252 224 226 
255 233 239 242 232 245 213 255 255 234 247 252 231 227 230 218 255 253 255 247 203 228 233 255 250 233 227 255 254 224 234 255 249 235 255 255 255 255 231 255 221 236 244 240 255 249 251 235 245 243 228 245 229 245 224 255 255 251 226 235 
255 255 254 252 247 255 252 255 255 233 206 237 201 212 255 255 220 255 248 237 253 255 255 228 248 255 255 255 229 247 255 255 238 227 255 245 249 255 247 254 234 250 250 255 255 255 228 229 255 245 253 255 255 204 237 222 247 255 255 236 
255 241 255 234 252 255 255 236 249 249 255 255 245 255 255 255 249 248 240 251 239 237 255 255 250 255 255 244 243 255 255 255 235 243 252 249 255 255 246 255 232 255 251 204 243 253 246 253 255 255 234 255 218 255 248 255 255 255 253 227 
246 248 223 238 250 246 255 219 255 245 251 244 238 243 228 234 200 255 255 255 255 255 255 243 236 242 251 255 246 255 253 246 255 255 230 255 253 217 247 241 252 255 182 229 255 255 233 255 235 255 226 248 231 242 255 255 222 255 231 255 
227 255 255 255 255 255 255 243 243 255 255 255 253 255 253 255 233 255 248 242 239 255 243 255 255 252 255 255 255 255 255 255 255 255 251 255 222 238 255 255 255 255 241 253 255 255 255 255 251 254 247 255 255 255 253 255 255 255 253 255 
