P2

10 10
255
253 234 255 234 255 255 255 245 255 255 
255 255 255 255 251 247 240 255 235 200 
240 243 211 252 234 251 248 238 250 255 
255 239 255 255 243 255 255 249 246 255 
229 251 242 250 255 247 239 243 239 222 
236 255 255 223 228 255 250 246 255 214 
255 253 255 226 255 255 219 247 255 249 
247 233 249 227 255 248 250 248 251 255 
252 255 255 255 253 252 253 214 255 249 
255 255 239 253 255 251 255 196 255 248 
