P2

20 20
255
253 234 255 234 255 255 255 245 255 255 255 255 255 255 253 249 242 255 237 202 
240 243 213 254 236 253 250 240 252 255 255 239 255 255 247 255 255 253 248 255 
229 251 242 252 255 251 243 245 239 220 232 255 255 225 232 255 254 248 255 214 
255 253 255 226 255 255 221 247 255 245 241 229 247 227 255 248 250 248 251 255 
252 255 255 255 249 248 249 210 255 243 255 255 233 247 255 245 255 192 255 248 
246 245 240 255 255 254 221 255 255 243 227 226 231 255 238 255 240 243 243 248 
255 255 255 255 214 255 244 223 255 255 246 241 206 254 255 255 208 229 209 233 
252 248 255 255 255 236 222 247 247 199 238 255 255 234 255 255 251 255 251 249 
226 255 255 255 231 217 231 235 230 223 255 190 244 236 207 255 247 240 255 255 
252 249 233 254 238 214 247 248 255 226 241 209 234 216 255 254 232 255 255 255 
253 253 255 226 221 233 237 235 247 239 233 237 237 242 229 245 233 255 246 237 
255 217 255 255 244 255 212 236 206 225 239 208 247 255 228 201 227 255 219 255 
255 253 255 220 217 247 248 231 225 211 236 208 240 233 251 205 255 248 255 255 
255 255 237 244 255 255 233 220 234 232 234 242 239 242 241 255 254 255 227 254 
255 255 255 255 255 255 245 185 243 233 255 255 242 255 241 255 227 255 255 218 
255 225 255 245 255 248 252 232 255 231 255 209 255 245 241 241 223 212 241 255 
220 255 255 255 249 255 244 251 240 250 255 231 255 255 247 255 255 230 251 237 
234 255 250 175 246 234 255 223 213 255 228 255 241 255 255 243 238 255 234 245 
231 255 255 254 217 253 255 255 227 249 255 255 232 228 233 255 238 248 213 255 
237 226 234 255 255 255 255 226 255 255 255 255 214 255 219 245 255 213 224 255 
