P2

110 110
255
253 234 255 234 255 255 255 245 255 255 255 255 255 255 253 249 242 255 237 202 240 245 215 255 238 255 252 242 254 255 255 241 255 255 249 255 255 255 250 255 229 253 246 255 255 255 247 249 243 224 236 255 255 229 236 255 255 252 255 216 255 255 255 232 255 255 227 253 255 251 247 235 253 233 255 254 255 254 255 255 252 255 255 255 255 255 255 218 255 251 255 255 241 255 255 253 255 198 255 250 246 247 244 255 255 255 231 255 255 253 
237 234 239 255 246 255 246 247 245 248 255 255 255 255 220 255 254 233 255 255 255 251 216 255 255 255 214 233 211 233 250 248 255 255 255 244 232 255 255 211 250 255 255 246 255 255 255 255 253 249 224 255 255 255 237 225 241 247 244 237 255 204 255 248 217 255 253 244 255 255 250 249 235 255 244 222 255 255 255 242 255 225 248 228 255 255 238 255 255 255 251 253 255 230 227 241 247 247 255 255 251 253 251 254 239 253 239 255 248 237 
255 217 255 255 248 255 220 246 218 239 253 222 255 255 236 207 231 255 219 255 255 251 255 222 221 253 255 241 237 223 248 220 252 243 255 211 255 250 255 254 255 255 237 246 255 255 241 230 244 242 244 252 249 252 249 255 255 255 227 252 255 255 255 255 255 255 253 193 251 241 255 255 250 255 249 255 231 255 255 216 255 223 255 247 255 254 255 238 255 237 255 215 255 251 247 247 227 214 241 254 216 254 255 255 253 255 248 255 244 255 
255 237 255 255 249 255 255 230 249 233 228 255 248 175 246 234 255 223 213 255 228 255 241 255 255 243 238 255 232 241 225 255 255 252 215 251 255 255 225 247 255 255 230 226 231 255 236 246 211 255 231 222 230 255 255 254 251 222 255 255 255 255 210 255 215 241 255 209 220 255 255 241 255 255 239 255 240 252 233 238 253 255 255 255 222 243 231 233 255 249 255 236 250 255 249 228 229 249 228 255 255 255 244 234 255 255 243 243 255 255 
255 233 238 255 234 255 240 255 245 252 235 255 255 244 217 255 255 235 224 255 255 242 255 240 255 210 253 254 209 231 250 252 255 255 232 240 242 255 255 226 240 237 236 249 255 218 242 217 247 255 253 255 255 255 227 250 249 225 242 255 255 242 255 238 200 232 255 191 231 255 235 216 255 255 207 246 241 227 225 236 219 251 255 253 239 254 255 255 255 255 255 231 255 205 255 255 245 241 242 223 232 255 244 231 255 210 233 250 253 234 
255 255 242 234 235 247 245 246 218 239 255 255 227 255 255 225 189 255 243 228 255 251 247 226 247 255 255 245 255 251 237 223 240 254 254 255 228 246 232 255 255 255 242 222 239 222 222 218 255 218 212 244 229 229 255 248 255 247 255 231 255 255 242 252 255 232 244 239 252 220 255 250 255 252 245 249 255 255 235 229 242 255 247 255 228 230 234 206 255 255 255 250 235 255 255 255 226 224 244 252 253 255 216 214 255 255 215 255 255 245 
255 231 248 236 217 245 255 238 249 243 222 247 227 243 235 221 233 230 230 255 255 255 222 208 245 255 255 235 233 255 247 232 234 235 249 238 239 237 255 244 246 243 253 255 217 255 229 192 232 255 192 225 255 234 255 255 218 255 230 227 240 255 241 247 238 255 255 243 255 233 255 229 226 255 253 232 255 235 253 236 233 255 209 220 253 234 242 252 231 255 245 243 221 255 226 251 229 246 255 227 253 235 229 226 250 255 255 243 234 250 
225 246 255 255 206 238 234 255 255 248 243 215 223 255 254 231 197 238 231 224 255 247 248 214 232 225 234 239 225 250 255 253 217 239 255 255 242 255 255 227 224 255 218 235 255 232 228 240 218 252 221 255 244 237 255 246 255 249 255 255 218 233 255 220 215 241 244 210 255 218 255 248 231 236 253 253 241 240 219 218 252 255 234 226 255 246 255 232 231 244 207 255 228 232 234 244 230 228 230 220 252 245 253 255 232 231 247 241 246 255 
255 243 225 252 241 255 255 221 201 255 220 216 249 242 227 255 231 236 240 211 255 255 230 231 236 252 250 228 244 255 255 255 213 239 233 206 255 247 224 255 241 236 220 233 251 255 236 227 246 221 214 255 221 239 235 218 248 208 232 232 223 243 251 235 246 255 240 255 217 255 244 212 219 255 221 225 201 240 249 255 228 230 229 243 233 230 232 255 251 220 226 228 220 229 249 242 233 255 232 222 255 223 248 248 255 227 238 255 236 255 
255 237 236 241 255 255 246 233 239 229 210 229 230 245 235 255 205 218 237 254 163 255 246 232 200 243 244 235 255 255 191 243 226 238 240 220 255 246 216 245 253 255 240 239 234 226 226 222 221 255 255 248 204 254 225 250 221 224 255 255 209 231 235 245 231 228 245 221 218 254 207 255 218 230 255 238 232 252 251 239 244 218 242 255 193 246 201 245 212 243 242 255 255 236 220 255 250 226 223 225 193 246 232 207 255 245 214 242 255 218 
234 255 221 255 255 239 234 243 227 228 235 220 219 243 232 240 220 221 212 248 243 250 218 223 239 251 240 251 236 255 231 235 238 211 213 253 206 227 218 232 209 188 255 248 255 197 255 210 204 233 243 235 255 219 246 223 228 229 234 255 220 241 230 255 241 213 241 255 234 207 221 255 237 250 255 210 213 241 222 255 255 226 213 211 210 255 255 255 255 213 214 251 244 255 218 255 236 244 235 227 235 200 231 255 243 242 255 236 208 255 
218 253 244 255 255 253 248 211 239 252 255 220 222 255 255 241 252 246 240 241 240 170 226 233 246 231 233 255 234 255 229 220 211 225 255 203 229 206 255 220 238 221 222 223 222 247 201 242 221 232 237 247 233 235 255 247 231 200 233 210 255 243 247 250 255 226 255 247 215 251 224 255 211 252 248 209 233 226 229 214 192 229 231 222 208 255 216 230 255 215 229 219 210 243 235 221 234 234 225 240 222 217 246 242 248 253 239 221 249 235 
255 255 236 251 255 214 255 245 240 255 236 244 228 247 255 225 241 255 255 241 242 255 222 242 226 243 223 192 236 226 244 224 218 245 246 233 252 239 255 237 255 240 229 218 208 255 255 234 230 243 231 231 237 223 203 227 255 228 200 209 242 221 197 221 235 186 250 222 186 244 239 198 244 220 226 255 215 245 251 235 221 255 236 206 204 183 195 215 244 228 238 255 226 237 224 240 232 247 248 220 216 223 255 255 255 215 242 255 217 255 
255 240 254 255 255 239 250 255 239 255 253 218 222 208 209 234 203 219 234 234 224 241 230 225 244 221 228 212 229 237 211 255 237 219 198 233 229 214 228 218 237 206 255 234 255 235 241 225 232 229 214 249 222 238 237 210 255 222 225 195 255 255 235 216 241 237 212 247 189 227 250 191 222 254 245 205 229 214 222 248 255 198 235 221 236 206 235 241 232 224 227 239 197 192 228 217 234 222 233 255 254 255 255 238 240 243 220 225 221 250 
255 238 255 255 255 214 255 215 214 236 246 250 210 233 237 225 207 201 240 248 211 243 240 227 218 229 238 244 181 222 240 219 237 212 236 222 222 211 237 241 239 230 217 222 193 239 223 207 223 204 211 217 209 228 210 237 241 243 198 201 202 217 208 211 212 227 241 228 244 216 195 253 241 211 237 243 231 243 227 220 241 227 239 221 204 253 203 230 214 251 235 206 227 238 233 233 217 226 255 187 201 251 208 225 255 232 254 255 213 255 
253 255 239 255 246 211 243 245 240 255 249 222 207 220 255 207 206 233 255 227 224 223 212 216 216 255 240 221 225 227 217 198 233 219 217 232 238 225 192 199 220 176 201 232 236 238 193 199 238 228 228 221 207 230 188 239 211 211 236 246 211 238 255 225 242 223 253 222 241 241 224 255 169 235 214 220 248 233 237 204 209 220 229 216 212 221 217 222 205 239 255 192 194 248 199 216 217 234 225 255 232 251 255 255 255 250 214 255 255 234 
255 234 255 255 238 248 215 194 217 207 239 255 247 185 224 215 216 238 249 214 180 201 201 204 219 213 248 230 225 245 235 228 197 222 232 236 238 235 202 226 193 233 213 229 202 237 254 218 236 205 218 222 237 239 224 195 204 226 216 237 234 201 239 212 213 250 208 229 249 222 223 233 255 235 220 204 234 220 231 207 205 245 239 255 222 245 220 242 223 211 210 238 210 201 255 255 214 239 254 241 242 249 242 255 255 245 249 255 255 250 
255 255 255 255 255 255 237 241 232 230 205 223 244 229 252 231 204 223 255 220 255 245 212 196 227 229 228 255 208 249 242 223 198 226 249 236 233 204 207 238 238 190 225 210 234 228 232 220 203 208 227 217 194 255 224 216 211 222 232 181 224 228 225 220 250 247 210 209 228 211 207 206 195 233 234 170 242 233 226 241 190 203 197 221 221 232 228 208 212 217 238 222 238 194 205 255 233 225 220 255 248 217 255 255 255 255 235 210 223 219 
241 255 250 255 245 252 255 231 199 212 232 167 225 238 204 216 237 201 221 248 229 205 241 228 204 230 219 189 230 220 203 219 223 216 227 230 202 210 230 209 211 229 231 229 190 236 222 215 204 255 230 244 210 221 246 229 210 213 212 168 225 241 202 205 226 243 219 242 215 232 226 220 216 211 206 205 247 207 236 193 200 216 207 225 238 215 217 231 232 217 216 202 230 208 213 228 234 239 255 253 237 243 243 233 236 255 230 255 255 239 
255 255 255 246 251 255 255 239 217 235 247 238 242 247 235 210 234 237 203 218 233 167 207 234 231 202 237 183 224 201 182 183 201 219 226 217 246 193 219 177 197 249 237 184 198 206 230 191 209 213 224 218 255 187 202 234 220 247 255 217 210 220 220 186 207 220 203 205 238 216 231 225 159 190 203 232 228 212 221 222 187 197 219 222 210 209 255 207 182 232 209 220 215 242 234 239 223 234 255 255 218 251 241 237 243 255 243 251 255 255 
237 255 193 234 250 239 252 240 255 243 218 239 202 250 255 255 182 209 223 221 213 255 238 238 200 205 200 215 222 201 193 236 227 212 223 255 212 208 241 237 220 219 209 190 193 237 222 231 191 196 229 243 230 206 222 239 255 195 221 201 223 234 188 228 194 206 240 178 201 201 216 226 215 192 225 232 165 221 236 225 203 213 183 214 182 235 215 181 185 176 226 230 201 176 221 237 242 255 224 233 242 255 240 216 252 226 255 236 251 241 
229 255 246 251 232 220 244 231 214 222 196 216 228 226 202 227 222 208 203 172 210 213 204 250 219 222 231 210 243 153 193 215 210 246 183 234 215 172 188 184 223 197 225 204 215 193 246 199 204 230 237 189 200 162 180 215 184 236 197 217 226 203 189 199 220 218 250 213 228 213 211 226 217 255 225 202 205 230 184 234 233 197 213 236 245 228 247 215 224 213 227 209 223 203 225 216 216 255 226 252 254 237 249 229 255 255 207 246 233 253 
255 255 246 238 233 237 251 186 244 216 235 239 202 224 202 230 244 216 183 225 231 213 205 191 218 215 219 188 255 210 193 215 225 213 226 207 199 211 195 202 225 231 210 205 228 205 212 239 184 205 168 162 200 190 241 174 226 203 211 222 176 218 226 184 189 221 255 209 186 241 207 221 195 225 203 227 208 222 210 233 177 196 186 225 202 195 208 237 207 241 211 242 220 230 221 235 225 251 230 255 255 247 211 216 255 249 251 222 255 245 
254 250 246 251 229 255 231 225 235 236 254 218 219 217 246 255 234 243 209 232 242 236 224 190 214 237 182 220 217 229 218 201 185 223 240 192 231 208 209 197 204 192 231 176 219 221 209 237 169 204 225 217 225 210 175 213 208 235 168 217 219 201 223 197 209 193 212 226 194 238 209 168 234 205 234 212 210 206 185 165 194 192 160 239 216 229 206 217 190 211 224 224 191 208 239 226 181 228 207 227 217 255 235 255 251 255 255 242 227 255 
231 251 255 255 225 255 255 255 255 244 210 245 226 174 197 255 216 190 239 222 216 171 199 224 176 205 207 216 216 230 209 210 207 205 197 200 216 188 201 225 222 193 216 192 191 217 172 207 199 191 205 229 220 232 194 223 211 231 198 224 186 143 175 197 198 217 216 232 211 194 201 227 201 212 209 203 221 187 194 202 186 192 208 196 201 190 226 174 217 230 224 220 195 186 217 203 193 235 255 251 227 211 252 243 230 243 215 249 254 247 
255 255 255 229 255 254 223 229 226 221 220 252 242 210 242 228 255 246 227 217 235 208 241 209 200 176 185 203 214 199 201 242 212 221 186 227 219 229 176 181 198 188 210 224 205 215 195 195 191 204 231 225 172 201 194 209 191 185 220 170 229 205 190 187 213 219 214 179 213 203 199 196 229 208 169 206 196 214 178 208 181 163 183 209 231 211 190 222 156 207 232 167 195 228 255 254 255 250 217 190 235 255 235 247 229 253 255 224 255 253 
255 232 255 251 255 255 235 233 218 241 245 231 234 212 214 235 226 255 209 226 202 229 229 225 192 211 204 203 218 211 194 191 208 233 187 205 213 202 222 192 203 203 173 195 222 174 204 195 227 188 203 178 216 207 221 230 198 212 179 199 198 190 203 208 183 175 243 202 193 197 178 224 202 201 197 203 215 223 203 226 216 223 182 186 182 209 186 199 186 239 195 229 219 224 223 250 219 244 200 216 224 255 218 211 219 249 228 255 218 205 
231 254 255 255 255 251 228 239 255 218 216 255 236 223 228 242 252 213 227 240 211 205 248 190 210 216 195 205 208 194 201 231 219 210 213 228 165 201 194 212 209 208 182 209 217 216 192 193 213 195 156 206 183 192 203 214 214 208 224 169 209 152 189 205 204 165 200 187 194 193 191 201 199 192 219 203 203 207 201 209 232 179 186 191 204 215 219 194 255 202 241 187 239 200 223 219 204 237 190 255 236 207 224 233 236 222 247 255 224 255 
245 255 237 236 223 245 255 197 255 255 243 255 188 239 240 183 157 215 218 218 198 225 211 202 222 212 212 172 201 245 216 195 211 214 186 182 189 208 180 209 181 204 215 162 176 231 177 196 201 187 199 193 204 190 228 188 206 199 213 191 202 213 169 198 188 205 209 237 223 216 226 208 181 205 216 192 177 176 234 219 205 213 200 186 188 208 187 214 217 251 207 194 178 188 255 235 227 233 251 226 235 255 255 252 238 235 239 240 245 218 
255 253 255 221 251 241 255 239 221 255 246 235 238 182 207 193 232 210 230 194 218 206 220 186 171 208 200 205 169 159 201 171 195 227 213 211 207 191 204 148 193 178 184 238 154 223 202 186 206 231 206 189 232 213 202 214 226 213 172 237 178 220 165 185 203 154 213 208 163 222 206 184 154 203 173 197 194 196 168 208 184 175 199 206 214 224 238 231 180 206 158 207 225 217 220 214 255 235 225 236 229 248 227 221 216 220 234 252 224 226 
255 233 239 242 232 245 211 255 255 226 237 240 217 211 212 198 240 229 233 219 173 196 199 241 212 193 185 221 208 176 184 208 199 185 213 214 206 223 181 210 171 186 194 190 223 199 201 185 195 193 178 195 179 195 174 248 210 197 170 177 209 201 198 198 195 205 200 215 211 181 154 185 149 160 213 216 168 208 196 185 201 208 218 182 204 229 232 241 193 213 242 233 210 201 252 223 229 255 231 240 222 240 242 255 255 255 228 231 255 251 
255 255 255 206 237 220 243 250 255 220 255 221 242 214 230 255 230 208 219 217 248 231 207 229 255 240 203 200 190 199 185 181 214 200 194 205 216 188 187 208 204 216 179 187 196 193 205 225 190 215 176 206 195 148 187 197 190 197 233 212 178 202 162 204 192 213 204 221 195 167 184 188 165 180 192 188 228 161 202 187 195 190 186 193 180 188 156 215 235 218 236 235 255 213 208 216 227 244 226 254 237 232 255 255 222 255 249 215 247 243 
255 255 182 227 255 255 225 255 223 255 210 230 211 220 242 231 194 239 199 226 187 218 219 234 230 210 230 191 189 217 204 198 191 196 191 201 171 227 186 180 177 212 181 235 216 190 230 198 231 221 235 233 216 209 189 207 160 176 206 207 215 197 179 191 193 219 201 224 189 192 185 195 222 196 191 201 222 220 191 196 169 227 200 179 187 234 211 202 243 188 199 255 197 222 203 187 245 228 223 233 231 192 226 223 249 254 255 240 251 255 
255 238 255 237 255 225 236 231 224 255 228 247 251 185 245 252 255 210 171 232 215 216 207 241 181 210 248 214 180 195 173 181 191 207 183 181 201 196 192 237 173 180 177 205 226 156 194 189 196 232 152 205 197 204 193 179 241 209 205 165 162 174 174 188 172 201 172 226 174 149 202 179 173 226 230 194 207 194 183 200 188 175 201 159 206 212 177 217 233 224 189 255 238 207 255 230 243 221 236 210 220 229 226 235 255 255 255 223 239 255 
211 255 255 255 226 255 189 241 251 217 239 255 234 255 228 190 214 183 229 201 224 172 217 199 195 179 139 188 197 188 221 174 186 173 190 166 182 189 144 176 165 182 176 204 207 202 195 191 170 195 207 202 169 187 198 207 175 188 193 188 203 201 187 195 169 207 196 196 180 151 182 175 195 212 191 201 216 180 192 200 180 198 197 211 232 189 207 232 213 218 203 185 206 228 231 255 215 237 199 221 228 212 221 241 244 253 244 255 255 238 
255 252 211 248 217 237 239 232 222 255 220 215 226 222 231 216 217 253 241 217 186 218 215 195 174 192 182 184 151 178 226 195 205 220 157 169 185 185 195 188 188 159 191 207 190 223 179 180 184 156 199 218 172 192 218 162 171 179 185 161 153 205 165 189 195 160 189 188 178 174 148 201 174 131 162 173 165 185 197 167 185 185 191 196 174 184 224 239 242 209 255 223 202 232 205 246 216 249 241 219 230 231 230 231 222 248 255 235 230 255 
235 255 255 224 226 255 217 243 225 207 230 235 246 205 255 220 209 227 249 171 228 241 201 213 202 225 198 201 217 179 184 170 216 190 208 181 175 158 184 184 174 187 148 133 188 167 247 185 184 156 185 206 155 173 166 120 146 184 192 199 192 224 212 187 189 166 201 197 166 188 183 187 181 208 230 190 194 199 175 197 200 174 215 171 198 198 231 226 220 223 190 208 238 231 251 223 215 193 248 231 248 255 255 255 255 207 255 228 223 249 
255 255 255 244 230 255 226 231 254 198 255 254 210 241 220 202 235 213 196 229 195 213 212 202 199 222 199 198 208 172 182 192 193 184 181 196 166 188 170 208 151 188 156 179 202 170 176 177 202 210 191 149 152 172 188 181 200 148 151 195 154 203 172 196 190 162 187 196 175 210 203 181 187 181 198 203 175 159 213 201 167 202 188 191 222 196 237 239 243 218 206 210 202 254 233 248 203 225 227 216 211 235 202 254 232 226 238 255 255 249 
255 250 255 218 251 245 255 219 226 236 220 205 213 210 235 223 221 200 219 171 195 207 244 197 199 223 191 206 169 222 201 201 225 194 209 167 176 175 155 187 179 187 165 149 208 160 163 193 243 179 186 157 161 179 170 159 191 179 175 173 184 201 193 178 178 131 180 170 210 189 182 148 164 206 183 184 165 186 164 159 159 219 202 181 169 189 201 211 222 252 219 206 217 255 232 214 253 213 234 216 255 255 243 255 245 244 226 255 219 255 
255 245 255 254 234 239 230 255 212 215 219 255 206 203 236 232 189 216 219 198 192 234 255 217 235 233 211 200 182 142 160 193 213 178 224 178 197 159 178 199 168 158 173 182 169 156 173 155 192 146 176 180 161 177 187 160 174 179 182 168 168 189 174 181 154 154 166 149 167 170 197 151 190 176 167 205 203 196 179 176 194 196 251 167 189 224 212 216 204 215 229 234 225 254 254 255 226 218 216 232 213 216 223 225 255 255 217 240 232 246 
255 255 250 243 255 254 255 239 235 249 255 243 225 233 206 236 217 205 250 210 227 209 240 211 203 177 237 218 240 195 215 170 199 180 207 158 120 180 161 187 173 191 163 150 114 163 150 185 156 168 139 177 142 156 160 178 200 145 193 168 203 180 177 191 214 188 196 167 163 195 141 161 200 185 169 185 199 183 255 193 230 188 212 197 222 182 213 180 204 207 203 197 218 206 228 227 244 243 240 232 222 213 250 209 216 255 255 255 255 255 
255 251 250 255 242 226 255 255 253 227 213 255 249 228 252 228 217 204 229 225 187 224 238 255 237 195 176 202 235 176 191 185 190 179 166 191 200 176 194 166 182 159 154 160 168 182 199 199 186 187 213 167 167 176 182 162 195 153 172 181 174 174 181 163 165 138 151 174 183 148 193 147 163 182 216 173 197 170 198 207 173 188 211 166 196 204 220 214 191 243 209 214 239 232 250 244 251 243 232 255 204 245 214 251 255 245 255 242 255 255 
255 223 247 255 241 245 243 214 203 234 249 249 223 208 231 215 255 255 218 200 215 196 226 237 212 199 232 202 211 170 193 197 188 189 187 171 169 189 149 181 198 201 190 157 159 147 186 172 163 154 141 170 155 160 182 149 164 168 184 186 141 132 158 169 126 164 175 163 144 178 149 166 191 172 199 217 161 147 162 223 184 225 227 171 211 231 185 223 202 195 220 213 220 241 225 220 237 255 231 234 236 255 255 209 255 211 247 233 228 255 
255 241 246 249 247 255 235 240 255 227 221 241 250 206 227 240 212 203 239 215 208 207 216 234 188 213 227 183 205 193 202 204 189 202 190 183 194 184 135 159 182 173 162 149 197 145 153 179 177 160 162 171 170 166 127 155 175 152 204 187 148 172 140 135 194 153 168 159 156 176 181 163 190 191 188 195 185 164 211 207 170 178 198 178 199 203 189 170 254 209 187 237 200 191 255 248 247 244 236 229 235 255 250 247 220 211 253 246 241 233 
255 255 243 225 249 226 232 245 248 255 250 185 182 255 230 223 239 217 254 241 226 198 218 204 223 212 189 177 176 176 213 191 204 217 189 158 214 194 159 183 162 198 179 181 161 153 128 147 176 170 131 150 176 137 154 175 171 153 174 177 190 154 191 190 157 143 153 169 174 168 175 156 176 176 162 190 179 214 154 179 206 209 208 169 226 235 212 177 211 232 251 222 209 219 207 226 243 219 211 226 241 246 226 255 217 250 244 242 222 243 
255 255 255 255 200 236 233 229 255 237 249 230 216 229 234 218 254 192 185 222 237 212 203 190 207 211 182 224 163 177 190 207 191 189 162 187 184 194 190 155 207 176 184 160 189 180 153 138 173 146 183 165 122 176 194 154 138 163 119 183 164 182 162 178 166 171 173 160 185 204 161 166 188 170 177 173 204 203 195 200 145 175 240 230 188 205 183 218 200 207 211 224 241 191 197 255 255 228 219 222 255 219 220 244 248 255 251 229 255 255 
255 255 228 193 255 236 255 255 239 237 255 233 239 242 235 255 229 221 210 218 208 192 225 218 204 205 182 175 186 238 181 213 182 230 176 204 172 192 199 195 148 156 206 172 185 166 151 173 166 180 162 171 112 149 177 164 161 159 138 140 182 163 130 168 142 180 162 163 162 151 173 142 179 197 174 180 186 187 204 201 205 221 207 211 221 223 222 198 226 199 190 187 217 244 214 216 221 240 232 197 254 254 220 248 255 241 214 255 244 221 
241 239 235 252 248 225 254 235 226 231 247 228 235 246 213 218 206 255 246 197 212 199 216 194 177 202 162 174 193 176 163 223 183 176 158 211 165 172 181 179 191 164 179 178 167 159 133 169 189 167 154 152 174 170 172 156 160 174 167 181 163 178 175 167 173 174 161 191 163 180 193 160 179 181 179 167 177 181 182 223 198 213 209 224 217 219 181 234 213 234 197 201 238 216 239 235 240 229 222 219 223 243 236 255 233 255 247 244 245 235 
255 248 255 255 242 227 235 223 242 248 217 175 230 218 239 238 211 233 202 214 196 227 222 227 182 209 182 194 193 205 199 180 224 152 197 189 230 156 184 154 144 122 171 173 150 187 201 143 141 150 173 149 133 173 142 153 185 157 156 177 151 150 166 146 173 191 182 183 202 179 170 163 131 186 164 180 157 187 223 189 197 197 203 181 203 210 224 200 221 237 189 212 213 196 253 217 218 242 244 255 213 233 217 236 255 250 249 206 247 254 
239 238 206 246 240 200 232 239 248 255 238 214 201 255 209 204 204 221 244 227 246 252 242 224 232 216 178 191 207 197 181 177 180 217 173 213 189 147 179 184 208 159 164 147 187 165 167 135 150 173 185 151 130 138 117 127 162 171 159 144 138 145 156 215 173 155 204 181 155 167 145 204 173 181 187 190 160 189 175 180 187 209 191 215 225 211 207 207 206 215 230 237 179 222 226 214 224 207 231 200 205 248 255 216 252 233 218 241 228 244 
255 255 244 246 255 233 245 255 229 221 234 244 240 221 244 225 207 209 238 186 214 214 211 178 224 209 224 186 208 197 180 184 203 194 167 199 185 187 152 171 207 156 184 191 143 174 170 180 129 168 154 207 157 171 114 135 169 151 163 152 155 172 122 193 133 165 162 148 198 141 181 149 173 194 196 190 159 180 177 195 201 164 190 213 208 234 220 219 211 223 210 217 212 223 234 255 221 225 215 255 224 214 227 239 237 228 224 227 227 255 
234 255 251 252 242 216 250 209 243 239 234 237 231 224 225 255 202 233 219 231 255 221 242 232 183 193 202 201 207 204 178 185 160 188 160 185 135 173 198 125 184 190 185 155 194 174 146 136 148 123 180 164 196 146 154 156 149 148 157 128 167 163 137 132 177 163 171 184 184 161 138 166 182 183 203 225 233 183 194 218 191 189 190 186 184 213 196 206 202 217 225 196 214 218 244 228 237 186 255 212 226 254 247 248 254 255 255 208 255 198 
255 255 229 255 247 255 250 230 238 224 205 205 204 204 234 245 227 220 200 222 219 186 224 205 194 205 188 206 204 171 216 222 177 196 177 210 186 204 173 184 191 198 160 154 159 163 144 182 181 161 167 125 155 150 144 166 156 157 153 124 157 164 173 204 161 158 181 154 144 163 177 193 166 194 222 181 157 183 156 176 204 203 182 180 202 208 247 213 213 228 217 212 217 173 221 241 242 250 229 241 224 222 227 255 245 231 255 253 255 255 
252 255 243 239 215 255 220 241 234 243 231 199 217 204 234 239 211 224 186 214 196 225 250 242 173 135 222 185 212 181 216 162 178 184 170 180 149 188 170 175 194 172 178 174 124 186 127 161 145 132 160 127 140 130 163 176 115 135 112 211 146 125 150 175 165 148 164 191 152 189 165 206 151 176 166 159 232 234 186 202 214 164 190 233 177 226 220 218 254 179 230 183 198 245 223 212 255 186 215 230 239 205 244 241 255 210 212 231 236 255 
255 255 255 255 245 255 255 224 208 255 216 221 235 225 226 253 232 213 253 209 225 202 214 190 216 197 194 221 200 222 206 193 200 183 241 162 183 178 177 169 158 134 155 180 157 137 170 167 148 180 139 145 144 167 151 146 156 137 98 177 146 158 111 143 153 173 174 194 175 141 181 162 174 137 153 170 211 169 207 220 221 203 181 201 207 192 203 163 221 200 189 225 249 236 255 206 220 229 239 255 234 234 255 252 255 232 255 255 252 222 
246 229 239 245 255 244 255 244 255 234 202 235 246 209 209 253 210 247 189 211 225 237 218 209 194 210 219 193 233 231 195 188 186 171 213 192 176 147 179 153 167 177 168 149 200 171 170 127 137 164 140 126 143 128 156 114 91 150 141 152 136 129 169 152 174 155 158 146 173 171 198 190 158 189 156 175 224 182 198 193 171 190 202 185 210 188 197 230 216 223 223 246 229 198 206 247 255 250 253 202 230 224 255 241 253 255 255 255 246 241 
255 255 233 235 249 246 255 255 249 255 249 255 244 207 223 233 235 216 231 176 187 205 226 206 218 180 216 212 189 172 203 185 174 212 238 170 170 155 149 141 166 164 186 174 132 171 174 153 138 132 145 138 121 180 167 161 144 140 173 148 122 160 154 180 149 165 172 162 151 208 199 175 197 159 170 205 193 175 160 198 196 182 251 170 163 199 168 189 176 233 233 218 233 225 226 203 240 246 236 244 227 247 212 212 243 255 230 255 237 236 
231 229 251 235 248 252 250 246 248 255 235 219 220 237 236 231 185 174 233 235 223 212 198 211 225 208 182 205 192 173 190 156 196 134 190 193 203 172 168 169 189 167 168 193 159 149 175 159 141 169 162 170 159 157 145 120 117 129 151 122 149 122 145 196 168 159 145 149 167 185 184 172 217 166 163 160 164 178 235 167 203 210 231 209 236 212 218 189 171 248 221 211 190 230 200 226 236 255 239 255 250 255 255 252 240 248 252 224 196 235 
255 235 221 240 255 216 252 255 241 247 220 228 232 252 255 243 224 191 217 215 208 232 208 179 195 225 223 201 157 210 206 155 151 175 177 195 150 187 179 161 184 180 179 183 181 166 151 168 164 178 163 119 173 170 164 167 158 114 171 143 164 158 142 199 149 195 192 149 184 143 147 140 206 165 212 183 197 200 220 166 171 194 196 179 201 208 223 176 205 237 214 216 205 200 237 253 209 234 194 224 227 247 239 238 255 255 230 244 222 255 
254 255 247 239 225 231 255 241 204 225 184 234 220 213 220 201 211 210 229 249 183 216 176 226 200 205 199 193 213 172 216 175 191 223 187 179 179 150 208 142 144 141 134 147 174 161 155 163 140 180 136 152 162 139 147 147 159 114 135 161 145 164 173 174 153 172 143 191 168 160 146 135 173 200 193 173 211 186 172 237 201 193 151 149 216 216 199 240 227 210 225 245 224 255 190 208 217 232 225 167 234 255 252 227 248 255 255 242 255 255 
255 255 243 242 219 255 253 255 241 236 226 233 223 255 224 217 224 214 219 177 229 220 213 239 184 172 185 220 174 209 223 205 142 189 192 179 207 127 178 147 136 193 113 172 177 163 169 148 182 182 144 149 151 151 157 164 161 156 170 182 130 165 136 160 191 184 156 177 154 156 176 162 196 166 179 187 190 177 192 171 165 178 191 210 199 209 187 205 230 203 210 214 232 209 233 225 225 203 218 244 223 242 255 208 205 255 235 255 255 218 
249 235 255 255 249 253 246 219 240 224 232 247 255 210 220 220 208 255 254 197 201 228 194 192 208 202 201 179 226 184 196 207 203 167 209 182 189 185 171 172 175 182 162 198 131 147 161 157 127 149 159 157 157 148 162 100 133 160 170 176 168 198 137 183 186 179 181 196 147 165 180 195 160 148 177 182 166 195 190 194 172 220 189 233 186 171 217 195 211 201 197 245 249 197 224 233 243 195 227 234 228 233 255 255 255 255 234 211 253 240 
252 197 255 225 233 245 240 229 255 217 210 217 249 234 230 232 175 255 236 242 196 248 187 213 199 245 212 223 230 224 224 192 185 186 196 186 170 202 187 205 161 141 160 159 195 181 189 101 162 149 138 169 171 153 186 126 149 144 184 164 162 126 130 175 153 173 141 188 168 174 177 140 167 169 166 174 224 166 173 204 191 196 190 201 183 193 219 215 250 220 220 222 206 241 236 237 224 255 221 248 242 240 237 239 249 255 249 249 241 234 
251 255 255 227 237 255 242 226 255 219 235 233 255 232 240 219 209 226 183 207 215 212 214 224 207 183 203 225 167 166 217 140 204 188 205 184 197 237 186 151 193 169 146 182 164 196 158 201 154 164 158 183 152 161 135 197 160 148 145 140 144 127 138 160 138 170 143 192 173 180 190 143 187 189 170 209 160 176 231 224 223 205 202 180 223 212 202 203 190 202 237 243 234 218 223 211 179 203 197 220 248 213 237 248 255 247 254 253 255 223 
255 255 255 255 255 230 247 255 239 207 251 214 255 241 199 195 255 210 235 225 196 176 203 208 234 166 211 218 165 191 182 190 203 176 165 147 173 157 171 223 174 194 172 161 167 181 138 166 183 150 179 161 178 172 129 242 152 150 113 144 165 166 178 218 163 208 140 170 135 161 206 178 188 186 199 189 218 197 182 197 184 186 217 193 222 161 222 181 205 206 215 255 203 221 243 212 201 229 197 205 242 255 255 255 240 254 220 241 255 220 
255 255 239 255 211 244 224 230 255 201 255 229 189 225 255 221 204 223 221 250 214 197 199 179 211 209 211 201 188 224 198 190 195 167 154 253 151 145 235 198 188 178 191 184 159 197 151 151 170 184 149 158 143 175 178 156 153 190 170 147 166 205 167 153 176 158 169 138 177 164 166 180 189 188 189 167 143 163 187 196 224 226 199 190 197 187 185 180 216 217 201 189 217 236 255 218 239 255 231 232 255 209 223 218 239 255 241 241 249 236 
229 237 252 255 255 255 249 228 228 220 220 234 223 255 255 239 210 178 217 217 207 231 227 223 240 235 180 205 167 193 198 227 179 200 152 178 156 191 204 186 178 183 132 171 170 148 159 171 191 160 150 165 201 193 183 196 180 124 178 167 169 168 167 171 156 190 147 195 186 170 202 197 160 134 221 190 186 190 204 206 176 232 210 207 242 198 183 238 216 225 220 190 205 194 217 214 233 216 234 213 228 243 246 255 255 255 227 255 255 255 
232 238 255 255 247 193 252 236 218 255 218 206 248 210 183 211 208 198 193 212 209 219 212 218 177 215 172 180 189 174 163 253 193 211 179 186 163 180 160 183 175 183 129 189 171 180 153 181 222 196 193 180 177 148 174 189 168 135 190 169 146 150 142 145 176 202 191 144 144 173 134 185 176 189 174 209 221 173 191 179 204 203 223 201 224 231 187 248 216 207 229 192 237 210 248 238 247 217 240 255 253 238 250 255 246 245 237 255 238 255 
248 235 255 240 207 220 239 255 255 224 254 199 219 233 191 248 202 211 210 232 235 217 192 207 196 223 203 168 222 234 199 214 192 185 146 184 185 222 203 191 139 208 150 174 188 176 201 153 176 163 157 200 177 172 179 157 227 177 210 178 194 178 130 180 181 163 156 146 171 207 170 211 164 199 158 181 161 210 192 193 225 191 249 204 230 203 217 215 202 217 215 211 211 234 190 243 188 255 232 255 245 235 225 246 255 255 231 255 255 255 
255 255 249 227 202 255 255 255 245 255 230 244 255 234 245 216 190 227 236 236 209 189 226 194 202 211 198 198 198 182 168 161 172 196 176 196 207 188 179 182 211 154 184 155 155 176 168 173 191 173 157 142 175 197 159 177 155 140 153 169 165 189 182 176 162 162 153 215 166 202 174 199 184 189 183 165 205 194 191 179 188 222 195 208 187 227 200 231 190 196 183 208 255 211 211 209 244 240 255 227 251 244 203 240 255 255 255 253 243 255 
255 255 249 255 204 255 192 235 255 239 228 221 219 237 218 234 251 222 248 223 215 228 222 226 214 185 237 206 191 198 208 170 221 173 147 178 190 198 187 175 152 186 154 147 199 192 169 175 172 162 164 146 176 197 181 204 175 194 177 161 150 188 157 204 194 168 150 159 209 163 191 193 147 179 201 159 195 163 224 168 203 203 173 193 192 234 199 222 168 235 228 224 239 232 183 232 255 206 200 217 221 249 228 255 255 251 255 242 255 255 
255 255 255 233 247 229 244 250 230 209 218 227 255 223 216 228 211 235 247 213 230 218 227 163 188 184 182 193 206 187 214 221 181 211 207 177 177 194 188 211 196 188 139 151 150 200 165 179 195 170 173 185 128 186 192 171 160 155 115 170 166 166 186 185 193 181 158 177 146 200 148 183 150 185 189 199 181 178 181 242 192 191 224 168 203 210 210 205 226 216 212 182 198 243 230 215 190 232 234 226 221 250 198 249 232 244 255 234 251 237 
247 255 220 234 255 255 238 248 228 232 229 255 230 250 218 225 238 197 228 227 232 216 239 209 176 208 178 198 199 209 220 196 200 180 216 187 187 196 176 180 202 167 178 177 131 191 179 197 198 192 234 195 180 201 196 172 178 183 182 174 211 193 148 178 177 180 183 156 154 179 167 184 187 215 202 188 193 229 207 200 148 181 187 238 219 218 217 202 225 199 178 235 247 209 208 228 199 223 238 255 252 240 220 255 255 255 247 255 255 219 
255 240 223 255 255 221 237 251 255 255 230 234 255 255 195 217 214 229 204 234 214 220 194 201 232 204 200 196 201 232 179 176 205 174 227 195 198 197 186 183 156 146 186 148 178 151 182 168 157 157 205 204 189 180 145 192 222 146 186 183 207 147 139 199 195 209 216 147 178 172 173 207 179 162 187 182 157 169 188 188 219 208 193 207 191 187 195 198 246 216 235 206 210 226 199 205 240 190 229 231 212 238 255 255 255 213 255 244 255 254 
255 246 242 234 235 250 241 211 221 243 247 236 199 235 248 231 222 187 214 182 220 217 233 211 202 176 241 201 158 146 166 203 197 172 167 217 211 165 185 165 170 159 187 187 209 165 160 165 194 159 184 168 184 157 212 212 180 209 178 193 195 167 170 179 172 159 217 180 183 168 193 192 211 181 172 183 199 194 192 190 201 171 208 200 218 188 212 205 198 212 214 250 221 255 230 243 243 204 242 255 236 227 248 231 255 236 247 248 234 252 
234 255 255 246 255 254 224 232 246 215 219 240 241 216 218 206 225 224 208 210 222 213 223 237 174 219 220 178 224 207 189 175 194 215 186 203 167 204 219 183 186 200 190 166 200 166 190 149 212 183 196 156 200 183 170 168 181 214 208 176 198 185 195 223 185 213 177 189 201 204 197 177 219 214 197 190 209 191 181 183 202 179 193 218 241 230 209 189 219 193 188 228 205 221 231 221 227 255 244 245 252 243 253 226 226 253 255 255 215 231 
231 253 242 255 219 232 255 233 200 255 217 248 240 221 206 219 255 204 219 209 201 225 226 223 185 223 197 175 168 209 200 208 191 187 190 180 194 213 152 183 147 208 160 197 209 172 192 175 165 168 186 144 187 162 199 242 186 174 199 183 198 208 166 184 232 203 177 166 191 182 166 167 141 180 195 198 186 175 165 193 201 205 220 199 194 219 216 216 190 220 223 197 234 216 231 196 202 228 221 225 230 226 219 238 238 212 243 255 245 230 
255 254 255 255 231 245 212 253 255 255 243 246 204 255 223 216 190 255 228 240 220 211 217 235 248 211 221 221 211 231 148 178 197 179 181 188 195 189 212 204 210 183 179 222 157 164 191 171 187 168 177 166 223 196 196 196 198 188 175 159 199 148 180 164 192 171 201 173 200 189 207 195 211 199 208 201 170 158 198 216 203 183 194 216 228 232 190 231 208 201 224 230 226 194 210 233 220 247 249 240 216 255 255 251 221 252 216 255 244 244 
255 255 255 230 255 242 255 245 252 224 255 239 242 229 203 226 193 255 208 216 186 187 210 240 194 160 192 215 213 225 196 181 162 156 188 153 192 217 203 193 177 168 190 184 191 223 188 175 204 208 206 177 208 206 201 187 209 206 172 160 188 199 193 193 209 200 188 172 163 223 172 200 184 185 199 184 179 204 155 180 205 173 214 213 213 179 182 205 203 206 211 203 188 233 229 218 196 255 209 212 209 239 246 239 219 198 208 255 246 255 
255 237 255 237 255 247 234 255 236 220 194 253 231 229 215 255 199 220 221 206 220 194 240 210 153 175 177 225 171 187 206 162 174 161 183 178 195 179 205 213 200 179 175 228 174 185 223 199 203 179 196 147 212 219 163 198 189 192 192 194 198 196 187 174 184 183 208 194 208 179 188 178 218 215 179 167 190 169 151 196 197 207 196 212 165 187 177 234 211 213 236 222 186 250 211 253 208 218 232 233 233 227 254 244 255 224 250 242 255 240 
229 253 249 244 239 218 245 237 244 237 255 227 203 252 221 221 231 213 219 190 228 198 244 207 208 228 166 218 164 180 209 189 165 189 195 165 228 212 182 191 193 200 202 190 204 184 214 148 184 180 210 186 187 176 216 177 158 210 182 228 203 203 189 191 204 176 195 205 181 219 214 207 177 189 147 209 186 222 205 228 174 179 196 188 208 233 182 201 183 221 190 233 229 206 237 222 205 245 244 215 209 242 239 246 235 240 255 249 231 255 
255 255 255 232 245 235 222 217 222 247 215 231 255 205 215 219 224 213 219 223 201 214 205 221 210 191 218 198 198 214 208 219 180 212 207 217 198 193 190 217 178 180 166 193 236 197 196 176 177 182 201 197 197 175 185 186 198 196 212 197 203 188 226 200 242 204 149 221 178 191 188 197 216 199 207 195 167 216 227 196 198 207 186 216 184 217 194 217 187 197 223 229 222 244 235 213 220 209 214 189 222 255 228 255 247 240 249 239 232 252 
248 255 255 255 252 255 235 255 235 255 214 238 242 219 240 233 224 238 174 238 225 248 235 184 189 211 182 210 199 236 187 214 219 185 201 159 191 201 163 226 199 194 196 195 205 233 200 214 182 188 223 183 190 217 193 194 192 172 204 184 215 191 210 191 171 240 203 199 158 190 185 174 188 210 192 185 179 218 234 221 236 221 186 181 192 214 207 211 232 186 255 191 213 197 207 217 240 208 240 237 255 226 231 226 248 255 228 252 252 232 
255 255 255 248 255 248 234 241 241 226 240 243 238 214 206 255 255 221 188 196 196 180 255 197 197 207 216 176 200 246 226 161 209 181 206 200 198 180 221 220 199 206 213 180 219 204 193 223 194 198 193 219 201 159 195 186 204 174 204 171 208 225 196 204 200 192 198 209 191 237 211 199 212 206 213 212 179 217 177 207 214 219 170 182 192 241 198 222 178 237 197 227 222 194 206 222 205 220 244 214 227 235 255 255 234 215 255 255 243 252 
233 255 230 255 250 232 255 234 255 255 242 205 244 226 200 225 181 201 224 241 215 207 212 225 228 199 225 195 226 205 200 217 208 189 239 203 232 212 185 196 180 202 190 230 215 225 182 182 207 190 208 179 205 216 211 225 201 236 198 228 203 217 218 185 195 221 238 186 237 246 163 166 205 168 226 205 215 217 161 193 188 164 208 200 216 237 213 226 203 195 228 215 180 192 223 238 214 219 205 249 247 237 255 255 238 255 255 239 255 235 
231 216 255 236 240 240 214 255 220 210 255 243 184 232 195 243 215 252 235 214 173 232 211 212 227 220 178 252 191 152 228 193 173 181 216 227 190 164 180 196 170 207 186 177 218 185 203 222 198 149 201 190 203 213 215 215 203 238 175 196 204 217 178 223 212 220 210 215 190 205 240 207 219 240 197 201 170 191 199 209 211 179 205 212 198 179 203 197 200 204 205 218 205 227 209 200 216 247 241 199 230 247 255 234 231 255 247 255 251 239 
255 246 255 254 255 216 232 255 211 246 247 175 215 194 214 239 206 212 195 171 221 252 211 195 215 208 186 210 204 255 206 248 239 210 185 215 179 191 207 178 192 199 207 213 229 217 223 204 211 191 251 185 185 212 207 197 206 205 195 255 225 193 221 249 190 216 232 192 183 202 171 204 206 209 228 192 176 209 208 203 200 193 226 207 200 176 224 238 247 185 233 231 212 228 205 247 193 215 224 241 220 230 215 240 253 227 255 225 255 255 
255 250 245 255 210 252 255 251 219 245 196 218 255 235 233 255 206 231 223 188 187 224 211 204 229 210 204 189 209 188 192 185 208 224 216 204 202 206 240 184 201 240 176 231 221 235 195 222 162 199 217 201 189 223 237 205 209 207 195 195 210 201 217 225 179 203 212 190 196 195 200 196 229 206 204 221 208 198 184 205 198 243 194 234 194 195 206 226 236 221 172 217 224 224 205 208 226 241 204 226 203 225 201 251 246 255 240 255 255 255 
242 208 226 222 255 255 255 241 247 251 229 218 232 208 243 221 221 224 217 229 244 193 217 227 247 212 225 223 210 214 254 202 215 197 226 201 222 192 225 223 193 227 230 224 226 247 216 221 198 209 154 191 227 183 186 195 229 200 220 221 206 189 206 195 206 201 226 214 204 216 172 191 218 233 208 199 223 245 202 180 187 222 204 196 230 255 199 203 235 229 182 208 218 241 223 204 240 228 255 238 237 247 239 230 242 255 243 224 255 255 
250 255 232 255 255 248 255 202 219 238 233 246 255 210 221 233 219 196 230 215 246 199 207 211 191 242 200 192 195 230 213 210 226 185 230 231 241 194 213 225 205 230 196 204 219 196 209 236 228 191 227 220 172 181 201 213 190 210 211 195 202 207 229 207 255 210 189 216 233 187 219 208 206 239 233 207 193 226 227 239 224 223 221 228 152 217 231 196 186 223 210 253 225 217 206 224 215 228 223 215 224 191 222 244 250 254 255 208 232 214 
244 255 255 255 228 255 230 199 255 238 255 240 225 214 221 255 188 254 210 205 210 250 207 165 208 215 255 191 208 201 215 222 223 187 234 219 204 237 185 206 204 216 216 218 238 241 196 237 221 214 201 205 247 228 236 190 213 207 241 230 189 246 254 255 227 210 216 255 221 187 230 233 222 201 192 207 203 202 220 216 188 205 207 201 205 214 210 231 221 219 239 210 241 221 231 241 239 244 212 198 218 255 248 225 255 240 223 236 252 254 
255 253 251 255 232 245 243 237 217 199 251 238 224 221 245 227 236 193 232 198 217 213 203 229 192 226 201 204 192 237 212 193 238 216 222 209 206 255 209 231 210 209 231 225 207 190 213 247 179 207 231 215 205 229 233 217 220 220 218 233 176 242 238 200 228 219 171 219 189 225 204 210 207 218 224 208 221 200 197 191 196 205 232 233 209 214 210 201 212 199 240 239 216 207 223 174 234 251 232 255 248 240 255 255 217 245 255 223 236 255 
255 199 255 249 241 255 251 255 232 255 218 223 247 235 207 222 231 243 198 231 226 179 214 209 218 238 226 219 221 220 219 234 244 221 200 201 226 219 195 205 206 245 215 218 246 224 229 207 187 212 226 194 231 184 197 226 225 207 236 204 212 202 216 188 188 235 208 223 208 221 208 225 219 216 243 244 208 221 234 200 227 208 232 217 214 207 245 189 227 195 219 226 251 227 220 216 227 236 245 234 219 251 232 255 241 237 226 231 248 255 
255 255 255 249 238 229 255 218 206 223 232 206 218 255 244 254 223 244 186 255 199 215 247 206 229 188 209 212 201 223 233 213 239 201 203 240 220 236 212 244 234 232 231 209 221 238 194 187 222 255 235 228 227 206 221 229 247 235 255 196 224 179 228 239 203 220 228 226 196 212 219 193 237 217 177 254 188 230 233 243 235 206 196 220 236 226 215 239 251 217 249 241 231 240 228 225 184 225 238 219 250 220 226 220 249 253 253 255 242 247 
255 255 250 236 248 254 243 238 255 244 235 255 192 207 231 231 205 220 220 254 203 219 204 229 237 255 243 221 199 214 198 254 199 226 224 236 210 246 224 236 229 248 202 228 253 222 232 228 199 235 202 220 255 219 247 208 208 226 227 230 232 240 253 255 218 186 223 255 221 217 241 225 197 206 172 212 228 228 234 225 232 221 255 246 221 254 223 231 202 205 240 225 236 216 198 219 206 229 214 197 255 255 232 241 248 235 255 255 226 247 
253 255 255 255 255 255 243 241 220 210 224 255 239 221 205 221 228 222 194 194 199 250 210 228 237 249 219 219 180 239 239 255 245 193 229 227 224 225 239 178 229 232 255 216 221 225 252 255 232 216 227 225 206 204 244 245 243 246 209 231 218 204 245 238 217 218 208 224 211 214 233 255 235 214 189 222 255 241 206 186 201 232 255 240 202 227 221 228 202 221 226 196 252 208 221 220 213 222 229 249 215 194 217 229 247 249 239 232 255 235 
255 217 255 231 237 255 239 233 255 217 250 242 228 255 214 255 238 199 247 227 231 204 217 220 230 236 255 248 209 236 226 227 228 244 242 238 231 209 221 224 192 215 227 239 244 224 226 233 218 226 243 196 229 214 199 222 205 225 175 224 221 206 236 221 234 207 225 190 235 212 255 238 255 250 238 247 255 222 241 231 195 240 224 242 255 233 198 219 239 222 240 233 255 210 232 251 255 204 255 216 225 229 193 221 212 255 247 244 255 253 
255 255 251 255 248 255 210 229 217 252 249 249 243 255 211 233 217 234 213 202 216 227 240 233 243 241 247 230 212 203 179 251 232 197 252 225 230 239 224 192 252 203 224 211 215 255 244 224 229 210 225 211 207 228 229 235 223 239 237 243 192 222 221 231 217 247 249 250 252 222 210 235 255 232 224 221 205 214 247 255 241 233 242 217 217 225 225 211 209 186 192 244 242 181 250 234 223 254 235 195 246 251 217 219 244 255 227 234 251 255 
240 255 246 238 231 255 219 249 229 198 247 246 206 226 239 255 255 235 255 245 215 255 236 226 240 224 237 223 226 255 241 255 231 236 233 255 246 203 231 197 220 222 238 246 242 210 198 245 211 240 223 197 198 181 205 235 213 228 217 249 220 227 208 226 255 225 224 255 255 191 221 226 231 234 255 255 214 227 199 206 255 221 255 247 236 231 249 237 236 250 235 223 255 255 213 246 255 188 216 209 232 255 255 241 205 255 246 255 255 248 
216 232 237 229 255 255 246 242 215 230 255 235 231 236 221 244 230 232 242 254 239 233 232 224 229 250 218 239 227 247 215 255 212 229 222 248 223 212 243 230 255 188 238 248 241 220 192 221 239 221 245 222 211 221 210 204 243 239 255 225 253 221 223 231 247 224 239 242 204 233 228 241 222 235 219 224 225 251 255 224 213 255 224 255 225 221 228 246 255 235 223 181 241 255 237 255 233 250 255 255 226 233 221 234 255 241 255 248 255 255 
255 255 255 248 242 254 247 255 255 255 214 252 255 255 252 224 228 255 255 219 241 248 223 226 232 188 255 187 255 231 243 232 244 226 235 221 243 239 220 237 240 235 230 247 237 255 228 228 250 251 232 239 217 228 240 251 255 236 225 228 235 216 235 234 205 242 213 249 255 255 247 255 255 250 224 224 204 249 252 247 230 232 237 218 180 199 237 247 217 226 238 252 233 255 235 254 255 251 243 255 237 244 255 243 229 229 241 255 255 255 
255 234 255 244 245 232 212 242 214 240 203 242 250 229 248 236 241 231 230 221 252 252 234 229 255 222 230 217 255 200 198 211 228 226 200 255 220 206 206 245 232 208 202 250 223 255 210 255 206 254 252 194 229 243 255 255 238 248 243 241 231 219 233 227 255 248 215 248 255 255 237 245 233 214 234 255 231 245 237 225 238 236 235 255 236 255 239 219 248 255 235 252 241 248 247 210 227 202 214 237 255 251 206 218 255 245 255 216 243 250 
253 224 245 220 255 227 234 220 240 238 255 255 255 251 255 242 222 255 243 252 232 255 208 251 223 214 255 216 255 227 231 217 233 238 229 255 231 234 250 248 255 228 244 237 255 255 243 205 241 235 230 254 246 205 245 255 224 232 203 201 255 230 249 221 252 250 242 222 255 251 255 237 255 253 255 254 255 255 237 224 240 211 255 255 255 205 228 207 245 255 226 255 226 255 219 230 255 242 244 255 232 226 255 231 222 239 255 251 236 246 
246 251 255 255 255 255 255 240 255 234 230 233 241 222 255 229 219 223 221 255 246 255 255 228 204 236 214 255 255 215 219 242 255 223 255 255 221 242 255 232 236 234 242 250 239 244 209 253 255 213 238 245 255 231 255 247 250 244 227 206 255 230 255 246 251 248 214 248 252 249 249 222 224 248 255 244 203 245 252 251 248 224 255 248 243 255 211 202 210 231 233 228 231 240 255 230 226 255 244 205 255 218 219 227 206 245 247 224 228 244 
255 254 235 232 238 233 250 216 231 236 252 237 255 232 255 255 238 253 231 217 231 227 238 255 255 241 255 218 245 231 243 255 209 228 232 255 199 229 242 243 240 255 212 239 255 251 246 220 255 218 255 255 218 255 239 255 255 243 228 211 254 226 215 255 228 208 249 244 248 220 185 248 237 255 215 225 254 212 249 255 241 226 243 253 255 245 232 217 255 255 242 255 243 254 240 255 255 242 244 253 255 249 255 242 236 217 237 255 255 255 
255 240 230 236 214 236 255 240 230 253 255 255 245 255 255 255 255 255 219 223 238 239 225 212 255 248 249 246 255 242 235 229 237 255 240 236 216 242 255 255 255 255 255 230 221 246 238 255 255 217 220 229 236 255 229 234 228 211 221 221 194 209 242 232 245 233 232 252 232 255 255 255 222 214 248 244 234 255 255 250 229 255 210 255 240 225 236 221 250 255 229 250 234 255 251 236 255 217 216 255 245 242 247 210 253 255 246 209 251 233 
238 232 253 255 251 254 255 255 255 255 244 221 255 203 255 255 251 255 254 255 242 244 252 255 255 255 211 216 225 247 255 255 233 255 235 242 254 255 255 241 255 217 234 255 237 240 255 232 231 255 255 239 255 247 244 214 237 249 255 204 231 241 242 255 241 255 229 211 255 255 226 244 255 228 252 255 230 249 250 233 255 238 255 223 251 251 255 255 255 255 255 229 209 254 255 255 255 231 235 210 255 229 240 238 255 246 255 255 237 252 
255 248 245 227 255 238 255 248 232 255 194 255 236 223 238 255 255 248 247 223 221 237 244 221 255 243 255 234 255 246 245 242 255 241 255 255 255 234 255 255 255 255 255 241 255 255 221 255 255 245 201 255 244 249 222 243 255 255 236 255 255 229 254 255 236 255 242 248 193 249 255 255 249 235 234 255 255 249 255 246 255 206 220 245 224 255 249 228 255 235 254 246 255 240 247 199 225 255 223 213 211 243 222 255 249 255 255 252 255 255 
253 233 255 239 240 237 246 251 255 255 237 243 234 251 255 251 241 216 230 255 237 238 228 220 232 231 254 255 223 231 249 240 255 231 255 249 201 228 251 239 255 237 249 236 231 245 241 236 246 241 255 235 255 255 230 251 244 255 203 235 224 255 230 229 255 255 255 192 220 255 255 234 223 255 255 255 248 240 255 248 224 240 253 249 238 234 228 255 211 228 251 253 255 226 240 255 208 255 237 255 255 214 222 255 255 255 255 224 255 253 
240 255 220 255 255 255 255 245 255 224 255 255 233 255 255 246 238 255 236 255 236 250 249 255 255 253 255 255 255 210 255 244 243 234 255 255 255 248 255 227 247 255 247 251 251 255 255 244 255 241 255 234 255 255 237 255 255 244 248 255 250 255 255 255 240 255 214 255 250 255 234 255 255 255 243 255 255 255 243 253 255 236 247 249 241 254 228 234 255 255 255 254 229 251 254 255 255 255 232 255 245 255 255 255 255 255 235 225 255 255 
