P2

40 40
255
253 234 255 234 255 255 255 245 255 255 255 255 255 255 253 249 242 255 237 202 240 245 215 255 238 255 252 242 254 255 255 241 255 255 249 255 255 255 250 255 
229 251 244 254 255 253 245 247 241 222 234 255 255 227 234 255 255 250 255 214 255 253 255 230 255 255 225 251 255 249 245 233 251 231 255 252 254 252 253 255 
252 255 255 255 253 252 253 214 255 247 255 255 237 251 255 249 255 194 255 246 242 243 240 255 255 255 227 255 255 249 233 232 237 255 244 255 244 245 243 248 
255 255 255 255 216 255 250 229 255 255 252 247 212 255 255 255 210 229 207 229 246 244 255 255 255 240 228 255 255 207 246 255 255 242 255 255 253 255 251 249 
226 255 255 255 231 219 235 241 238 231 255 198 252 242 211 255 247 238 252 255 244 243 229 252 238 216 251 254 255 236 251 219 242 222 255 255 232 255 255 255 
253 253 255 226 221 233 239 239 253 247 243 245 243 246 231 245 231 255 240 229 255 209 255 255 242 255 214 240 212 233 247 216 253 255 230 201 227 255 219 255 
255 253 255 220 217 247 248 233 229 215 240 212 244 235 251 203 251 242 254 246 248 255 229 238 255 255 233 222 236 234 236 244 241 244 241 255 254 255 227 254 
255 255 255 255 255 255 245 183 241 231 255 255 240 255 239 255 221 255 245 206 251 213 247 237 251 244 248 228 255 227 255 205 255 241 239 241 223 212 241 255 
220 255 255 255 249 255 240 245 232 242 255 223 250 252 239 255 255 220 239 223 218 255 238 165 236 224 245 213 203 255 218 245 231 255 255 239 236 255 234 245 
231 255 255 252 213 247 251 255 215 235 255 249 218 214 219 252 224 234 199 255 219 210 218 255 255 242 239 210 252 247 255 255 200 248 209 237 255 209 222 255 
255 245 255 255 237 255 234 244 223 226 239 252 247 255 208 229 217 219 246 235 248 222 236 245 235 214 215 235 214 255 254 245 234 226 255 255 241 243 255 255 
255 233 238 255 234 255 236 255 237 242 223 245 246 230 203 255 244 221 210 255 245 228 255 226 251 196 239 240 195 217 238 242 249 255 228 238 242 255 255 232 
248 243 240 251 255 216 238 211 239 252 241 253 255 255 211 234 233 209 226 247 241 226 255 222 184 216 255 175 215 255 223 206 255 255 203 244 241 229 229 242 
227 255 255 255 239 252 255 255 255 246 255 217 255 187 255 255 227 223 224 205 214 255 226 213 242 192 215 230 233 214 255 240 230 226 231 247 247 250 224 247 
255 255 233 255 255 225 187 255 237 220 251 239 233 210 229 246 241 227 255 233 219 205 222 236 236 243 210 230 218 253 249 255 236 218 237 222 224 222 255 226 
222 252 235 233 255 248 255 243 255 223 248 255 228 236 238 212 224 219 232 200 254 230 237 232 225 229 243 250 221 217 232 252 241 255 226 230 236 210 255 255 
255 255 241 255 255 255 224 220 238 244 243 255 202 198 255 235 191 232 231 215 233 201 220 210 193 225 242 224 237 233 214 241 223 241 235 223 237 236 238 255 
255 255 230 214 249 255 255 233 229 254 239 222 222 221 233 220 219 215 243 222 224 221 231 239 197 255 213 178 220 250 184 219 255 232 255 255 222 255 238 237 
252 255 249 253 242 255 255 241 255 227 255 219 214 247 237 214 245 213 229 212 209 249 185 198 233 216 226 238 219 255 237 237 217 255 226 253 233 252 255 237 
255 245 237 232 254 255 255 235 222 234 205 226 245 255 186 218 214 235 233 224 219 191 201 236 236 215 183 226 221 216 255 243 246 214 234 229 240 247 235 255 
255 255 227 247 255 255 244 255 255 223 218 255 208 223 246 216 210 220 196 228 195 245 222 217 255 230 255 237 250 253 212 229 255 220 217 245 250 218 255 230 
255 255 241 244 255 255 243 240 217 214 246 248 224 214 245 230 247 212 209 220 183 235 206 212 216 228 216 216 220 212 246 241 251 255 232 231 247 241 246 255 
255 243 225 252 241 255 255 221 201 255 216 210 241 232 215 244 215 218 220 191 255 236 210 213 220 238 238 218 236 255 251 255 213 241 237 212 255 255 236 255 
255 250 232 243 255 255 240 229 246 219 210 255 213 229 223 204 232 190 214 214 205 225 233 217 230 251 228 255 209 255 240 210 219 255 225 231 209 250 255 255 
244 244 241 253 241 236 236 255 251 218 222 222 212 219 237 228 217 252 216 206 250 207 232 230 255 207 218 255 216 250 237 221 224 233 255 255 250 241 251 245 
228 245 244 255 245 255 211 222 239 254 161 255 240 224 190 231 232 223 243 255 179 231 214 226 228 208 249 238 210 241 251 255 242 243 240 234 236 234 235 255 
255 255 218 255 235 255 227 228 255 255 207 227 229 237 221 218 235 211 208 244 197 251 208 220 249 228 222 244 245 235 242 218 244 255 199 254 211 255 226 255 
255 255 255 248 230 255 255 230 225 225 191 242 224 195 244 229 196 222 236 194 208 235 199 255 255 223 220 231 219 224 235 222 223 249 240 250 232 235 228 255 
255 255 234 237 251 255 248 255 240 255 231 233 234 207 209 249 202 223 214 228 205 184 255 244 255 193 255 206 200 231 243 237 255 225 254 233 240 243 250 255 
240 255 246 255 253 223 249 255 238 209 221 255 235 248 255 208 211 239 220 255 254 224 211 209 208 255 255 255 255 211 214 253 248 255 226 255 248 255 251 245 
255 216 243 255 247 242 255 228 196 255 198 235 228 252 247 243 240 205 235 250 255 222 224 255 255 243 254 248 242 243 242 174 232 241 255 243 247 255 252 255 
251 240 229 241 255 215 239 214 255 224 242 225 226 227 226 251 205 246 225 236 241 251 237 239 255 251 235 204 237 214 255 247 253 255 255 238 255 255 233 255 
246 255 229 255 255 221 243 234 235 220 198 235 237 228 214 255 222 236 255 221 235 225 216 249 241 227 240 240 231 246 226 219 246 242 248 253 239 221 249 235 
255 255 236 251 255 214 255 245 242 255 242 252 238 255 255 235 251 255 255 251 252 255 232 252 236 253 233 202 246 236 254 234 228 255 255 247 255 255 255 255 
255 255 249 236 224 255 255 246 242 255 243 243 249 235 215 239 255 240 212 221 254 233 209 233 247 198 255 234 198 255 251 210 255 232 238 255 231 255 255 255 
245 255 255 224 220 197 209 229 255 242 252 255 240 251 238 254 246 255 255 232 226 231 255 255 255 215 240 255 211 255 246 232 248 255 255 239 254 255 251 255 
255 238 242 228 227 252 221 237 252 252 242 255 248 243 255 239 246 230 247 255 229 255 255 237 216 251 247 232 246 236 255 224 255 252 255 253 255 245 254 253 
240 255 244 255 255 230 255 242 245 215 255 255 255 236 255 255 232 255 209 247 255 211 242 255 255 225 249 234 242 255 255 218 255 241 255 226 255 255 254 248 
253 255 219 214 250 239 255 244 253 255 255 255 255 248 248 249 224 227 221 248 255 236 255 255 255 220 255 225 226 250 255 255 230 255 255 249 231 225 255 255 
239 255 255 253 244 255 255 255 207 248 255 245 255 238 255 248 248 237 255 255 255 255 243 248 219 255 249 233 249 230 237 243 235 254 236 255 255 255 224 227 
