P2

50 50
255
253 234 255 234 255 255 255 245 255 255 255 255 255 255 253 249 242 255 237 202 240 245 215 255 238 255 252 242 254 255 255 241 255 255 249 255 255 255 250 255 229 253 246 255 255 255 247 249 243 224 
236 255 255 227 234 255 255 250 255 214 255 253 255 230 255 255 225 251 255 249 245 233 251 231 255 252 254 252 253 255 250 255 255 255 255 254 255 216 255 249 255 255 239 253 255 251 255 196 255 248 
246 245 240 255 255 255 227 255 255 249 233 232 237 255 244 255 244 245 243 246 255 255 255 255 218 255 252 231 255 255 254 249 214 255 255 255 212 231 209 231 248 246 255 255 255 242 230 255 255 211 
252 255 255 242 255 255 253 255 249 245 220 253 255 255 233 221 237 243 240 233 255 200 254 244 213 255 249 240 254 255 246 245 231 254 240 218 253 255 255 238 253 221 244 224 255 255 234 255 255 255 
253 253 255 226 221 235 241 241 255 249 245 247 245 248 233 247 233 255 242 231 255 211 255 255 244 255 216 242 214 235 249 218 255 255 232 203 227 255 215 255 255 247 255 218 217 249 252 239 237 225 
252 222 252 241 255 205 253 244 255 248 250 255 231 240 255 255 235 224 238 236 238 246 243 246 243 255 252 255 221 246 255 255 255 255 255 255 247 187 245 235 255 255 244 255 243 255 227 255 255 218 
255 225 255 245 255 248 250 230 255 229 255 207 255 243 239 239 219 206 233 246 208 246 255 250 245 255 240 247 236 246 255 227 254 255 243 255 255 224 243 227 222 255 242 169 240 230 253 223 215 255 
234 255 243 255 255 239 232 255 224 233 217 255 255 244 207 243 249 255 217 239 255 253 222 218 223 255 228 238 203 255 223 214 222 255 255 246 243 214 255 251 255 255 202 248 209 237 255 209 222 255 
255 245 255 255 237 255 234 244 223 228 243 255 251 255 212 233 221 223 250 239 252 226 240 249 239 218 219 239 218 255 255 247 234 224 251 255 233 233 253 245 255 219 226 255 230 255 240 255 249 255 
243 255 255 246 217 255 254 229 216 255 249 232 255 230 255 200 243 244 199 221 240 242 247 255 222 230 232 255 252 216 230 227 226 239 246 208 232 207 237 252 243 255 255 255 223 248 249 227 246 255 
255 248 255 240 200 230 255 185 223 255 223 204 251 255 195 234 229 215 213 224 207 239 255 241 227 242 255 252 252 244 255 219 255 193 255 255 233 229 230 211 220 255 236 225 255 208 233 250 253 234 
255 255 242 234 235 247 243 242 212 231 250 255 215 243 243 213 177 255 231 216 249 239 235 214 235 252 247 233 255 239 225 211 228 242 242 249 216 234 220 253 249 255 236 218 237 222 224 222 255 226 
222 252 235 233 255 248 255 243 255 223 248 255 228 238 242 218 230 225 238 206 255 236 243 238 231 235 247 252 221 215 228 246 233 249 214 216 220 192 251 243 255 242 229 255 255 255 228 228 250 255 
255 255 222 218 255 255 211 250 247 229 245 211 228 216 199 229 244 224 235 229 208 233 213 229 221 207 219 216 216 244 246 255 208 194 231 245 254 221 221 250 239 226 230 233 249 240 243 243 255 254 
255 253 255 255 221 255 229 190 228 254 184 215 255 220 255 241 202 244 214 211 224 255 225 231 222 255 252 227 254 217 255 213 210 245 237 216 249 221 241 226 225 255 205 218 253 236 246 255 239 255 
255 253 229 255 230 253 229 244 252 221 245 225 217 212 234 246 255 219 208 222 195 218 239 255 184 218 216 239 239 232 227 199 207 240 238 215 183 226 221 216 255 243 246 214 234 229 240 247 235 255 
255 255 227 247 255 255 244 255 255 223 218 255 208 223 246 216 210 222 200 234 203 251 226 219 255 228 255 231 242 243 200 215 244 202 197 225 230 198 255 210 255 244 229 236 255 255 247 248 229 230 
255 255 244 234 255 250 255 232 229 240 201 251 218 220 220 228 212 208 210 200 232 225 233 244 210 207 221 213 216 227 233 211 195 224 217 236 253 209 193 251 216 214 249 244 231 255 239 246 252 225 
255 255 242 241 244 255 254 230 244 255 251 255 205 229 221 192 255 229 204 244 221 216 200 213 231 252 216 207 226 201 194 245 201 221 219 204 236 198 224 226 219 241 251 237 250 255 248 255 229 255 
255 226 231 255 229 231 205 242 249 255 224 224 221 233 221 216 216 240 231 198 204 206 198 207 227 220 211 246 210 200 244 201 228 228 255 207 218 255 216 250 237 221 224 233 255 255 250 241 251 245 
228 245 244 255 245 255 211 222 239 254 161 255 240 224 190 231 230 219 237 252 169 221 204 216 218 198 237 224 194 223 231 240 222 223 220 214 216 214 215 255 253 248 206 255 231 255 231 236 255 255 
227 247 249 255 241 236 251 225 220 254 205 255 212 222 249 226 218 236 233 219 222 194 218 232 169 222 177 221 188 219 220 247 248 220 206 249 240 218 217 221 191 246 232 207 255 245 214 242 255 218 
234 255 221 255 255 239 234 243 227 228 235 218 215 237 224 230 208 207 196 230 223 228 194 199 215 227 216 227 212 235 211 217 222 197 201 243 198 221 214 230 209 190 255 254 255 207 255 224 220 251 
255 253 255 233 255 233 236 235 238 255 220 239 226 255 233 203 229 243 218 189 201 246 213 224 255 184 187 215 198 244 236 208 197 197 198 253 251 255 255 211 214 253 248 255 226 255 248 255 251 245 
255 216 243 255 247 242 255 228 196 255 198 233 224 246 239 233 228 191 219 232 241 200 200 246 241 215 226 222 218 221 222 154 212 221 236 223 227 255 232 255 231 224 217 233 255 215 243 222 255 240 
255 241 240 239 236 255 211 250 227 236 239 247 231 231 254 239 221 188 219 194 248 223 225 226 232 198 255 223 193 231 206 248 197 240 238 201 227 222 227 214 194 233 237 230 218 255 230 246 255 235 
251 239 228 255 249 233 244 242 231 244 222 213 238 230 232 233 215 193 217 199 228 227 196 211 217 176 220 213 212 245 216 228 216 237 255 219 237 254 255 243 246 255 230 252 238 255 239 210 255 248 
255 246 238 255 255 247 255 249 255 243 255 242 229 216 204 252 255 224 218 229 215 213 217 201 181 205 236 206 180 191 226 207 185 211 227 180 246 220 186 246 243 204 252 230 238 255 231 255 255 255 
245 255 255 224 220 197 207 225 252 234 242 255 226 235 220 234 224 237 236 204 196 199 255 227 255 181 206 241 177 224 216 204 222 245 234 219 234 252 231 253 253 222 230 220 223 250 221 239 255 255 
250 255 252 245 255 237 242 224 239 245 217 255 239 219 196 229 223 206 218 206 223 190 254 218 249 219 225 209 216 213 200 237 212 230 231 206 255 222 227 199 255 255 245 228 255 253 230 255 211 251 
255 215 244 255 255 221 243 226 232 255 255 202 237 221 234 202 229 233 222 212 213 225 183 178 214 203 220 208 217 244 234 254 253 218 220 223 200 205 201 230 255 222 243 255 251 214 255 223 226 252 
255 255 230 253 255 243 223 215 252 255 219 249 244 229 218 227 234 238 173 212 230 209 227 202 226 212 212 201 227 231 229 220 209 216 189 237 223 209 227 210 219 227 221 242 226 255 255 255 222 227 
230 243 232 233 232 245 255 242 255 226 203 255 245 213 237 241 227 237 219 212 233 219 231 213 196 245 195 222 206 243 227 198 219 232 229 231 217 226 255 187 201 251 208 225 255 232 254 255 213 255 
253 255 239 255 246 211 243 245 240 255 249 222 207 220 255 207 204 229 251 223 220 219 208 212 212 254 236 217 221 223 213 194 229 215 215 232 240 229 198 207 230 188 215 248 254 255 215 223 255 255 
255 249 233 254 210 255 229 227 250 255 221 246 255 229 244 223 251 220 239 239 222 255 167 233 212 218 246 231 235 202 207 218 227 214 210 221 219 226 211 247 255 204 208 255 217 236 237 254 245 255 
252 255 255 255 255 250 210 255 255 218 251 214 242 248 218 228 197 178 203 195 229 247 241 181 222 215 218 240 251 216 182 203 203 206 221 215 252 236 233 255 247 242 213 240 252 255 255 255 230 255 
225 255 241 255 226 255 255 236 252 219 230 232 245 245 228 199 208 230 220 241 238 205 243 216 217 254 212 233 253 226 227 237 255 239 224 208 238 226 239 217 217 255 255 255 242 255 244 255 251 241 
242 255 238 227 255 255 230 251 255 245 242 245 234 255 250 229 231 255 239 226 235 234 255 244 255 241 223 229 222 222 199 219 242 229 254 235 210 231 255 232 255 255 230 216 249 253 254 255 238 255 
255 255 228 254 255 255 255 224 225 254 252 202 235 220 244 238 242 230 213 218 237 227 204 255 234 226 221 232 242 191 234 238 235 230 255 255 220 219 238 223 221 222 213 253 255 194 255 255 255 255 
224 235 227 249 247 255 250 228 230 233 252 234 250 206 215 255 239 229 222 255 246 213 252 251 255 255 221 194 205 199 219 255 232 249 231 240 250 223 193 208 232 171 233 250 220 236 255 229 253 255 
255 239 255 255 232 255 243 211 250 238 219 235 239 232 243 246 218 226 246 225 227 245 247 245 206 252 238 231 220 255 246 255 226 237 255 245 226 229 228 184 241 255 222 227 250 255 247 255 247 255 
255 254 248 241 234 231 255 229 255 211 218 234 225 243 255 233 235 249 250 235 234 220 248 224 227 240 244 247 255 255 239 243 241 229 230 255 220 244 242 223 255 253 255 238 247 255 255 247 229 251 
255 255 255 255 255 230 254 255 223 240 255 189 229 255 253 224 255 205 246 223 204 205 223 241 248 239 255 215 241 199 219 255 255 206 220 228 252 213 231 235 246 240 255 211 228 255 250 255 255 253 
248 255 254 218 237 248 229 229 255 240 255 249 183 214 227 255 252 236 245 246 211 221 243 246 234 233 255 231 206 255 233 244 237 255 252 255 237 246 255 255 224 255 243 237 243 255 243 251 255 255 
237 255 193 234 250 239 252 242 255 249 226 249 214 255 255 255 202 231 247 247 241 255 255 255 228 233 228 243 250 229 221 255 255 240 251 255 240 236 255 255 248 247 237 218 221 255 254 255 227 234 
255 255 255 240 254 255 255 225 251 231 253 255 218 255 224 236 255 208 231 231 246 255 245 222 255 255 195 251 255 255 233 243 213 244 212 255 245 211 215 206 255 255 227 200 243 255 255 255 244 253 
255 255 252 224 255 228 255 234 247 235 221 254 242 249 232 222 248 237 222 232 208 230 244 244 222 249 246 234 231 202 242 247 238 255 253 255 255 244 255 187 227 249 244 255 217 255 249 208 226 224 
255 237 255 240 251 229 255 235 240 255 255 225 236 198 216 251 220 255 233 253 255 239 225 235 255 254 255 249 255 249 247 255 253 255 255 238 241 255 220 255 255 233 249 255 255 255 255 251 255 253 
255 245 255 233 253 242 240 255 246 255 255 251 255 239 255 255 211 248 233 251 255 255 246 240 237 243 255 196 255 230 251 255 222 246 226 255 255 246 215 255 255 251 245 231 255 255 255 228 255 252 
237 255 255 255 255 249 241 253 237 244 255 255 252 247 255 247 254 255 226 247 210 204 242 232 255 216 255 245 253 255 218 255 255 226 231 255 255 251 228 255 249 255 237 255 245 255 250 255 252 255 
