P2

90 90
255
253 234 255 234 255 255 255 245 255 255 255 255 255 255 253 249 242 255 237 202 240 245 215 255 238 255 252 242 254 255 255 241 255 255 249 255 255 255 250 255 229 253 246 255 255 255 247 249 243 224 236 255 255 229 236 255 255 252 255 216 255 255 255 232 255 255 227 253 255 251 247 235 253 233 255 254 255 254 255 255 252 255 255 255 255 255 255 218 255 251 
255 255 239 253 255 251 255 196 255 248 244 245 242 255 255 255 229 255 255 251 235 234 239 255 246 255 246 247 245 248 255 255 255 255 220 255 254 233 255 255 255 251 216 255 255 255 214 233 211 233 250 248 255 255 255 244 232 255 255 211 250 255 255 246 255 255 255 255 253 249 224 255 255 255 237 225 241 247 244 237 255 204 255 248 217 255 253 244 255 255 
252 249 233 255 242 220 255 255 255 240 255 223 246 226 255 255 236 255 255 255 249 251 255 228 225 239 245 245 255 253 249 251 249 252 237 251 237 255 246 235 255 215 255 255 248 255 220 246 218 239 253 222 255 255 236 207 231 255 219 255 255 251 255 222 221 253 255 241 237 223 248 220 252 243 255 211 255 250 255 254 255 255 237 246 255 255 241 230 244 244 
248 254 249 250 247 255 255 255 225 250 255 255 255 255 255 255 251 191 249 239 255 255 248 255 247 255 229 255 253 214 255 221 255 245 255 252 255 236 255 235 255 213 255 249 245 245 225 212 239 252 214 252 255 255 251 255 246 253 242 252 255 233 255 255 249 255 255 230 249 233 228 255 248 175 246 234 255 223 213 255 228 255 241 255 255 243 238 255 234 245 
231 255 255 252 213 249 255 255 223 245 255 255 228 224 229 255 234 244 209 255 229 220 228 255 255 252 249 220 255 255 255 255 208 254 213 239 255 207 218 255 255 239 255 255 237 255 238 250 231 236 251 255 255 255 220 241 229 231 255 247 255 234 248 255 247 226 227 247 226 255 255 255 242 232 255 255 241 241 255 253 255 227 234 255 234 255 240 255 249 255 
243 255 255 246 217 255 255 233 222 255 255 240 255 238 255 208 251 252 207 229 248 250 255 255 230 238 240 255 255 224 238 235 234 247 254 216 240 215 245 255 251 255 255 255 225 248 247 223 240 255 255 240 255 236 198 230 255 189 229 255 233 214 255 255 205 244 239 225 223 234 217 249 255 251 237 252 255 255 255 254 255 229 255 203 255 255 245 243 246 229 
240 255 248 233 255 208 229 244 245 224 255 246 234 228 231 245 243 244 216 237 255 255 225 253 253 223 187 255 241 226 255 249 245 224 245 255 255 243 255 249 235 221 238 252 252 255 226 244 230 255 255 255 240 220 237 220 220 216 255 216 210 242 227 227 255 246 255 245 255 229 255 255 240 250 254 230 242 237 250 218 255 248 255 250 243 249 255 255 241 237 
252 255 253 255 230 230 232 202 255 251 255 246 231 255 255 255 222 220 240 248 249 255 212 210 255 251 209 250 249 233 251 219 238 228 211 241 255 236 247 241 220 245 225 241 233 219 231 228 228 255 255 255 220 206 243 255 255 233 231 255 245 230 232 233 247 236 237 235 255 242 244 241 251 255 215 255 227 190 230 255 190 223 255 232 255 255 222 255 238 237 
252 255 249 253 242 255 255 241 255 229 255 225 222 255 249 228 255 231 249 232 229 255 205 216 249 230 238 248 227 255 241 239 217 254 222 247 225 242 252 223 249 231 225 222 246 255 255 233 222 236 209 232 253 255 198 232 230 253 253 246 241 213 221 254 252 229 195 236 229 222 255 245 246 212 230 223 232 237 223 248 255 251 215 239 255 255 248 255 255 239 
238 255 228 243 255 236 230 240 216 248 217 255 240 233 255 242 255 245 255 255 214 229 255 216 211 237 240 206 255 214 255 244 227 232 249 249 237 236 215 214 248 252 230 222 255 242 255 228 227 240 203 255 224 228 230 240 226 224 226 216 248 241 249 255 226 223 237 229 232 243 249 227 211 240 231 248 255 217 199 255 218 214 249 244 231 255 239 246 252 225 
255 255 242 241 244 255 254 230 244 255 251 255 209 235 229 202 255 243 220 255 237 232 216 229 247 255 232 223 242 217 210 255 217 235 231 214 244 204 228 228 219 239 247 231 242 255 236 255 213 255 240 208 215 252 217 221 197 236 245 253 224 226 225 239 229 226 228 254 247 216 222 224 216 225 245 238 229 255 228 218 255 221 248 248 255 227 238 255 236 255 
255 237 236 241 255 255 246 233 239 229 208 225 226 241 231 255 201 214 233 250 159 255 242 228 196 239 240 231 251 255 187 239 222 234 236 216 255 242 212 241 249 255 236 235 230 222 222 218 217 255 251 244 200 250 221 246 217 220 254 255 205 227 231 241 227 224 241 217 214 250 203 255 214 226 255 234 228 248 247 235 242 218 244 255 199 254 211 255 226 255 
255 255 255 248 230 255 255 230 225 225 191 242 224 197 246 231 198 224 238 196 210 237 201 255 255 225 222 233 219 222 231 216 215 239 228 236 216 217 208 244 239 246 214 219 235 247 236 247 232 253 227 231 234 207 209 249 202 223 214 228 205 184 255 244 255 193 255 206 200 229 239 231 255 215 242 219 224 225 230 255 220 243 234 255 249 223 253 255 250 225 
241 255 253 255 255 220 221 247 226 255 255 224 209 205 204 255 253 255 255 207 208 245 238 249 212 253 230 238 229 221 229 192 221 255 229 226 255 216 186 253 192 229 222 246 241 237 234 199 229 244 255 216 218 255 255 237 248 242 236 237 236 166 222 229 242 227 229 255 230 255 225 216 207 221 255 199 225 202 255 220 240 225 228 231 232 255 215 255 239 252 
255 255 251 251 255 255 241 208 239 214 255 243 245 246 252 220 255 241 209 245 218 255 205 246 242 203 227 220 223 208 186 223 225 216 202 255 210 224 255 209 223 213 204 237 229 215 228 228 219 234 214 207 234 228 232 235 219 199 225 209 240 241 212 229 237 196 240 231 228 255 228 238 224 243 255 221 237 254 255 243 246 255 230 252 238 255 239 210 255 248 
255 246 238 255 255 247 255 249 255 243 255 242 229 216 204 252 255 228 224 237 225 225 231 217 197 221 252 222 194 203 236 215 191 215 229 180 244 216 180 238 233 192 238 214 220 249 209 239 245 229 215 255 230 200 198 177 189 209 238 222 232 255 220 231 218 234 226 241 242 212 206 211 255 241 255 195 222 255 197 244 236 224 242 255 254 239 254 255 251 255 
255 238 242 228 227 250 217 231 244 242 230 245 232 225 242 217 222 206 223 231 205 255 231 213 192 227 223 208 222 212 231 200 255 228 255 229 235 219 226 223 208 243 216 232 231 204 255 216 219 189 255 255 229 210 235 231 206 241 183 221 244 185 216 248 239 199 223 208 216 242 255 192 229 215 230 202 233 241 234 228 233 247 207 204 242 233 252 242 253 255 
255 255 255 246 244 243 216 217 209 234 255 218 235 255 235 194 237 195 196 220 232 238 200 225 231 219 201 195 234 242 205 237 234 221 212 223 232 238 175 216 234 213 231 206 230 216 216 205 231 235 233 224 211 216 187 233 217 201 217 198 205 211 203 222 204 231 235 237 192 195 196 211 202 205 208 225 241 230 248 222 203 255 253 225 253 255 251 255 251 246 
255 253 255 243 224 255 219 244 226 255 243 212 231 240 233 231 213 218 253 173 185 233 188 203 252 206 226 240 181 246 217 230 207 231 218 185 219 223 220 252 233 208 195 210 255 201 200 227 249 221 218 217 206 210 210 252 234 215 219 221 211 192 227 213 211 226 232 219 186 193 214 170 195 228 234 238 195 203 244 236 238 233 221 246 206 255 233 235 255 255 
241 255 255 249 255 243 255 238 255 253 234 255 175 239 216 220 246 229 231 196 201 212 221 208 204 213 209 214 197 231 252 184 186 240 191 208 207 222 211 250 214 231 255 243 252 222 184 255 235 198 233 198 228 236 208 220 189 170 195 187 221 239 233 173 214 207 210 232 243 208 174 195 197 202 219 215 252 236 233 255 247 242 213 240 252 255 255 255 230 255 
225 255 241 255 226 255 255 236 252 219 230 232 245 245 228 197 204 224 212 231 226 193 231 204 205 242 200 221 241 214 215 225 250 227 212 196 226 212 223 199 197 237 231 251 214 237 212 234 215 203 202 230 202 193 255 255 202 225 238 223 222 227 218 250 236 215 217 252 225 212 221 222 253 236 255 237 221 229 224 226 205 227 252 241 255 251 228 251 255 252 
255 255 242 224 253 253 250 255 226 255 255 235 208 234 255 240 235 204 205 234 232 182 217 202 226 220 224 212 195 200 219 209 186 247 216 208 203 214 224 173 216 220 217 212 242 239 202 201 220 203 199 198 187 225 226 162 234 225 218 233 182 195 189 213 213 224 220 200 204 209 232 218 236 194 205 255 233 225 220 255 248 217 255 255 255 255 235 210 223 219 
241 255 250 255 245 252 255 231 199 212 232 167 225 238 204 216 237 201 221 246 225 199 233 220 196 222 211 181 222 212 195 211 215 208 219 222 194 202 222 201 203 221 223 221 182 228 214 207 196 255 222 236 202 213 238 221 202 205 204 160 217 233 194 197 218 235 211 234 207 226 222 218 216 213 210 211 255 217 248 207 216 234 227 247 255 241 245 255 255 251 
252 236 255 236 237 248 250 251 255 255 237 239 235 221 220 245 206 228 224 203 236 229 227 206 213 225 223 207 187 207 221 214 220 227 217 194 220 225 193 210 225 159 199 226 223 194 229 175 216 193 174 175 193 211 218 209 238 185 211 169 189 241 229 176 190 198 222 183 203 209 222 218 255 191 208 242 230 255 255 233 228 240 242 210 233 248 233 237 255 252 
255 255 193 222 233 255 254 236 243 242 205 213 233 234 220 217 255 211 184 232 207 216 207 230 218 221 203 212 245 241 190 221 209 203 207 229 203 209 222 225 189 228 149 192 210 201 216 206 242 213 190 213 178 228 237 248 166 195 211 211 205 250 230 230 192 197 192 209 218 199 193 238 231 218 231 255 224 222 255 255 240 241 233 216 221 255 254 255 227 234 
255 255 255 240 254 255 255 221 245 223 243 252 204 242 206 216 248 184 205 203 216 224 211 186 217 222 155 211 226 215 193 203 173 204 172 225 205 171 175 166 216 218 187 160 203 217 220 255 198 205 212 231 206 180 214 186 230 192 205 193 179 212 200 207 190 180 208 199 186 198 176 200 216 218 198 227 226 216 215 188 230 237 230 255 249 254 255 246 255 193 
235 255 248 255 217 255 245 200 214 208 245 217 243 220 229 205 255 207 210 234 239 189 198 158 174 207 174 226 187 207 216 193 179 189 210 208 240 203 218 203 201 216 207 251 215 192 195 220 174 224 223 187 203 226 235 218 237 205 214 203 215 195 207 185 205 196 196 247 206 232 234 217 229 209 238 236 187 226 213 233 255 246 234 230 229 237 255 194 255 232 
255 255 222 244 222 250 255 236 203 245 251 233 225 209 234 229 231 198 255 216 197 217 225 211 222 201 191 201 185 192 215 221 200 195 218 195 202 229 174 195 158 152 190 180 231 164 216 193 201 212 166 208 216 174 179 211 245 199 176 231 197 211 185 215 195 221 204 220 210 235 181 202 194 235 214 209 224 255 227 255 231 255 240 250 241 255 245 255 250 255 
255 255 223 224 255 249 247 214 245 229 234 230 226 231 209 255 211 205 215 216 234 198 199 197 226 255 214 223 189 214 226 222 212 180 204 227 172 210 207 219 208 191 175 213 230 182 221 198 199 187 194 182 221 166 209 211 199 227 159 194 215 207 215 202 169 209 206 235 170 221 225 209 233 209 223 209 230 246 216 255 235 196 255 237 255 248 248 246 227 209 
240 236 202 255 254 255 240 249 218 235 244 240 203 216 243 226 177 220 195 211 197 234 207 239 215 242 212 194 175 201 173 195 206 230 175 229 215 224 218 204 172 209 192 142 167 234 190 166 217 202 198 155 185 212 166 195 197 206 206 220 199 200 199 199 193 198 216 190 205 231 230 203 228 206 207 235 192 229 223 217 233 255 252 255 230 255 251 255 242 255 
234 189 219 239 238 255 252 255 243 224 229 253 225 234 229 221 237 201 206 212 194 198 212 198 201 188 222 166 205 214 204 198 171 160 189 173 161 201 220 213 187 169 208 197 182 193 163 195 198 189 199 233 208 175 219 204 175 183 182 179 180 216 210 182 218 208 248 234 219 213 235 212 249 221 216 196 207 227 240 227 231 255 246 255 224 255 255 255 222 229 
248 236 255 255 247 255 233 231 225 236 255 253 198 225 216 229 209 201 234 182 239 213 196 191 215 219 212 175 207 195 189 184 217 196 157 194 184 202 166 196 169 151 171 197 219 199 176 206 138 187 210 143 169 200 235 222 243 214 179 150 195 215 195 207 189 213 237 184 226 213 241 196 227 223 241 236 219 221 210 237 245 235 242 224 230 255 250 255 241 255 
242 255 255 255 232 251 244 241 254 245 226 221 236 255 211 227 233 220 238 206 215 213 181 201 226 176 204 193 223 182 195 168 204 195 209 218 186 200 167 187 186 178 191 196 171 163 231 190 181 185 166 212 190 189 185 191 203 211 191 216 208 217 178 184 182 209 186 199 186 239 195 229 219 224 223 250 219 244 200 216 224 255 218 211 219 249 228 255 218 205 
231 254 255 255 255 251 228 239 255 218 216 255 236 223 228 242 252 213 227 240 211 205 248 190 210 216 195 205 206 190 195 223 209 198 201 216 153 189 182 200 197 196 170 197 205 204 180 181 201 183 144 194 171 180 191 202 202 196 214 161 203 148 187 205 206 169 206 195 204 205 205 217 217 212 241 227 229 235 231 241 255 215 224 231 244 255 255 234 255 242 
255 223 255 228 247 239 220 249 198 255 236 203 216 221 220 202 223 242 192 255 205 239 197 196 183 205 226 157 228 225 203 222 148 199 200 145 121 181 186 188 170 199 187 180 202 194 196 158 189 233 204 183 199 202 174 170 177 198 172 203 177 202 215 164 180 237 185 206 213 201 215 211 224 212 252 214 234 229 245 225 238 251 209 240 232 251 255 255 255 255 
255 255 233 255 255 238 221 218 255 255 241 247 232 214 212 228 203 226 225 255 207 190 170 176 247 215 203 205 219 190 195 223 220 200 182 175 177 176 179 150 201 185 196 157 189 181 197 183 167 217 196 187 192 138 165 153 196 178 202 170 198 190 208 178 167 208 204 213 181 175 219 191 217 251 239 239 237 223 238 184 231 218 226 255 200 255 252 238 255 255 
255 245 255 255 252 255 255 255 214 255 216 255 199 217 233 182 239 232 185 242 224 200 168 215 183 205 200 200 170 208 182 171 191 194 198 204 214 205 152 176 126 173 189 179 180 172 236 189 177 186 177 194 171 163 156 160 174 192 164 166 197 177 187 194 188 205 175 234 235 202 217 224 205 203 208 198 244 237 245 235 193 220 227 255 248 233 229 255 255 232 
244 255 255 239 255 255 254 255 225 252 211 224 230 224 255 229 229 211 219 215 198 213 195 209 186 255 218 203 174 179 209 199 194 192 187 195 188 201 197 167 140 171 135 146 199 202 154 194 182 171 187 192 200 162 184 209 212 221 173 193 222 213 190 181 232 203 209 246 211 220 202 220 222 244 239 254 208 211 251 231 241 255 248 198 233 220 247 255 255 236 
255 241 255 234 250 255 250 228 239 237 255 251 227 249 255 255 223 220 210 219 205 201 232 216 208 217 226 196 193 212 206 216 177 183 190 185 195 213 176 201 162 192 181 134 173 183 176 183 219 198 164 188 148 192 182 205 198 217 193 167 186 192 171 188 202 200 242 177 220 207 215 210 206 213 200 208 176 235 255 238 255 255 255 233 228 236 247 255 246 255 
255 248 255 255 226 255 245 207 235 227 236 255 162 207 247 241 205 245 203 246 190 210 191 200 222 211 174 219 179 206 167 198 199 214 210 190 210 171 169 197 186 182 177 182 177 187 157 213 172 166 163 198 169 225 208 184 226 196 231 223 239 239 224 219 201 221 176 194 226 229 239 223 207 221 225 253 237 255 229 234 229 241 255 246 243 255 255 255 251 255 
229 255 252 227 231 255 247 234 255 212 219 255 209 230 207 187 241 220 211 217 211 168 198 191 213 214 213 192 199 206 198 178 216 177 215 165 176 171 164 196 168 189 195 131 193 202 222 164 127 190 175 180 175 213 157 190 232 202 172 191 173 185 199 219 197 197 219 216 214 255 199 208 207 237 255 192 232 229 238 255 198 253 247 255 247 235 255 255 255 229 
228 238 236 248 230 255 226 255 224 197 248 223 215 255 255 230 241 226 211 224 208 191 213 167 210 212 173 209 221 208 169 245 210 175 226 190 199 173 184 154 160 165 160 167 220 212 195 147 161 213 131 200 196 199 162 200 133 189 203 173 199 235 202 234 204 170 198 171 221 197 224 176 225 211 211 199 163 216 229 224 255 218 234 225 246 224 242 251 208 242 
233 248 240 255 255 255 251 245 222 245 255 248 213 229 238 245 211 222 225 218 231 227 211 217 189 225 212 210 192 161 190 181 199 214 191 199 212 172 180 184 160 174 169 181 200 155 171 194 173 178 163 145 166 188 191 224 175 197 159 181 188 172 181 201 204 213 204 223 220 198 239 216 179 220 193 217 223 220 214 255 220 219 234 234 247 236 241 255 255 253 
226 255 255 235 214 232 222 224 191 218 255 235 245 255 197 209 223 221 229 220 218 187 217 231 212 243 197 196 198 168 209 226 178 196 220 162 169 175 179 153 143 193 151 173 179 144 173 172 164 162 138 193 168 127 160 173 165 185 197 167 185 185 191 196 174 184 224 239 242 209 255 223 202 232 205 246 216 249 241 219 230 231 230 231 222 248 255 235 230 255 
235 255 255 224 226 255 217 243 225 207 230 235 246 205 255 220 209 227 249 171 228 241 201 213 202 225 198 201 217 179 184 170 216 190 208 181 175 156 180 178 166 177 136 119 172 151 231 171 172 146 177 200 151 171 166 122 150 190 200 209 204 238 228 205 209 188 225 223 194 218 215 221 217 246 255 230 234 239 215 237 240 214 255 211 238 238 255 255 255 255 
230 244 255 255 255 243 231 205 255 235 248 252 249 251 242 187 243 200 191 213 221 215 244 204 190 240 186 191 214 158 220 214 170 201 180 162 195 173 156 189 155 173 172 162 159 182 163 166 180 148 162 176 181 176 177 196 170 196 180 220 165 204 174 199 224 194 202 205 232 242 225 185 190 212 230 225 246 196 201 247 208 255 230 255 252 226 253 255 245 255 
255 253 255 249 255 255 231 211 255 245 207 238 220 219 246 216 253 251 251 222 206 206 194 242 217 228 179 197 195 180 171 191 154 202 176 166 174 200 226 173 188 170 178 138 171 167 183 147 158 172 160 149 161 162 191 183 185 168 191 147 175 191 232 189 195 223 195 214 181 238 221 225 253 226 245 207 220 223 207 241 235 245 225 211 255 226 231 255 255 253 
255 231 233 249 238 225 255 241 235 231 240 255 245 228 226 177 224 212 250 227 218 182 196 234 207 204 181 198 172 163 159 215 194 169 153 169 177 183 190 216 179 162 169 204 178 158 195 153 174 156 212 203 183 200 185 184 166 211 159 214 195 189 218 206 190 199 194 229 184 191 199 243 194 195 232 232 193 224 231 214 212 255 255 249 255 255 255 248 234 198 
220 253 255 238 255 238 255 219 238 255 226 214 227 234 219 204 219 199 234 186 214 216 195 209 217 188 200 203 204 188 186 205 188 193 164 162 172 153 169 170 195 147 182 166 155 191 187 178 159 156 174 176 231 147 169 204 192 196 184 195 209 214 205 234 234 240 206 198 196 212 193 196 203 205 242 235 197 220 212 226 242 254 238 235 255 254 255 247 247 255 
255 255 245 253 226 255 237 225 255 230 247 229 255 231 223 197 255 238 255 215 235 190 219 200 227 178 140 200 181 207 193 209 179 164 126 173 158 191 160 170 139 175 140 154 158 176 198 143 191 166 203 182 181 197 222 198 208 181 179 213 161 181 220 205 189 205 219 203 255 213 250 208 232 217 242 202 233 200 224 227 223 217 238 226 248 247 255 255 255 252 
242 229 255 217 220 255 253 255 255 255 239 231 230 255 222 206 236 246 233 207 193 248 229 208 232 208 197 184 209 205 167 204 218 235 217 175 156 182 215 156 171 167 174 165 154 181 192 170 190 164 182 163 160 168 178 194 213 215 204 207 235 191 193 204 212 194 229 189 210 221 216 218 227 211 215 190 205 230 241 208 253 207 223 242 255 233 255 230 255 255 
233 244 255 214 240 244 255 246 219 255 229 230 251 240 254 244 247 235 220 255 184 221 186 219 220 205 220 194 228 209 229 163 187 206 181 185 183 154 143 174 191 193 169 156 181 167 211 213 176 160 177 160 194 209 188 179 216 190 203 166 193 201 196 201 203 191 193 217 181 217 238 245 238 207 211 201 242 230 223 216 205 236 223 230 254 223 240 246 255 255 
225 214 238 247 202 238 247 233 212 242 209 222 243 220 243 255 197 179 190 247 204 241 239 179 215 231 181 215 190 179 200 189 192 209 189 180 193 208 179 180 180 200 207 147 213 145 179 163 156 181 184 167 174 181 183 196 179 188 210 183 181 205 218 178 203 220 196 191 231 211 208 211 224 246 204 233 251 211 237 229 242 248 237 254 246 243 255 252 207 235 
255 253 242 229 255 221 227 251 247 228 228 235 232 226 185 211 229 204 254 235 194 216 182 175 232 189 202 191 184 200 201 179 202 199 192 195 181 156 201 195 156 162 180 158 177 179 163 142 224 177 153 201 162 151 236 208 207 204 196 189 195 215 210 207 180 171 213 206 201 193 237 221 211 197 225 206 216 233 240 251 250 189 190 255 246 243 255 245 255 255 
255 238 255 244 255 252 229 217 216 216 253 231 244 255 229 198 254 234 199 223 202 238 219 221 201 191 164 181 208 200 159 176 200 159 174 193 187 169 190 193 206 170 207 206 173 159 169 183 186 178 183 162 180 178 162 190 179 214 154 179 206 209 208 169 226 235 212 177 211 232 251 222 209 219 207 226 243 219 211 226 241 246 226 255 217 250 244 242 222 243 
255 255 255 255 200 236 233 229 255 237 249 230 216 229 234 218 254 192 185 222 237 212 203 190 207 211 182 224 163 177 190 207 191 189 162 187 186 198 196 163 217 188 198 176 207 200 173 158 193 166 203 185 142 196 214 174 160 187 145 211 194 214 196 214 204 211 213 200 225 244 201 206 228 210 217 213 244 243 235 240 185 215 255 255 228 245 223 255 240 247 
251 255 255 219 221 255 255 240 227 226 255 215 212 232 232 243 227 201 230 242 237 222 188 153 233 196 241 226 199 197 221 193 199 202 195 229 193 187 178 188 180 166 201 196 184 187 166 161 174 228 173 207 178 228 176 206 176 200 211 211 168 180 234 204 221 206 195 219 214 230 214 225 168 207 237 226 225 225 206 210 254 237 206 246 222 255 242 243 242 231 
253 218 251 255 238 240 242 239 252 245 245 255 239 239 245 243 238 210 234 203 190 183 209 232 198 196 197 212 200 161 214 210 172 196 219 185 156 207 182 157 175 175 173 192 190 169 200 183 176 183 201 184 193 206 175 182 172 224 218 173 192 183 204 186 173 202 166 182 205 192 183 247 211 208 194 251 209 220 233 235 251 228 247 250 243 239 217 255 255 255 
248 244 255 255 255 240 242 254 245 255 237 250 245 235 237 234 217 243 211 224 233 196 211 209 203 187 193 193 190 227 198 209 201 214 205 205 165 216 193 212 173 175 210 186 207 201 204 191 182 177 179 197 188 220 181 213 191 186 185 175 195 192 218 228 198 187 199 191 214 224 197 159 218 210 235 238 215 241 214 230 216 251 250 255 218 249 226 242 245 255 
255 240 255 212 255 249 255 216 244 214 204 182 231 233 210 247 255 203 201 208 229 203 185 223 190 199 229 199 196 215 187 184 200 178 203 219 208 207 224 199 188 179 145 198 174 188 163 191 225 189 195 193 197 173 193 198 210 184 203 217 169 192 193 176 233 197 198 222 224 244 193 213 197 216 251 230 229 186 227 234 219 222 194 238 236 200 236 247 255 255 
255 234 221 255 229 224 224 241 255 247 255 255 255 244 252 236 198 211 227 217 201 197 200 237 193 233 209 167 199 204 228 181 188 173 215 195 199 169 186 211 223 189 168 176 155 165 200 209 197 182 176 183 192 249 205 185 232 207 179 189 165 224 193 201 207 210 180 209 195 200 207 229 211 235 245 231 227 227 226 235 250 255 199 242 246 234 244 227 251 220 
225 255 255 224 255 233 214 233 216 228 255 255 224 226 235 213 225 247 209 201 214 224 220 201 224 205 187 189 218 166 196 198 197 166 214 201 218 182 206 197 182 188 209 202 177 211 199 203 170 191 229 180 210 219 173 206 204 216 167 208 196 249 201 217 162 185 221 205 219 210 215 232 182 253 193 225 222 208 255 201 241 209 233 254 255 250 219 240 237 255 
255 220 242 255 252 255 255 251 239 247 230 233 224 231 238 255 217 217 203 241 204 190 199 207 201 188 180 179 175 215 178 211 199 202 194 170 206 167 203 201 198 203 199 194 197 231 178 211 199 213 241 207 230 222 175 187 198 199 207 206 182 191 168 200 176 205 159 201 230 161 224 234 233 207 250 234 210 204 220 199 255 248 255 234 244 248 243 244 255 228 
255 255 229 220 255 243 247 255 252 225 198 222 234 231 247 255 255 215 222 242 211 205 202 194 188 213 192 198 192 205 211 180 196 198 222 204 211 158 228 180 192 218 209 208 212 217 235 160 232 146 226 225 179 213 201 211 208 190 200 188 171 173 174 176 210 225 211 208 192 218 219 190 232 217 210 225 212 234 236 207 255 255 225 248 233 255 250 255 245 255 
255 255 240 234 239 243 224 255 255 241 247 205 235 228 220 240 228 227 221 188 217 220 225 252 205 198 217 188 176 193 205 219 190 216 242 199 173 197 168 186 212 209 186 182 202 206 243 207 205 218 205 198 201 155 201 219 218 224 201 211 192 188 191 243 205 191 220 213 245 221 212 253 211 211 191 250 204 229 226 239 231 203 225 216 250 255 235 252 218 250 
236 255 255 255 213 175 255 225 252 221 255 202 218 224 210 220 189 228 210 215 234 212 218 214 164 226 169 205 191 180 210 179 194 186 219 232 171 191 166 255 196 173 196 219 207 188 202 227 186 221 195 234 177 200 188 179 250 250 200 214 224 172 196 237 179 226 220 218 254 179 230 183 198 245 223 212 255 186 215 230 239 205 244 241 255 210 212 231 236 255 
255 255 255 255 245 255 255 224 208 255 216 221 235 225 226 253 232 213 253 209 225 202 214 190 216 199 198 227 208 232 218 207 216 201 255 184 207 204 205 199 190 168 191 218 197 179 214 213 196 230 191 199 200 225 211 206 216 195 154 231 198 208 159 189 197 215 214 234 215 181 221 202 214 177 193 210 251 209 247 255 255 243 221 241 247 232 243 203 255 240 
229 255 255 255 255 226 236 241 247 255 234 230 255 240 241 212 238 227 220 186 206 189 199 205 217 208 242 212 226 206 176 211 224 189 191 237 196 235 179 203 219 233 216 209 196 214 225 201 243 243 209 204 204 191 235 216 202 175 209 185 201 213 206 189 242 215 216 175 189 220 200 190 211 200 232 194 171 230 221 232 216 209 249 232 254 235 238 226 253 251 
255 255 230 255 220 235 255 234 246 237 211 226 234 213 234 208 213 242 224 227 223 242 221 188 194 233 252 232 233 180 206 198 229 211 221 223 239 250 206 199 213 215 193 197 213 212 225 233 221 245 225 235 224 189 207 219 223 206 223 170 183 203 226 208 222 186 224 222 201 188 223 209 202 244 255 210 214 203 201 197 226 228 254 246 208 251 255 241 230 228 
245 238 221 255 255 255 240 232 255 232 202 236 226 248 213 225 228 214 199 252 239 211 231 191 200 233 219 199 182 218 214 198 255 182 173 207 174 193 178 233 231 214 227 217 216 191 226 230 218 224 205 223 186 184 213 229 196 226 199 196 189 189 213 199 214 220 220 218 222 237 215 203 208 229 232 231 189 182 245 251 243 236 226 243 255 248 226 253 244 229 
250 216 255 194 250 253 255 232 228 229 249 227 228 253 219 209 235 219 201 229 222 232 223 223 211 186 183 195 215 184 209 180 201 250 220 209 193 195 211 227 224 210 253 200 195 190 192 204 255 189 223 228 247 223 248 222 226 195 175 250 221 209 186 224 192 216 224 255 223 254 230 235 247 232 220 228 232 204 176 215 242 219 209 232 255 216 255 255 253 255 
240 248 252 255 255 255 244 211 237 235 228 252 228 199 215 245 243 221 177 230 228 179 177 203 207 227 184 223 217 201 226 224 225 231 231 218 205 224 222 238 225 183 239 236 230 233 224 180 237 207 226 218 200 255 203 247 242 197 230 187 189 180 244 201 246 215 227 228 246 190 193 214 216 199 221 228 243 196 225 255 234 236 225 220 255 255 229 254 214 244 
247 255 251 246 255 255 226 236 210 244 234 245 227 219 205 211 241 221 184 207 168 220 208 203 212 195 207 208 229 251 187 222 184 236 212 219 215 211 233 194 240 201 219 253 219 213 215 188 248 184 188 187 182 197 226 215 211 221 200 242 200 218 228 205 213 213 225 180 201 227 209 226 233 234 213 232 203 251 228 220 206 195 233 255 253 233 255 246 232 255 
255 249 203 197 255 255 235 255 255 234 245 255 236 255 194 208 213 224 215 155 220 245 234 207 226 236 242 214 235 237 245 248 213 214 193 240 231 243 223 220 212 221 213 255 218 213 222 214 221 181 235 228 223 251 198 188 203 240 196 233 249 233 172 221 226 215 245 167 220 191 182 241 163 224 233 223 233 216 254 255 224 231 235 237 245 254 253 250 255 255 
230 255 228 248 255 255 232 249 222 220 236 218 248 214 223 227 226 211 224 201 193 204 215 232 219 227 203 219 242 213 218 220 236 211 233 223 221 197 210 234 211 228 252 190 185 233 211 255 236 188 217 205 241 253 225 231 226 201 224 210 220 237 250 204 216 218 208 255 255 203 209 238 206 206 224 222 225 207 255 220 236 251 251 219 255 242 253 253 243 248 
255 255 242 255 211 227 241 237 207 229 237 233 231 220 232 168 201 228 238 244 236 255 203 247 248 239 239 252 201 217 230 243 206 192 219 222 204 231 224 226 202 248 215 255 208 191 235 211 225 213 207 253 255 201 226 233 241 191 221 226 218 221 242 245 245 241 212 187 227 212 222 169 255 201 211 225 224 217 250 213 210 221 255 246 246 252 199 255 255 255 
236 255 227 253 239 255 252 255 255 255 255 232 225 226 236 228 214 248 235 255 213 195 216 217 255 243 253 167 230 217 206 237 239 221 254 194 217 212 252 232 230 194 198 241 217 235 201 246 224 228 229 190 215 215 210 216 255 204 209 238 223 226 218 227 207 215 239 233 255 234 232 232 214 247 240 239 224 255 221 248 242 240 237 239 249 255 249 249 241 234 
251 255 255 227 237 255 242 226 255 219 235 233 255 232 242 223 215 234 193 219 229 228 232 244 229 207 229 253 197 198 251 176 242 228 247 228 243 255 236 203 247 225 204 242 226 255 224 255 222 232 226 251 220 229 203 255 228 216 213 208 212 195 206 228 204 234 205 252 231 236 244 195 237 237 216 253 202 216 255 255 255 245 242 220 255 252 242 243 230 242 
255 255 255 246 247 231 195 215 205 224 248 209 229 238 255 233 238 235 255 201 232 242 252 254 255 216 235 249 231 201 247 212 255 243 203 201 255 220 247 239 212 194 223 230 255 192 239 248 197 225 218 228 243 218 209 193 221 207 223 255 230 252 232 223 231 247 206 234 251 218 247 229 246 240 197 255 220 218 181 214 237 240 254 255 243 255 220 250 215 241 
255 254 255 254 255 249 255 249 230 241 224 222 251 225 252 189 248 205 227 226 233 255 217 233 253 220 207 233 199 205 240 253 255 247 230 242 206 225 255 200 255 242 221 255 197 232 214 222 255 197 255 229 191 229 255 229 214 235 235 255 232 217 221 203 237 237 241 233 222 255 236 230 237 211 200 255 201 197 255 254 248 242 255 255 235 255 233 235 255 255 
239 246 229 255 255 236 231 255 244 219 236 255 237 223 246 228 237 204 241 226 226 238 245 242 241 217 191 209 231 238 255 255 235 224 229 217 213 206 240 239 221 207 233 250 255 228 247 255 235 234 255 207 219 212 231 248 229 227 233 218 209 219 236 255 255 253 241 222 224 218 220 236 227 255 255 249 222 192 233 235 227 255 255 255 255 255 224 253 219 249 
255 255 239 255 212 238 216 251 255 246 240 247 198 239 240 218 229 241 255 230 220 235 255 255 253 255 250 194 248 237 239 238 237 241 226 255 217 255 252 234 255 255 218 190 255 242 236 238 250 250 218 255 248 243 255 230 213 255 242 249 242 210 223 210 231 226 243 224 240 217 230 243 244 255 255 247 217 244 249 255 214 222 245 255 243 193 255 244 230 255 
238 226 255 230 203 231 228 218 213 234 233 245 240 248 209 249 208 218 229 216 207 255 241 255 231 240 219 238 220 245 239 249 197 255 241 250 223 251 255 255 255 250 247 218 244 255 238 205 255 239 216 220 212 215 246 255 255 214 212 239 198 247 236 247 230 255 255 223 239 225 248 245 255 239 255 255 219 255 244 233 253 214 255 230 255 255 255 237 255 255 
255 254 255 255 250 245 233 254 228 255 234 223 247 232 201 216 237 255 255 228 255 207 229 245 205 255 220 231 232 255 255 245 222 239 230 255 241 208 255 255 245 255 242 237 200 240 243 255 255 255 205 255 220 244 255 246 255 223 246 233 227 255 247 242 249 227 255 247 255 248 255 248 200 250 251 233 226 216 241 255 236 255 226 255 218 241 221 255 252 253 
255 247 255 252 255 243 253 249 234 247 243 237 235 255 210 255 204 255 244 255 253 241 229 248 255 255 227 255 249 252 245 255 241 221 198 255 255 255 249 255 238 254 255 248 255 234 210 249 255 255 237 219 255 228 238 249 238 240 242 228 216 211 224 250 232 254 255 250 243 248 255 224 254 225 225 246 238 243 255 243 227 212 245 255 229 249 229 216 231 249 
247 255 255 252 236 234 225 255 238 255 244 255 250 253 245 225 255 250 245 231 238 255 241 252 229 255 238 255 224 228 213 236 255 235 233 229 255 255 255 239 255 252 209 244 255 255 255 249 237 255 255 255 243 254 202 255 194 239 255 247 238 233 233 253 236 254 255 246 255 251 245 255 255 255 252 225 255 250 237 246 255 222 255 229 205 238 254 255 255 251 
232 255 230 221 255 255 241 247 244 234 236 218 248 255 253 255 247 255 249 233 222 255 229 255 255 240 222 231 255 235 255 255 215 245 255 221 255 221 255 222 255 253 221 239 236 255 239 255 204 255 255 254 255 255 207 254 255 224 216 231 233 255 236 255 255 253 255 240 253 250 247 255 255 231 247 231 248 255 238 219 230 241 255 241 236 250 235 255 255 249 
255 255 255 203 230 228 228 241 255 239 255 255 239 255 255 241 243 255 255 255 255 255 211 223 222 255 237 251 255 242 245 255 200 255 255 243 232 227 187 242 238 238 255 255 255 253 230 249 218 255 220 255 220 253 255 255 243 238 239 255 246 243 255 216 249 254 252 245 255 252 246 214 228 255 255 239 212 252 252 242 235 255 208 255 238 248 255 234 251 237 
247 255 220 236 255 255 246 255 240 246 245 255 250 255 242 251 255 227 255 255 255 254 255 251 220 254 226 248 251 255 255 254 255 242 255 253 255 255 248 252 255 239 250 249 203 255 251 255 255 255 255 255 252 255 255 244 250 255 254 246 255 255 220 250 249 252 255 228 226 251 239 255 255 255 255 254 255 255 255 255 204 235 239 255 255 255 255 244 255 239 
218 255 255 241 238 255 225 247 255 255 255 255 234 255 255 255 253 255 255 219 255 240 225 255 255 229 247 255 255 255 248 254 255 255 221 245 244 255 238 255 252 255 236 245 255 252 250 248 255 255 237 236 255 238 255 255 255 255 255 255 228 218 255 220 250 223 254 240 229 229 255 255 255 252 217 255 255 218 255 255 255 219 211 255 255 255 255 219 250 244 
