P2

100 100
255
253 234 255 234 255 255 255 245 255 255 255 255 255 255 253 249 242 255 237 202 240 245 215 255 238 255 252 242 254 255 255 241 255 255 249 255 255 255 250 255 229 253 246 255 255 255 247 249 243 224 236 255 255 229 236 255 255 252 255 216 255 255 255 232 255 255 227 253 255 251 247 235 253 233 255 254 255 254 255 255 252 255 255 255 255 255 255 218 255 251 255 255 241 255 255 253 255 198 255 250 
246 245 242 255 255 255 229 255 255 251 235 234 239 255 246 255 246 247 245 248 255 255 255 255 220 255 254 233 255 255 255 251 216 255 255 255 214 233 211 233 250 248 255 255 255 244 232 255 255 211 250 255 255 246 255 255 255 255 253 249 224 255 255 255 237 225 241 247 244 237 255 204 255 248 217 255 253 244 255 255 250 249 235 255 244 222 255 255 255 242 255 225 248 228 255 255 238 255 255 255 
253 253 255 228 225 239 245 245 255 253 249 251 249 252 237 251 237 255 246 235 255 215 255 255 248 255 220 246 218 239 253 222 255 255 236 207 231 255 219 255 255 251 255 222 221 253 255 241 237 223 248 220 252 243 255 211 255 250 255 254 255 255 237 246 255 255 241 230 244 242 244 252 249 252 249 255 255 255 227 252 255 255 255 255 255 255 253 193 251 241 255 255 250 255 249 255 231 255 255 218 
255 225 255 245 255 252 255 236 255 235 255 213 255 249 245 245 225 212 239 252 214 252 255 255 251 255 246 253 242 252 255 233 255 255 249 255 255 230 249 233 228 255 248 175 246 234 255 223 213 255 228 255 241 255 255 243 238 255 232 241 225 255 255 252 215 251 255 255 225 247 255 255 230 226 231 255 236 246 211 255 231 222 230 255 255 254 251 222 255 255 255 255 210 255 215 241 255 209 222 255 
255 245 255 255 237 255 238 250 231 236 251 255 255 255 220 241 229 231 255 247 255 234 248 255 247 226 227 247 226 255 255 255 242 232 255 255 241 241 255 253 255 227 234 255 234 255 240 255 245 252 235 255 255 244 217 255 255 235 224 255 255 242 255 240 255 210 253 254 209 231 250 252 255 255 232 240 242 255 255 226 240 237 236 249 255 218 242 217 247 255 253 255 255 255 227 250 249 227 246 255 
255 248 255 240 200 230 255 189 229 255 233 214 255 255 205 244 239 225 223 234 217 249 255 251 237 252 255 255 255 254 255 229 255 203 255 255 243 239 240 221 230 255 242 229 255 208 231 246 247 226 255 248 236 230 233 247 245 246 218 239 255 255 227 255 255 225 189 255 243 228 255 251 247 226 247 255 255 245 255 251 237 223 240 254 254 255 228 246 232 255 255 255 242 222 239 222 224 222 255 226 
222 252 235 233 255 248 255 245 255 229 255 255 240 250 254 230 242 237 250 218 255 248 255 250 243 247 255 255 233 227 240 255 245 255 226 228 232 204 255 253 255 248 233 255 255 255 224 222 242 250 251 255 214 212 255 253 211 252 251 235 253 221 240 230 213 243 255 238 249 243 222 247 227 243 235 221 233 230 230 255 255 255 222 208 245 255 255 235 233 255 247 232 234 235 249 240 243 243 255 254 
255 253 255 255 221 255 229 190 230 255 190 223 255 232 255 255 216 255 228 225 238 255 239 245 236 255 255 241 255 231 255 227 224 255 251 230 255 233 251 234 231 255 207 218 251 232 240 250 229 255 243 241 219 255 224 249 227 244 254 225 251 233 227 224 248 255 255 235 224 238 211 234 255 255 200 234 232 255 255 248 243 215 223 255 254 231 197 238 231 224 255 247 248 214 234 229 240 247 235 255 
255 255 227 247 255 255 244 255 255 225 222 255 216 233 255 230 226 238 216 250 219 255 242 235 255 244 255 247 255 255 216 231 255 218 213 239 242 208 255 216 255 246 229 234 251 251 239 238 217 216 250 254 232 224 255 244 255 230 229 242 205 255 226 230 232 242 228 226 228 218 250 243 251 255 228 225 239 231 234 245 251 229 213 242 233 250 255 219 201 255 220 216 249 244 231 255 239 246 252 225 
255 255 242 241 244 255 254 230 244 255 253 255 211 237 231 204 255 245 222 255 239 234 218 231 249 255 234 225 244 219 212 255 219 237 233 216 246 206 230 230 221 241 249 233 244 255 238 255 215 255 242 210 217 254 219 223 199 238 247 255 226 228 227 241 231 228 230 255 249 218 224 226 218 227 247 240 231 255 230 220 255 221 246 244 255 219 228 255 222 254 239 221 224 233 255 255 250 241 251 245 
228 245 244 255 245 255 211 222 239 254 161 255 244 230 198 241 242 233 253 255 189 241 224 236 238 218 255 244 214 243 251 255 238 237 232 224 224 220 219 255 253 246 202 252 223 248 219 222 255 255 207 229 233 243 229 226 243 219 216 252 205 255 216 228 255 236 230 250 249 237 242 216 240 254 191 244 199 243 210 241 240 255 255 234 218 255 248 224 221 223 191 246 232 207 255 245 214 242 255 218 
234 255 221 255 255 239 234 243 227 228 235 218 217 241 230 238 218 219 210 246 241 248 216 221 237 249 238 249 234 255 229 233 236 209 211 251 204 225 216 230 207 186 255 246 255 195 255 208 202 231 241 233 255 217 244 221 226 227 232 255 218 239 228 255 239 211 239 255 232 205 219 255 235 248 255 208 211 239 220 255 254 224 211 209 208 255 255 255 255 211 214 253 248 255 226 255 248 255 251 245 
255 216 243 255 247 242 255 228 196 255 198 233 224 248 243 239 236 201 231 246 255 218 220 255 255 239 250 244 238 239 238 168 224 231 244 229 231 255 232 255 227 218 209 223 255 201 227 204 255 218 236 219 220 221 220 245 199 240 219 230 235 245 231 233 255 245 229 198 231 208 255 241 245 248 255 224 255 245 213 249 222 255 209 250 246 207 231 224 227 214 194 233 237 230 218 255 230 246 255 235 
251 239 228 255 249 233 244 242 231 244 222 213 238 230 234 237 221 201 227 211 242 243 214 231 239 198 242 233 230 255 230 240 226 245 255 223 239 254 255 239 240 255 220 240 224 241 221 190 234 224 242 222 216 243 244 231 250 237 255 235 255 238 227 216 206 255 255 232 228 241 229 229 235 221 201 225 255 226 198 207 240 219 195 219 233 184 248 220 186 246 243 204 252 230 238 255 231 255 255 255 
245 255 255 224 220 197 207 225 252 234 242 255 226 235 220 236 228 243 244 214 208 213 255 243 255 197 222 255 193 238 228 214 230 251 238 221 234 250 227 247 245 212 218 206 207 232 201 217 232 232 222 239 228 223 242 219 226 210 227 235 209 255 235 217 196 231 227 212 226 216 235 204 255 232 255 233 239 223 230 227 212 247 220 236 235 208 255 222 227 199 255 255 245 228 255 253 230 255 211 251 
255 215 244 255 255 221 243 226 232 255 255 202 237 221 234 202 231 237 228 220 223 235 193 188 224 213 230 218 227 254 244 255 255 222 222 223 198 201 195 222 247 210 229 255 233 194 239 199 200 224 236 242 204 229 235 223 205 199 238 246 209 241 238 225 216 227 236 242 179 220 238 217 235 210 234 220 220 209 235 239 237 228 215 220 191 237 223 209 227 210 219 227 221 242 226 255 255 255 222 227 
230 243 232 233 232 245 255 242 255 226 203 255 245 213 237 241 227 239 223 216 237 223 235 217 200 249 199 226 210 247 231 202 223 234 229 229 213 220 255 177 189 237 192 207 255 210 230 244 185 250 221 234 211 235 222 189 223 227 224 255 237 212 199 214 255 205 204 231 253 225 222 221 210 214 214 255 238 219 223 225 215 196 231 217 215 232 240 229 198 207 230 188 215 248 254 255 215 223 255 255 
255 249 233 254 210 255 229 227 250 255 221 246 255 229 244 223 251 218 237 237 220 255 165 231 210 216 244 229 233 200 205 216 225 212 208 217 213 218 201 235 255 188 190 244 195 212 211 226 215 254 218 235 255 247 255 226 188 255 239 202 237 202 232 240 212 224 193 174 199 191 225 243 237 177 218 211 214 236 247 212 178 199 199 202 219 215 252 236 233 255 247 242 213 240 252 255 255 255 230 255 
225 255 241 255 226 255 255 236 252 219 230 232 245 245 228 197 204 224 212 233 230 197 235 208 209 246 204 225 245 218 219 229 254 231 216 200 230 216 227 203 201 241 235 255 218 241 216 238 219 207 206 234 206 197 255 255 206 229 242 227 226 231 222 254 240 219 221 255 229 216 225 224 253 234 254 231 213 219 212 212 189 209 232 221 248 231 208 231 255 232 255 255 230 216 249 253 254 255 238 255 
255 255 228 254 255 255 255 224 225 254 252 202 235 218 240 232 234 220 201 204 223 213 190 251 220 212 207 218 228 177 220 224 221 216 246 243 206 205 224 207 203 202 191 229 230 166 238 229 222 237 186 199 193 217 217 228 224 204 208 213 234 218 234 190 199 254 223 213 206 243 230 197 236 235 243 245 205 178 189 183 203 239 218 237 221 232 244 219 191 208 232 171 233 250 220 236 255 229 253 255 
255 239 255 255 232 255 243 211 250 238 219 233 235 226 235 236 206 212 230 207 207 225 227 225 186 232 218 211 200 255 226 240 206 217 242 225 206 209 208 164 221 237 198 201 222 239 215 238 211 228 222 216 212 207 202 201 243 203 232 189 196 212 203 221 234 211 213 227 228 213 212 198 226 202 205 218 222 225 240 235 217 223 223 213 216 245 210 236 236 219 255 253 255 238 247 255 255 247 229 251 
255 255 255 255 255 230 254 255 223 238 251 183 221 246 241 210 243 187 226 201 180 179 197 215 222 213 242 189 215 173 193 245 233 180 194 202 226 187 205 209 220 214 255 183 198 230 216 243 255 213 206 216 216 182 203 216 199 201 234 212 227 221 155 186 199 228 224 208 217 218 183 193 215 218 206 205 255 203 178 228 207 220 215 242 234 239 223 234 255 255 218 251 241 237 243 255 243 251 255 255 
237 255 193 234 250 239 252 240 255 243 218 239 202 250 255 255 182 209 223 221 213 255 234 234 196 201 196 211 218 197 189 232 223 208 219 255 208 204 237 233 216 215 205 186 189 233 218 227 187 192 225 239 226 202 218 235 255 191 217 197 219 230 184 224 190 202 236 174 197 197 212 222 211 188 221 228 161 217 232 223 203 215 187 220 190 245 227 195 201 194 246 250 221 196 241 255 255 255 244 253 
255 255 252 224 255 226 255 228 239 225 209 240 226 231 212 200 224 211 194 202 176 196 208 206 184 211 208 196 193 164 204 209 200 246 215 218 227 206 239 149 189 211 206 242 179 230 211 168 184 180 219 193 221 200 211 189 242 195 200 226 233 185 196 158 176 211 180 232 193 213 222 199 185 195 216 214 246 209 226 213 213 230 223 255 235 214 219 246 202 254 255 221 239 255 255 255 255 251 255 253 
255 245 255 231 249 236 232 255 234 255 254 233 241 217 242 236 183 218 201 217 241 222 206 198 193 199 215 152 212 186 207 213 178 202 182 212 228 202 171 215 223 207 201 187 214 211 215 184 251 206 189 211 221 209 222 203 195 207 191 198 221 227 206 201 224 201 208 235 180 201 164 158 196 186 237 170 222 201 211 224 180 224 234 194 201 235 255 227 206 255 231 247 223 255 235 255 244 255 250 255 
221 238 226 255 238 229 240 255 235 255 231 255 232 238 225 235 221 243 218 244 236 223 183 184 224 209 209 178 211 197 204 202 200 207 187 239 193 189 201 204 224 190 193 193 224 255 216 227 195 220 232 228 218 186 210 233 178 216 213 225 214 197 181 219 236 188 227 204 205 193 200 188 227 172 215 217 207 237 171 208 231 225 235 222 189 229 226 255 190 241 245 229 253 229 243 229 250 255 236 255 
255 212 255 245 255 248 244 238 215 193 220 216 182 255 234 245 220 229 198 215 224 220 183 196 223 206 157 202 179 197 185 224 199 233 211 240 212 196 179 207 179 201 212 236 181 235 221 230 224 210 178 215 198 148 173 240 196 172 223 208 204 161 191 218 172 201 203 212 212 226 205 206 203 201 193 198 216 190 205 231 230 203 228 206 207 235 192 229 223 217 233 255 252 255 230 255 251 255 242 255 
234 189 219 239 238 255 252 255 243 224 229 253 225 234 229 221 237 201 206 212 194 198 212 198 201 188 222 166 207 218 210 204 177 166 195 179 167 207 226 219 193 175 214 203 188 199 169 201 204 195 205 239 214 181 225 210 181 189 188 185 186 220 212 182 216 204 242 226 209 201 221 196 231 201 196 176 187 207 220 207 211 254 226 237 204 247 241 253 202 209 228 220 244 255 243 255 237 239 237 252 
255 255 218 245 236 249 229 221 254 202 255 233 216 211 235 239 232 195 227 215 209 204 235 212 171 206 194 210 172 202 175 157 177 203 225 205 182 212 144 193 216 149 175 206 241 228 249 220 185 156 199 217 195 205 185 207 229 174 214 199 225 178 207 201 217 210 191 191 178 203 209 197 202 184 190 215 210 253 201 222 202 233 237 237 208 231 228 229 246 241 226 225 244 255 227 247 255 248 255 242 
255 253 221 241 255 216 244 233 255 222 235 208 244 233 245 252 218 230 195 213 210 200 211 214 187 177 243 200 189 191 172 218 196 195 191 197 209 217 197 220 210 217 176 180 176 201 176 187 172 223 177 209 197 200 197 222 189 212 166 180 186 218 176 167 173 201 178 234 164 149 173 198 215 227 225 211 192 207 231 194 196 255 224 215 224 242 255 221 239 255 231 229 255 222 246 255 239 253 255 246 
255 255 255 255 255 255 207 241 232 248 243 240 212 237 243 240 214 213 231 211 170 218 193 200 209 218 216 208 222 165 203 146 183 199 198 159 194 181 188 187 185 195 193 186 213 197 197 201 195 203 226 173 180 185 196 205 207 180 240 184 221 165 215 174 195 189 172 203 154 225 196 167 184 193 196 182 207 230 184 255 205 243 205 208 199 225 250 185 255 255 243 255 196 251 255 203 181 243 250 254 
238 255 251 242 255 252 252 212 241 255 252 229 243 244 214 208 213 230 200 227 197 218 227 172 184 237 181 198 201 185 195 187 198 184 222 182 200 193 207 185 196 207 163 192 182 199 203 231 217 210 220 202 175 199 210 186 171 170 228 213 199 207 194 178 178 196 173 198 199 231 187 174 158 168 243 215 207 213 231 206 215 247 248 232 218 215 219 220 225 198 251 237 250 213 247 241 255 247 233 255 
255 255 255 202 227 213 252 230 250 214 238 226 240 206 191 228 220 225 189 179 219 187 209 239 223 219 213 195 206 148 191 174 178 232 148 217 196 180 200 225 200 183 226 207 196 208 220 207 166 231 172 214 159 179 197 148 207 202 157 216 200 178 148 197 167 191 188 190 162 204 182 175 199 206 214 224 238 231 180 206 158 207 225 217 220 214 255 235 225 236 229 248 227 221 216 220 234 252 224 226 
255 233 239 242 232 245 211 255 255 226 237 240 217 211 212 198 240 229 233 219 173 196 199 241 212 193 185 221 208 176 184 206 195 179 207 208 200 217 175 204 165 180 188 184 217 193 195 179 189 187 172 189 173 189 168 242 204 191 164 171 203 195 192 192 189 199 194 209 207 179 154 187 153 166 221 226 180 222 212 203 221 228 238 202 224 249 252 255 213 233 255 253 230 221 255 243 249 255 251 255 
242 255 254 255 255 255 224 223 255 235 241 253 240 186 217 200 223 230 255 200 243 201 222 194 210 241 210 188 199 197 228 211 187 209 246 222 187 186 178 189 177 175 208 194 188 199 210 182 181 202 198 210 173 181 190 187 199 219 184 209 170 200 189 142 181 191 184 193 231 212 180 206 168 212 202 225 218 237 213 187 206 212 191 208 222 220 255 197 240 227 235 230 226 233 220 228 196 255 255 255 
255 255 255 241 232 236 243 255 234 255 237 228 253 243 206 248 225 187 215 207 216 249 142 187 227 221 185 225 183 226 170 190 171 180 202 191 156 203 165 194 157 190 193 210 208 190 212 175 175 205 194 190 185 190 185 195 165 221 180 174 171 206 175 229 210 184 226 196 231 223 239 239 224 219 201 221 176 194 226 229 239 223 207 221 225 253 237 255 229 234 229 241 255 246 243 255 255 255 251 255 
229 255 252 227 231 255 247 234 255 212 219 255 209 230 207 187 241 220 211 217 211 168 198 191 213 214 213 192 199 206 198 178 216 177 215 165 176 173 168 202 176 197 203 139 201 210 230 172 135 198 183 186 179 215 157 188 228 196 164 181 161 171 183 201 177 177 199 196 194 241 179 188 187 217 240 172 212 209 218 255 178 233 227 236 227 215 255 249 247 209 208 222 224 240 226 255 230 255 236 213 
255 243 235 255 255 250 255 246 231 244 228 211 233 187 230 232 193 229 241 228 189 255 230 195 246 210 219 193 204 174 180 185 178 183 234 224 205 155 169 221 137 204 198 199 160 196 127 181 193 161 185 219 184 214 182 146 172 143 191 165 190 140 187 171 171 159 123 176 189 184 221 178 194 185 206 184 202 211 168 202 193 212 208 238 243 240 235 233 214 241 255 252 221 241 254 255 235 250 255 254 
255 255 251 255 229 255 252 250 232 201 230 221 239 254 231 239 252 212 220 224 200 214 209 219 236 189 203 224 201 202 183 161 178 196 195 224 171 189 147 167 172 154 161 179 180 187 176 193 188 164 203 178 139 178 149 171 175 170 162 201 164 161 174 174 187 176 181 221 213 193 166 202 203 187 170 192 186 192 163 194 246 219 233 252 193 209 227 229 241 236 238 211 245 255 248 255 241 244 250 224 
255 255 238 255 255 222 229 235 239 213 203 253 211 233 237 200 227 224 212 206 178 229 200 155 184 193 181 197 205 171 185 181 183 184 158 164 200 211 210 173 224 183 160 188 159 198 166 197 187 163 172 171 168 167 156 180 187 163 156 195 157 183 191 156 162 207 161 191 177 163 190 199 214 177 231 200 193 215 241 167 228 245 209 225 218 245 222 229 249 215 224 214 255 242 255 241 239 224 252 254 
246 255 216 199 252 229 255 243 240 210 237 255 203 219 210 162 186 222 228 233 224 254 240 213 213 188 221 215 182 202 195 197 189 214 234 190 190 191 163 181 180 152 191 145 170 168 199 192 184 185 150 166 194 185 203 173 163 139 192 173 188 196 197 203 198 147 207 168 163 189 201 199 232 196 186 240 190 199 226 174 240 238 198 233 216 202 239 221 208 245 215 237 240 234 235 255 243 246 255 228 
242 252 253 244 241 255 226 248 228 255 205 240 206 227 248 214 218 217 240 246 225 181 182 200 214 205 222 168 169 211 168 215 182 204 196 166 189 196 173 206 197 173 179 173 188 191 161 143 195 181 145 178 162 163 192 164 203 203 205 178 166 170 162 214 193 208 163 185 187 176 171 195 162 214 192 186 198 228 255 209 228 214 226 190 227 225 243 207 218 232 220 209 221 222 251 243 245 228 251 207 
235 247 255 237 239 255 231 246 209 255 241 241 255 234 249 207 216 215 195 225 215 221 197 179 236 186 187 215 255 197 202 171 173 189 178 165 195 181 175 171 180 195 185 170 170 123 172 162 202 181 174 140 156 196 171 170 149 168 144 139 139 199 182 161 149 169 181 191 202 232 199 186 197 236 212 194 233 193 214 196 252 243 223 240 225 224 206 251 199 254 235 229 255 246 230 239 234 255 224 231 
239 255 226 223 255 252 209 236 239 218 212 254 255 237 255 253 231 220 202 162 180 213 233 198 244 198 217 179 198 219 186 174 187 194 179 164 179 159 194 146 174 176 155 169 179 152 166 171 174 160 160 181 166 173 146 146 158 141 161 166 195 151 190 176 167 205 203 196 179 176 194 196 251 167 189 224 212 216 204 215 229 234 225 254 254 255 226 218 216 232 213 216 223 225 255 255 217 240 232 246 
255 255 250 243 255 254 255 239 235 249 255 243 225 233 206 236 217 205 250 210 227 209 240 211 203 177 237 218 240 195 215 170 199 180 207 158 120 180 161 187 173 189 159 144 106 155 142 177 148 160 131 169 134 148 152 170 192 139 189 166 203 182 181 197 222 198 208 181 179 213 161 181 220 205 189 205 219 203 255 213 250 208 232 217 242 202 233 200 224 227 223 217 238 226 248 247 255 255 255 252 
242 229 255 217 220 255 253 255 255 255 239 231 230 255 222 206 236 246 233 207 193 248 229 208 232 208 197 184 209 205 167 204 218 235 217 175 156 182 215 156 171 165 170 159 146 171 182 160 180 154 172 151 146 152 160 174 193 195 184 187 215 171 173 184 192 174 209 169 190 201 196 198 207 191 195 170 185 210 221 188 233 187 203 222 255 213 237 210 238 247 213 228 251 206 236 244 255 254 231 255 
249 250 255 255 255 255 255 255 240 255 204 241 206 239 240 225 240 214 248 229 249 183 207 226 201 205 203 174 163 194 209 209 183 168 191 175 217 217 178 160 175 156 186 197 172 159 192 164 175 136 161 167 160 163 163 151 153 177 141 177 198 205 198 167 171 161 202 190 183 176 165 196 183 190 214 183 200 206 224 228 185 178 206 219 178 218 231 221 204 238 209 226 251 232 255 255 221 207 222 255 
244 255 255 219 255 255 221 255 230 219 240 229 232 249 229 220 233 248 219 218 216 234 239 177 241 171 203 185 176 199 200 181 186 189 187 196 175 180 198 167 161 181 190 146 167 180 152 143 181 159 154 155 166 186 144 173 191 151 177 169 182 188 177 194 186 183 198 192 147 175 202 197 190 181 231 181 191 219 219 204 208 219 220 218 181 211 233 212 255 251 214 240 210 207 255 229 246 239 236 255 
255 239 255 255 252 255 241 216 255 251 210 214 230 206 223 223 205 182 255 213 187 233 192 179 255 228 223 216 204 193 195 211 202 195 164 151 189 178 169 157 197 177 163 145 169 146 152 165 168 177 174 111 110 199 166 163 183 165 206 197 186 162 186 176 199 192 173 165 168 172 213 195 212 229 205 178 238 222 191 219 202 242 227 233 217 211 188 209 240 236 199 220 248 211 230 253 251 235 255 255 
255 240 255 255 237 221 229 241 242 232 235 212 228 224 206 230 215 246 182 203 226 225 220 177 230 235 208 169 199 216 231 198 181 187 171 186 199 171 159 170 181 182 158 189 141 170 160 154 130 147 161 178 198 207 116 156 157 157 205 173 189 174 164 181 190 178 218 160 157 198 217 196 191 182 203 211 186 232 175 193 210 231 219 221 198 227 228 242 242 211 255 240 252 232 255 255 235 222 255 234 
255 253 208 255 255 234 216 239 193 255 234 250 228 242 228 231 229 212 233 248 201 202 220 198 201 193 220 215 203 204 145 171 232 218 172 185 159 190 168 171 171 180 193 139 141 219 209 160 147 146 179 139 140 164 168 183 171 149 182 198 197 186 156 125 209 176 225 214 191 193 221 197 207 214 211 247 213 209 202 214 208 196 233 230 220 225 206 203 218 255 221 255 230 255 232 255 236 255 255 255 
228 236 255 252 255 246 231 251 242 254 234 241 180 215 241 226 221 217 194 194 234 213 178 214 186 220 198 195 190 175 193 158 191 205 178 180 182 179 192 185 185 197 179 179 185 183 178 150 174 143 132 127 157 184 154 156 161 180 172 137 194 194 160 188 213 181 154 207 184 161 181 183 183 204 204 185 218 203 198 207 227 212 223 238 209 218 210 255 255 213 232 223 244 226 213 242 206 222 245 232 
223 255 243 236 218 255 225 232 241 239 251 224 239 238 227 219 193 229 247 223 208 204 224 218 218 200 202 214 205 217 197 210 205 195 197 194 177 203 171 184 193 156 171 169 163 147 153 153 150 189 162 175 169 184 177 179 141 194 173 194 157 161 198 176 199 195 200 189 182 179 183 203 196 230 193 227 207 204 205 195 215 212 238 248 218 207 219 211 234 244 217 179 238 230 255 255 235 255 234 250 
236 255 255 255 222 249 222 234 233 245 239 220 255 192 237 229 255 196 224 194 184 162 211 213 190 227 241 183 181 188 209 183 165 203 170 179 209 179 176 195 167 164 178 154 177 191 178 175 192 167 156 147 113 166 144 160 137 167 203 169 177 177 183 161 183 190 204 180 201 217 169 192 193 176 233 197 198 222 224 244 193 213 197 216 251 230 229 186 227 234 219 222 194 238 236 200 236 247 255 255 
255 234 221 255 229 224 224 241 255 247 255 255 255 244 252 236 198 211 227 217 201 197 200 237 193 233 209 167 199 204 228 179 184 167 207 185 187 155 170 193 203 167 144 150 127 135 168 177 165 150 144 151 160 217 173 155 204 181 155 167 145 204 173 181 187 190 160 189 175 180 187 209 191 215 225 211 207 207 206 215 230 237 179 222 226 214 224 207 231 200 205 248 255 216 252 233 218 241 228 244 
255 255 244 246 255 233 245 255 229 221 234 244 240 221 244 225 207 209 238 186 214 214 211 178 224 209 224 186 208 197 180 184 203 194 167 199 185 187 152 171 207 156 184 191 143 174 172 184 135 176 164 217 167 181 124 145 181 165 179 170 175 192 142 213 153 185 182 168 218 161 201 169 193 214 216 210 179 200 197 215 221 184 210 233 228 254 240 239 231 243 230 237 232 243 254 255 241 245 235 255 
244 230 239 247 241 228 220 219 215 253 214 245 231 232 222 196 230 189 223 219 214 217 211 204 205 237 182 213 199 211 237 201 222 212 163 173 182 181 187 184 158 165 140 168 140 167 119 159 186 115 176 184 181 153 194 176 150 144 160 139 200 188 222 174 184 188 183 184 195 168 207 203 177 172 217 203 211 224 224 201 178 206 222 223 243 255 255 223 234 255 231 229 230 226 224 253 236 246 242 255 
255 232 246 246 255 248 253 198 255 216 226 250 239 236 238 241 255 180 250 162 240 237 189 221 207 215 210 190 198 184 165 165 164 164 194 205 187 180 160 182 179 146 184 165 156 169 154 174 174 143 190 198 155 176 159 194 172 192 165 180 191 202 168 166 175 183 168 210 213 197 207 169 203 200 196 220 212 215 213 184 217 224 233 255 221 218 241 214 204 223 237 253 226 254 255 241 217 243 216 236 
255 255 234 228 246 248 255 245 241 252 237 228 229 181 225 241 238 242 217 225 204 198 199 249 209 191 216 205 233 205 192 229 183 179 155 210 160 181 174 183 171 139 157 146 178 185 159 174 138 168 152 183 210 204 137 101 190 155 184 157 196 146 166 176 166 180 153 196 182 191 214 196 206 206 160 226 171 209 197 188 220 191 208 202 237 252 193 215 192 255 226 205 230 255 245 228 244 255 232 255 
245 255 223 244 230 219 255 255 234 246 254 200 222 255 201 246 236 230 255 183 230 179 190 233 207 192 233 158 183 194 199 161 196 189 229 150 148 163 164 197 182 176 186 199 171 190 210 156 142 194 154 161 177 169 172 201 182 165 207 165 185 166 182 162 192 177 178 209 192 218 206 197 208 195 255 182 207 206 209 205 198 178 203 232 213 197 234 235 220 255 219 229 232 255 247 244 255 237 198 255 
246 254 203 231 237 253 250 255 243 205 241 218 226 185 197 210 247 201 235 244 241 219 193 209 211 192 199 155 209 184 169 201 221 204 220 166 176 181 187 199 174 172 199 186 189 162 190 181 176 144 166 151 163 171 183 174 208 178 192 172 142 179 194 161 165 213 174 215 161 187 205 221 206 201 190 210 223 201 245 247 215 212 214 203 249 232 220 195 231 209 227 241 236 221 255 251 254 215 229 255 
240 226 243 228 255 214 187 242 229 236 216 205 241 220 238 215 214 198 221 215 238 226 190 217 180 195 240 194 206 197 171 186 194 173 194 168 173 202 184 187 185 206 187 154 160 199 218 198 199 146 172 164 195 177 187 189 205 216 172 165 179 181 161 167 185 186 201 211 201 227 209 221 212 179 199 213 219 204 223 172 187 209 234 218 234 200 240 240 221 208 243 229 222 255 255 230 234 223 221 217 
246 244 255 254 212 251 254 233 218 212 225 218 201 255 247 239 220 212 241 212 182 216 206 228 193 205 208 194 179 232 219 191 209 167 174 205 189 167 148 184 180 164 231 148 139 173 140 159 144 199 197 180 193 183 182 157 192 196 184 190 171 189 152 152 183 201 170 202 177 176 171 173 199 187 204 212 214 214 220 237 215 203 208 229 232 231 189 182 245 251 243 236 226 243 255 248 226 253 244 229 
250 216 255 194 250 253 255 232 228 229 249 227 228 253 219 209 235 219 201 229 222 230 219 217 203 176 171 181 199 166 189 158 177 224 192 179 161 161 177 193 190 176 219 166 161 156 158 170 225 155 189 194 213 189 214 188 192 161 141 216 187 175 152 190 160 186 196 237 199 232 210 215 227 212 200 208 212 184 156 195 222 199 189 212 244 196 236 253 233 243 220 232 240 255 255 255 248 219 249 251 
248 255 248 219 235 255 255 241 197 250 246 195 191 215 217 235 190 227 219 201 224 220 219 223 221 206 191 208 204 218 203 159 213 208 200 201 190 146 203 173 192 184 166 221 169 213 208 163 196 153 155 146 210 167 212 181 193 194 212 156 159 180 180 161 181 188 203 156 185 217 194 196 185 180 217 233 189 214 174 204 207 227 219 218 236 236 210 224 202 240 234 249 235 231 221 231 255 249 216 241 
204 254 240 233 240 221 231 230 249 255 203 236 196 246 220 225 219 213 233 192 236 195 211 243 207 199 199 170 228 162 164 161 154 167 194 181 177 187 166 208 166 184 194 171 179 179 191 146 167 193 175 192 199 198 175 192 161 207 182 172 156 143 179 204 195 173 211 186 172 237 201 193 151 149 216 216 199 240 227 210 225 245 224 255 190 208 217 232 225 167 234 255 252 227 248 255 255 242 255 255 
255 255 243 242 219 255 253 255 241 236 226 233 223 255 224 217 224 214 219 177 229 220 213 239 184 172 185 220 174 209 223 205 142 189 192 181 211 133 186 157 148 207 129 190 197 185 193 174 210 212 176 181 183 183 189 196 193 188 202 214 162 195 164 186 215 206 176 197 174 176 196 182 216 186 199 207 210 197 212 191 185 198 211 230 219 229 207 225 250 223 230 234 252 229 253 245 245 223 238 255 
243 255 255 216 209 255 231 255 252 202 229 215 249 255 229 233 226 199 220 204 212 227 238 190 200 200 188 237 234 177 181 208 174 172 190 186 187 167 216 176 190 203 201 167 211 186 195 193 181 184 189 198 180 218 153 171 187 185 157 181 191 189 189 180 194 132 165 192 204 212 206 238 177 223 226 219 221 236 187 205 220 235 200 188 217 222 206 235 230 234 212 255 229 255 226 211 255 235 251 241 
237 255 255 225 248 253 255 207 235 238 228 229 248 249 247 241 210 183 221 204 212 157 252 185 193 205 200 189 218 177 170 177 209 196 194 198 143 225 208 216 172 226 167 195 183 231 200 213 222 218 220 190 185 188 200 192 178 212 199 219 177 159 180 181 219 207 217 131 194 183 174 207 211 195 230 172 197 194 236 218 218 184 190 235 213 233 201 248 228 234 237 200 227 229 226 234 255 226 233 255 
251 252 242 249 227 233 255 247 255 244 240 238 218 249 240 237 220 254 209 232 222 216 209 207 213 231 205 201 189 178 191 212 209 171 183 226 192 178 212 175 193 193 224 196 206 187 179 198 157 183 193 192 196 208 193 171 193 217 161 162 215 140 206 192 211 192 207 249 200 167 213 193 174 214 200 236 202 249 204 216 212 239 210 221 197 255 226 216 215 212 218 203 216 240 218 250 223 255 253 255 
255 219 255 255 234 255 216 228 255 255 255 241 234 208 247 232 218 215 198 206 237 239 226 206 207 191 155 175 165 184 208 171 193 202 222 197 202 199 234 165 196 206 216 218 222 180 199 213 195 165 211 176 247 207 167 165 228 184 211 203 176 158 187 194 222 156 203 212 161 189 182 194 211 188 181 167 197 185 203 255 214 238 220 213 223 241 202 232 251 220 251 235 254 250 209 255 236 236 201 234 
255 255 255 255 247 255 216 242 203 225 255 234 240 234 243 229 254 229 210 221 204 202 229 201 226 161 218 173 193 190 197 238 181 197 217 184 171 197 163 169 204 217 239 211 194 206 170 189 221 164 222 206 185 221 161 196 178 186 219 161 232 193 155 193 225 193 178 199 199 230 196 181 187 171 207 209 215 209 200 240 218 214 223 199 190 255 195 193 255 254 248 242 255 255 235 255 233 235 255 255 
239 246 229 255 255 236 231 255 244 219 236 255 233 217 238 218 225 190 225 208 206 216 221 216 213 187 159 175 195 202 228 228 199 188 193 181 177 170 204 203 185 171 197 214 232 192 211 240 199 198 230 171 183 176 195 212 193 191 197 182 173 183 200 225 234 217 205 186 188 182 184 200 191 242 243 219 194 166 209 213 207 235 235 235 255 255 204 233 199 229 238 255 227 252 208 238 220 255 255 255 
255 255 212 251 250 226 235 245 255 230 218 231 255 255 243 254 236 178 230 217 217 214 211 213 196 228 183 227 216 198 228 221 182 154 239 206 200 202 214 214 182 236 212 207 240 194 177 230 206 213 206 174 187 174 195 190 207 188 204 181 194 207 208 223 231 211 181 208 213 225 178 186 207 222 203 153 216 204 190 244 198 190 236 202 179 211 212 206 205 228 229 243 240 250 213 255 216 228 241 230 
223 255 253 255 239 246 223 240 220 243 235 243 189 249 229 236 207 233 255 244 239 224 219 188 212 225 202 169 224 203 180 184 176 179 210 236 225 178 176 203 162 211 200 211 194 227 237 187 203 189 212 209 227 203 224 229 183 242 208 197 217 178 221 192 228 216 223 191 212 226 221 204 214 243 206 205 197 222 198 242 208 199 225 212 183 200 223 255 250 220 254 203 227 245 207 255 226 239 242 255 
255 255 232 247 236 255 243 208 255 255 239 254 232 225 186 224 225 255 243 231 179 248 190 212 224 210 235 187 210 197 191 234 211 206 213 191 255 211 244 212 228 212 164 214 215 197 190 180 205 239 200 239 190 223 180 201 179 226 206 205 235 199 255 208 232 203 215 211 196 209 205 199 197 218 172 223 168 248 212 238 225 215 205 226 236 252 211 244 237 242 237 255 237 219 198 255 255 255 255 255 
250 255 255 254 255 236 210 247 255 255 229 209 246 214 222 231 218 218 218 202 188 181 192 216 196 218 231 214 207 212 243 188 218 189 189 210 202 207 225 207 191 176 209 231 193 211 189 174 187 203 199 223 216 210 196 196 187 249 200 236 206 229 212 215 207 187 225 212 207 193 200 232 203 214 191 229 200 231 190 196 183 208 255 211 211 209 244 240 255 227 251 244 203 240 255 255 255 253 243 255 
255 255 249 255 204 255 192 235 255 239 228 221 219 237 218 234 251 222 248 223 215 228 222 226 216 189 243 214 201 210 222 186 239 193 169 202 216 226 217 207 186 220 188 181 233 226 203 209 206 196 198 180 210 231 215 238 209 228 211 195 184 222 191 238 228 202 184 193 243 197 225 225 177 207 227 183 217 183 244 188 223 223 193 213 212 254 219 242 188 255 248 244 255 252 203 252 255 226 220 237 
241 255 240 255 255 251 255 234 245 240 235 247 254 213 227 209 224 230 210 189 198 207 237 205 200 214 199 225 239 207 226 216 227 165 192 190 190 203 218 201 230 239 201 233 231 203 205 224 220 245 230 222 173 185 184 234 199 213 229 204 207 219 162 220 226 205 194 189 149 204 200 200 220 219 227 215 192 211 180 236 186 223 190 225 229 239 221 218 221 255 232 231 255 208 243 250 250 245 255 255 
252 218 230 255 254 235 206 244 242 230 221 246 190 237 216 224 255 206 219 201 207 247 182 198 225 246 208 220 202 208 207 244 212 234 204 213 228 189 222 223 230 216 241 213 182 216 188 210 213 225 238 216 222 204 242 215 217 228 210 214 236 201 212 211 165 225 213 231 232 226 255 229 214 235 230 206 212 217 216 208 247 231 188 220 221 226 231 206 206 233 223 242 247 255 255 248 253 255 255 255 
208 237 239 255 255 255 253 234 253 223 198 251 255 217 212 228 195 215 226 246 232 218 196 234 235 226 215 224 228 181 222 202 187 221 237 191 209 225 231 242 210 216 255 248 183 207 206 223 200 232 214 222 198 207 240 214 212 210 217 250 199 198 229 200 255 225 230 231 220 217 190 180 220 182 212 185 216 202 191 191 239 240 227 220 187 236 255 194 236 235 255 203 197 255 255 255 255 215 248 244 
247 255 249 230 251 242 213 221 236 232 255 244 225 235 215 207 211 210 254 220 237 206 208 222 193 197 230 178 215 215 194 218 242 232 255 185 250 212 239 218 226 210 208 202 205 222 215 187 199 223 229 220 185 223 238 223 216 183 212 182 222 221 239 219 212 188 255 217 176 166 188 227 223 200 197 249 245 199 219 199 204 193 223 225 249 207 204 211 242 209 236 222 240 215 255 255 244 255 246 255 
255 237 238 245 236 221 255 238 239 222 245 242 255 227 216 223 235 226 220 216 225 193 228 218 234 202 224 215 206 218 218 252 221 253 226 237 235 194 230 249 220 209 228 209 232 210 219 218 202 218 198 245 244 216 236 228 200 210 226 197 203 226 229 206 210 200 221 222 208 212 226 219 231 247 186 233 236 196 244 229 213 201 222 247 222 243 209 248 255 231 236 252 244 222 255 226 252 213 255 251 
255 224 255 247 232 228 239 255 255 228 248 233 241 255 227 253 215 225 237 240 233 213 255 250 233 226 243 223 211 211 228 203 215 238 255 246 223 201 229 201 194 232 207 221 229 217 221 249 234 233 238 227 235 206 204 229 255 232 185 199 197 221 212 236 193 208 237 213 182 245 203 236 230 213 200 215 255 204 221 213 207 233 236 235 201 243 221 203 200 245 240 252 239 239 246 238 254 255 216 249 
215 255 224 255 255 230 248 229 217 218 234 190 231 204 239 255 222 210 235 219 234 244 202 220 255 239 213 202 227 218 202 203 177 216 231 234 222 209 197 223 229 231 244 221 214 237 232 230 202 230 231 203 238 218 231 194 198 222 213 215 218 212 203 220 218 190 219 255 217 200 225 224 255 236 207 223 192 235 246 255 231 236 196 255 219 216 194 255 240 255 240 235 245 255 255 251 255 255 255 255 
208 238 255 239 239 244 249 241 255 252 255 227 221 255 195 200 227 207 223 204 213 202 255 232 232 232 234 224 211 195 235 184 216 200 228 207 237 209 236 225 243 231 247 235 244 237 206 194 232 248 233 211 220 240 250 252 208 247 222 213 234 238 232 198 212 233 218 243 243 232 206 245 248 235 203 232 194 245 218 216 225 237 236 206 248 222 240 233 244 220 255 243 250 241 219 246 217 255 240 252 
226 227 250 255 234 200 232 255 253 255 236 221 202 194 224 189 228 253 239 229 213 204 226 220 227 255 224 211 240 244 242 213 244 242 237 223 245 242 208 196 224 235 229 229 245 236 224 208 199 255 208 236 220 221 235 220 215 240 191 214 237 203 242 239 237 201 202 223 219 220 223 213 196 239 233 220 196 255 205 206 201 229 234 225 203 180 188 239 226 249 235 221 255 229 255 247 238 255 248 236 
214 255 251 249 235 255 219 240 241 226 240 214 255 230 175 199 203 253 201 219 240 198 210 197 219 214 231 215 241 249 236 215 211 255 210 221 255 235 239 215 232 183 248 255 199 234 225 228 228 230 234 232 223 210 220 219 244 230 244 215 224 214 254 251 215 203 226 205 187 232 231 239 226 240 191 211 199 254 229 229 250 234 196 255 217 255 210 218 232 233 233 227 254 244 255 224 250 242 255 240 
229 253 249 244 239 218 245 237 244 237 255 227 203 254 225 227 239 223 231 204 244 216 255 229 232 254 194 248 196 214 245 225 201 225 231 201 255 248 218 227 229 236 238 226 240 220 250 184 220 216 246 222 223 212 252 213 194 246 218 255 239 239 225 227 240 212 231 241 217 255 250 243 213 225 183 245 222 255 241 255 210 213 228 218 236 255 206 223 203 241 210 253 249 226 255 242 225 255 255 235 
229 255 251 254 239 240 255 241 219 241 237 252 255 216 231 223 212 209 216 243 213 231 255 209 221 227 234 225 233 239 219 234 227 245 236 219 248 230 232 250 244 255 216 248 243 253 234 229 226 253 214 216 202 229 255 233 232 212 213 218 237 233 233 211 221 222 234 232 248 233 239 224 255 236 255 240 185 255 214 227 224 233 252 235 243 231 203 252 255 232 236 247 226 255 224 255 234 255 227 237 
255 255 254 255 255 233 236 221 222 193 222 255 224 253 239 230 237 225 216 234 228 244 242 255 240 255 227 255 231 255 214 240 246 225 248 243 236 252 190 255 245 255 255 210 217 241 214 244 235 255 223 250 255 221 237 195 227 237 199 255 235 230 232 231 241 255 236 250 218 224 255 219 226 253 229 230 228 208 240 220 251 227 246 227 207 255 239 235 194 226 221 212 228 252 236 231 227 255 255 255 
255 255 238 229 236 254 243 243 255 210 255 211 231 213 221 229 250 216 246 241 255 226 229 222 242 255 218 240 238 216 252 251 247 236 255 240 228 237 239 226 242 247 244 222 216 255 255 237 206 216 218 204 255 225 227 239 250 212 236 255 255 197 245 217 242 236 234 216 255 255 235 242 249 216 255 240 229 255 230 234 229 255 237 195 231 222 240 210 240 207 244 255 234 244 242 236 244 255 241 255 
255 251 255 254 255 255 221 255 215 245 252 255 208 220 228 255 230 252 206 255 221 249 242 212 222 236 217 230 252 220 231 237 255 255 230 209 249 255 231 238 217 248 218 255 242 226 255 232 255 255 246 211 252 236 212 239 197 219 244 255 239 233 240 255 255 233 255 231 255 241 236 253 244 225 255 239 255 248 221 232 216 238 226 255 251 255 218 218 243 226 244 215 241 254 251 255 245 255 246 255 
255 255 255 231 239 255 255 224 255 255 201 204 243 206 255 243 253 255 199 231 226 202 246 238 254 255 247 255 233 223 254 239 202 212 241 254 228 231 215 255 253 241 255 255 236 251 253 231 255 223 217 204 252 228 234 236 212 255 222 214 255 251 194 244 209 255 233 255 255 238 199 255 241 244 255 255 214 255 227 188 255 229 209 217 252 255 226 200 216 232 206 243 222 213 255 225 245 255 244 197 
251 238 249 255 255 255 241 255 213 234 242 255 216 255 250 255 248 253 228 243 255 245 255 255 235 239 208 229 237 247 249 217 243 250 236 217 239 231 232 234 233 244 229 249 229 218 232 255 253 209 238 253 255 236 231 255 243 255 243 229 255 236 248 248 255 214 232 255 215 252 255 185 227 208 230 255 226 234 219 197 249 255 243 229 251 244 222 246 240 255 242 255 255 246 221 253 219 233 251 224 
240 245 251 255 255 255 255 242 249 229 255 223 223 250 245 235 244 243 233 255 255 231 255 255 228 254 255 230 221 240 209 242 244 247 255 230 214 247 246 241 238 231 255 245 238 214 255 255 255 217 255 255 238 252 227 255 211 231 238 253 230 238 221 244 255 227 255 221 249 249 255 242 239 255 208 252 255 255 225 253 206 230 255 251 251 255 228 255 249 216 217 255 245 240 255 246 242 229 251 232 
238 229 250 255 254 242 240 244 255 222 239 255 214 255 255 255 233 255 200 237 255 239 227 255 255 243 247 245 233 233 248 239 255 255 217 241 250 228 234 233 238 234 255 244 242 255 246 236 222 243 236 255 232 255 232 233 244 255 255 255 204 247 252 250 229 230 246 255 220 240 215 235 209 255 250 255 240 255 255 255 234 202 222 220 255 255 255 247 255 255 241 232 248 226 255 243 245 252 249 255 
255 233 255 255 255 250 255 255 248 252 255 240 253 235 255 239 255 230 255 255 231 255 255 255 255 255 254 255 236 247 192 229 255 221 224 233 255 238 255 255 244 227 244 233 244 239 255 252 242 254 210 229 255 255 246 237 255 255 240 218 225 255 242 234 255 255 237 241 255 255 216 240 248 255 249 228 255 248 255 254 251 255 249 238 248 255 245 224 255 255 244 255 230 255 255 252 255 210 231 254 
253 255 255 232 245 255 247 226 255 249 255 237 245 249 229 255 238 230 233 255 251 248 255 223 255 255 255 232 251 255 243 255 234 242 255 234 247 255 255 229 255 255 210 219 239 251 228 248 249 233 240 245 255 245 255 248 227 254 255 225 255 246 244 255 255 245 231 255 255 255 255 255 255 255 190 255 255 234 224 255 246 255 255 247 234 250 239 250 243 233 240 205 234 254 255 255 255 210 232 214 
244 255 255 255 234 255 240 211 255 254 255 255 247 238 247 255 218 255 244 241 248 255 245 203 246 253 255 229 246 239 253 255 255 225 255 255 242 255 223 244 242 254 254 255 255 255 234 255 255 252 239 243 255 255 255 228 251 245 255 255 227 255 255 255 255 248 254 255 255 225 255 255 255 239 230 245 241 240 255 254 226 243 245 239 243 252 248 255 255 255 255 246 255 253 255 255 255 255 234 218 
