P2

30 30
255
253 234 255 234 255 255 255 245 255 255 255 255 255 255 253 249 242 255 237 202 240 245 215 255 238 255 252 242 254 255 
255 239 255 255 247 255 255 253 248 255 227 251 244 254 255 253 245 247 241 222 234 255 255 227 234 255 255 250 255 214 
255 253 255 228 255 255 223 249 255 247 243 231 249 229 255 250 252 250 251 255 248 255 255 255 253 252 253 214 255 249 
255 255 237 249 255 247 255 192 255 244 240 241 238 255 255 255 225 255 255 247 231 230 235 255 242 255 242 243 243 248 
255 255 255 255 214 255 248 227 255 255 250 245 210 255 255 255 208 227 205 227 244 242 255 255 255 238 226 255 255 211 
252 255 255 242 255 255 249 253 245 241 216 249 255 255 229 217 233 239 236 229 255 196 250 240 209 255 247 240 255 255 
252 249 233 254 238 214 247 250 255 232 247 215 238 218 255 252 228 255 255 255 241 243 255 220 217 233 241 243 255 255 
253 253 249 250 233 245 229 251 236 225 255 205 255 255 238 252 210 236 208 229 243 212 249 255 228 201 227 255 219 255 
255 253 255 220 217 247 248 231 225 211 236 208 240 231 247 199 247 238 250 242 244 255 225 236 255 255 237 228 244 244 
248 254 249 250 245 255 250 255 215 238 255 255 248 255 252 255 239 179 237 227 255 255 238 255 241 255 227 255 255 218 
255 225 255 245 255 248 250 228 255 223 250 199 255 235 231 231 211 198 225 238 200 240 255 248 245 255 244 253 244 255 
255 237 255 255 247 255 255 222 239 221 214 255 232 159 230 218 239 207 197 255 214 243 231 255 255 239 236 255 234 245 
231 255 255 252 213 247 251 255 215 235 255 245 212 208 213 246 218 228 193 255 217 210 220 255 255 250 249 222 255 255 
255 255 212 255 213 237 251 201 210 248 244 225 255 250 219 255 220 232 215 222 239 254 251 255 216 239 229 233 255 253 
255 240 252 255 247 224 223 241 218 255 254 241 226 214 239 255 221 223 245 239 255 217 226 255 230 255 240 255 249 255 
243 255 255 246 217 255 254 229 216 255 247 228 253 222 245 188 233 236 193 217 238 242 249 255 228 238 242 255 255 232 
248 243 240 251 255 216 238 211 239 252 241 253 255 254 207 230 229 207 226 249 245 232 255 232 196 230 255 193 235 255 
243 222 255 255 207 244 237 221 217 226 207 237 255 235 221 236 255 246 248 242 255 221 255 199 255 255 245 243 246 229 
240 255 248 233 255 208 229 242 241 218 255 236 222 216 219 233 231 232 204 227 250 255 221 251 253 225 191 255 249 236 
255 255 253 230 249 255 255 241 255 243 227 211 228 242 242 249 216 234 220 253 249 255 236 218 237 222 224 222 255 226 
222 252 235 233 255 248 255 243 255 223 248 255 232 242 246 222 234 229 242 210 255 242 251 248 243 249 255 255 241 237 
252 255 253 255 230 230 232 202 255 247 255 242 227 255 255 255 218 216 236 244 245 255 210 210 255 255 215 255 255 245 
255 231 248 236 217 245 255 236 245 239 218 243 223 239 231 217 229 226 226 254 255 255 218 206 245 255 255 241 241 255 
255 242 242 241 253 240 239 235 255 242 244 241 251 255 215 255 227 190 230 255 190 223 255 232 255 255 222 255 238 237 
252 255 249 253 242 255 255 243 255 233 255 229 226 255 253 232 255 235 253 236 233 255 209 220 253 236 246 255 239 255 
255 253 229 255 230 253 231 248 255 229 255 237 231 228 252 255 255 239 228 242 215 238 255 255 204 238 238 255 255 255 
255 227 233 255 255 237 203 244 237 230 255 253 254 220 238 231 240 245 231 255 255 255 223 245 255 255 248 255 255 239 
238 255 228 243 255 240 236 248 226 255 229 255 252 245 255 254 255 255 255 255 226 241 255 228 223 249 252 218 255 230 
255 255 241 246 255 255 251 250 229 228 255 255 244 236 255 255 255 242 241 254 217 255 238 242 244 254 240 238 240 232 
255 255 255 255 242 239 253 245 248 255 255 243 227 255 247 255 255 233 215 255 234 230 255 255 241 255 245 250 254 225 
