P2

80 80
255
253 234 255 234 255 255 255 245 255 255 255 255 255 255 253 249 242 255 237 202 240 245 215 255 238 255 252 242 254 255 255 241 255 255 249 255 255 255 250 255 229 253 246 255 255 255 247 249 243 224 236 255 255 229 236 255 255 252 255 216 255 255 255 232 255 255 227 253 255 251 247 235 253 233 255 254 255 254 255 255 
252 255 255 255 255 254 255 216 255 249 255 255 239 253 255 251 255 196 255 248 244 245 242 255 255 255 229 255 255 251 235 234 239 255 246 255 246 247 245 248 255 255 255 255 220 255 254 233 255 255 255 251 216 255 255 255 214 233 211 233 250 248 255 255 255 244 232 255 255 211 250 255 255 246 255 255 255 255 253 249 
226 255 255 255 235 223 239 245 242 235 255 202 255 246 215 255 251 242 255 255 248 247 233 255 242 220 255 255 255 240 255 223 246 226 255 255 236 255 255 255 249 251 255 228 225 239 245 245 255 253 249 251 249 252 237 251 237 255 246 235 255 215 255 255 248 255 220 246 218 239 253 222 255 255 236 207 231 255 219 255 
255 253 255 220 219 251 254 239 235 221 246 218 250 241 255 209 255 248 255 252 254 255 235 244 255 255 239 228 242 240 242 250 247 250 247 255 255 255 225 250 255 255 255 255 255 255 251 191 249 239 255 255 248 255 247 255 229 255 253 214 255 221 255 245 255 252 255 236 255 235 255 213 255 249 245 245 225 212 241 255 
220 255 255 255 249 255 244 251 240 250 255 231 255 255 247 255 255 228 247 231 226 255 246 173 244 232 253 221 211 255 226 253 239 255 255 241 236 255 230 239 223 255 255 250 213 249 255 255 223 245 255 255 228 224 229 255 234 244 209 255 229 220 228 255 255 252 249 220 255 255 255 255 208 254 213 239 255 209 222 255 
255 245 255 255 237 255 236 248 229 234 249 255 255 255 218 239 227 229 255 245 255 232 246 255 245 224 225 245 224 255 255 253 240 230 255 255 239 239 255 251 255 225 232 255 232 255 238 255 243 250 233 255 255 242 215 255 255 233 222 255 255 240 255 238 255 208 251 252 207 229 248 250 255 255 230 238 242 255 255 232 
248 243 240 251 255 216 238 213 243 255 249 255 255 255 223 246 245 221 238 255 253 238 255 234 196 228 255 187 227 255 231 212 255 255 203 242 237 223 221 232 215 247 255 249 235 250 255 255 255 252 255 227 255 201 255 255 241 237 238 219 228 255 240 227 255 206 229 244 245 224 255 246 234 228 231 247 247 250 224 247 
255 255 233 255 255 225 187 255 239 224 255 247 243 222 243 255 255 241 255 247 233 219 236 250 250 255 224 242 228 255 255 255 238 218 235 218 218 214 255 214 208 240 225 225 255 244 255 243 255 227 254 255 238 248 252 228 240 235 248 216 255 246 253 248 241 245 255 255 231 225 238 255 243 255 226 230 236 210 255 255 
255 255 241 255 255 255 224 220 238 246 247 255 210 208 255 249 207 248 247 231 249 217 236 226 209 239 254 234 245 239 218 243 223 239 231 217 229 226 226 254 255 255 218 204 241 255 255 231 229 255 243 228 230 231 245 234 235 233 255 240 242 239 249 255 213 255 225 188 228 255 188 221 255 232 255 255 222 255 238 237 
252 255 249 253 242 255 255 241 255 227 255 223 220 255 247 226 255 229 247 230 227 255 203 214 247 228 236 246 225 255 239 237 215 252 220 245 223 240 250 221 247 229 223 220 244 255 255 231 220 234 207 230 251 255 196 230 228 251 251 244 239 211 219 252 250 227 193 234 227 220 255 243 246 214 234 229 240 247 235 255 
255 255 227 247 255 255 244 255 255 223 218 255 212 229 254 226 222 234 212 246 215 255 238 231 255 240 255 243 254 255 212 227 255 214 209 235 238 204 255 212 255 242 225 230 247 247 235 234 213 212 246 250 228 220 253 240 255 226 225 238 201 253 222 226 228 238 224 222 224 214 246 241 251 255 232 231 247 241 246 255 
255 243 225 252 241 255 255 221 201 255 216 210 243 236 221 252 225 230 234 205 255 250 224 225 230 246 244 222 238 255 249 255 207 233 227 200 255 241 218 255 235 230 214 227 245 255 230 221 240 215 208 255 215 233 229 212 242 202 226 226 217 237 245 229 240 255 234 255 211 255 240 210 219 255 225 231 209 250 255 255 
244 244 241 253 241 236 236 255 251 218 222 222 212 221 241 234 225 255 224 214 255 215 240 238 255 213 222 255 216 248 233 215 216 223 250 247 234 223 231 223 204 223 224 239 229 255 199 212 231 248 157 255 240 226 194 237 238 229 249 255 185 237 220 232 234 214 253 240 210 241 251 255 242 243 240 234 236 234 235 255 
255 255 218 255 235 255 227 228 255 255 207 227 229 237 223 220 237 213 210 246 199 253 210 222 251 230 224 244 243 231 236 210 234 248 185 238 193 237 204 235 234 255 255 228 212 253 242 218 215 217 185 238 222 195 244 229 196 222 236 194 208 235 199 255 255 223 220 231 219 224 235 222 223 249 240 250 232 235 228 255 
255 255 234 237 251 255 248 255 240 255 231 233 234 205 205 245 198 219 210 224 201 180 253 240 255 189 255 202 196 225 235 227 255 211 238 215 220 221 226 255 212 233 222 255 233 205 233 249 226 199 213 255 229 242 255 202 205 233 214 255 248 218 205 203 202 255 251 255 255 211 214 253 248 255 226 255 248 255 251 245 
255 216 243 255 247 242 255 228 196 255 198 233 224 246 239 233 230 195 225 240 251 212 214 255 255 233 244 238 232 233 232 162 218 225 238 223 225 255 226 255 221 212 203 217 255 195 221 198 250 212 230 213 214 215 214 239 193 234 213 224 229 239 225 227 252 239 225 196 231 210 255 247 253 255 255 238 255 255 233 255 
246 255 229 255 255 221 243 234 235 218 194 229 229 218 202 255 206 220 255 205 219 209 200 233 225 211 224 224 215 230 210 203 230 224 228 231 215 195 221 205 236 237 208 225 233 192 236 227 224 255 224 234 220 239 255 217 233 248 255 233 234 252 214 234 218 237 219 190 236 228 248 230 226 255 255 247 255 255 255 255 
255 255 249 236 224 255 255 244 238 249 235 233 237 221 199 221 250 218 190 199 232 211 187 211 225 176 240 212 176 234 229 188 234 210 216 245 205 235 241 225 211 255 226 196 194 173 185 205 234 218 228 254 216 227 214 230 222 237 238 208 202 207 255 237 255 195 222 255 197 244 236 224 242 255 254 239 254 255 251 255 
255 238 242 228 227 250 217 231 244 242 230 245 232 225 242 217 222 204 219 227 201 252 227 209 188 223 219 204 218 208 227 196 255 224 255 225 231 215 222 219 204 239 212 228 227 200 253 212 215 185 252 252 225 206 231 227 202 237 179 217 240 181 212 246 239 201 227 214 224 252 255 206 245 233 250 222 253 255 254 248 
253 255 219 212 246 233 248 234 241 255 254 255 255 226 224 223 196 197 189 214 239 202 221 248 225 186 231 191 192 216 228 234 196 221 227 215 197 191 230 238 201 233 230 217 208 219 228 234 171 212 230 209 227 202 226 212 212 201 227 231 229 220 209 216 189 237 223 209 227 210 219 227 221 242 226 255 255 255 222 227 
230 243 232 233 232 245 255 242 255 226 203 255 245 213 237 241 227 237 219 210 229 215 227 209 192 241 191 218 202 239 223 194 215 226 221 221 205 212 249 169 181 229 184 199 248 202 222 236 177 242 213 226 203 227 214 181 215 219 216 248 229 206 195 212 255 207 208 237 255 235 234 235 226 232 234 255 255 245 251 255 
247 226 255 243 239 252 255 241 206 211 230 184 207 236 238 238 191 195 232 220 218 209 195 218 176 227 199 199 224 234 199 226 243 213 230 211 241 210 229 229 212 250 157 223 202 208 236 221 225 192 197 208 217 204 200 209 205 210 193 227 250 184 188 244 197 216 217 234 225 255 232 251 255 255 255 250 214 255 255 234 
255 234 255 255 238 248 215 194 217 207 239 255 247 185 224 215 216 236 245 208 172 191 189 192 207 201 236 218 213 233 223 216 185 210 220 224 226 223 190 214 181 221 201 217 190 225 242 206 224 193 206 210 225 227 212 183 192 214 204 227 226 195 235 210 213 252 212 235 255 232 235 247 255 253 240 226 255 246 255 237 
237 255 255 255 246 255 240 255 239 225 222 248 218 207 255 255 210 231 242 225 222 225 214 244 230 209 211 246 219 206 215 214 243 224 244 221 203 209 202 202 179 199 222 209 234 215 190 211 243 208 250 233 200 184 215 217 216 253 198 241 236 219 196 226 251 240 239 212 217 250 252 206 243 230 255 252 255 248 233 240 
255 249 224 255 250 240 233 242 250 197 238 240 235 228 255 251 212 209 226 207 201 198 185 221 220 156 228 219 212 227 176 189 183 207 207 218 214 194 198 203 224 208 224 180 189 244 213 203 196 233 220 187 226 225 233 235 195 170 183 179 201 239 218 237 221 232 244 219 191 208 232 171 233 250 220 236 255 229 253 255 
255 239 255 255 232 255 243 211 250 238 219 233 235 226 235 236 206 212 230 207 207 223 223 219 178 222 208 201 190 252 216 230 196 207 232 215 196 199 198 154 211 227 188 191 212 229 205 228 201 218 212 206 202 197 192 191 235 197 228 187 196 214 207 227 242 221 225 241 244 231 232 220 250 228 233 248 254 255 255 255 
255 255 255 241 240 255 226 248 244 223 255 249 247 226 231 241 237 219 197 215 227 218 222 227 215 190 214 219 187 204 219 153 193 220 217 188 223 169 210 187 168 169 187 205 212 203 232 179 205 163 183 235 223 170 184 194 220 183 203 209 222 218 255 191 208 242 230 255 255 233 228 240 242 210 233 248 233 237 255 252 
255 255 193 222 233 255 254 236 243 242 205 213 233 234 220 217 255 211 184 232 207 216 207 230 218 219 199 206 239 235 184 215 203 197 201 223 197 203 216 219 183 222 143 186 204 195 210 200 236 207 184 207 172 222 233 246 166 197 215 217 213 255 242 244 208 215 212 229 238 219 213 255 251 238 251 255 244 242 255 255 
255 255 245 224 225 255 250 255 215 218 249 255 246 220 234 249 255 201 225 203 223 232 184 222 186 196 228 164 185 185 200 210 199 176 209 216 149 205 220 209 187 197 167 198 166 219 199 165 169 160 210 212 181 156 201 217 222 255 204 213 222 243 220 196 232 206 252 216 231 221 209 244 234 243 228 220 248 239 226 238 
216 236 248 246 222 247 242 228 223 192 230 233 222 255 233 234 241 218 249 157 195 215 208 242 177 226 205 160 174 168 207 181 209 188 199 177 230 183 188 214 221 173 184 146 164 199 168 220 181 201 210 187 175 187 210 210 244 209 226 213 213 230 223 255 235 214 219 246 202 254 255 221 239 255 255 255 255 251 255 253 
255 245 255 231 249 236 232 255 234 255 254 233 241 217 242 236 183 218 201 217 241 222 206 198 193 197 211 146 204 176 195 201 166 190 170 200 216 190 159 203 211 195 189 175 202 199 203 172 239 194 177 201 213 203 218 201 195 209 195 204 229 237 218 215 240 219 228 255 204 227 192 188 228 220 255 208 255 241 251 255 
220 255 255 222 225 255 255 239 214 255 231 243 215 243 219 241 220 232 218 239 181 198 186 223 198 189 200 227 195 225 191 218 194 202 191 203 191 215 192 220 214 203 165 168 210 197 197 166 199 185 194 194 194 203 185 239 195 193 207 212 234 202 207 209 242 255 238 251 221 248 255 255 252 222 248 255 220 255 255 255 
255 245 227 255 255 228 255 240 239 225 230 216 253 196 237 237 223 249 179 212 231 221 227 210 173 209 202 227 158 205 205 185 205 179 191 175 194 208 176 220 191 150 216 187 216 194 192 188 167 149 180 180 150 231 210 225 204 217 190 211 224 224 191 208 239 226 181 228 207 227 217 255 235 255 251 255 255 242 227 255 
231 251 255 255 225 255 255 255 255 244 210 245 226 174 197 255 216 190 239 222 216 171 199 224 176 203 203 210 208 220 197 196 191 187 179 182 198 170 183 207 204 175 198 174 173 199 154 189 183 177 193 219 212 226 190 221 211 233 202 230 194 153 187 211 214 235 236 254 235 220 229 255 233 246 245 241 255 229 238 248 
234 238 252 238 241 228 255 206 245 254 244 236 207 194 221 203 189 227 244 235 207 187 224 211 194 203 171 201 202 191 199 231 204 169 211 196 167 175 174 171 172 206 198 168 202 190 228 214 199 193 215 192 229 201 196 176 187 207 220 207 211 254 226 237 204 247 241 253 202 209 228 220 244 255 243 255 237 239 237 252 
255 255 218 245 236 249 229 221 254 202 255 233 216 211 235 239 232 195 227 215 209 204 235 212 171 206 194 210 172 200 171 151 169 193 213 191 168 198 130 179 202 135 161 192 227 214 237 210 177 150 195 215 195 207 189 213 237 184 226 213 241 196 227 223 241 236 219 221 210 237 245 235 242 224 230 255 250 255 241 255 
242 255 255 255 232 251 244 241 254 245 226 221 236 255 211 227 233 220 238 206 215 213 181 201 226 176 204 193 223 182 195 168 204 193 205 212 178 192 159 179 178 170 183 188 163 157 227 188 181 187 170 218 198 199 197 205 219 229 211 236 228 237 198 204 202 229 206 219 206 255 215 249 239 244 243 255 239 255 220 236 
244 255 230 219 223 249 224 255 206 189 211 234 247 255 249 231 208 219 239 198 196 255 216 203 208 222 232 193 207 220 191 185 228 170 190 196 175 185 188 174 181 211 199 190 195 212 151 189 184 204 203 204 180 209 219 220 198 201 223 207 170 222 201 212 225 238 240 236 254 201 243 188 227 245 246 209 246 235 244 245 
245 253 249 240 255 247 245 247 239 245 255 211 216 219 228 235 235 206 255 206 241 183 231 188 207 199 180 209 158 227 196 163 176 181 180 162 183 202 152 223 169 205 165 168 159 185 210 145 220 221 203 226 156 211 216 163 141 203 210 214 198 229 219 214 238 232 236 200 233 255 252 233 251 255 230 228 237 255 232 255 
237 255 255 212 224 255 221 238 241 225 235 227 236 220 255 214 230 221 233 209 218 227 181 208 196 211 213 239 223 214 222 202 173 195 204 178 161 158 214 197 183 191 180 166 168 188 167 194 197 231 187 174 158 168 243 215 207 213 231 206 215 247 248 232 218 215 219 220 225 198 251 237 250 213 247 241 255 247 233 255 
255 255 255 202 227 213 252 230 250 214 238 226 240 206 191 228 220 225 189 179 219 187 209 239 223 219 213 195 206 148 191 174 178 230 144 211 188 170 188 211 184 169 214 197 188 202 216 205 166 233 176 220 167 189 209 162 223 220 177 238 224 204 176 227 199 225 224 228 202 244 222 215 239 246 254 255 255 255 220 246 
198 243 255 245 244 234 255 247 233 240 229 244 219 209 200 200 210 224 192 190 217 193 199 202 192 205 171 226 223 186 197 200 177 171 172 158 200 189 193 179 135 160 167 213 188 173 169 209 200 172 184 210 203 191 221 224 218 237 197 228 191 208 218 216 251 229 233 219 231 231 218 237 223 241 222 255 255 251 226 235 
255 255 254 252 247 255 248 255 255 223 194 223 185 194 245 246 196 234 220 207 221 224 230 190 208 229 228 233 181 197 222 209 182 169 216 183 185 218 179 186 166 182 182 204 199 214 168 171 211 191 201 217 208 158 193 180 207 218 247 196 243 205 230 206 226 255 234 216 231 233 255 255 235 255 255 255 247 248 242 255 
245 241 255 255 248 255 255 236 233 252 246 255 217 223 230 225 235 253 216 239 198 226 213 164 201 209 200 205 239 216 180 202 160 200 186 205 194 209 183 155 172 176 153 168 182 180 222 157 200 187 195 190 186 193 180 188 156 215 235 218 236 235 255 213 208 216 227 244 226 254 237 232 255 255 222 255 249 215 247 243 
255 255 182 227 255 255 225 255 223 255 210 230 211 220 242 231 194 239 199 226 187 218 219 234 230 210 230 191 189 217 204 198 191 194 187 195 163 219 178 172 169 204 173 227 208 184 226 196 231 223 239 239 224 219 201 221 176 194 226 229 239 223 207 221 225 253 237 255 229 234 229 241 255 246 243 255 255 255 251 255 
229 255 252 227 231 255 247 234 255 212 219 255 209 230 207 187 241 220 211 217 211 168 198 191 213 214 213 192 199 206 198 178 216 177 215 165 178 175 170 204 178 199 205 141 203 212 234 178 143 208 195 200 195 233 177 210 252 222 192 211 193 205 219 239 217 217 239 236 234 255 219 228 227 255 255 212 252 249 255 255 
218 255 255 255 251 235 255 255 255 213 208 218 216 228 210 237 206 255 204 177 228 203 195 246 248 210 221 206 191 204 188 171 193 147 190 194 157 195 209 198 161 239 206 173 226 192 203 181 196 170 180 189 186 195 250 244 229 183 199 253 171 240 236 239 202 240 173 229 243 213 239 255 242 255 244 210 238 211 255 237 
255 212 255 239 235 219 179 228 237 228 255 214 226 213 230 204 218 223 176 206 193 208 200 226 227 220 211 205 182 205 215 208 173 189 200 209 177 190 195 190 205 203 189 197 171 209 198 198 184 157 190 185 207 226 207 219 236 200 212 220 200 218 217 231 252 209 227 252 233 238 223 205 226 248 251 255 235 255 219 241 
248 228 233 249 248 253 240 255 248 222 255 232 191 228 197 217 219 212 202 239 200 195 206 202 211 196 197 233 221 197 166 198 195 177 158 178 170 174 143 172 222 193 205 222 161 175 191 191 201 196 198 171 205 223 208 243 201 204 210 184 229 250 206 228 255 202 213 223 231 209 203 255 219 245 253 220 251 252 244 242 
218 255 240 195 224 233 221 237 245 211 225 221 223 224 198 204 240 251 250 213 255 219 194 220 189 226 192 221 209 183 190 187 184 183 172 196 203 179 172 211 173 199 205 168 172 215 167 195 179 163 190 199 214 177 231 200 193 215 241 167 228 245 209 225 218 245 222 229 249 215 224 214 255 242 255 241 239 224 252 254 
246 255 216 199 252 229 255 243 240 210 237 255 203 219 210 162 186 222 228 233 224 254 240 213 213 188 221 215 182 202 195 199 193 220 242 200 202 205 179 199 200 172 211 165 190 188 219 212 204 205 170 188 218 211 231 203 195 173 228 211 228 236 237 243 238 187 247 208 203 229 241 239 255 236 226 255 230 239 255 214 
255 255 230 255 240 222 255 233 216 249 215 233 232 222 219 242 219 218 228 192 202 212 213 204 201 216 186 208 188 224 167 204 172 195 218 186 192 193 218 226 207 165 168 188 204 197 216 164 167 211 170 219 190 216 212 186 213 224 205 242 237 217 225 221 238 243 215 199 253 241 207 242 228 231 255 236 255 255 255 255 
246 246 234 255 255 255 219 237 235 220 211 231 194 242 216 206 214 240 255 213 228 210 218 178 211 205 219 179 186 198 184 171 181 180 207 197 197 178 199 153 179 193 232 187 191 217 187 204 169 224 205 207 233 206 225 187 200 203 187 221 215 225 205 191 252 206 211 243 255 233 242 215 221 241 234 225 255 249 247 247 
255 255 255 248 246 197 244 232 255 247 238 202 216 254 227 224 201 218 192 183 179 235 214 189 173 189 197 203 212 240 205 190 199 236 210 190 227 185 204 184 238 227 205 220 203 200 180 223 169 222 201 193 220 206 190 199 194 229 184 191 199 243 194 195 232 232 193 224 231 214 212 255 255 249 255 255 255 248 234 198 
220 253 255 238 255 238 255 219 238 255 226 214 227 234 219 204 219 199 234 186 214 216 195 209 217 188 200 205 208 194 194 215 200 207 180 180 192 175 193 196 223 177 214 198 187 223 219 210 191 186 202 202 255 169 189 224 212 216 204 215 229 234 225 254 254 255 226 218 216 232 213 216 223 225 255 255 217 240 232 246 
255 255 250 243 255 254 255 239 235 249 255 243 225 233 206 236 217 205 250 210 227 209 240 211 203 177 239 222 246 203 225 182 213 196 225 178 142 204 187 215 203 221 193 180 144 193 180 215 186 198 169 207 172 186 190 208 232 179 229 206 243 222 221 237 255 238 248 221 219 253 201 221 255 245 229 245 255 243 255 253 
255 244 255 245 255 222 249 212 232 231 223 213 230 214 232 227 240 235 228 216 202 189 222 177 180 235 217 225 224 227 211 205 206 239 202 188 220 232 221 197 185 242 225 206 232 210 201 190 217 215 179 218 234 253 237 197 180 210 247 192 211 209 218 211 202 231 244 224 246 222 242 223 220 228 238 254 255 255 255 255 
255 247 245 252 255 234 255 221 238 245 236 234 239 219 219 190 201 222 229 192 233 183 195 210 242 197 219 190 216 223 187 200 221 174 202 208 222 214 189 239 203 206 229 220 236 228 233 223 210 250 178 217 184 219 222 209 226 202 240 225 249 187 215 238 217 225 227 202 195 230 249 253 231 220 247 235 255 255 250 236 
255 236 255 255 252 239 255 242 251 210 233 237 228 229 227 211 209 229 189 221 238 241 230 197 199 187 226 212 203 194 181 210 195 200 222 189 204 208 224 226 181 172 198 209 166 204 215 203 184 216 185 200 223 202 227 243 185 169 182 243 204 245 247 191 231 251 205 243 222 215 240 233 240 255 245 240 255 255 251 254 
255 255 255 217 255 211 243 225 216 239 240 221 226 229 227 236 215 220 238 207 201 221 232 190 213 228 202 195 233 211 206 207 218 238 194 221 237 195 219 209 220 224 211 226 216 211 224 216 169 195 220 213 204 193 241 189 197 223 221 204 208 219 220 218 181 211 233 212 255 251 214 240 210 207 255 229 246 239 236 255 
255 239 255 255 252 255 241 216 255 251 210 214 230 206 223 223 205 182 255 213 187 235 196 185 255 238 235 230 220 211 215 233 226 221 192 181 221 212 205 195 237 219 207 191 217 196 204 219 224 233 230 167 166 253 218 213 231 211 250 239 226 202 226 216 239 232 213 205 208 212 253 235 252 255 245 218 255 255 231 255 
242 255 255 255 241 231 204 221 248 240 199 216 240 199 214 233 227 207 226 227 240 204 241 240 207 193 203 217 220 212 217 196 214 212 196 222 209 242 180 203 228 229 226 185 240 247 222 185 217 236 253 222 207 215 201 218 233 207 197 210 223 226 206 241 197 230 224 222 202 223 239 255 255 255 196 236 237 237 255 253 
255 250 236 249 254 238 255 212 205 242 255 232 223 210 227 231 202 244 183 199 214 233 219 219 194 221 220 232 230 197 251 222 232 210 241 234 207 192 227 200 237 219 176 230 248 208 192 217 173 237 218 236 216 232 220 225 225 210 233 250 205 208 228 210 217 213 244 243 235 240 185 215 255 255 228 245 223 255 240 247 
251 255 255 219 221 255 255 240 227 226 255 215 212 232 232 243 227 201 232 246 243 230 198 165 247 212 255 246 221 221 247 221 229 234 229 255 227 221 212 222 214 200 235 230 218 221 200 195 208 255 207 241 212 255 210 240 210 232 241 239 194 204 255 224 241 226 215 239 234 250 234 245 188 227 255 246 245 245 226 230 
255 253 218 254 226 255 238 235 230 215 233 198 231 245 218 220 222 221 236 231 233 247 231 233 241 241 238 212 238 209 198 193 221 246 214 214 217 234 224 187 242 240 204 230 253 219 190 241 216 191 209 209 207 226 224 203 234 217 210 217 235 218 227 240 209 218 210 255 255 213 232 223 244 226 213 242 206 222 245 232 
223 255 243 236 218 255 225 232 241 239 251 224 239 238 227 219 195 233 253 231 218 216 238 234 236 220 224 238 231 245 227 242 239 231 235 234 219 247 217 232 243 208 225 225 221 207 215 217 216 255 228 241 235 248 239 239 199 250 227 246 207 209 244 220 241 235 240 229 222 219 223 243 236 255 233 255 247 244 245 235 
255 248 255 255 242 227 235 223 242 248 217 175 230 218 239 240 215 239 210 224 208 241 238 245 202 231 206 220 221 235 231 214 255 190 237 231 255 202 232 204 196 176 227 231 210 249 255 209 209 218 241 217 201 241 210 221 253 225 224 245 219 218 234 212 237 253 242 243 255 239 230 223 191 246 224 240 217 247 255 249 
255 253 255 229 247 250 255 232 249 255 209 228 225 204 255 221 220 242 242 255 207 225 207 224 255 234 231 186 225 230 213 214 184 226 222 184 218 227 238 254 232 210 199 255 211 208 210 229 254 239 255 255 255 244 254 240 204 219 237 229 215 213 218 255 215 255 235 195 231 240 255 223 232 219 255 245 251 223 242 255 
255 247 224 230 207 215 248 255 241 224 216 221 228 255 241 221 255 243 215 225 201 255 225 231 235 236 204 231 215 218 223 243 223 245 253 237 231 229 226 233 246 251 191 232 234 220 228 209 231 198 201 242 253 206 240 219 202 223 208 222 255 255 224 228 239 219 233 255 221 217 234 248 248 233 255 245 231 237 255 222 
254 254 251 218 255 249 255 226 248 237 220 224 245 238 213 247 235 239 206 227 255 216 246 255 209 242 240 252 203 244 232 255 235 249 192 213 247 229 241 230 233 248 196 255 203 233 228 212 255 201 239 205 227 246 246 238 205 224 219 235 239 200 224 245 238 255 246 243 233 243 230 237 232 243 254 255 241 245 235 255 
244 230 239 247 241 228 220 219 215 253 214 247 235 238 230 206 242 203 239 237 234 239 235 230 233 255 214 247 235 249 255 243 255 255 211 223 234 235 243 242 218 227 204 234 208 235 187 227 254 183 244 252 249 221 255 244 218 210 224 201 255 246 255 228 236 238 231 230 239 210 247 243 217 212 255 243 251 255 255 241 
218 242 254 251 255 255 255 235 242 255 233 229 228 222 218 245 226 234 228 241 247 216 232 234 255 240 247 194 255 216 228 254 245 244 248 253 255 196 255 182 255 255 215 249 237 247 244 226 236 224 207 209 210 212 244 255 241 236 218 242 241 210 250 233 224 237 222 242 242 211 255 255 225 248 233 255 250 255 245 255 
255 255 240 234 239 243 224 255 255 243 251 211 243 238 232 254 244 245 241 210 241 246 253 255 237 232 253 224 212 229 241 255 226 252 255 235 209 233 204 222 248 245 222 218 238 242 255 243 241 254 241 234 237 191 237 255 254 255 237 247 228 224 227 255 241 225 252 243 255 247 236 255 231 231 211 255 224 249 246 255 
251 219 237 224 254 255 231 244 208 238 222 253 255 255 207 171 255 225 254 225 255 210 228 236 224 236 207 248 232 239 255 240 248 246 198 255 205 241 227 216 246 215 230 222 255 255 207 227 202 255 232 209 232 255 243 224 238 255 222 255 231 255 213 236 224 215 255 255 236 250 255 208 232 255 217 255 255 255 255 219 
255 219 230 255 247 232 255 200 227 240 247 211 248 243 255 208 208 225 228 255 250 246 255 255 241 255 255 226 212 255 224 231 247 239 242 255 252 235 255 235 253 232 246 224 252 235 234 255 244 255 254 243 252 237 255 220 243 240 241 235 226 204 227 254 233 215 250 249 232 255 227 235 236 255 247 244 255 237 198 255 
246 254 203 231 237 253 252 255 249 213 251 230 240 201 215 230 255 225 255 255 255 251 227 245 249 232 241 199 255 232 219 253 255 255 255 226 238 245 253 255 244 242 255 255 255 232 255 251 246 214 236 221 233 241 253 244 255 248 255 242 212 247 255 225 227 255 232 255 215 239 255 255 252 245 232 250 255 241 255 255 
255 248 246 231 255 254 240 213 247 223 239 251 244 227 255 253 254 213 225 254 232 220 239 226 255 216 191 248 237 246 228 219 255 238 255 237 238 224 249 245 255 255 226 255 220 237 255 240 254 247 223 240 250 231 254 230 237 255 252 255 255 255 255 224 230 255 255 255 255 216 242 234 255 247 255 255 255 255 246 241 
255 255 233 235 251 250 255 255 255 255 255 255 255 227 245 255 255 244 255 208 221 241 255 246 255 224 255 255 239 224 255 241 232 255 255 234 236 223 219 213 240 240 255 254 214 255 255 241 228 224 239 234 219 255 255 255 246 240 255 244 216 252 244 255 235 249 254 242 229 255 255 247 255 227 236 255 255 235 220 255 
255 238 255 220 211 245 212 231 216 255 255 252 255 255 254 229 255 255 255 255 243 255 224 222 251 255 234 255 237 234 227 227 251 237 252 255 255 255 255 255 251 237 240 255 255 255 213 204 255 255 255 250 238 253 255 254 230 255 244 227 246 214 255 196 254 255 255 242 240 243 255 245 248 255 243 235 255 249 233 255 
255 255 255 255 249 224 221 233 253 222 247 218 239 255 255 247 231 233 249 255 255 248 255 238 233 228 230 242 255 227 255 255 255 255 255 255 255 233 213 255 255 247 224 255 230 254 255 255 255 255 255 255 255 255 250 255 255 228 198 235 255 235 223 244 255 224 255 255 255 255 238 248 254 255 255 255 254 223 251 251 
