P2

70 70
255
253 234 255 234 255 255 255 245 255 255 255 255 255 255 253 249 242 255 237 202 240 245 215 255 238 255 252 242 254 255 255 241 255 255 249 255 255 255 250 255 229 253 246 255 255 255 247 249 243 224 236 255 255 229 236 255 255 252 255 216 255 255 255 232 255 255 227 253 255 251 
247 233 251 231 255 252 254 252 253 255 250 255 255 255 255 254 255 216 255 249 255 255 239 253 255 251 255 196 255 248 244 245 242 255 255 255 229 255 255 251 235 234 239 255 246 255 246 247 245 248 255 255 255 255 220 255 254 233 255 255 255 251 216 255 255 255 214 233 211 233 
252 248 255 255 255 242 230 255 255 209 248 255 255 244 255 255 255 255 251 247 222 255 255 255 235 223 239 245 242 235 255 202 255 246 215 255 251 242 255 255 248 247 233 255 242 220 255 255 255 240 255 223 246 226 255 255 236 255 255 255 249 251 255 228 225 239 245 245 255 255 
253 253 249 250 235 249 235 255 244 233 255 213 255 255 246 255 218 244 216 237 251 220 255 255 234 205 229 255 217 255 255 249 255 220 219 251 254 239 235 221 246 218 250 241 255 209 255 248 255 252 254 255 235 244 255 255 239 228 242 240 242 250 247 250 247 255 255 255 227 254 
255 255 255 255 255 255 249 189 247 237 255 255 246 255 245 255 227 255 251 212 255 219 253 243 255 250 254 234 255 233 255 211 255 247 243 243 223 210 237 250 212 250 255 254 249 255 244 251 240 250 255 231 255 255 247 255 255 228 247 231 226 255 246 173 244 232 253 223 215 255 
234 255 243 255 255 239 234 255 228 237 221 255 255 248 211 247 253 255 221 243 255 255 226 222 227 255 232 242 207 255 227 218 226 255 255 250 247 218 255 255 255 255 206 252 211 237 253 205 216 255 254 237 255 255 235 255 236 248 229 234 249 255 255 255 218 239 229 233 255 253 
255 240 252 255 247 224 223 243 222 255 255 251 238 228 255 255 237 237 255 249 255 223 230 255 230 253 236 255 241 248 231 255 255 240 213 255 254 231 220 255 255 238 255 236 255 206 249 250 205 227 246 248 253 255 228 236 238 255 255 222 236 233 232 245 252 216 242 219 251 255 
255 255 255 255 227 248 245 219 236 255 251 236 255 232 194 226 255 185 225 255 229 210 255 255 201 240 235 221 219 230 213 245 255 247 233 248 255 255 255 250 255 225 255 199 255 255 239 235 236 217 226 255 238 225 254 204 227 242 243 222 255 244 232 226 231 247 247 250 224 247 
255 255 233 255 255 225 187 255 237 222 255 245 241 220 241 255 253 239 255 245 231 217 234 248 248 255 222 240 226 255 253 255 236 216 233 216 216 212 255 212 206 238 223 223 255 242 255 241 255 225 252 255 236 246 250 226 238 233 246 214 255 244 251 248 243 249 255 255 241 237 
252 255 253 255 230 230 232 202 255 247 255 242 227 255 255 255 218 216 236 244 245 255 208 206 255 247 205 246 245 229 247 215 234 224 207 237 252 232 243 237 216 241 221 237 229 215 227 224 224 252 254 255 216 202 239 253 255 229 227 254 241 226 230 233 249 240 243 243 255 254 
255 253 255 255 221 255 229 190 228 254 184 217 255 226 255 249 210 252 222 219 232 255 233 239 230 255 255 235 255 225 255 221 218 253 245 224 255 227 245 228 225 255 201 212 245 226 234 244 223 255 237 235 213 250 218 243 221 238 248 219 245 229 225 224 250 255 255 243 234 250 
225 246 255 255 206 238 234 255 253 244 237 207 215 248 246 223 189 230 223 216 255 239 240 206 224 217 226 231 217 242 255 245 209 231 255 255 234 255 255 219 216 255 210 227 252 224 220 232 210 244 213 255 236 229 255 238 255 241 252 253 212 229 255 220 217 245 250 218 255 230 
255 255 241 244 255 255 243 240 217 214 246 248 224 216 249 236 255 222 221 234 197 249 218 222 224 234 220 218 220 210 242 235 243 254 220 217 231 223 226 237 243 221 205 234 225 242 255 211 193 249 212 208 241 234 219 250 223 228 232 205 255 254 230 233 240 255 255 238 255 255 
255 255 225 249 241 212 255 249 224 255 237 230 212 223 241 255 226 217 236 211 204 255 211 229 225 208 238 198 222 222 213 233 241 225 236 255 230 255 207 255 234 202 209 246 211 215 191 230 239 247 218 220 219 233 223 220 222 248 243 214 222 226 220 231 253 248 241 255 244 236 
255 237 255 255 255 227 234 255 224 254 237 217 216 221 246 243 230 219 227 219 200 219 220 235 225 253 195 208 227 244 153 251 236 222 190 233 234 225 245 255 181 233 216 228 230 210 249 236 206 235 243 250 230 229 224 216 216 214 215 255 253 248 206 255 231 255 231 236 255 255 
227 247 249 255 241 236 251 225 220 254 205 255 212 222 249 226 220 240 239 227 232 206 230 244 181 234 189 233 200 231 230 255 254 224 208 249 238 214 211 213 181 234 218 191 240 225 192 218 232 190 204 231 195 254 255 219 218 231 219 224 235 222 223 249 240 250 232 235 228 255 
255 255 234 237 251 255 248 255 240 255 231 233 234 205 205 243 194 215 206 220 197 176 249 236 255 185 255 198 192 221 231 223 255 207 234 211 216 217 222 255 208 229 218 252 229 201 229 245 222 195 209 255 225 238 255 200 205 235 218 255 255 228 217 217 218 255 255 255 255 231 
234 255 255 255 230 255 244 250 239 229 235 196 223 255 227 222 255 208 178 245 184 221 214 238 233 229 226 191 221 236 247 208 210 255 255 229 240 234 228 229 228 158 214 221 234 219 221 251 222 255 217 208 199 213 253 195 223 202 255 220 240 225 228 231 232 255 215 255 239 252 
255 255 251 251 255 255 241 208 239 214 255 243 245 246 252 218 255 235 201 237 210 250 197 238 234 195 219 212 215 200 178 215 217 208 194 255 202 216 255 201 215 205 196 229 221 207 220 220 211 226 206 199 226 222 228 233 219 201 229 215 248 251 224 243 253 214 255 253 252 255 
255 255 248 255 255 239 253 255 255 247 246 255 222 240 222 237 215 182 224 212 230 210 204 231 232 219 238 225 245 223 255 226 215 204 194 244 255 220 216 229 217 217 223 209 189 213 244 214 186 195 228 207 185 211 227 180 246 220 186 246 243 204 252 230 238 255 231 255 255 255 
245 255 255 224 220 197 207 225 252 234 242 255 226 235 220 234 224 237 236 204 196 201 255 231 255 185 210 245 181 226 216 202 218 239 226 209 222 238 215 235 233 200 206 194 195 220 189 205 220 220 210 229 220 217 238 217 226 212 231 241 217 255 247 231 212 249 247 234 250 242 
255 230 255 254 255 251 255 237 242 237 220 253 224 238 235 206 255 214 215 183 248 246 219 200 225 221 196 231 173 211 234 175 206 238 229 189 213 198 206 232 246 182 219 205 220 190 219 225 216 208 213 227 187 184 222 213 232 222 233 255 254 255 255 238 240 243 220 225 221 250 
255 238 255 255 255 214 255 215 214 236 246 250 210 233 237 223 203 195 232 238 199 229 224 211 202 213 222 228 165 206 224 203 221 196 220 206 206 195 221 225 223 214 201 206 177 223 207 191 207 190 199 207 201 222 206 235 241 245 202 207 210 227 220 225 228 245 255 250 255 242 
223 255 255 233 255 255 247 255 239 230 249 233 243 223 204 251 199 224 206 241 223 192 211 220 215 215 199 206 243 163 175 223 178 193 242 196 216 230 171 236 207 220 197 221 208 175 209 213 212 246 229 206 195 212 255 207 208 237 255 235 234 235 226 232 234 255 255 245 251 255 
247 226 255 243 239 252 255 241 206 211 230 184 207 236 238 238 191 195 232 220 218 209 193 214 170 221 193 193 218 228 193 220 237 207 224 205 235 204 223 223 206 244 151 217 196 202 230 217 223 192 199 212 223 212 210 221 219 226 211 247 255 204 208 255 217 236 237 254 245 255 
252 255 255 255 255 250 210 255 255 218 251 214 242 248 218 228 195 174 197 187 219 235 227 165 204 195 198 220 231 196 162 183 183 186 201 195 230 212 207 227 217 210 179 204 214 218 222 221 190 216 185 227 209 227 202 239 255 224 244 215 230 236 253 255 244 217 228 252 244 255 
255 231 255 238 237 255 228 247 255 236 235 243 255 241 224 206 234 218 227 201 197 235 227 245 206 227 200 222 203 191 190 218 190 181 243 255 190 213 226 211 210 215 206 238 224 205 209 246 221 210 221 222 253 236 255 237 221 229 224 226 205 227 252 241 255 251 228 251 255 252 
255 255 242 224 253 253 250 255 226 255 255 235 208 234 255 240 235 204 205 234 232 182 215 198 220 212 214 200 183 188 207 197 174 235 204 196 191 202 212 161 204 208 205 200 232 231 196 197 218 203 201 202 193 233 236 174 248 241 236 253 204 219 215 241 243 255 254 236 242 249 
255 254 255 222 229 255 249 237 228 255 248 213 250 247 253 253 211 182 191 183 201 235 210 225 205 212 220 191 159 174 196 133 193 208 176 190 213 179 201 228 209 185 221 210 188 216 207 179 222 214 199 217 223 218 231 236 210 220 242 223 227 247 251 251 214 255 250 245 236 255 
255 255 242 251 255 255 234 235 232 186 241 255 214 215 234 249 223 244 215 230 222 214 208 201 194 191 231 189 216 171 178 194 185 203 216 193 195 209 210 195 194 180 210 188 193 208 214 219 236 233 217 223 223 213 216 245 210 236 236 219 255 253 255 238 247 255 255 247 229 251 
255 255 255 255 255 230 254 255 223 238 251 183 221 246 241 210 243 187 226 201 180 179 195 211 216 205 232 177 201 157 175 227 215 162 176 184 208 169 187 191 202 198 243 171 188 222 210 239 255 213 208 220 222 190 213 228 213 217 252 232 249 245 181 214 229 255 255 244 255 255 
225 233 253 254 240 237 255 231 204 252 227 236 227 250 238 239 219 226 255 251 198 227 213 205 207 227 199 203 214 215 177 214 135 178 196 187 202 192 228 199 178 203 170 222 233 246 166 197 215 217 213 255 242 244 208 215 212 229 238 219 213 255 251 238 251 255 244 242 255 255 
255 255 245 224 225 255 250 255 215 218 249 255 246 220 234 249 255 201 225 203 223 232 184 222 186 196 228 164 185 183 196 204 191 168 201 208 141 197 212 203 183 195 167 200 170 225 207 175 181 174 226 230 201 176 221 237 242 255 224 233 242 255 240 216 252 226 255 236 251 241 
229 255 246 251 232 220 244 231 214 222 196 216 228 226 202 227 222 208 203 172 210 213 202 246 213 214 221 198 229 137 175 195 188 222 159 210 191 148 166 164 205 181 211 192 205 185 240 195 202 230 239 193 206 170 190 227 198 252 215 237 248 227 215 227 250 250 255 249 255 253 
253 255 255 255 255 234 235 255 210 255 255 217 231 252 255 240 255 223 230 217 227 205 215 191 209 196 192 239 194 216 214 193 201 177 202 198 147 186 173 193 221 206 194 190 189 197 215 154 216 192 215 223 190 216 198 230 248 224 195 241 251 237 233 221 250 249 255 226 255 252 
237 255 255 251 255 241 231 241 223 228 249 253 230 223 244 219 224 249 192 211 172 164 200 188 237 168 218 193 199 208 160 200 206 162 165 195 231 187 166 223 191 207 183 215 195 221 204 220 210 235 181 202 194 235 214 209 224 255 227 255 231 255 240 250 241 255 245 255 250 255 
255 255 223 224 255 249 247 214 245 229 234 230 226 231 209 255 211 205 215 216 234 198 199 197 226 255 214 223 189 212 222 216 204 170 192 215 160 200 199 213 204 189 175 215 234 188 229 208 211 201 210 200 241 188 233 237 227 255 191 228 251 245 255 242 209 249 246 255 210 255 
255 245 255 237 247 229 246 255 224 255 235 192 255 225 252 228 224 218 195 173 200 196 162 239 214 225 200 209 178 195 204 200 163 176 205 190 143 188 167 187 177 218 195 231 211 242 216 202 187 217 191 215 228 254 201 255 245 255 252 240 210 249 234 186 213 255 240 218 255 255 
255 211 239 255 216 243 243 250 248 255 237 236 231 227 217 218 232 202 213 235 230 199 220 194 191 215 168 201 191 181 193 215 204 216 178 207 195 215 182 210 174 133 167 191 194 215 216 234 215 200 209 237 213 226 225 221 241 209 218 228 214 222 240 230 237 228 255 214 255 255 
255 255 227 214 241 223 209 247 255 255 227 207 244 231 214 223 191 221 222 211 219 251 224 189 231 214 183 189 186 181 180 212 204 174 208 196 234 218 201 193 215 192 229 201 196 176 187 207 220 207 211 254 226 237 204 247 241 253 202 209 228 220 244 255 243 255 237 239 237 252 
255 255 218 245 236 249 229 221 254 202 255 233 216 211 235 239 232 195 227 215 209 204 235 212 171 206 194 210 172 200 171 153 173 199 221 201 178 208 140 189 212 147 175 208 245 234 255 230 197 170 215 235 215 227 209 233 255 204 246 233 255 216 247 243 255 255 239 241 230 255 
255 251 254 232 234 255 246 255 229 246 222 249 249 245 212 231 224 221 234 225 206 201 216 239 191 207 213 200 218 186 197 197 167 189 216 168 198 189 221 182 197 172 212 205 221 232 202 218 187 209 210 204 219 226 203 197 255 228 221 227 210 255 238 239 237 245 255 255 251 255 
255 255 230 232 226 249 222 231 214 255 215 245 231 232 227 250 215 236 188 200 204 234 190 179 183 209 184 238 166 151 175 200 215 225 221 205 184 197 219 180 180 255 204 195 204 222 236 201 219 236 211 209 255 202 226 236 219 233 238 226 235 255 255 250 255 255 211 249 244 255 
255 255 232 255 255 255 234 233 251 231 190 238 213 220 229 238 236 228 242 185 223 164 199 213 210 169 202 187 194 193 191 201 199 192 219 203 203 207 201 209 232 179 186 191 204 215 219 194 255 202 241 187 239 200 223 219 204 237 190 255 236 207 224 233 236 222 247 255 224 255 
245 255 237 236 223 245 255 197 255 255 243 255 188 239 240 183 157 215 218 218 198 225 211 202 222 212 212 174 205 249 220 199 215 218 190 186 193 212 184 213 185 208 219 166 180 237 185 206 213 201 215 211 224 212 252 214 234 229 245 225 238 251 209 240 232 251 255 255 255 255 
255 255 233 255 255 238 221 218 255 255 241 247 232 214 212 228 203 226 225 255 207 190 170 176 247 215 205 209 225 198 205 235 234 216 200 195 197 196 199 170 221 205 216 177 209 201 219 207 193 245 226 219 226 174 203 193 236 218 242 210 238 230 248 218 207 248 244 253 221 215 
255 227 249 255 255 255 253 235 246 188 231 214 218 255 184 251 228 210 228 251 224 205 246 225 212 224 236 223 182 247 188 230 175 195 213 164 223 218 173 232 216 194 164 213 183 207 204 208 182 224 202 195 219 226 234 244 255 251 200 226 178 227 245 237 240 234 255 255 245 255 
249 255 239 229 220 220 230 244 212 210 237 213 219 222 212 225 191 246 243 206 217 220 197 191 194 182 226 217 223 211 167 192 197 241 214 197 191 229 218 188 198 222 213 199 227 228 220 237 197 228 191 208 218 216 251 229 233 219 231 231 218 237 223 241 222 255 255 251 226 235 
255 255 254 252 247 255 248 255 255 223 194 223 185 194 245 246 196 234 220 207 221 224 230 192 212 235 236 243 193 211 238 227 202 191 240 209 213 248 211 218 198 214 214 234 227 240 192 193 231 211 221 237 228 178 213 200 227 238 255 216 255 225 250 226 246 255 254 236 251 253 
255 255 247 255 255 255 243 240 230 239 225 221 252 236 228 237 246 216 213 232 226 236 199 207 216 213 225 245 210 235 196 226 215 168 207 217 210 217 253 232 198 222 182 224 212 233 224 241 215 187 206 212 191 208 222 220 255 197 240 227 235 230 226 233 220 228 196 255 255 255 
255 255 255 241 232 236 243 255 234 255 237 228 253 243 206 248 225 187 215 207 216 251 146 193 235 231 197 239 199 244 190 212 195 206 230 221 186 233 195 224 187 220 223 240 238 220 242 205 205 235 224 222 219 226 223 235 207 255 226 222 221 255 229 255 255 244 255 255 255 255 
255 255 255 255 245 255 212 226 254 253 255 239 219 229 229 253 233 254 217 218 211 221 248 222 217 227 248 246 217 220 191 247 218 195 201 246 221 210 249 192 201 255 195 218 197 179 235 216 209 217 213 172 206 203 229 234 237 220 231 242 238 222 255 229 255 225 240 239 236 255 
248 255 255 205 255 255 255 230 191 252 235 236 227 255 201 230 255 234 200 217 197 207 219 237 213 211 231 226 222 255 203 210 207 235 255 186 224 219 226 255 182 235 227 234 223 209 255 239 235 195 192 204 204 220 206 237 210 255 216 193 248 227 223 255 255 250 255 254 243 255 
248 231 253 207 250 252 213 249 255 248 209 255 250 215 255 230 239 213 226 198 206 213 208 215 255 255 243 195 209 255 177 244 238 239 200 236 167 221 233 201 225 255 224 254 222 186 212 183 231 205 230 180 227 211 211 199 163 216 229 224 255 218 234 225 246 224 242 251 208 242 
233 248 240 255 255 255 251 245 222 245 255 248 213 229 238 245 211 224 229 224 239 237 223 231 205 243 232 232 216 187 218 211 231 248 227 237 252 214 224 230 208 224 221 233 252 207 223 246 225 228 211 191 210 230 231 255 215 237 199 221 228 212 221 241 244 253 244 255 255 238 
255 252 211 248 217 237 239 232 222 255 220 215 226 222 231 216 219 255 247 225 196 230 229 211 192 212 204 208 177 206 255 227 239 255 195 209 225 225 235 228 228 199 231 247 230 255 219 220 224 196 239 255 212 232 255 202 213 223 231 209 203 255 219 245 253 220 251 252 244 242 
218 255 240 195 224 233 221 237 245 211 225 221 223 224 198 206 244 255 255 223 255 233 210 238 209 248 216 247 237 213 222 221 218 217 206 230 237 213 206 245 207 233 239 202 206 249 201 229 213 197 222 229 242 203 255 222 213 235 255 187 248 255 229 245 238 255 242 249 255 235 
244 230 255 250 255 241 235 216 240 238 226 237 196 179 234 213 255 231 230 202 231 252 201 219 212 166 192 230 238 245 238 255 255 233 235 212 247 243 212 234 229 233 227 254 255 234 236 239 213 233 234 206 245 199 224 222 253 246 240 243 210 228 255 251 255 243 235 213 255 251 
255 255 255 255 255 207 255 220 211 233 241 235 255 226 214 255 214 221 246 192 255 252 210 243 224 208 243 223 208 243 211 231 232 224 223 248 227 228 240 206 218 230 233 226 225 242 214 238 220 255 201 238 206 229 252 220 226 227 252 255 245 205 210 232 250 245 255 216 221 255 
228 255 242 255 255 226 249 255 233 255 255 233 239 233 248 251 221 203 255 241 205 238 222 223 252 224 255 255 255 238 224 226 216 255 243 255 209 229 229 216 209 231 196 246 222 214 224 252 255 229 246 230 240 202 237 233 249 211 220 232 220 209 221 222 251 243 245 228 251 207 
235 247 255 237 239 255 231 246 209 255 241 243 255 240 255 217 228 229 211 243 235 243 221 205 255 216 219 249 255 235 242 213 217 235 226 215 247 235 231 229 240 255 249 234 234 187 236 226 255 245 238 204 220 255 235 234 213 232 208 201 199 255 242 221 209 229 241 251 255 255 
255 242 249 255 255 234 255 225 242 220 255 255 241 255 239 236 216 255 205 255 237 229 255 242 224 231 224 255 210 215 221 255 212 211 246 244 203 232 237 218 214 255 255 245 255 255 245 236 220 182 202 237 255 226 255 230 251 215 236 255 228 218 235 246 235 224 243 227 255 222 
254 255 235 249 255 228 240 243 244 230 230 251 236 243 216 216 228 211 229 232 255 213 250 234 223 255 255 246 227 222 238 238 255 205 225 255 244 246 232 241 253 255 245 255 255 255 238 228 224 238 217 218 223 223 255 249 209 230 220 232 246 255 238 235 255 254 255 247 247 255 
255 255 245 253 226 255 237 225 255 234 253 237 255 243 237 213 255 255 255 239 255 218 249 232 255 214 178 240 223 251 239 255 229 216 180 229 216 251 222 234 205 243 208 222 226 244 255 211 255 234 255 246 243 255 255 254 255 233 229 255 207 225 255 245 229 245 255 243 255 253 
255 244 255 245 255 222 249 214 236 237 231 223 242 228 248 245 255 255 252 242 230 219 254 211 216 255 253 255 255 255 247 241 242 255 238 224 255 255 255 233 221 255 255 242 255 246 237 226 253 251 215 254 255 255 255 233 216 244 255 222 239 235 242 233 222 251 255 244 255 242 
255 239 232 236 242 254 255 255 255 255 255 239 239 248 254 234 255 225 244 253 246 246 253 235 237 210 223 246 255 220 255 215 229 246 255 233 255 226 252 255 223 236 255 210 238 244 255 250 225 255 239 242 255 255 255 255 255 255 246 255 214 253 220 255 255 245 255 242 255 255 
255 223 247 255 241 247 247 220 211 244 255 255 239 226 251 237 255 255 246 230 247 230 255 255 252 241 255 248 255 220 245 251 244 247 247 233 233 255 217 251 255 255 255 233 235 223 255 248 239 230 217 246 231 236 255 225 240 244 255 255 217 208 234 245 202 240 251 241 224 255 
229 242 255 240 255 255 223 207 220 255 238 255 255 219 255 255 227 255 240 231 254 245 250 255 251 244 255 255 249 250 250 255 255 217 255 215 249 233 226 251 254 237 244 249 249 255 241 248 255 239 235 255 255 226 249 255 238 231 255 247 242 243 254 255 230 255 255 231 255 249 
255 255 249 255 254 249 255 254 207 233 255 251 242 231 255 227 235 255 255 242 244 253 252 248 209 237 255 234 255 255 230 254 222 217 255 235 250 241 236 254 255 237 255 255 255 255 249 226 255 255 226 232 250 228 247 249 233 212 255 247 223 255 232 221 255 255 255 255 255 249 
255 255 255 255 230 219 255 250 243 233 255 255 245 229 255 234 242 255 255 255 255 205 204 255 255 251 255 249 255 255 255 238 255 248 255 255 239 229 230 232 255 251 255 255 255 226 255 255 233 255 240 255 255 255 247 239 214 233 255 255 217 236 255 223 240 255 255 239 255 255 
