P2

10 10
255
255 255 255 255 255 255 255 255 255 255 
255 253 253 253 253 253 253 253 253 253 
255 253 251 251 251 251 251 251 251 253 
255 253 251 249 249 249 249 249 251 253 
255 253 251 249 247 247 247 249 251 253 
255 253 251 249 247 245 247 249 251 253 
255 253 251 249 247 247 247 249 251 253 
255 253 251 249 249 249 249 249 251 253 
255 253 251 251 251 251 251 251 251 253 
255 253 253 253 253 253 253 253 253 253 
