P2
# Created by Paint Shop Pro 7
80 120
255
247 254 219 254 246 248 192 155 126 209 250 252 252 250 254 254 255 255 
255 255 255 255 255 255 254 254 189 105 122 165 130 133 148 150 200 244 
254 254 254 183 174 198 200 198 245 254 249 254 253 253 253 253 248 229 
245 183 146 157 162 138 161 127 125 94 109 152 153 110 56 62 54 70 93 130 
92 78 65 50 53 65 254 228 150 250 216 183 161 152 211 253 253 254 253 253 
244 254 255 255 255 255 255 255 255 254 231 254 217 111 129 159 133 121 
151 166 169 247 252 244 253 181 182 204 201 215 242 253 254 225 247 248 
250 219 228 220 213 164 161 162 150 131 144 140 166 111 150 111 101 81 
124 106 110 74 57 99 106 73 65 69 74 81 224 204 211 170 163 137 128 202 
229 253 254 254 255 255 252 254 254 255 253 254 254 255 253 252 232 249 
246 118 116 151 136 116 133 154 166 241 246 251 254 164 168 195 200 202 
236 254 253 220 226 237 194 174 189 174 169 161 167 159 138 144 135 147 
112 128 84 89 107 101 87 95 91 53 67 72 56 72 80 95 85 60 188 202 193 141 
126 157 202 233 244 254 254 255 255 255 255 254 255 255 253 254 255 255 
253 254 234 241 243 162 122 150 154 122 131 150 164 212 239 192 220 142 
162 198 201 207 249 250 245 237 252 215 151 179 227 140 159 165 167 165 
148 157 168 118 120 117 111 109 89 79 56 62 67 44 45 49 37 58 60 94 98 
65 175 157 154 154 234 227 254 248 253 252 255 255 255 255 255 255 255 
255 255 255 254 255 254 254 246 232 226 183 118 150 172 121 135 158 195 
239 228 228 194 155 172 205 204 195 210 187 174 204 243 202 153 201 251 
215 166 158 161 154 155 160 135 79 101 98 95 73 72 117 80 32 36 38 36 45 
86 64 62 92 33 41 151 138 167 249 253 253 254 252 254 254 255 255 254 255 
255 255 255 255 255 255 255 254 255 255 252 234 222 191 129 151 178 146 
132 155 176 189 214 239 149 174 172 171 106 81 84 83 90 93 117 108 193 
253 252 242 177 162 138 164 164 170 131 103 126 100 112 136 110 139 91 
71 39 42 37 43 66 69 56 34 34 36 142 185 254 254 255 255 255 255 255 255 
255 255 254 254 254 254 254 254 254 254 250 252 252 254 251 210 202 208 
130 148 176 173 133 155 170 231 178 165 186 178 141 81 72 74 68 87 80 97 
101 123 100 143 238 220 174 166 173 193 177 171 130 131 108 96 93 81 82 
92 97 79 56 60 88 67 42 37 60 33 33 57 148 215 254 255 255 255 255 255 
255 255 255 255 254 254 236 250 254 247 254 247 192 200 223 219 251 254 
228 206 119 139 174 153 113 145 178 208 243 245 225 113 67 67 75 68 73 
79 81 82 89 97 107 104 105 163 160 166 184 174 161 161 102 88 103 87 80 
64 73 83 110 96 92 83 72 53 54 31 66 79 31 26 178 240 254 254 255 255 255 
255 255 255 254 254 254 248 221 202 166 158 148 112 102 101 110 110 125 
158 198 197 131 145 180 164 124 146 171 212 218 252 181 72 72 73 63 55 
58 62 63 56 55 71 81 80 92 95 166 157 162 174 155 131 97 82 115 89 75 81 
105 103 78 84 87 92 56 37 53 40 31 95 83 32 183 252 254 254 255 255 255 
255 255 254 250 203 156 123 117 103 101 89 82 87 85 85 90 101 96 101 96 
126 132 145 172 189 144 167 188 215 206 252 99 67 67 58 58 50 49 53 52 
63 69 63 85 83 78 77 115 170 181 175 151 109 93 71 77 76 73 76 82 82 80 
85 88 92 98 66 40 46 78 67 97 82 181 248 242 252 252 254 255 255 254 239 
113 76 73 69 62 59 58 61 61 57 57 55 57 57 60 77 93 93 101 111 141 158 
132 130 139 191 244 217 79 73 60 53 55 57 54 56 63 62 68 67 60 65 66 80 
82 174 182 186 164 137 95 86 75 77 72 59 64 57 69 75 79 90 87 103 88 95 
106 95 66 74 148 187 244 249 237 254 255 255 254 178 75 74 58 54 53 55 
55 48 49 49 55 53 56 54 51 49 65 89 89 92 89 114 118 127 145 189 253 208 
67 72 58 58 58 47 40 45 40 44 50 61 62 61 62 77 79 157 182 176 165 90 67 
65 72 60 59 62 66 61 66 73 71 82 82 83 81 85 105 93 78 86 149 184 192 227 
223 238 243 253 254 120 75 65 55 51 48 43 40 42 51 49 54 55 66 59 50 51 
51 59 76 82 88 107 127 104 154 192 248 189 65 60 52 53 51 44 45 36 49 52 
51 57 61 67 63 75 72 119 180 165 145 72 66 67 62 51 52 52 56 64 68 67 68 
77 85 79 83 94 98 38 50 78 145 152 184 200 232 234 230 245 253 100 76 63 
55 51 47 46 43 44 43 43 46 47 58 60 54 53 41 43 53 65 92 79 109 125 140 
188 244 180 66 58 55 50 44 40 41 38 42 53 49 57 65 57 60 65 71 89 165 153 
86 66 67 64 65 50 43 62 57 65 70 72 71 85 76 92 78 71 98 53 79 72 114 119 
174 165 193 186 195 201 233 109 73 58 54 50 49 40 36 45 44 41 52 56 49 
48 41 35 33 30 31 49 82 81 87 121 144 173 248 181 60 54 42 44 40 46 46 
43 45 49 50 53 53 59 74 60 54 98 177 114 67 68 58 59 49 47 57 55 60 60 
69 69 70 86 74 81 80 75 71 82 52 47 133 128 129 150 163 168 163 187 190 
102 65 56 49 49 47 40 33 36 35 39 43 52 54 57 42 33 36 33 36 36 54 71 86 
94 165 177 188 157 57 27 22 18 16 25 42 52 51 53 55 54 47 57 59 51 45 114 
175 82 69 61 60 63 64 50 50 57 64 65 63 73 72 75 61 74 83 73 78 67 63 62 
152 136 131 146 159 176 141 223 188 116 67 57 47 41 34 36 36 31 34 43 40 
44 47 52 39 38 42 36 31 34 37 47 78 85 144 189 190 178 46 31 25 19 20 20 
19 36 51 55 51 53 63 58 35 22 19 129 151 65 62 63 59 63 56 48 49 51 63 
68 65 72 75 77 71 63 71 65 80 74 79 59 127 91 130 191 203 217 177 204 223 
138 65 60 50 37 21 27 25 31 33 45 48 48 46 42 40 44 43 34 38 32 36 39 67 
87 117 187 212 166 41 49 54 55 42 25 23 21 23 46 45 40 41 24 31 27 44 174 
124 64 63 54 63 58 60 48 56 51 55 61 57 79 80 80 81 66 66 51 59 84 82 58 
117 130 149 167 244 242 200 198 214 154 65 57 51 31 33 42 45 50 44 54 57 
55 49 38 39 45 36 29 31 36 40 35 47 64 78 197 237 114 54 49 51 61 45 53 
58 30 21 39 46 20 36 55 43 58 134 173 100 60 65 69 64 60 57 48 55 60 57 
62 64 68 77 88 81 74 66 45 53 78 124 106 149 136 123 152 202 157 149 179 
207 196 63 44 31 54 73 71 54 61 63 64 70 72 58 42 34 38 37 35 33 41 44 
35 37 59 71 181 171 88 58 39 63 58 37 63 58 62 27 29 27 38 62 68 39 54 
77 160 75 64 55 60 50 62 61 48 51 59 62 53 69 64 77 74 76 70 59 58 50 83 
190 111 142 136 161 159 159 153 115 176 205 247 76 43 53 92 78 65 67 68 
70 75 76 77 73 74 54 30 36 31 41 33 36 38 33 45 67 149 157 108 61 36 28 
30 41 64 68 27 67 51 66 62 44 62 34 57 59 151 75 65 59 66 56 59 54 62 55 
61 56 55 71 74 77 70 70 70 66 57 54 81 134 77 124 131 150 149 147 185 194 
146 227 254 88 41 91 102 76 71 76 78 74 71 87 86 78 80 71 60 41 39 37 34 
29 35 38 34 46 141 160 119 42 26 20 22 23 22 27 52 60 68 61 58 36 35 27 
37 71 160 76 63 55 60 54 54 52 54 57 61 63 57 68 71 79 60 49 58 66 62 62 
64 101 41 74 103 115 109 100 139 150 132 187 245 105 51 103 95 71 71 80 
88 85 80 75 82 79 78 72 81 81 38 35 39 31 28 32 33 37 122 150 113 49 32 
60 53 29 17 29 68 66 67 58 44 24 37 25 26 60 159 76 50 52 60 71 59 53 54 
56 66 67 61 63 65 70 72 79 79 82 70 63 62 73 48 30 89 99 100 65 82 151 
122 182 221 91 76 92 83 71 71 81 85 78 71 80 76 77 73 77 80 84 48 40 32 
38 33 25 33 42 110 94 113 36 68 69 66 84 55 26 35 55 49 50 29 39 51 44 
27 110 157 62 55 75 74 67 69 64 53 49 60 73 70 67 62 73 69 65 56 68 75 
81 80 96 47 28 30 60 89 78 76 96 110 120 185 88 77 82 76 76 75 80 78 78 
79 81 75 85 83 85 87 84 68 39 33 36 26 41 41 37 93 113 82 48 73 21 64 62 
81 60 28 22 21 38 45 67 86 89 55 112 156 65 64 59 60 59 49 69 61 51 57 
68 68 67 71 61 59 56 52 43 74 65 85 81 35 34 12 10 11 29 65 87 108 135 
160 101 89 76 66 64 79 81 78 89 83 82 80 82 83 87 91 90 75 30 26 24 24 
34 43 39 114 122 79 61 30 69 97 45 65 37 39 56 57 39 62 82 63 47 52 127 
134 58 43 42 49 61 59 55 58 57 60 56 60 64 59 74 51 32 27 24 42 63 74 54 
100 5 5 5 6 7 6 10 29 71 98 119 33 10 8 8 12 61 77 52 23 21 24 22 21 37 
61 88 70 30 34 22 22 33 30 33 114 107 62 63 43 81 63 48 60 37 53 66 65 
38 41 68 47 32 51 162 149 62 28 21 23 22 37 48 54 57 64 48 40 41 37 26 
18 19 14 12 16 33 77 96 77 7 11 16 15 12 22 7 6 5 12 52 13 42 63 58 47 
69 76 76 28 20 22 27 27 22 16 35 69 25 29 38 35 23 17 32 129 121 66 69 
45 79 31 61 45 38 59 67 65 47 40 57 47 75 56 154 204 62 20 18 22 20 17 
15 29 49 43 34 38 33 21 15 20 31 27 22 20 27 69 95 101 6 7 8 8 22 74 36 
5 7 17 48 58 61 38 40 33 88 76 76 53 43 61 89 94 91 40 23 68 19 15 37 27 
20 24 42 154 123 93 61 50 58 26 62 36 39 67 72 68 56 38 47 43 73 65 144 
203 65 20 18 18 20 17 14 13 22 36 32 27 26 27 46 64 71 69 69 40 23 91 79 
70 9 8 7 6 30 28 8 7 10 17 33 30 33 19 14 52 81 71 74 70 25 31 39 46 67 
86 79 64 15 9 31 32 19 25 71 163 124 96 64 59 52 48 51 36 52 70 70 76 57 
36 42 48 68 73 134 120 51 27 41 63 69 59 46 19 10 29 67 68 31 51 64 79 
66 71 64 67 35 72 70 66 12 9 9 8 10 11 9 7 5 4 14 43 32 30 49 76 68 73 
80 81 43 36 24 23 28 35 50 67 18 9 12 35 41 40 72 164 122 66 57 54 36 56 
46 34 65 63 54 73 67 29 39 48 62 76 138 98 47 38 75 79 66 52 39 24 27 63 
74 72 56 24 28 37 36 41 42 45 55 77 107 119 18 13 14 15 18 19 16 17 15 
14 14 80 77 75 62 62 69 72 68 83 64 60 55 45 54 56 68 66 19 16 22 37 38 
43 96 164 125 66 53 36 20 60 38 42 76 50 53 58 66 28 39 56 43 82 123 102 
44 62 36 22 21 24 19 21 31 62 66 75 71 27 23 32 38 37 29 63 69 106 84 65 
35 39 37 34 23 20 19 20 21 20 23 72 66 63 37 15 13 16 17 23 60 63 86 85 
112 89 77 59 25 24 32 31 42 23 118 178 136 62 53 25 61 46 36 20 31 51 48 
53 66 26 34 55 35 94 96 89 65 27 20 16 13 12 21 30 49 54 63 72 80 57 38 
30 38 42 52 85 73 107 63 39 21 19 21 25 41 53 52 38 25 23 23 71 75 56 35 
13 7 6 7 10 38 68 69 85 82 87 69 56 28 32 30 34 66 39 141 168 126 109 51 
54 45 6 20 45 20 10 10 14 27 10 7 31 44 92 93 63 62 40 23 14 14 25 42 42 
55 57 57 68 76 65 68 48 53 63 78 81 67 59 47 36 4 5 5 5 4 2 6 20 31 36 
36 67 76 55 44 73 50 57 68 63 44 54 72 68 82 71 69 50 25 29 31 38 62 68 
154 170 144 61 56 55 8 12 53 59 51 43 36 35 51 37 6 17 42 95 58 67 53 56 
49 53 63 56 55 37 53 50 64 66 75 71 65 80 79 67 66 68 70 53 66 46 5 6 6 
8 9 10 16 14 11 9 13 43 41 38 67 91 92 84 103 93 60 36 46 63 66 76 71 39 
35 37 39 50 58 104 157 157 154 70 45 10 10 56 68 63 65 57 57 63 67 64 18 
10 54 92 65 64 54 55 71 81 68 60 45 34 56 66 70 58 67 72 47 84 89 71 70 
61 70 56 89 48 87 8 5 4 5 5 5 4 4 4 3 28 32 26 79 71 74 78 86 91 66 34 
39 52 72 77 57 38 42 36 40 55 59 128 151 157 160 80 28 7 53 87 80 72 72 
75 67 75 70 78 47 5 47 87 76 79 54 61 72 63 59 55 40 38 58 64 55 65 68 
75 63 63 77 74 63 55 64 35 40 32 74 61 49 74 69 5 7 8 7 6 7 22 24 35 30 
27 27 18 18 35 57 43 38 59 68 67 38 36 40 34 44 63 90 131 152 175 167 118 
45 50 103 90 76 77 75 73 70 77 81 88 80 9 14 67 85 75 52 53 63 60 53 46 
37 48 50 57 65 63 74 77 77 59 63 62 78 57 62 38 37 41 5 40 77 17 23 26 
11 6 5 5 4 17 22 56 40 33 33 34 37 44 51 63 40 56 59 53 33 42 39 35 42 
60 111 133 151 161 160 115 69 102 92 78 80 81 70 76 75 78 80 79 96 20 8 
78 102 85 49 39 46 60 48 47 34 47 49 46 46 51 71 73 80 68 65 64 67 64 65 
43 37 38 24 19 3 4 4 5 4 5 5 5 15 42 34 57 64 65 61 68 64 55 65 61 46 52 
56 30 27 43 46 37 47 84 124 132 142 156 161 108 83 99 25 13 32 61 73 70 
81 72 67 53 68 47 35 97 84 97 59 47 42 60 52 36 23 34 22 17 12 13 16 16 
15 27 56 62 56 50 67 55 69 50 73 92 85 74 53 31 14 4 4 6 4 47 42 83 41 
11 11 8 6 12 25 50 59 43 44 30 30 39 44 39 53 105 112 128 147 156 162 87 
91 47 14 17 13 9 29 59 59 45 29 7 48 66 99 63 92 64 55 48 37 51 54 42 18 
5 5 6 5 5 8 20 38 47 49 60 69 77 75 58 80 75 112 93 86 99 92 77 88 79 32 
15 15 44 67 67 57 44 39 40 50 74 68 85 60 49 28 36 36 43 35 48 47 102 114 
120 144 153 161 105 77 24 19 33 36 26 10 6 10 11 13 11 28 74 83 63 60 61 
48 51 45 45 50 23 21 33 26 17 22 26 26 43 66 63 35 59 77 72 75 93 41 79 
94 86 79 93 117 101 101 106 84 57 52 87 112 23 68 69 61 58 45 48 43 57 
47 37 30 40 35 41 31 44 47 114 127 128 126 148 165 92 63 25 37 51 37 32 
34 29 30 39 34 16 18 66 74 89 73 68 50 40 44 50 43 16 51 50 55 41 47 54 
57 64 64 69 41 53 78 70 79 84 38 47 97 77 84 81 103 81 111 122 93 64 61 
91 120 30 43 26 17 15 13 8 8 10 17 44 21 20 27 26 28 39 55 107 120 110 
134 155 160 95 55 24 47 52 44 29 31 35 44 51 43 37 14 63 72 75 105 89 53 
43 38 47 27 39 60 56 70 52 56 65 70 66 74 82 43 46 59 59 75 47 34 64 84 
74 76 98 135 128 87 102 107 66 78 103 126 80 44 21 11 5 4 9 9 39 40 36 
23 11 13 9 10 16 51 107 111 123 123 141 145 101 62 31 50 47 46 33 25 29 
34 53 54 46 23 46 70 47 84 87 59 41 51 45 27 55 59 73 73 73 75 63 71 69 
85 88 73 44 52 61 74 48 57 35 68 76 72 72 88 85 98 111 106 66 69 122 119 
96 47 27 20 8 14 25 47 55 50 57 21 6 6 7 12 12 73 110 112 125 116 129 150 
110 63 63 49 53 59 44 29 32 45 34 37 39 48 51 95 70 61 55 69 44 46 33 42 
61 59 74 79 87 83 87 70 73 85 81 96 48 53 63 80 48 51 39 75 77 67 90 142 
132 104 130 98 75 66 98 108 72 51 40 27 25 38 46 66 63 64 68 55 2 4 4 14 
49 107 100 113 115 118 128 147 141 60 70 72 41 39 53 58 70 60 62 35 57 
68 62 76 36 39 68 91 40 42 36 61 54 56 66 73 87 76 92 84 77 85 79 106 62 
47 49 69 42 53 31 93 80 70 75 70 80 82 125 92 79 63 103 106 71 69 54 44 
40 48 53 65 70 74 81 85 110 130 137 85 93 105 104 110 119 116 134 136 159 
62 57 65 59 33 22 37 44 54 46 52 75 69 45 79 25 30 48 71 41 37 36 43 53 
51 48 56 73 72 77 83 88 83 57 59 69 37 50 71 49 73 48 104 77 65 67 71 89 
115 120 103 78 70 102 88 85 74 66 58 55 51 55 76 77 78 83 93 109 167 163 
97 107 97 112 106 124 111 127 130 108 41 27 43 61 68 48 33 28 39 65 76 
65 59 50 81 43 38 38 38 40 34 51 33 15 15 22 30 27 31 42 36 25 26 31 61 
94 42 54 94 59 90 53 131 78 75 73 87 73 94 106 118 72 77 94 89 100 75 74 
77 70 60 59 77 80 79 87 93 90 114 172 90 114 116 116 106 117 120 133 140 
99 58 26 25 55 56 62 67 62 67 66 65 64 43 66 75 39 36 61 54 34 26 56 59 
34 18 10 8 10 9 11 15 17 29 50 74 80 48 66 72 58 63 48 117 92 76 79 78 
87 120 140 102 89 72 92 89 97 85 82 72 65 68 62 77 84 84 89 89 96 93 170 
85 87 122 95 88 107 116 123 151 109 74 45 18 33 57 61 52 53 64 64 63 50 
56 63 37 30 19 71 78 37 19 40 65 59 47 40 47 27 15 19 25 40 58 68 81 66 
46 49 75 78 70 64 135 103 83 105 106 77 82 86 142 85 68 91 81 77 83 82 
70 71 66 70 79 80 89 89 85 78 106 126 105 69 104 81 103 102 118 111 134 
111 65 78 44 20 27 46 53 48 45 58 49 47 68 61 69 31 17 84 85 37 18 31 46 
55 61 57 51 63 54 61 58 59 74 75 60 53 59 44 40 19 34 42 123 108 139 145 
118 96 125 154 132 87 67 79 85 71 75 78 74 73 66 67 70 80 90 87 88 66 79 
146 120 91 115 92 148 105 116 120 125 138 63 72 72 36 11 26 29 31 40 47 
31 59 64 58 86 92 85 92 88 34 28 31 39 43 66 76 74 80 79 75 73 77 84 57 
61 63 71 43 60 44 51 58 124 119 136 141 122 107 104 148 113 85 72 72 75 
73 71 62 75 71 71 74 77 83 85 91 94 68 74 145 119 114 104 90 103 107 111 
111 112 150 77 68 63 64 16 12 10 8 10 28 53 60 57 66 104 133 96 100 89 
32 43 35 30 23 33 62 81 82 90 97 91 81 54 57 54 73 77 39 100 128 85 84 
122 106 129 139 120 102 102 134 113 85 65 75 62 68 66 61 69 77 75 70 79 
78 90 86 84 74 74 148 129 106 83 90 81 101 111 119 118 130 113 63 70 63 
46 31 30 55 23 33 59 63 66 96 131 157 96 109 89 46 46 46 32 20 10 18 26 
28 33 48 40 34 41 51 53 83 85 36 108 137 75 54 94 113 134 122 116 98 113 
130 123 77 75 73 75 74 67 48 56 76 76 77 77 77 75 83 80 69 75 123 128 107 
79 85 81 88 88 90 121 125 104 32 63 56 30 32 40 63 38 37 62 61 58 106 118 
96 152 100 90 72 48 54 49 34 24 12 7 6 7 9 13 19 44 44 74 92 87 35 111 
140 75 58 123 128 135 131 127 122 122 140 129 104 71 66 74 65 61 51 49 
63 70 71 78 81 84 80 88 69 75 108 127 103 89 74 88 93 114 91 93 92 79 28 
54 54 31 37 46 59 38 37 61 50 61 104 147 143 140 102 97 85 45 58 51 43 
43 32 24 30 20 24 31 46 60 67 90 93 96 42 121 136 94 70 152 147 131 139 
129 132 140 162 131 95 73 63 68 65 59 42 43 64 74 72 73 76 82 87 88 62 
71 104 129 103 98 86 98 90 118 113 113 126 80 41 43 52 45 47 55 60 35 31 
54 42 71 82 135 103 130 115 101 87 47 51 57 53 53 49 53 51 49 47 56 57 
74 74 87 84 96 48 130 97 82 79 181 183 185 186 186 183 178 174 119 93 75 
69 65 62 58 47 40 54 63 71 70 76 91 93 80 55 65 91 123 126 159 150 116 
93 107 120 115 116 87 66 34 45 29 42 63 67 44 21 55 56 78 68 127 118 124 
120 109 72 49 52 58 59 65 66 70 60 52 66 67 71 69 78 81 84 83 66 142 126 
132 124 165 165 164 161 170 174 171 176 121 88 73 68 64 67 58 37 25 63 
63 66 78 83 95 93 70 59 71 83 126 104 79 79 97 95 107 115 125 109 88 87 
57 32 45 45 65 61 56 37 49 68 80 82 125 120 155 157 95 55 44 53 53 60 60 
75 68 70 79 75 76 74 79 77 77 80 77 69 123 127 117 78 92 84 80 74 89 92 
71 120 133 88 65 63 63 60 46 26 19 62 62 64 79 87 74 91 62 62 67 83 120 
105 73 65 103 104 111 105 125 93 77 82 75 74 56 55 60 79 54 55 63 73 64 
103 126 133 163 182 101 58 37 46 49 58 67 73 76 77 83 77 70 77 78 73 77 
75 81 110 120 134 112 105 41 58 52 58 65 54 64 103 126 82 56 63 55 38 36 
27 18 54 67 65 74 84 75 89 54 65 74 87 104 116 136 155 98 95 108 106 114 
87 72 76 76 78 60 59 56 68 60 67 71 72 60 110 109 133 196 130 185 94 35 
44 48 51 59 65 70 80 82 80 79 88 86 77 71 77 78 130 137 118 122 150 39 
32 29 45 69 58 58 81 118 77 56 63 40 38 41 22 14 50 64 62 76 85 81 82 43 
64 72 91 125 118 133 136 100 107 105 105 107 80 63 59 70 73 68 58 64 54 
58 67 73 60 64 112 124 101 143 164 154 86 37 42 53 50 58 65 72 73 72 74 
79 89 81 62 75 61 56 116 130 131 125 92 85 84 118 102 133 132 112 120 107 
84 60 64 48 34 31 23 9 46 61 70 93 91 90 66 42 60 77 88 120 131 128 129 
88 81 120 101 97 91 57 55 60 67 66 65 66 47 58 62 65 58 59 117 132 129 
145 145 171 96 38 45 45 50 60 60 70 72 71 78 65 82 61 62 65 69 72 118 116 
121 87 78 106 122 129 146 134 125 123 124 122 97 49 61 49 36 26 16 9 40 
60 90 86 89 99 46 45 61 88 80 110 111 114 128 113 122 120 107 96 84 53 
52 59 62 62 62 58 44 62 75 57 54 81 138 143 177 191 163 150 101 43 42 43 
46 51 59 56 59 72 82 73 69 66 69 57 66 61 111 112 101 100 111 137 140 139 
133 129 123 118 116 116 97 41 56 41 28 21 10 10 33 60 90 91 86 72 34 48 
77 91 88 134 135 121 127 137 118 117 116 97 87 57 53 58 65 64 54 51 45 
60 70 65 55 101 167 160 177 167 129 128 137 41 45 44 49 49 53 63 67 61 
72 69 70 54 57 54 65 58 150 105 131 124 126 121 121 123 124 118 119 118 
116 118 116 30 59 26 22 6 6 13 21 59 91 88 93 50 30 48 76 100 93 108 141 
154 119 114 143 119 118 109 80 58 61 67 64 70 49 45 51 63 63 60 61 132 
149 166 150 139 131 156 135 44 52 57 57 52 50 67 65 73 62 68 73 65 62 62 
58 72 162 154 148 175 145 136 136 155 149 147 134 136 147 151 119 26 27 
7 5 6 12 19 14 45 76 87 65 29 33 53 84 86 91 101 107 115 103 93 116 110 
116 102 54 56 68 68 63 62 43 33 54 63 67 64 69 168 156 148 155 163 165 
173 175 87 52 51 54 53 56 70 63 85 76 53 58 58 56 59 70 115 175 143 144 
144 124 146 134 132 126 134 120 156 142 171 155 25 37 15 7 13 8 17 13 24 
65 79 28 27 41 53 84 94 87 122 102 111 119 139 118 118 106 97 66 49 64 
55 53 66 42 35 49 58 71 70 73 123 139 147 136 178 174 194 190 164 56 63 
56 57 56 63 52 67 68 68 56 51 56 56 63 125 158 167 145 126 122 123 127 
146 136 145 149 143 159 174 140 34 48 42 36 31 23 20 18 8 13 7 14 26 43 
36 68 97 84 146 149 144 171 151 111 123 113 85 66 54 55 56 62 55 40 34 
47 59 59 53 70 113 157 164 157 150 165 181 182 186 101 55 58 60 59 63 61 
62 60 71 57 56 54 52 108 130 127 135 142 115 106 167 137 145 141 176 173 
153 156 191 189 45 63 71 62 55 53 46 42 27 20 29 42 35 45 49 71 94 86 174 
142 151 151 161 138 143 127 99 54 53 46 55 44 43 24 33 49 57 51 50 78 96 
81 81 106 132 120 80 134 151 103 36 52 49 60 60 61 59 54 69 58 57 45 52 
118 103 117 116 137 121 125 163 183 195 203 140 154 180 167 159 140 54 
66 79 72 66 52 55 53 46 49 60 50 36 45 57 85 86 85 166 172 173 155 165 
169 174 142 154 85 42 35 49 35 30 34 28 34 51 43 65 69 132 89 100 132 133 
129 128 143 151 97 27 19 34 41 47 52 49 47 57 66 50 30 65 124 80 78 103 
106 94 136 154 160 164 151 171 211 184 173 120 110 58 76 69 85 72 67 64 
70 70 74 70 63 40 44 60 91 95 102 187 174 191 185 173 170 185 192 156 63 
27 17 16 26 19 33 21 22 30 44 43 88 161 143 138 122 114 114 120 134 134 
68 41 15 7 7 13 14 13 12 15 22 30 52 69 97 93 107 107 101 107 138 126 117 
155 179 174 115 145 123 102 116 66 75 65 79 71 70 64 75 88 78 80 70 48 
46 69 87 87 110 188 196 181 192 199 153 181 175 78 64 66 55 56 54 52 56 
46 32 37 40 31 99 152 149 130 117 116 129 129 118 139 60 46 36 20 10 10 
7 6 8 13 32 52 53 70 86 83 119 122 150 144 129 108 106 100 95 113 129 111 
113 112 123 73 70 76 77 71 67 64 67 71 70 79 74 45 45 64 88 75 107 145 
140 162 163 164 186 146 140 69 57 55 42 45 44 45 49 56 71 67 66 58 53 98 
150 148 143 135 133 160 125 136 58 53 50 39 40 31 38 34 34 43 57 55 58 
73 114 79 79 119 98 115 118 108 113 115 133 141 119 143 155 157 157 98 
68 66 64 61 67 63 68 71 78 73 68 57 45 71 84 82 131 183 169 168 167 167 
157 173 193 70 56 55 47 45 41 32 36 41 39 59 56 61 56 115 149 146 131 141 
115 145 115 94 54 54 63 61 52 59 51 51 55 50 54 62 70 68 143 116 92 122 
103 118 143 160 153 160 161 175 177 202 200 172 164 104 62 63 60 58 60 
61 67 67 76 72 66 65 47 62 82 77 155 190 190 179 181 180 165 174 178 82 
50 49 54 46 50 40 38 44 53 65 58 57 56 119 130 114 129 146 120 106 102 
82 45 42 54 61 64 60 63 62 60 65 66 80 68 71 124 137 127 118 105 86 85 
149 141 160 163 192 198 196 185 132 178 107 54 56 66 59 63 69 69 70 76 
76 64 59 42 71 80 77 156 191 160 156 168 157 162 176 186 180 24 12 50 36 
30 56 33 50 63 53 61 58 53 91 101 120 110 114 101 93 100 67 42 49 43 47 
65 63 57 58 63 61 67 65 61 67 109 133 134 125 104 90 79 115 112 129 147 
173 184 168 172 167 167 125 55 50 59 65 67 67 81 78 74 80 68 53 42 74 88 
85 179 207 181 187 213 225 214 203 223 220 56 28 21 19 19 31 12 17 47 5 
31 18 69 91 92 93 126 134 126 114 91 74 76 57 45 40 44 54 71 59 55 49 45 
45 41 43 71 121 134 139 128 108 73 106 116 128 152 147 153 126 146 148 
165 163 57 49 54 70 68 79 87 63 65 72 64 53 46 87 94 92 189 202 191 212 
220 215 211 217 228 140 74 59 53 53 45 36 39 37 28 28 33 57 137 121 95 
109 105 108 85 72 65 64 60 37 75 68 43 43 61 39 45 40 55 72 77 49 61 57 
86 83 70 68 79 117 121 119 101 130 141 120 123 137 156 152 50 51 46 54 
56 68 87 72 65 67 69 47 57 91 85 118 216 219 221 213 201 203 207 201 204 
77 85 74 61 58 62 53 52 54 54 57 63 61 98 81 64 118 99 89 81 87 85 52 54 
49 61 61 53 38 48 42 63 72 62 47 72 57 70 41 48 102 74 51 98 114 112 116 
120 121 124 132 128 128 145 126 50 49 49 59 62 65 84 89 83 57 63 51 68 
95 83 147 204 217 211 221 222 204 194 188 208 68 77 80 78 69 68 63 62 61 
65 73 75 71 112 107 121 113 100 87 94 118 89 32 27 30 41 26 64 63 67 66 
33 57 57 49 62 60 79 69 57 53 51 50 64 130 127 122 127 130 123 123 121 
125 139 110 50 65 59 65 64 65 78 89 91 65 65 49 76 94 90 156 191 179 195 
198 208 210 184 209 179 70 68 62 62 64 60 70 69 71 74 72 73 71 140 151 
143 123 100 88 110 138 88 30 28 31 21 42 56 80 65 66 40 55 52 38 27 36 
82 57 54 69 56 51 32 111 116 114 115 113 124 136 126 129 125 110 52 60 
67 61 70 77 82 103 86 63 66 47 64 88 91 148 142 160 168 213 199 198 210 
229 163 73 70 64 62 52 62 50 55 66 64 62 65 75 170 169 153 131 135 131 
115 112 73 28 68 68 45 21 39 56 49 60 48 27 21 31 32 25 75 32 37 33 40 
33 37 109 111 112 121 114 121 120 122 122 120 119 54 61 63 66 67 74 74 
100 82 68 64 47 71 93 94 125 144 154 171 171 204 214 201 204 142 72 71 
70 67 51 47 48 49 61 65 65 62 73 168 204 185 165 148 117 127 124 75 38 
22 43 47 24 18 15 15 25 32 54 57 66 67 38 65 89 64 49 44 65 73 147 146 
142 151 162 155 138 129 130 138 135 68 75 69 68 80 84 85 92 83 63 65 41 
62 92 89 162 191 196 180 193 193 212 214 205 109 72 67 71 64 47 50 52 53 
42 55 64 59 68 170 189 179 176 199 201 200 170 112 35 49 35 43 28 31 41 
39 20 34 53 51 39 22 53 86 135 119 117 108 120 105 175 178 166 176 182 
183 186 185 198 198 200 95 74 77 71 94 93 83 69 80 62 66 41 67 86 89 137 
146 156 166 146 158 171 174 174 83 66 58 60 54 51 53 54 48 60 59 67 66 
61 179 193 187 164 196 189 196 199 74 37 51 32 41 44 50 55 55 40 27 32 
24 69 38 44 103 175 161 167 142 143 133 178 177 180 173 175 183 188 196 
202 210 216 125 81 76 76 78 89 69 63 65 64 59 38 73 95 95 179 186 183 174 
159 149 155 142 136 68 61 54 50 47 49 47 52 52 55 70 74 76 59 130 164 158 
189 171 164 169 178 68 43 47 42 43 50 64 55 58 58 26 32 29 45 51 41 102 
175 150 162 141 142 141 174 164 169 186 187 189 194 203 209 210 214 140 
64 73 75 78 81 68 60 65 58 64 45 71 92 93 197 218 221 223 222 221 219 221 
198 68 59 52 49 44 49 49 56 57 64 65 56 62 79 111 121 127 124 147 150 174 
178 64 38 21 39 36 63 59 50 60 62 41 37 31 46 46 41 125 144 157 157 126 
121 148 174 190 191 196 196 197 197 198 201 205 210 156 63 79 69 84 73 
61 58 63 65 59 44 55 86 94 211 221 219 221 221 220 216 169 192 66 58 60 
51 48 47 44 46 55 56 58 73 71 68 167 193 181 173 169 158 153 140 52 28 
38 27 25 32 40 41 47 63 46 28 36 27 48 49 124 145 161 155 156 139 139 173 
180 186 189 188 188 190 188 188 188 190 129 58 65 74 72 78 68 66 63 64 
55 40 62 98 101 216 222 220 217 220 185 180 219 213 68 55 51 52 53 63 54 
41 41 50 61 70 67 69 199 215 220 219 223 221 220 214 45 42 27 22 35 30 
12 9 15 23 26 29 38 29 27 47 103 124 134 143 96 99 111 180 177 178 175 
174 181 184 183 187 187 182 105 55 54 71 82 72 55 60 64 65 55 47 79 90 
90 218 216 223 199 178 206 222 220 226 87 42 37 48 48 50 45 43 45 64 63 
67 67 67 220 216 221 220 222 221 220 215 44 32 20 35 53 42 37 41 48 49 
53 29 24 30 41 57 140 132 141 128 129 126 138 153 157 165 173 171 179 180 
182 179 178 188 133 56 46 67 80 82 56 52 65 58 48 55 75 79 96 213 211 185 
208 221 217 219 220 225 125 54 54 50 42 42 47 47 51 54 65 59 67 81 229 
227 227 228 215 223 224 217 46 20 42 52 63 57 51 52 59 57 64 48 23 19 31 
57 148 149 147 148 134 132 129 136 129 137 142 144 149 155 161 148 167 
176 124 59 47 61 75 68 51 48 58 54 49 54 88 87 131 205 200 207 208 217 
220 220 221 221 129 44 48 46 46 49 48 57 47 64 67 75 68 94 234 225 226 
224 224 220 221 216 48 41 55 65 68 66 57 60 63 69 63 61 54 37 37 64 153 
145 152 149 146 144 137 146 148 139 157 146 152 162 157 135 141 158 126 
54 48 66 77 70 52 49 56 55 51 63 77 77 121 205 212 216 213 215 217 216 
218 221 125 67 66 54 51 49 48 50 47 83 78 57 63 110 234 228 224 223 223 
223 222 220 62 62 68 66 65 59 51 60 65 68 55 69 58 53 55 76 164 159 157 
156 152 145 126 150 154 158 160 156 153 143 149 160 166 166 141 54 52 65 
104 76 54 56 58 53 60 68 59 65 98 134 140 146 155 156 168 165 172 176 121 
45 55 65 59 56 56 55 48 57 67 55 56 152 232 231 234 227 220 221 223 219 
59 45 62 63 61 58 53 45 48 55 56 58 70 60 56 102 166 159 153 150 152 148 
131 164 174 154 159 159 168 176 169 163 171 170 157 52 57 63 89 69 50 54 
58 53 65 50 56 55 112 155 149 116 136 167 171 158 150 136 111 50 56 57 
60 52 46 42 50 45 65 67 53 165 228 220 216 219 224 224 226 225 70 56 30 
50 44 55 55 56 46 45 52 62 54 43 65 168 197 195 196 192 180 165 159 157 
162 161 182 169 174 156 174 187 174 175 171 62 59 62 67 70 59 61 57 60 
73 48 48 47 131 163 168 173 171 171 155 149 158 182 108 55 57 50 55 54 
49 51 46 52 49 79 62 144 169 165 180 195 197 180 184 202 81 59 42 23 45 
54 54 48 46 50 45 35 41 59 80 199 197 193 199 197 195 174 178 158 157 162 
162 163 153 169 176 171 185 184 172 124 62 57 76 67 73 77 59 71 66 48 43 
34 137 170 157 181 153 136 166 169 168 183 103 64 59 51 50 57 58 65 64 
57 68 81 74 138 165 173 139 157 170 160 147 139 61 53 60 41 24 23 27 27 
27 26 29 44 59 66 116 204 203 205 205 199 194 171 176 144 133 134 123 131 
149 157 160 174 178 175 174 125 64 59 67 76 95 100 60 87 57 40 36 52 136 
197 171 191 194 186 164 166 176 194 77 66 68 56 55 69 69 63 75 81 65 75 
75 167 177 185 180 149 154 156 161 155 64 41 62 59 54 41 29 37 36 45 54 
53 65 58 76 153 152 159 160 156 145 150 163 161 160 151 158 128 110 136 
108 145 135 155 144 121 67 58 61 65 92 94 63 32 36 44 55 72 140 174 178 
183 191 189 189 170 150 144 59 72 68 48 56 59 69 80 73 74 75 70 73 146 
145 132 140 164 174 163 169 163 77 45 49 60 60 65 55 46 50 52 58 64 62 
54 76 129 133 138 135 131 128 119 114 158 164 156 138 157 164 146 141 120 
166 169 173 71 67 65 59 79 101 94 96 91 80 69 78 85 145 186 191 180 183 
163 165 159 170 177 56 63 49 51 46 50 59 75 74 66 67 69 133 192 166 158 
126 154 162 169 163 179 106 44 34 46 50 55 63 67 62 57 68 52 42 56 79 140 
145 145 144 147 148 150 130 168 144 154 145 142 127 145 158 154 157 173 
146 64 63 59 59 70 101 102 89 97 103 91 90 98 167 158 160 208 206 190 174 
148 196 192 55 50 50 72 59 59 51 58 69 52 53 68 165 204 212 189 149 152 
171 162 167 171 126 45 32 29 50 46 59 59 64 65 57 35 50 60 79 172 153 141 
131 151 137 127 120 165 149 148 161 172 175 174 165 156 177 149 124 66 
62 59 58 70 92 98 90 90 94 79 106 96 157 178 194 196 196 170 157 189 181 
159 51 60 49 48 61 66 75 49 53 60 49 62 105 123 139 155 189 180 180 162 
178 163 128 53 47 29 28 47 39 42 43 46 30 37 47 63 103 157 155 161 148 
136 146 147 148 155 176 174 175 167 151 176 184 182 174 157 115 64 63 65 
62 69 87 99 96 98 101 82 87 98 173 162 182 160 166 149 183 163 169 143 
45 35 26 30 39 44 40 36 61 48 57 90 193 159 170 151 123 152 180 184 169 
182 182 75 52 43 32 20 28 29 22 24 45 52 62 61 119 146 158 151 171 157 
144 154 141 171 181 175 145 135 136 158 163 143 134 132 128 65 59 56 72 
69 90 88 86 100 103 80 90 108 159 181 165 171 148 164 167 156 156 142 39 
53 61 45 39 39 42 51 58 38 54 105 161 171 161 172 188 167 140 176 181 167 
185 66 30 41 47 47 39 41 45 51 51 58 48 54 94 148 151 145 139 137 148 157 
168 168 161 147 142 139 134 133 157 170 163 165 129 67 73 66 69 61 78 90 
82 83 93 95 110 114 148 177 139 139 132 148 167 157 115 88 42 57 42 46 
35 52 55 51 51 75 100 137 156 162 178 136 182 165 174 186 166 168 174 49 
27 17 53 51 46 39 51 62 58 33 44 61 86 156 177 193 176 139 120 124 133 
107 119 93 125 128 129 134 164 131 155 144 174 66 69 77 61 74 61 92 74 
67 91 86 101 107 163 136 197 170 158 138 128 133 131 144 90 77 45 105 130 
110 120 125 116 136 140 131 132 162 151 169 147 169 134 156 158 154 162 
49 42 26 43 58 55 31 41 75 57 45 53 64 97 176 154 166 193 205 189 144 133 
129 121 156 153 178 137 151 179 157 155 130 146 79 64 66 80 80 83 88 85 
83 97 94 99 117 137 133 183 162 141 150 153 150 162 175 186 175 155 135 
126 132 127 130 158 168 129 153 128 222 143 156 193 191 159 167 137 156 
118 50 47 34 26 48 40 24 25 57 47 49 61 59 96 152 171 173 168 194 199 180 
134 142 171 177 146 132 138 154 173 165 111 143 153 110 60 64 72 79 78 
84 80 74 86 108 100 112 142 153 164 141 147 140 147 127 141 173 159 178 
130 143 130 139 125 174 151 155 174 157 157 175 177 148 141 172 165 146 
147 143 93 51 51 44 33 37 32 22 18 43 50 54 62 60 100 176 157 161 161 163 
185 153 145 133 163 150 151 169 130 134 141 140 148 193 162 126 50 59 56 
78 74 75 89 80 93 99 113 112 138 155 171 182 125 176 174 139 157 155 171 
142 143 124 127 126 145 149 143 177 168 165 200 160 155 163 179 173 191 
130 131 151 101 45 52 47 41 23 31 38 27 33 51 60 61 63 98 169 157 159 178 
150 150 159 150 147 154 132 145 157 154 154 144 173 183 112 87 110 50 52 
57 70 66 69 70 77 80 95 112 109 135 158 139 172 129 159 166 167 184 166 
147 155 175 148 148 162 165 206 160 146 145 142 184 165 148 170 148 178 
147 137 151 150 83 39 50 48 53 43 39 45 46 47 62 59 59 59 103 166 184 173 
173 159 142 158 153 154 153 144 141 122 138 139 108 122 70 74 79 107 58 
51 54 74 65 67 70 71 82 88 102 109 138 169 151 157 145 139 145 155 139 
122 153 160 160 148 139 166 178 168 151 131 169 172 165 158 171 137 146 
151 135 148 132 120 84 36 40 48 49 44 46 47 51 48 56 59 55 55 97 170 181 
166 153 150 172 147 139 141 138 134 135 116 137 118 140 144 94 132 111 
137 52 54 54 68 63 71 78 75 83 82 96 101 162 144 141 174 108 154 146 166 
144 143 164 155 152 126 164 168 156 130 140 162 179 166 138 147 143 145 
151 155 134 127 133 142 131 72 53 39 44 48 40 46 50 51 52 52 57 59 91 188 
158 161 183 143 157 177 143 155 142 165 147 153 137 158 154 122 151 105 
105 109 47 44 55 58 62 63 71 80 72 101 101 97 109 137 147 146 113 146 145 
187 170 133 149 161 172 136 162 134 165 190 158 178 154 193 166 154 171 
155 149 150 160 138 133 146 106 133 140 118 72 65 40 41 56 49 54 56 49 
55 71 144 167 153 174 189 146 177 163 155 149 146 158 172 154 142 162 142 
123 143 104 110 50 43 60 67 67 66 79 79 84 88 94 96 89 115 137 141 134 
155 196 173 164 176 174 205 178 148 159 138 152 169 173 166 161 157 165 
151 166 158 141 152 139 143 152 138 153 140 127 130 182 176 87 64 54 77 
93 139 140 145 152 149 158 180 175 166 168 171 156 139 111 142 156 129 
157 146 166 132 118 138 153 123 77 57 64 64 66 71 63 66 89 131 110 118 
131 137 165 152 150 181 151 143 132 178 144 149 149 160 181 185 164 183 
186 202 168 153 191 188 173 193 184 177 142 164 126 138 140 158 137 152 
118 144 137 135 126 140 151 117 166 198 164 176 175 151 175 162 172 180 
160 177 170 188 146 155 152 145 126 145 133 122 138 145 147 93 81 94 89 
87 111 103 148 192 155 194 143 162 152 146 158 151 175 161 204 156 171 
152 149 152 183 166 140 140 184 167 211 143 139 159 137 163 160 158 149 
145 158 135 158 145 135 146 165 166 157 159 138 175 136 145 133 170 162 
165 158 152 154 162 157 174 185 135 133 163 128 125 124 137 141 137 172 
159 138 135 144 138 143 162 154 135 140 180 166 143 128 118 124 206 161 
176 171 187 172 192 185 168 159 158 198 181 186 166 161 177 185 161 190 
179 192 167 160 142 166 162 153 156 155 214 148 176 160 142 143 159 172 
146 145 163 150 154 131 141 137 167 163 166 141 137 145 162 149 139 138 
140 166 170 116 129 133 140 168 139 139 180 193 156 123 121 161 152 148 
111 140 158 204 186 169 215 139 151 188 195 176 162 173 156 169 159 168 
164 141 135 169 158 156 178 165 170 177 163 156 158 162 169 152 173 174 
193 185 165 171 148 190 169 229 171 124 162 186 118 144 157 135 152 126 
116 126 148 154 152 141 
