P2

40 40
255
255 255 255 255 255 255 255 255 255 255 255 255 255 255 255 255 255 255 255 255 255 255 255 255 255 255 255 255 255 255 255 255 255 255 255 255 255 255 255 255 
255 253 253 253 253 253 253 253 253 253 253 253 253 253 253 253 253 253 253 253 253 253 253 253 253 253 253 253 253 253 253 253 253 253 253 253 253 253 253 253 
255 253 251 251 251 251 251 251 251 251 251 251 251 251 251 251 251 251 251 251 251 251 251 251 251 251 251 251 251 251 251 251 251 251 251 251 251 251 251 253 
255 253 251 249 249 249 249 249 249 249 249 249 249 249 249 249 249 249 249 249 249 249 249 249 249 249 249 249 249 249 249 249 249 249 249 249 249 249 251 253 
255 253 251 249 247 247 247 247 247 247 247 247 247 247 247 247 247 247 247 247 247 247 247 247 247 247 247 247 247 247 247 247 247 247 247 247 247 249 251 253 
255 253 251 249 247 245 245 245 245 245 245 245 245 245 245 245 245 245 245 245 245 245 245 245 245 245 245 245 245 245 245 245 245 245 245 245 247 249 251 253 
255 253 251 249 247 245 243 243 243 243 243 243 243 243 243 243 243 243 243 243 243 243 243 243 243 243 243 243 243 243 243 243 243 243 243 245 247 249 251 253 
255 253 251 249 247 245 243 241 241 241 241 241 241 241 241 241 241 241 241 241 241 241 241 241 241 241 241 241 241 241 241 241 241 241 243 245 247 249 251 253 
255 253 251 249 247 245 243 241 239 239 239 239 239 239 239 239 239 239 239 239 239 239 239 239 239 239 239 239 239 239 239 239 239 241 243 245 247 249 251 253 
255 253 251 249 247 245 243 241 239 237 237 237 237 237 237 237 237 237 237 237 237 237 237 237 237 237 237 237 237 237 237 237 239 241 243 245 247 249 251 253 
255 253 251 249 247 245 243 241 239 237 235 235 235 235 235 235 235 235 235 235 235 235 235 235 235 235 235 235 235 235 235 237 239 241 243 245 247 249 251 253 
255 253 251 249 247 245 243 241 239 237 235 233 233 233 233 233 233 233 233 233 233 233 233 233 233 233 233 233 233 233 235 237 239 241 243 245 247 249 251 253 
255 253 251 249 247 245 243 241 239 237 235 233 231 231 231 231 231 231 231 231 231 231 231 231 231 231 231 231 231 233 235 237 239 241 243 245 247 249 251 253 
255 253 251 249 247 245 243 241 239 237 235 233 231 229 229 229 229 229 229 229 229 229 229 229 229 229 229 229 231 233 235 237 239 241 243 245 247 249 251 253 
255 253 251 249 247 245 243 241 239 237 235 233 231 229 227 227 227 227 227 227 227 227 227 227 227 227 227 229 231 233 235 237 239 241 243 245 247 249 251 253 
255 253 251 249 247 245 243 241 239 237 235 233 231 229 227 225 225 225 225 225 225 225 225 225 225 225 227 229 231 233 235 237 239 241 243 245 247 249 251 253 
255 253 251 249 247 245 243 241 239 237 235 233 231 229 227 225 223 223 223 223 223 223 223 223 223 225 227 229 231 233 235 237 239 241 243 245 247 249 251 253 
255 253 251 249 247 245 243 241 239 237 235 233 231 229 227 225 223 221 221 221 221 221 221 221 223 225 227 229 231 233 235 237 239 241 243 245 247 249 251 253 
255 253 251 249 247 245 243 241 239 237 235 233 231 229 227 225 223 221 219 219 219 219 219 221 223 225 227 229 231 233 235 237 239 241 243 245 247 249 251 253 
255 253 251 249 247 245 243 241 239 237 235 233 231 229 227 225 223 221 219 217 217 217 219 221 223 225 227 229 231 233 235 237 239 241 243 245 247 249 251 253 
255 253 251 249 247 245 243 241 239 237 235 233 231 229 227 225 223 221 219 217 215 217 219 221 223 225 227 229 231 233 235 237 239 241 243 245 247 249 251 253 
255 253 251 249 247 245 243 241 239 237 235 233 231 229 227 225 223 221 219 217 217 217 219 221 223 225 227 229 231 233 235 237 239 241 243 245 247 249 251 253 
255 253 251 249 247 245 243 241 239 237 235 233 231 229 227 225 223 221 219 219 219 219 219 221 223 225 227 229 231 233 235 237 239 241 243 245 247 249 251 253 
255 253 251 249 247 245 243 241 239 237 235 233 231 229 227 225 223 221 221 221 221 221 221 221 223 225 227 229 231 233 235 237 239 241 243 245 247 249 251 253 
255 253 251 249 247 245 243 241 239 237 235 233 231 229 227 225 223 223 223 223 223 223 223 223 223 225 227 229 231 233 235 237 239 241 243 245 247 249 251 253 
255 253 251 249 247 245 243 241 239 237 235 233 231 229 227 225 225 225 225 225 225 225 225 225 225 225 227 229 231 233 235 237 239 241 243 245 247 249 251 253 
255 253 251 249 247 245 243 241 239 237 235 233 231 229 227 227 227 227 227 227 227 227 227 227 227 227 227 229 231 233 235 237 239 241 243 245 247 249 251 253 
255 253 251 249 247 245 243 241 239 237 235 233 231 229 229 229 229 229 229 229 229 229 229 229 229 229 229 229 231 233 235 237 239 241 243 245 247 249 251 253 
255 253 251 249 247 245 243 241 239 237 235 233 231 231 231 231 231 231 231 231 231 231 231 231 231 231 231 231 231 233 235 237 239 241 243 245 247 249 251 253 
255 253 251 249 247 245 243 241 239 237 235 233 233 233 233 233 233 233 233 233 233 233 233 233 233 233 233 233 233 233 235 237 239 241 243 245 247 249 251 253 
255 253 251 249 247 245 243 241 239 237 235 235 235 235 235 235 235 235 235 235 235 235 235 235 235 235 235 235 235 235 235 237 239 241 243 245 247 249 251 253 
255 253 251 249 247 245 243 241 239 237 237 237 237 237 237 237 237 237 237 237 237 237 237 237 237 237 237 237 237 237 237 237 239 241 243 245 247 249 251 253 
255 253 251 249 247 245 243 241 239 239 239 239 239 239 239 239 239 239 239 239 239 239 239 239 239 239 239 239 239 239 239 239 239 241 243 245 247 249 251 253 
255 253 251 249 247 245 243 241 241 241 241 241 241 241 241 241 241 241 241 241 241 241 241 241 241 241 241 241 241 241 241 241 241 241 243 245 247 249 251 253 
255 253 251 249 247 245 243 243 243 243 243 243 243 243 243 243 243 243 243 243 243 243 243 243 243 243 243 243 243 243 243 243 243 243 243 245 247 249 251 253 
255 253 251 249 247 245 245 245 245 245 245 245 245 245 245 245 245 245 245 245 245 245 245 245 245 245 245 245 245 245 245 245 245 245 245 245 247 249 251 253 
255 253 251 249 247 247 247 247 247 247 247 247 247 247 247 247 247 247 247 247 247 247 247 247 247 247 247 247 247 247 247 247 247 247 247 247 247 249 251 253 
255 253 251 249 249 249 249 249 249 249 249 249 249 249 249 249 249 249 249 249 249 249 249 249 249 249 249 249 249 249 249 249 249 249 249 249 249 249 251 253 
255 253 251 251 251 251 251 251 251 251 251 251 251 251 251 251 251 251 251 251 251 251 251 251 251 251 251 251 251 251 251 251 251 251 251 251 251 251 251 253 
255 253 253 253 253 253 253 253 253 253 253 253 253 253 253 253 253 253 253 253 253 253 253 253 253 253 253 253 253 253 253 253 253 253 253 253 253 253 253 253 
