P2
# Created by Paint Shop Pro 7
40 60
255
245 218 223 165 199 252 252 251 255 255 255 254 248 155 143 129 153 215 
251 217 189 203 248 245 250 243 231 201 156 145 143 124 130 111 87 77 94 
87 62 68 204 178 145 191 245 254 255 253 254 253 254 253 239 192 134 132 
142 195 232 195 180 202 247 238 232 174 182 163 164 146 142 119 98 94 75 
63 58 55 82 77 155 181 241 252 253 255 254 255 255 255 254 254 241 205 
137 154 145 199 227 168 180 146 141 140 167 200 240 165 154 162 112 106 
104 109 68 38 40 71 61 36 172 254 255 255 255 255 254 248 252 252 223 237 
241 211 134 169 136 196 207 175 89 72 76 85 102 113 181 166 181 167 112 
98 79 82 95 72 70 41 59 36 213 254 255 255 254 240 195 160 128 107 93 102 
120 154 138 176 145 196 232 104 67 56 55 58 64 82 85 152 173 136 85 89 
76 93 81 89 64 44 67 73 191 246 249 255 231 84 63 57 55 54 55 56 59 85 
98 125 126 166 230 72 57 54 48 52 61 62 71 123 181 139 78 71 63 62 70 80 
88 87 99 76 157 200 231 242 181 69 53 46 42 46 50 60 52 48 69 91 116 168 
215 62 52 44 40 49 53 62 65 87 165 92 66 57 52 60 69 75 83 81 71 69 123 
154 177 186 158 63 50 44 37 39 50 52 37 33 38 72 97 164 193 49 31 31 45 
49 53 54 61 77 137 66 60 52 54 62 68 75 72 77 74 56 126 149 188 186 166 
62 43 29 30 38 45 46 40 38 33 39 79 159 186 41 38 26 24 43 47 46 28 91 
101 60 60 53 51 61 68 78 70 63 74 69 133 147 211 181 192 57 41 54 52 56 
63 46 39 34 35 38 51 131 152 50 58 49 52 29 32 55 48 136 74 62 59 53 56 
58 66 79 75 57 66 132 133 154 161 157 233 62 84 72 72 72 81 76 53 36 36 
34 37 100 136 41 25 37 43 61 61 44 38 110 69 60 55 55 58 57 71 71 61 62 
65 88 74 105 96 138 208 80 93 71 83 78 78 76 77 62 36 32 30 77 117 46 62 
46 39 59 45 37 30 121 60 65 66 56 57 67 64 71 69 73 71 66 26 42 62 100 
150 88 75 73 79 82 79 83 87 79 32 27 39 70 99 53 62 63 41 39 46 74 60 132 
57 52 57 60 56 63 65 61 41 45 71 67 7 10 11 13 46 54 30 31 70 44 21 24 
34 65 29 29 25 77 89 55 63 53 46 65 41 54 53 167 43 21 24 36 53 40 33 19 
22 17 51 92 7 7 38 14 12 42 37 34 79 68 40 67 71 58 14 31 22 107 109 58 
46 46 57 71 46 45 69 150 40 35 41 23 24 48 33 63 69 60 55 71 13 11 14 12 
9 37 53 62 70 78 50 36 43 62 15 26 40 124 94 50 43 40 63 59 47 45 65 115 
47 53 40 25 45 71 44 30 38 44 76 93 28 29 34 32 22 47 65 25 10 14 57 81 
92 65 27 31 42 151 108 45 39 30 28 31 32 31 66 85 48 18 16 33 53 65 69 
46 49 74 76 46 5 6 6 14 21 39 52 68 70 81 48 62 73 57 31 39 73 159 107 
41 21 60 54 47 54 12 70 63 54 63 61 42 56 64 71 69 76 66 62 62 57 33 21 
6 5 15 29 51 49 57 50 47 71 42 38 50 102 158 131 32 83 76 73 72 79 35 53 
78 55 64 53 40 57 62 73 65 69 63 49 37 22 25 14 6 5 19 42 50 49 50 60 48 
49 36 39 58 125 152 136 88 52 63 72 76 69 57 54 92 48 52 45 34 33 30 44 
47 61 59 57 48 92 86 63 46 14 27 64 38 24 35 57 52 34 37 41 76 118 150 
128 59 20 21 26 31 15 54 77 69 50 44 42 19 13 14 24 53 50 73 75 68 88 84 
100 110 74 72 71 51 37 28 29 36 27 32 35 80 121 140 128 41 46 35 32 41 
32 40 77 83 46 44 31 54 54 55 64 72 45 66 71 45 75 79 109 99 86 93 105 
34 11 13 37 45 15 8 12 85 117 127 126 54 49 45 28 41 44 42 70 71 53 43 
46 66 78 77 70 84 65 57 62 45 81 75 106 110 86 82 89 53 34 46 66 71 63 
68 60 104 114 124 145 62 59 36 52 55 54 61 54 46 60 37 52 55 72 79 83 76 
74 45 57 51 97 70 80 108 92 85 90 72 65 56 77 81 96 154 102 110 113 122 
119 38 46 58 47 59 67 54 59 43 41 41 35 16 18 23 23 34 77 52 70 63 111 
85 87 107 104 80 86 83 69 66 80 87 87 123 86 100 100 117 126 65 28 47 51 
57 52 62 41 47 59 27 56 51 47 37 45 68 65 49 53 52 118 140 110 132 104 
72 76 71 73 69 77 88 79 111 111 100 115 114 131 70 58 16 19 31 50 61 103 
93 60 34 33 59 79 85 80 63 62 57 83 69 108 131 109 119 99 72 69 60 69 74 
77 83 76 105 117 84 87 102 123 78 63 34 47 32 61 81 125 114 74 48 33 16 
16 24 26 45 75 60 124 65 137 134 127 141 114 68 68 53 54 71 77 83 76 89 
115 86 92 109 106 57 50 40 55 35 51 79 132 121 92 50 51 44 39 35 47 68 
88 70 121 81 173 174 178 174 105 71 64 50 45 65 76 93 66 77 119 116 100 
112 116 82 42 40 64 39 57 77 122 139 82 49 57 66 67 68 72 75 80 73 129 
112 68 66 75 89 107 61 54 33 38 64 81 82 60 77 111 107 100 107 104 76 75 
57 65 59 69 84 125 167 109 40 51 66 75 80 78 78 75 99 127 122 60 73 98 
92 96 60 40 29 29 64 86 79 52 82 123 131 94 107 93 58 67 64 57 61 64 88 
121 149 126 40 49 60 71 73 78 66 67 90 124 95 126 136 127 120 108 51 38 
18 23 75 88 62 57 86 122 122 122 115 91 53 61 60 49 66 57 121 164 162 129 
42 45 53 61 71 70 61 60 95 112 115 128 137 129 129 126 35 15 7 16 67 83 
35 65 92 114 122 116 115 86 60 65 56 45 64 63 151 154 149 159 58 54 52 
66 74 63 60 62 131 147 147 132 135 137 150 160 36 25 18 17 27 32 34 60 
90 129 136 129 115 78 55 56 50 41 61 66 133 151 166 186 126 58 58 59 64 
63 54 69 135 147 117 162 171 160 164 169 57 71 56 49 35 45 40 65 87 163 
157 158 146 98 44 45 32 36 50 65 99 104 128 121 125 33 46 55 52 62 45 89 
94 115 119 139 162 167 156 112 68 74 70 68 77 70 44 76 98 186 187 173 183 
90 41 38 40 30 37 65 151 126 118 125 100 34 11 11 9 20 46 80 100 120 129 
108 110 125 130 137 77 70 66 65 72 73 48 76 98 159 165 168 163 63 49 43 
40 51 62 57 128 142 131 136 85 55 48 44 43 51 61 99 91 110 123 150 161 
185 195 161 81 61 60 66 72 69 53 73 116 182 171 166 178 84 41 40 41 52 
59 56 110 118 120 100 59 47 59 60 60 64 68 92 132 113 85 112 139 164 153 
161 100 53 67 78 70 71 48 85 136 195 208 216 217 122 40 34 29 32 24 70 
99 108 113 85 68 53 48 57 49 47 58 56 99 105 82 116 114 129 125 141 94 
48 57 76 77 64 55 88 171 217 214 202 200 76 73 64 57 58 67 85 93 107 87 
94 41 45 51 54 51 62 57 66 53 70 65 121 119 122 126 129 80 62 65 75 92 
64 59 90 159 175 204 200 195 70 62 59 61 68 68 114 154 122 111 102 38 41 
39 62 53 38 32 54 45 49 38 128 131 138 127 127 94 67 70 79 89 65 55 92 
155 175 190 210 165 70 68 48 50 55 62 119 189 172 161 120 36 42 25 27 27 
53 48 60 101 79 90 177 173 180 188 202 159 77 79 83 69 62 54 91 162 169 
153 160 115 59 52 50 51 61 70 107 175 180 179 129 44 39 52 55 37 29 50 
72 165 153 139 175 185 192 198 206 180 69 76 70 61 61 53 91 211 221 221 
206 131 57 48 47 53 60 65 106 155 153 158 108 31 31 48 49 53 33 41 84 151 
148 136 177 182 182 186 187 151 58 74 68 63 59 57 94 218 214 197 210 148 
46 50 53 42 59 67 138 218 221 220 129 30 36 30 28 37 30 31 86 132 124 118 
143 154 160 169 168 155 52 70 64 55 52 68 98 207 202 218 220 175 50 46 
46 50 62 67 159 226 222 222 131 39 62 57 58 63 46 31 105 148 144 135 149 
153 151 152 150 147 52 78 63 54 54 66 90 172 182 189 192 160 58 57 52 50 
71 57 182 229 223 222 140 59 63 55 54 58 63 56 127 157 152 137 164 164 
167 168 173 168 57 70 62 57 62 50 86 158 149 166 153 134 54 55 50 47 52 
65 176 195 208 203 144 46 40 54 49 48 48 61 190 195 191 169 148 145 149 
165 177 176 93 64 77 74 70 41 89 173 179 163 169 139 64 53 63 66 67 76 
161 169 157 156 104 54 44 30 31 38 55 79 178 182 173 165 160 150 139 132 
141 160 81 60 84 86 59 61 110 182 184 176 162 109 63 50 59 75 70 86 162 
139 163 166 131 43 54 59 56 58 55 66 136 140 138 128 156 152 154 160 161 
148 63 58 83 94 96 91 129 172 201 172 178 114 52 60 62 57 53 100 169 170 
170 167 147 44 34 47 52 49 42 76 159 145 142 135 170 167 147 170 158 133 
62 63 78 92 100 84 134 172 161 165 161 92 43 38 41 51 49 137 165 158 159 
177 179 55 40 33 34 42 55 82 150 151 146 155 138 126 132 147 154 153 68 
68 68 84 83 98 133 162 149 145 134 91 55 79 84 85 112 139 163 158 160 166 
164 41 34 52 40 63 43 77 165 182 163 133 140 158 146 164 147 143 78 70 
80 84 85 100 127 158 147 147 145 173 159 133 130 153 156 148 179 159 171 
149 127 49 34 39 22 49 56 78 164 165 185 153 149 144 152 143 161 138 84 
56 72 75 82 104 123 155 152 168 161 159 153 136 149 164 159 172 157 165 
172 137 121 46 47 34 39 48 59 80 169 170 150 155 146 138 128 126 107 99 
88 53 67 71 77 92 127 151 146 146 151 145 156 144 167 147 160 160 154 144 
143 135 119 50 45 44 48 51 55 75 174 165 155 151 150 154 154 154 134 114 
79 50 63 69 78 96 97 134 133 160 173 158 179 151 147 172 164 170 160 150 
150 141 135 135 125 92 53 68 96 105 154 170 167 166 149 158 148 145 132 
137 123 73 78 83 101 147 146 154 151 164 160 162 149 169 163 173 187 156 
164 175 156 148 142 143 145 151 139 150 140 173 168 158 163 174 136 149 
133 135 154 143 163 140 149 143 149 158 149 180 171 182 178 163 170 168 
157 169 173 179 161 157 159 164 185 168 155 182 146 165 136 142 152 137 
146 151 
