P2
# Created by Paint Shop Pro 7
20 30
255
211 181 237 252 254 254 208 134 176 223 193 244 224 194 152 132 108 75 
73 72 190 250 254 252 253 242 224 148 169 194 121 110 145 188 166 107 93 
68 55 48 226 253 202 118 86 76 104 134 158 159 58 53 67 107 157 80 73 80 
70 78 158 209 117 48 41 53 42 67 136 129 39 45 55 72 115 58 57 71 78 67 
138 191 119 41 44 50 37 36 105 107 42 37 45 75 74 56 56 72 66 85 116 138 
145 80 76 77 57 34 61 85 42 50 46 74 63 58 59 69 66 72 21 46 84 52 68 51 
66 29 52 74 60 47 53 103 43 44 53 44 31 70 9 19 25 46 73 48 58 21 73 77 
43 62 45 99 43 32 47 42 52 73 17 21 32 52 43 62 71 32 106 75 37 40 32 71 
45 38 59 63 66 61 34 11 11 43 51 51 49 46 134 96 68 73 60 69 54 43 45 57 
63 47 87 79 46 56 31 43 32 58 132 89 30 32 35 76 46 36 34 53 58 64 77 106 
86 70 26 54 38 65 120 96 47 44 50 60 48 54 76 78 60 53 90 95 90 82 64 81 
115 99 113 87 44 53 58 47 42 39 31 42 60 59 124 117 86 69 71 81 92 103 
104 100 42 32 63 108 54 35 51 53 63 85 154 155 89 58 58 82 77 109 103 90 
43 48 66 128 68 54 52 65 77 110 66 88 81 39 48 82 67 118 102 82 65 60 76 
140 78 56 74 75 82 117 131 126 80 19 45 67 75 120 117 72 60 56 98 157 97 
51 68 63 87 130 150 152 105 42 32 37 75 146 137 68 45 47 90 137 139 48 
57 56 96 124 129 144 98 70 70 58 87 174 171 60 40 45 100 129 111 37 26 
44 92 120 140 174 125 60 71 60 102 189 194 71 36 41 83 114 78 51 56 59 
94 96 117 125 111 58 80 60 127 202 199 70 60 65 111 106 68 44 55 47 54 
55 152 158 145 73 80 59 125 171 162 62 49 62 147 173 82 39 36 45 99 115 
179 189 181 69 65 57 153 213 173 50 48 62 154 188 74 36 41 33 113 131 149 
158 155 63 59 60 141 197 186 52 49 64 199 222 92 59 58 49 134 142 155 162 
173 71 67 55 126 164 148 56 56 65 175 181 87 42 41 60 186 174 154 146 152 
65 86 76 148 183 140 56 63 77 160 166 91 48 53 59 145 135 150 149 149 65 
80 91 150 155 119 53 65 109 161 165 109 39 44 64 162 149 147 151 147 72 
77 92 140 153 159 145 149 158 165 157 85 38 39 68 167 160 147 140 113 67 
67 85 127 146 156 157 158 163 152 142 109 76 55 82 165 159 148 140 141 
124 113 138 157 167 165 164 165 173 164 156 159 158 150 147 153 158 
