P2
#output from hocrtest
70 70
255
247 244 251 247 253 255 255 251 254 253 254 255 255 255 255 254 250 254 246 
234 246 247 238 252 249 251 248 240 248 252 250 246 250 255 254 255 255 254 
252 249 241 244 247 251 252 252 249 248 247 240 245 255 255 246 244 255 255 
255 254 243 255 252 246 242 248 248 231 238 241 246 247 247 251 250 253 255 
254 252 252 251 251 253 255 255 255 254 252 253 251 247 250 250 247 251 250 
249 246 242 247 248 247 246 249 254 254 254 253 251 250 247 245 245 249 251 
251 251 249 249 249 248 251 255 255 253 251 255 255 253 254 252 255 251 246 
245 245 243 234 236 236 233 252 251 255 254 255 253 253 253 250 247 248 251 
252 254 255 255 254 253 251 248 247 249 249 247 244 241 242 243 245 245 247 
243 245 246 247 250 250 250 250 248 245 242 245 247 246 244 247 248 248 249 
252 253 255 254 254 255 252 250 252 250 250 250 247 243 240 241 240 243 245 
250 254 253 255 255 255 254 252 251 250 250 251 249 253 254 254 253 251 249 
246 245 247 244 245 241 238 238 241 241 243 247 253 248 246 244 244 246 245 
243 242 243 244 242 246 246 245 243 246 248 249 252 254 253 254 254 255 255 
254 251 249 248 248 248 246 242 239 240 241 242 240 242 255 255 255 255 255 
251 248 244 247 248 250 249 252 252 251 251 250 250 247 246 248 246 246 245 
243 242 242 241 241 243 245 244 246 247 246 243 241 239 244 245 244 246 246 
248 244 243 244 245 246 250 252 251 253 254 251 253 250 249 248 245 246 246 
243 235 232 233 235 236 235 236 252 254 255 255 252 246 244 242 242 244 244 
249 250 251 250 251 252 250 250 248 246 242 240 240 240 242 243 241 239 239 
241 240 243 248 247 247 247 249 251 249 250 247 244 243 240 240 240 237 238 
242 246 248 252 253 248 247 245 245 244 244 245 246 243 239 234 237 237 238 
241 244 253 254 255 255 252 249 243 241 240 244 247 248 250 247 246 246 246 
247 247 247 246 241 238 240 240 241 241 241 239 239 238 240 243 243 241 246 
250 250 250 249 248 246 245 241 240 237 238 237 235 239 244 245 247 248 245 
242 242 242 241 240 242 240 243 240 238 237 239 240 246 247 255 255 255 255 
248 244 241 237 236 237 239 243 241 237 234 238 240 239 240 241 239 235 237 
238 235 236 235 236 234 236 234 238 239 237 238 243 248 250 247 245 241 239 
236 233 237 238 238 237 236 235 240 244 244 242 241 233 235 240 239 239 243 
244 242 241 239 239 243 247 247 251 254 253 251 249 245 239 234 235 236 236 
239 241 241 239 240 241 241 241 242 242 236 233 234 238 240 238 237 238 238 
238 237 237 234 230 232 232 235 237 238 233 229 231 231 232 235 235 237 236 
237 237 240 241 240 238 235 232 235 237 238 237 239 241 242 244 243 244 246 
245 246 245 255 255 254 249 242 237 232 230 233 234 237 240 243 245 244 240 
236 236 236 238 237 237 233 232 236 238 237 238 237 235 234 232 228 228 230 
233 239 239 238 235 230 229 227 227 228 229 230 229 233 238 241 239 237 235 
237 237 237 237 237 238 239 236 236 239 242 244 245 247 249 251 255 254 253 
250 245 242 237 232 233 235 232 236 241 241 245 240 234 232 230 230 236 241 
236 233 234 237 238 236 235 233 235 231 229 233 237 243 246 243 240 234 229 
229 225 226 229 230 232 233 233 236 238 238 239 238 239 240 239 238 238 236 
237 234 235 236 241 246 248 247 247 248 247 248 249 248 243 243 241 240 239 
238 236 235 238 239 238 233 229 229 228 229 235 234 231 226 227 228 229 229 
228 232 236 237 233 234 240 246 243 243 241 234 230 228 225 225 229 229 228 
228 227 231 231 234 236 235 242 243 241 238 237 236 235 236 238 237 239 244 
245 244 247 246 250 250 251 248 246 247 244 241 239 237 236 235 234 234 236 
233 231 226 222 220 222 226 225 222 224 225 223 223 225 227 233 235 236 236 
235 236 236 237 236 233 230 226 225 226 228 231 228 224 224 230 229 232 235 
235 233 235 234 232 230 229 233 233 233 234 239 245 248 252 251 251 251 250 
248 248 244 244 245 245 243 244 239 236 231 233 236 237 233 227 223 219 217 
220 220 223 222 222 221 219 223 227 229 233 234 235 236 236 234 233 232 233 
230 226 225 226 225 225 224 224 226 230 229 230 231 232 229 227 227 230 228 
229 229 229 232 236 240 244 246 248 247 245 251 251 251 250 247 245 247 248 
244 243 239 235 231 232 232 232 230 224 224 221 218 219 221 224 223 223 220 
219 222 225 224 230 231 231 229 230 231 230 230 230 224 224 221 223 227 228 
227 226 228 230 231 231 229 229 226 222 221 224 226 231 231 229 231 235 238 
242 243 244 246 245 250 251 250 250 249 248 247 245 244 244 238 237 232 229 
228 226 224 223 221 222 220 220 223 224 220 221 219 219 220 225 229 233 234 
229 226 226 227 222 222 222 220 221 220 220 224 224 221 223 224 222 225 228 
226 229 228 221 220 222 223 227 231 230 231 233 233 242 240 238 237 238 253 
252 252 251 250 251 249 246 243 241 235 232 226 225 221 221 220 218 217 218 
218 217 223 227 229 223 223 221 221 224 224 229 230 228 227 225 222 221 224 
225 220 219 220 223 223 223 225 224 222 220 220 226 227 232 230 217 219 223 
227 233 235 230 230 230 236 243 245 244 243 242 253 254 253 253 252 252 252 
245 242 238 232 231 232 233 228 225 224 217 215 216 214 218 222 230 228 223 
220 217 218 220 222 222 224 228 230 233 235 230 226 223 218 210 214 219 219 
221 221 221 220 220 216 217 220 226 226 216 218 220 229 232 235 234 234 236 
239 242 247 246 246 247 255 255 255 254 253 252 249 243 241 241 240 239 236 
236 232 227 224 219 216 218 218 221 222 228 226 221 219 216 216 213 214 217 
218 220 222 232 229 226 227 220 216 212 213 217 216 215 217 217 215 216 214 
215 218 222 223 221 220 221 229 231 235 238 239 241 243 247 250 250 251 252 
255 255 254 252 252 249 248 246 245 243 243 242 236 233 226 225 220 215 214 
215 217 219 223 229 228 225 225 222 220 218 219 216 215 215 220 222 224 221 
220 218 216 213 214 214 211 212 213 213 213 211 214 214 215 219 220 220 222 
222 225 233 237 238 240 242 244 247 249 255 253 254 254 255 255 251 246 242 
238 239 241 240 240 238 233 229 226 223 220 218 217 213 215 217 225 228 227 
221 221 220 215 216 215 214 217 219 221 218 218 217 215 216 212 208 207 207 
207 208 208 210 211 211 214 216 215 217 220 221 222 220 225 231 235 242 244 
243 243 243 244 243 242 242 255 253 254 253 253 249 247 243 239 237 236 237 
235 233 229 224 222 217 216 212 216 220 223 222 221 218 216 214 207 209 210 
210 216 217 217 214 213 211 210 211 212 208 206 205 205 203 207 209 210 210 
213 213 211 214 220 224 225 225 227 233 238 242 241 239 240 238 238 239 238 
237 254 254 255 255 255 249 248 242 237 236 237 237 231 230 227 223 216 215 
216 217 217 220 217 216 213 213 213 211 204 204 206 208 212 213 216 212 209 
209 209 213 213 210 206 204 202 203 203 203 203 203 207 207 208 213 219 224 
225 227 226 226 231 232 234 234 237 242 246 245 246 245 250 253 255 254 255 
254 248 246 237 234 230 229 229 226 222 220 214 213 214 216 214 213 212 212 
210 210 207 207 205 199 198 203 203 207 213 211 213 213 210 215 218 213 209 
208 207 205 208 209 209 210 212 210 211 214 222 226 225 229 234 233 232 232 
234 236 238 244 249 250 255 255 254 253 254 254 255 253 249 243 235 229 228 
225 225 225 224 221 213 203 208 210 211 210 209 205 200 205 205 202 202 201 
200 202 206 210 214 214 217 216 216 218 219 214 206 208 208 210 212 212 212 
209 208 211 213 214 217 221 224 226 228 233 235 233 233 237 238 242 248 250 
252 252 255 254 255 255 254 252 250 247 242 237 237 235 235 235 230 227 211 
200 204 205 210 213 210 204 204 203 202 202 202 197 195 194 197 203 208 210 
213 214 219 218 214 211 207 209 211 214 216 217 213 212 212 213 217 219 220 
226 228 228 230 234 235 238 241 243 244 243 246 249 252 252 254 253 253 253 
252 250 249 247 244 241 241 240 240 238 234 225 218 209 209 208 207 209 211 
211 211 209 203 204 203 197 198 196 197 201 210 211 207 211 213 212 213 212 
212 215 215 214 214 218 219 215 217 221 225 225 229 230 230 230 230 232 231 
237 242 245 246 247 248 250 253 254 254 253 251 250 251 252 249 247 244 244 
242 239 237 237 234 226 220 208 206 213 209 209 210 208 211 210 207 202 198 
195 196 196 197 203 204 204 203 205 209 207 208 209 209 210 213 212 209 211 
212 211 213 215 218 224 230 229 231 233 235 236 236 237 239 245 247 248 249 
250 250 250 255 254 251 249 247 249 246 244 242 242 244 240 240 241 242 236 
213 206 204 205 208 212 213 214 211 211 211 197 190 186 188 186 192 196 196 
198 199 199 202 205 205 204 206 207 208 209 207 210 212 213 214 217 218 222 
226 227 227 230 233 233 237 243 246 248 247 251 253 255 253 254 255 254 251 
251 251 249 244 241 238 233 236 235 233 235 237 234 222 219 215 212 212 210 
209 208 204 203 204 193 191 186 185 190 190 193 195 195 195 195 199 199 200 
199 201 198 200 206 211 216 221 221 220 222 221 220 221 224 226 230 234 238 
241 245 246 249 249 251 253 253 254 254 253 254 254 251 248 247 244 241 234 
230 233 231 231 235 234 231 227 221 219 211 207 205 206 206 207 206 204 195 
193 189 189 193 191 191 192 193 196 195 199 199 200 201 204 199 203 209 212 
221 226 222 220 222 220 218 219 223 224 226 232 235 242 243 241 244 246 250 
252 253 255 255 247 247 247 245 241 242 239 237 232 233 237 237 235 233 233 
237 232 228 228 224 214 210 207 207 208 207 201 197 193 194 192 193 188 190 
191 193 194 195 198 198 199 198 199 202 207 210 208 210 213 214 217 220 219 
218 217 221 226 228 232 233 239 244 245 247 250 251 254 254 255 255 250 251 
247 242 239 242 240 237 232 232 236 236 235 232 235 236 229 223 225 219 215 
212 208 207 203 204 202 193 191 191 194 194 191 190 191 191 189 192 196 196 
197 197 197 198 200 204 204 199 202 205 212 212 210 210 216 226 229 233 232 
234 240 244 247 245 251 250 253 254 254 253 249 250 247 244 240 238 235 231 
228 228 228 230 230 229 231 232 229 221 215 213 211 211 210 211 209 209 205 
200 197 189 191 193 192 192 189 190 188 186 185 187 192 194 197 199 200 202 
203 199 201 206 208 206 203 205 210 220 226 235 234 237 239 240 241 244 247 
250 252 253 255 255 254 253 252 248 243 238 235 233 229 231 233 228 228 231 
230 229 230 225 220 215 211 211 210 209 210 208 207 207 201 198 195 192 190 
189 191 192 190 188 188 194 197 198 196 197 196 199 201 198 197 201 203 204 
203 207 209 221 227 230 233 238 241 241 241 243 247 249 250 249 251 251 252 
252 252 248 247 241 236 232 230 232 233 230 231 227 225 226 227 226 220 215 
205 202 206 208 212 210 208 204 200 199 195 195 194 189 190 195 196 194 195 
202 201 201 199 201 200 202 203 204 203 204 202 205 206 212 213 221 228 234 
238 244 243 244 243 244 246 245 247 248 248 248 249 248 246 244 244 242 238 
235 232 233 233 230 230 227 225 226 223 220 219 213 207 204 205 207 212 214 
210 203 199 199 198 196 195 191 191 194 195 195 195 197 199 199 197 201 203 
205 207 207 206 206 207 211 214 216 221 230 235 237 235 238 240 243 241 239 
240 244 245 244 242 244 247 246 246 243 243 241 242 242 238 238 234 230 232 
230 227 224 219 216 212 210 207 205 204 209 211 210 203 200 196 195 196 196 
192 191 191 191 189 191 191 190 191 192 196 201 206 209 209 207 207 207 208 
214 218 224 227 238 239 239 238 236 233 233 235 234 237 243 243 241 241 243 
246 242 241 240 238 238 240 245 243 243 238 234 232 229 225 224 220 216 216 
215 213 212 212 206 203 202 196 194 192 192 193 195 197 196 194 196 197 197 
192 190 191 183 191 197 200 204 204 211 210 210 213 218 221 223 227 233 236 
236 236 231 231 232 234 235 239 243 246 243 244 246 250 247 239 234 236 236 
238 245 245 242 237 234 234 232 228 226 219 217 217 216 216 218 214 210 207 
204 195 194 191 187 187 189 195 195 200 202 203 201 196 193 193 192 197 200 
200 201 204 210 212 212 217 222 225 227 228 234 236 235 230 228 230 234 241 
245 247 248 245 245 248 248 252 247 242 240 240 242 241 243 242 240 239 237 
234 232 230 229 223 219 218 215 213 214 214 210 204 203 197 192 187 185 184 
185 188 199 204 201 197 196 192 192 193 192 195 203 208 214 219 219 212 209 
214 218 219 222 223 228 232 232 230 230 234 238 243 247 250 255 251 249 253 
253 252 249 245 241 239 243 243 244 243 241 240 242 241 240 236 231 227 222 
219 212 208 208 209 208 205 205 203 199 195 192 190 188 192 199 201 199 196 
195 195 192 192 195 199 205 214 217 216 216 212 211 214 213 215 217 218 223 
228 229 229 229 232 239 242 245 249 251 255 255 255 255 250 247 244 243 242 
242 241 241 241 239 237 235 235 235 233 230 226 221 213 206 205 204 204 204 
204 203 202 201 194 192 196 200 204 205 206 203 199 197 199 198 199 200 202 
203 212 216 217 215 216 217 217 219 222 218 221 225 227 229 229 230 233 238 
243 246 248 251 250 252 253 253 252 251 250 246 246 243 242 238 238 235 230 
232 230 229 229 225 225 222 218 209 206 204 208 210 208 204 203 200 195 195 
198 199 199 199 202 201 203 201 205 206 203 197 198 197 205 210 215 213 217 
218 221 219 220 217 217 219 221 227 228 231 232 233 236 238 241 244 249 251 
249 249 253 254 250 248 245 243 242 236 242 240 236 233 226 224 221 216 214 
215 215 212 208 209 210 209 212 211 209 205 205 207 206 206 206 202 199 197 
199 201 202 202 202 201 200 197 202 208 208 209 211 212 216 216 219 217 219 
221 224 227 228 229 230 233 233 235 239 246 252 252 251 253 255 254 252 250 
247 245 241 238 236 235 234 231 227 226 221 220 219 220 222 220 212 210 208 
209 213 214 212 210 210 209 209 211 207 204 200 200 199 203 203 202 203 202 
204 205 207 209 209 208 210 214 216 216 217 215 217 223 226 225 227 227 230 
232 236 234 237 244 248 250 244 240 253 251 251 253 251 250 245 239 235 228 
228 224 221 224 221 221 222 223 222 223 217 213 211 212 212 215 216 214 211 
213 208 208 203 202 202 201 202 207 204 208 205 204 202 205 208 209 210 210 
208 211 212 215 219 223 225 230 230 228 226 227 227 233 239 239 243 250 251 
250 245 246 251 250 247 245 242 241 241 239 235 230 227 222 219 224 224 225 
220 225 223 219 217 215 210 208 208 213 219 221 219 214 205 203 203 205 207 
206 208 213 214 208 204 207 209 211 215 216 216 215 212 214 211 215 219 221 
226 229 228 228 229 227 229 235 236 241 243 250 249 247 243 240 254 254 254 
250 247 245 244 241 237 230 224 222 222 224 228 228 222 224 221 216 216 216 
215 213 215 220 223 224 218 213 210 208 205 206 210 211 216 221 219 215 212 
213 214 218 218 218 215 216 220 217 214 216 216 214 219 222 228 232 234 232 
234 236 237 241 242 245 246 247 250 252 255 255 255 252 250 246 244 241 237 
233 231 231 236 234 232 229 225 220 219 216 217 218 215 216 218 221 224 225 
220 218 211 209 205 203 209 213 217 222 221 217 212 213 214 216 218 219 218 
219 219 215 214 215 216 217 221 225 230 230 233 234 234 236 238 239 239 239 
242 248 251 254 255 255 254 251 248 246 243 241 240 241 239 236 235 235 232 
232 226 219 216 215 216 218 212 215 222 224 225 225 221 219 212 212 208 208 
211 212 214 219 219 219 217 219 220 221 221 219 219 217 218 217 217 218 221 
222 224 228 229 231 233 234 236 241 243 242 244 244 247 249 252 255 255 255 
253 250 248 245 239 239 239 240 241 238 237 236 234 236 234 230 221 217 215 
215 215 219 223 226 230 229 224 220 216 218 216 216 215 218 220 222 222 223 
222 224 221 221 219 217 220 218 216 213 211 209 212 216 220 224 227 228 231 
233 237 240 241 242 247 244 244 244 245 247 253 253 251 246 249 247 245 240 
233 237 236 233 236 234 233 235 237 231 222 218 215 214 217 221 223 225 226 
225 222 221 218 220 220 222 223 219 218 221 224 225 224 227 227 226 223 222 
224 223 219 215 210 209 210 212 213 216 219 224 224 226 234 237 239 243 244 
245 245 246 245 247 249 249 248 246 250 248 243 243 242 241 239 237 234 234 
236 234 233 228 224 220 217 218 218 220 224 225 224 220 217 219 218 224 226 
228 224 222 218 220 223 224 226 229 228 228 224 219 219 219 220 217 214 209 
210 213 213 214 213 220 224 226 230 230 233 235 242 243 243 243 240 240 246 
247 245 246 248 247 244 243 241 240 239 236 231 232 233 232 230 230 230 228 
226 226 224 223 220 221 219 219 212 214 220 224 226 230 228 228 229 225 225 
225 224 224 227 226 224 223 223 225 225 222 218 213 216 218 220 221 220 223 
223 224 224 223 227 237 244 247 246 245 244 243 244 243 241 239 239 237 237 
235 233 234 232 229 228 225 227 227 229 230 230 228 228 228 222 220 217 215 
211 213 209 215 223 226 228 228 224 223 227 227 228 227 226 225 228 229 228 
228 224 223 222 221 224 223 223 223 224 222 222 225 225 222 223 230 232 240 
245 244 245 246 245 245 237 239 240 236 237 237 235 233 233 228 225 221 221 
221 223 226 237 236 236 235 234 231 223 220 218 220 219 223 223 223 225 227 
228 226 224 224 227 228 228 228 228 229 229 228 229 229 223 223 221 221 224 
226 227 222 226 224 224 228 230 229 233 239 245 245 244 244 243 244 245 244 
245 246 247 247 246 241 237 233 231 230 226 226 220 215 223 230 236 237 235 
234 233 231 222 217 216 213 217 225 226 229 228 236 236 233 230 229 231 232 
228 228 228 230 231 231 233 231 227 228 226 226 227 225 226 222 228 227 231 
234 237 237 233 235 242 242 243 243 241 241 243 244 251 253 255 254 250 244 
240 235 234 238 238 235 234 234 237 237 235 233 234 231 234 234 226 225 224 
224 227 230 233 236 233 236 233 231 230 231 230 230 228 225 225 228 228 228 
229 230 229 231 229 230 226 223 224 225 229 228 228 231 231 234 232 231 231 
236 239 241 243 241 241 241 249 252 254 253 249 245 242 239 242 246 247 243 
241 240 243 241 233 235 233 234 236 234 231 229 228 229 233 235 236 237 232 
229 231 231 232 234 231 231 229 228 227 231 230 231 230 229 230 235 236 233 
231 229 230 229 233 232 228 226 222 219 219 224 227 233 239 242 244 242 240 
236 248 249 251 250 247 244 241 239 237 242 245 247 246 248 244 239 235 229 
229 231 231 233 232 229 228 227 231 234 234 232 230 226 228 230 233 234 235 
235 233 231 235 241 242 239 239 232 233 236 239 235 232 228 229 231 232 230 
225 224 221 220 219 225 227 227 232 239 242 246 247 247 253 254 251 253 250 
245 242 241 242 245 249 251 248 245 241 238 235 235 231 233 232 231 233 232 
230 231 232 232 227 226 227 226 225 228 235 237 235 235 234 233 237 246 252 
248 249 244 240 234 230 226 226 229 232 232 234 233 231 228 227 228 227 228 
230 230 232 239 244 246 247 244 255 255 251 252 247 244 242 241 244 245 250 
248 247 242 238 236 235 236 234 235 235 233 235 234 232 234 234 231 228 226 
230 230 232 226 229 235 236 239 236 237 240 244 245 244 245 243 239 234 234 
232 230 230 233 235 237 235 231 230 230 232 233 235 237 239 242 247 252 253 
254 254 255 255 252 250 246 244 242 240 242 242 248 249 248 243 239 239 243 
244 242 241 240 237 238 236 236 233 232 234 234 237 239 241 236 232 229 234 
237 240 237 236 234 237 236 238 240 241 241 237 238 240 242 243 246 248 247 
244 241 237 234 235 232 237 241 243 246 250 255 255 255 255 255 253 252 251 
249 245 242 239 239 241 244 241 242 241 242 243 246 245 244 243 241 240 241 
236 239 242 245 245 244 246 247 246 246 243 242 240 243 246 246 242 242 244 
245 242 242 242 241 240 242 243 243 249 252 252 250 245 241 239 237 236 237 
237 240 244 246 249 254 254 253 252 254 253 253 252 253 252 249 248 246 247 
247 245 243 242 243 242 245 244 244 244 244 243 245 243 243 243 247 250 251 
249 251 247 248 250 248 244 246 245 248 247 247 247 247 242 242 242 245 245 
241 242 243 250 251 251 248 248 245 244 244 242 238 239 241 244 248 249 252 
253 255 255 253 250 252 253 252 251 247 244 241 244 245 245 242 240 243 242 
244 244 243 241 245 244 246 248 250 251 253 253 253 251 253 252 250 248 247 
245 247 248 247 250 252 251 249 245 243 243 246 247 244 242 242 246 245 244 
244 243 243 244 246 244 239 237 241 244 244 248 249 249 248 250 251 250 253 
253 253 249 245 243 243 245 244 244 243 240 243 242 243 244 245 244 245 246 
249 250 252 253 254 255 255 255 255 254 252 247 245 241 242 242 245 249 250 
250 253 251 249 248 247 249 247 245 245 247 246 243 244 244 246 245 247 247 
244 245 248 248 250 252 252 251 253 253 255 255 255 252 252 250 249 247 244 
246 247 246 243 240 241 240 243 247 249 249 249 248 250 250 249 251 253 253 
255 255 254 252 247 245 245 243 242 242 244 247 250 251 253 254 254 252 251 
250 249 249 248 249 248 245 245 244 242 242 245 243 241 243 245 244 248 253 
254 254 255 255 255 255 255 252 249 247 247 246 246 248 249 247 242 241 242 
241 242 246 250 249 246 241 241 247 250 254 254 254 255 255 255 252 250 248 
247 245 242 242 244 246 251 255 255 255 254 252 254 253 252 253 251 250 251 
249 246 243 240 241 244 243 239 243 245 245 247 251 252 253 254 255 
