P2
#output from hocrtest
110 110
255
250 245 253 248 255 255 253 246 249 250 251 252 255 252 247 247 246 250 245 
235 247 247 241 254 246 250 244 242 245 245 249 249 255 255 253 255 255 255 
250 250 247 253 251 252 255 255 252 249 246 241 242 255 255 245 246 250 252 
250 249 238 249 247 247 242 246 248 243 251 253 250 248 246 249 247 252 254 
254 255 255 255 252 252 254 254 255 255 253 247 254 252 252 251 245 246 246 
246 244 228 250 252 252 251 251 255 253 254 248 255 254 252 249 249 254 253 
255 255 251 248 247 248 250 250 251 249 243 245 246 247 250 249 252 251 250 
255 250 247 243 241 240 242 247 251 255 255 255 255 254 255 252 251 252 252 
252 253 253 255 252 249 248 245 246 251 252 250 249 249 250 248 247 243 246 
243 244 243 244 246 248 249 252 251 250 250 250 251 252 253 254 255 255 252 
251 250 252 252 254 255 254 254 255 252 252 249 246 244 243 243 242 240 249 
251 251 253 253 255 253 253 251 252 252 250 250 249 253 255 254 253 250 248 
244 246 247 246 246 245 241 240 242 246 247 250 252 252 251 251 248 247 245 
244 242 242 246 250 254 254 252 251 255 254 253 253 252 250 248 247 248 249 
247 244 244 244 245 247 250 252 251 254 253 251 251 251 250 249 248 248 247 
246 245 243 247 251 253 253 254 255 254 254 251 251 251 248 248 248 251 252 
254 255 254 253 254 251 251 247 246 245 243 240 238 238 245 248 249 253 255 
255 255 255 254 254 254 255 250 249 252 253 254 253 251 250 248 247 247 247 
243 239 240 241 243 244 245 248 250 252 252 253 251 248 246 245 241 242 243 
250 253 254 251 252 252 253 250 252 249 247 244 242 242 242 241 240 239 242 
243 244 246 250 253 254 254 252 254 255 253 249 244 244 241 241 240 237 240 
249 253 253 254 253 253 252 248 247 246 246 248 250 252 253 253 254 252 251 
253 252 251 248 247 246 243 241 241 241 243 249 251 254 252 251 253 253 252 
253 254 254 251 248 248 250 250 250 248 248 247 247 248 249 248 244 240 241 
241 242 244 249 253 255 255 255 252 248 247 246 242 244 247 250 252 251 249 
248 249 252 252 250 247 244 242 241 240 238 237 235 238 241 241 244 247 249 
253 254 254 253 252 252 250 248 245 243 237 240 241 238 243 247 248 248 251 
251 247 246 243 238 237 239 242 246 249 251 249 252 252 252 254 253 251 248 
245 243 245 244 243 245 245 247 249 250 249 249 248 249 248 249 250 250 250 
249 246 246 246 246 246 246 244 244 245 244 243 243 242 238 236 239 241 243 
248 251 252 250 251 251 250 249 248 247 246 246 248 252 251 249 247 248 247 
248 248 245 242 238 236 234 231 230 233 232 233 239 243 247 252 254 255 252 
251 249 249 251 249 247 245 244 244 243 245 246 248 249 252 253 251 249 244 
240 237 238 241 243 245 245 244 245 246 246 251 251 251 248 245 245 244 243 
240 242 247 250 248 247 245 246 246 247 247 249 250 250 247 247 245 245 244 
245 247 246 244 243 242 242 240 241 241 237 236 237 239 243 246 247 246 246 
247 250 249 247 247 247 246 244 245 244 246 244 243 243 242 242 242 240 238 
236 233 234 231 229 230 232 232 237 244 246 251 251 245 248 245 243 243 244 
245 245 245 246 246 245 245 245 246 246 246 248 247 245 242 240 239 237 237 
238 237 238 241 242 244 245 244 244 244 243 238 238 236 238 238 240 243 245 
247 245 244 244 246 249 248 247 248 249 245 246 246 245 240 242 243 243 243 
245 242 240 240 243 243 239 235 236 237 238 242 242 241 238 239 242 245 247 
247 248 246 244 243 242 243 243 244 245 244 241 239 238 236 234 234 233 232 
231 229 234 235 239 245 245 247 245 243 242 241 240 238 239 241 239 239 242 
243 240 242 242 245 243 241 243 241 240 237 236 235 237 239 238 237 235 239 
240 243 243 243 242 240 239 236 235 234 235 234 234 234 235 239 240 243 243 
242 243 244 244 245 247 247 246 245 245 242 245 245 241 240 242 240 240 242 
243 242 242 238 237 236 235 238 239 238 237 238 243 245 245 249 247 246 243 
238 238 235 237 241 242 241 241 241 238 235 234 234 235 233 232 231 231 231 
236 239 241 242 240 238 234 237 236 234 237 239 238 238 240 240 239 238 239 
239 238 237 239 235 233 232 235 237 238 234 235 234 234 236 237 238 240 239 
236 235 235 234 234 235 236 234 234 232 232 236 236 239 241 240 239 240 241 
241 244 250 249 250 250 251 247 244 241 239 236 235 236 238 240 240 241 236 
234 234 235 231 236 236 234 233 241 245 245 249 247 240 239 238 238 236 237 
241 241 239 239 239 238 236 235 233 231 231 229 230 235 238 240 238 239 239 
239 237 235 237 236 235 236 237 237 235 234 234 233 234 236 235 236 235 236 
235 233 232 234 234 236 233 232 233 234 234 237 236 238 236 236 237 238 238 
236 235 235 235 232 228 229 227 230 233 234 238 238 237 238 238 236 246 250 
250 252 253 248 244 242 239 236 237 235 235 238 238 240 238 235 235 238 235 
235 234 234 235 240 243 243 245 245 240 237 235 234 234 235 233 233 233 232 
230 227 233 234 233 231 231 227 227 231 235 236 237 237 237 235 235 235 236 
237 235 237 237 237 235 232 231 230 230 230 232 235 234 234 234 228 228 228 
229 232 231 230 229 229 231 235 237 237 236 231 231 234 235 236 234 235 235 
234 232 230 229 230 234 238 240 240 240 237 237 236 251 251 251 254 255 250 
247 243 244 243 242 237 236 239 241 242 241 242 240 238 235 232 233 235 237 
238 242 242 241 241 240 236 233 234 233 231 231 228 232 230 230 229 231 231 
232 234 233 232 231 232 234 236 235 235 236 235 233 231 232 234 236 237 240 
241 238 234 233 230 227 230 231 232 232 233 232 227 226 227 227 227 227 229 
230 229 229 230 232 234 235 231 230 230 230 233 234 235 235 235 233 233 233 
233 236 239 240 240 239 238 239 240 255 254 254 255 255 249 249 246 246 245 
242 239 236 237 238 238 240 241 241 239 238 237 235 234 232 233 233 232 235 
237 237 235 234 235 233 233 233 231 232 232 232 231 231 232 232 236 234 232 
231 232 232 232 231 230 229 230 230 227 226 228 232 232 233 233 234 229 229 
226 224 227 228 226 229 230 230 228 225 227 228 228 227 228 228 224 222 221 
223 227 229 229 230 230 229 231 233 234 235 237 236 237 236 238 240 241 241 
239 239 239 237 240 255 254 254 255 252 249 247 248 246 244 240 235 230 229 
227 229 229 230 233 235 234 234 233 231 231 229 230 229 230 231 232 234 233 
231 229 230 227 225 226 225 226 225 229 232 233 232 230 228 228 229 228 230 
229 229 228 228 230 226 223 222 230 232 231 231 232 230 228 227 224 226 227 
226 228 231 231 229 227 226 227 227 227 225 226 224 223 222 224 225 225 225 
225 224 222 224 231 234 233 233 237 239 241 243 242 241 240 240 240 240 241 
244 255 254 255 255 252 247 247 244 242 242 239 235 229 228 227 226 226 228 
231 234 232 232 231 228 228 229 230 229 226 230 230 229 231 228 229 227 224 
221 222 220 222 221 222 225 227 231 228 226 225 224 223 225 223 225 226 228 
228 225 218 219 221 224 225 225 226 227 227 224 223 222 223 227 229 231 232 
232 230 230 229 226 226 225 225 222 221 222 221 223 223 224 224 221 222 224 
228 231 230 232 235 235 238 242 240 241 243 243 245 248 245 247 255 255 254 
255 251 246 246 243 240 241 238 233 228 226 226 223 223 228 233 232 228 227 
226 226 228 231 230 229 228 227 226 224 226 225 225 227 226 222 219 216 216 
214 218 223 226 228 225 224 224 223 224 224 222 224 222 224 225 224 224 225 
224 226 228 229 229 228 228 224 225 226 226 227 224 227 228 229 232 231 229 
223 221 222 223 222 219 221 222 221 218 221 222 217 217 223 225 226 229 233 
236 240 243 246 246 247 248 246 245 247 245 244 255 254 254 254 249 244 239 
236 234 232 233 232 230 227 227 224 224 227 230 227 223 223 223 225 226 227 
229 230 230 229 228 227 225 227 229 232 229 227 220 219 217 217 220 223 224 
226 227 224 223 220 220 223 223 223 220 220 219 221 222 223 223 223 225 226 
229 230 226 224 225 225 224 225 226 225 225 223 226 227 226 220 219 222 223 
225 225 225 223 222 219 220 221 221 220 223 228 231 231 235 238 241 244 249 
251 251 251 249 247 247 249 249 255 255 255 254 251 248 243 238 232 229 227 
227 229 228 228 225 223 226 228 228 230 228 226 224 227 227 227 229 228 227 
227 224 223 225 228 230 229 224 221 221 221 219 221 221 222 222 222 219 218 
218 219 219 219 222 220 219 218 219 220 218 221 221 221 223 225 224 220 220 
219 220 216 216 216 217 219 217 224 226 223 220 211 213 215 219 222 224 222 
219 219 219 220 221 223 222 226 232 233 235 237 240 241 244 248 251 252 250 
246 244 243 239 254 255 254 253 251 250 245 237 231 228 225 221 226 227 225 
224 224 223 226 228 226 224 224 224 223 222 220 217 219 217 217 219 220 223 
226 226 224 222 221 221 223 222 222 219 218 217 219 216 217 221 222 223 221 
221 222 221 218 218 217 215 219 219 218 219 222 222 220 221 219 220 219 218 
216 215 215 217 222 222 220 214 210 209 211 216 217 218 219 218 218 218 218 
219 222 224 227 231 234 237 240 242 243 245 247 248 250 250 248 248 250 248 
254 254 252 251 250 248 245 240 235 235 233 231 231 231 229 226 224 225 223 
223 223 220 220 221 219 217 215 212 213 208 208 211 214 218 222 223 224 219 
218 217 219 221 219 213 213 214 216 215 215 218 220 221 221 218 218 223 222 
223 223 219 218 218 216 215 215 216 215 216 217 217 218 216 209 211 214 217 
219 217 217 215 208 208 210 213 214 216 218 215 213 215 217 221 223 226 231 
234 234 238 241 242 242 245 246 246 248 250 253 253 252 254 250 249 244 246 
246 245 245 241 238 235 233 230 228 230 230 228 221 220 221 221 221 223 221 
222 218 216 214 213 212 208 208 212 215 218 218 222 218 216 216 218 218 218 
215 210 210 212 215 214 211 214 217 218 219 217 220 222 222 220 221 218 218 
218 213 213 211 213 212 211 212 212 215 218 214 213 215 215 212 215 216 214 
208 204 202 209 210 215 214 211 211 213 217 219 219 219 225 229 234 238 238 
239 242 244 244 244 247 249 252 252 252 253 247 248 246 246 244 242 240 235 
232 230 227 227 227 227 226 226 223 220 218 216 218 220 219 220 218 218 216 
214 213 206 206 212 215 216 213 214 211 208 207 209 213 214 214 210 209 211 
213 211 211 211 210 210 209 207 208 211 212 215 214 215 215 213 211 210 212 
214 217 215 214 214 215 217 216 217 217 216 213 213 212 212 209 207 209 216 
217 220 220 218 217 217 220 219 219 219 223 225 229 236 238 242 243 243 244 
243 245 247 247 249 249 250 251 250 247 245 243 240 239 232 232 229 229 228 
227 227 228 228 227 224 221 223 223 221 217 214 215 215 214 214 217 215 212 
213 215 214 215 213 211 209 208 207 210 214 214 211 213 214 212 213 206 204 
203 205 206 206 209 207 213 213 211 212 209 210 209 207 209 212 216 214 212 
214 212 212 210 211 210 212 210 210 208 207 203 202 204 211 210 214 215 217 
218 219 222 223 222 223 226 226 228 233 235 239 240 240 240 241 244 247 248 
247 248 248 251 251 249 247 244 242 239 236 234 232 231 228 226 228 231 234 
231 229 226 225 226 222 219 214 213 213 211 213 214 214 212 211 211 212 213 
212 212 209 209 208 211 209 211 209 212 215 212 211 204 204 206 208 209 207 
205 209 211 212 209 209 206 203 204 204 206 209 212 212 210 212 209 206 207 
210 211 210 208 205 201 198 196 197 199 208 210 211 212 214 215 219 221 220 
216 216 219 222 222 224 225 228 231 235 238 243 244 245 246 247 246 247 252 
254 252 250 246 246 244 241 238 234 229 229 224 222 225 230 229 227 227 224 
221 214 212 210 206 205 206 209 211 211 209 209 209 209 208 208 209 206 205 
206 206 204 206 205 207 210 206 207 204 203 206 209 210 210 207 209 210 210 
207 205 200 195 196 201 205 209 211 210 208 207 206 204 202 207 208 210 208 
203 198 196 196 197 198 201 204 205 208 208 211 215 216 215 214 214 218 220 
220 224 227 227 229 232 237 239 238 239 241 244 246 247 255 255 253 251 251 
249 242 239 236 235 232 232 229 225 227 228 232 231 227 224 222 219 216 210 
205 202 201 204 207 207 209 210 210 209 205 207 207 208 206 204 204 202 203 
205 206 208 205 204 204 204 205 205 203 203 203 207 207 206 205 201 201 198 
198 201 206 208 210 206 205 203 202 200 203 205 203 206 204 204 199 199 197 
194 195 199 202 203 203 204 203 210 213 212 214 220 224 227 228 228 225 224 
231 237 239 239 238 239 241 242 244 245 254 254 255 253 253 249 244 240 237 
236 236 233 229 227 227 230 234 231 228 226 223 221 218 213 207 204 203 203 
206 206 206 208 210 210 207 206 205 205 205 203 203 203 203 204 205 203 202 
203 206 202 200 198 201 203 205 208 208 207 204 201 200 197 197 200 201 201 
206 202 201 200 200 200 201 202 203 205 206 208 205 204 201 198 195 197 198 
202 202 204 206 212 214 215 217 220 221 225 226 227 227 227 231 235 235 233 
234 236 237 240 236 233 252 254 254 253 253 248 244 241 241 237 235 235 230 
227 227 228 228 225 224 223 220 219 218 213 210 208 204 202 201 203 204 209 
210 210 209 207 203 203 201 204 206 205 205 207 205 203 198 198 199 197 196 
199 199 203 204 206 208 207 207 200 198 193 195 197 200 198 201 200 200 200 
200 199 199 200 202 202 204 206 207 205 203 197 197 200 201 204 204 204 214 
213 214 212 215 216 218 220 221 223 224 230 233 234 234 234 235 236 238 238 
238 239 251 250 249 248 245 244 242 239 242 242 238 235 226 224 222 217 215 
217 218 218 217 216 215 212 211 207 203 200 200 203 204 205 209 210 208 204 
203 203 200 200 201 204 206 203 201 202 198 197 198 198 198 200 202 203 205 
204 206 205 202 199 197 196 193 195 198 201 203 204 205 205 204 200 196 196 
197 196 196 199 203 203 202 200 200 201 202 205 207 211 214 215 212 210 210 
214 220 221 223 223 227 231 234 237 237 237 237 236 234 235 234 233 252 251 
250 247 244 243 240 239 239 239 237 233 228 221 219 218 219 219 219 216 215 
214 214 210 205 204 199 198 193 192 195 197 202 207 209 206 207 203 200 198 
199 199 202 204 200 201 199 199 199 200 199 200 203 204 204 206 206 203 199 
200 198 198 194 194 196 197 203 202 200 201 198 193 189 190 191 192 193 195 
196 198 198 198 200 203 207 213 213 215 210 209 208 208 212 215 220 221 225 
227 227 231 233 235 235 236 236 233 231 233 231 230 249 248 247 244 242 241 
239 239 239 236 235 231 227 223 221 220 222 221 220 216 213 214 215 216 211 
205 200 198 195 191 193 196 198 199 202 203 203 202 198 197 196 198 199 201 
204 203 202 200 199 199 197 196 195 196 198 202 201 199 198 199 201 200 197 
198 199 201 202 201 197 192 188 186 183 185 189 191 192 194 196 198 198 199 
199 199 204 212 213 216 215 214 216 216 215 216 219 221 226 230 231 235 236 
238 240 243 241 240 237 235 237 238 249 248 244 240 241 241 240 241 240 236 
235 231 229 226 226 226 224 221 220 220 218 217 218 219 217 211 205 199 195 
193 194 194 196 197 198 200 200 198 195 195 196 197 197 198 199 200 202 203 
202 201 199 197 194 191 192 194 196 197 200 200 197 197 195 197 198 201 202 
200 194 188 185 182 179 184 188 191 195 192 193 193 195 195 194 194 194 200 
200 212 219 221 222 222 221 219 219 219 224 228 229 233 235 236 237 241 239 
241 240 239 242 244 249 246 241 241 243 242 240 239 237 236 233 232 230 228 
229 229 223 222 219 217 215 215 216 217 215 211 207 200 195 194 193 190 191 
193 194 193 192 193 190 191 192 194 195 198 200 201 204 204 207 207 207 205 
201 197 196 197 194 194 197 197 197 195 193 193 194 197 196 195 189 184 183 
183 186 189 191 194 197 196 193 192 192 194 193 193 195 201 205 211 219 219 
220 225 222 221 219 218 224 225 227 228 228 227 233 238 241 244 246 247 249 
252 249 250 250 246 245 241 240 238 237 237 235 234 233 228 229 228 225 219 
215 216 214 211 210 209 206 206 205 200 194 192 190 187 188 189 187 187 188 
188 189 191 188 188 190 194 196 194 196 199 200 202 199 199 197 197 197 199 
196 197 195 192 189 188 188 189 190 191 189 190 183 180 182 182 185 191 194 
195 194 194 192 191 191 192 194 194 201 204 206 214 220 223 222 226 223 222 
225 226 226 225 226 225 224 228 233 238 243 247 249 248 248 247 248 251 251 
249 244 241 237 238 239 236 236 234 232 230 226 221 219 217 217 213 210 206 
204 200 198 195 191 191 190 189 190 186 186 181 182 182 182 183 182 184 182 
185 187 192 194 194 194 194 194 195 195 193 191 192 194 193 190 189 189 189 
189 190 189 189 189 191 189 187 182 176 178 181 184 187 189 192 193 193 192 
191 190 192 197 200 204 206 210 216 219 219 217 216 219 220 224 226 224 226 
225 226 227 229 232 239 241 245 247 248 249 248 252 252 249 248 244 241 240 
239 238 235 230 230 227 225 225 223 221 221 218 215 211 210 207 201 196 195 
192 190 187 187 190 189 190 188 184 183 182 183 183 185 183 183 185 188 191 
194 192 190 190 187 189 189 186 186 186 182 182 183 184 184 184 187 186 188 
188 186 188 187 183 179 176 180 180 178 182 183 185 186 188 187 187 189 192 
195 199 204 214 219 221 221 221 219 219 222 223 226 224 228 230 230 233 234 
233 236 238 241 241 240 241 243 251 252 251 249 245 243 238 236 233 229 229 
228 228 226 226 224 222 220 219 216 217 215 211 207 204 203 199 197 195 192 
191 189 192 191 190 187 183 182 182 182 178 177 172 172 181 184 188 187 185 
182 183 182 177 175 176 173 175 179 183 185 187 190 189 190 188 186 189 188 
186 187 183 182 183 187 189 187 188 187 186 187 187 189 193 196 201 207 214 
218 220 218 216 217 222 226 227 226 225 226 232 233 237 240 240 244 240 239 
240 237 237 237 255 255 252 247 244 244 241 237 236 231 231 230 227 226 225 
221 220 217 215 214 212 212 212 209 207 206 202 198 196 193 191 192 192 190 
188 186 183 182 180 181 178 176 171 174 180 181 182 183 185 182 181 177 174 
175 178 175 175 174 176 180 181 185 183 185 186 183 185 185 185 187 185 181 
183 186 187 188 184 182 184 186 186 189 193 195 200 204 212 217 219 218 217 
218 222 229 230 231 228 229 232 234 234 235 236 240 238 240 242 244 245 247 
255 252 251 246 244 241 239 235 233 231 229 226 224 224 224 221 217 213 210 
207 210 214 217 213 210 209 203 198 196 195 194 195 195 193 190 185 179 178 
177 179 176 173 170 171 174 175 178 183 188 184 181 176 175 176 176 175 174 
175 175 176 180 183 183 180 178 174 178 178 182 182 180 177 180 184 185 185 
183 183 182 184 186 191 193 192 195 198 203 212 215 218 219 220 224 230 232 
233 232 230 231 233 236 238 239 241 241 243 245 248 248 251 255 251 251 250 
243 240 238 235 230 227 228 228 225 223 223 221 216 213 211 207 210 217 221 
218 215 214 207 203 197 192 190 191 191 189 189 183 179 176 176 178 175 172 
169 169 168 170 174 176 176 175 175 175 172 174 174 173 174 175 177 177 179 
181 182 179 174 169 171 172 173 175 178 177 182 184 185 187 189 189 191 190 
193 195 198 194 196 201 203 208 211 215 219 222 226 232 235 235 232 229 229 
231 229 230 233 237 240 244 244 246 248 249 255 253 252 249 246 244 243 239 
236 234 232 231 227 226 224 221 217 215 214 213 216 218 220 218 213 209 209 
210 207 198 194 190 189 186 185 179 173 174 175 177 176 173 169 165 163 168 
172 176 173 172 170 170 167 169 172 174 175 173 176 177 179 179 179 179 177 
172 171 169 170 173 174 177 182 184 186 187 190 192 198 198 198 197 198 197 
198 200 202 203 205 210 213 216 223 230 235 236 237 234 232 231 228 228 233 
234 239 244 247 249 250 251 255 254 252 250 245 243 243 240 238 234 231 232 
231 227 224 222 219 217 217 216 216 220 222 221 216 210 208 207 206 196 192 
190 191 187 184 182 182 181 180 177 178 175 171 169 169 172 175 177 175 174 
174 170 168 169 171 171 171 170 172 174 175 175 174 172 169 166 165 165 166 
169 172 174 178 183 188 187 189 189 193 194 194 196 199 197 199 204 204 206 
206 211 214 216 223 228 233 234 236 235 232 234 231 233 235 238 243 246 248 
249 250 252 253 252 251 249 244 244 242 238 236 234 233 231 227 223 225 224 
224 221 218 213 214 215 218 221 216 213 210 205 203 197 195 193 192 188 185 
182 182 182 180 180 182 181 177 171 170 170 170 171 170 168 167 166 164 164 
165 164 165 167 171 172 168 166 165 164 163 164 165 164 166 168 168 172 179 
182 187 188 184 182 187 194 195 199 201 198 203 205 203 206 208 210 213 217 
221 225 230 232 235 235 234 234 234 238 240 239 241 242 245 246 247 247 255 
254 250 248 245 243 240 237 238 235 232 231 228 226 226 225 222 218 217 214 
212 213 216 217 211 211 207 201 199 196 196 195 194 190 187 183 182 178 176 
177 178 177 175 172 171 167 166 168 169 168 167 166 164 163 161 161 164 165 
172 171 167 167 164 162 165 164 166 167 167 169 171 174 179 182 184 186 186 
184 188 191 193 197 201 201 204 204 204 207 212 212 214 218 219 222 230 234 
235 235 233 233 236 239 241 242 240 239 243 243 243 242 252 252 249 245 243 
242 241 241 243 241 236 227 225 228 227 226 224 220 218 216 214 212 213 211 
210 206 201 197 194 194 197 198 196 194 187 183 185 183 180 179 179 179 177 
174 170 166 163 163 167 168 165 165 163 161 162 163 163 163 167 168 168 168 
168 167 166 164 165 167 169 171 172 174 176 177 177 182 183 186 185 190 194 
199 204 203 207 207 209 209 212 214 217 217 218 221 224 229 230 229 227 230 
235 238 239 242 243 243 243 245 243 241 253 252 248 244 240 241 241 242 241 
239 237 233 230 231 229 227 224 216 214 213 213 211 209 207 206 202 198 196 
194 195 196 198 194 191 186 184 183 183 182 180 181 180 178 174 172 167 163 
160 162 161 164 163 159 161 165 162 160 159 159 162 161 163 163 164 165 167 
169 169 170 172 173 173 176 178 179 183 187 189 189 192 193 199 210 211 212 
211 211 212 211 211 212 215 218 218 222 229 232 230 228 230 235 237 239 245 
245 247 247 251 249 249 248 246 244 242 244 245 247 244 242 241 239 234 233 
232 230 228 224 219 215 213 210 208 210 207 204 200 195 194 196 200 198 197 
194 192 186 184 180 181 180 180 177 178 177 174 170 164 161 161 162 163 162 
160 155 160 163 161 160 158 157 158 157 159 160 163 165 170 169 169 169 168 
170 169 175 178 179 181 185 187 191 195 198 204 209 212 214 216 215 215 213 
211 210 212 216 218 221 224 227 229 229 230 234 239 240 244 246 247 246 247 
245 243 246 246 245 245 244 244 244 241 240 239 237 233 233 232 229 225 221 
221 218 214 214 210 210 205 200 197 191 192 194 195 194 194 191 187 181 180 
175 174 177 178 177 174 173 170 165 159 157 159 161 161 159 158 157 160 161 
159 159 159 159 160 157 158 162 164 166 170 172 173 172 174 174 172 174 177 
178 179 182 185 190 195 198 204 208 210 213 215 214 215 212 211 210 212 217 
219 223 225 227 229 230 232 234 238 242 244 244 246 245 244 244 243 247 247 
246 245 242 239 237 236 237 237 232 228 230 229 227 223 219 220 218 217 217 
219 216 212 205 199 194 194 195 195 194 189 189 182 180 183 181 175 175 172 
170 167 169 170 167 166 164 160 159 159 159 157 158 159 157 156 158 156 156 
158 156 157 161 164 167 172 173 176 174 173 171 173 173 178 180 181 181 184 
189 192 196 201 205 204 207 211 213 213 214 214 212 212 216 218 224 225 227 
228 229 230 231 236 239 242 244 246 244 242 242 244 244 243 242 242 240 236 
236 236 238 238 235 231 229 228 224 221 219 221 224 224 226 226 221 216 210 
202 197 195 196 194 190 187 185 183 179 182 178 173 176 176 176 171 170 169 
168 167 164 160 160 160 160 158 155 153 149 150 153 155 155 154 153 155 160 
168 169 170 173 173 172 170 170 174 176 181 183 183 182 185 187 190 196 199 
205 207 209 211 212 214 214 215 216 217 215 219 223 224 225 225 227 225 229 
235 238 238 241 241 240 240 237 237 244 245 244 243 243 239 239 239 238 236 
235 234 231 229 227 224 219 221 222 223 224 221 217 212 209 202 200 197 198 
196 191 187 185 183 180 181 179 177 176 176 178 174 172 171 168 166 163 159 
157 158 159 161 157 154 149 149 153 153 154 154 155 156 158 165 165 167 169 
170 172 168 169 170 176 183 184 186 186 188 189 191 194 196 202 205 208 213 
215 216 215 216 216 218 217 221 227 228 226 226 227 229 230 232 235 237 238 
237 236 236 236 237 249 250 248 246 244 240 237 235 236 235 235 230 227 227 
228 226 221 221 222 224 225 223 223 215 204 201 199 199 199 197 192 190 185 
183 181 181 177 178 177 175 177 176 174 169 167 163 158 154 154 154 158 159 
159 156 153 152 153 154 155 153 156 157 157 161 166 168 170 171 171 170 169 
174 178 183 187 190 192 190 191 193 197 197 201 202 206 210 211 211 212 214 
215 215 218 222 227 227 227 227 230 229 231 235 238 241 242 241 240 237 238 
231 253 252 249 248 246 243 238 237 234 232 228 225 224 226 230 229 225 223 
220 220 221 219 218 211 202 199 200 202 200 198 200 198 191 188 185 186 184 
185 183 183 179 175 170 164 161 159 155 156 155 154 154 152 152 152 151 152 
151 152 153 152 157 159 161 166 167 168 170 171 171 173 175 177 177 180 185 
185 184 187 190 193 199 200 201 203 206 210 213 213 214 214 215 215 217 219 
225 229 232 232 232 232 231 233 236 241 242 241 242 243 245 246 255 255 249 
250 249 246 241 238 235 235 231 227 227 229 231 231 227 224 221 219 218 216 
217 212 200 196 200 201 203 202 200 194 190 187 185 184 180 181 178 176 175 
171 168 163 158 159 154 154 153 149 149 146 147 149 151 151 146 145 145 152 
151 150 156 161 165 166 170 172 171 172 172 173 170 170 173 179 191 194 197 
201 206 203 206 206 207 209 211 213 216 214 217 217 219 226 227 227 230 228 
230 233 235 233 236 239 239 236 238 238 241 240 255 253 251 253 251 250 246 
240 235 234 230 229 229 228 229 232 228 227 226 221 219 215 213 210 206 204 
204 207 205 206 202 196 193 191 191 183 180 178 174 169 166 164 165 164 162 
160 157 155 154 152 146 146 146 150 149 146 143 142 140 146 147 148 149 154 
160 165 169 172 171 168 170 168 167 165 169 178 189 193 198 201 204 205 206 
205 206 206 207 207 212 214 219 223 226 230 230 229 232 232 235 237 238 238 
240 241 242 240 243 242 241 238 251 250 249 249 249 248 248 245 243 238 234 
234 233 229 227 229 226 223 219 218 220 218 214 210 208 208 209 208 208 205 
198 191 190 190 190 184 178 172 171 167 166 166 167 167 168 166 160 154 151 
150 147 144 145 145 144 140 136 140 140 143 144 145 151 154 160 163 167 170 
173 173 175 173 171 172 172 178 188 191 195 196 197 198 200 200 201 203 204 
209 212 216 222 225 226 228 231 234 239 241 243 237 238 239 240 241 244 247 
249 246 245 245 249 248 246 247 247 249 250 250 249 243 240 238 235 229 228 
228 225 222 220 215 215 213 211 207 207 204 205 205 199 197 193 189 188 189 
190 185 179 173 169 165 166 167 169 168 167 165 163 159 154 151 149 146 147 
147 146 144 140 142 143 145 145 149 154 160 162 165 169 170 172 176 176 173 
174 174 176 182 187 188 190 194 196 197 201 198 199 201 202 205 207 217 222 
224 226 226 228 230 236 239 240 239 238 239 239 239 243 245 244 242 241 242 
247 246 246 246 247 249 250 249 247 244 239 236 234 232 231 226 221 218 220 
216 213 210 205 204 204 202 200 200 197 192 188 181 180 177 183 184 181 176 
173 170 169 168 169 168 166 164 164 162 160 160 158 156 153 150 147 141 138 
139 140 143 148 150 156 164 165 166 166 167 169 171 173 173 176 174 177 180 
186 188 193 191 195 198 202 203 205 207 206 206 207 217 218 218 219 222 225 
230 235 240 241 242 243 246 246 245 245 246 244 238 234 235 250 249 245 245 
246 246 246 245 244 242 235 234 234 234 233 229 225 219 218 215 212 210 205 
203 201 202 202 200 196 194 190 182 179 178 180 181 177 177 175 170 169 168 
166 167 165 164 164 164 162 162 160 158 156 154 152 149 146 144 146 149 154 
158 160 165 166 168 167 165 164 163 166 167 176 178 184 186 189 190 192 189 
188 192 194 196 202 205 207 207 211 216 218 218 217 221 225 230 231 234 232 
234 237 241 244 244 247 247 246 245 245 247 249 248 247 244 242 242 244 240 
235 232 228 229 228 228 227 225 226 221 219 216 210 208 204 204 202 201 199 
199 200 197 194 188 187 187 183 182 179 175 175 167 163 161 159 162 164 163 
161 160 158 159 155 153 153 151 152 151 149 146 148 152 155 159 162 164 165 
166 165 168 167 165 164 166 175 180 184 186 191 190 189 191 189 188 187 191 
200 204 207 211 214 216 219 222 222 224 224 226 225 227 225 226 234 241 243 
245 248 250 251 252 251 252 252 249 248 245 243 244 244 241 237 234 232 232 
230 230 226 223 223 221 219 213 212 211 208 207 202 200 200 201 199 200 198 
194 187 187 186 183 181 173 172 166 162 163 159 165 165 164 162 159 158 158 
153 153 154 152 155 153 153 152 154 157 158 160 160 164 168 168 167 168 166 
166 169 172 177 179 183 186 187 187 188 187 185 188 191 196 199 201 204 208 
213 214 216 220 223 223 225 226 224 224 224 229 233 238 241 241 243 248 248 
246 244 240 251 249 248 247 244 244 241 237 236 233 232 233 233 230 226 223 
221 222 220 213 211 211 206 205 204 204 204 204 206 200 201 197 193 189 189 
186 183 179 175 172 167 166 163 165 161 160 159 156 153 152 153 155 156 155 
155 150 152 155 158 162 163 163 162 165 169 171 173 174 171 171 174 176 176 
177 180 185 185 187 190 191 191 195 195 200 200 202 207 208 213 214 217 223 
226 224 226 228 226 224 227 230 234 239 243 246 248 249 247 243 243 242 249 
246 246 245 243 242 240 237 235 234 232 233 234 231 227 223 218 220 220 219 
214 213 208 207 207 208 207 208 207 205 200 195 192 191 192 191 187 185 181 
178 171 165 164 165 164 164 161 155 154 153 155 159 161 159 158 155 156 155 
159 160 159 157 158 164 167 172 171 175 173 174 175 174 177 180 182 187 189 
188 192 195 196 198 198 200 203 205 210 212 217 218 220 223 224 226 228 229 
227 228 229 233 237 240 244 246 248 250 248 246 242 241 251 250 250 248 246 
245 240 236 235 232 231 232 234 232 230 225 221 218 216 214 213 212 210 210 
208 205 205 204 198 196 196 190 190 189 189 186 185 187 184 180 177 171 168 
169 170 170 168 167 163 160 160 161 161 161 160 162 159 157 156 157 157 157 
159 163 165 169 169 174 173 176 178 178 183 184 185 189 189 193 201 203 203 
203 202 202 207 207 209 210 212 216 221 224 224 225 225 223 221 222 224 231 
238 241 244 247 249 248 246 246 244 240 253 252 251 249 246 243 239 234 232 
229 228 228 230 229 225 222 223 219 218 215 211 209 209 210 209 204 204 202 
196 194 192 190 189 187 182 180 181 182 184 184 180 176 172 170 170 170 167 
167 165 161 162 162 165 165 166 170 165 159 156 158 162 165 168 171 171 172 
169 170 170 175 180 182 186 186 188 190 193 197 201 202 201 203 205 204 205 
204 205 207 210 214 218 223 224 227 229 226 224 226 227 231 239 244 248 249 
247 246 244 244 243 238 252 250 248 248 244 243 237 233 232 226 225 225 223 
224 225 221 218 215 216 217 214 212 210 210 211 208 206 202 198 197 195 191 
189 186 182 183 180 182 188 187 182 178 175 173 172 174 169 167 167 167 164 
165 166 170 172 170 169 167 165 164 166 169 168 166 167 169 168 166 169 173 
177 180 184 186 187 186 186 190 195 198 204 207 205 205 204 201 202 206 212 
214 215 217 222 227 230 228 230 231 231 233 237 240 242 244 246 247 245 244 
243 241 246 247 247 248 245 242 238 233 230 229 227 225 225 225 223 219 213 
208 211 214 214 217 217 216 216 213 203 199 196 197 197 198 193 188 183 183 
181 184 187 186 181 177 171 171 171 171 171 174 173 169 167 170 173 174 173 
173 171 167 168 169 168 168 168 168 169 172 171 173 174 177 180 181 181 182 
189 191 190 192 195 198 201 206 207 209 210 207 205 214 219 217 217 217 219 
221 224 226 229 230 232 233 239 243 246 248 251 251 250 251 252 252 243 242 
243 244 242 238 239 237 235 233 228 226 226 222 218 216 212 211 211 213 214 
215 214 213 211 210 201 197 195 194 194 199 195 191 186 184 183 184 182 181 
177 175 169 171 171 172 173 174 179 177 175 176 175 174 175 175 173 169 170 
170 169 168 167 168 172 175 173 171 172 176 178 181 181 183 185 188 188 189 
192 194 200 204 209 211 212 211 210 215 215 215 216 216 220 221 226 229 231 
232 235 240 243 246 248 252 255 255 254 254 254 254 245 244 244 242 238 238 
240 240 239 236 232 227 225 223 220 221 217 217 218 221 220 214 211 211 209 
208 204 199 200 200 196 195 191 187 183 184 186 187 185 182 177 176 171 170 
172 173 175 174 175 174 174 178 177 177 177 177 179 176 177 176 176 174 170 
172 173 172 169 171 176 182 182 183 181 183 182 183 185 188 190 194 201 204 
209 209 211 210 210 211 210 213 215 217 219 221 221 226 228 234 237 240 243 
244 245 250 253 255 254 255 255 255 248 249 247 244 238 241 242 242 241 239 
233 231 232 230 228 224 221 223 225 226 221 216 214 210 208 206 204 200 199 
195 192 191 189 187 185 186 188 187 185 183 181 174 170 168 169 171 173 174 
175 174 173 174 177 179 178 176 173 171 171 172 173 176 174 174 174 174 173 
175 179 183 184 184 183 184 184 184 187 188 189 190 194 199 202 204 205 208 
207 209 206 209 213 217 221 220 220 222 228 232 234 235 239 241 242 249 252 
254 253 254 254 254 253 252 247 243 238 238 237 239 239 237 233 229 229 229 
229 231 231 230 231 228 223 219 216 211 207 203 204 203 201 199 197 194 193 
188 184 184 185 187 185 182 178 174 169 168 172 173 173 175 176 176 174 174 
178 181 181 180 177 175 174 173 173 176 176 179 177 175 172 175 180 181 182 
181 180 183 185 185 185 185 191 192 194 197 198 200 205 210 207 208 207 213 
216 217 223 222 221 224 225 225 226 229 233 237 240 249 251 252 253 253 254 
255 251 250 247 243 240 239 239 238 234 231 231 230 232 232 231 230 228 228 
231 227 223 220 217 205 201 198 199 202 203 202 201 197 193 190 188 184 185 
186 188 186 182 175 168 167 169 174 176 179 183 181 181 181 180 182 181 177 
174 170 167 171 175 176 178 179 179 178 176 176 177 180 179 180 179 184 185 
186 186 186 190 194 194 196 201 201 206 210 208 208 210 210 212 214 218 223 
224 223 221 225 229 231 233 238 238 246 249 250 252 251 249 247 250 249 246 
245 245 244 241 238 234 232 232 232 232 231 227 226 225 223 222 222 221 219 
216 207 200 199 198 200 201 201 199 196 195 192 193 190 189 188 186 183 180 
174 171 171 170 175 178 182 185 186 189 188 187 190 186 183 181 179 178 179 
181 179 176 178 178 178 178 176 177 179 181 184 184 187 187 187 188 191 192 
192 190 194 201 207 209 211 210 208 211 208 209 215 219 219 220 220 221 225 
231 235 238 241 241 248 250 251 249 250 248 245 255 251 250 249 247 244 242 
240 237 234 233 232 231 229 221 216 217 218 217 217 218 218 214 208 206 203 
201 197 196 195 192 192 193 192 197 195 192 189 186 181 176 173 173 171 172 
172 174 175 177 180 185 186 185 185 185 187 187 184 184 184 183 177 176 181 
184 185 185 179 179 179 181 184 183 183 183 184 183 186 190 193 195 196 200 
206 208 208 209 208 209 209 211 215 218 220 219 219 223 225 231 234 236 240 
243 248 249 248 249 252 251 253 255 255 252 249 249 244 243 237 236 235 234 
232 227 226 223 218 213 211 211 212 217 218 216 212 207 204 203 197 191 187 
189 190 190 190 192 194 192 189 186 182 179 178 178 178 177 172 171 172 175 
175 178 179 182 184 189 192 191 192 192 190 187 184 183 185 184 184 187 186 
186 185 186 186 187 186 185 185 187 186 190 191 193 195 202 207 211 209 210 
208 208 210 213 219 221 224 224 226 229 230 237 240 239 239 241 241 245 247 
247 249 249 250 251 253 253 252 251 247 243 239 235 233 231 231 229 224 221 
216 216 215 211 214 216 218 218 216 208 207 205 198 196 193 192 192 192 193 
191 191 188 189 189 183 183 182 181 181 180 175 173 172 176 175 178 178 183 
185 188 190 191 194 192 190 191 190 189 191 190 189 188 188 189 189 187 187 
191 193 191 189 188 186 188 191 194 197 203 210 214 214 211 209 208 208 209 
215 218 221 223 223 228 233 236 237 238 239 239 237 239 242 244 245 245 243 
252 255 254 253 248 247 244 242 236 235 233 233 230 226 221 219 220 218 217 
217 218 220 220 219 213 209 204 198 196 196 194 192 191 189 187 188 188 188 
186 183 181 181 180 182 182 177 178 176 174 176 178 179 184 187 193 197 195 
192 191 188 189 188 187 189 192 190 186 185 186 185 184 182 183 188 193 192 
189 188 189 195 197 202 207 210 214 213 212 209 208 209 210 213 217 217 219 
221 220 227 229 230 229 233 234 235 238 238 242 244 244 242 255 255 255 253 
250 248 245 246 243 241 240 237 232 230 224 221 218 221 221 221 219 219 219 
220 213 208 205 203 201 201 189 186 186 184 183 185 187 189 190 188 187 185 
185 186 182 180 181 180 182 183 185 188 194 195 195 195 193 189 186 185 186 
183 185 185 189 188 188 186 187 189 190 190 192 194 195 192 190 188 191 197 
199 201 207 209 211 210 207 207 209 210 213 216 218 217 218 221 222 228 230 
231 231 234 237 237 237 240 240 244 246 246 255 255 254 253 254 249 249 249 
247 241 239 236 231 227 222 222 218 221 220 219 217 215 215 214 205 201 200 
200 198 197 190 185 181 178 180 183 187 192 192 190 188 186 188 188 188 190 
188 189 190 194 196 197 199 200 198 196 195 192 187 186 189 189 188 190 193 
191 189 187 187 191 191 194 194 193 192 189 188 188 188 194 198 198 203 204 
203 202 203 205 208 210 213 215 215 219 221 221 221 225 226 227 227 233 237 
237 238 238 243 247 248 248 255 254 253 252 251 248 246 246 242 240 239 237 
233 229 225 224 220 220 219 217 216 213 212 208 200 198 197 199 193 191 187 
184 180 180 183 185 189 191 193 193 191 189 188 191 190 192 194 192 192 192 
195 193 198 198 195 195 195 195 194 193 193 192 190 190 191 192 192 189 189 
191 192 193 195 194 191 188 188 188 189 194 196 198 199 200 199 200 202 207 
209 213 215 218 218 222 223 226 223 223 225 226 229 234 240 243 243 243 248 
248 249 249 251 252 251 248 246 244 244 244 242 241 238 234 231 229 224 220 
221 219 217 215 215 213 212 208 204 203 199 200 196 195 194 190 186 185 187 
186 193 195 194 194 192 191 191 191 192 193 196 190 191 191 194 193 194 195 
196 195 194 197 197 199 198 197 195 196 197 196 195 194 191 194 196 195 194 
194 192 192 191 193 193 196 194 195 197 199 201 203 201 204 207 211 211 218 
220 222 224 223 222 224 224 222 227 234 239 242 243 243 246 247 247 248 253 
254 253 246 244 243 239 238 238 239 238 237 237 228 224 220 220 219 219 218 
216 214 212 209 206 204 204 203 202 204 203 201 197 195 196 194 194 195 195 
196 193 191 191 194 198 197 196 192 190 190 193 193 193 192 193 194 196 197 
199 199 199 199 202 203 203 199 196 196 193 193 194 196 198 198 197 196 195 
200 201 200 199 199 198 199 199 203 203 203 204 207 213 218 220 222 222 220 
220 219 220 219 228 235 238 241 242 243 244 243 244 246 254 255 255 251 247 
244 241 240 238 239 237 237 236 230 229 226 224 222 217 220 220 217 214 208 
204 205 204 206 206 208 205 205 201 198 199 195 195 196 194 196 195 194 196 
199 202 205 205 200 195 194 194 193 193 194 193 195 195 194 197 197 199 199 
200 201 201 203 200 196 192 194 195 195 197 199 199 199 199 204 207 207 206 
204 199 198 201 204 204 207 208 208 213 213 216 215 214 217 219 219 222 225 
231 235 239 243 244 244 244 246 246 245 255 255 254 252 250 245 242 241 240 
237 237 235 232 227 227 228 224 220 215 214 213 213 214 209 207 207 204 204 
205 209 207 203 203 202 205 201 199 196 198 198 198 199 200 201 206 208 206 
204 200 197 195 196 194 192 195 197 198 197 198 198 203 204 203 203 202 202 
202 201 200 201 198 197 200 202 204 203 202 203 202 205 204 201 199 199 202 
207 207 208 208 211 213 215 215 215 216 218 218 220 223 225 230 236 243 246 
245 245 246 246 245 245 255 255 255 252 249 246 245 244 242 240 237 233 229 
226 224 223 218 218 219 218 216 213 214 213 212 209 208 206 206 206 204 206 
206 207 211 208 206 201 199 199 199 200 202 204 207 208 205 202 201 197 197 
197 199 202 205 206 204 204 202 204 204 204 203 202 203 207 207 204 206 205 
199 196 201 202 203 203 203 203 199 200 200 198 201 203 205 208 208 209 209 
211 214 214 213 214 217 219 220 222 223 228 232 238 244 246 248 248 248 246 
246 244 254 252 252 252 249 245 242 242 238 235 234 229 223 222 221 222 221 
223 222 218 216 216 214 213 213 210 207 207 204 202 205 204 203 205 209 209 
204 199 198 198 198 200 203 205 209 211 207 207 201 197 198 197 200 204 206 
208 206 205 202 203 204 207 205 206 208 210 210 207 205 206 207 207 208 208 
204 201 199 200 201 201 201 199 202 202 201 202 204 207 208 210 213 213 213 
215 214 215 218 222 225 226 229 237 244 244 248 250 250 250 251 250 252 253 
254 253 251 245 242 241 236 236 232 225 223 220 221 221 217 216 216 215 219 
220 216 213 212 210 207 207 207 210 210 212 212 210 209 207 202 202 201 199 
201 204 207 211 215 217 213 209 205 201 204 199 200 207 209 209 207 205 205 
208 208 209 211 213 211 213 211 206 203 203 202 204 207 208 207 204 201 202 
202 203 204 203 204 204 203 203 209 214 216 212 214 216 215 215 215 216 217 
220 224 227 228 231 235 242 245 250 250 251 253 253 252 252 251 250 247 248 
247 242 236 235 230 228 230 227 226 225 220 221 219 219 219 219 217 216 215 
211 207 205 207 208 209 210 213 215 212 209 206 205 204 201 205 210 211 216 
218 219 216 211 203 200 201 200 202 207 209 208 207 205 205 206 207 209 211 
211 209 209 207 203 202 202 203 205 209 209 207 205 202 201 200 202 202 205 
204 207 205 205 209 213 216 215 211 214 215 216 217 219 223 224 224 228 228 
231 233 242 247 252 252 254 255 255 249 247 247 249 249 248 246 241 239 237 
234 231 230 227 227 224 221 221 222 220 222 218 219 222 223 218 214 211 210 
213 216 214 216 215 214 211 210 207 206 205 208 213 216 219 221 222 217 216 
210 204 199 200 202 203 203 205 207 207 207 209 208 208 210 211 210 209 206 
206 205 204 203 203 208 209 207 207 207 207 206 204 202 205 205 206 208 210 
211 212 214 217 215 217 219 220 219 222 226 228 230 230 232 234 238 244 248 
251 251 250 254 254 253 253 252 253 252 249 244 236 235 234 234 233 231 226 
224 222 219 219 221 220 220 216 215 217 217 219 214 211 210 215 218 219 221 
216 218 216 214 209 208 209 210 213 215 217 219 219 218 218 215 209 207 206 
205 205 206 208 209 210 209 209 209 211 214 214 214 213 212 211 210 206 207 
208 209 210 210 208 208 210 210 210 208 209 209 208 205 208 210 210 212 219 
221 225 224 224 221 221 225 228 229 229 230 230 236 243 248 250 249 245 246 
242 254 254 255 254 251 248 241 237 238 235 236 234 229 226 225 225 222 221 
219 217 217 214 212 212 215 217 217 212 211 214 217 218 220 217 218 217 214 
213 211 211 213 214 215 218 221 221 218 219 215 212 210 211 214 215 215 213 
214 215 216 216 213 216 219 220 219 218 217 218 214 211 213 211 211 210 208 
208 208 209 210 210 207 207 208 208 208 209 211 215 219 221 224 226 226 225 
225 226 230 230 230 230 232 237 240 243 248 247 247 246 247 247 253 253 255 
253 251 248 243 238 236 232 235 232 229 228 228 227 225 220 219 216 215 214 
214 216 216 218 217 215 214 218 215 217 221 220 217 216 216 217 214 214 213 
214 217 218 219 219 219 221 213 212 214 214 217 218 219 219 220 218 217 216 
214 217 219 219 219 217 215 215 213 213 213 213 214 215 214 213 212 210 210 
209 209 212 214 214 213 213 214 214 217 219 224 226 225 223 223 222 229 233 
232 234 236 240 243 243 244 246 247 246 248 249 253 251 254 253 253 251 246 
241 237 235 233 230 230 229 226 227 227 226 220 219 217 214 216 216 219 221 
220 218 217 218 220 223 224 221 217 216 218 217 215 216 216 218 218 220 222 
222 220 218 214 215 215 213 216 215 217 220 223 223 221 217 215 214 215 214 
215 218 217 217 214 215 215 217 218 218 219 220 218 217 218 216 216 217 219 
218 217 218 219 216 218 219 224 226 226 224 223 223 226 229 231 231 232 236 
238 242 245 247 248 249 250 251 254 254 254 251 249 246 243 237 234 232 230 
228 227 229 227 228 226 225 220 221 218 217 220 220 221 218 218 219 217 218 
221 223 224 222 221 223 222 224 224 225 225 226 224 223 224 224 222 221 222 
223 222 221 222 221 224 226 228 228 226 221 218 218 221 223 221 220 221 221 
217 219 217 218 219 218 216 220 219 222 223 223 223 221 222 224 226 226 225 
225 225 225 230 231 227 225 223 223 222 225 227 226 229 231 235 240 248 251 
253 253 251 251 255 255 255 254 252 251 246 241 239 235 232 231 225 224 222 
220 220 221 220 221 219 220 222 227 228 229 227 222 220 221 221 224 223 225 
225 225 224 226 225 226 226 230 227 228 229 229 228 226 224 225 223 223 225 
224 226 226 226 227 227 225 223 224 225 226 224 220 222 224 222 222 224 222 
221 218 215 220 224 227 227 226 226 228 232 233 231 233 227 224 221 222 225 
225 224 222 221 222 222 225 227 227 233 236 238 241 247 251 254 251 248 249 
255 255 255 255 254 252 245 240 236 233 234 232 229 225 223 222 221 219 216 
217 218 221 223 226 228 230 228 224 222 224 225 227 227 225 226 227 225 225 
224 221 224 228 230 230 232 231 233 231 227 225 224 222 221 223 227 228 227 
228 225 226 224 225 227 227 225 223 222 223 223 225 229 230 229 225 222 227 
231 231 230 227 227 230 235 235 230 230 225 222 220 221 224 223 225 221 222 
223 223 226 229 231 231 231 234 240 244 246 246 245 245 243 254 253 254 253 
253 250 243 239 237 235 237 236 234 234 229 229 226 223 224 225 223 223 225 
227 230 233 233 230 226 226 226 226 227 228 229 229 227 224 221 220 219 222 
227 229 231 232 232 230 227 225 224 219 220 219 220 222 222 224 222 223 223 
224 225 227 226 224 223 222 227 228 232 234 235 233 232 234 235 235 236 232 
232 236 235 234 234 230 225 223 224 225 227 229 230 226 229 231 231 229 230 
229 231 231 231 235 237 246 247 247 249 249 255 255 255 254 251 247 237 235 
234 237 240 240 237 238 234 233 231 230 228 227 228 230 231 233 236 236 235 
232 228 226 225 227 228 227 229 229 228 225 221 219 222 222 226 229 230 235 
232 230 227 225 223 219 220 220 223 226 226 226 227 225 224 223 223 226 227 
228 229 230 231 228 228 232 234 231 229 228 229 230 234 236 236 237 237 236 
233 231 227 224 222 221 225 229 231 230 234 235 234 233 230 228 232 235 234 
238 241 246 246 248 251 252 252 253 253 252 251 248 239 237 235 236 239 239 
235 236 237 239 239 238 238 238 238 237 235 233 233 232 232 230 230 232 233 
233 231 229 229 231 229 226 225 222 224 224 229 231 232 230 228 230 228 228 
225 220 218 217 220 225 227 228 228 228 226 223 223 228 233 231 231 231 231 
230 228 231 232 232 232 232 229 229 230 231 234 236 238 237 235 233 232 232 
233 233 233 234 238 241 241 243 242 232 231 232 234 239 239 241 243 247 249 
252 255 255 247 249 251 248 249 246 240 237 236 236 239 239 238 238 237 236 
236 239 241 241 240 239 235 233 231 231 231 232 232 232 231 232 229 227 227 
229 227 227 228 229 231 227 232 235 234 231 228 230 231 230 230 226 224 226 
228 230 232 232 233 230 232 229 229 230 233 233 235 235 232 233 232 233 231 
229 229 231 232 236 237 235 236 237 235 234 232 231 232 234 236 234 235 234 
238 243 243 245 245 242 241 241 238 239 239 241 244 247 251 252 255 255 250 
250 250 248 247 244 241 239 240 239 240 242 244 244 242 238 239 244 244 242 
244 241 234 231 229 227 230 229 233 232 232 231 231 229 228 227 227 227 228 
231 233 230 233 236 236 235 232 231 233 235 235 234 233 235 239 239 239 236 
233 231 231 229 229 232 232 235 238 243 244 243 242 240 239 237 235 235 234 
238 239 239 238 238 237 234 230 228 231 234 237 239 243 243 245 247 246 246 
246 244 243 243 241 242 242 241 242 245 250 252 255 255 250 248 247 245 245 
240 237 238 238 238 239 242 244 244 244 241 241 242 243 242 243 244 236 231 
231 230 227 226 230 227 226 227 229 228 227 229 228 226 226 230 232 229 231 
236 237 238 235 235 235 237 238 234 237 240 242 243 243 239 234 232 233 232 
233 236 240 243 248 250 252 247 246 246 243 239 240 240 238 241 239 239 239 
240 240 242 240 238 237 237 242 245 246 247 247 248 245 242 241 238 238 239 
240 239 237 237 241 245 247 243 245 247 250 248 248 246 245 242 240 238 240 
240 243 247 247 246 245 241 240 241 243 243 241 241 235 234 230 229 229 228 
231 228 229 228 231 232 233 234 232 232 232 232 234 232 235 239 240 241 239 
237 238 239 241 241 241 242 244 243 240 237 232 232 236 238 240 239 241 242 
243 245 248 247 246 244 244 247 245 245 245 244 243 241 241 241 245 246 243 
239 236 236 239 243 243 245 246 247 246 244 245 243 241 240 237 236 236 235 
236 241 243 243 242 242 250 250 249 246 246 245 243 241 241 239 241 243 243 
245 246 244 241 240 240 242 242 240 238 234 231 232 231 233 235 233 233 235 
237 236 238 237 234 235 236 235 234 236 236 241 243 243 240 241 242 240 242 
243 244 245 246 245 243 241 235 234 237 238 240 244 244 243 242 245 247 245 
243 241 242 242 243 244 242 244 246 246 245 243 246 247 246 244 239 236 237 
241 243 243 244 247 249 247 243 244 241 239 239 235 235 235 235 238 240 238 
239 239 248 247 245 242 242 243 243 241 241 242 243 245 247 247 248 250 248 
246 242 241 239 236 236 238 240 241 240 239 240 239 240 240 238 238 239 239 
236 238 239 240 241 242 241 243 247 246 248 245 248 244 245 242 240 241 240 
241 240 238 232 231 233 234 237 242 241 240 243 244 244 243 240 240 242 241 
240 241 243 244 247 247 246 243 244 247 248 247 246 243 246 248 249 249 249 
251 251 251 248 246 245 244 243 241 240 239 239 241 244 246 248 249 247 246 
243 241 240 243 245 245 244 246 247 246 247 247 250 251 251 247 243 242 239 
239 238 239 244 245 243 244 244 243 243 242 241 242 242 241 241 243 246 247 
247 247 246 245 246 245 248 248 246 243 242 240 239 238 238 236 235 233 231 
228 227 231 236 240 242 242 242 245 242 243 242 243 242 239 241 243 245 247 
247 245 244 245 243 246 246 245 247 247 250 250 248 247 249 252 251 249 249 
244 242 243 243 242 242 242 245 249 249 245 247 246 245 246 248 249 249 252 
252 253 252 250 247 245 245 244 248 251 252 251 249 246 244 245 246 246 248 
248 246 242 242 245 248 247 245 245 245 245 248 249 251 251 250 248 248 248 
249 248 250 248 245 245 243 243 242 242 241 238 239 242 239 235 235 236 240 
243 244 244 241 241 244 246 246 246 245 244 245 247 248 251 250 246 245 241 
241 243 246 248 251 249 251 252 250 248 247 250 250 247 245 243 240 239 241 
242 244 246 247 248 251 252 252 253 247 246 245 246 249 250 253 254 253 249 
244 246 245 245 248 250 249 248 245 242 240 242 244 245 248 249 248 247 247 
247 248 249 250 250 250 250 251 250 252 252 252 252 253 252 255 251 251 251 
249 247 245 246 247 245 243 243 246 248 245 243 241 239 243 245 246 245 244 
243 242 247 249 249 248 248 249 252 252 251 252 248 244 237 239 242 243 246 
247 245 246 246 247 247 248 248 245 241 240 242 240 240 240 243 245 251 252 
254 255 254 255 255 246 245 247 248 249 250 253 255 254 251 247 247 246 247 
249 247 245 241 239 240 238 239 240 241 247 249 250 249 250 249 249 250 252 
250 251 250 249 250 252 255 255 255 255 253 252 252 252 249 252 250 251 251 
252 252 250 250 251 248 243 243 241 243 243 244 245 245 244 240 242 246 250 
251 250 252 254 255 254 254 253 250 244 243 243 243 241 240 241 243 241 244 
247 248 247 245 244 245 244 246 246 248 250 248 248 252 253 255 253 251 253 
253 244 244 245 249 252 252 255 254 254 251 250 249 248 248 249 247 245 243 
240 241 240 241 242 246 250 251 253 251 250 248 250 249 249 249 253 254 254 
254 254 252 253 255 255 254 254 255 255 252 253 252 252 251 251 254 252 255 
253 250 247 248 247 247 247 247 246 246 243 245 245 248 248 250 251 253 254 
255 255 255 255 253 249 248 245 245 243 243 242 243 245 247 247 247 245 246 
246 247 247 247 247 249 251 254 254 254 254 253 251 250 253 253 
