P2
#output from hocrtest
70 70
255
247 243 251 246 252 255 255 253 255 255 255 255 255 255 255 253 246 248 247 
234 241 246 238 251 250 252 251 245 253 254 252 244 253 253 252 255 254 255 
250 250 243 250 248 255 255 255 253 254 251 245 248 255 254 246 245 251 254 
253 252 242 252 254 251 244 250 249 234 243 243 247 249 248 251 250 252 254 
255 254 255 254 255 255 255 255 254 252 247 246 248 246 247 249 247 250 251 
250 250 246 252 252 251 248 250 252 252 254 252 252 250 250 246 244 246 250 
253 255 255 255 253 251 253 253 253 252 248 251 252 254 253 250 251 252 249 
247 248 245 237 239 237 238 255 252 253 254 254 252 250 251 251 249 251 252 
255 254 255 255 251 247 248 246 245 247 246 248 245 243 242 245 248 248 248 
246 248 247 247 250 249 248 247 247 247 247 248 252 252 254 255 255 255 254 
252 251 250 250 250 252 252 252 252 252 253 252 248 245 245 243 245 246 248 
249 254 254 254 255 253 253 249 249 250 250 251 253 255 255 255 254 248 248 
248 246 244 243 244 245 243 240 240 242 243 248 248 247 245 243 243 247 249 
243 246 244 244 245 250 251 250 250 254 254 254 254 255 255 252 251 252 252 
250 247 246 247 247 249 246 244 245 245 247 248 246 246 254 254 255 255 254 
251 246 244 247 248 250 253 255 254 253 251 248 247 245 243 243 242 243 242 
241 240 238 244 245 248 247 244 246 244 244 244 242 240 243 244 245 247 249 
252 249 248 248 247 248 252 255 253 254 255 255 253 251 248 248 244 244 247 
246 238 238 238 242 241 241 241 252 254 255 253 248 245 242 244 244 246 246 
251 251 248 246 247 247 246 246 244 244 240 237 236 237 238 239 242 242 245 
244 242 244 245 247 246 246 245 248 249 251 251 247 247 243 241 240 239 240 
247 251 253 253 254 251 251 248 247 246 243 243 244 245 242 237 236 238 242 
246 246 254 253 254 252 248 244 239 241 242 248 249 248 245 243 243 244 245 
247 246 246 242 239 236 237 236 238 240 240 241 242 243 245 247 245 245 245 
248 246 247 249 251 250 249 244 242 238 239 239 238 242 246 248 251 250 250 
247 246 244 245 241 242 242 240 236 238 237 238 240 244 246 255 255 255 252 
245 241 237 237 241 245 249 247 244 240 238 241 242 240 242 243 238 235 237 
237 235 235 236 235 235 236 237 240 242 242 243 246 249 246 248 246 247 244 
243 239 242 242 240 240 239 241 244 246 246 246 248 243 243 243 243 241 244 
244 239 238 239 242 243 245 244 244 255 254 251 249 244 240 234 236 239 242 
246 246 246 245 248 247 244 241 242 242 240 238 239 240 239 239 235 234 234 
236 237 237 234 234 234 236 237 238 241 237 235 236 236 236 239 239 241 242 
242 243 247 246 244 243 243 243 241 238 239 237 241 242 241 240 241 244 247 
246 245 244 255 254 252 248 242 240 235 233 238 239 242 243 245 247 248 246 
239 237 239 240 241 240 236 236 238 237 234 235 233 233 234 234 233 231 229 
232 239 237 240 237 235 236 235 234 235 232 232 234 236 240 244 242 237 236 
238 242 242 240 239 237 238 235 236 237 242 243 245 244 246 250 254 254 254 
249 243 242 238 234 238 239 235 237 241 240 242 238 234 235 233 236 239 238 
236 236 236 237 235 232 232 232 233 233 232 235 235 238 241 238 237 235 234 
235 230 230 230 229 230 232 232 236 238 238 235 234 236 240 240 239 237 235 
236 235 235 237 242 245 245 244 245 248 249 252 251 249 246 247 244 242 242 
240 236 232 233 234 236 230 226 226 227 229 232 232 230 228 230 228 227 226 
226 231 233 234 232 233 235 236 236 236 234 234 233 234 228 229 230 228 226 
225 225 229 230 234 234 234 236 238 239 238 238 236 234 234 235 236 238 243 
245 241 242 239 253 254 253 254 251 248 245 241 238 236 236 234 231 227 229 
229 227 223 224 224 224 229 228 226 225 226 223 223 223 226 231 234 234 233 
230 231 231 230 231 234 232 229 226 226 227 227 225 226 226 229 229 230 233 
231 229 231 231 231 230 230 232 232 232 236 241 244 248 248 248 248 255 255 
254 255 254 248 248 248 242 242 240 236 233 231 232 231 227 224 223 220 222 
227 227 226 225 223 220 220 222 225 227 231 234 232 233 235 234 234 230 231 
228 223 223 226 224 222 222 228 230 231 230 229 229 228 226 224 225 225 228 
225 227 229 232 237 243 245 248 248 248 245 255 255 255 255 253 248 247 249 
246 245 242 236 234 232 234 232 227 225 224 222 221 225 229 232 229 228 223 
223 225 227 224 231 232 229 228 232 231 231 229 228 220 220 222 221 223 223 
226 229 227 228 229 229 227 227 224 221 222 223 224 228 231 232 233 238 243 
247 247 253 255 255 253 253 254 254 252 249 247 244 240 240 237 234 234 233 
234 231 225 225 224 223 222 223 229 231 229 229 226 227 226 228 231 237 235 
233 230 231 230 225 219 221 218 219 219 220 224 224 223 224 223 223 225 225 
225 228 227 223 222 223 223 227 229 229 229 236 241 246 244 249 250 253 255 
254 253 254 255 251 248 244 240 236 234 233 234 232 231 228 221 217 216 217 
214 217 226 233 232 227 226 226 225 227 228 231 231 229 229 227 228 226 224 
225 219 219 221 225 228 225 226 227 224 221 223 226 224 225 225 217 216 221 
223 228 231 230 228 231 237 246 249 251 251 252 253 254 255 254 251 249 247 
243 239 235 232 230 231 234 232 227 224 219 217 217 214 216 219 227 230 229 
226 226 225 224 225 225 227 231 231 228 229 229 227 226 220 214 215 220 222 
221 223 225 223 223 219 220 220 219 223 218 219 220 225 227 231 231 231 233 
239 245 246 250 249 249 255 255 255 254 252 249 245 241 241 239 240 239 237 
239 235 228 228 226 221 221 215 215 214 224 224 223 220 219 219 216 214 217 
219 220 221 226 223 227 227 223 218 215 213 217 216 216 216 217 216 217 216 
216 219 220 221 221 220 220 225 227 231 234 235 238 242 244 248 252 252 253 
255 255 255 254 250 247 245 243 244 242 242 242 238 237 235 232 229 224 223 
220 217 214 216 223 226 223 221 221 221 219 219 218 219 218 217 221 224 228 
225 223 221 217 214 215 211 213 215 215 214 213 215 214 212 216 219 218 222 
221 222 228 234 235 237 238 242 245 247 252 253 252 254 255 255 251 246 243 
240 238 238 239 242 242 240 238 235 234 230 229 227 222 219 219 221 223 224 
220 219 220 215 215 214 213 216 218 218 218 218 221 221 223 220 215 212 210 
208 209 209 213 214 216 217 220 217 215 219 221 226 228 231 233 234 236 238 
239 240 243 246 250 253 253 254 252 254 255 253 250 245 239 238 239 239 241 
240 237 235 232 230 225 223 219 221 222 220 219 221 218 215 215 211 213 211 
207 210 215 216 215 215 214 219 223 222 215 212 209 209 209 211 212 211 212 
215 215 212 214 217 220 224 229 232 234 235 237 238 237 239 243 246 246 248 
249 254 253 253 252 250 246 245 239 237 239 240 240 235 233 231 229 226 221 
223 220 219 218 216 215 215 214 212 211 204 204 205 204 207 210 215 215 214 
215 218 221 218 214 210 206 205 207 207 209 208 209 210 211 210 215 218 222 
224 230 231 231 228 230 231 233 237 244 248 249 252 253 253 254 255 254 252 
249 248 245 242 241 238 234 230 229 226 228 223 222 221 222 218 214 213 214 
212 212 209 208 206 200 200 202 203 209 216 216 216 217 214 217 214 213 209 
206 204 202 205 207 211 214 215 212 212 215 220 222 225 229 232 234 232 231 
231 235 237 243 247 249 251 252 252 252 255 255 252 250 246 243 237 233 233 
230 228 230 229 229 223 220 218 217 217 214 211 209 205 209 208 208 206 202 
198 200 204 206 211 212 214 212 214 215 212 211 204 205 204 206 213 216 216 
215 216 216 217 219 221 224 228 230 232 233 234 232 234 237 238 241 245 250 
254 255 254 255 255 254 253 250 244 245 242 239 238 235 235 234 230 227 221 
214 212 212 212 214 210 206 205 204 206 207 205 200 194 193 193 199 205 211 
214 213 213 214 212 210 205 207 207 210 215 220 219 219 218 221 222 224 227 
229 232 231 232 231 233 236 240 242 241 241 244 248 248 248 252 252 253 252 
255 253 248 247 244 242 240 239 238 237 233 230 225 218 214 212 210 211 210 
209 205 205 205 205 204 197 196 195 196 198 208 212 209 209 209 210 210 209 
209 211 211 212 213 219 218 219 219 221 225 228 232 233 231 232 232 232 230 
234 240 244 247 247 247 248 251 252 255 255 254 253 255 254 249 246 241 239 
239 237 235 235 234 231 226 217 214 213 208 207 206 206 206 206 205 201 196 
194 193 194 196 203 206 204 203 203 204 202 205 207 210 210 211 211 209 213 
216 215 214 215 219 223 226 225 234 235 236 234 230 232 237 243 247 249 250 
247 246 246 255 255 255 251 251 252 247 242 239 236 236 235 236 236 237 233 
225 215 212 210 209 211 209 207 206 206 204 198 192 189 189 188 192 199 200 
200 201 205 206 205 203 204 207 208 209 211 211 214 216 214 213 217 221 223 
226 227 229 232 236 235 236 238 241 246 248 253 250 246 244 245 255 255 255 
255 253 251 244 238 235 232 234 233 230 230 232 231 226 218 215 212 210 208 
208 206 204 204 204 200 195 192 190 190 194 196 198 197 197 201 201 200 199 
200 202 203 205 209 211 214 219 219 218 220 223 220 221 222 225 231 233 233 
236 239 241 244 250 252 252 250 246 246 254 255 254 251 250 249 246 241 237 
236 233 229 230 231 230 225 224 215 214 208 202 200 203 205 205 204 202 199 
195 191 191 193 193 190 192 192 194 194 195 198 199 201 203 201 204 209 210 
214 219 219 218 220 221 218 220 219 221 226 231 232 234 236 235 239 249 253 
255 255 255 255 251 250 250 249 247 245 244 235 234 236 236 234 234 235 234 
232 230 224 225 220 210 211 208 206 207 209 207 204 199 196 194 193 187 185 
187 188 189 192 198 199 200 201 201 202 206 208 205 207 212 214 218 221 220 
218 215 218 223 227 229 227 233 236 239 243 251 254 255 255 255 255 249 250 
247 244 240 241 239 235 229 232 233 234 233 230 231 234 231 221 220 218 216 
216 214 214 211 211 209 200 196 194 194 193 189 186 187 187 184 188 194 196 
198 199 200 201 201 205 204 204 206 208 215 216 214 212 214 220 225 230 231 
233 236 240 241 242 248 249 252 252 253 252 250 250 248 244 239 236 234 228 
226 223 222 224 228 229 228 230 228 221 218 217 217 219 214 218 213 214 214 
209 203 192 190 189 186 185 183 184 183 183 186 190 197 199 201 199 201 203 
206 204 205 208 211 210 211 208 209 219 223 228 229 234 236 239 238 245 245 
250 252 252 255 255 254 255 253 252 246 240 237 234 228 228 227 227 231 235 
235 233 229 222 221 220 215 214 211 211 210 209 210 211 205 201 195 191 189 
186 186 185 183 185 188 194 200 202 201 202 200 202 204 202 205 206 209 213 
216 217 218 224 225 226 226 232 236 236 238 240 243 249 250 249 250 250 252 
252 252 250 248 244 240 236 230 230 231 232 231 232 231 229 225 221 214 211 
205 203 204 206 213 212 212 208 203 200 194 192 190 186 186 189 191 190 190 
196 199 200 200 203 202 206 207 207 209 210 210 214 218 223 224 224 225 227 
230 235 236 238 240 242 245 248 248 250 250 250 250 249 246 245 244 243 242 
238 235 235 231 230 230 229 228 229 223 218 214 211 208 204 204 208 215 217 
216 209 204 203 198 194 191 189 191 193 190 192 193 197 198 199 199 205 207 
208 211 208 211 210 212 218 220 224 226 227 227 228 227 234 236 238 239 238 
241 245 246 247 247 249 249 246 244 242 242 243 245 244 241 239 234 229 231 
227 227 227 222 217 212 209 206 202 201 211 212 214 207 204 201 200 197 195 
192 192 193 192 189 189 188 190 191 196 198 205 204 209 211 212 209 212 212 
217 222 225 225 227 227 228 230 232 232 233 232 230 236 241 242 244 248 249 
248 243 239 241 240 242 244 246 245 242 237 233 231 227 226 224 221 218 217 
218 216 212 209 209 207 206 198 197 194 191 193 195 195 194 193 194 193 192 
189 187 184 184 192 198 201 205 209 212 213 213 216 220 222 226 225 224 225 
225 225 226 227 229 231 233 237 239 241 241 245 248 248 245 240 237 239 238 
238 242 244 242 238 234 232 229 227 224 220 219 218 219 219 218 212 208 207 
204 197 193 190 190 187 190 191 192 194 195 194 195 190 190 192 192 198 200 
202 202 203 207 208 211 216 222 222 225 223 224 224 223 222 224 227 230 236 
239 240 242 242 242 243 244 249 247 240 238 235 236 236 240 244 241 240 234 
232 228 229 227 225 225 221 218 215 212 213 210 205 206 202 200 194 190 185 
185 189 193 197 196 195 191 187 189 193 191 194 202 209 210 211 209 207 207 
212 217 219 221 221 224 227 225 226 227 231 236 239 244 247 248 246 245 244 
247 248 246 242 239 238 239 239 239 239 242 236 236 235 232 230 229 226 225 
222 217 213 212 214 213 208 207 207 201 200 194 193 191 192 196 197 198 198 
197 195 193 195 195 200 204 211 213 213 213 210 211 212 216 218 223 221 223 
229 228 229 230 233 239 244 248 249 250 249 250 251 252 250 247 242 239 237 
235 235 236 238 239 236 236 233 232 231 231 227 224 218 210 208 210 208 206 
203 203 201 200 195 193 193 194 198 201 205 199 197 198 200 200 200 202 203 
203 207 212 212 212 214 215 216 216 219 220 224 226 227 229 230 229 231 237 
241 248 248 248 250 253 254 255 253 252 251 249 245 244 243 243 242 239 235 
234 232 229 230 230 226 223 221 212 208 207 208 210 206 201 201 200 200 199 
199 201 202 203 204 202 199 198 201 203 204 202 201 200 203 209 210 210 213 
215 218 217 221 222 224 225 226 229 229 232 231 230 231 235 240 245 250 253 
255 255 253 252 251 250 246 246 243 240 242 241 239 237 228 228 225 221 217 
218 217 213 210 210 210 212 213 213 211 207 208 211 210 207 205 204 202 201 
198 198 200 202 204 206 204 199 202 209 210 210 213 216 219 218 220 220 224 
225 228 229 230 230 230 231 231 235 241 247 252 253 254 255 255 255 252 253 
251 248 240 239 243 239 237 236 229 226 221 221 218 219 220 219 213 210 210 
212 216 219 217 216 214 216 215 214 210 206 202 198 197 199 201 204 211 210 
208 206 206 208 210 210 211 217 220 219 219 217 220 221 230 229 228 226 226 
227 233 236 240 245 249 249 247 242 252 252 252 251 250 247 243 240 236 228 
228 228 227 228 222 225 224 223 223 223 218 216 217 216 216 220 221 221 215 
218 212 211 205 205 204 203 206 209 206 209 212 212 210 210 210 213 211 211 
211 213 215 216 219 220 226 230 234 232 228 227 223 227 234 237 242 245 247 
251 252 252 255 254 251 247 244 242 241 239 233 228 226 222 220 221 222 225 
225 228 225 221 218 217 214 213 214 217 223 223 221 218 212 210 209 212 211 
210 211 214 212 211 211 213 215 214 215 220 216 213 212 214 214 217 218 220 
227 229 232 233 231 228 225 228 232 238 241 249 250 251 252 251 255 255 255 
252 250 248 245 242 239 231 224 223 220 222 225 225 224 226 223 220 220 220 
218 216 220 224 228 228 225 223 221 219 217 215 217 216 216 219 216 214 212 
213 213 218 219 218 212 209 213 212 216 219 217 216 221 225 230 232 232 231 
230 231 236 239 241 245 248 249 250 251 255 255 255 255 252 250 246 244 243 
239 235 233 234 230 230 229 227 223 221 221 220 218 215 214 219 223 228 229 
227 228 221 220 215 211 216 217 218 219 219 217 214 213 213 217 220 221 219 
216 212 212 215 217 215 216 219 224 228 227 231 230 231 233 237 239 240 243 
245 249 250 251 255 255 254 251 249 249 245 244 241 241 240 238 236 234 232 
233 228 222 219 218 219 218 212 217 222 224 226 227 226 227 221 219 216 217 
220 218 217 218 217 217 214 217 220 225 223 220 219 216 215 218 218 217 215 
216 219 226 228 229 231 230 231 236 240 243 248 248 248 253 254 255 255 255 
254 254 253 251 245 243 242 244 244 237 234 233 231 231 228 223 219 218 218 
217 220 221 222 223 227 227 224 220 218 219 219 218 219 221 221 220 220 217 
217 223 221 219 216 212 215 215 215 216 215 211 213 214 217 222 224 226 229 
230 232 235 240 242 249 247 247 252 252 255 254 253 252 251 252 252 246 242 
240 245 245 238 238 236 232 233 232 226 219 217 215 216 219 222 224 226 226 
224 222 220 217 223 222 225 225 222 222 221 221 221 219 222 222 222 220 215 
218 217 215 213 209 209 210 212 215 218 219 224 225 226 232 235 238 243 245 
244 248 251 249 251 252 251 250 248 250 249 244 244 243 243 239 239 237 233 
234 233 229 225 221 218 216 217 219 222 227 229 226 220 217 215 214 220 224 
226 223 224 220 221 220 221 223 224 224 223 219 213 217 215 217 217 215 211 
210 212 216 215 215 219 224 227 234 235 235 238 242 243 245 246 243 242 248 
248 246 247 246 245 245 241 241 243 242 240 236 233 232 231 228 229 228 226 
227 226 224 224 225 228 223 219 216 214 218 221 226 230 227 227 226 224 223 
223 222 223 224 225 225 222 223 223 222 221 220 220 219 221 224 224 224 225 
224 225 228 230 234 240 245 245 247 250 250 248 249 247 243 242 239 238 236 
234 233 235 231 228 227 225 227 227 226 231 231 229 229 228 225 224 220 219 
216 213 215 215 223 225 228 229 224 222 220 224 223 223 220 221 225 226 227 
228 224 222 220 218 222 225 225 226 229 226 227 227 227 225 226 233 236 240 
243 244 247 249 251 250 248 248 244 238 237 235 232 233 230 229 227 225 223 
219 224 225 229 231 231 230 231 232 227 224 219 219 216 220 223 223 226 226 
227 226 222 221 223 222 220 221 220 223 226 226 227 227 223 222 219 219 220 
224 225 224 227 225 228 231 232 230 232 235 236 241 243 243 243 245 249 246 
255 252 252 249 247 242 238 234 234 233 230 229 224 220 225 227 230 230 230 
226 227 229 224 221 219 214 217 225 230 229 228 232 232 229 226 225 227 228 
227 227 226 231 233 233 233 231 229 226 220 221 218 222 222 222 225 228 233 
237 237 235 234 237 239 241 242 241 240 240 244 245 254 255 254 253 249 244 
242 239 237 237 236 235 234 230 230 231 228 228 229 224 226 228 225 222 222 
221 224 230 230 235 230 232 229 228 228 228 228 228 229 227 228 233 237 234 
233 231 232 230 228 228 226 225 223 225 229 231 233 234 237 235 231 230 233 
237 237 238 239 238 238 240 250 250 251 252 252 249 247 245 242 243 241 238 
238 235 233 231 228 226 229 230 228 230 229 228 227 228 232 236 237 234 231 
229 228 230 228 228 227 228 229 229 230 235 237 238 236 235 235 237 235 234 
232 230 230 228 231 233 234 229 227 227 225 227 229 232 235 238 240 242 241 
236 249 249 251 250 248 248 247 245 242 243 243 243 242 240 237 232 230 231 
231 234 234 238 235 231 233 229 230 236 236 235 233 230 227 226 227 227 230 
231 232 234 237 240 239 235 236 235 238 240 238 237 233 230 233 235 234 233 
230 226 224 222 224 228 233 234 237 240 243 247 249 249 254 251 252 251 250 
246 244 240 240 241 244 246 246 246 239 235 234 235 233 237 237 239 239 233 
232 233 230 229 229 230 231 232 227 226 228 231 231 234 235 235 237 242 242 
241 239 241 239 236 232 228 227 233 236 237 239 237 233 229 228 229 229 230 
233 237 240 243 244 244 246 243 254 252 251 252 251 245 242 239 239 238 241 
242 242 241 236 231 234 236 238 240 242 239 240 237 233 234 231 232 231 233 
237 234 230 224 227 234 235 239 240 241 244 241 243 243 245 244 240 237 234 
234 234 234 235 239 240 237 233 233 234 233 233 235 239 243 248 248 253 251 
253 254 255 254 252 253 249 247 243 241 242 238 242 242 243 242 241 239 244 
248 248 246 248 243 241 240 237 233 232 237 239 240 240 237 230 228 224 232 
236 240 239 240 241 241 238 236 237 240 240 236 236 240 241 244 245 248 248 
246 243 237 237 234 232 234 240 244 245 251 253 254 255 255 255 255 253 252 
249 246 243 241 243 243 244 242 242 242 244 244 246 249 249 245 245 243 243 
239 237 241 242 245 246 245 245 242 239 239 239 241 243 243 244 244 244 245 
244 242 242 242 242 239 242 244 244 250 250 251 251 248 245 245 244 239 236 
235 239 243 247 251 255 255 255 253 252 250 247 248 249 250 246 244 246 248 
251 248 246 245 245 245 247 246 247 247 247 246 247 245 244 242 244 246 243 
241 243 242 242 242 244 243 244 242 245 242 242 242 244 238 241 243 245 244 
243 244 243 246 248 252 255 253 250 248 247 244 237 238 241 246 249 255 255 
253 255 255 247 245 247 248 248 246 242 239 241 247 251 250 246 243 242 244 
245 248 246 246 247 247 251 251 249 248 249 249 247 246 246 246 244 243 244 
242 244 245 244 247 248 247 246 242 242 244 247 247 243 239 240 240 243 246 
249 247 247 246 246 243 236 237 240 245 246 251 255 252 252 255 247 246 248 
247 245 244 238 235 237 244 246 245 244 240 241 241 243 245 249 249 249 248 
251 252 251 250 252 253 252 254 251 251 247 246 249 244 243 244 242 243 244 
246 248 248 249 251 251 249 246 243 242 245 244 245 246 246 244 244 246 246 
245 244 246 247 248 253 255 253 255 255 253 251 251 250 249 245 241 239 240 
245 246 243 242 239 242 241 242 249 255 250 250 249 252 250 247 249 253 254 
254 255 253 255 249 244 246 244 244 241 240 242 244 244 250 253 253 254 255 
252 251 244 243 243 245 243 243 242 241 243 246 249 248 248 248 248 250 254 
255 255 255 254 255 255 255 255 251 244 244 244 244 246 246 246 244 241 244 
245 247 251 254 254 251 246 247 249 249 252 254 254 254 255 255 252 250 245 
245 244 242 238 238 239 242 246 250 253 253 252 255 254 251 249 247 249 248 
245 245 242 242 245 246 250 247 248 250 249 250 254 255 255 255 255 
