P2
#output from hocrtest
100 100
255
255 248 251 246 249 248 252 251 255 254 250 252 254 255 252 249 247 246 240 
228 249 251 246 253 248 255 253 249 255 255 255 250 251 252 249 250 245 245 
243 246 242 255 253 252 255 254 248 248 244 237 244 251 254 244 247 254 255 
255 253 243 250 255 253 245 249 245 241 246 250 252 253 245 250 246 249 253 
255 255 255 255 255 255 254 255 254 255 252 235 253 254 254 253 251 254 255 
255 251 233 250 250 255 252 251 249 248 246 248 250 252 252 250 249 250 251 
250 248 246 246 245 244 251 253 255 254 251 254 253 251 254 255 254 251 249 
250 248 245 238 239 239 243 248 254 254 252 252 251 247 248 246 243 247 251 
253 250 252 253 255 255 255 252 250 253 252 249 248 244 243 246 248 250 253 
247 250 250 249 252 254 254 255 255 254 254 253 255 254 255 252 246 252 253 
253 251 251 252 253 254 250 247 251 253 255 253 252 247 244 243 245 247 249 
250 249 249 250 250 248 247 244 244 244 244 249 251 254 255 255 255 253 253 
254 254 254 252 251 250 246 243 240 241 242 246 251 252 251 249 247 246 246 
244 243 242 243 247 251 251 252 250 252 253 255 255 254 255 254 252 248 249 
249 247 246 250 252 249 250 251 252 254 255 255 253 254 253 252 253 255 253 
253 251 245 249 252 255 255 254 255 253 252 249 246 244 240 255 254 253 249 
248 247 248 247 246 246 247 246 246 245 245 243 239 238 241 244 246 252 255 
255 255 255 253 253 253 254 255 252 255 253 251 249 246 244 243 244 249 249 
245 241 244 243 244 243 244 247 248 251 252 252 251 249 249 249 250 251 253 
255 254 251 248 250 249 247 245 249 250 250 248 246 247 251 255 254 250 249 
248 246 247 251 252 252 249 246 250 255 255 254 251 251 248 249 246 243 242 
243 255 253 252 249 247 247 244 241 242 242 245 246 246 245 241 239 236 237 
240 243 245 248 252 253 252 251 251 252 253 254 255 252 250 249 250 248 246 
246 247 247 247 246 245 244 243 245 246 247 248 248 251 250 249 249 246 248 
247 246 245 247 250 250 250 250 248 244 245 244 242 245 248 249 248 248 249 
251 250 251 250 246 244 242 243 247 250 247 244 243 246 251 253 254 253 253 
248 248 245 244 244 244 254 253 250 247 242 241 241 236 237 240 241 241 245 
245 240 239 236 235 234 238 241 247 250 251 251 252 252 253 251 251 251 248 
247 244 245 244 243 243 243 243 245 248 245 242 242 241 244 245 246 246 248 
248 246 244 244 244 244 245 243 245 247 246 244 243 243 240 240 243 242 244 
247 246 247 245 246 248 248 248 248 244 239 239 240 244 246 248 244 243 244 
248 249 250 247 243 240 241 241 240 243 241 250 252 251 251 249 245 242 238 
239 239 241 244 246 247 244 240 238 237 236 236 242 246 249 252 252 254 253 
250 246 245 246 246 246 243 240 238 236 235 242 244 245 245 243 244 243 241 
241 242 244 245 246 245 240 240 242 242 240 246 245 245 244 240 238 237 237 
239 241 240 241 241 242 243 241 240 239 239 240 241 242 242 242 240 238 236 
240 242 241 239 241 243 243 242 242 241 241 241 242 244 246 249 255 255 255 
254 250 246 240 234 237 238 237 240 243 245 247 243 239 238 235 237 240 244 
246 248 250 252 252 249 247 245 244 244 243 242 240 239 240 239 241 240 240 
239 236 236 238 239 240 240 242 242 245 242 239 241 241 241 239 242 242 241 
240 236 236 235 236 239 240 239 237 237 238 242 241 239 234 236 237 240 241 
239 237 235 236 237 238 236 234 235 235 234 236 237 239 239 241 243 244 246 
247 249 255 255 255 255 252 250 245 242 241 239 240 240 238 240 244 240 239 
239 237 239 239 242 242 244 248 251 250 246 244 241 239 240 241 237 238 237 
237 234 235 234 238 237 237 237 238 238 238 238 237 238 240 239 238 239 240 
241 241 240 239 239 236 235 231 230 232 234 234 235 234 234 237 240 241 238 
234 233 233 236 237 237 236 233 233 235 235 235 232 228 226 228 229 230 235 
239 241 244 244 244 244 242 254 255 254 254 253 250 246 242 242 241 240 240 
236 237 237 235 239 240 239 242 240 241 240 242 247 248 246 240 237 233 234 
236 237 238 239 236 235 231 232 232 235 237 239 240 240 241 237 236 236 238 
237 237 235 236 232 232 233 235 238 238 234 233 231 232 232 233 234 235 234 
231 230 232 234 233 233 232 230 234 234 235 237 234 233 234 234 231 230 229 
225 228 229 229 233 237 243 247 248 246 248 247 250 252 250 255 252 249 244 
240 239 237 233 234 234 234 233 235 238 240 242 242 239 240 239 240 241 242 
242 239 234 231 233 234 235 235 235 234 231 229 228 230 232 233 234 239 237 
235 231 233 234 236 236 235 235 234 232 232 230 228 230 233 232 233 231 233 
235 233 233 234 235 231 231 232 234 234 229 232 228 232 232 235 236 236 234 
233 233 235 234 231 225 223 223 227 232 236 243 245 246 247 250 246 247 249 
249 251 253 248 243 240 237 234 232 232 231 231 232 233 233 233 235 239 241 
241 240 238 240 243 242 239 236 235 232 231 232 231 232 233 230 229 227 229 
229 229 232 235 235 231 232 228 229 233 234 234 236 234 235 231 230 229 231 
233 232 234 232 235 234 231 231 231 230 229 229 233 235 237 233 229 228 230 
231 234 235 233 232 230 231 235 234 232 229 226 226 230 235 237 240 248 250 
253 253 254 249 246 248 248 248 245 243 239 235 234 232 232 232 233 231 230 
230 229 232 236 239 238 236 238 240 241 243 241 237 236 233 228 230 233 234 
234 235 237 236 238 234 229 230 233 233 229 228 226 230 230 231 231 230 230 
231 232 230 231 232 231 232 232 231 231 232 232 230 228 229 229 231 234 237 
238 237 234 234 233 231 232 232 231 230 230 229 229 232 231 229 226 227 230 
233 236 239 249 248 254 253 251 247 245 246 245 245 242 241 241 238 237 234 
231 231 230 230 229 226 225 226 229 234 233 232 233 235 234 238 240 237 238 
234 231 231 234 236 236 237 240 239 238 236 235 232 232 231 228 226 224 228 
230 231 230 230 231 232 231 233 233 235 233 232 230 229 228 227 230 230 229 
228 228 228 229 231 231 228 230 232 230 228 228 228 228 225 225 224 223 229 
228 226 228 230 230 236 240 241 249 248 251 251 251 249 248 247 241 238 235 
235 238 240 238 237 234 231 230 230 230 228 229 227 223 226 226 229 229 230 
229 233 236 232 234 232 230 230 232 232 232 234 234 233 234 234 229 227 228 
226 227 224 223 225 227 228 228 227 227 228 226 226 225 228 228 228 231 231 
228 226 227 226 224 224 223 225 226 231 232 234 231 231 229 230 230 230 228 
225 225 227 227 230 229 229 228 233 235 238 241 245 249 247 249 243 244 245 
243 243 242 240 238 238 238 239 238 236 230 232 229 229 228 229 229 227 222 
222 221 219 219 221 224 226 228 230 234 234 232 231 228 225 225 222 222 222 
224 224 224 225 226 227 223 223 222 222 227 229 229 226 227 227 224 224 224 
226 229 229 231 232 230 228 227 226 224 219 221 225 225 226 228 229 228 228 
227 228 229 229 226 223 223 223 227 228 228 226 224 227 231 234 239 243 247 
247 246 240 239 243 242 241 239 239 240 243 242 240 236 234 234 233 232 233 
232 232 231 230 230 231 225 222 220 218 221 221 224 227 229 227 224 227 227 
224 225 222 222 221 220 220 222 221 224 225 222 223 223 221 226 227 227 227 
228 227 224 224 227 227 228 227 224 224 225 227 224 224 223 220 218 221 222 
222 223 224 227 226 225 224 221 219 218 220 221 224 229 232 232 228 226 227 
227 232 241 245 246 244 245 245 246 246 245 243 243 241 242 242 242 240 239 
236 235 237 235 236 233 234 231 230 229 231 225 217 216 217 218 220 223 224 
223 221 221 221 223 223 224 223 223 221 222 223 220 220 223 221 220 222 222 
223 226 226 228 230 230 230 226 222 226 226 225 226 225 226 226 226 223 218 
214 217 217 223 226 225 222 223 223 223 223 221 215 212 213 216 218 223 228 
235 235 234 234 233 233 234 240 245 249 251 248 247 250 247 250 249 248 246 
246 244 241 241 238 236 234 235 233 231 224 223 223 224 225 224 219 218 215 
216 220 220 221 221 219 219 222 224 224 223 221 220 218 217 216 217 221 223 
225 223 224 224 223 220 219 221 224 224 224 230 227 224 225 225 224 224 223 
223 225 225 224 222 223 221 220 222 226 228 227 226 223 220 218 215 212 211 
215 220 222 228 229 232 235 235 234 233 234 234 238 243 247 252 252 250 252 
254 253 250 251 250 248 246 239 238 238 237 231 231 230 229 225 222 218 216 
217 219 217 218 219 217 217 217 218 217 214 217 221 223 224 226 224 217 213 
212 209 212 214 215 219 219 223 225 224 222 220 216 215 215 217 219 219 218 
216 216 217 219 218 216 215 217 222 222 220 219 221 220 220 223 224 222 221 
215 213 211 210 213 217 221 224 228 232 233 230 228 228 229 225 231 235 237 
244 249 250 253 254 255 254 254 250 247 247 244 238 238 237 233 229 229 229 
228 225 220 215 213 209 212 215 217 215 212 216 218 217 215 217 219 222 222 
220 224 222 216 210 209 207 211 214 214 216 219 224 224 224 224 221 217 215 
212 211 211 212 215 213 214 212 213 212 209 211 212 215 219 220 220 215 213 
213 215 216 217 220 220 219 219 219 217 219 221 224 227 233 231 231 232 233 
235 233 239 239 240 245 249 250 253 252 255 253 252 250 246 244 243 240 235 
233 231 227 227 230 228 223 219 213 211 207 207 210 212 213 212 212 212 210 
209 207 211 219 220 218 219 216 215 211 211 211 213 215 216 214 217 222 224 
223 223 218 217 216 215 211 212 214 213 214 215 213 212 210 205 204 205 208 
211 210 210 208 206 207 211 213 215 218 221 218 216 218 217 218 220 224 226 
230 231 233 236 237 235 237 238 240 244 248 250 252 254 255 249 249 247 247 
247 243 241 238 236 234 230 228 226 228 227 221 215 213 212 210 210 214 214 
212 209 206 204 205 206 202 206 213 216 216 218 218 216 214 213 213 213 212 
211 209 211 217 218 215 212 211 214 217 217 215 216 217 216 214 213 212 213 
211 205 204 202 203 205 202 201 202 203 204 205 207 211 215 214 216 217 217 
216 216 217 221 223 228 229 229 232 235 242 246 244 244 247 249 252 255 255 
255 249 249 249 247 246 241 238 235 235 233 230 230 228 226 222 217 214 212 
209 206 206 208 209 208 204 203 202 200 201 199 204 208 210 214 213 214 214 
212 211 206 207 208 207 207 208 210 210 205 206 208 211 214 215 213 214 214 
216 212 212 213 213 208 203 199 198 201 202 204 202 202 204 201 201 203 208 
211 214 214 214 214 216 219 222 226 227 229 231 233 235 243 247 249 247 250 
253 254 255 255 255 255 245 246 247 244 243 240 241 239 239 238 236 234 231 
228 227 223 216 216 215 215 217 213 208 205 202 201 201 198 200 201 204 206 
204 206 206 209 209 207 204 207 209 207 205 205 209 211 211 209 211 210 212 
214 215 212 214 212 212 209 207 206 208 207 203 203 202 203 207 207 202 201 
197 195 198 198 204 204 208 208 212 214 216 219 221 221 223 229 231 232 233 
240 245 251 250 252 251 252 253 255 255 255 239 241 241 243 241 240 240 239 
237 236 235 234 231 231 229 227 222 222 221 221 217 213 206 202 203 202 201 
199 201 201 201 203 202 202 203 206 204 202 202 204 207 205 204 205 210 215 
212 214 211 212 214 215 215 208 210 209 205 205 205 206 205 204 203 204 204 
202 205 205 205 204 202 201 203 200 203 205 207 209 207 213 219 223 224 224 
224 228 227 229 229 236 241 246 248 249 251 252 254 255 255 255 238 237 240 
241 243 243 241 240 235 233 232 230 227 230 229 227 221 218 215 216 215 211 
204 203 203 199 196 197 198 199 199 201 201 201 201 202 201 199 200 202 202 
203 205 207 207 210 211 212 210 209 208 210 209 203 204 205 201 200 202 201 
200 199 200 201 200 201 203 206 206 206 205 204 203 201 200 201 206 209 211 
217 221 224 226 225 224 226 225 229 227 230 237 242 246 250 250 254 254 255 
255 255 237 235 237 239 239 242 242 242 240 238 238 236 231 230 228 226 223 
219 216 215 212 209 206 203 199 198 199 196 200 200 199 198 196 195 195 194 
195 198 199 199 197 198 201 204 203 203 203 205 205 206 207 209 207 204 205 
204 199 198 197 198 199 199 200 200 202 205 206 206 204 204 205 204 204 202 
199 200 203 207 211 216 221 226 227 227 226 228 230 232 229 229 234 237 243 
247 249 253 252 252 253 255 245 244 241 241 241 243 242 243 244 238 238 236 
232 230 230 227 224 219 218 215 211 209 208 204 199 198 198 196 195 195 192 
191 192 195 196 197 198 198 193 195 195 193 194 200 204 207 207 206 202 202 
204 207 205 204 202 202 202 199 199 199 200 198 199 200 201 201 198 198 197 
199 201 203 204 202 201 204 208 212 212 216 219 225 227 228 226 229 231 231 
233 234 236 239 244 246 248 252 253 253 255 254 252 251 246 246 245 243 242 
242 241 238 238 235 233 232 231 228 224 221 215 213 211 209 209 207 203 201 
202 199 196 193 192 195 195 195 196 197 198 198 196 197 197 196 194 194 196 
198 197 200 200 203 201 202 200 200 200 200 199 199 196 197 198 198 195 194 
195 197 195 197 193 192 195 198 203 206 207 207 207 209 212 214 217 224 225 
226 227 231 233 232 235 237 239 241 245 245 247 248 248 251 251 250 254 253 
250 249 248 246 242 243 241 239 238 235 232 232 232 229 224 222 216 212 209 
211 210 208 207 207 204 203 198 192 190 188 191 192 192 191 192 192 192 193 
193 195 195 195 197 198 199 201 201 204 204 199 195 195 197 198 199 199 201 
200 202 198 197 195 195 194 193 195 194 197 196 193 195 200 205 206 209 211 
211 215 217 222 221 222 223 227 230 229 236 238 240 244 241 244 246 239 237 
245 246 246 251 251 249 248 250 247 244 240 241 239 238 234 233 231 228 225 
221 218 215 211 212 215 213 210 209 210 205 202 198 192 192 191 191 192 194 
192 193 193 195 194 196 195 193 192 195 199 202 205 205 204 202 199 191 192 
194 194 195 195 198 198 199 197 196 194 192 192 193 195 196 196 191 190 190 
195 212 215 213 212 211 212 215 221 223 223 224 225 227 227 230 231 236 237 
238 238 241 242 243 245 243 245 249 248 246 241 240 241 241 238 239 236 236 
232 229 225 222 221 220 217 213 209 210 210 212 213 212 211 207 203 199 192 
192 191 192 194 192 193 195 195 197 198 196 194 195 195 195 200 202 201 199 
199 195 194 187 187 189 190 193 193 190 193 192 188 188 189 188 190 191 192 
191 192 190 190 193 199 212 214 215 214 210 210 209 214 218 220 224 227 231 
230 229 232 234 237 234 234 235 237 242 245 243 242 248 246 244 243 242 241 
239 239 239 236 236 232 227 222 219 219 220 219 218 214 210 209 212 213 212 
208 205 204 201 196 196 195 196 196 197 197 196 196 192 192 187 188 190 191 
195 195 195 191 191 191 189 189 186 187 189 193 193 190 187 189 190 190 189 
190 190 192 194 194 194 194 191 191 193 198 209 212 211 210 211 212 214 216 
218 220 224 230 233 234 233 235 236 236 235 235 238 239 242 247 248 250 249 
250 250 249 246 244 241 240 240 236 236 233 229 221 219 220 221 219 221 216 
215 212 212 209 209 211 207 203 201 198 198 198 198 199 203 198 194 192 189 
188 186 187 191 193 195 194 196 190 190 192 192 190 187 186 187 189 190 192 
187 188 187 190 190 189 190 193 196 199 204 201 202 202 199 203 207 211 213 
215 214 215 216 218 218 220 223 226 230 231 234 235 237 236 235 234 236 238 
241 248 250 251 252 254 253 250 244 243 243 241 240 238 235 231 230 226 221 
221 220 217 218 215 213 211 204 206 212 211 205 203 199 199 194 193 193 192 
194 190 186 186 185 187 185 188 190 194 195 195 195 188 188 191 193 190 187 
187 186 187 187 189 186 185 185 189 190 194 193 193 198 200 203 204 207 210 
208 207 207 208 210 212 214 221 220 221 220 223 226 229 233 234 233 234 235 
237 239 241 244 249 251 251 251 250 251 253 253 249 245 245 243 240 239 233 
231 230 227 224 220 220 222 220 218 216 211 206 204 207 210 211 205 201 197 
194 191 190 190 190 192 188 185 182 184 183 183 186 186 185 188 191 189 185 
183 188 189 187 186 188 184 185 188 188 184 182 180 182 184 186 185 186 190 
194 197 201 199 199 199 202 203 203 208 211 214 216 214 217 219 224 225 227 
232 234 234 232 232 234 236 239 242 246 247 249 246 242 255 255 253 252 250 
247 246 240 235 231 228 227 227 224 226 225 225 222 221 218 214 214 211 209 
210 208 204 200 194 188 185 184 186 188 190 190 185 178 178 180 177 180 182 
183 181 182 178 181 184 183 185 186 185 186 181 179 179 178 179 178 175 174 
178 179 178 178 180 188 192 194 196 196 197 196 198 199 200 201 201 207 211 
215 219 222 223 224 227 231 232 235 237 238 239 242 244 246 247 248 250 249 
255 254 252 251 250 246 243 240 234 227 226 226 227 229 230 228 228 223 220 
217 211 211 209 206 209 204 201 199 193 188 186 184 185 187 190 191 187 183 
176 179 178 175 176 178 179 181 180 183 184 181 181 179 177 178 176 177 175 
177 175 178 177 177 179 180 180 183 187 192 193 193 193 196 197 195 196 197 
198 199 201 206 217 220 222 224 222 223 227 230 234 235 236 236 240 242 243 
243 245 245 248 247 251 250 249 249 248 245 242 240 232 228 224 226 226 227 
225 222 221 221 220 216 211 211 207 201 202 201 198 196 192 188 187 187 187 
186 187 190 190 190 187 186 186 180 177 177 178 181 181 183 182 179 176 176 
175 173 174 175 174 173 173 177 179 182 183 182 182 185 185 188 189 189 192 
195 199 197 201 201 203 207 211 211 222 225 225 224 224 227 229 231 234 233 
232 234 238 242 243 244 243 245 249 251 249 247 242 242 244 243 242 238 233 
231 230 229 224 222 217 210 213 218 220 220 220 217 214 209 207 203 203 201 
195 194 194 192 191 192 193 192 190 188 186 185 184 179 178 175 175 176 179 
179 179 177 174 174 176 175 174 172 172 170 172 175 179 184 186 188 188 186 
187 186 186 189 193 195 199 199 201 205 206 210 213 212 222 225 224 225 224 
225 228 228 229 229 228 231 234 236 240 243 243 243 244 243 247 248 247 246 
245 245 241 240 237 236 234 234 228 227 223 217 217 220 223 221 217 214 212 
210 209 207 203 199 196 196 194 193 192 193 190 188 187 187 185 188 185 182 
181 178 176 175 174 175 177 175 172 171 170 171 172 171 173 172 172 172 175 
179 182 187 191 189 185 184 187 188 189 190 194 200 203 204 208 214 216 216 
223 226 225 225 225 225 224 224 225 225 224 226 230 233 238 242 244 242 242 
236 250 248 250 249 248 249 243 241 236 237 237 238 237 233 230 221 217 216 
216 216 215 215 211 209 210 207 205 203 202 197 194 189 188 187 184 182 182 
181 181 180 180 181 179 175 172 168 170 174 176 174 169 168 166 168 166 164 
163 163 163 165 169 175 177 177 181 185 187 189 192 194 194 196 198 202 203 
205 210 214 216 218 225 227 227 227 226 224 222 223 224 228 229 231 234 237 
237 239 239 239 239 238 250 250 247 246 248 247 243 241 238 237 237 239 238 
235 231 227 221 218 215 212 211 212 215 212 212 209 205 199 198 196 192 187 
186 185 180 176 175 174 175 173 173 172 169 167 165 164 165 167 167 166 164 
165 162 162 159 158 160 161 164 167 172 175 179 181 184 191 191 192 192 194 
195 199 202 199 202 205 209 213 217 219 224 226 227 228 229 227 225 224 224 
225 223 224 229 233 238 241 240 240 241 241 253 254 253 253 252 251 249 246 
242 243 241 239 234 231 227 225 221 220 221 216 216 216 217 213 210 207 208 
203 202 199 196 192 192 190 186 176 172 173 173 173 173 171 166 161 158 160 
161 164 162 160 158 160 159 160 158 158 162 162 170 174 181 181 182 184 191 
194 194 191 191 193 191 196 200 200 201 204 209 214 219 220 222 219 220 222 
224 222 224 223 224 225 224 226 230 233 240 244 246 247 246 246 251 252 253 
250 249 251 251 249 245 243 239 237 234 232 228 227 226 225 223 217 217 219 
217 213 212 207 204 199 199 197 196 197 197 198 194 184 180 181 179 175 175 
172 169 165 165 165 165 163 162 160 160 159 159 160 161 163 168 171 175 181 
185 183 181 184 186 189 192 190 190 192 194 196 198 199 201 201 204 210 215 
214 215 209 211 217 220 222 225 225 228 228 228 230 231 231 240 242 244 244 
244 246 254 255 255 254 253 250 250 248 243 241 235 235 232 232 230 227 226 
224 224 221 220 217 215 213 209 205 201 196 195 196 198 199 197 197 192 188 
188 186 181 176 175 173 172 169 169 168 168 165 163 160 160 161 161 161 161 
164 167 170 173 181 184 184 182 183 185 187 190 189 187 188 188 192 194 196 
200 201 204 208 211 213 210 209 211 212 213 219 222 223 225 229 226 228 231 
234 238 238 237 237 240 242 255 255 255 252 252 251 245 244 239 236 233 232 
231 230 228 225 224 223 221 218 218 218 217 213 214 207 203 198 196 197 198 
196 195 193 190 187 185 183 181 178 179 177 174 169 168 168 165 164 165 163 
161 162 164 164 160 166 169 172 177 181 182 182 180 182 182 183 184 183 181 
184 189 192 193 195 200 200 205 210 212 213 213 213 213 214 213 218 222 221 
226 227 226 224 224 230 236 238 241 243 244 248 255 254 255 254 252 248 243 
240 238 237 234 232 229 226 225 223 221 219 220 217 216 217 213 212 215 212 
209 204 202 202 202 199 196 191 185 181 179 179 177 175 177 176 170 169 168 
166 166 164 163 161 160 158 160 167 166 167 171 174 182 184 183 182 181 180 
182 182 183 182 184 187 193 195 197 199 201 203 209 211 209 212 213 218 218 
219 219 218 221 223 228 229 227 228 231 229 236 239 241 240 242 242 255 254 
255 252 249 244 240 239 237 236 233 231 229 226 225 225 224 226 219 218 218 
216 214 210 212 210 206 202 203 202 201 196 193 189 184 182 180 179 176 176 
178 178 172 170 168 166 164 160 157 157 159 161 166 169 165 166 169 172 180 
182 183 182 181 182 185 186 188 186 188 193 197 198 198 200 204 207 208 210 
205 209 213 217 219 220 219 222 225 227 231 232 233 234 233 236 239 240 240 
239 242 240 252 252 249 249 247 244 239 238 234 238 237 236 231 229 228 227 
225 226 222 220 216 213 211 208 206 203 204 202 201 198 193 190 194 192 185 
182 178 179 177 177 178 179 177 172 170 175 172 163 159 157 158 156 160 165 
168 168 170 172 177 181 184 183 181 181 189 190 193 192 192 194 197 199 199 
206 209 212 211 211 210 213 215 218 223 223 220 221 222 225 230 233 234 237 
237 239 240 241 243 245 246 247 244 246 249 249 245 242 239 240 239 241 241 
236 230 230 230 227 225 224 219 215 214 211 207 205 204 205 203 199 198 196 
192 191 196 193 189 185 182 181 180 180 181 180 177 174 172 171 167 161 161 
158 158 158 163 166 166 167 168 171 175 176 180 182 184 187 193 191 190 192 
191 191 193 197 199 204 207 209 211 211 210 213 218 219 223 222 219 219 221 
227 231 231 232 233 235 236 236 239 239 241 242 241 241 243 245 242 238 237 
236 238 238 241 243 240 237 233 230 226 223 222 220 215 210 207 208 208 206 
207 204 201 198 195 194 194 194 191 189 188 183 179 178 179 180 175 173 170 
168 166 164 163 161 161 160 162 163 165 166 165 165 171 173 175 176 179 186 
188 192 195 194 192 191 192 194 197 200 204 205 207 207 209 211 213 216 218 
222 224 222 219 221 224 229 229 228 226 230 233 236 238 242 246 246 244 243 
243 244 243 240 239 236 238 239 244 244 241 240 234 232 228 224 219 216 210 
205 202 207 210 209 211 208 198 194 193 190 187 187 186 185 184 182 179 177 
178 175 172 169 166 166 167 166 166 164 162 159 159 159 163 163 163 164 169 
173 174 176 177 183 186 188 190 192 190 191 192 192 196 199 201 204 205 207 
210 214 216 215 216 217 222 225 224 224 222 228 229 229 228 229 232 234 236 
240 245 247 250 246 244 242 242 240 240 239 240 241 243 246 245 244 241 236 
228 220 215 213 210 206 205 207 209 208 210 207 200 198 197 194 191 188 184 
185 184 181 178 174 177 177 171 166 163 158 159 164 166 165 163 162 162 164 
169 167 166 169 171 170 172 174 179 182 186 185 186 185 186 186 189 191 195 
198 202 205 206 207 209 212 215 218 222 219 224 226 228 228 227 229 228 228 
231 233 234 237 237 239 240 240 240 248 247 244 244 243 240 239 240 238 238 
240 241 242 237 233 225 218 214 213 210 210 209 206 205 208 208 207 203 202 
201 198 193 192 189 185 184 182 180 176 177 176 171 167 165 160 161 163 165 
164 165 167 170 168 168 164 163 165 168 170 171 175 179 179 183 182 183 183 
184 188 190 192 195 197 202 204 205 205 206 210 212 214 216 220 226 229 232 
231 232 232 232 231 233 234 236 240 243 244 245 246 247 248 247 246 247 244 
240 238 238 237 238 237 237 234 231 228 221 217 213 213 212 213 211 211 209 
208 208 205 204 203 204 203 198 195 189 184 182 183 183 183 177 176 170 165 
163 159 160 160 163 163 163 168 171 170 168 169 168 167 167 169 172 178 182 
182 179 180 182 182 186 189 193 196 198 198 200 205 206 209 212 213 212 211 
214 220 227 230 234 235 232 232 233 231 233 235 239 242 244 243 244 245 246 
250 249 248 250 249 247 246 242 242 238 236 235 232 230 229 228 224 216 214 
211 214 213 209 210 207 206 204 200 198 196 191 189 185 183 182 183 181 181 
180 182 177 172 171 168 166 165 165 166 168 168 170 171 171 172 170 172 173 
174 176 177 177 179 177 176 176 177 182 192 196 199 200 199 201 203 206 208 
208 210 212 211 213 217 222 226 228 229 228 227 226 232 234 234 235 240 241 
241 240 241 239 239 254 251 247 246 248 248 248 246 244 241 236 231 228 224 
226 227 226 223 220 216 213 210 209 211 207 205 204 203 202 197 192 191 187 
184 182 181 177 179 180 180 177 174 174 173 173 172 170 169 167 168 168 168 
173 173 168 167 173 174 177 176 178 176 175 175 176 179 183 195 196 199 202 
201 202 201 199 203 204 206 207 209 211 212 217 220 224 226 224 225 225 230 
230 231 234 241 242 243 242 245 245 246 250 247 244 243 243 244 245 244 242 
238 234 228 227 227 227 226 225 223 221 214 212 207 206 208 207 205 203 196 
195 193 190 188 189 188 187 179 176 177 178 180 179 179 180 180 179 179 177 
171 169 170 168 168 171 173 174 175 177 178 181 178 179 180 179 177 182 185 
188 194 198 202 205 206 205 207 207 205 205 207 208 210 210 210 214 220 223 
224 226 230 229 230 232 235 239 244 245 246 243 240 239 242 246 244 241 240 
240 241 242 241 237 232 229 225 223 221 222 222 223 221 221 218 214 208 205 
206 203 200 197 192 192 191 190 191 192 190 188 181 180 180 182 183 182 183 
183 182 181 180 181 177 174 170 170 170 172 175 178 180 182 181 180 175 173 
176 177 177 179 186 189 194 195 202 204 206 205 207 205 208 210 212 216 215 
213 213 216 220 225 227 227 228 230 231 234 237 240 243 248 248 243 238 238 
241 244 244 245 243 241 238 236 235 232 230 227 224 224 224 224 221 220 217 
218 218 216 215 209 207 202 201 200 195 194 191 190 190 191 187 184 181 181 
183 184 185 183 184 182 176 177 181 182 181 178 171 173 174 179 181 182 184 
185 184 179 176 174 174 174 175 179 184 189 195 198 203 202 204 204 203 205 
209 212 211 213 210 209 211 217 222 225 224 228 229 229 231 234 236 239 243 
247 246 243 241 237 234 246 247 247 244 243 245 244 236 232 229 229 226 227 
229 229 227 222 219 219 217 213 211 211 211 205 202 199 196 194 194 193 191 
193 192 187 185 182 180 180 184 184 184 183 176 171 173 173 175 178 181 183 
183 185 186 184 184 185 185 180 177 176 175 174 174 178 185 188 194 197 199 
199 200 201 201 206 209 212 214 216 216 215 215 219 222 226 224 223 223 228 
232 235 237 240 245 247 246 245 244 240 238 246 245 245 242 244 245 241 237 
231 229 229 228 229 229 225 223 221 219 216 217 217 216 217 213 206 199 195 
193 193 191 190 188 191 193 190 186 181 177 179 183 186 187 184 178 174 174 
176 178 182 182 187 189 191 190 190 190 187 184 182 183 180 178 176 178 180 
186 191 195 197 202 202 204 204 201 205 208 208 205 204 207 213 216 218 221 
223 221 224 226 228 231 232 236 239 244 246 247 247 245 244 244 247 246 244 
241 241 244 242 237 233 233 230 226 223 225 223 222 217 217 216 217 221 220 
221 218 210 202 197 196 196 197 192 188 190 191 189 187 183 179 181 181 183 
184 182 186 183 184 184 181 183 181 181 182 191 190 190 190 188 189 188 181 
178 179 179 180 183 186 189 190 193 199 200 200 200 199 204 207 206 206 205 
206 210 214 217 221 223 223 222 222 225 228 232 236 238 240 242 247 248 246 
243 242 243 244 241 239 237 236 239 239 239 236 231 230 229 229 225 223 220 
218 217 214 220 220 220 220 209 202 198 195 195 191 187 182 181 184 185 185 
183 178 178 180 179 182 183 184 186 186 187 183 184 184 184 184 188 188 187 
187 188 192 187 180 175 174 178 182 185 185 186 189 190 199 201 200 196 197 
205 207 206 207 208 209 213 217 219 221 220 221 221 224 224 226 232 236 240 
241 245 248 251 249 251 254 248 248 243 239 238 240 242 243 240 236 232 231 
230 230 227 225 221 218 216 214 218 220 220 216 205 199 198 197 195 194 192 
186 182 185 186 186 186 179 180 178 178 183 183 187 191 191 190 189 189 188 
185 185 186 187 188 189 190 191 189 185 179 179 178 183 188 187 186 192 191 
194 196 197 199 200 203 207 208 209 209 208 209 212 214 217 219 220 220 223 
225 225 231 235 240 242 243 244 245 246 249 251 251 251 246 240 238 242 241 
243 239 234 231 232 234 235 231 229 224 220 219 217 220 222 221 211 205 201 
199 200 198 193 190 188 184 187 188 188 189 188 190 189 189 191 191 192 196 
196 196 195 193 191 190 190 188 189 187 189 190 188 187 185 182 181 182 184 
187 185 186 190 195 199 201 202 201 203 206 208 210 213 212 212 213 212 211 
213 217 220 220 223 224 226 227 231 233 236 236 236 241 243 247 247 246 249 
247 243 243 243 243 241 240 238 236 236 237 238 239 234 224 219 218 216 215 
213 217 210 206 203 200 197 195 190 187 187 190 192 193 193 190 193 194 195 
193 195 193 194 198 200 200 198 196 194 194 191 190 189 189 188 189 192 190 
188 184 182 186 189 194 195 195 193 195 196 197 199 200 202 205 204 207 211 
214 215 214 209 210 213 213 216 217 222 223 225 223 224 227 230 230 233 238 
240 243 245 250 249 248 246 243 243 244 244 242 240 237 234 234 236 234 231 
225 222 219 219 217 215 213 210 207 205 199 194 191 190 190 192 193 194 197 
199 195 195 195 194 194 196 197 197 198 197 199 196 191 191 192 192 193 193 
190 189 190 192 189 186 186 183 188 193 198 200 201 202 197 194 195 195 198 
201 203 206 208 212 213 215 216 217 216 217 216 218 218 218 220 222 223 224 
227 230 231 234 237 240 242 245 249 247 248 247 246 244 241 241 242 241 240 
237 236 235 235 231 225 220 215 214 214 215 213 209 206 199 194 191 189 189 
195 195 195 196 197 196 193 195 196 191 194 198 200 201 201 197 198 198 195 
193 195 195 196 194 190 190 193 192 193 191 188 186 191 196 203 200 202 201 
197 195 195 195 197 198 198 198 203 205 210 215 214 216 215 215 215 216 216 
221 228 229 233 235 236 235 235 236 234 235 233 233 251 250 250 249 246 244 
241 239 237 238 240 238 237 235 236 232 229 224 219 216 213 213 213 207 206 
199 197 193 191 193 197 202 198 197 197 193 191 192 192 191 196 201 204 204 
202 200 199 200 199 195 197 195 193 192 189 190 191 192 194 192 194 192 193 
199 203 204 203 202 201 200 196 195 196 198 201 201 202 203 208 213 214 214 
214 214 213 218 217 220 229 233 235 238 242 240 235 236 235 237 239 241 250 
250 248 248 246 244 243 242 240 240 240 241 239 236 237 231 226 221 219 217 
214 213 212 209 206 202 198 196 197 197 200 200 196 195 196 194 192 192 195 
196 197 200 205 206 207 204 203 204 202 200 199 192 191 189 191 192 192 193 
195 194 194 197 202 208 213 213 208 204 202 202 199 201 204 208 209 204 201 
202 206 212 213 218 219 220 220 221 217 220 224 229 234 239 238 237 232 233 
234 239 243 246 251 249 245 245 244 243 241 240 239 238 238 239 241 239 237 
233 228 222 222 220 217 215 213 212 211 212 206 205 203 200 200 200 196 196 
203 203 201 199 200 201 201 206 208 208 209 205 203 204 203 202 199 194 190 
190 192 193 195 197 198 196 197 202 207 210 214 212 209 208 208 209 204 203 
207 208 205 202 203 204 205 211 211 212 215 211 212 215 217 219 223 228 231 
234 235 234 231 233 233 238 241 240 251 250 248 246 243 243 241 240 239 240 
239 235 234 233 232 229 228 229 227 224 220 216 213 211 213 212 206 204 205 
201 198 198 199 202 206 211 209 205 203 203 201 204 206 208 208 207 206 203 
203 203 201 200 199 198 199 200 201 205 204 203 205 205 209 210 213 211 210 
208 209 211 209 208 209 210 206 206 205 208 209 211 208 211 213 212 213 218 
222 228 232 232 234 233 234 233 231 237 238 241 243 244 253 253 249 248 244 
244 242 241 243 241 239 236 234 230 226 226 227 229 226 222 214 213 211 212 
214 215 213 209 206 203 205 206 207 210 211 211 214 213 213 211 209 207 205 
208 208 205 200 198 202 205 204 205 201 201 198 200 202 207 208 208 210 208 
209 209 211 208 207 208 208 209 208 208 206 206 204 206 203 208 209 212 213 
214 216 218 221 225 225 231 234 238 239 240 239 239 238 245 248 250 252 252 
255 254 253 250 249 244 240 244 245 244 238 235 233 229 226 224 223 222 219 
214 209 208 209 212 214 217 218 216 212 211 213 210 209 208 208 209 211 213 
213 210 208 206 206 208 208 205 202 199 200 203 205 207 206 205 203 205 206 
212 211 212 211 213 211 209 208 206 208 209 210 210 209 211 209 208 207 207 
205 207 209 208 212 217 219 219 220 224 228 232 238 240 241 243 242 244 246 
250 252 251 253 255 255 255 254 252 244 241 235 238 240 239 237 235 232 230 
227 226 226 224 220 216 213 214 216 217 215 215 220 218 215 214 215 212 214 
207 206 208 211 213 214 211 209 209 206 206 211 212 207 204 204 205 206 206 
207 210 211 215 214 216 215 211 209 211 210 211 210 208 207 208 213 212 213 
213 210 211 211 209 209 208 210 210 215 218 216 217 221 225 226 231 233 240 
242 242 245 248 246 250 253 251 254 253 251 253 253 251 248 244 239 237 236 
236 234 234 232 228 226 224 225 222 216 211 210 212 215 215 216 216 217 218 
217 215 216 215 213 208 208 209 210 212 213 212 215 215 213 214 213 212 210 
210 209 212 213 210 207 208 210 215 215 215 216 213 210 211 207 208 209 210 
209 209 206 208 207 210 212 213 214 211 209 208 208 215 215 219 218 220 222 
225 225 227 232 238 241 241 245 246 251 251 255 254 255 255 247 247 251 251 
248 242 236 237 237 234 231 232 229 228 226 224 224 219 217 214 214 214 212 
215 219 220 218 217 215 213 214 215 213 212 212 212 215 216 216 217 217 216 
217 215 211 209 208 209 211 214 216 213 212 211 215 214 215 217 216 216 215 
212 212 210 210 216 216 215 214 213 212 213 215 216 217 214 215 213 214 217 
220 221 218 220 221 222 221 225 229 231 236 242 247 249 252 252 254 255 254 
255 242 245 248 248 247 244 239 236 237 236 234 237 236 231 227 224 222 222 
222 221 220 218 215 217 218 217 215 215 216 211 211 212 211 216 219 217 218 
219 219 218 216 217 219 219 214 212 210 210 211 214 214 213 214 213 214 213 
214 214 214 217 214 215 217 217 220 220 219 217 213 210 207 209 211 210 213 
213 214 212 212 215 219 219 220 219 218 221 221 224 228 232 234 233 236 244 
247 250 250 248 248 249 244 245 247 246 245 242 237 235 236 237 241 241 239 
234 230 227 224 225 228 225 223 218 215 215 213 213 213 211 211 212 213 218 
222 227 229 223 224 222 222 221 218 215 216 217 217 219 215 213 213 216 217 
218 216 218 220 217 213 209 211 210 213 214 216 215 217 216 218 214 206 203 
208 213 215 216 217 219 221 216 217 216 217 217 221 221 221 220 221 225 232 
234 235 235 238 241 246 248 249 248 247 249 244 242 244 242 242 240 239 238 
237 238 243 242 240 237 234 232 228 227 227 225 222 220 220 219 219 217 216 
214 213 213 218 223 226 232 231 231 227 223 224 223 221 218 219 218 219 220 
219 218 217 219 218 221 221 220 221 218 214 212 211 210 212 215 216 215 213 
216 217 214 214 216 219 221 223 221 218 222 223 220 222 222 219 218 221 223 
221 222 223 230 234 236 237 237 239 241 246 247 248 246 248 248 243 243 246 
243 240 238 239 239 238 237 240 240 240 240 237 237 230 230 231 231 228 226 
228 227 226 225 223 219 216 215 216 217 222 229 233 232 225 221 221 220 219 
221 222 223 223 222 224 226 225 225 224 223 222 219 219 219 217 213 208 210 
212 215 216 218 216 218 219 218 216 223 224 225 224 221 215 218 220 220 221 
222 220 220 222 223 220 222 223 226 230 237 239 241 241 243 247 249 250 249 
246 245 239 242 245 244 242 239 239 238 237 234 234 231 231 229 229 231 228 
226 228 227 226 226 226 226 229 227 222 218 216 215 212 212 215 219 224 225 
223 220 220 225 226 229 231 229 228 229 228 227 225 226 225 222 222 220 221 
218 217 216 215 216 216 217 219 219 219 218 220 224 224 224 225 226 226 225 
218 219 218 223 226 226 225 225 223 224 221 222 221 232 236 239 241 242 244 
247 250 252 252 254 254 255 237 240 242 241 241 241 242 243 243 240 236 230 
227 225 221 221 222 223 223 222 221 221 226 227 229 226 224 220 218 218 218 
216 218 221 224 225 226 224 225 228 232 235 235 234 232 230 226 224 227 228 
226 225 225 223 225 224 222 222 220 219 220 220 220 218 218 219 221 225 226 
225 225 227 229 228 221 220 219 224 224 225 227 228 228 226 227 225 227 233 
236 236 242 243 243 243 244 249 250 254 254 255 239 241 244 246 243 240 241 
243 242 240 235 227 222 219 219 219 223 225 224 222 222 219 223 224 227 227 
223 222 222 224 225 223 226 229 228 227 228 230 226 226 231 233 234 233 232 
229 226 224 226 229 227 226 225 223 224 223 221 223 221 222 223 219 223 223 
221 219 220 223 225 225 226 225 225 226 222 220 220 224 223 223 223 224 225 
225 224 222 224 229 231 237 239 240 242 242 245 249 251 254 252 252 242 247 
249 250 247 245 242 243 241 238 235 228 227 223 217 219 220 223 221 222 223 
220 222 223 225 225 225 225 226 226 226 225 225 227 225 227 231 231 228 226 
228 228 233 233 230 230 228 227 227 228 229 226 225 223 224 223 226 227 227 
226 226 224 226 224 221 221 221 223 224 228 230 229 228 226 222 222 221 227 
226 226 225 224 226 230 230 231 228 231 233 237 240 242 245 247 249 247 251 
253 253 253 245 248 251 249 246 243 243 242 239 237 236 232 231 228 224 226 
225 224 225 227 231 230 231 232 232 231 226 228 226 226 227 227 227 231 232 
231 235 235 233 232 232 232 232 231 230 228 227 224 225 226 228 227 225 223 
223 220 222 227 229 232 233 231 229 227 226 226 228 232 235 238 237 235 233 
229 225 226 226 229 227 227 225 225 228 231 235 235 231 232 231 234 236 240 
243 248 250 249 250 253 252 249 249 252 254 251 249 247 245 240 236 235 235 
234 232 227 227 227 224 223 225 230 232 232 233 232 231 231 230 232 232 232 
230 233 234 238 237 237 238 238 238 238 238 237 235 234 234 233 231 228 229 
231 230 227 226 225 225 223 225 226 228 231 233 233 229 226 228 228 231 235 
238 239 238 237 238 237 234 231 227 231 227 227 227 228 233 233 234 233 232 
234 233 234 235 237 239 244 248 249 249 250 249 247 255 255 255 252 249 245 
241 236 233 229 231 232 231 232 231 230 229 227 228 232 234 236 237 238 238 
238 236 237 235 236 235 237 240 242 241 239 238 239 237 240 239 239 237 234 
233 235 234 234 234 235 232 232 232 229 228 226 228 229 228 233 233 232 232 
233 237 238 237 241 240 241 242 240 240 241 239 236 233 232 231 230 231 230 
232 231 231 234 234 235 231 231 232 233 236 242 243 243 244 248 250 251 255 
254 252 248 247 246 243 239 235 232 233 231 231 231 231 231 232 231 233 236 
237 237 238 238 242 242 238 238 237 237 241 240 242 243 242 239 239 239 239 
240 241 243 240 239 238 241 241 239 236 236 234 234 235 233 233 234 235 234 
235 236 235 231 234 236 240 242 240 243 245 246 244 244 242 243 243 242 239 
239 235 232 232 232 231 229 231 232 233 230 232 232 234 235 237 242 243 244 
246 249 249 250 255 254 254 252 251 247 243 241 237 236 235 233 231 231 234 
237 236 236 233 236 237 239 240 239 240 241 238 239 240 236 238 238 240 239 
236 233 237 238 237 239 240 243 241 243 244 245 246 246 245 243 238 239 240 
238 237 236 234 235 236 237 237 236 237 241 242 241 242 243 246 246 244 247 
245 244 246 245 243 241 235 232 231 233 233 233 235 235 231 230 234 233 235 
236 239 243 246 248 249 249 248 248 255 255 253 250 250 249 247 242 239 237 
232 232 234 237 242 246 245 244 236 238 239 240 243 244 245 245 243 241 239 
238 239 237 235 237 237 236 236 238 237 242 243 244 244 245 246 246 246 245 
244 243 240 237 240 240 239 234 234 238 236 236 237 236 235 238 237 237 236 
240 242 240 238 241 242 244 248 249 244 243 236 233 235 234 233 234 238 238 
234 229 231 233 235 239 241 242 246 249 248 246 242 235 251 253 253 252 252 
250 249 246 240 239 238 238 239 245 248 248 248 248 244 246 249 249 250 249 
246 243 240 239 239 241 241 240 240 242 241 239 238 237 237 238 239 242 244 
245 244 242 246 251 249 244 246 246 245 242 240 239 241 242 240 239 237 239 
240 240 242 238 238 239 238 239 238 237 238 242 245 247 243 242 238 236 239 
239 239 239 243 243 240 241 242 243 244 246 247 248 246 246 244 245 243 239 
248 249 251 252 254 253 251 247 243 241 241 240 240 246 248 248 247 246 246 
249 251 252 255 252 249 247 246 242 238 241 240 239 243 245 245 243 241 240 
240 240 243 245 246 245 243 242 247 249 249 247 249 247 244 243 240 241 240 
241 243 243 240 241 243 246 246 242 241 240 240 242 242 242 244 246 244 250 
251 248 243 241 239 239 242 244 246 245 244 247 247 246 246 249 250 250 252 
249 245 244 244 242 248 249 251 254 255 253 252 250 248 245 245 245 244 247 
249 251 249 248 247 249 253 252 251 253 253 251 248 245 243 244 245 245 246 
245 244 242 242 240 240 240 242 242 246 245 245 247 248 249 248 247 247 247 
246 245 243 245 245 247 248 246 244 246 248 248 246 244 244 243 240 240 238 
240 241 246 248 252 250 251 250 249 245 242 243 244 246 248 249 247 249 250 
247 247 249 250 250 249 248 247 248 249 251 252 253 254 255 255 255 252 251 
252 251 249 249 248 251 250 251 249 251 251 252 254 254 254 255 252 251 249 
246 245 242 245 245 243 244 244 244 245 246 246 247 246 246 243 246 248 249 
249 249 248 244 244 247 247 246 246 247 248 248 246 246 248 248 248 250 250 
249 246 245 245 243 244 245 245 246 248 250 251 253 253 251 249 246 245 245 
246 246 247 249 249 246 246 246 251 251 250 248 241 241 243 255 255 255 254 
255 254 252 250 253 253 252 249 249 249 249 248 247 245 246 249 249 251 251 
249 251 248 249 247 247 248 248 248 248 248 249 248 249 250 250 250 250 249 
246 245 247 249 247 248 249 246 244 245 245 246 249 249 249 250 251 249 251 
254 253 253 253 252 251 251 252 251 252 252 249 245 243 245 248 249 250 252 
249 252 250 247 244 246 246 247 246 246 244 244 246 250 252 250 246 238 233 
229 255 255 255 255 255 255 251 249 253 255 255 253 251 250 251 250 245 244 
244 245 246 247 244 242 246 247 246 243 246 248 251 251 251 251 252 252 252 
253 251 251 250 252 252 253 254 254 252 251 250 247 244 246 249 252 254 250 
250 250 252 250 250 253 255 255 255 254 253 253 253 253 254 252 249 244 243 
243 245 247 249 250 247 247 246 244 245 247 248 249 249 250 250 251 251 252 
252 250 247 241 235 230 
