P2
#output from hocrtest
10 10
255
253 251 254 250 251 251 245 245 243 248 255 255 255 252 249 247 240 242 237 
229 253 255 253 255 254 251 248 249 245 248 254 254 255 255 255 250 250 249 
249 254 252 255 255 255 251 247 243 243 239 238 255 255 255 248 246 245 250 
252 251 245 255 255 255 254 255 255 255 255 255 255 255 255 254 253 255 254 
254 253 255 255 255 255 255 255 255 254 253 245 249 249 255 255 253 254 255 
251 247 236 245 249 
