P2
#output from hocrtest
40 40
255
251 247 253 249 254 255 254 248 249 246 248 255 255 252 248 252 250 249 242 
226 242 245 236 246 251 255 255 255 255 248 250 246 250 251 250 255 255 255 
254 255 250 251 255 255 255 255 254 249 246 242 245 254 255 251 250 252 252 
249 247 242 245 247 245 249 252 255 253 252 250 247 246 245 247 249 252 255 
255 255 255 255 254 255 255 255 255 254 251 251 252 253 254 255 253 252 251 
250 243 238 241 240 242 244 246 250 253 254 252 255 249 246 245 246 247 250 
253 255 255 255 255 254 254 254 255 255 248 249 248 250 251 253 254 252 250 
249 247 246 239 239 239 243 246 246 249 254 252 249 249 250 248 245 247 254 
252 248 250 255 254 255 254 254 253 253 253 249 242 240 240 244 246 245 244 
243 243 242 240 244 241 240 239 241 242 243 244 248 246 246 246 245 246 247 
247 247 246 242 245 250 249 255 255 255 255 253 250 242 236 239 239 240 241 
241 244 242 241 241 239 241 237 244 244 243 247 243 245 246 249 250 243 243 
241 241 239 241 243 243 242 240 246 249 254 255 255 253 251 244 241 247 244 
244 238 233 239 238 238 238 236 237 239 243 247 245 243 242 243 244 247 247 
242 242 240 239 240 240 240 242 242 243 246 246 250 255 255 255 255 251 250 
248 245 240 235 236 241 243 244 244 242 244 242 240 238 236 238 233 237 237 
243 244 240 240 242 243 241 238 239 239 240 241 242 243 247 249 247 251 251 
252 250 248 244 239 240 242 247 250 248 246 243 242 239 234 233 232 233 233 
233 230 236 237 236 234 237 241 241 239 238 238 239 239 240 243 243 245 248 
251 251 250 247 251 247 244 242 243 246 245 240 237 236 238 235 233 232 233 
230 230 232 233 235 237 239 236 241 246 244 240 237 240 240 241 243 239 241 
241 249 247 249 246 245 246 245 244 241 242 243 245 240 232 231 232 232 233 
232 233 234 230 233 234 233 234 234 234 234 242 246 245 241 241 244 244 246 
247 249 252 246 244 242 245 242 242 241 245 245 245 244 242 242 236 233 238 
235 231 228 230 229 230 231 230 229 226 230 231 229 233 238 241 243 245 243 
245 245 245 243 241 247 246 243 243 243 240 238 242 246 251 248 247 244 236 
234 231 231 228 226 227 228 228 230 225 222 223 222 221 226 228 234 237 239 
238 236 239 241 241 240 241 246 247 245 244 246 247 247 252 249 247 247 241 
238 232 231 231 226 226 224 218 223 223 223 222 219 220 216 220 227 233 234 
231 231 232 235 239 238 237 235 238 249 250 250 249 247 243 241 246 247 245 
246 241 234 231 232 233 231 228 229 223 222 220 222 224 226 226 226 226 229 
235 234 232 231 229 228 232 231 230 232 228 248 250 248 248 250 246 244 244 
245 246 246 242 233 234 233 230 229 230 228 227 227 228 229 229 230 232 234 
232 231 233 234 239 241 237 231 230 231 231 233 235 253 255 254 251 250 246 
242 240 242 244 242 238 227 226 234 231 229 230 228 225 225 224 221 224 222 
226 228 228 231 230 228 234 236 234 232 232 236 236 238 240 255 255 252 249 
249 251 245 242 240 239 239 232 227 230 230 229 229 230 230 224 224 224 224 
223 219 219 218 219 226 228 224 227 232 233 239 239 237 238 239 239 255 255 
254 253 255 254 248 243 239 234 231 227 228 231 230 227 226 224 225 223 225 
224 217 216 218 217 220 223 227 233 233 229 231 231 234 239 243 247 250 246 
255 253 250 250 253 255 249 242 235 231 225 223 227 227 223 222 220 224 223 
220 219 217 210 218 224 226 225 227 229 233 240 237 234 231 234 237 240 245 
247 248 255 254 250 250 250 249 247 244 237 228 225 224 222 223 219 219 216 
220 219 220 218 225 219 223 227 230 231 234 234 236 235 234 236 231 234 240 
241 243 245 244 255 254 252 253 253 249 244 234 229 224 226 226 224 223 223 
223 219 215 215 214 215 218 218 217 220 223 225 225 226 231 235 238 242 243 
237 239 240 245 247 249 251 249 249 252 253 249 245 233 223 227 227 227 228 
225 225 227 223 217 214 215 216 221 217 218 221 225 226 230 234 237 240 238 
238 241 237 236 237 242 244 247 249 248 250 251 252 250 242 234 229 227 224 
225 222 222 224 223 223 216 216 216 221 225 221 222 222 226 228 232 234 238 
239 235 233 237 234 236 236 244 247 246 244 244 241 246 246 244 239 237 240 
230 222 223 221 223 226 226 224 227 224 223 227 228 230 229 227 225 226 228 
230 236 238 236 238 237 237 236 236 241 244 245 242 244 244 247 246 243 237 
236 242 245 227 234 230 225 224 229 232 230 225 225 223 225 228 230 227 226 
228 229 229 236 241 239 240 240 237 236 236 238 238 240 249 247 248 247 245 
244 239 239 244 241 234 232 229 229 228 229 230 227 225 225 222 227 227 231 
231 229 230 235 235 240 240 240 240 240 238 240 239 239 240 242 255 253 251 
248 248 248 245 242 236 231 227 231 227 225 226 228 223 221 223 218 218 223 
225 231 234 231 226 230 228 232 235 235 237 240 241 241 240 242 243 248 253 
254 250 249 250 252 248 248 236 232 231 233 229 224 225 226 222 223 221 220 
218 219 224 231 233 230 230 229 228 231 233 235 239 243 246 245 248 250 249 
250 250 249 247 247 250 249 249 242 233 228 229 230 229 230 229 223 226 228 
229 231 229 224 225 229 235 240 244 246 238 229 235 238 243 246 251 255 254 
254 254 253 246 242 243 245 245 243 242 235 231 229 229 231 234 237 241 241 
240 238 239 243 240 234 234 239 244 245 246 243 241 238 241 237 243 248 253 
255 255 255 255 255 250 246 242 243 243 238 238 235 235 232 229 228 226 227 
237 244 246 245 240 243 242 239 237 239 241 243 241 235 234 236 242 243 248 
253 254 253 254 255 255 255 253 254 250 250 249 243 241 239 238 237 234 234 
234 235 239 247 244 245 241 238 237 234 234 238 242 243 240 236 234 235 238 
240 247 250 251 253 253 254 255 253 254 253 250 249 247 242 242 242 242 243 
241 240 240 241 242 246 247 247 245 246 241 241 241 243 245 247 241 239 238 
239 241 246 246 251 253 255 255 255 255 255 255 252 249 243 245 243 242 243 
243 244 243 243 242 239 236 242 244 242 240 237 236 237 242 242 241 237 239 
238 238 247 249 246 250 251 253 255 255 255 255 255 251 250 246 237 231 232 
227 239 243 245 247 248 247 244 242 247 247 245 246 240 241 239 244 248 242 
242 242 243 240 246 248 250 255 255 254 254 255 255 255 255 248 246 242 234 
228 230 232 236 243 247 250 252 251 250 247 247 247 245 244 242 238 241 244 
244 242 244 245 244 246 251 255 253 255 255 255 255 255 255 255 255 245 245 
243 240 239 238 239 242 244 249 251 253 255 252 249 247 241 236 236 240 242 
239 242 247 250 244 244 244 245 250 252 252 254 255 255 255 255 255 255 255 
247 247 241 238 241 241 247 250 251 255 255 255 255 255 251 246 240 239 239 
245 248 248 250 250 252 247 246 244 246 249 252 255 255 255 255 253 252 250 
253 255 247 249 249 243 245 247 251 250 250 252 255 255 255 255 251 248 244 
243 242 245 248 247 246 244 245 245 245 241 245 249 249 252 252 254 251 250 
250 250 243 240 
