P2
#output from hocrtest
50 50
255
253 247 252 246 252 255 255 252 255 255 255 255 255 251 253 249 245 251 246 
231 242 245 241 254 252 255 251 250 254 255 255 255 255 255 254 254 255 252 
252 251 249 255 253 255 255 252 246 242 242 231 252 252 252 249 251 254 255 
254 255 255 255 255 255 252 254 251 248 251 248 243 246 248 249 254 255 254 
252 252 254 255 255 255 255 255 255 253 252 249 251 251 252 255 255 255 253 
251 247 243 244 243 255 253 252 252 253 254 254 255 255 254 255 253 252 250 
246 246 244 246 246 246 248 252 251 255 251 255 253 252 255 255 254 252 253 
254 253 252 247 247 246 248 251 251 253 254 253 251 250 248 247 242 255 253 
252 248 251 253 253 255 255 253 251 253 251 252 243 242 242 242 242 239 238 
241 248 250 248 250 249 251 253 253 251 250 250 251 252 250 250 251 250 252 
250 247 249 249 247 252 250 252 251 253 253 252 251 248 247 247 247 248 249 
249 248 247 246 247 243 244 243 243 242 239 238 241 245 250 248 248 245 245 
246 250 252 252 251 253 248 244 246 245 244 247 248 249 246 243 242 245 248 
244 241 239 252 251 252 254 250 245 248 248 248 248 250 247 244 243 243 241 
240 239 238 237 239 243 243 246 249 247 249 247 245 249 252 253 252 255 252 
248 246 241 243 245 247 246 242 238 239 241 241 240 236 233 255 253 252 252 
253 249 247 247 247 245 244 244 246 243 240 237 234 232 234 236 238 240 240 
241 243 244 242 242 242 246 247 247 248 252 253 251 247 243 244 244 245 246 
242 234 231 234 234 233 231 233 254 255 255 254 253 249 245 244 242 243 244 
247 246 246 240 239 236 234 236 238 241 236 237 233 236 237 233 234 235 242 
242 242 244 249 249 247 243 241 246 248 249 246 240 237 235 238 242 237 241 
244 255 255 255 253 251 249 246 243 239 245 247 249 247 244 237 235 230 229 
232 234 239 238 236 238 239 237 237 236 236 243 242 241 240 241 244 243 239 
239 246 250 247 244 244 248 246 244 246 249 250 253 255 255 255 250 246 248 
244 240 238 243 247 245 247 244 239 236 231 228 223 229 235 239 240 243 243 
240 239 243 242 240 238 237 236 238 239 236 234 234 242 247 250 251 248 248 
246 246 248 250 249 251 255 254 252 245 239 241 242 236 237 239 239 239 242 
238 234 230 227 226 226 227 236 238 241 242 242 243 243 245 246 242 240 236 
235 235 237 235 233 232 234 232 234 238 236 237 240 240 240 241 243 242 251 
248 244 240 240 240 243 238 235 235 237 238 238 239 237 229 225 231 229 228 
234 237 238 238 239 243 250 251 244 236 232 231 232 236 238 234 233 229 230 
232 235 235 235 236 236 235 233 232 236 233 247 246 242 239 239 240 243 239 
238 236 236 236 235 235 232 228 228 230 228 228 235 236 237 238 236 239 246 
248 237 233 232 233 233 231 230 226 226 226 229 232 236 236 239 242 242 244 
241 240 242 244 253 249 245 242 243 240 236 236 235 231 229 227 229 229 226 
227 226 226 227 226 227 232 233 233 232 235 240 239 236 235 234 233 230 227 
228 227 227 227 228 230 232 236 239 241 244 245 244 243 246 250 254 251 249 
245 239 238 234 229 230 228 223 224 226 227 226 227 225 224 221 222 225 233 
234 235 236 239 241 240 239 236 235 229 229 228 228 226 228 228 229 231 237 
239 238 240 244 245 244 244 247 251 252 249 243 244 242 241 236 234 235 232 
227 227 225 225 224 222 220 218 217 219 220 226 232 234 233 234 235 237 239 
233 227 223 223 225 223 221 222 225 227 232 241 244 242 241 244 244 243 243 
242 242 255 254 249 249 249 248 246 243 240 232 232 234 229 226 225 219 216 
212 210 214 217 227 229 230 230 230 231 231 233 229 225 223 221 220 219 221 
225 222 229 232 235 239 243 245 248 252 249 246 242 237 255 255 252 252 248 
248 247 242 240 239 233 234 230 227 224 219 217 213 214 218 224 228 231 230 
230 226 221 222 224 223 225 223 219 220 220 221 224 224 225 230 232 237 248 
250 251 255 248 248 246 243 254 255 252 253 254 253 245 242 241 241 239 235 
225 226 224 222 223 219 216 219 221 224 224 223 228 227 225 219 218 220 220 
222 222 218 219 215 217 219 222 226 231 238 245 250 251 255 255 251 250 250 
247 246 245 247 246 243 235 237 236 237 232 230 227 225 221 223 223 224 223 
220 219 219 217 216 218 220 222 220 215 220 222 225 223 223 225 222 219 221 
223 229 232 237 242 245 249 252 254 251 251 253 242 242 242 245 245 241 231 
228 227 230 223 227 226 223 221 224 224 226 229 228 224 221 219 218 218 222 
223 222 222 224 225 226 223 222 221 219 216 217 221 227 230 234 236 239 242 
246 244 242 244 244 238 242 244 245 244 239 236 233 230 230 227 228 226 228 
225 226 221 219 219 224 222 220 219 218 215 217 218 220 218 220 220 223 219 
217 219 220 218 220 220 223 224 229 232 234 238 239 238 237 239 236 246 246 
243 246 243 239 238 234 231 231 229 226 227 229 226 224 216 213 217 222 226 
223 222 220 220 222 222 222 220 221 218 216 211 213 218 222 220 223 224 224 
227 229 235 237 238 234 238 236 238 241 246 248 246 243 244 238 237 234 230 
229 228 228 228 230 228 226 222 219 217 216 219 223 224 224 222 220 218 220 
218 222 219 213 211 216 221 226 229 231 233 229 229 233 236 239 241 238 241 
240 239 242 252 246 245 245 243 242 238 233 225 230 227 231 230 232 230 228 
214 212 215 218 222 222 223 227 223 218 220 219 217 215 214 210 215 222 227 
230 233 238 237 232 227 228 230 236 240 240 242 240 241 241 250 248 247 245 
243 241 234 234 230 231 232 233 231 233 231 225 215 213 215 215 220 222 225 
223 221 219 221 215 213 215 217 220 221 229 230 229 230 235 234 231 231 229 
231 234 239 244 241 245 248 248 251 246 249 247 245 246 242 239 235 236 233 
232 233 233 229 225 220 216 216 216 216 215 214 213 212 212 214 213 212 217 
219 220 223 226 229 230 232 235 235 233 233 235 235 237 241 245 248 248 251 
251 252 249 247 245 240 241 242 245 246 245 241 239 231 228 226 223 226 222 
219 217 215 213 216 213 212 211 211 210 208 211 214 217 218 221 224 222 223 
222 224 230 232 231 232 236 240 244 247 250 251 251 253 251 250 246 243 234 
238 240 241 243 251 243 235 231 227 226 227 226 222 217 216 213 217 216 218 
211 209 208 205 210 210 215 217 223 223 223 224 226 227 230 232 232 234 236 
237 237 241 243 250 254 255 255 252 247 246 242 241 242 240 241 244 240 235 
229 226 227 228 227 223 220 217 212 213 214 215 211 210 210 214 215 215 219 
220 222 221 218 216 217 219 221 233 235 238 241 245 242 241 241 241 240 255 
253 251 251 250 243 240 238 238 241 240 235 232 228 226 224 226 225 222 219 
217 214 212 211 213 212 214 214 217 221 223 225 224 222 221 219 216 215 218 
221 230 231 236 241 240 239 239 238 237 239 254 255 255 251 251 245 239 233 
235 239 235 235 233 227 225 228 228 225 219 218 219 220 217 215 217 216 215 
218 221 227 228 223 222 221 221 226 221 220 220 219 223 226 229 235 240 240 
240 241 240 238 251 255 252 250 247 244 241 235 236 234 232 235 234 231 229 
230 229 227 227 222 223 221 220 216 217 219 216 219 220 222 220 218 220 222 
223 226 225 224 223 219 219 219 223 231 240 244 243 242 241 244 253 255 250 
251 246 242 241 239 241 238 236 234 233 232 230 228 228 229 227 223 220 219 
215 216 217 220 221 221 221 218 214 215 217 218 219 224 223 223 220 220 222 
220 226 237 243 244 242 243 248 250 254 252 250 247 245 244 244 242 243 240 
237 236 237 234 232 231 229 226 224 224 224 224 216 218 218 220 222 222 220 
214 213 215 217 216 217 219 220 223 224 227 229 228 231 240 242 246 246 247 
248 249 250 251 251 251 250 248 244 244 243 239 239 240 241 238 232 228 224 
221 220 222 225 229 226 221 223 225 227 227 224 219 218 218 221 220 222 222 
227 229 230 232 236 237 242 247 248 251 249 247 246 247 243 245 247 252 254 
252 249 245 243 242 235 238 242 238 234 228 226 226 228 231 232 230 232 232 
232 234 233 232 230 227 228 230 235 235 233 228 231 229 231 230 233 237 246 
248 248 253 253 254 251 248 240 244 242 247 251 252 249 246 245 243 240 239 
240 240 238 231 230 231 231 231 234 235 237 237 237 235 232 229 227 225 227 
229 234 235 233 231 226 225 225 229 231 236 239 242 249 251 254 255 254 253 
242 244 244 246 247 252 248 243 243 245 241 237 238 235 236 234 235 230 231 
232 234 234 235 237 236 237 235 230 227 223 226 233 236 236 235 233 227 225 
223 222 225 226 232 241 247 247 251 254 255 255 245 245 245 248 248 251 248 
242 240 239 240 241 239 237 238 237 238 236 239 241 240 238 241 241 240 237 
231 225 224 224 226 233 236 242 240 235 229 224 221 221 225 226 234 241 246 
250 251 253 255 255 249 249 250 250 246 248 246 243 243 238 235 238 240 239 
238 239 237 238 240 240 241 239 238 240 238 238 235 232 229 236 236 237 237 
238 237 236 233 228 226 225 232 237 238 243 248 255 254 255 255 255 252 250 
250 249 247 245 245 243 242 237 237 238 241 241 241 242 238 239 239 237 233 
232 236 240 242 243 244 241 242 240 238 238 239 236 235 234 235 237 236 235 
238 241 242 245 247 251 253 255 253 254 255 255 252 251 248 245 244 246 246 
244 242 235 237 241 242 242 242 238 239 234 226 224 233 241 245 245 244 240 
238 238 239 239 239 234 236 239 239 238 237 239 240 240 240 240 244 250 252 
254 255 255 255 254 252 248 247 244 240 244 247 246 247 241 229 238 242 244 
245 242 241 238 234 234 240 239 242 243 242 240 238 239 241 242 244 246 248 
248 245 243 242 244 241 242 242 243 245 249 249 253 255 255 255 253 247 246 
247 246 246 246 250 250 246 241 238 243 245 243 239 240 239 240 239 240 242 
242 241 240 242 241 240 240 240 245 250 250 252 250 246 243 245 244 243 242 
243 241 244 253 255 255 251 248 255 253 250 249 251 249 249 247 250 250 248 
245 240 242 240 240 239 237 237 237 238 240 241 242 241 239 238 240 243 244 
244 247 244 248 250 248 245 240 234 235 241 244 245 245 248 254 255 254 253 
252 254 253 251 250 248 247 250 247 253 255 249 246 241 239 239 239 241 237 
237 237 237 242 237 238 238 242 243 243 242 241 245 249 251 253 255 252 250 
245 241 240 242 248 251 253 253 255 254 250 247 246 255 253 253 251 248 248 
251 250 251 252 249 246 243 237 234 239 239 241 240 242 241 239 239 239 242 
245 250 249 247 249 252 252 255 255 255 253 252 247 243 249 249 249 250 253 
255 255 255 255 255 255 255 254 252 252 252 251 251 253 254 254 255 253 250 
248 248 249 245 244 244 243 243 243 240 241 241 246 249 247 249 246 255 253 
252 251 252 251 249 246 242 247 250 251 251 252 255 255 255 253 254 253 253 
255 255 255 255 255 255 255 253 254 255 255 253 249 252 251 250 247 243 238 
234 233 236 238 238 245 249 249 251 251 250 250 250 248 251 253 251 248 244 
248 250 251 251 252 254 255 255 255 255 255 
