P2
#output from hocrtest
110 110
255
245 240 249 246 254 255 252 248 250 252 254 255 255 254 252 252 251 254 246 
237 243 248 237 246 244 246 241 238 242 244 248 248 253 255 255 254 254 255 
252 248 244 251 251 254 254 255 253 249 250 235 239 249 252 243 244 251 251 
251 248 238 250 251 251 245 249 250 245 250 252 251 247 247 252 250 255 255 
255 255 255 253 251 251 253 253 255 255 252 243 254 254 253 251 248 248 246 
246 245 232 251 252 250 250 253 255 255 253 243 251 253 252 244 243 248 251 
254 254 250 248 248 249 253 254 254 252 251 251 252 253 252 248 252 251 245 
246 245 243 237 237 238 239 244 248 252 255 255 253 252 254 252 247 249 252 
253 253 254 255 254 250 251 243 242 248 251 248 247 248 248 249 247 246 249 
248 249 247 247 250 250 249 251 252 252 252 253 254 254 252 251 254 253 251 
251 250 252 252 254 255 253 251 254 255 253 252 250 247 244 244 245 244 250 
250 251 252 255 254 252 251 247 249 249 247 244 242 248 252 255 253 248 246 
246 248 251 249 250 249 248 246 248 249 249 250 251 252 249 246 244 243 243 
242 238 240 245 248 252 253 253 250 252 253 253 253 252 252 249 249 249 249 
246 244 243 242 244 249 251 252 253 253 252 250 248 249 250 249 249 248 248 
249 246 242 247 250 253 255 254 255 254 253 250 250 251 251 250 252 255 255 
255 254 253 253 254 252 251 249 250 250 249 247 245 244 245 248 248 252 254 
255 254 253 251 252 252 252 249 249 250 252 254 254 250 247 248 249 249 250 
249 245 245 245 247 246 244 247 248 250 250 249 246 244 243 243 238 240 243 
249 249 250 250 250 251 252 251 251 251 249 245 245 243 242 242 242 240 244 
244 245 247 251 253 254 251 248 252 252 252 248 245 245 242 244 242 237 241 
246 248 250 252 251 249 247 244 243 244 246 249 252 254 253 250 249 248 249 
250 250 250 250 251 251 249 247 246 245 246 248 249 252 252 251 253 252 250 
252 253 254 249 249 248 250 248 249 246 246 246 249 250 251 250 246 243 242 
243 243 243 247 250 250 249 247 244 243 244 244 240 241 242 247 249 249 249 
249 249 250 250 248 248 246 244 242 240 237 238 237 239 243 244 247 249 250 
250 254 254 251 254 254 254 249 248 245 241 241 240 236 240 244 246 247 250 
249 247 246 245 244 242 243 245 249 252 252 248 248 248 248 250 250 249 248 
247 245 248 249 247 245 246 246 249 249 248 247 248 247 248 250 250 248 251 
250 248 245 242 244 245 245 244 245 247 247 246 246 244 238 236 239 241 244 
249 250 247 244 245 246 247 247 245 243 242 241 244 246 247 248 247 247 247 
247 248 249 246 241 239 235 233 233 236 236 235 242 245 247 251 252 252 249 
249 249 250 249 248 247 245 242 241 239 242 243 248 249 250 250 249 248 248 
247 244 244 246 249 250 248 244 244 244 244 248 248 248 246 245 246 245 247 
244 243 244 245 246 247 244 245 247 248 248 251 250 247 248 247 246 243 241 
243 244 244 244 243 241 241 243 244 240 235 234 236 239 244 247 246 239 238 
241 244 247 247 248 247 247 243 242 242 245 248 251 249 249 247 247 246 244 
242 239 237 234 231 233 235 234 242 246 245 248 248 247 246 245 244 245 246 
245 244 242 241 241 239 242 243 246 247 245 246 246 245 245 244 243 243 245 
246 244 243 244 243 243 244 245 246 245 244 243 245 246 243 240 240 241 241 
244 245 244 246 249 251 250 250 250 250 245 247 245 244 241 240 242 244 243 
242 239 238 241 242 239 235 230 232 234 238 243 243 239 235 235 237 239 241 
245 247 247 244 238 240 244 246 249 248 246 243 242 242 240 240 242 239 237 
236 235 238 237 242 244 245 247 248 250 246 245 243 241 242 243 241 238 237 
238 237 240 241 244 244 242 242 243 242 240 240 239 240 244 244 243 242 244 
243 244 243 242 240 237 238 239 242 244 242 238 236 234 236 240 242 245 247 
248 249 250 251 252 254 247 247 246 247 246 246 243 239 235 236 235 234 237 
239 238 235 231 232 233 234 239 241 237 234 234 238 239 241 244 246 243 241 
234 235 236 236 241 241 240 240 240 238 236 237 239 238 236 232 234 235 236 
241 241 241 242 242 242 240 240 239 238 241 241 240 237 237 239 239 238 240 
240 236 237 240 237 235 235 238 240 241 238 237 238 239 239 238 239 240 239 
237 237 238 238 240 243 242 241 239 235 235 238 240 244 247 247 246 248 250 
253 255 248 245 246 248 248 246 244 239 235 234 232 232 233 236 236 234 230 
228 231 232 230 234 233 233 232 237 240 242 244 243 237 237 233 232 232 233 
236 236 234 234 235 237 237 237 236 234 232 230 230 236 238 241 238 240 240 
242 239 238 240 240 237 238 239 240 238 236 240 239 238 239 236 236 235 236 
237 237 237 239 239 238 236 232 234 234 230 233 231 234 233 235 236 237 238 
238 240 241 240 236 233 231 232 235 237 239 244 244 244 245 246 243 248 249 
247 249 250 246 242 239 237 236 233 233 234 238 238 236 232 230 232 235 233 
233 230 231 235 236 238 241 240 240 237 234 231 227 227 228 227 228 229 229 
229 230 236 236 235 232 233 230 230 235 238 238 237 236 238 237 234 233 235 
239 239 241 241 241 240 236 237 238 235 235 235 238 238 242 240 236 236 237 
237 237 233 231 230 229 229 233 235 236 235 234 235 237 238 238 236 237 236 
234 231 229 227 230 234 239 241 242 244 243 244 244 249 251 251 252 251 248 
244 241 242 242 240 238 237 241 241 239 241 240 239 236 233 229 229 230 229 
232 234 236 235 235 232 228 226 225 226 223 225 226 231 232 233 231 231 230 
232 233 232 233 232 235 236 237 236 235 235 233 231 227 229 232 238 239 239 
241 241 237 238 237 234 236 235 237 238 241 240 236 235 234 232 230 226 228 
229 228 226 227 229 231 233 232 231 232 233 234 233 233 233 231 230 229 228 
230 236 240 243 242 241 239 240 240 254 255 253 252 251 248 248 247 246 244 
239 239 235 237 238 235 237 241 242 241 237 235 231 229 226 229 229 229 231 
231 230 227 225 226 228 228 230 231 235 236 236 234 231 229 230 235 233 230 
230 231 231 232 232 229 226 227 228 224 222 224 229 228 227 228 229 231 231 
230 228 232 232 232 235 237 238 236 232 233 233 233 231 232 228 227 224 223 
224 228 231 231 231 231 229 229 229 230 231 232 232 231 230 234 238 242 243 
242 242 240 239 239 254 254 255 254 252 247 246 244 241 241 238 231 224 223 
223 223 223 228 233 233 232 232 230 229 229 228 229 230 230 230 229 229 229 
225 223 226 227 228 232 232 233 233 231 232 232 231 229 227 226 225 225 226 
226 226 227 225 227 223 223 222 226 227 227 227 231 232 231 230 228 230 232 
233 238 238 237 235 231 230 232 232 231 229 229 228 226 226 226 227 228 228 
226 224 222 222 224 226 229 231 233 235 237 240 244 244 245 243 241 240 240 
242 253 253 254 253 251 242 241 238 235 235 234 229 224 222 219 218 217 223 
229 230 228 228 227 226 227 229 230 230 227 228 227 226 226 224 225 225 225 
224 227 229 229 227 225 226 224 226 223 222 221 219 218 218 219 220 221 225 
227 226 221 218 217 219 222 224 228 231 234 233 233 232 234 238 238 236 237 
235 234 232 230 227 226 226 226 224 222 226 225 226 226 228 225 222 222 224 
223 224 225 231 234 233 235 241 243 245 247 246 247 246 246 247 255 254 254 
253 250 242 240 238 235 235 232 227 223 221 220 216 217 225 230 228 224 223 
222 222 225 229 230 229 227 226 223 223 223 224 225 226 225 222 219 220 219 
217 218 223 226 226 221 220 220 218 221 220 219 219 220 222 222 223 224 223 
223 224 228 227 230 232 233 234 236 235 233 235 232 234 232 232 231 230 228 
223 222 223 223 222 221 224 223 223 223 225 224 220 218 221 220 222 226 232 
235 240 243 248 249 253 252 250 249 251 250 248 255 254 254 251 249 243 238 
234 231 229 231 230 228 222 222 222 223 229 232 226 220 219 218 219 222 226 
230 230 228 229 226 225 222 225 228 230 227 222 216 214 215 217 219 223 224 
228 226 223 222 219 220 221 222 223 223 221 221 222 223 225 224 223 225 223 
225 227 227 228 229 227 229 231 234 231 229 226 227 226 224 221 220 223 224 
225 224 225 223 222 220 220 220 221 219 220 225 230 231 235 239 242 246 248 
251 254 252 249 248 249 250 251 255 255 254 252 250 246 241 235 232 230 227 
227 229 226 225 224 224 227 230 226 224 220 217 217 220 224 228 228 226 228 
227 223 222 225 228 227 224 219 217 215 214 215 219 222 223 225 223 220 217 
217 219 218 217 222 220 219 219 220 222 221 222 223 223 223 225 225 223 223 
223 221 222 221 221 223 222 219 224 224 223 221 217 217 218 220 221 222 220 
216 216 217 217 219 219 219 221 230 232 235 238 242 245 247 250 251 249 247 
244 241 240 237 254 255 253 253 251 248 244 236 231 228 226 223 227 226 224 
223 224 223 226 225 223 218 219 219 218 220 221 219 220 219 218 218 219 221 
223 222 220 217 217 216 216 218 220 220 219 223 221 218 215 220 222 222 220 
219 218 218 216 216 217 216 219 222 219 218 219 221 220 221 220 220 220 218 
217 217 216 218 221 220 221 216 215 215 215 216 219 219 219 218 216 217 218 
218 220 221 224 230 234 238 243 247 247 248 247 247 246 246 245 246 246 245 
251 251 248 249 249 248 244 239 235 233 232 230 231 230 227 224 224 223 222 
221 219 214 215 217 217 216 216 213 214 209 208 209 214 218 220 220 219 215 
215 213 216 220 219 217 215 217 217 215 215 218 221 222 221 216 216 218 218 
219 221 219 216 218 215 214 215 216 215 215 219 217 217 216 212 213 215 219 
219 218 219 216 212 211 213 214 215 216 218 211 208 214 216 219 221 224 226 
232 236 241 245 245 243 245 245 245 246 247 248 249 251 251 246 248 244 244 
245 243 241 238 235 232 229 230 229 232 230 226 218 218 218 219 219 219 219 
217 214 213 213 213 211 208 208 212 216 218 218 220 217 214 214 215 218 217 
216 214 216 219 218 216 213 215 218 219 219 214 215 217 219 218 217 218 217 
216 211 212 212 214 215 211 212 212 215 217 217 215 217 218 217 220 219 218 
211 209 209 210 211 215 214 209 208 210 216 218 217 216 224 228 233 238 243 
245 244 245 244 243 246 247 249 249 251 252 246 247 245 244 241 239 237 231 
227 223 222 224 224 223 221 221 218 216 213 211 213 213 215 217 216 215 214 
214 213 204 206 212 216 221 217 215 210 205 206 207 212 213 214 212 213 214 
214 212 208 211 213 207 204 200 204 208 210 213 213 213 212 211 209 209 213 
215 218 215 216 217 216 217 218 220 218 216 215 216 213 214 211 207 210 216 
218 219 219 215 214 215 217 217 218 218 223 227 229 237 240 245 245 244 243 
243 247 249 247 251 248 250 249 248 246 244 241 238 236 229 227 225 224 223 
220 222 221 223 223 219 215 217 215 214 212 210 213 212 212 212 215 210 207 
212 216 217 215 211 207 203 204 205 209 212 211 210 211 210 210 210 203 204 
203 201 199 198 204 205 210 212 211 210 207 209 210 209 214 217 218 214 212 
216 215 214 215 217 216 215 213 211 208 207 203 202 205 212 213 214 214 214 
214 216 216 219 219 220 222 225 226 232 235 240 242 245 242 243 247 249 247 
246 247 246 251 251 249 248 244 242 238 234 232 229 225 223 222 223 227 229 
227 226 223 222 219 218 214 211 210 211 210 212 215 214 212 211 210 211 213 
208 208 205 204 204 204 205 207 205 207 208 207 207 203 205 208 209 208 205 
205 208 211 213 206 207 205 205 205 206 209 212 213 213 211 212 209 207 211 
212 213 212 208 204 200 198 197 197 200 208 211 213 212 211 210 213 213 213 
213 214 219 220 219 225 228 234 238 244 244 247 249 250 249 248 247 247 250 
252 253 253 252 249 243 238 235 231 226 225 223 221 224 228 226 223 224 222 
216 214 212 211 207 206 208 211 214 214 211 209 209 207 207 207 208 205 204 
204 203 202 203 202 203 205 203 203 202 203 206 209 208 205 206 211 209 210 
204 201 198 195 196 200 204 208 212 212 209 207 204 205 207 208 209 208 207 
204 201 200 197 197 200 204 206 208 209 208 210 213 213 212 211 212 217 220 
219 226 231 233 235 238 241 244 244 247 247 249 249 248 253 254 255 254 252 
247 238 235 231 231 229 229 229 227 230 232 233 230 226 224 222 217 216 211 
207 203 203 207 210 209 207 210 209 209 206 207 207 206 202 200 199 199 201 
203 205 205 202 199 200 202 203 203 201 202 203 206 204 203 202 198 199 197 
195 197 202 206 206 204 204 202 200 202 205 205 204 206 207 206 203 203 198 
197 198 201 205 207 206 208 208 211 213 211 214 221 226 229 228 228 224 225 
233 240 241 244 244 246 248 248 251 252 251 252 252 252 250 247 238 235 234 
235 233 231 229 226 227 230 231 230 225 222 218 216 215 212 207 206 205 206 
207 206 206 207 209 211 205 205 204 203 202 201 198 196 194 195 199 199 200 
199 200 200 200 200 202 204 206 207 206 206 201 198 196 193 195 197 199 198 
203 201 200 199 198 201 203 205 207 205 209 210 208 208 205 201 197 198 200 
204 203 207 209 215 217 218 220 224 228 229 227 226 224 227 233 238 239 239 
240 244 245 245 239 234 250 252 252 251 249 246 240 238 238 236 235 234 231 
228 228 230 228 226 222 220 215 214 214 211 209 208 206 205 204 202 202 206 
208 208 205 203 200 201 199 200 198 198 196 198 202 200 199 199 201 201 198 
199 201 204 206 208 209 208 204 198 196 193 194 196 196 194 198 199 199 199 
198 200 201 203 204 203 204 205 205 206 204 201 198 198 200 205 208 211 217 
217 217 214 217 219 224 225 224 226 223 229 232 234 238 241 241 242 245 244 
242 244 251 250 248 245 244 243 241 237 239 239 238 235 228 225 222 214 213 
218 218 216 211 211 212 210 210 208 204 200 200 200 200 199 203 205 203 202 
200 198 193 192 192 194 196 194 196 200 198 199 201 201 201 201 202 204 208 
207 207 204 202 197 196 194 192 195 195 198 202 204 204 203 202 200 198 200 
199 195 195 195 202 204 203 201 199 197 201 207 210 213 213 214 211 211 212 
215 224 228 229 231 232 234 239 241 246 245 243 242 243 241 240 238 253 251 
248 244 243 242 242 241 240 239 239 237 230 221 217 216 217 218 216 213 210 
209 210 209 208 207 202 199 193 190 192 191 199 204 205 205 204 200 194 190 
191 191 193 197 196 200 200 201 203 206 202 201 203 204 206 207 205 205 200 
199 196 195 191 193 194 194 200 199 199 199 198 193 191 193 193 195 194 193 
195 199 200 200 202 203 208 212 216 215 210 209 208 211 212 217 223 226 230 
232 232 235 238 241 241 242 240 242 242 242 239 237 250 247 244 242 241 241 
240 241 240 236 236 234 229 223 221 219 221 220 219 216 210 209 211 213 211 
208 202 200 194 192 192 194 199 202 204 206 204 201 196 194 191 192 193 195 
199 200 202 203 202 202 198 198 198 198 199 203 202 201 199 198 197 196 195 
197 198 199 200 200 197 192 188 186 183 186 191 193 193 194 195 196 199 201 
204 203 206 213 215 217 214 216 218 219 219 220 225 226 230 234 235 236 237 
240 242 245 245 249 246 248 249 249 248 247 243 239 239 240 241 242 238 236 
235 232 231 228 228 227 224 221 219 217 215 215 215 218 218 214 206 199 196 
194 193 194 198 201 202 203 202 199 196 198 194 195 194 196 198 199 203 206 
204 201 198 199 197 194 194 196 197 198 201 200 195 193 190 192 195 198 200 
200 195 189 185 184 184 188 192 195 197 194 195 196 196 195 197 196 196 200 
204 213 218 218 221 223 222 221 222 222 228 232 235 236 237 238 242 243 245 
248 248 247 250 250 247 245 239 239 239 240 237 239 236 235 228 229 229 229 
230 229 223 220 215 215 213 215 215 218 216 212 208 200 196 196 195 194 195 
195 196 197 197 196 194 194 191 194 195 198 201 201 204 205 206 205 204 204 
201 198 198 198 196 195 200 199 195 192 189 190 193 198 200 201 195 192 190 
189 193 195 198 199 201 198 196 196 196 198 200 197 200 205 207 211 218 217 
218 222 222 222 222 222 228 231 228 230 229 227 232 238 244 249 249 247 249 
249 249 247 246 244 243 240 237 237 236 236 233 234 230 228 229 229 225 217 
211 214 213 213 214 215 209 207 205 200 194 193 191 190 192 193 192 192 192 
191 190 191 187 189 192 196 199 194 195 195 196 199 197 199 197 197 197 197 
199 197 197 190 186 185 183 186 187 192 193 194 188 184 186 188 190 196 198 
197 197 194 193 193 193 194 196 196 201 204 208 214 219 218 217 222 224 225 
228 228 230 231 229 226 226 226 229 235 245 249 250 248 250 251 246 248 247 
247 242 240 234 235 235 233 233 234 231 228 225 219 218 214 215 212 213 209 
208 205 200 196 191 192 192 192 194 191 190 188 187 185 184 183 180 183 182 
184 186 193 194 192 191 189 189 193 195 194 191 194 194 192 191 190 190 188 
186 186 185 185 184 189 189 188 185 182 184 186 189 192 193 194 193 190 188 
190 188 192 196 199 202 204 211 217 220 219 217 217 221 226 229 232 230 230 
226 226 227 227 230 236 244 248 249 248 248 247 250 251 246 243 238 236 232 
232 232 230 229 226 226 224 222 219 218 219 219 215 212 211 208 204 199 195 
191 191 190 192 196 193 194 192 186 183 181 183 183 183 182 182 185 188 188 
189 188 185 184 186 191 191 187 188 188 183 182 183 184 182 183 187 186 186 
186 185 186 185 183 181 181 184 184 182 182 184 184 185 187 185 188 190 194 
196 199 204 218 222 225 221 221 219 221 226 228 231 229 231 230 229 230 231 
234 237 241 245 248 246 244 244 249 251 248 242 238 236 234 233 232 230 231 
230 227 223 223 219 218 218 219 216 217 216 212 209 205 203 199 198 197 194 
193 192 197 194 189 183 180 179 180 182 181 178 174 174 178 182 186 183 181 
182 183 181 176 176 175 171 173 179 183 186 189 193 192 189 187 185 187 187 
184 184 183 184 184 187 189 187 185 186 188 189 190 190 193 194 198 204 217 
223 223 220 217 216 224 229 230 227 225 225 229 231 236 238 241 242 243 241 
244 242 240 241 252 253 251 247 242 240 236 233 233 229 230 229 225 223 221 
218 217 214 213 214 213 215 213 210 207 206 202 199 197 193 191 192 193 190 
187 184 180 179 179 180 177 175 172 172 177 178 181 182 186 187 181 174 171 
172 173 173 173 175 178 184 185 188 189 189 185 182 183 186 186 187 185 183 
184 188 189 188 185 183 184 184 185 190 190 191 198 202 214 221 227 223 220 
219 221 227 227 226 224 224 226 227 230 235 239 241 242 245 246 248 250 251 
254 255 252 248 246 242 239 233 230 228 227 224 221 219 219 217 215 213 212 
209 210 214 217 211 208 207 203 200 197 197 197 197 199 195 191 183 180 178 
176 178 177 178 174 172 178 178 181 183 186 183 178 170 167 169 170 171 173 
173 175 178 182 185 185 183 179 175 177 179 182 181 179 176 178 183 186 187 
185 185 184 183 186 194 195 194 195 196 205 214 219 221 219 218 222 228 226 
225 226 226 228 229 233 236 238 240 242 245 246 248 248 248 255 255 255 251 
245 242 239 236 231 231 228 225 221 218 221 219 215 215 214 212 213 218 219 
217 216 214 209 204 198 192 192 194 195 190 191 184 181 178 177 179 176 175 
173 171 172 172 173 174 176 173 172 168 167 168 170 169 170 168 171 173 176 
180 181 179 175 171 171 170 172 173 173 173 177 179 181 185 190 189 189 190 
191 197 200 197 200 203 207 215 216 217 217 219 222 228 229 230 228 228 227 
228 227 229 231 236 242 245 245 250 250 252 255 255 255 255 252 248 244 240 
236 235 233 231 228 225 223 221 217 215 217 216 218 220 222 219 215 212 212 
209 206 196 194 191 191 187 185 179 174 176 175 176 175 173 168 161 160 165 
168 171 170 171 169 166 164 167 169 171 172 170 173 175 178 180 180 179 177 
173 172 169 168 169 166 173 177 180 183 187 190 191 196 198 199 201 203 202 
203 202 206 208 210 213 212 214 220 224 230 232 234 233 232 230 229 232 235 
237 242 250 251 253 253 254 251 251 251 253 250 247 244 241 237 234 233 233 
232 230 229 226 222 217 219 217 216 217 220 222 218 211 207 206 205 197 191 
190 189 186 184 181 180 178 178 177 176 172 167 164 167 171 174 176 175 173 
172 168 168 168 170 171 173 171 174 174 173 173 173 170 166 164 165 166 166 
167 169 172 176 180 186 186 187 188 194 198 198 203 202 198 203 204 207 208 
209 213 212 217 224 228 233 235 238 238 237 235 233 237 238 242 247 248 252 
251 251 253 247 246 247 249 249 247 244 238 235 234 235 235 231 230 232 231 
230 227 221 217 216 216 219 218 214 209 208 204 201 195 194 194 191 186 184 
179 180 180 178 179 180 177 173 168 168 169 171 172 169 166 165 165 165 165 
165 165 169 171 175 173 166 164 164 162 160 162 164 164 165 168 171 174 178 
181 187 187 184 184 189 198 201 205 203 198 202 205 206 208 209 211 214 217 
223 225 230 231 235 236 236 236 237 241 243 242 245 246 246 243 243 245 247 
246 248 248 249 249 245 241 240 237 235 235 233 230 231 231 230 228 225 220 
217 214 215 214 211 207 203 199 197 195 195 196 193 190 187 184 183 180 176 
176 177 174 171 168 169 166 166 166 167 165 164 165 163 162 160 163 168 170 
176 173 166 164 160 160 160 161 164 165 167 170 172 176 179 182 186 187 186 
187 192 196 197 199 200 200 202 206 206 207 214 215 215 219 219 219 227 230 
234 235 234 236 238 240 241 241 241 241 244 243 243 241 249 249 249 246 245 
243 243 242 243 239 235 227 226 230 230 229 229 226 225 220 219 213 211 209 
208 205 198 193 191 191 193 194 195 193 189 186 189 187 181 179 176 175 173 
170 169 163 162 162 164 162 161 163 163 160 161 164 166 167 170 174 170 168 
169 168 163 162 164 167 169 171 172 174 177 179 181 185 186 189 190 194 198 
201 204 204 207 209 208 207 211 215 216 215 216 217 221 228 231 231 231 234 
239 240 242 242 242 243 244 243 243 243 251 250 248 246 242 241 242 242 242 
239 238 233 231 231 230 229 229 222 219 215 215 211 208 205 203 200 193 190 
184 189 192 194 192 190 186 187 187 188 184 183 182 177 176 172 171 168 164 
160 162 163 163 163 160 161 163 161 160 161 161 167 168 167 166 166 165 166 
168 169 171 172 171 173 176 178 181 183 188 190 193 196 195 200 208 209 210 
209 208 209 209 210 210 213 216 215 220 227 230 231 232 233 238 240 241 244 
246 246 246 245 245 245 251 250 245 241 243 241 241 242 241 240 239 236 234 
234 232 232 230 226 219 213 211 210 210 208 204 199 192 190 189 193 192 194 
190 191 187 189 187 187 186 182 176 174 176 173 171 167 163 165 165 166 164 
161 156 158 160 159 159 159 159 162 168 168 166 165 164 168 169 170 169 169 
170 170 175 179 180 182 185 189 194 198 200 205 209 211 213 213 212 212 211 
209 208 209 214 216 221 225 228 230 230 231 237 239 240 245 247 247 245 244 
244 241 250 250 246 245 242 240 240 238 236 235 234 232 231 232 229 227 225 
225 219 213 211 211 212 208 201 197 193 191 191 190 188 189 188 186 185 187 
185 185 182 180 175 173 173 173 169 166 163 163 164 163 162 158 158 159 160 
160 160 161 163 167 169 169 168 170 171 173 174 174 173 172 172 171 174 177 
177 179 183 186 191 197 199 203 206 208 211 212 210 214 212 210 209 207 215 
219 226 230 230 231 231 232 234 238 240 244 248 248 247 244 245 245 255 253 
250 247 242 239 237 235 235 234 230 223 225 225 226 225 222 222 215 212 213 
215 216 215 209 204 197 195 195 194 191 189 190 187 187 188 188 182 180 176 
172 169 172 172 169 167 165 159 157 160 162 157 153 154 153 155 158 159 158 
162 162 164 166 167 171 175 178 176 177 173 170 169 170 174 176 178 180 184 
190 192 193 197 201 203 208 211 211 212 214 215 213 213 216 220 229 230 229 
232 233 234 233 235 237 240 245 245 242 238 242 244 252 249 245 244 240 237 
237 238 239 238 233 227 225 227 224 221 219 218 214 217 219 222 221 218 216 
209 199 196 195 193 190 187 188 190 188 190 187 181 180 180 182 175 173 172 
170 166 162 157 156 159 161 157 151 150 147 151 156 157 157 156 157 160 163 
167 168 171 175 175 173 171 169 175 175 180 182 183 182 185 187 190 193 198 
200 203 208 208 208 210 213 216 218 217 215 220 226 228 227 226 227 228 230 
235 237 236 240 237 236 234 236 237 252 251 250 249 246 241 241 241 239 236 
234 231 229 228 227 224 220 218 217 216 218 219 214 214 212 209 205 199 197 
194 190 188 187 186 183 184 181 179 176 178 180 176 176 174 170 166 160 157 
155 158 161 162 157 155 150 152 155 157 158 156 157 160 160 164 165 167 169 
170 172 169 170 172 176 182 187 187 186 187 188 193 196 197 199 203 206 210 
211 213 215 216 217 217 218 222 227 229 228 227 228 233 232 235 236 239 241 
237 235 234 235 238 252 253 254 251 248 241 240 236 237 236 232 230 230 230 
230 229 223 222 221 219 220 219 219 216 207 204 203 201 199 196 192 188 185 
186 183 182 176 177 176 175 179 179 177 172 169 163 156 152 152 155 161 162 
161 157 155 156 154 153 154 154 158 160 158 161 165 166 169 172 173 171 170 
174 178 183 189 191 193 190 191 194 194 194 195 196 200 207 211 213 214 216 
216 214 216 219 229 231 232 231 233 233 233 237 240 243 245 242 240 236 235 
230 253 254 252 252 249 244 240 236 235 233 228 225 226 227 230 230 225 223 
220 220 217 214 215 211 204 201 199 199 198 196 196 194 188 187 185 185 181 
180 176 177 179 178 174 166 163 160 156 156 155 155 158 154 155 154 153 154 
152 151 150 150 155 159 162 166 166 168 170 171 172 173 173 177 179 183 186 
185 187 188 188 194 196 196 195 197 202 208 213 213 213 214 214 213 214 216 
224 229 231 232 232 233 233 234 239 241 243 241 244 243 246 246 255 254 252 
249 246 244 239 237 234 232 227 221 223 225 229 230 225 223 217 215 214 214 
215 211 199 198 200 199 199 195 195 190 186 185 183 181 177 177 174 175 174 
172 169 164 160 158 153 152 150 151 151 147 148 148 150 149 145 144 144 151 
150 151 156 161 164 167 172 174 174 177 176 178 177 178 180 184 193 197 197 
199 200 198 198 202 205 208 210 210 213 212 213 212 214 221 224 225 228 227 
229 231 232 233 240 241 243 239 240 241 242 241 254 253 252 251 249 248 244 
240 235 233 227 225 227 227 228 230 227 224 220 214 214 213 211 208 204 203 
204 202 202 201 198 193 190 188 189 182 178 175 171 169 167 166 164 163 160 
158 156 155 152 153 149 146 146 147 146 145 143 140 140 146 145 146 149 155 
161 165 170 173 175 176 177 177 176 175 176 184 193 195 199 202 204 201 199 
201 202 202 203 204 209 211 214 220 225 227 229 228 230 231 232 234 235 237 
242 245 247 248 248 247 245 242 249 248 248 247 250 250 251 246 241 237 231 
231 231 228 227 228 226 224 220 217 217 217 216 211 207 207 206 203 202 199 
195 189 187 185 187 182 177 170 168 167 167 167 166 164 163 161 158 152 149 
150 147 144 144 144 145 141 139 142 143 144 142 145 151 155 160 163 165 167 
172 177 181 181 181 181 182 187 194 195 197 198 198 198 199 200 202 201 202 
206 211 217 221 225 227 226 228 234 236 237 237 234 233 236 241 245 250 254 
252 250 246 245 247 247 245 246 249 249 251 249 247 242 238 236 233 228 226 
227 225 222 219 215 214 214 213 211 210 207 206 204 197 192 188 183 185 187 
188 184 176 171 168 166 167 167 167 165 161 159 158 156 151 150 149 148 148 
151 152 146 141 141 144 144 143 148 152 160 163 165 167 168 171 178 181 183 
185 183 184 187 190 191 193 196 197 199 204 200 199 200 201 203 209 217 220 
223 225 225 225 229 235 237 237 237 236 236 236 238 243 245 243 244 242 239 
243 243 243 243 245 247 247 249 244 242 236 233 233 231 228 225 220 219 220 
220 217 213 211 211 211 207 204 200 193 188 185 179 181 179 183 182 179 174 
172 168 170 169 169 168 163 160 161 159 157 158 158 156 155 153 149 144 140 
138 144 146 149 151 157 164 165 167 167 168 171 175 177 180 184 182 181 181 
186 191 197 196 202 204 207 208 210 210 210 206 208 218 221 223 222 223 224 
228 233 236 236 237 238 239 240 241 243 243 240 237 233 233 245 242 242 244 
246 244 245 244 240 237 232 231 231 231 228 223 220 217 216 214 211 210 208 
205 205 204 202 198 190 189 186 181 181 182 183 182 178 177 174 170 169 168 
169 169 169 165 164 164 161 162 162 158 158 157 154 150 148 146 151 152 154 
156 160 168 168 173 172 168 167 166 167 168 182 183 183 183 187 192 195 194 
195 199 199 200 205 210 210 208 211 217 219 220 220 221 223 225 226 226 224 
228 233 237 240 241 244 243 241 241 240 242 249 247 246 244 243 243 242 239 
234 229 226 227 227 226 223 219 217 216 217 216 211 210 206 207 203 202 200 
199 196 192 193 189 188 187 184 183 181 177 175 167 161 159 160 164 166 163 
163 162 161 162 161 159 157 155 153 152 150 148 152 154 156 158 163 168 169 
173 171 170 167 163 163 167 176 180 181 183 189 189 191 194 193 193 192 195 
203 209 209 213 215 217 219 222 222 223 220 219 223 222 222 223 230 236 239 
239 241 245 246 246 248 247 250 248 248 246 245 245 246 243 237 232 231 228 
229 230 225 221 219 217 216 213 214 212 211 209 204 201 200 202 201 200 197 
191 185 185 187 186 185 175 172 165 160 162 161 164 166 165 163 162 161 160 
157 156 156 155 155 153 154 156 160 160 157 159 160 164 168 171 169 170 167 
166 170 172 176 177 179 181 185 187 189 189 189 190 192 197 200 204 206 210 
214 215 218 220 224 223 224 223 223 222 225 230 233 236 239 237 238 245 246 
246 246 241 249 248 249 247 245 243 242 238 235 233 235 232 232 229 226 223 
222 224 223 216 213 211 207 205 204 203 203 205 205 201 198 194 190 187 189 
188 189 184 178 175 170 166 166 168 167 164 162 158 155 157 158 158 158 157 
155 150 152 157 161 163 162 163 162 169 171 174 170 172 170 170 173 175 175 
175 177 179 183 188 190 192 192 195 196 199 197 199 205 208 213 216 221 224 
225 224 226 227 228 226 228 232 235 239 245 245 246 247 246 244 245 244 249 
246 246 244 243 241 240 239 236 232 231 231 233 231 229 225 220 224 224 220 
216 215 212 210 207 208 210 210 209 205 200 192 188 188 190 189 188 189 185 
181 173 168 167 169 172 171 167 159 158 158 159 162 163 162 159 155 154 156 
159 160 156 155 158 164 165 168 166 170 171 173 175 174 175 176 178 181 187 
189 193 195 195 196 196 197 197 200 205 210 214 218 221 224 225 226 228 228 
228 228 229 233 237 240 244 246 251 249 247 246 245 243 253 252 250 247 246 
244 242 238 237 231 232 233 235 233 229 223 220 221 219 217 214 213 212 211 
206 203 205 205 200 195 194 186 187 187 188 188 189 191 186 182 177 174 170 
173 176 175 170 167 163 162 162 166 165 164 162 163 159 155 154 155 154 154 
157 162 164 166 164 169 170 173 176 176 180 181 182 185 186 189 195 197 198 
198 198 199 200 201 202 205 207 213 220 224 226 224 223 219 217 217 221 227 
236 238 243 248 250 250 250 247 246 243 254 254 254 251 246 244 244 241 237 
232 232 230 230 228 225 222 222 220 220 216 210 207 206 205 204 199 200 201 
197 195 192 189 186 183 180 178 180 182 184 185 181 178 176 174 176 174 168 
167 167 166 166 167 169 169 166 169 162 159 157 157 159 162 167 172 171 170 
165 166 165 170 178 180 184 185 186 186 188 190 192 193 195 195 197 197 199 
197 199 202 205 209 215 220 221 223 226 221 219 221 221 225 237 242 246 249 
249 248 245 244 243 239 251 250 249 248 244 243 239 238 237 232 231 229 227 
226 227 222 220 220 219 219 213 209 206 205 204 203 201 199 197 197 194 191 
188 185 182 185 179 180 187 187 183 179 178 177 176 174 168 166 168 169 167 
167 168 170 169 169 167 167 167 164 165 169 169 171 171 170 166 166 168 171 
177 180 183 185 185 184 185 189 195 199 201 202 201 198 198 196 196 198 206 
210 212 213 217 221 226 225 227 229 229 232 238 239 242 244 246 248 246 245 
245 244 246 245 246 246 244 241 240 237 234 232 230 229 228 228 226 222 217 
212 214 216 215 216 214 214 211 207 198 195 193 195 195 196 191 187 181 181 
180 182 185 183 179 177 171 171 172 170 170 171 175 172 169 171 175 174 175 
177 174 169 171 170 168 168 167 168 168 169 168 170 171 173 177 180 179 179 
185 188 189 191 195 198 200 204 203 202 205 202 203 208 211 213 213 211 213 
217 222 225 228 229 232 235 241 243 247 249 249 250 248 249 250 253 245 245 
244 242 238 234 236 237 236 235 230 227 226 222 217 217 212 210 213 215 215 
214 213 213 207 204 194 191 191 192 194 198 193 190 184 182 181 182 181 180 
178 176 170 172 175 174 176 178 181 179 177 176 174 173 176 177 174 172 174 
173 169 165 164 165 167 168 168 168 168 174 176 180 180 180 182 188 192 192 
195 197 201 204 206 205 206 208 209 213 214 213 215 214 218 220 225 227 229 
230 235 243 245 246 249 251 250 251 251 253 254 255 247 247 246 241 236 235 
236 236 239 236 232 226 224 222 217 220 216 215 217 219 217 214 211 210 207 
205 200 197 198 197 196 195 191 186 182 185 186 189 188 183 177 176 169 172 
174 174 176 175 177 176 176 177 176 177 179 179 182 179 179 175 174 170 166 
167 167 166 165 168 172 179 179 185 182 181 179 182 185 190 192 194 200 202 
204 204 207 207 210 212 212 213 214 215 217 220 220 224 224 231 236 243 243 
245 247 250 251 253 252 254 255 255 250 249 245 242 238 241 240 241 241 239 
236 232 230 227 222 222 220 221 224 223 219 214 213 209 207 205 202 200 199 
195 191 189 188 185 181 185 187 188 186 182 179 174 170 168 170 172 175 174 
175 174 173 172 175 178 178 178 174 172 171 170 170 170 171 171 169 168 168 
172 176 182 184 188 184 182 180 181 184 188 190 191 195 199 199 203 206 209 
211 212 211 211 212 215 219 220 220 222 227 231 235 238 240 241 240 246 252 
255 255 254 254 254 251 251 248 244 239 239 238 239 238 235 232 228 227 226 
225 226 226 225 227 225 220 218 216 212 209 206 205 201 198 197 196 192 192 
187 183 184 186 187 185 180 176 172 167 164 169 173 175 175 176 174 174 173 
176 181 180 182 177 175 172 169 169 172 173 176 176 171 170 172 178 181 184 
186 181 181 182 181 183 185 190 191 194 197 196 200 204 209 210 210 210 214 
216 218 220 220 218 219 224 225 227 232 235 239 241 247 250 253 253 252 253 
252 251 248 245 242 241 240 241 241 237 231 229 228 229 227 225 225 224 226 
227 223 222 218 215 207 204 200 199 199 199 198 199 199 196 195 192 188 187 
187 187 184 180 175 167 167 167 173 176 178 181 177 177 177 175 179 179 177 
175 170 168 170 171 173 176 178 176 175 173 173 175 180 181 183 182 184 184 
185 183 187 191 196 196 197 199 200 204 208 209 209 210 212 212 214 218 220 
219 218 218 223 227 230 234 239 240 246 246 249 250 250 250 247 249 247 244 
244 244 244 242 242 238 235 232 233 231 230 227 225 224 222 223 222 222 219 
217 209 203 201 198 198 198 199 199 198 197 195 195 192 190 188 185 183 182 
176 174 171 170 176 181 183 183 184 185 183 180 182 181 180 180 178 178 178 
178 175 175 179 180 180 178 176 175 179 180 184 185 188 188 189 190 194 194 
194 194 197 201 205 207 209 210 210 211 211 210 214 217 216 215 218 218 222 
230 235 238 240 241 247 249 249 249 250 249 247 249 247 245 246 245 243 241 
240 239 237 237 237 237 235 226 224 222 221 220 222 218 219 215 210 208 204 
201 198 197 198 193 195 196 196 197 196 194 190 187 183 178 175 176 173 173 
172 174 175 175 177 183 184 184 183 183 186 187 183 184 183 183 179 178 185 
185 187 186 180 179 182 183 187 186 186 187 187 187 190 192 194 197 199 199 
202 203 203 205 208 212 212 213 214 216 218 217 218 222 222 228 233 239 242 
244 246 246 245 246 246 250 250 251 251 248 246 245 244 239 235 235 236 236 
234 233 232 228 224 220 216 215 217 218 217 216 213 208 205 204 199 194 191 
191 192 192 191 192 197 195 190 188 183 180 178 180 180 181 176 175 175 174 
174 179 178 182 182 188 192 192 191 189 187 187 182 180 181 181 185 187 187 
185 185 188 189 190 190 189 190 193 194 193 194 197 198 201 203 204 204 206 
208 210 212 214 218 220 225 225 227 229 232 235 239 242 242 243 244 243 244 
244 243 243 244 253 253 252 251 249 248 240 238 236 234 235 236 235 229 225 
222 220 217 216 217 218 218 219 218 210 209 207 203 201 196 193 191 191 191 
191 193 191 193 191 188 187 186 184 183 182 178 177 174 176 174 177 178 183 
183 188 191 193 195 193 189 190 187 187 188 190 190 187 188 188 189 190 189 
191 193 193 193 193 191 190 192 196 198 201 204 208 209 209 210 212 211 212 
216 217 221 223 226 229 235 237 239 241 243 243 241 240 240 241 242 240 238 
254 255 252 251 246 245 243 239 237 239 239 238 236 231 225 224 224 220 217 
217 217 219 220 217 211 208 204 200 198 198 195 192 189 189 189 192 193 193 
190 189 185 185 184 187 186 183 182 179 178 178 179 180 184 185 191 196 194 
192 192 189 189 188 183 188 193 190 186 184 187 187 187 187 186 188 191 191 
189 187 189 193 196 198 201 202 206 209 211 214 213 213 215 216 217 217 218 
220 223 229 232 234 237 240 240 239 238 237 240 242 244 242 253 253 252 250 
246 245 243 244 244 244 240 238 235 233 226 224 222 223 221 219 217 216 215 
215 212 206 205 204 201 200 191 188 187 185 185 187 191 193 195 195 191 187 
186 188 185 185 186 184 184 183 184 186 192 193 194 195 193 191 188 186 186 
184 185 187 190 190 189 186 188 189 190 192 193 193 193 190 186 185 188 194 
197 198 199 201 204 205 205 209 211 212 214 216 215 214 217 220 223 229 233 
233 233 241 243 243 237 237 238 242 246 248 251 251 251 249 247 248 246 244 
243 240 240 237 236 231 225 222 219 222 220 216 212 210 210 212 204 199 200 
202 201 198 191 186 181 182 184 183 189 194 195 194 191 187 188 189 190 191 
191 190 191 192 192 192 197 198 196 195 194 192 189 188 189 192 192 192 194 
192 191 189 190 192 191 193 193 192 190 190 186 186 187 190 195 196 197 197 
195 196 196 204 207 210 212 213 214 216 217 220 221 227 228 230 232 239 240 
239 234 234 238 244 248 250 250 250 249 249 247 245 243 241 237 234 232 231 
231 229 227 225 219 217 215 212 209 207 209 205 196 192 192 194 193 190 187 
182 182 182 185 187 192 195 197 197 193 191 191 194 194 195 195 192 193 191 
193 191 196 197 194 194 193 193 193 194 195 195 195 193 194 194 195 195 195 
194 193 194 195 194 189 189 187 187 189 195 196 196 196 195 194 196 198 206 
208 212 217 218 216 218 219 221 220 223 226 228 233 238 242 243 241 239 242 
245 247 246 248 250 250 247 245 240 239 238 236 234 232 229 228 227 223 221 
219 216 215 211 211 209 211 207 201 198 192 193 192 193 192 190 187 188 190 
191 197 198 196 196 196 194 194 195 196 195 195 188 190 191 195 195 194 193 
193 191 191 195 196 199 198 197 197 197 198 196 197 197 196 199 197 194 193 
192 188 191 193 197 198 201 197 194 195 195 198 202 199 204 203 209 214 217 
217 220 220 220 219 222 223 224 229 235 240 240 242 243 245 246 247 248 252 
253 253 250 247 242 238 236 233 233 231 231 230 226 223 222 221 220 218 216 
215 213 211 207 204 201 200 199 199 201 202 201 200 198 198 198 199 199 199 
201 196 192 190 195 199 197 195 191 190 191 194 195 194 194 193 193 195 198 
200 200 200 200 201 201 203 200 196 198 196 196 195 194 196 196 196 196 196 
202 204 204 202 200 197 198 198 202 202 205 206 209 214 218 218 219 219 219 
219 220 220 222 229 236 239 242 243 243 244 244 244 245 254 255 254 252 250 
246 242 240 237 237 234 234 233 230 230 228 225 222 216 216 217 215 212 207 
203 203 201 202 202 205 204 203 202 199 199 196 197 198 198 201 199 198 198 
200 203 205 201 198 194 195 196 195 197 198 199 197 198 198 200 201 204 203 
202 201 201 204 202 200 196 195 194 192 195 198 199 199 200 206 207 208 207 
205 199 197 199 204 206 206 209 208 211 208 209 209 213 216 219 222 227 231 
236 238 240 241 243 244 245 247 246 245 253 254 253 251 250 246 243 241 240 
238 236 235 233 230 230 231 227 222 216 214 211 211 210 206 205 205 204 203 
205 208 206 202 202 200 201 200 199 199 201 202 201 201 202 204 208 207 203 
201 197 196 196 198 199 198 202 202 203 202 203 203 204 206 205 204 204 204 
205 205 204 204 201 199 202 203 204 204 201 202 201 204 203 202 196 198 201 
206 208 209 209 210 209 208 208 208 212 215 218 223 229 233 239 240 244 242 
242 243 247 251 250 251 246 248 248 248 247 243 242 239 237 237 236 231 230 
228 226 225 221 220 219 219 215 213 211 209 208 206 206 205 206 205 204 206 
204 203 206 204 202 200 198 198 196 199 202 207 211 208 203 201 199 196 198 
199 203 206 211 210 209 209 206 207 208 210 209 206 208 208 209 206 207 206 
200 199 202 202 205 205 201 200 196 198 197 196 199 201 203 206 207 209 208 
208 208 208 206 206 211 215 218 223 228 236 238 242 245 244 244 246 248 250 
252 250 242 243 244 243 244 242 241 240 236 238 237 230 225 225 224 225 222 
222 219 215 213 214 212 209 208 207 204 208 206 203 205 205 203 203 204 202 
197 194 194 196 194 199 202 206 210 212 208 206 202 199 200 200 203 207 209 
209 209 209 205 206 207 209 207 209 209 207 207 205 204 204 205 205 207 208 
205 201 197 197 195 197 198 198 200 201 200 202 204 206 207 208 207 211 213 
215 214 215 219 225 228 230 233 237 240 241 243 249 253 252 255 253 246 246 
245 246 245 241 240 239 234 233 230 223 221 223 223 222 219 215 210 208 210 
213 212 210 210 208 204 207 207 210 209 211 211 209 206 203 198 198 196 193 
197 202 206 211 215 215 212 207 205 204 205 201 201 205 207 206 207 207 206 
209 209 209 212 214 210 208 206 201 199 199 199 204 207 208 207 202 199 199 
199 199 200 202 203 202 201 201 207 211 212 210 212 215 217 218 217 219 217 
221 224 228 229 232 237 241 246 249 253 253 254 255 248 246 245 244 244 245 
246 242 237 234 229 226 226 226 226 224 220 219 215 212 212 213 213 212 213 
211 206 207 208 207 205 207 210 211 210 206 202 202 202 200 201 207 208 216 
218 216 212 210 205 204 203 201 203 206 208 207 207 206 205 205 206 207 209 
210 206 205 205 203 203 201 201 207 212 213 214 211 207 205 202 203 204 208 
208 209 208 207 210 213 214 213 212 216 219 220 219 222 222 224 225 228 229 
232 235 241 246 249 251 252 252 253 244 241 242 240 244 245 244 239 238 236 
232 229 226 225 226 224 222 222 220 220 219 217 217 216 216 215 211 211 210 
211 213 211 213 213 215 211 209 205 205 205 205 212 212 215 216 216 214 212 
210 207 202 201 204 202 204 205 209 210 210 207 206 206 207 207 206 205 207 
208 209 209 208 213 216 218 216 215 214 213 209 206 206 207 209 211 214 215 
212 212 214 215 214 219 221 224 223 222 225 228 231 231 232 236 239 244 247 
247 246 245 246 247 246 246 245 245 247 245 244 237 235 235 234 231 227 226 
225 223 220 220 222 220 220 216 215 213 211 213 209 206 206 211 213 213 216 
215 220 219 216 210 207 208 207 210 210 212 214 213 214 217 214 209 208 205 
203 201 204 204 209 210 211 209 209 211 214 214 215 213 212 215 217 215 218 
218 218 219 218 216 215 216 216 215 212 212 212 212 209 214 212 209 210 213 
216 222 223 222 222 224 226 228 229 229 231 234 239 244 246 245 242 237 236 
233 250 250 249 249 247 247 242 236 236 236 235 232 228 226 225 225 221 222 
219 217 217 218 214 209 209 212 212 208 209 212 214 216 217 216 222 218 216 
215 211 211 210 212 214 215 217 217 216 218 216 212 212 211 214 216 218 217 
217 217 218 217 214 220 224 224 221 218 218 220 218 216 218 218 216 214 214 
214 213 213 213 211 209 210 211 210 209 212 212 213 214 217 222 223 225 224 
225 228 231 233 233 232 235 241 242 242 242 241 239 239 240 242 251 251 251 
249 247 246 242 237 234 231 232 229 227 228 228 226 224 222 222 217 217 215 
213 213 211 212 211 209 209 214 215 217 220 219 218 218 216 217 215 215 215 
214 218 217 217 216 217 219 214 213 215 214 217 219 222 221 220 220 218 217 
215 220 221 219 220 219 216 218 215 215 215 215 214 216 218 217 214 212 211 
211 211 212 216 217 213 214 214 213 214 217 223 224 223 222 225 226 229 233 
234 236 238 241 244 243 240 240 240 239 241 243 250 247 249 251 250 248 244 
239 236 234 231 229 228 228 227 227 227 227 223 221 217 214 215 216 219 220 
219 217 217 219 221 223 224 220 217 217 218 217 215 217 218 219 220 220 221 
220 218 216 214 216 217 217 217 217 219 222 223 221 221 218 216 217 218 215 
215 216 217 218 215 215 216 216 216 217 220 221 218 220 223 219 218 218 219 
218 218 219 220 217 220 220 224 226 227 226 226 225 226 230 233 234 236 238 
238 240 239 239 238 239 241 243 255 253 252 250 249 245 244 237 234 233 231 
230 229 230 230 230 228 227 221 221 217 221 220 220 223 222 222 220 219 222 
223 222 224 221 220 221 220 220 219 222 223 225 225 222 222 222 219 218 220 
223 224 223 223 223 225 226 228 228 228 222 223 222 224 222 217 218 221 221 
218 218 219 220 219 217 218 222 221 225 227 229 227 223 222 222 223 225 224 
225 227 227 231 230 230 226 224 223 222 226 229 232 235 235 236 238 242 244 
244 244 243 244 255 254 252 251 252 249 246 241 238 236 234 233 228 227 226 
226 224 224 221 221 219 221 222 226 230 230 227 223 218 220 221 224 223 223 
223 224 223 224 222 223 224 227 225 225 226 224 223 222 221 221 220 222 224 
225 226 225 226 227 227 227 229 230 233 229 222 219 221 223 222 222 224 223 
219 215 215 219 224 228 229 230 229 230 232 232 229 230 227 226 226 226 230 
231 230 225 222 222 220 224 225 227 231 233 235 239 245 245 246 246 245 245 
254 254 253 251 249 248 243 239 236 234 234 235 232 229 225 226 225 223 220 
220 220 223 224 226 231 232 229 225 220 224 226 228 227 225 226 226 226 225 
223 220 222 225 227 225 226 226 228 227 226 223 221 220 220 221 226 228 228 
228 226 226 226 226 230 229 224 221 222 224 224 226 230 231 229 224 222 225 
229 229 227 225 225 230 233 231 228 228 224 224 223 224 227 229 231 226 227 
226 225 225 226 225 225 224 226 235 243 246 247 246 247 245 253 251 250 249 
247 245 240 238 238 237 239 239 237 236 232 232 231 226 226 224 223 224 227 
228 232 236 235 231 227 228 227 228 229 230 231 230 228 225 224 222 221 223 
226 228 228 228 229 227 224 222 220 218 217 216 220 223 223 223 222 224 225 
225 228 228 227 226 230 230 233 234 237 234 236 235 235 233 233 232 231 229 
228 230 231 231 231 228 223 223 225 227 230 233 234 231 232 235 234 230 230 
227 228 228 228 234 239 244 250 250 252 252 252 252 251 250 248 245 240 238 
237 239 240 242 241 239 235 235 236 234 229 227 226 228 230 231 234 233 234 
231 228 227 227 233 232 232 233 231 230 228 224 222 225 226 227 227 227 229 
229 226 223 220 217 215 214 216 220 224 227 229 230 229 225 226 227 227 230 
232 236 237 235 233 233 234 235 233 232 229 229 232 233 233 233 233 232 229 
227 226 224 223 222 223 225 231 233 232 235 235 234 233 230 229 232 234 234 
237 242 249 252 253 253 252 246 246 247 246 244 244 242 241 239 237 239 241 
239 238 240 240 240 238 238 236 232 232 232 232 233 231 233 233 235 236 236 
236 235 235 234 235 232 228 226 224 227 229 231 233 231 227 225 226 223 222 
219 215 213 215 219 223 226 228 230 231 230 228 227 229 234 234 235 237 235 
231 231 232 233 235 234 234 230 230 227 229 231 232 232 233 230 232 232 231 
232 233 233 233 236 236 235 236 236 232 230 231 234 236 237 239 240 245 250 
252 254 253 244 245 245 244 244 245 244 242 240 240 242 242 241 240 239 239 
238 238 238 237 235 234 232 231 231 233 234 236 237 235 234 235 232 232 230 
231 229 229 231 232 232 230 233 235 235 229 225 226 227 226 225 222 218 221 
223 227 233 234 236 234 233 229 230 233 238 237 238 238 236 236 234 233 231 
233 232 233 233 234 233 230 230 233 233 233 227 229 231 232 233 233 233 232 
238 241 240 241 240 240 241 239 237 236 236 237 241 245 248 251 253 254 248 
248 249 248 247 246 246 246 246 244 243 246 249 249 245 239 238 238 236 233 
234 235 234 232 229 228 231 230 233 231 231 232 232 232 231 231 231 231 230 
233 233 233 234 236 235 236 231 231 231 233 231 228 227 231 233 237 238 235 
233 233 232 230 232 232 234 237 238 242 243 243 243 242 241 238 236 233 233 
237 239 237 236 235 234 232 226 225 231 234 233 235 237 238 240 242 241 241 
242 242 243 242 240 242 240 238 238 242 245 251 252 252 250 247 248 246 244 
242 240 241 241 242 240 245 249 251 247 241 239 237 236 235 237 237 236 234 
232 230 230 228 230 227 227 227 229 230 229 232 230 228 230 232 232 232 232 
236 236 237 234 234 232 234 233 230 231 235 239 242 239 235 233 230 230 229 
232 236 240 241 241 246 246 246 245 244 241 239 240 241 239 240 240 238 238 
239 240 243 238 237 237 235 237 239 239 240 240 240 239 236 238 237 241 243 
243 244 241 239 240 244 246 248 249 250 246 246 245 243 242 240 238 239 240 
241 242 245 247 247 246 243 241 241 240 241 240 240 238 238 235 234 235 233 
233 229 231 232 233 234 235 235 232 234 237 238 238 236 237 238 238 238 238 
235 234 235 235 237 239 239 240 242 237 233 229 227 231 231 235 238 242 244 
243 245 247 248 248 247 249 249 248 246 244 243 242 239 239 239 244 247 242 
236 234 233 235 237 237 237 236 237 237 238 241 242 243 242 242 242 240 238 
238 243 247 247 245 246 248 248 248 246 245 244 243 241 243 243 243 243 244 
244 245 244 241 239 238 241 242 242 241 239 237 238 237 240 238 234 234 237 
236 238 239 238 235 237 239 239 239 239 237 238 239 241 240 240 239 237 239 
242 242 245 244 244 242 237 232 229 231 232 237 241 245 245 245 246 248 248 
245 245 245 245 247 245 242 244 245 244 242 241 245 248 243 239 234 232 232 
235 237 239 239 240 242 242 240 243 243 241 243 240 238 238 239 242 245 244 
244 244 248 245 243 241 240 240 241 240 241 242 244 245 247 247 250 250 247 
244 239 238 238 240 241 242 243 244 243 242 240 237 237 238 236 238 238 238 
234 237 242 243 242 242 240 239 241 243 242 241 242 240 243 244 244 245 244 
243 240 235 229 225 227 227 232 238 240 239 242 244 245 243 240 241 242 244 
244 245 245 244 245 244 241 240 243 245 245 242 237 236 239 241 242 244 244 
245 244 244 243 244 244 244 246 247 244 242 242 242 244 246 248 250 245 241 
239 239 239 240 243 243 243 247 247 248 249 250 251 249 249 247 242 239 238 
240 239 240 244 246 245 244 245 241 239 239 239 241 241 240 240 244 250 247 
249 248 245 242 242 243 243 244 243 241 243 245 247 245 242 239 236 230 227 
227 229 233 236 238 240 240 242 244 246 247 245 246 242 243 246 248 248 248 
247 244 242 241 241 245 243 241 238 239 243 246 247 249 247 248 248 245 242 
237 236 240 242 244 244 242 247 248 248 245 247 247 246 245 245 246 247 249 
250 250 250 251 249 248 250 248 252 250 250 249 247 245 243 244 243 245 246 
246 242 241 242 245 244 245 244 245 249 250 251 252 255 252 251 248 246 245 
243 245 245 244 243 245 246 247 249 246 242 240 240 238 235 233 236 239 241 
243 243 243 242 243 244 246 245 247 248 248 249 251 251 251 248 247 246 242 
241 240 242 244 245 246 248 249 250 249 245 249 247 245 241 236 235 235 240 
241 244 246 250 251 253 253 251 252 251 249 249 248 249 249 249 248 248 248 
243 243 242 242 246 248 247 245 243 241 238 240 242 241 244 244 244 243 242 
244 246 247 249 250 255 253 253 253 255 255 255 252 251 247 248 247 245 245 
245 245 244 245 246 246 244 246 246 245 243 245 245 245 247 246 246 246 243 
241 238 245 248 252 251 251 251 252 253 253 252 249 245 240 238 239 240 243 
245 245 248 249 252 251 247 244 240 235 237 236 236 237 240 243 245 250 253 
254 254 253 254 255 252 250 252 251 250 250 251 252 251 250 246 245 243 245 
247 248 245 242 241 241 239 239 239 240 242 243 245 246 245 245 248 249 253 
252 253 254 251 254 254 254 255 253 253 251 250 248 247 246 246 245 246 246 
247 247 246 247 246 245 241 243 242 245 246 249 249 248 243 238 239 246 249 
251 252 254 255 255 255 253 253 249 245 244 244 243 242 243 244 246 245 247 
248 248 246 242 241 241 240 242 245 246 246 244 246 251 251 252 251 248 249 
251 252 254 253 253 253 253 253 254 252 249 247 246 244 245 245 245 243 243 
240 241 240 243 244 247 248 248 249 250 248 246 250 250 250 251 252 254 255 
255 255 252 251 253 253 251 250 250 250 249 248 247 247 247 249 251 251 252 
249 247 246 247 247 250 250 253 251 251 244 244 245 249 251 252 255 255 255 
255 254 253 253 251 249 247 246 245 245 244 243 245 248 250 250 250 247 246 
246 246 246 247 246 246 247 250 250 252 252 252 248 247 249 250 
