P2
#output from hocrtest
30 30
255
255 248 255 255 255 255 255 252 255 255 241 255 255 255 255 252 247 250 244 
231 237 245 239 250 243 255 254 253 253 255 255 252 255 255 255 255 255 253 
251 248 242 250 253 255 255 250 248 247 242 239 240 246 246 246 248 255 254 
253 250 244 255 254 255 255 255 255 255 248 250 247 242 245 248 253 255 253 
252 252 250 250 248 252 254 253 253 255 254 252 254 255 255 255 255 254 254 
255 255 247 249 244 245 244 245 253 253 253 247 248 247 246 244 245 250 255 
254 255 255 254 253 255 255 255 255 252 249 249 250 248 255 251 248 243 242 
247 249 248 241 240 240 241 241 244 249 252 249 249 251 250 248 244 255 255 
251 247 249 248 250 250 253 251 249 245 247 248 244 241 241 239 242 240 241 
239 244 242 240 242 246 248 251 251 254 255 247 244 243 244 246 246 247 240 
240 236 236 240 242 242 242 248 247 244 245 243 239 238 237 236 241 244 248 
253 253 253 249 245 240 236 239 239 240 236 238 234 237 242 238 237 235 237 
236 239 241 238 240 244 242 237 239 239 242 245 251 251 249 239 242 241 241 
239 241 238 236 234 239 244 239 232 233 234 240 241 244 243 240 244 249 247 
247 245 244 244 250 249 249 250 247 244 244 244 243 238 240 242 240 242 237 
236 232 227 232 239 240 244 247 252 255 255 253 255 255 250 248 247 251 254 
251 246 241 239 239 236 236 232 235 231 228 225 221 220 225 230 232 241 246 
251 253 255 254 253 253 255 253 251 251 250 247 244 243 240 238 235 229 228 
228 221 223 222 221 219 222 228 229 235 240 252 253 252 247 247 248 248 253 
255 255 250 246 247 245 241 240 239 234 235 226 219 219 221 221 221 221 226 
225 229 237 251 249 248 245 241 247 249 255 254 245 240 238 242 244 238 238 
238 240 236 230 225 224 224 222 220 222 225 227 229 235 243 240 242 240 247 
250 254 255 255 250 246 240 239 240 241 242 244 248 233 226 222 224 222 221 
223 225 229 234 234 237 241 241 244 243 247 250 254 250 249 246 246 242 242 
241 240 240 245 247 231 232 230 226 221 223 226 222 226 235 236 237 238 239 
240 243 244 246 245 247 243 243 245 242 242 243 242 238 241 244 245 240 237 
229 230 229 227 228 231 233 232 233 229 232 238 240 237 239 240 241 238 237 
243 241 240 239 238 237 240 239 239 238 236 231 233 238 237 235 232 235 236 
233 233 240 242 241 240 240 239 243 243 243 246 242 237 240 242 239 237 240 
235 232 231 231 233 234 232 229 229 234 236 236 235 236 232 226 233 235 237 
249 251 253 250 247 242 242 248 244 243 244 241 237 236 237 238 235 234 231 
235 239 238 236 236 236 231 225 231 229 230 250 252 255 252 249 244 243 243 
242 241 241 241 239 244 239 236 236 234 233 235 242 238 238 236 238 237 241 
242 243 245 255 253 253 250 244 241 241 239 243 244 242 242 242 247 246 240 
236 232 235 236 243 241 236 238 245 246 248 249 251 249 253 248 247 243 237 
237 232 234 237 235 235 238 237 239 235 232 231 229 232 237 243 241 237 237 
247 252 255 252 252 252 251 248 246 246 243 240 239 237 238 237 239 241 241 
240 239 238 232 230 231 235 235 236 237 238 247 249 249 251 249 249 253 252 
249 251 252 252 253 252 250 245 242 241 243 244 247 244 243 240 236 236 235 
233 234 236 246 249 251 254 254 255 255 255 249 251 251 251 252 254 251 246 
248 248 247 248 250 251 253 246 241 239 240 238 238 240 241 244 250 255 255 
255 251 248 245 251 252 247 243 243 248 248 251 252 253 251 255 255 255 249 
249 247 247 244 241 243 245 248 250 251 250 248 255 255 251 251 251 248 247 
245 244 249 248 251 253 251 253 255 255 255 254 250 248 247 247 245 244 246 
246 245 246 243 255 255 255 255 255 253 251 248 246 248 254 253 252 253 254 
253 253 253 253 250 253 254 249 246 245 245 245 243 240 238 255 255 255 255 
255 255 253 252 253 253 255 255 252 254 252 250 248 249 249 246 248 249 250 
252 250 250 248 246 244 243 
