P2
#output from hocrtest
50 50
255
252 249 253 240 255 255 255 255 255 254 255 255 255 255 255 255 250 255 253 
239 248 249 243 255 255 255 254 253 255 255 255 254 255 255 255 255 255 250 
230 255 239 249 250 255 255 254 249 244 244 232 253 255 255 250 251 254 255 
255 255 252 253 250 255 255 255 255 255 255 251 245 245 248 241 230 255 255 
254 255 255 255 255 255 255 255 255 250 246 245 235 255 229 249 252 253 255 
251 246 242 249 248 255 255 255 255 255 255 255 255 255 251 249 244 249 253 
254 255 249 255 245 239 246 248 250 255 255 255 255 253 255 255 255 255 254 
255 255 255 255 255 255 250 182 160 122 252 251 250 250 249 254 244 255 255 
255 255 255 255 255 255 255 254 251 253 255 255 255 255 250 248 245 242 248 
247 253 255 252 255 253 252 255 255 255 254 255 254 249 245 245 246 245 241 
238 241 249 248 250 252 250 249 252 249 255 255 255 253 252 251 254 255 255 
255 253 255 255 255 252 252 248 245 242 238 243 240 249 250 232 235 229 250 
253 255 255 255 255 255 252 246 246 245 242 245 251 251 255 250 252 254 243 
237 236 231 255 255 255 255 254 255 250 250 253 255 255 255 251 251 245 245 
236 234 235 236 238 242 247 251 247 255 255 255 251 255 255 255 255 255 255 
255 250 244 241 248 255 255 254 251 252 253 243 237 235 235 255 255 255 254 
253 248 248 244 255 247 243 243 248 244 241 238 237 235 236 238 238 243 245 
250 245 245 243 242 242 243 243 240 247 253 255 255 252 245 246 252 255 246 
242 227 246 247 241 229 230 236 255 255 255 253 243 239 241 243 239 233 234 
248 251 246 239 242 245 241 242 246 251 248 245 240 239 233 234 236 234 242 
230 212 232 255 255 255 253 244 250 255 255 249 240 233 237 239 240 238 241 
242 255 255 255 252 244 239 234 231 233 203 199 252 251 244 240 239 239 239 
238 236 240 247 250 249 241 229 235 239 246 239 233 228 231 240 250 248 245 
247 255 254 253 248 241 243 241 237 243 246 252 255 255 255 255 245 239 240 
236 234 233 251 254 251 253 249 240 236 243 240 238 239 241 243 247 245 243 
245 248 255 252 249 213 228 230 233 236 234 232 232 239 246 247 250 246 246 
237 237 241 242 246 245 255 255 254 249 241 238 239 234 239 246 249 246 251 
250 228 231 234 235 232 230 231 234 235 236 237 247 248 248 243 216 232 239 
243 235 241 238 231 231 235 228 235 239 239 240 236 234 240 242 241 240 255 
255 248 241 243 246 244 240 237 243 247 246 243 246 229 229 228 235 232 235 
238 236 225 228 224 240 243 244 240 235 234 231 230 234 238 238 235 234 237 
241 241 232 229 236 239 235 236 237 245 245 249 249 249 248 250 253 252 245 
241 245 238 240 238 234 223 230 230 234 234 232 231 227 231 228 236 244 240 
242 234 226 228 228 234 247 233 228 228 231 238 241 235 240 235 157 195 247 
245 247 250 255 246 249 251 249 254 255 249 243 242 223 229 226 228 223 229 
234 228 225 225 228 223 225 228 229 230 236 235 232 237 234 224 222 224 222 
229 228 228 231 237 239 239 238 232 242 245 248 244 252 249 252 255 255 253 
252 251 255 244 231 232 236 232 226 229 230 235 241 233 234 224 224 217 223 
227 231 232 233 235 235 239 239 234 220 219 228 229 206 224 199 232 233 238 
239 231 241 240 244 247 255 250 252 255 255 255 255 252 253 250 243 233 239 
229 221 221 226 234 238 235 251 221 222 223 224 230 226 224 236 231 232 230 
231 224 208 225 226 227 222 224 230 231 233 236 238 233 235 234 242 248 248 
247 248 255 255 254 250 250 253 250 247 240 234 221 222 218 223 229 231 230 
231 223 225 224 228 226 226 226 233 228 228 228 228 224 232 248 227 224 219 
222 227 229 229 232 233 238 237 234 247 250 250 255 253 254 249 255 255 255 
253 251 244 234 234 224 224 218 220 220 236 229 223 226 222 225 228 228 228 
220 220 220 219 216 221 220 219 217 221 215 224 220 220 219 230 225 226 231 
244 244 252 251 250 254 250 255 252 248 247 249 253 247 241 240 241 233 232 
228 230 216 217 222 226 223 223 222 218 215 227 224 223 220 220 220 218 211 
221 218 219 217 222 217 225 222 230 227 236 238 242 247 254 254 255 254 255 
249 243 248 251 240 238 235 246 248 245 235 238 228 228 223 224 225 223 223 
219 216 210 209 211 218 222 223 229 226 216 213 216 225 229 227 223 221 228 
228 238 242 236 234 238 245 255 255 255 255 255 243 243 246 248 240 238 239 
235 238 234 235 239 228 228 223 223 223 222 221 216 204 204 206 209 208 211 
220 223 220 223 235 236 229 228 230 224 216 221 226 240 242 239 238 240 234 
255 255 249 146 168 255 255 255 246 241 239 241 237 237 237 235 233 226 226 
231 228 227 226 232 221 216 215 214 207 203 210 213 209 219 231 232 241 233 
232 231 231 217 221 222 231 233 234 240 249 255 248 242 252 244 236 255 252 
248 247 245 238 240 238 239 238 229 233 228 234 231 221 219 218 219 212 211 
211 209 208 217 223 220 227 230 227 225 223 233 226 226 233 229 221 229 224 
226 233 245 250 255 248 243 243 244 244 255 250 251 246 243 237 237 236 241 
243 239 234 230 254 233 224 222 214 216 216 215 218 212 220 221 224 221 222 
223 230 224 208 223 214 219 232 234 236 235 229 230 237 243 243 246 252 252 
248 252 255 255 251 251 249 247 242 239 234 229 234 220 233 224 233 237 234 
224 216 215 222 223 225 225 238 227 217 218 218 218 221 219 208 217 224 217 
235 233 237 240 238 231 229 231 233 238 239 237 230 231 229 251 248 241 244 
247 240 240 241 230 238 236 231 231 237 235 232 227 215 211 221 231 221 222 
225 232 224 222 215 209 209 213 221 202 224 224 220 227 232 235 235 236 233 
235 238 239 238 235 244 250 245 255 252 243 244 247 249 249 243 248 241 242 
236 231 231 224 230 225 218 219 222 224 219 217 221 225 223 215 216 217 210 
218 225 227 227 228 223 236 240 236 234 235 232 233 235 235 235 238 241 250 
251 255 255 254 247 238 245 255 255 255 243 241 237 231 220 225 231 230 228 
221 221 221 216 216 213 222 222 216 214 214 214 219 219 216 230 227 218 228 
223 222 229 230 234 237 237 240 245 239 241 255 255 254 255 255 233 226 231 
220 234 233 234 236 236 226 218 220 221 222 219 221 221 217 217 218 221 222 
222 221 218 217 216 221 222 224 228 234 232 232 233 230 238 237 239 236 237 
233 243 241 236 245 247 250 250 252 247 244 249 231 232 232 233 236 230 229 
223 223 227 224 219 218 217 214 214 217 221 223 224 224 215 216 218 220 219 
219 224 223 228 227 226 227 228 227 230 237 252 249 143 158 240 212 200 246 
246 249 253 255 238 226 229 228 235 229 232 235 228 221 216 219 224 216 214 
213 213 210 216 227 223 225 221 227 233 230 229 220 224 215 215 209 196 225 
226 230 227 236 255 255 250 246 245 237 255 248 249 245 247 247 238 237 233 
234 237 236 239 234 240 229 232 233 230 205 214 211 212 211 214 217 221 221 
222 222 224 226 223 216 228 228 234 217 216 219 218 219 220 232 248 249 255 
248 249 234 241 249 245 244 244 244 245 244 242 238 233 233 233 233 230 232 
238 233 251 240 223 221 219 218 213 214 219 216 220 220 224 222 215 219 223 
225 220 226 222 218 213 217 224 228 241 244 240 239 241 245 248 255 251 248 
251 246 248 246 245 243 239 240 232 226 228 229 223 217 226 227 224 220 219 
220 225 217 216 216 219 222 221 224 221 220 219 219 223 227 229 219 219 225 
227 232 240 238 232 240 237 250 251 252 250 245 242 235 238 236 240 244 242 
245 241 239 235 236 227 222 221 226 226 225 227 216 217 222 227 231 229 229 
223 220 221 220 217 215 223 221 226 229 231 238 233 237 242 237 239 250 249 
255 255 252 255 255 255 255 252 240 244 246 243 244 243 242 242 237 225 220 
215 216 225 239 231 226 219 224 225 231 233 226 216 215 220 214 208 215 217 
229 232 232 237 233 237 241 243 245 251 255 255 255 255 246 248 250 249 251 
251 245 225 212 226 240 242 245 245 235 223 225 220 223 224 231 227 231 231 
233 231 232 229 226 225 227 235 235 227 221 226 233 235 238 234 233 247 251 
245 247 254 254 250 255 253 242 243 244 248 252 255 250 246 243 243 242 241 
240 240 233 232 234 234 236 247 234 240 239 229 230 237 232 235 228 225 234 
237 239 239 238 233 234 238 241 228 233 251 251 246 251 253 255 255 255 255 
245 244 246 250 253 255 255 246 244 251 242 238 238 239 240 237 234 228 234 
233 236 238 255 235 255 241 230 237 231 237 242 240 237 238 237 236 233 232 
229 226 224 224 232 239 243 244 250 254 255 255 234 243 255 255 255 255 252 
246 245 247 250 247 232 236 235 245 237 232 225 234 235 237 240 210 207 232 
218 215 224 234 240 250 244 249 245 243 234 224 217 220 216 205 234 243 240 
253 255 255 255 255 251 250 255 255 254 255 255 248 246 245 244 244 239 240 
238 236 232 232 232 227 227 235 235 231 238 244 238 239 239 237 240 243 243 
248 249 247 237 234 230 232 242 246 244 240 247 255 255 255 255 255 255 255 
255 253 252 255 255 252 248 244 244 242 233 239 235 238 234 237 245 236 236 
234 232 233 239 240 244 243 239 240 243 246 249 250 247 252 246 244 237 235 
247 245 241 241 249 250 254 247 253 254 255 255 255 255 255 255 255 255 254 
255 253 234 235 240 235 226 237 240 241 231 228 228 236 237 240 245 247 249 
239 236 240 247 248 247 249 250 251 252 238 239 241 242 244 246 255 254 255 
255 255 255 255 255 255 255 254 249 247 250 254 255 247 236 233 234 237 240 
241 243 238 236 230 226 227 235 234 239 250 255 247 247 249 255 255 255 253 
255 255 251 253 249 247 255 251 255 255 255 255 255 255 255 254 253 250 251 
255 255 255 255 255 253 249 242 237 243 255 255 237 239 243 241 241 244 249 
255 254 240 233 249 245 249 249 255 255 255 255 254 251 252 252 250 251 255 
255 255 255 254 255 252 249 246 255 255 255 255 255 255 255 255 252 249 250 
248 246 248 247 241 238 236 239 240 242 241 244 250 249 245 242 250 251 252 
251 255 255 254 255 252 245 239 236 246 249 249 249 255 255 255 255 252 250 
254 255 255 255 254 255 253 255 255 255 255 255 255 242 241 239 239 238 238 
239 232 233 230 236 251 245 248 246 245 247 247 246 252 255 255 255 255 250 
244 241 249 246 249 252 255 252 254 255 255 255 244 255 255 255 253 254 254 
255 255 254 255 254 247 240 238 245 249 249 239 236 235 245 234 237 241 244 
255 255 255 255 255 255 255 255 255 255 254 255 254 249 252 255 255 255 255 
254 255 255 255 255 255 255 246 255 254 255 255 255 255 255 255 255 253 250 
249 255 255 250 241 241 238 242 234 238 240 241 247 255 253 253 253 255 255 
252 254 251 255 255 255 254 255 255 255 255 255 255 255 254 255 255 255 238 
249 254 255 255 255 255 255 255 255 255 255 255 255 255 255 255 248 241 240 
236 225 227 232 235 234 236 227 254 255 193 254 244 255 247 254 255 255 255 
255 255 255 255 255 253 248 210 255 255 255 
