P2
#output from hocrtest
90 90
255
252 247 248 245 249 252 250 250 255 255 255 255 255 255 254 254 252 255 247 
233 243 243 237 248 244 249 249 246 250 254 254 252 255 255 253 255 255 255 
253 253 244 247 246 253 255 254 245 243 239 238 245 253 255 250 244 247 247 
249 250 240 251 254 254 248 255 254 247 250 251 250 244 242 247 246 250 250 
251 252 255 254 255 251 251 250 250 255 254 245 252 253 251 250 249 248 248 
250 250 250 250 252 253 254 255 255 255 255 253 255 252 248 249 246 244 248 
247 248 248 247 250 253 254 253 254 255 255 255 254 254 252 252 249 247 246 
251 252 251 243 241 239 244 248 252 255 251 247 245 244 247 248 244 250 252 
253 252 254 253 252 250 248 245 243 243 246 247 247 247 249 251 253 252 254 
249 249 248 249 253 251 249 252 255 249 248 246 248 247 249 250 251 252 254 
254 253 255 253 254 253 250 249 249 250 252 251 249 248 247 248 247 249 251 
253 252 251 249 249 250 252 252 253 254 251 250 246 248 251 250 250 243 242 
240 243 245 244 249 248 245 242 243 247 247 249 251 250 250 249 249 252 249 
245 243 240 239 239 242 243 244 245 248 251 255 253 251 248 248 250 253 250 
248 246 251 248 251 251 250 248 248 249 251 251 250 253 255 255 255 252 252 
251 248 244 244 245 248 247 248 249 249 250 249 250 250 249 249 248 248 248 
248 249 251 252 253 252 253 248 248 249 248 247 242 239 242 247 247 248 249 
247 246 244 243 245 245 250 250 249 250 251 249 248 244 241 239 236 236 240 
240 238 243 246 249 248 249 251 248 248 248 250 253 253 250 247 246 245 250 
253 253 250 246 247 250 250 249 252 252 252 249 248 246 247 246 243 239 241 
241 244 245 249 251 255 253 250 254 253 249 246 244 244 242 244 245 244 247 
252 253 250 252 253 250 247 243 242 242 245 249 251 252 248 242 240 237 237 
243 245 247 245 246 245 244 243 241 239 236 238 238 241 244 248 248 248 251 
250 250 251 250 247 247 247 248 248 248 246 246 247 251 255 255 251 246 246 
246 244 245 249 250 249 247 246 246 243 244 243 238 238 240 243 246 249 247 
249 250 252 251 248 246 245 244 243 241 240 242 241 245 249 250 249 250 251 
250 248 244 240 241 245 248 248 248 242 236 235 233 232 235 237 237 237 241 
243 242 242 242 239 239 239 241 242 247 247 248 248 249 249 251 254 253 249 
248 246 248 248 248 246 245 243 253 255 253 248 246 243 241 243 245 248 248 
246 244 243 245 245 244 242 240 240 240 242 241 242 242 239 238 244 244 242 
245 244 243 243 242 244 244 243 244 245 245 244 244 246 245 243 239 237 239 
243 246 248 244 239 236 235 233 229 233 232 231 234 235 237 241 243 245 243 
243 242 245 247 248 247 246 244 243 243 245 243 244 247 250 250 250 251 250 
248 246 246 255 255 255 254 247 243 240 239 243 246 246 246 246 249 247 248 
244 242 242 241 241 240 236 236 242 241 239 242 243 245 244 241 242 243 242 
244 245 243 242 242 242 242 241 241 240 237 236 234 236 240 242 243 240 238 
239 238 238 235 235 235 234 234 236 238 241 240 239 240 242 243 245 245 247 
244 242 240 235 231 236 238 237 240 245 246 250 252 251 250 247 245 254 253 
252 252 249 247 245 243 243 243 242 243 244 248 249 248 247 245 244 241 238 
237 233 233 237 239 239 240 241 244 245 242 241 242 241 242 242 241 242 241 
241 241 241 240 242 242 241 236 234 236 236 238 239 239 237 238 239 239 240 
239 237 235 238 241 239 236 233 235 236 238 241 239 239 235 237 235 232 230 
232 235 236 238 240 243 248 250 251 254 249 248 251 252 250 250 250 248 246 
243 243 244 244 245 244 242 243 246 246 243 241 240 236 234 233 230 230 234 
236 236 239 241 241 240 240 240 239 239 238 236 236 238 241 242 239 239 242 
245 243 237 234 235 234 235 233 236 236 236 236 237 239 239 238 239 240 240 
235 233 232 231 232 234 235 233 232 234 235 235 234 231 231 234 233 234 240 
243 246 249 251 251 248 245 255 254 252 251 251 249 247 243 244 244 247 243 
239 240 241 236 236 236 235 234 232 231 229 230 233 234 232 231 233 231 230 
233 231 234 234 232 234 232 232 233 236 237 239 238 238 240 237 236 232 236 
234 230 230 234 231 230 230 235 236 237 235 235 234 235 234 233 232 232 230 
229 228 229 228 230 234 234 234 234 233 233 233 235 242 248 248 248 249 251 
249 248 254 253 252 252 253 250 246 242 239 238 237 235 236 235 235 233 228 
227 228 227 223 228 230 230 231 232 232 230 231 228 225 227 227 232 231 229 
230 229 230 235 237 237 235 234 232 229 231 231 233 235 235 233 231 233 234 
233 232 233 235 234 231 231 233 235 234 232 232 229 228 230 229 231 231 233 
236 237 235 237 237 237 236 236 240 243 243 246 246 248 248 248 255 255 255 
252 249 247 243 237 233 233 231 231 230 231 234 231 228 226 226 223 224 229 
230 236 238 237 233 231 226 224 224 224 226 230 228 227 225 224 225 230 232 
231 230 231 234 234 235 235 233 234 232 232 231 232 233 234 232 230 230 229 
227 226 232 235 234 232 233 228 227 228 230 232 236 234 233 230 230 232 235 
237 237 238 240 245 246 247 250 251 249 245 254 255 255 254 250 247 243 239 
237 238 238 233 231 230 228 233 233 233 232 228 228 233 238 238 238 237 235 
232 228 225 223 221 226 230 227 227 228 224 222 227 226 228 229 231 232 230 
231 228 229 232 232 231 230 234 235 235 233 230 230 229 228 223 226 230 231 
230 232 233 234 234 231 230 231 232 232 227 228 230 235 236 237 239 241 245 
249 253 252 253 254 255 255 255 255 254 251 248 243 238 238 238 240 237 236 
234 235 234 235 234 230 229 228 230 232 232 231 229 228 227 223 220 218 219 
222 221 221 222 221 221 223 223 223 222 223 227 229 228 228 227 228 228 227 
226 227 227 226 227 222 221 222 224 227 227 228 229 229 226 228 232 234 235 
233 232 232 234 234 232 234 238 239 240 240 244 244 248 251 255 251 249 252 
251 252 251 251 250 248 246 241 240 240 240 239 237 233 232 233 234 234 231 
229 228 226 225 225 224 223 225 227 224 222 220 220 218 217 219 220 219 220 
220 219 222 222 222 226 227 228 228 225 226 227 225 225 226 225 222 219 216 
216 219 221 222 226 229 227 228 227 225 227 229 231 230 231 229 232 231 231 
227 230 234 234 235 236 237 239 243 247 249 250 250 252 252 251 249 248 245 
241 241 237 236 236 237 237 236 232 231 231 228 226 223 223 222 221 222 220 
220 217 220 221 220 222 221 221 220 225 227 227 225 223 221 221 221 221 223 
222 224 226 225 225 224 225 224 226 227 226 225 222 220 217 217 217 219 222 
222 224 228 225 223 224 224 225 227 227 223 224 223 224 223 227 230 231 232 
233 235 235 236 243 245 246 249 249 249 253 252 251 247 244 241 237 233 232 
235 234 232 232 233 229 223 222 219 218 217 218 219 217 218 218 218 219 220 
222 223 221 222 224 223 222 222 222 220 218 220 222 223 223 223 225 223 223 
223 226 227 224 223 221 220 217 218 216 214 214 214 216 217 218 220 219 222 
223 222 217 213 214 212 214 217 220 223 227 228 231 231 231 236 237 240 245 
249 251 249 250 250 252 253 252 250 249 246 241 240 238 239 236 232 230 231 
228 225 223 220 219 210 208 213 213 214 216 216 218 219 218 223 222 222 219 
220 217 216 219 217 219 222 220 219 222 224 227 224 223 227 228 225 222 221 
221 221 221 222 219 217 218 217 217 217 219 218 218 220 220 219 212 209 209 
206 210 216 220 223 224 227 232 234 234 236 237 242 244 248 250 248 249 248 
252 254 254 255 253 251 249 247 245 243 239 235 227 228 227 225 225 222 219 
213 210 212 214 213 212 214 216 216 216 219 221 220 219 219 214 214 214 212 
216 220 219 223 226 229 228 224 221 225 225 219 218 217 221 225 220 220 216 
211 214 216 218 219 219 216 217 217 216 218 217 211 208 207 211 215 219 223 
227 230 233 233 232 236 239 244 249 250 250 247 245 247 251 254 253 253 252 
254 253 252 246 242 238 236 231 230 227 222 220 218 218 217 214 212 214 213 
214 217 215 215 217 219 220 223 225 223 218 215 215 215 215 215 217 222 225 
229 225 223 219 220 218 215 216 215 219 222 225 223 218 218 218 218 217 218 
220 219 218 216 216 219 218 216 216 217 221 221 224 225 226 228 231 231 231 
236 242 246 249 248 245 242 241 242 252 252 251 250 252 254 255 250 245 242 
237 234 229 230 231 227 224 219 218 220 217 213 214 214 216 216 215 212 214 
214 214 216 216 219 219 214 213 214 215 213 216 219 220 222 221 219 214 213 
213 211 211 209 211 218 219 214 214 215 217 217 216 215 214 214 214 215 214 
214 216 216 218 218 220 219 221 224 227 228 230 232 234 235 241 245 247 243 
240 239 235 230 246 247 248 250 251 253 251 243 235 234 232 227 226 225 225 
225 225 221 221 224 219 217 217 215 213 214 211 211 212 212 212 214 215 214 
213 212 210 210 211 211 212 214 216 215 212 213 212 210 211 212 210 208 210 
215 217 213 210 206 207 206 210 215 214 213 214 215 214 214 214 216 217 217 
218 218 221 228 233 232 233 231 232 235 238 242 243 241 243 244 246 246 244 
243 244 245 247 251 250 248 243 240 237 233 230 228 226 226 223 220 219 219 
219 217 216 216 215 214 211 210 209 210 211 210 212 211 211 209 209 210 209 
209 209 206 207 210 210 208 211 209 211 208 204 204 207 211 212 210 208 203 
205 205 209 211 211 207 206 207 208 208 209 212 217 218 220 218 222 228 233 
236 238 235 233 237 236 237 240 243 242 243 247 247 245 243 239 240 242 244 
246 244 242 238 235 234 230 231 226 224 222 215 211 210 211 212 213 215 213 
213 210 211 213 211 209 208 207 208 208 209 207 207 208 209 207 206 202 204 
207 208 211 214 216 212 209 209 210 214 214 211 203 203 205 207 209 212 210 
208 204 204 206 208 207 207 210 216 219 220 224 228 229 231 233 233 233 236 
237 236 239 244 244 244 243 241 247 247 245 244 245 248 249 243 240 236 238 
239 232 231 224 222 221 213 210 209 209 210 209 206 207 207 203 208 211 210 
207 204 203 203 203 207 206 203 204 204 207 206 203 203 207 209 211 216 213 
212 211 211 210 209 210 207 207 206 206 205 207 207 204 204 202 202 205 207 
206 206 208 212 216 218 219 222 222 223 220 222 227 232 236 240 245 247 247 
243 242 232 244 247 246 245 244 245 243 235 232 233 234 234 232 230 227 224 
224 214 212 210 210 206 205 202 203 205 205 208 208 210 207 202 200 201 204 
206 208 206 205 203 201 204 205 207 206 206 208 210 207 211 210 208 209 210 
211 210 210 209 208 208 207 205 203 202 202 204 207 213 214 216 216 215 218 
218 221 221 220 222 221 226 230 233 235 238 240 242 244 240 242 239 246 246 
243 243 243 245 243 236 232 233 234 234 232 228 229 226 223 216 217 214 211 
210 210 210 211 209 207 206 203 204 204 201 200 200 202 202 203 204 200 197 
191 189 195 198 202 200 202 204 204 204 201 202 204 203 205 208 211 208 206 
208 205 203 201 202 203 207 210 215 214 218 215 215 217 219 219 220 223 227 
227 228 231 236 240 242 245 247 249 247 246 247 243 242 240 241 243 244 242 
235 233 233 233 232 230 230 228 227 220 214 214 213 213 211 211 214 216 217 
211 209 205 205 204 203 202 199 200 200 200 202 201 199 194 190 192 195 199 
198 199 198 198 198 197 199 201 202 204 205 205 205 201 202 203 202 202 199 
199 205 210 212 214 219 219 219 221 221 222 223 225 227 228 231 234 236 243 
247 250 251 250 248 243 237 237 236 237 242 246 246 242 237 233 232 232 231 
227 228 229 225 217 215 213 213 212 214 215 216 215 214 212 208 204 200 197 
198 199 201 199 201 201 202 200 196 190 189 188 187 191 197 195 196 197 197 
197 196 199 202 201 200 200 202 202 201 199 200 199 197 199 204 211 212 215 
220 222 220 222 221 222 222 222 224 225 230 235 241 248 251 252 255 252 253 
252 252 236 234 238 242 246 249 244 242 237 234 232 234 230 230 228 225 220 
214 211 210 208 208 208 208 210 209 206 201 202 200 196 196 193 192 193 193 
191 192 193 193 188 186 187 187 190 191 189 191 193 193 194 199 200 199 203 
202 200 199 196 194 194 195 197 197 201 206 214 216 217 220 223 222 225 224 
223 222 222 225 228 231 237 243 248 248 248 251 252 251 249 248 242 242 246 
248 248 248 244 240 237 236 236 234 228 228 228 225 222 218 216 213 212 208 
205 205 207 209 206 202 200 197 195 196 197 195 191 191 189 188 186 184 181 
181 184 189 192 191 189 189 186 187 189 190 193 198 203 204 207 203 195 193 
196 196 195 196 198 203 207 207 210 215 219 219 223 225 225 225 226 227 228 
234 238 240 242 242 244 248 251 250 250 251 246 249 251 251 249 247 244 243 
240 237 232 230 230 228 227 227 226 223 221 217 215 210 204 204 205 204 204 
202 202 198 196 197 200 197 196 195 189 186 183 183 184 183 185 190 192 191 
193 188 186 188 186 191 192 194 196 199 202 201 197 195 196 194 193 193 195 
197 197 200 203 212 214 219 223 224 226 229 228 229 229 231 234 234 233 235 
239 244 247 249 244 239 248 250 251 250 248 246 241 241 239 234 229 228 228 
228 227 228 227 225 224 223 216 213 212 208 208 206 204 202 203 201 201 201 
198 199 195 190 183 183 182 183 184 185 184 191 199 195 192 188 186 185 183 
188 189 191 194 196 198 196 194 190 190 188 190 192 192 194 198 201 204 207 
211 216 220 223 228 231 230 231 231 232 232 230 231 233 238 246 250 250 250 
247 249 250 252 249 245 242 239 240 237 238 233 228 226 224 223 222 222 222 
220 222 217 214 208 206 206 205 203 200 204 204 203 201 195 194 190 182 178 
181 181 184 183 186 187 190 193 193 192 188 189 191 190 190 191 190 187 186 
188 188 189 190 190 189 191 190 192 200 200 205 207 208 211 213 218 222 228 
229 232 232 234 232 232 231 230 235 239 246 249 252 255 255 253 252 251 250 
247 243 241 242 244 243 236 232 228 225 221 218 218 221 220 223 214 209 204 
204 208 207 205 203 205 206 205 203 199 196 191 186 182 181 178 178 180 182 
184 184 188 190 192 191 191 195 192 188 186 180 179 180 186 187 188 188 190 
189 191 190 192 199 202 208 208 206 212 213 218 224 228 231 233 232 231 228 
229 228 228 234 236 243 247 250 254 255 255 255 254 252 252 250 248 246 242 
240 233 229 226 225 221 219 221 220 215 217 212 207 201 203 204 206 203 202 
201 203 200 197 195 195 193 190 187 183 176 175 171 174 180 182 187 191 191 
192 189 188 187 186 183 179 178 181 186 188 188 187 190 190 192 194 197 202 
205 213 215 212 215 217 218 220 222 225 231 233 234 233 232 232 232 237 240 
242 245 248 250 249 254 254 255 253 254 255 252 248 243 239 233 231 230 231 
230 228 223 219 215 211 207 204 204 207 205 209 205 201 197 197 199 197 194 
192 190 188 187 184 179 174 170 171 172 175 182 185 185 187 187 186 186 186 
186 185 187 192 195 197 198 198 197 196 197 196 204 206 211 216 217 217 217 
218 220 222 224 226 228 232 236 238 239 239 240 237 238 241 247 251 252 251 
255 253 253 252 254 253 250 246 242 239 237 234 230 232 233 232 225 220 214 
212 207 204 205 207 207 207 204 199 195 198 197 198 194 192 190 186 186 183 
180 178 175 176 176 175 178 182 184 185 185 184 182 184 184 187 191 195 198 
199 199 198 199 198 196 198 204 207 213 216 218 218 218 217 215 214 218 222 
223 235 239 242 244 246 246 241 241 244 248 251 253 255 252 253 253 253 251 
252 249 247 241 238 236 234 226 227 229 226 222 220 215 213 205 201 201 204 
204 203 199 197 194 197 196 197 198 196 195 189 186 182 180 179 179 179 177 
177 178 182 182 182 179 178 178 182 183 189 191 195 201 200 202 204 206 206 
206 206 209 211 211 215 218 217 219 217 216 218 221 224 228 236 238 240 239 
242 243 243 245 250 252 254 255 255 246 248 247 245 247 249 248 245 243 237 
235 234 227 226 224 222 223 220 214 211 205 200 201 203 206 206 204 200 200 
200 200 201 200 196 193 188 184 179 177 178 175 177 177 176 182 184 184 177 
173 176 176 179 182 185 183 190 195 197 197 198 199 201 203 206 207 209 210 
213 216 215 213 214 214 217 220 221 225 231 232 235 234 237 239 242 245 247 
250 252 249 247 241 241 244 245 246 247 247 244 240 236 238 236 235 237 235 
230 228 223 218 215 209 205 204 202 204 205 202 201 201 199 199 202 199 197 
196 190 186 180 176 173 171 172 174 178 184 184 181 175 172 174 172 177 179 
183 181 186 186 192 193 192 195 200 202 205 204 203 203 207 211 211 209 208 
210 213 215 214 216 223 227 230 231 231 236 238 243 243 245 247 243 241 238 
241 243 243 244 244 242 239 237 238 238 238 236 236 234 230 225 223 222 220 
217 213 210 208 205 207 204 200 198 193 194 196 196 196 192 189 186 180 178 
174 171 171 173 179 180 178 177 175 172 171 170 172 174 177 179 186 183 187 
187 189 191 193 197 201 202 204 206 212 215 215 215 213 211 214 216 217 220 
223 225 229 229 230 233 237 242 244 248 252 251 250 239 242 243 241 238 238 
235 233 231 233 236 237 236 236 232 228 225 224 223 220 218 214 213 212 210 
210 203 200 197 192 194 196 195 193 191 183 179 177 176 174 172 174 173 177 
177 175 176 172 169 167 168 172 170 170 172 175 179 184 187 190 193 195 198 
200 198 201 209 215 217 217 219 218 216 219 219 226 227 228 229 229 229 230 
232 235 240 246 247 250 250 247 241 244 244 241 239 238 234 232 229 228 231 
234 234 233 235 230 228 224 223 218 219 218 215 213 213 210 202 201 198 191 
191 192 193 192 189 183 179 175 175 174 174 172 169 167 171 173 176 172 169 
168 170 174 171 172 171 170 176 186 192 198 200 205 205 203 200 201 207 212 
215 215 216 217 219 223 226 230 230 230 228 228 228 230 234 234 241 245 251 
253 254 255 244 244 246 245 245 240 237 231 233 229 231 234 234 233 233 228 
226 222 220 218 217 217 216 213 212 209 202 200 195 186 189 190 188 185 180 
178 179 180 177 176 173 172 170 167 168 169 167 168 169 165 167 171 175 176 
177 178 181 187 191 196 197 200 202 203 205 204 207 210 214 215 214 212 215 
220 222 224 225 224 225 229 231 237 238 241 245 248 253 254 254 255 248 248 
249 248 246 242 237 233 231 230 227 231 230 229 231 228 228 228 226 220 216 
214 212 212 210 209 201 196 190 183 182 181 178 178 173 174 174 179 181 179 
176 172 169 164 166 167 168 167 168 167 167 169 175 178 182 183 184 186 189 
192 194 198 202 202 202 204 205 208 207 210 209 215 219 221 223 222 223 223 
225 230 233 239 241 244 247 248 250 251 252 252 248 247 246 246 243 241 240 
236 233 233 232 233 232 230 228 222 223 225 225 220 214 210 208 210 207 204 
199 197 191 185 183 183 181 176 172 172 173 176 177 178 175 169 167 168 167 
168 170 168 169 169 174 178 182 183 185 184 183 188 189 193 196 199 203 204 
205 204 205 207 204 205 206 215 213 216 220 220 219 223 226 228 233 244 248 
252 253 253 252 250 246 239 244 247 247 245 245 244 242 237 237 236 234 231 
231 230 225 222 221 221 222 219 216 213 210 209 207 202 200 198 195 191 189 
187 183 178 173 172 170 171 171 171 170 165 166 165 164 169 170 169 169 171 
175 180 185 184 187 190 191 193 194 198 203 203 206 208 210 209 207 206 206 
207 207 210 212 214 218 219 218 220 224 229 235 242 242 245 250 253 255 254 
253 252 247 248 247 245 242 242 239 236 238 237 235 233 233 230 226 222 225 
225 225 221 218 214 212 209 207 199 196 196 196 197 195 192 184 179 174 173 
173 174 173 171 168 165 164 164 166 169 172 171 174 175 179 180 183 187 192 
194 196 197 198 198 195 196 204 206 206 208 210 208 212 212 214 214 216 216 
216 217 219 220 223 227 232 235 239 243 249 252 254 254 255 255 245 247 247 
242 241 243 242 242 241 240 237 233 234 233 231 227 228 227 225 220 216 219 
215 211 211 206 202 201 201 200 198 198 196 194 188 180 178 179 179 174 172 
168 168 166 167 169 173 172 172 173 176 177 181 186 191 195 201 201 202 202 
203 201 203 204 206 208 212 209 211 214 216 218 219 216 217 215 220 224 226 
227 232 233 237 242 247 248 250 251 254 254 248 249 245 242 241 242 244 243 
240 240 237 234 236 236 236 233 230 228 225 223 215 215 211 210 210 209 207 
205 204 201 198 194 193 192 188 186 184 184 181 180 179 179 176 173 170 170 
175 175 174 173 176 178 182 187 191 194 201 202 203 201 203 205 204 203 204 
204 206 208 209 216 220 220 222 220 217 219 226 228 229 228 231 233 236 241 
246 246 247 248 249 249 242 241 240 238 235 237 238 239 235 235 232 232 234 
234 233 230 224 221 218 219 214 214 209 207 209 209 204 204 201 199 200 196 
194 192 190 189 189 190 188 185 182 180 176 170 173 171 172 172 172 173 174 
176 178 181 187 191 196 200 201 200 200 205 204 201 202 203 204 207 211 215 
218 218 220 221 219 223 229 233 235 236 237 239 241 245 246 245 244 244 241 
240 247 246 243 241 239 236 236 236 234 232 232 233 232 231 227 225 225 224 
222 220 213 210 203 203 206 203 201 199 199 197 196 194 194 193 191 190 190 
189 191 188 180 178 177 173 173 173 172 173 177 176 175 176 177 180 188 191 
194 197 198 201 201 203 200 198 198 198 202 206 207 213 217 218 216 216 218 
218 225 231 235 237 237 233 232 241 242 244 244 244 243 244 251 250 247 244 
240 240 236 233 231 231 233 233 233 234 231 226 225 223 217 215 212 211 206 
204 202 199 196 196 196 195 192 191 191 188 187 189 190 189 189 188 186 181 
181 181 178 177 175 176 180 180 180 178 179 180 185 186 189 192 192 197 201 
199 199 198 200 205 205 205 210 215 217 217 216 216 218 222 229 230 231 234 
237 235 235 239 240 243 244 242 241 241 254 255 251 246 239 239 239 237 236 
232 232 231 230 230 229 226 226 217 211 212 210 208 204 201 201 198 200 200 
197 196 196 195 194 192 190 192 193 194 189 186 186 184 184 183 181 179 176 
176 179 181 182 181 180 186 188 187 187 190 189 195 196 198 201 202 206 211 
211 212 215 217 214 214 215 215 218 222 228 230 230 231 231 232 236 239 239 
242 243 245 242 242 254 254 254 249 245 245 246 245 241 239 238 232 231 231 
231 229 225 218 213 211 210 206 202 199 202 202 204 203 201 200 202 201 201 
198 196 195 193 192 187 183 183 180 184 187 183 183 180 180 182 184 182 186 
187 192 191 192 193 196 196 197 193 196 202 202 205 207 209 214 214 217 214 
214 213 216 220 222 223 224 224 227 232 235 236 240 237 240 242 243 242 240 
254 252 255 252 249 249 249 250 249 246 243 241 239 238 238 233 228 219 215 
211 207 205 205 205 202 200 200 201 199 199 202 201 196 197 197 194 189 189 
184 180 178 179 182 185 187 186 186 184 185 187 188 188 191 195 194 195 196 
200 200 195 193 195 199 200 199 203 205 207 212 214 211 214 213 214 220 222 
220 222 226 228 233 236 240 241 239 238 237 240 244 246 255 255 255 252 249 
249 249 250 252 247 241 241 240 239 236 233 227 219 214 213 211 207 206 205 
201 197 197 198 198 202 201 202 201 201 201 199 194 194 190 188 183 179 182 
185 187 188 189 189 189 188 189 190 192 196 197 198 199 200 198 196 195 197 
200 202 201 201 204 207 210 212 210 209 213 216 222 225 224 225 226 228 231 
234 236 236 234 234 236 239 245 247 252 251 249 246 246 246 246 244 246 242 
235 234 236 237 233 233 227 216 212 212 211 208 205 205 202 201 201 199 200 
201 201 199 199 199 201 202 201 198 197 195 188 182 181 184 183 185 188 192 
195 194 194 194 196 196 197 199 201 201 202 199 194 196 197 198 201 202 204 
208 210 213 212 213 214 218 225 228 227 224 226 227 228 227 226 233 234 234 
236 239 242 244 249 247 246 245 243 242 243 245 247 245 244 244 243 240 236 
232 225 219 217 216 212 208 205 207 205 206 201 197 199 199 202 198 195 196 
200 201 200 196 199 199 195 186 184 187 184 187 194 197 197 195 194 194 197 
200 199 200 202 202 200 198 197 201 200 202 202 203 202 204 206 208 211 216 
218 226 226 226 227 225 227 228 232 233 232 238 240 238 237 237 237 235 248 
249 250 247 246 244 243 244 242 240 240 241 236 237 234 229 224 219 216 214 
212 209 206 204 203 200 195 193 195 196 197 197 197 197 200 201 201 198 198 
198 195 192 192 192 193 197 199 201 201 204 206 202 202 201 198 200 200 201 
200 199 198 200 197 198 196 199 203 205 207 208 211 216 217 222 221 224 223 
223 226 226 233 234 238 242 244 243 239 237 239 242 253 253 252 250 252 249 
248 247 243 240 237 235 233 233 233 231 226 220 217 216 211 206 204 203 202 
198 193 191 193 197 196 196 197 197 198 197 197 194 196 198 198 196 197 197 
200 204 204 205 205 208 211 209 207 205 200 200 201 201 199 196 194 193 191 
193 194 198 200 204 207 207 213 217 219 221 224 225 222 221 223 226 235 239 
241 242 246 245 243 242 243 242 250 250 248 246 247 246 246 245 242 237 233 
232 234 233 234 233 229 223 221 219 214 208 206 205 203 202 197 195 193 197 
198 197 198 197 197 196 195 193 197 197 198 200 200 202 205 208 209 206 207 
203 208 208 205 205 203 205 204 203 198 194 188 187 190 195 199 203 206 208 
210 212 214 217 220 221 223 226 224 225 226 228 235 238 238 240 245 248 249 
248 248 251 249 249 247 245 243 242 241 242 241 238 236 231 234 233 232 232 
229 227 224 218 217 214 212 212 205 202 199 195 195 197 200 202 203 203 204 
199 194 193 191 197 199 199 198 200 203 206 211 209 210 209 207 206 203 200 
202 205 207 206 201 197 192 190 193 199 200 205 210 213 215 215 216 218 219 
220 220 223 222 225 227 230 231 233 234 237 242 244 242 242 239 241 252 251 
251 249 240 237 239 237 238 236 234 229 230 229 229 228 224 223 220 218 216 
213 210 208 205 204 199 199 197 199 202 200 201 203 206 202 196 197 197 201 
199 198 199 204 207 206 211 215 212 212 208 207 202 202 202 206 210 208 202 
200 199 194 198 204 204 210 213 218 218 215 216 215 214 218 219 220 222 222 
226 229 232 232 236 238 240 237 237 237 238 240 255 254 253 251 245 242 239 
236 234 235 233 230 230 230 230 230 227 225 223 217 215 212 209 208 207 205 
204 205 206 206 207 207 209 209 210 204 202 201 201 201 200 199 202 206 207 
207 211 213 213 214 211 210 205 206 205 205 207 202 198 201 199 200 201 204 
208 211 213 215 214 212 213 212 212 210 212 213 217 220 225 229 232 232 234 
237 238 236 236 233 235 236 252 253 252 251 247 243 240 238 237 237 234 233 
234 234 232 229 228 226 220 213 212 210 209 208 209 208 212 211 212 210 208 
210 212 210 210 210 208 208 205 206 207 208 209 210 210 212 216 217 218 218 
213 208 205 206 208 208 206 201 202 200 201 204 206 208 212 213 213 211 211 
213 212 212 213 210 212 210 210 213 217 223 227 231 236 238 240 239 237 236 
239 241 252 251 250 250 247 244 242 239 237 236 233 234 233 232 231 229 226 
227 224 222 220 217 215 211 211 212 216 216 214 209 208 209 212 211 211 212 
213 214 210 210 212 212 212 212 213 215 218 218 219 221 215 210 207 206 208 
211 210 208 206 203 200 203 207 210 213 214 215 215 213 212 213 216 216 218 
219 214 211 212 216 219 225 231 236 238 240 242 242 239 239 238 250 250 251 
254 250 247 244 241 239 234 231 232 231 230 227 226 225 221 218 221 221 220 
219 213 211 212 213 212 211 209 210 209 212 209 207 208 208 209 211 215 216 
216 216 214 214 214 217 217 217 216 213 210 204 206 212 216 214 213 209 207 
206 206 209 212 214 218 219 220 220 221 219 221 221 222 221 218 215 212 219 
226 230 232 233 236 241 243 245 245 246 245 251 250 250 248 250 249 244 239 
236 233 233 230 229 226 222 221 222 218 213 218 218 217 216 213 209 206 207 
210 211 209 210 210 213 215 212 210 209 211 213 217 219 221 223 217 214 214 
215 218 219 215 216 217 217 218 221 222 219 215 213 216 212 210 208 213 215 
218 220 223 222 222 220 221 224 223 222 222 221 216 216 223 229 229 231 234 
240 243 248 250 252 252 254 253 253 254 254 250 245 239 237 236 234 233 230 
224 219 219 220 216 211 212 211 210 209 211 210 209 209 212 216 217 217 218 
217 219 217 214 212 213 216 218 219 219 222 222 221 219 217 215 216 215 216 
216 216 220 221 224 222 218 216 213 213 213 216 216 219 219 220 221 220 214 
213 218 219 220 223 225 225 221 223 229 230 232 233 236 241 244 247 249 248 
248 254 254 253 253 252 250 244 239 236 236 235 235 230 224 218 217 218 214 
210 209 208 212 213 215 216 217 217 219 225 224 220 222 217 216 215 215 214 
217 218 217 219 218 220 221 219 216 215 213 215 211 210 211 212 216 219 220 
221 220 218 217 217 217 217 215 218 218 218 214 213 213 214 218 220 223 223 
224 225 227 227 229 229 229 235 240 242 244 247 249 250 250 252 250 246 247 
250 247 243 241 239 238 238 237 234 228 220 217 217 216 212 210 214 223 222 
222 225 227 227 227 227 226 225 225 222 220 220 220 221 222 220 219 219 218 
218 219 218 216 216 215 214 212 214 216 218 221 219 220 222 222 220 223 225 
223 220 220 222 224 222 216 213 209 210 214 213 218 222 224 225 227 231 232 
231 232 235 240 243 247 248 250 250 251 251 251 251 253 248 247 244 241 237 
235 236 236 234 227 223 220 221 219 219 218 220 222 224 227 226 227 226 227 
225 224 222 222 221 220 221 221 220 221 220 221 219 221 221 218 216 217 220 
222 219 213 213 216 221 224 223 224 225 223 224 225 226 226 226 223 224 223 
221 221 218 213 212 214 215 216 219 221 222 223 230 232 234 237 240 243 245 
246 247 246 247 248 253 255 251 250 243 244 241 239 234 233 234 232 228 225 
223 216 220 225 226 228 231 233 232 233 232 233 232 228 223 222 223 223 221 
220 222 222 221 223 224 224 223 224 223 223 219 218 221 221 221 218 217 220 
220 221 224 226 226 224 225 225 225 225 226 226 225 227 223 218 218 216 215 
213 217 217 218 221 222 227 233 234 234 237 242 245 245 246 244 245 244 245 
253 255 251 250 246 244 241 241 238 236 235 233 230 229 227 223 225 230 233 
233 234 231 232 233 233 229 228 218 218 218 220 222 224 223 225 222 222 224 
226 226 224 222 222 225 224 226 227 229 226 225 222 218 219 220 219 222 226 
224 224 227 228 227 226 225 223 226 227 226 229 227 225 221 220 224 225 226 
226 230 234 238 240 242 244 246 247 246 245 244 243 242 255 255 255 250 246 
242 237 234 233 232 233 233 233 232 231 229 228 229 227 228 230 232 234 236 
234 230 229 225 222 222 221 221 225 227 229 229 232 232 230 227 227 226 224 
227 230 234 234 234 232 229 226 224 221 220 221 224 224 224 224 226 226 226 
228 227 225 226 227 230 233 233 230 225 225 226 226 228 227 231 236 241 244 
244 244 245 247 246 244 243 241 241 255 255 255 251 246 240 234 231 230 232 
233 231 233 233 233 234 232 232 229 228 233 237 243 242 239 233 230 228 223 
222 226 228 233 232 230 229 233 234 231 226 225 224 224 228 232 230 233 232 
230 228 225 224 222 220 219 219 223 224 226 231 232 232 232 229 229 229 228 
231 236 234 233 231 231 231 228 231 229 229 230 236 242 246 249 249 247 246 
243 243 238 239 255 254 253 251 249 243 243 241 237 234 232 233 233 233 232 
229 232 231 231 231 234 240 241 242 239 230 227 225 223 223 232 236 237 235 
233 232 229 232 231 225 230 227 226 229 230 233 232 232 233 228 228 226 223 
224 228 229 228 229 231 233 232 230 231 230 234 235 235 234 234 234 234 233 
233 233 232 235 230 230 235 241 244 247 249 250 247 245 239 243 244 246 252 
250 248 248 244 242 241 242 238 235 235 234 232 230 231 230 232 235 235 234 
235 239 240 240 235 230 226 226 229 234 239 241 238 236 235 233 230 230 231 
231 231 229 229 233 235 234 235 235 234 232 229 226 224 227 231 234 232 231 
231 230 231 231 233 236 239 240 237 235 234 229 232 235 238 242 241 238 231 
229 235 238 240 244 246 248 246 243 241 242 241 243 254 251 247 244 238 240 
238 240 236 237 236 235 228 228 229 228 230 232 234 230 232 237 238 242 241 
236 232 230 234 237 241 239 238 238 237 240 239 244 243 243 243 240 233 232 
236 238 237 237 238 238 233 233 233 235 238 239 237 235 235 233 231 231 232 
236 237 241 242 238 237 236 238 241 244 246 245 240 236 237 239 239 236 237 
242 243 242 239 241 241 242 243 251 251 248 244 238 235 236 235 235 236 235 
235 231 228 227 229 229 229 229 231 232 236 235 236 236 235 232 234 235 238 
240 240 237 240 241 243 244 248 249 250 247 245 242 239 240 243 239 237 240 
238 235 235 235 237 239 243 241 234 234 233 231 236 238 242 242 246 247 245 
245 245 247 250 252 249 247 244 238 241 242 240 238 235 239 240 244 244 243 
242 245 247 255 255 252 248 246 242 239 238 236 236 236 236 232 230 228 229 
232 234 236 233 235 233 233 235 235 236 232 234 236 241 243 240 238 238 239 
242 243 241 248 250 250 249 246 244 242 242 242 241 241 240 238 238 239 241 
243 243 242 238 239 236 234 238 239 241 243 245 248 248 248 251 253 251 247 
249 247 245 240 239 241 241 240 240 240 241 240 239 235 239 242 244 255 255 
253 250 248 244 242 242 241 240 240 239 238 238 234 235 235 241 241 240 240 
237 236 239 240 240 238 238 241 244 243 240 238 235 237 244 246 247 249 251 
250 251 248 247 246 244 245 247 248 248 243 242 243 243 242 241 240 238 239 
235 232 234 234 243 243 248 251 251 251 253 254 252 250 250 247 246 247 245 
244 243 241 241 244 244 243 242 240 239 241 241 251 252 252 249 246 242 242 
243 243 244 244 244 244 246 245 244 245 246 244 240 240 239 239 240 239 240 
238 238 240 243 241 241 241 238 238 242 247 249 251 250 250 250 248 250 252 
253 253 252 250 253 253 252 250 247 244 244 238 238 239 237 237 237 238 244 
248 252 254 255 255 255 254 254 254 252 250 249 250 246 245 245 247 245 246 
246 244 247 247 246 248 248 250 248 244 241 241 241 240 241 241 241 244 245 
248 252 253 253 251 250 247 245 241 241 239 241 241 241 239 242 245 248 247 
246 243 243 242 243 248 245 246 246 250 251 252 252 252 253 250 250 248 252 
253 255 253 250 245 245 242 238 237 239 241 244 245 248 252 254 252 251 252 
255 254 254 252 251 249 247 248 248 246 244 245 246 248 247 247 250 249 251 
252 251 248 246 243 239 237 238 239 241 242 240 246 250 250 253 253 253 253 
255 252 250 248 246 240 239 239 241 241 244 249 251 249 249 245 245 244 243 
242 241 241 246 248 250 251 254 252 252 251 251 249 253 252 254 254 253 251 
250 246 243 244 245 246 248 249 248 251 254 253 250 249 250 248 247 250 254 
254 250 248 251 250 247 247 247 247 250 252 253 252 251 251 248 243 244 240 
239 241 241 241 243 245 246 249 251 252 254 253 254 254 253 255 253 252 248 
245 244 243 246 244 247 251 254 254 252 250 247 246 247 248 247 248 252 253 
253 253 253 251 254 254 255 254 255 255 255 255 255 255 254 251 252 253 251 
252 251 249 250 251 250 246 244 242 244 245 249 253 252 252 254 252 254 254 
251 248 249 252 253 255 255 255 252 250 248 241 244 242 241 241 240 240 243 
247 249 253 253 253 255 255 255 254 254 254 249 250 247 246 246 243 246 247 
249 252 254 254 253 252 249 246 246 247 247 248 250 252 254 253 253 254 254 
255 255 255 254 253 253 254 253 254 255 255 255 255 254 250 250 251 248 249 
245 244 242 242 242 243 246 249 249 246 250 251 247 249 250 248 246 248 252 
255 254 253 249 248 246 
