P2
#output from hocrtest
40 40
255
251 247 250 251 254 255 254 253 255 254 255 255 255 255 253 252 253 248 241 
232 242 244 237 251 251 255 254 252 255 255 249 248 252 255 255 255 255 255 
254 255 249 250 252 254 255 255 254 254 254 253 255 255 255 254 252 251 252 
247 245 242 246 247 245 250 254 255 255 255 255 253 250 248 251 254 255 255 
255 255 255 255 253 255 255 255 255 255 254 251 255 254 255 255 253 253 252 
249 244 234 239 241 242 243 248 253 253 253 251 251 249 248 246 246 250 255 
255 255 254 253 251 250 254 255 255 255 253 255 255 253 255 255 255 252 251 
253 249 247 241 239 238 241 245 249 254 255 251 249 249 250 248 245 244 242 
250 255 255 255 255 254 252 251 253 253 253 249 245 242 248 249 250 251 253 
247 247 247 245 248 247 245 244 245 244 246 249 248 247 246 247 248 248 249 
250 241 247 246 249 250 250 252 252 253 255 253 253 245 241 243 245 245 246 
245 246 244 244 244 244 245 246 246 244 241 241 240 243 244 243 243 241 240 
240 243 245 245 247 245 241 237 240 244 246 247 255 253 251 244 242 247 245 
240 240 238 243 244 241 242 245 245 246 249 248 241 239 238 238 240 242 242 
240 239 240 241 242 243 245 242 241 242 243 243 243 244 255 255 255 253 250 
250 246 236 238 239 241 243 241 244 245 245 242 240 238 231 230 231 232 237 
238 239 239 237 242 247 245 242 244 243 243 243 242 242 244 244 250 255 255 
255 254 254 252 245 241 241 245 245 246 244 243 244 239 234 232 228 227 224 
224 227 234 237 236 233 235 243 245 242 237 238 239 241 240 243 245 245 252 
254 255 255 252 251 249 247 242 241 245 246 241 238 236 238 235 230 228 230 
227 226 231 234 238 237 234 234 238 243 247 248 241 240 237 237 239 238 239 
241 251 252 253 250 245 246 244 244 242 242 242 245 240 229 227 229 229 229 
229 232 231 232 232 237 236 234 232 235 236 240 246 243 241 239 244 247 244 
244 246 246 246 244 242 245 242 243 241 245 244 245 242 243 243 239 227 229 
229 228 228 235 237 238 234 234 231 232 230 228 227 233 238 238 240 240 242 
242 243 243 242 241 245 243 243 244 240 239 238 242 247 251 247 246 242 235 
229 230 227 227 226 233 234 234 233 230 222 226 226 221 222 232 234 236 238 
236 238 239 241 238 236 236 244 244 243 245 245 245 241 245 249 252 247 242 
238 231 234 234 231 229 228 230 226 225 226 223 221 218 222 223 223 227 236 
237 236 233 237 240 240 239 237 239 249 247 246 247 247 241 235 238 237 238 
240 239 236 231 233 236 239 236 233 230 227 221 224 223 225 227 229 227 226 
234 238 240 235 235 237 238 236 239 241 240 248 250 246 247 248 241 236 234 
236 234 237 239 236 236 234 235 236 234 233 229 232 227 226 222 225 229 232 
234 231 232 234 238 237 238 235 232 230 233 237 239 255 255 250 251 253 246 
238 234 237 236 238 236 229 229 231 232 231 230 228 226 228 226 226 224 221 
227 233 233 233 233 233 236 238 240 237 233 236 238 243 245 255 253 251 250 
252 248 245 242 238 237 232 230 229 226 227 227 227 225 224 221 224 225 226 
227 225 230 232 230 229 232 231 233 236 237 238 239 237 239 241 241 255 255 
255 253 254 254 252 246 241 236 229 229 231 229 224 222 223 220 221 218 220 
220 218 221 225 226 228 230 232 235 237 237 236 236 235 237 237 242 250 248 
255 253 252 250 251 252 249 244 242 240 234 233 236 232 220 218 218 221 223 
221 220 219 218 219 227 227 225 227 230 234 240 239 238 232 232 230 235 241 
247 245 255 255 253 255 255 254 253 255 248 243 238 235 232 227 223 217 216 
217 214 216 216 221 218 220 225 225 229 231 234 236 238 241 238 235 233 233 
237 237 242 242 255 255 254 255 255 254 250 245 239 235 235 233 227 227 227 
223 220 215 215 216 215 219 216 218 222 224 226 226 231 235 241 241 240 237 
233 234 237 241 247 251 255 255 254 254 253 250 244 239 236 237 232 229 228 
227 223 221 217 217 216 216 220 221 219 219 224 227 231 232 236 238 240 238 
234 234 233 232 238 245 250 252 252 249 251 250 249 246 242 239 237 234 231 
233 227 226 223 220 220 219 214 214 218 219 221 220 222 227 229 234 235 240 
238 233 235 234 231 232 236 247 251 254 247 247 247 247 246 242 239 240 233 
230 228 227 221 223 223 227 226 227 223 221 221 220 220 221 223 222 228 233 
234 237 238 234 238 239 238 238 240 243 245 246 245 246 244 245 245 242 236 
236 234 231 227 231 226 224 224 229 229 230 226 224 220 221 222 224 227 229 
235 236 237 241 240 239 237 240 238 236 238 239 242 243 249 250 248 247 244 
244 243 242 240 234 228 229 229 228 228 229 233 230 225 224 221 225 222 223 
230 231 234 235 239 243 240 240 243 239 237 240 239 242 246 248 255 255 255 
253 250 251 250 240 240 236 233 232 230 229 231 232 228 228 229 226 223 222 
225 232 234 236 237 239 242 240 240 240 241 245 244 242 239 240 243 245 255 
255 255 253 255 255 252 244 244 237 234 234 234 232 230 233 229 230 229 228 
226 225 231 237 240 237 239 237 237 237 242 244 246 246 248 246 245 246 249 
250 253 255 254 254 251 249 246 238 237 231 231 236 235 237 236 231 230 229 
229 229 228 228 229 232 235 243 246 247 245 241 243 245 246 248 248 251 251 
253 254 255 252 248 251 251 249 248 242 236 233 233 229 232 234 235 235 238 
236 231 231 233 234 234 235 239 244 246 245 246 242 239 240 236 241 247 250 
254 255 255 255 255 250 248 247 249 249 245 242 237 236 232 229 229 226 230 
232 236 234 233 232 234 233 236 237 239 241 245 241 232 233 231 237 243 248 
250 252 255 255 255 254 255 255 254 249 249 246 243 242 240 238 237 232 235 
234 233 233 236 236 238 239 235 235 236 237 237 243 243 240 232 229 232 236 
240 245 248 251 254 255 254 255 255 253 252 248 243 242 239 243 242 242 243 
238 242 238 239 241 245 246 245 244 239 239 240 235 236 237 239 235 228 231 
235 239 240 245 247 252 254 255 255 255 255 255 252 247 239 235 238 241 243 
245 244 243 244 243 243 242 245 247 248 245 242 242 237 236 236 233 234 236 
234 234 241 237 235 245 245 249 252 255 255 255 255 253 251 245 235 230 227 
230 234 243 245 248 251 249 247 247 247 246 245 247 243 243 242 243 241 236 
237 240 239 236 242 244 240 248 248 250 251 255 255 255 255 246 247 243 235 
236 238 237 240 247 248 250 251 251 251 249 246 245 244 244 245 245 242 242 
240 239 241 244 244 246 247 247 246 250 252 253 254 255 255 255 255 246 251 
249 246 246 250 246 251 251 251 253 254 255 255 255 249 243 242 238 243 248 
245 242 244 237 243 244 244 245 247 248 247 249 250 255 255 255 255 255 255 
246 246 243 244 250 252 255 255 255 255 255 255 255 255 254 249 240 239 241 
245 248 246 243 243 239 239 241 242 245 246 250 251 255 255 255 255 252 253 
255 255 244 243 242 243 246 250 252 249 250 255 255 255 255 255 254 253 248 
247 250 252 252 251 246 245 240 242 243 241 245 247 248 248 252 255 254 255 
250 250 247 243 
