P2
#output from hocrtest
80 80
255
253 249 255 251 255 255 251 248 255 254 255 254 252 255 255 251 252 248 245 
235 241 243 236 254 252 254 252 252 255 255 255 250 252 255 253 255 253 251 
250 249 245 254 253 250 250 250 246 245 243 244 247 251 250 246 248 255 250 
248 245 236 250 250 252 248 255 253 243 250 248 245 247 245 252 247 251 252 
254 254 255 255 254 254 255 255 255 254 251 248 251 253 255 252 252 253 252 
251 249 246 248 247 245 247 246 253 255 254 252 253 255 255 254 251 251 255 
254 255 252 251 249 249 250 255 255 251 247 247 247 247 247 251 251 250 248 
250 251 253 249 246 243 242 249 251 252 252 255 253 248 248 245 242 247 250 
252 249 250 251 253 253 252 251 253 255 255 255 254 248 248 246 244 243 246 
242 247 248 247 248 250 252 251 251 251 251 251 252 251 250 253 252 253 253 
254 252 251 251 254 254 251 250 249 251 252 255 253 247 247 246 246 245 249 
249 249 251 249 250 251 250 249 248 245 245 247 245 249 252 251 251 246 244 
242 243 245 245 248 247 245 242 243 244 243 244 255 255 255 252 250 250 249 
246 243 241 242 240 246 247 247 246 250 253 251 251 254 255 252 251 251 250 
248 244 242 248 249 250 249 251 254 255 253 250 250 252 252 251 253 250 247 
246 245 242 246 248 251 251 250 249 248 247 246 246 245 243 244 242 246 249 
252 251 249 246 244 245 247 246 248 247 245 242 241 240 242 243 252 254 254 
254 253 252 251 248 243 248 246 245 249 251 251 250 249 250 248 248 247 247 
244 239 243 245 245 241 242 249 248 251 250 252 255 252 252 250 246 250 249 
250 250 249 247 249 249 246 244 247 248 246 244 240 243 244 242 242 240 242 
243 242 243 249 248 248 248 245 245 247 249 249 246 245 243 241 242 239 239 
240 254 254 255 255 253 247 248 247 245 246 247 248 249 249 246 245 246 247 
251 250 247 244 243 240 240 240 239 241 242 247 249 246 247 246 247 245 244 
245 245 247 246 244 247 250 250 251 252 250 250 250 250 250 248 242 243 246 
244 242 242 246 245 248 248 249 247 242 243 242 241 245 248 248 245 240 240 
241 242 244 247 244 254 252 252 252 251 246 245 244 244 245 248 252 248 250 
245 245 245 245 247 248 247 242 241 238 234 235 237 237 241 245 245 244 243 
240 236 237 237 237 237 236 237 242 246 249 251 253 251 252 252 252 251 250 
249 245 248 246 243 240 240 241 246 250 248 245 243 240 239 240 240 241 243 
244 243 241 239 240 241 242 243 245 255 254 250 250 247 243 241 241 241 242 
245 246 243 242 243 244 244 245 245 243 241 238 237 238 238 239 239 240 242 
245 244 241 238 234 230 230 231 233 236 235 236 240 242 245 253 253 251 249 
249 247 248 250 248 248 247 244 241 240 242 243 248 250 250 246 241 242 241 
240 238 237 240 242 240 237 235 235 237 239 243 245 255 255 253 253 253 248 
243 241 240 241 244 244 237 236 237 235 236 241 241 240 239 236 234 232 233 
237 241 243 242 242 239 235 234 233 232 231 234 236 238 241 240 240 241 241 
247 250 247 242 239 237 239 241 241 241 240 239 238 240 242 242 244 246 246 
244 240 239 235 232 234 236 233 236 236 236 238 240 242 241 241 241 254 254 
253 253 251 250 245 242 242 241 241 239 236 237 238 233 234 235 238 236 237 
235 232 232 234 236 240 240 238 239 238 236 233 235 234 236 240 242 245 240 
238 238 238 239 242 244 242 237 233 231 232 234 235 237 233 232 234 237 238 
236 235 236 236 238 237 235 230 230 232 235 238 239 239 236 237 238 239 240 
241 242 252 251 248 250 252 249 245 241 241 238 236 234 233 234 234 228 230 
233 234 236 237 239 236 237 239 242 243 242 241 240 238 236 234 232 232 234 
237 238 241 237 236 237 236 237 238 239 236 232 229 230 231 233 232 233 233 
233 233 233 233 231 232 234 233 233 233 232 229 228 229 232 235 235 236 236 
235 234 236 238 240 241 249 248 245 247 248 247 244 239 235 235 232 231 233 
234 233 233 232 233 235 236 239 241 239 237 238 240 240 239 240 242 242 238 
232 231 231 230 233 235 234 234 233 234 233 233 236 235 232 230 228 227 225 
231 228 230 230 227 227 226 227 228 227 231 234 236 237 234 233 234 232 235 
236 234 234 237 236 234 234 238 240 242 250 247 246 247 247 245 242 240 236 
234 232 229 228 229 231 231 231 234 230 231 233 232 234 235 237 238 236 238 
238 239 237 232 230 230 231 229 228 230 230 230 230 231 231 232 232 233 227 
224 224 225 221 229 228 228 226 227 227 228 231 230 226 229 230 232 233 232 
233 235 233 236 237 237 238 240 240 238 238 236 241 242 253 251 246 249 249 
249 244 241 240 239 233 228 226 226 226 225 224 222 222 225 226 231 232 236 
236 234 234 235 235 235 234 232 230 229 225 225 224 228 231 235 234 233 234 
231 231 232 228 223 224 223 221 227 228 226 226 225 223 225 227 224 226 227 
227 230 229 233 233 233 233 234 235 237 240 243 245 245 243 242 244 244 253 
247 248 251 251 250 247 244 240 238 234 229 229 227 225 224 218 217 217 219 
219 221 229 233 235 231 231 229 228 229 230 232 230 227 226 225 226 230 230 
233 232 230 229 229 228 226 226 226 224 221 226 232 235 231 230 224 223 225 
224 226 228 226 225 225 227 235 236 234 233 233 236 241 246 248 250 250 250 
252 251 251 250 247 248 250 250 250 246 239 232 233 229 230 230 230 231 225 
220 216 215 218 219 219 224 230 233 232 232 231 227 226 224 222 225 226 226 
227 227 229 231 234 233 228 226 226 226 223 224 224 226 223 228 228 228 227 
228 225 222 225 224 224 226 227 226 228 230 233 231 230 232 233 239 243 248 
252 251 251 254 255 252 255 251 251 250 250 247 244 243 237 233 230 228 229 
230 230 228 226 222 219 217 214 215 215 216 222 223 221 222 220 217 219 219 
220 227 228 229 226 228 227 227 228 227 224 221 220 219 218 224 226 229 229 
230 230 228 227 228 226 228 229 230 229 227 229 228 230 232 231 229 230 233 
235 239 240 243 248 250 252 255 255 255 255 252 249 247 244 241 243 243 241 
240 236 235 234 232 229 224 222 219 216 213 213 215 214 212 216 216 213 217 
213 209 214 218 219 225 226 228 227 226 229 227 225 223 222 221 218 216 216 
219 225 229 229 232 232 228 226 225 226 227 229 227 224 222 225 230 233 232 
231 231 233 233 236 238 237 243 248 251 251 255 255 255 255 248 245 243 240 
242 242 241 243 244 242 240 237 235 229 226 220 218 213 213 215 216 218 216 
216 212 212 212 208 211 215 218 220 223 223 230 226 224 223 223 223 222 221 
219 219 220 220 223 224 225 222 229 230 228 224 224 224 223 224 223 222 221 
221 224 228 228 226 227 226 226 232 235 234 239 242 245 248 253 255 254 253 
245 242 238 236 240 243 243 242 244 245 242 241 238 232 229 223 216 214 212 
215 216 215 215 214 211 208 209 206 208 217 220 223 221 221 223 219 217 216 
219 218 215 215 213 218 220 222 223 222 217 219 220 221 221 219 218 217 217 
218 220 220 220 219 219 219 219 221 221 219 223 225 230 234 237 240 244 247 
251 253 249 247 242 242 240 239 238 243 244 242 241 241 239 236 237 231 234 
229 224 222 220 219 217 214 212 210 208 209 207 207 210 217 219 219 220 220 
221 218 215 213 214 209 208 210 207 211 217 217 221 220 217 220 219 219 217 
216 214 212 213 215 217 220 218 213 213 218 222 222 225 228 232 234 234 235 
238 242 248 253 253 254 253 255 247 246 248 245 243 243 241 236 231 228 228 
226 227 228 230 225 220 217 219 217 215 212 207 207 205 208 209 208 212 216 
216 216 217 217 219 218 219 214 214 212 210 209 204 210 214 217 221 221 219 
217 214 214 213 212 210 209 207 209 212 217 217 212 214 217 220 226 229 231 
235 239 240 243 245 249 251 251 252 253 252 250 253 254 253 251 248 244 236 
230 227 225 225 229 226 222 222 222 219 221 220 215 210 209 207 205 207 208 
210 211 213 216 215 213 212 216 219 216 214 209 207 208 204 207 206 211 213 
218 220 219 218 217 214 213 213 212 211 209 210 210 212 218 218 216 218 220 
224 230 234 236 240 239 240 241 244 247 245 246 252 252 252 249 253 255 253 
250 247 245 240 237 235 232 230 230 228 226 228 227 223 223 223 219 215 213 
212 213 213 211 212 216 216 217 215 213 213 215 216 216 211 208 205 203 200 
204 209 212 214 217 217 218 219 218 219 216 211 211 212 212 211 214 213 219 
220 219 220 223 227 229 230 231 233 237 235 233 234 239 244 245 250 251 249 
249 254 252 249 246 243 241 238 237 234 231 233 231 232 231 233 230 225 222 
222 217 213 213 213 215 213 210 212 214 213 213 210 207 206 210 213 215 213 
208 203 202 205 206 209 207 212 216 215 214 213 215 217 214 213 212 212 210 
205 197 203 202 212 216 218 221 225 226 227 226 226 228 228 226 232 236 238 
243 249 250 252 253 252 250 249 248 246 243 239 238 237 235 235 234 234 234 
235 233 226 221 219 215 214 218 221 218 215 212 210 210 210 214 211 209 207 
208 210 210 207 202 198 197 199 202 202 205 210 213 212 212 210 209 209 207 
206 205 204 205 207 203 206 206 211 214 217 220 224 226 225 227 227 227 228 
229 233 235 238 244 250 253 254 254 254 251 249 247 247 245 241 239 239 237 
237 238 239 235 232 230 227 220 215 216 217 218 219 217 215 212 212 211 209 
210 207 203 205 209 210 209 208 203 201 198 196 192 194 198 203 206 207 203 
203 199 200 203 202 201 202 204 206 204 205 210 215 219 223 221 223 226 225 
231 232 231 230 231 234 234 240 244 248 253 255 255 253 251 242 241 242 244 
243 241 240 237 235 235 237 235 231 229 227 218 214 215 216 216 215 216 214 
212 211 209 209 208 205 204 204 205 207 208 207 202 202 200 197 195 191 194 
198 201 202 201 202 199 198 200 200 204 209 210 208 209 212 216 221 226 227 
226 225 226 227 230 231 230 229 234 236 236 242 247 249 252 255 255 251 251 
245 241 241 243 243 241 236 235 237 238 239 236 234 233 228 217 216 214 215 
214 209 209 205 204 202 196 195 195 198 199 199 198 200 201 199 199 200 201 
197 193 189 189 191 195 195 191 190 191 196 196 198 198 208 213 216 219 220 
222 224 226 229 227 227 228 230 231 232 232 231 235 235 235 238 241 246 246 
245 242 249 249 248 245 242 242 242 237 233 232 233 233 235 235 234 233 227 
221 219 210 210 209 207 206 199 201 195 189 188 190 193 195 196 195 196 195 
198 196 197 196 195 192 190 189 192 195 193 192 190 192 194 193 195 202 211 
214 217 219 219 223 227 230 233 231 230 229 230 232 230 233 234 234 236 238 
243 247 249 252 252 251 253 251 250 247 246 243 240 239 235 235 232 233 233 
232 232 230 223 221 217 215 213 210 206 204 199 197 196 191 191 192 195 196 
194 194 192 193 193 191 190 196 198 196 193 192 196 197 196 192 194 193 195 
197 202 206 213 211 211 213 212 217 224 227 227 228 232 233 234 234 229 229 
226 228 234 236 241 244 247 252 254 253 249 250 250 248 246 245 244 241 236 
235 233 234 232 231 231 229 225 224 218 216 209 206 204 204 201 199 200 200 
200 201 200 201 198 194 194 193 191 191 189 194 195 193 192 192 197 196 193 
189 190 189 194 195 198 203 205 209 209 208 210 215 219 220 220 224 229 231 
232 233 232 234 238 243 244 243 247 248 248 251 252 251 253 254 251 250 252 
251 249 245 240 236 234 235 232 226 227 228 226 226 216 216 215 211 208 204 
201 202 202 203 200 202 202 199 196 192 191 189 191 191 189 193 192 190 192 
192 195 194 188 187 187 182 189 191 195 204 203 206 207 208 207 210 213 215 
215 220 225 226 227 228 229 230 233 240 242 246 248 248 251 252 251 251 249 
250 249 248 250 250 249 246 243 243 236 235 227 221 222 224 221 218 217 216 
212 207 204 201 200 201 203 204 204 203 202 198 194 191 188 188 187 186 187 
190 191 190 190 191 192 193 190 189 187 188 196 198 203 208 205 206 207 209 
210 212 213 213 214 219 222 225 228 230 229 230 234 239 242 246 248 250 250 
250 252 252 244 244 245 244 244 244 244 243 242 239 236 234 229 224 223 222 
220 222 223 217 211 210 207 205 203 203 202 202 202 200 197 197 197 192 191 
189 184 182 180 183 182 184 187 187 193 198 198 198 193 192 197 202 204 204 
203 203 205 207 212 215 219 223 223 225 225 227 228 229 231 231 234 236 238 
242 243 249 250 251 254 255 246 245 242 242 242 242 242 242 242 238 235 234 
233 229 228 226 223 220 219 214 210 207 208 206 204 203 201 199 196 194 191 
191 192 192 192 190 183 181 175 177 178 178 183 189 195 200 202 201 195 192 
197 201 205 206 205 208 210 210 215 220 223 222 222 224 222 222 221 222 226 
231 234 235 236 237 242 247 251 252 252 253 247 248 246 245 243 244 243 245 
241 236 232 233 234 232 230 229 225 221 218 212 209 206 204 203 205 203 201 
197 193 192 191 190 192 192 191 190 185 184 177 178 177 180 180 184 186 190 
194 194 193 193 196 203 203 206 206 206 208 211 215 221 223 221 218 217 219 
218 220 221 226 232 234 237 238 240 242 245 246 249 251 250 249 249 245 241 
240 244 241 240 233 229 232 235 236 235 233 229 225 222 220 211 208 209 205 
205 206 206 204 199 194 196 193 190 190 187 187 186 185 185 182 179 180 181 
183 185 186 188 187 191 193 199 199 200 200 204 207 206 205 207 212 214 214 
218 218 219 222 224 226 228 232 234 237 236 238 240 241 242 244 246 247 247 
250 251 247 241 242 245 245 243 238 237 236 233 232 231 231 228 226 223 222 
217 215 208 207 205 206 205 204 202 199 200 196 191 187 184 183 180 181 183 
183 182 182 182 180 181 181 187 189 190 195 199 198 198 196 199 203 200 199 
204 211 214 213 220 222 222 223 224 225 229 233 238 240 237 240 238 239 242 
246 248 248 249 248 248 248 239 239 241 241 239 237 234 233 231 231 231 230 
226 225 223 220 216 214 211 207 208 209 209 209 209 204 203 199 191 185 184 
183 180 180 181 185 186 183 183 183 184 184 188 188 193 196 197 193 190 188 
193 206 206 206 210 214 215 217 223 223 223 221 222 223 227 228 231 235 237 
240 240 243 246 248 248 245 246 247 246 246 238 236 238 241 240 239 235 233 
229 226 222 219 221 221 219 213 209 209 205 208 211 213 211 209 206 201 192 
191 187 185 186 184 184 183 182 183 184 183 184 187 188 188 191 193 195 195 
197 192 196 194 196 205 204 209 211 212 216 215 214 214 218 219 222 223 225 
227 230 230 230 235 240 244 247 248 248 246 246 243 248 248 244 243 242 246 
242 240 237 231 226 220 217 215 217 218 219 216 211 209 206 207 207 206 206 
204 205 202 196 193 189 187 184 182 183 183 183 182 180 179 180 182 187 189 
189 191 194 195 192 192 197 198 200 205 208 212 213 213 214 214 215 216 219 
223 225 226 226 229 232 233 235 237 240 242 245 247 248 247 246 250 252 252 
247 247 247 245 241 239 233 226 222 216 216 219 221 220 221 219 216 214 214 
211 208 208 210 210 209 205 201 198 194 191 186 188 187 185 185 182 179 177 
180 183 190 193 195 193 193 197 198 199 198 196 192 197 199 203 210 215 215 
217 217 218 220 223 227 229 229 232 236 241 244 246 249 249 249 248 248 248 
249 247 248 248 249 249 252 249 243 238 234 228 227 223 221 220 222 224 225 
224 219 214 213 208 203 206 206 208 206 207 204 200 195 191 191 192 191 188 
187 182 178 175 178 179 184 191 195 197 194 197 199 201 199 196 194 193 196 
198 209 217 220 224 223 221 221 224 226 229 232 233 237 240 244 246 249 245 
250 249 248 249 248 246 246 242 243 246 249 245 242 235 237 233 229 226 224 
224 224 223 224 223 218 213 212 209 207 209 208 207 206 206 205 200 195 192 
192 191 189 187 187 183 181 181 186 189 193 197 199 204 203 206 211 210 209 
208 206 203 204 204 210 216 219 220 219 221 224 226 230 231 234 235 236 240 
245 244 249 249 252 253 254 253 254 242 244 246 246 246 248 247 241 238 234 
231 230 228 226 223 222 223 222 220 216 211 206 207 208 210 209 207 204 202 
202 197 193 193 191 191 187 185 184 183 184 185 190 192 191 198 200 202 198 
196 199 200 202 205 208 207 211 214 213 212 213 214 218 220 223 225 229 231 
233 235 236 237 240 241 247 248 245 249 251 251 252 244 246 249 248 246 244 
242 238 235 230 227 225 223 223 222 223 222 225 215 213 215 212 212 216 217 
213 211 207 200 199 195 191 190 190 190 188 184 185 190 189 187 195 196 193 
200 199 197 195 193 192 194 197 202 209 214 218 217 212 212 214 213 219 223 
224 223 226 225 232 235 235 237 240 241 246 247 245 246 244 247 246 245 244 
245 243 242 240 235 236 236 233 231 226 224 222 220 218 218 218 212 210 211 
213 214 218 217 214 210 207 202 200 194 192 189 190 190 189 186 187 188 189 
193 196 195 194 194 197 196 195 193 190 193 197 204 208 212 215 215 213 213 
214 215 219 223 226 227 227 229 234 237 236 235 236 238 245 251 249 249 247 
246 245 244 243 243 243 244 245 244 244 240 237 235 228 222 219 217 217 216 
216 215 214 213 213 212 212 211 209 208 208 204 197 188 188 187 185 186 187 
187 186 186 188 192 195 194 191 191 194 195 194 197 196 196 198 203 206 210 
211 210 208 210 211 217 223 224 226 227 225 225 228 231 230 230 236 239 245 
247 247 245 246 249 253 242 243 242 240 244 247 246 244 239 232 231 226 221 
218 214 215 216 219 220 218 218 216 213 210 206 207 207 207 201 195 190 190 
191 191 193 195 195 192 190 193 192 191 192 189 190 193 193 194 195 194 195 
199 204 205 209 208 205 206 211 212 222 225 225 227 229 228 227 229 232 231 
233 236 243 245 247 245 244 243 246 246 248 246 243 241 245 243 242 240 236 
231 229 228 221 217 214 210 211 214 216 216 216 218 215 211 208 205 206 205 
198 194 195 196 200 202 202 198 197 195 194 193 192 187 189 188 191 194 196 
195 196 195 197 202 207 209 210 208 205 207 216 220 227 227 228 229 230 224 
224 225 226 229 233 239 245 242 244 245 245 246 245 240 252 253 250 252 250 
246 245 239 235 231 228 226 223 222 220 218 214 213 211 207 205 209 209 206 
206 202 201 201 195 194 192 194 195 198 200 197 197 196 198 197 194 188 184 
189 194 197 197 193 194 198 198 205 207 208 209 205 208 209 212 218 223 223 
222 224 225 223 221 218 226 229 231 236 240 246 247 250 249 251 250 250 252 
253 252 251 251 248 242 237 235 232 229 226 222 223 222 218 216 215 211 208 
207 206 206 203 203 202 203 200 197 195 192 190 191 196 200 197 196 194 196 
196 195 195 196 195 197 201 198 198 196 201 204 207 208 208 207 203 204 206 
208 214 215 218 217 215 220 220 219 224 229 230 232 233 237 242 247 248 248 
248 248 247 251 253 252 250 247 244 242 239 239 235 230 224 223 227 221 215 
215 213 208 203 203 206 205 201 198 198 201 202 202 201 201 197 198 201 201 
198 199 197 200 203 206 206 202 200 200 202 201 201 195 201 202 204 207 207 
204 205 204 206 206 209 213 216 215 217 221 223 222 223 226 228 230 239 240 
244 249 252 248 244 238 231 248 250 251 253 252 251 250 244 243 241 233 228 
227 226 222 217 215 213 211 207 209 210 208 203 201 200 202 204 204 204 202 
199 198 197 194 193 195 193 199 203 206 205 203 200 201 204 203 201 197 198 
200 203 208 205 205 208 208 211 212 213 216 218 223 226 229 229 224 225 221 
224 223 228 233 237 244 245 242 241 237 236 254 253 254 254 255 254 251 244 
243 241 237 232 227 224 219 217 216 216 217 213 212 212 212 207 205 204 209 
212 213 211 209 201 200 196 198 195 195 200 202 208 213 213 208 204 201 200 
202 201 198 200 199 202 202 204 204 207 209 211 216 216 219 220 222 226 231 
234 230 228 226 227 226 227 232 236 238 243 245 248 248 249 254 254 255 254 
254 250 248 240 239 236 233 229 227 224 223 221 222 220 218 216 214 211 211 
208 205 209 213 214 214 214 208 203 203 204 203 202 205 209 212 214 217 222 
222 215 213 210 208 207 206 204 205 207 210 213 213 209 209 212 217 216 219 
218 219 220 224 229 229 228 228 229 231 230 231 237 242 248 250 252 254 255 
254 254 255 255 253 249 246 240 239 236 234 231 228 226 222 218 220 220 221 
221 220 216 215 214 213 210 213 214 215 215 208 204 203 202 202 205 208 212 
213 218 217 225 223 220 218 214 214 213 210 209 205 206 207 211 212 210 212 
212 216 218 220 218 220 221 225 229 227 226 227 232 236 238 239 241 246 249 
253 254 253 251 253 253 255 255 254 248 245 242 240 236 234 231 228 225 223 
219 217 219 217 224 224 225 221 218 217 217 218 217 215 211 206 203 204 205 
208 207 208 212 215 216 214 215 213 211 209 210 211 210 208 208 207 208 211 
213 214 213 208 204 210 219 220 222 222 221 226 229 227 230 232 234 238 239 
242 243 245 249 254 254 254 255 255 255 255 252 250 244 243 240 236 234 232 
229 227 224 225 223 220 220 222 220 219 221 223 220 225 223 218 216 216 214 
209 209 211 213 212 214 217 215 216 215 214 216 215 213 215 214 215 214 211 
210 211 210 210 211 214 211 211 211 213 219 218 220 220 218 221 228 229 229 
235 239 237 237 239 242 247 247 251 252 253 254 255 253 254 253 250 247 246 
240 240 234 229 227 227 225 225 222 218 215 219 214 215 219 218 217 225 225 
222 219 218 215 212 214 217 218 214 215 215 212 213 213 216 214 215 214 215 
216 217 219 219 219 218 210 210 217 218 216 217 218 221 222 222 220 221 221 
225 227 227 228 230 233 237 240 243 244 242 240 244 247 248 249 254 255 253 
251 247 241 237 234 233 231 227 226 225 224 226 225 224 220 220 219 221 221 
222 222 221 222 221 221 220 216 217 216 217 219 220 220 218 217 215 215 217 
218 217 215 219 220 218 218 220 223 224 219 216 217 216 218 220 219 219 221 
220 219 219 222 222 226 226 228 230 233 238 241 243 243 238 240 242 246 249 
250 253 250 248 249 246 241 239 231 227 228 229 228 226 226 226 224 221 220 
218 218 222 224 223 222 221 225 227 226 224 222 224 222 222 223 225 223 220 
217 217 215 216 216 215 217 219 218 216 218 218 224 225 222 220 219 220 222 
222 222 222 224 220 219 219 220 224 225 229 233 234 232 231 234 237 239 237 
240 240 243 245 247 249 249 247 244 241 241 238 232 229 228 228 226 225 227 
228 229 228 226 227 230 231 229 224 221 226 228 228 228 226 225 224 221 220 
226 229 229 224 221 220 218 217 219 220 221 221 219 215 217 220 223 222 224 
223 225 225 226 224 228 230 226 222 221 224 224 227 229 233 237 236 234 231 
232 231 234 237 240 240 240 237 235 249 247 244 242 240 240 238 234 232 230 
229 227 228 230 228 228 229 229 231 233 234 233 231 231 235 234 231 228 226 
223 221 220 223 227 226 227 226 224 221 219 222 224 224 224 225 222 217 218 
218 217 220 221 222 224 226 225 225 227 228 229 224 223 225 226 226 227 232 
236 235 233 232 234 235 235 237 240 238 237 236 235 248 249 246 242 240 240 
239 236 235 234 231 226 229 230 228 226 227 231 232 233 232 233 234 233 234 
231 229 230 228 227 226 228 229 228 229 231 229 229 224 223 223 221 223 224 
222 220 219 219 221 223 224 227 225 228 226 228 226 227 227 229 224 224 228 
229 233 235 237 238 235 233 234 237 237 239 241 243 243 244 243 242 253 251 
248 244 241 239 238 236 236 234 228 222 226 228 229 230 230 234 232 232 230 
230 230 231 230 230 228 227 228 227 226 224 226 225 229 229 232 228 226 223 
220 218 223 224 224 225 224 220 221 222 225 225 223 226 224 225 227 226 227 
229 226 226 229 230 235 239 239 240 239 236 235 233 233 238 243 246 246 248 
249 248 255 252 249 243 241 242 241 240 238 235 229 227 228 229 232 231 232 
234 233 234 228 228 228 231 234 234 229 227 228 228 224 222 221 223 225 223 
225 228 231 232 228 222 223 227 226 222 222 224 227 229 231 232 232 231 228 
226 222 220 225 229 227 227 228 233 234 238 237 235 237 236 237 236 238 243 
247 247 251 250 252 254 250 250 247 242 239 241 242 241 238 233 230 230 233 
235 235 234 236 236 231 231 228 230 231 233 235 234 231 231 231 231 229 227 
226 229 228 227 228 230 231 232 234 233 227 229 228 226 226 225 227 226 229 
232 234 233 231 228 223 223 226 229 232 231 230 232 233 234 236 238 239 238 
239 242 241 243 248 248 249 249 250 247 250 249 246 245 244 242 241 237 236 
232 230 233 234 235 234 235 235 234 229 233 233 231 236 239 235 238 235 233 
232 236 236 236 235 233 228 226 230 232 233 233 233 232 228 229 228 228 227 
226 229 228 230 234 238 236 238 233 226 226 229 231 233 231 231 234 234 234 
234 234 233 235 235 238 239 242 246 249 249 250 250 249 246 246 246 245 242 
241 237 235 234 236 234 237 236 235 233 233 234 234 234 236 236 235 236 237 
236 237 235 237 237 241 243 245 243 241 235 234 234 233 233 234 234 232 230 
230 229 228 226 226 227 224 229 234 238 237 237 236 232 230 231 231 236 236 
237 237 234 233 233 233 235 234 236 238 238 241 245 249 251 252 252 252 239 
242 243 245 245 244 242 240 238 239 237 236 235 234 233 235 235 235 235 237 
239 237 239 239 238 236 235 233 234 236 241 245 246 243 241 240 237 233 233 
232 236 236 235 237 237 238 234 233 233 231 227 229 232 235 239 242 239 236 
234 233 236 236 239 238 235 234 234 236 238 238 240 242 241 243 245 248 250 
251 253 252 242 242 242 242 244 243 242 242 239 239 238 237 238 236 233 233 
234 236 238 238 239 240 242 241 239 237 236 232 232 236 241 244 244 243 242 
238 234 234 233 234 237 237 237 238 241 240 238 239 237 237 235 233 234 235 
239 242 241 241 238 238 238 237 238 240 236 235 239 243 243 242 241 240 240 
241 242 247 247 251 251 251 240 239 238 240 244 244 243 240 236 238 238 241 
240 239 234 230 235 237 239 238 240 239 238 238 235 234 234 233 230 235 239 
242 243 241 237 237 236 237 236 234 237 236 237 240 243 243 239 239 237 240 
238 236 237 240 241 240 242 243 241 242 241 239 237 236 234 234 238 242 242 
243 242 240 242 248 249 254 253 255 252 251 242 239 238 242 246 247 246 240 
239 240 240 240 242 238 234 227 232 237 238 240 241 241 242 241 237 236 234 
232 233 235 236 238 241 240 239 239 238 238 238 237 239 240 242 246 245 246 
245 247 243 241 241 240 241 240 240 240 242 244 245 242 238 235 235 239 237 
239 243 243 242 240 240 242 242 248 249 252 251 253 248 249 248 245 241 240 
243 248 250 247 244 242 243 240 237 231 234 235 239 239 242 242 242 242 240 
239 237 235 233 233 236 237 234 240 246 245 242 239 239 239 240 243 244 246 
248 249 248 248 250 248 245 240 239 240 240 241 244 245 249 248 249 245 240 
241 240 239 241 243 246 246 243 240 243 246 248 249 253 255 255 254 251 253 
251 249 246 244 246 247 246 244 244 244 246 247 244 240 243 244 244 241 243 
245 243 241 241 239 238 235 234 239 241 239 236 238 245 245 244 241 239 239 
241 244 247 249 249 249 247 248 248 246 244 242 240 240 242 244 247 248 249 
250 252 247 245 244 244 241 245 248 251 249 246 242 245 248 253 252 254 255 
254 251 248 247 253 251 248 248 250 249 249 247 247 249 251 253 253 249 251 
250 249 250 247 244 244 245 245 244 243 239 240 242 242 241 242 243 245 248 
246 242 240 238 238 241 246 249 251 251 249 251 249 246 244 242 242 241 244 
249 252 252 250 248 247 244 243 244 243 242 245 249 251 249 248 245 247 248 
251 251 252 253 252 248 245 246 254 254 250 245 244 244 242 243 244 247 250 
252 253 254 254 254 251 251 250 249 246 246 244 244 245 242 240 242 242 243 
245 245 247 249 251 251 250 250 251 250 252 253 255 255 253 251 246 246 249 
249 250 249 250 252 251 249 246 243 243 240 238 236 238 235 245 250 250 251 
251 249 250 250 252 253 253 252 250 248 247 249 255 255 251 248 244 240 239 
240 242 243 245 246 250 252 253 251 247 247 248 249 248 248 246 243 241 238 
239 241 242 243 247 249 250 253 254 255 252 250 249 253 255 254 254 255 254 
253 252 252 252 253 255 254 254 254 253 250 246 240 234 236 237 236 236 238 
245 248 249 250 250 253 253 255 255 255 255 252 251 249 249 248 
