P2
#output from hocrtest
40 40
255
248 246 253 248 255 254 250 247 247 246 253 255 255 253 251 249 243 244 238 
226 241 245 238 254 251 255 255 252 255 255 253 251 255 252 255 255 255 255 
254 255 250 251 255 255 255 253 249 247 248 248 250 252 254 251 250 251 245 
242 241 235 242 246 247 255 255 255 254 255 255 253 252 251 255 252 254 254 
255 255 255 255 253 255 255 255 253 249 247 244 247 249 252 254 254 254 251 
249 245 238 239 240 244 247 251 255 255 255 255 255 255 250 250 248 249 249 
250 251 253 255 255 254 253 255 255 252 245 247 246 244 246 248 250 248 246 
245 248 244 240 236 235 238 242 246 251 255 255 255 254 253 247 244 246 246 
245 242 244 246 250 254 254 254 251 253 255 251 243 239 238 241 243 245 248 
243 246 248 249 247 245 245 246 249 248 249 250 250 250 250 251 251 245 241 
240 240 243 240 240 242 247 253 254 255 254 255 253 249 242 239 239 241 242 
243 245 244 246 246 245 245 245 248 252 250 252 249 251 249 248 246 242 242 
238 236 238 237 242 242 239 238 243 245 250 252 255 255 251 246 242 241 241 
240 241 240 242 241 245 248 247 242 243 242 245 246 248 248 245 243 245 242 
240 239 237 236 238 239 243 241 242 243 245 247 248 250 254 255 254 251 249 
246 238 238 239 243 247 249 247 250 250 248 244 243 244 244 245 244 239 240 
246 244 244 239 236 233 235 236 243 241 245 246 242 245 247 245 249 253 255 
252 249 246 241 241 240 243 247 248 250 249 245 242 239 235 235 234 235 238 
234 233 234 235 237 236 237 242 241 245 247 249 248 249 242 241 242 242 251 
255 255 250 245 245 242 239 239 242 248 245 240 235 231 229 228 228 228 232 
230 230 231 232 232 233 236 237 241 247 247 246 243 245 243 247 246 237 238 
241 253 254 254 249 242 240 234 236 237 240 242 243 242 237 229 226 225 222 
227 232 234 231 232 230 229 226 229 232 235 246 249 247 247 245 247 251 250 
242 250 253 253 251 250 247 242 242 239 239 239 241 244 244 246 237 232 233 
231 227 229 234 236 235 237 230 226 223 227 226 229 238 243 244 246 241 241 
245 247 245 246 247 253 253 253 251 248 244 240 241 245 248 250 245 244 238 
234 238 233 229 228 230 231 232 230 224 220 223 224 224 229 235 237 237 240 
241 237 240 241 239 239 242 249 251 255 252 249 246 245 246 248 250 248 242 
242 233 238 239 230 228 228 228 229 230 225 225 225 226 225 228 233 233 235 
238 237 236 235 236 236 234 236 238 250 252 252 249 248 243 243 245 244 244 
243 240 235 235 237 235 230 230 231 230 229 230 229 230 230 230 223 222 227 
232 239 240 236 231 233 231 230 233 235 234 249 252 251 249 252 251 248 246 
245 240 239 236 235 234 235 230 228 228 229 228 229 228 229 229 228 227 227 
227 228 231 237 242 241 239 237 238 236 236 240 241 252 253 253 255 255 250 
244 241 238 236 235 233 232 231 234 230 227 225 229 227 227 224 221 220 217 
222 224 226 228 229 233 234 238 239 238 238 240 242 242 244 254 255 253 251 
253 254 249 244 239 236 233 228 228 230 231 227 228 227 227 224 225 225 223 
223 221 223 220 220 227 228 227 235 240 238 239 241 242 245 244 245 255 255 
253 253 254 253 249 243 240 235 231 228 226 230 230 228 227 225 224 222 222 
222 217 222 226 225 223 224 225 229 233 235 236 238 237 241 239 243 247 246 
255 255 254 253 255 254 248 242 235 234 228 231 229 228 221 222 221 225 221 
222 217 217 216 219 222 221 219 223 226 232 237 237 235 233 234 237 240 245 
247 251 255 255 254 255 255 252 246 241 238 234 232 232 225 223 222 223 222 
221 218 221 215 216 218 221 225 226 228 231 234 236 235 237 238 234 233 239 
242 246 247 245 255 255 253 255 255 252 246 238 233 233 234 233 228 225 225 
223 223 217 217 214 212 216 215 220 224 229 229 230 230 233 238 238 241 241 
238 242 246 251 254 255 254 253 252 253 254 252 246 240 231 229 227 227 229 
229 224 223 220 218 218 217 217 218 218 216 224 231 234 236 240 244 243 239 
236 237 237 241 245 250 254 255 251 250 250 251 252 249 244 239 234 232 226 
226 225 223 222 216 217 216 219 218 220 221 222 223 229 235 235 238 238 239 
236 233 232 236 236 238 242 250 253 255 248 247 248 249 249 247 242 243 238 
233 226 222 218 222 226 222 221 221 222 222 225 226 226 229 232 232 233 237 
239 239 237 233 231 238 240 242 244 246 250 249 245 245 244 244 245 243 235 
237 236 235 221 225 225 224 223 220 222 223 222 222 220 223 226 229 230 228 
233 239 239 240 239 239 236 239 238 238 242 243 242 245 252 251 248 249 249 
248 241 238 238 234 227 227 227 227 225 221 216 219 220 219 218 224 226 229 
231 228 230 236 236 240 236 235 237 240 239 239 240 244 243 244 255 255 255 
251 251 250 245 237 229 228 227 229 231 229 232 228 222 222 221 217 218 223 
226 232 232 227 229 229 232 232 232 235 238 238 238 238 240 242 243 244 255 
255 255 254 252 253 249 244 239 235 229 232 231 234 233 231 228 226 224 220 
217 219 230 233 232 232 239 231 230 230 233 236 242 241 243 244 246 248 248 
249 252 255 255 253 252 249 246 243 238 233 228 234 235 235 236 234 230 229 
229 231 231 227 226 231 236 242 248 241 233 226 235 240 244 249 247 248 249 
249 250 250 247 245 245 246 248 246 244 240 237 238 234 239 240 238 238 239 
235 232 235 238 239 237 236 237 243 249 248 245 239 233 235 236 244 249 250 
255 255 255 255 255 248 245 241 244 244 241 238 236 237 235 234 234 238 236 
235 239 236 236 235 238 241 243 241 241 244 247 245 238 237 238 242 245 251 
253 253 252 251 252 253 254 253 250 250 251 245 242 241 239 237 235 233 238 
241 238 237 239 239 241 243 242 243 244 240 240 241 242 240 237 236 240 245 
245 246 250 252 251 248 247 248 247 255 255 253 255 251 246 247 245 247 247 
249 251 249 247 246 248 245 247 249 249 249 247 244 244 240 239 238 236 238 
242 248 245 248 249 253 255 255 255 254 255 252 251 249 248 244 244 249 248 
250 252 255 252 250 245 246 252 252 246 245 242 247 245 242 244 241 238 242 
238 237 240 244 241 244 246 250 255 254 255 255 255 247 245 242 239 235 234 
236 239 249 255 255 255 252 252 252 254 251 248 245 245 245 247 248 250 251 
244 245 243 241 247 246 242 245 249 252 253 253 255 255 255 245 241 241 238 
233 239 239 240 248 252 255 255 255 254 255 252 250 246 245 248 245 247 248 
250 246 247 247 245 246 250 248 246 248 253 253 255 255 255 255 255 242 242 
244 246 245 243 244 246 249 249 253 255 255 255 255 255 251 248 243 245 244 
246 248 252 249 244 242 245 247 249 252 248 250 250 251 254 254 255 255 255 
246 247 250 249 252 250 245 248 251 254 255 255 255 254 254 250 246 244 245 
248 250 249 251 253 251 243 245 246 247 247 246 244 244 246 246 247 247 250 
252 255 246 250 251 251 252 253 250 248 246 250 253 254 253 251 250 248 246 
242 246 250 254 251 249 249 247 249 244 241 244 240 237 238 236 240 242 245 
246 246 242 240 
