P2
#output from hocrtest
30 30
255
253 246 255 250 255 255 255 254 255 255 255 255 255 255 255 253 247 245 238 
228 244 249 235 251 246 255 255 251 253 255 255 252 255 253 255 255 255 254 
255 254 251 251 254 255 255 253 249 245 243 240 249 255 251 251 249 255 255 
253 251 247 255 255 255 252 253 254 253 251 250 247 244 244 247 251 253 254 
252 251 251 250 251 255 255 255 253 255 253 248 247 249 255 255 255 255 254 
255 255 248 249 246 243 241 243 249 250 250 251 251 248 247 248 251 251 252 
253 254 252 246 243 244 255 255 255 255 251 252 248 251 252 251 248 245 244 
251 246 244 242 240 237 242 244 249 252 253 253 253 255 255 255 251 255 255 
254 255 251 251 252 251 248 247 246 243 242 244 239 236 233 237 239 242 244 
244 249 249 240 244 249 249 254 255 252 250 244 240 238 244 248 251 247 248 
247 237 238 238 240 240 243 240 237 241 243 243 245 244 240 238 241 247 255 
255 253 250 247 243 242 243 242 241 236 230 233 229 237 238 236 239 238 232 
230 237 243 241 244 242 241 237 238 242 242 243 254 253 250 246 245 249 245 
240 232 232 236 234 238 240 241 238 242 235 234 239 244 246 246 249 244 246 
243 243 243 243 255 252 251 250 253 252 251 248 238 236 241 247 242 244 247 
250 239 232 232 235 242 244 249 254 252 250 244 241 240 236 255 251 250 248 
249 248 247 245 243 240 241 238 234 234 234 231 224 216 225 228 237 244 254 
255 254 253 244 245 244 244 255 255 253 251 247 244 242 239 238 229 230 225 
230 223 231 230 228 224 220 226 227 236 245 253 255 250 244 242 243 243 254 
255 254 250 242 242 237 235 237 235 240 233 228 226 229 231 232 228 225 230 
230 237 246 249 249 249 244 242 241 242 255 254 251 252 243 239 233 223 224 
243 244 240 234 231 230 230 230 228 230 234 239 243 251 246 242 244 238 240 
249 249 254 252 252 250 247 240 233 226 230 239 248 241 234 231 231 232 234 
229 232 236 238 239 248 245 245 244 240 245 247 248 254 249 250 248 248 243 
240 230 227 244 244 242 234 234 230 227 232 230 228 232 238 242 247 247 238 
238 236 242 249 251 248 244 249 250 245 242 238 232 234 240 241 240 237 238 
227 225 231 229 230 238 243 244 244 243 235 237 237 242 242 246 250 250 254 
249 244 242 237 234 234 234 235 236 232 231 227 226 233 234 234 240 244 245 
247 250 251 244 241 240 239 237 251 254 251 248 250 241 235 236 236 235 236 
234 229 229 230 231 231 232 230 238 244 248 244 247 246 243 237 241 246 245 
253 255 255 247 249 249 243 243 242 240 237 239 236 234 232 232 229 233 236 
243 248 248 243 242 238 239 235 242 244 242 252 255 255 250 250 250 251 250 
246 244 243 240 242 239 238 234 232 229 230 233 250 247 244 242 244 242 245 
249 250 248 252 251 251 247 246 247 244 243 246 247 245 242 241 242 237 232 
227 224 228 244 249 242 235 232 240 243 247 255 255 255 252 250 250 249 245 
245 246 245 244 242 241 239 239 239 236 232 231 229 228 241 249 237 229 229 
240 246 248 253 253 255 252 251 252 250 251 250 248 247 248 245 244 241 244 
242 241 240 234 230 230 235 235 234 232 232 241 245 243 246 243 240 255 255 
255 255 255 254 252 248 252 248 247 243 243 244 248 247 247 243 240 239 238 
238 232 230 240 243 246 250 248 248 255 255 253 255 252 252 248 247 248 246 
248 244 242 244 249 250 247 244 239 241 240 242 243 244 245 247 252 255 255 
255 255 255 253 255 255 247 246 242 244 243 249 250 248 243 245 246 253 251 
248 249 251 246 245 245 248 254 255 255 253 252 252 254 255 254 255 250 254 
246 242 246 254 255 255 252 254 254 252 250 247 250 245 246 245 242 243 249 
248 247 247 242 254 255 255 255 255 254 251 250 245 251 255 255 255 254 255 
255 252 247 247 251 250 254 252 249 248 249 247 246 244 241 255 255 255 255 
254 253 251 249 247 250 254 255 255 255 253 253 252 247 245 250 250 253 255 
253 252 252 253 250 247 242 
