P2
#output from hocrtest
20 20
255
255 242 248 246 252 255 255 253 251 255 255 255 255 255 255 255 255 253 237 
211 251 246 248 251 253 255 255 255 251 253 254 252 254 255 255 255 255 255 
250 248 254 255 255 255 255 252 250 249 249 244 241 240 242 241 243 247 250 
248 244 240 255 255 255 252 254 255 255 250 248 245 240 238 238 241 249 248 
250 248 251 255 255 255 255 255 254 255 255 253 255 248 240 240 241 247 252 
249 244 240 243 244 253 254 255 254 251 251 252 255 255 255 245 244 245 251 
254 248 241 243 243 246 255 255 255 252 245 242 241 238 244 249 248 251 249 
250 255 248 242 238 236 234 254 255 255 248 244 241 236 236 238 231 239 248 
255 252 254 254 253 253 251 250 252 253 255 251 240 235 233 235 234 234 236 
241 244 244 246 255 255 255 254 255 255 254 253 249 243 233 237 240 241 240 
237 235 239 239 246 248 253 255 254 255 255 254 250 243 239 236 237 239 240 
241 238 237 239 240 241 245 246 248 246 244 255 255 253 251 248 242 234 231 
227 231 237 238 243 243 243 240 241 248 248 248 255 255 252 246 244 247 240 
233 225 225 230 233 240 242 248 248 251 251 255 255 255 255 254 253 252 252 
244 237 234 233 239 239 239 242 248 253 255 255 254 255 255 255 255 253 252 
250 245 238 241 240 243 238 242 243 249 255 254 254 253 252 253 253 254 255 
255 252 252 249 247 250 255 245 249 251 252 254 251 250 247 248 250 255 255 
255 255 255 255 255 254 255 255 254 254 254 252 251 247 245 245 244 246 250 
247 241 250 248 252 251 248 251 248 252 251 251 250 248 248 243 234 236 252 
253 255 251 250 255 255 253 249 251 252 250 244 245 246 247 246 241 241 250 
248 252 253 252 255 255 253 249 252 255 253 245 241 241 239 244 245 241 241 
247 
