P2
#output from hocrtest
30 30
255
255 248 255 255 255 255 255 252 253 255 241 242 248 252 255 248 247 247 237 
228 237 245 239 250 243 255 254 253 253 255 255 252 255 255 255 255 255 253 
251 251 242 240 243 248 250 247 247 246 241 239 240 246 246 246 248 255 254 
252 250 246 255 254 255 252 255 255 255 248 250 247 241 239 241 242 250 250 
250 252 250 250 248 252 254 253 253 255 254 250 250 252 255 255 255 254 254 
255 253 247 249 244 244 244 244 248 252 248 247 248 247 246 244 245 250 254 
254 255 251 249 250 250 255 255 255 252 249 249 250 248 255 251 248 250 248 
252 249 244 241 240 240 241 241 242 248 252 249 249 251 250 249 244 255 255 
251 247 249 249 250 250 253 251 249 247 247 248 244 241 241 239 242 240 241 
238 239 240 240 244 246 248 251 251 254 255 247 244 243 244 246 250 250 249 
248 242 248 245 242 242 242 248 247 244 245 243 239 234 234 236 241 244 249 
253 253 253 249 245 240 236 238 239 237 236 238 237 237 242 238 237 235 237 
236 239 243 241 242 244 242 238 239 244 242 245 251 251 249 249 242 239 236 
234 229 227 235 234 239 239 239 232 233 235 240 241 243 243 241 244 250 247 
244 245 244 244 250 249 249 250 247 244 241 236 234 228 238 242 240 242 237 
236 232 227 232 239 240 244 247 252 255 255 253 255 255 250 248 247 251 254 
251 246 241 234 233 232 233 232 235 231 228 225 221 220 225 230 232 241 246 
250 253 255 255 255 255 255 253 251 251 250 247 244 243 238 238 227 229 230 
228 221 223 222 221 219 222 228 229 235 240 252 253 252 254 254 255 255 253 
255 255 250 246 247 245 238 237 235 233 235 226 219 219 223 221 221 221 226 
229 233 240 253 250 250 252 248 250 255 255 252 245 240 238 242 244 238 238 
240 238 234 228 224 225 231 224 222 222 225 232 238 242 249 247 244 246 250 
253 255 255 252 250 246 242 239 240 241 241 238 235 232 223 222 224 225 222 
223 225 229 234 237 241 244 243 244 243 248 250 248 250 249 246 246 242 242 
241 239 239 243 233 229 230 226 226 221 223 226 222 226 235 236 237 240 239 
240 243 245 246 245 247 243 243 245 242 242 238 234 236 239 238 234 233 232 
229 230 229 229 228 231 233 235 238 239 239 238 239 237 239 240 241 238 237 
243 241 240 237 230 228 233 233 237 234 231 231 233 238 237 235 233 235 236 
235 236 240 237 237 236 237 235 243 243 243 246 242 237 240 239 238 237 239 
235 232 230 231 233 234 232 229 229 229 237 236 237 236 231 231 238 239 237 
249 251 253 250 247 242 242 243 244 243 244 241 237 236 237 238 235 234 235 
239 240 243 236 232 228 231 225 231 234 230 250 252 255 252 249 244 243 242 
242 241 241 241 239 244 245 239 236 236 238 244 245 245 240 236 238 237 241 
239 239 237 255 253 253 250 244 241 237 237 240 244 245 244 241 247 246 240 
234 232 236 242 244 241 236 238 245 246 246 247 249 249 253 248 247 243 237 
237 232 234 238 239 235 235 237 239 235 232 231 229 232 242 243 241 237 237 
247 252 255 251 252 252 251 248 246 246 243 240 239 237 238 237 236 234 238 
240 239 240 237 230 231 235 235 236 237 238 245 248 249 251 249 249 253 252 
249 251 252 252 253 252 250 245 242 239 241 241 243 244 244 240 236 236 235 
236 234 236 246 246 249 252 254 255 255 255 249 251 251 251 252 254 251 246 
245 242 242 244 249 251 253 245 241 239 240 238 239 240 241 244 249 255 255 
255 251 248 245 251 252 247 243 243 248 248 251 251 246 243 246 245 250 249 
246 246 247 245 244 244 245 248 250 251 250 248 255 255 251 251 251 248 247 
245 244 249 248 250 251 248 251 253 255 255 255 250 248 247 247 245 244 246 
246 245 246 243 255 255 255 255 255 253 251 248 246 248 246 247 246 245 253 
253 253 253 253 250 253 249 249 247 245 245 245 243 240 238 255 255 255 255 
255 255 253 252 253 252 251 249 247 250 252 250 248 249 249 249 248 249 250 
252 250 250 248 246 244 243 
