P2
#output from hocrtest
90 90
255
254 250 253 248 254 254 254 248 254 252 255 252 250 251 251 249 245 251 245 
236 243 243 236 254 250 255 252 249 253 253 253 250 255 252 249 255 251 252 
251 249 245 251 249 255 255 252 242 238 233 230 240 250 249 244 244 248 248 
248 248 235 250 253 255 246 253 254 248 251 253 251 246 246 251 247 249 247 
248 249 252 254 252 246 250 251 250 253 251 238 248 250 255 254 254 253 254 
254 253 247 251 250 250 249 248 250 251 249 246 250 249 248 247 246 246 254 
252 253 252 252 253 253 253 253 254 252 250 252 250 250 249 249 249 251 250 
254 253 248 238 235 231 234 242 248 249 249 248 246 245 247 248 244 250 253 
254 250 253 254 252 252 251 247 246 249 249 248 246 243 245 248 250 251 250 
244 247 248 247 250 250 245 248 248 255 255 255 255 255 254 255 251 253 251 
250 249 248 249 252 249 247 249 248 250 252 251 250 251 249 250 251 252 255 
253 253 252 252 250 248 248 247 248 248 246 249 248 251 250 249 246 238 236 
235 238 243 247 251 250 247 245 248 250 251 250 252 252 251 248 248 252 254 
251 248 246 244 243 242 240 242 243 247 250 252 252 251 249 250 251 251 251 
249 247 247 247 255 255 254 254 252 253 251 251 249 251 252 250 250 251 251 
247 244 241 243 246 249 249 251 253 252 250 248 252 253 251 251 247 245 246 
245 245 246 245 245 245 246 246 250 251 247 245 238 236 237 241 243 249 252 
255 252 249 247 249 253 254 253 250 252 250 249 251 252 249 249 244 243 244 
242 238 243 246 251 250 251 249 252 250 250 251 252 250 247 250 247 246 254 
254 252 250 247 248 249 247 246 247 247 246 243 242 240 240 239 237 236 241 
244 246 248 250 249 249 249 250 255 254 254 250 245 243 242 240 243 240 242 
245 247 250 254 252 248 247 241 240 238 243 247 252 254 251 245 241 241 242 
246 247 247 246 247 248 246 245 245 244 242 242 242 244 244 243 247 249 252 
252 253 252 252 248 248 249 250 253 252 253 252 250 251 252 251 248 245 245 
244 244 243 246 246 245 242 241 239 238 238 238 235 240 245 246 246 247 244 
244 243 248 250 249 250 247 245 243 242 238 240 240 245 247 249 249 250 250 
249 248 245 243 244 247 249 250 247 240 234 235 236 233 237 242 239 238 240 
240 239 240 239 236 236 237 240 244 246 247 247 250 252 252 251 250 249 244 
244 242 248 250 249 249 248 243 250 253 253 248 244 239 238 241 242 244 246 
245 244 243 243 244 240 241 239 242 246 246 242 243 243 241 238 243 243 244 
246 245 244 240 241 242 244 243 243 241 242 241 243 246 248 246 244 243 244 
248 247 246 242 239 236 234 231 231 234 234 233 234 235 235 241 241 241 241 
242 242 245 247 246 248 246 246 247 246 246 245 244 242 243 244 248 251 252 
250 247 245 252 252 251 246 242 240 237 236 241 244 244 245 245 246 246 244 
242 242 243 244 245 241 233 234 239 241 240 243 245 241 242 240 239 238 239 
241 242 243 242 241 238 238 238 238 240 240 241 239 240 243 244 244 239 239 
237 237 238 237 237 238 236 233 234 236 238 237 238 239 241 242 244 244 243 
241 239 237 236 235 239 241 238 238 243 244 250 253 252 251 247 243 252 252 
249 246 245 244 242 241 242 243 244 243 243 243 244 243 245 245 244 242 237 
235 229 229 234 237 238 240 239 238 238 238 238 240 241 242 241 239 239 236 
236 234 236 237 241 244 243 239 236 237 235 237 237 236 233 236 237 241 240 
240 237 235 234 234 235 234 233 235 236 237 240 240 237 234 232 229 232 231 
234 241 241 240 242 246 250 255 253 253 251 249 249 250 246 245 245 243 241 
240 240 242 242 242 240 240 242 242 243 243 243 241 235 231 231 229 231 235 
236 236 236 233 236 237 238 239 239 239 238 236 234 234 236 236 235 235 240 
243 243 240 239 239 234 234 232 231 230 233 234 234 233 232 236 235 236 237 
232 232 232 235 235 236 237 236 234 232 232 233 232 231 230 236 235 237 244 
246 250 253 251 252 251 249 252 251 247 246 245 246 245 241 241 241 239 237 
232 233 233 232 235 237 238 240 234 232 229 232 235 237 238 235 234 234 233 
234 233 234 233 230 231 229 231 232 233 235 235 235 237 240 239 238 237 237 
234 231 230 231 230 230 229 232 232 233 232 231 233 233 230 231 232 231 231 
231 231 233 232 233 234 232 230 233 233 235 236 237 242 246 249 248 249 251 
253 252 255 251 251 249 249 249 245 239 236 234 231 231 229 229 231 232 230 
232 233 232 228 234 232 232 231 234 234 234 231 233 225 228 228 230 230 229 
231 230 230 233 236 237 233 232 233 233 231 232 231 236 236 234 230 232 233 
231 227 229 231 230 228 229 231 232 231 230 229 227 227 230 228 231 231 232 
234 234 232 233 234 235 235 236 240 243 242 243 243 248 248 248 255 253 252 
252 250 247 244 239 234 231 227 229 225 225 230 232 230 231 231 229 228 232 
233 235 236 233 230 228 225 224 221 221 223 227 228 227 227 226 226 230 231 
233 229 229 231 233 233 232 232 235 234 232 232 231 232 232 227 227 225 227 
226 225 232 232 232 228 229 226 227 229 231 231 231 230 230 227 227 228 232 
235 232 235 238 243 244 244 246 249 246 242 254 255 255 254 251 245 243 240 
238 238 237 232 227 225 227 238 238 238 234 230 230 234 236 237 232 230 224 
225 224 222 219 218 222 225 225 226 228 224 222 225 224 227 228 230 231 233 
232 230 230 232 232 227 230 234 237 239 236 234 231 230 227 224 229 231 231 
230 230 229 227 229 228 227 227 229 229 225 226 226 232 234 233 231 233 237 
240 242 242 245 247 247 255 255 255 254 254 249 245 241 241 236 242 237 237 
237 239 239 242 236 233 233 232 234 232 231 227 225 223 222 221 219 215 217 
217 219 221 222 222 222 223 222 222 224 226 228 229 229 229 229 229 228 225 
223 226 227 227 229 226 224 226 228 230 230 229 229 230 228 229 230 230 230 
228 229 229 232 232 230 232 236 238 239 239 239 238 239 240 240 240 240 240 
241 255 255 252 253 252 250 248 244 245 242 242 239 235 232 233 238 242 233 
230 230 230 231 231 228 224 225 221 219 218 219 220 218 216 219 221 219 221 
218 217 221 223 224 227 227 228 230 227 229 230 228 226 225 221 216 213 212 
212 217 222 224 227 229 230 230 230 229 228 229 228 224 223 223 227 229 229 
226 229 234 234 237 237 238 240 241 243 244 248 250 249 250 254 254 252 249 
246 243 239 238 240 240 239 238 234 230 228 227 227 223 222 223 221 228 225 
221 219 220 218 218 220 222 224 225 227 226 226 226 226 222 222 222 223 223 
222 223 225 225 227 226 227 225 227 226 219 215 214 215 211 215 215 219 224 
222 225 230 228 226 224 223 223 221 219 216 220 221 222 223 227 233 234 236 
237 238 236 237 242 245 249 249 252 254 255 255 253 250 246 243 238 236 237 
240 239 235 232 231 227 225 224 219 216 214 214 217 215 218 219 219 217 216 
220 225 226 227 226 223 222 223 224 221 218 220 220 216 216 219 221 221 221 
223 227 226 224 221 217 214 212 215 215 214 213 214 216 217 219 221 223 228 
228 224 217 211 211 210 213 216 221 225 229 232 235 236 238 241 240 241 244 
246 250 252 253 254 255 255 254 250 248 247 242 242 243 244 239 235 233 233 
229 227 223 218 215 209 207 209 207 212 219 217 216 216 216 222 224 222 219 
218 217 215 217 220 221 225 225 222 219 221 222 220 220 222 224 222 220 218 
215 215 215 219 218 215 215 215 215 216 217 217 219 221 221 218 211 208 207 
205 209 213 220 223 224 229 234 238 237 238 238 240 241 244 247 248 249 249 
253 254 255 254 252 252 249 246 244 242 237 234 226 228 227 225 225 221 217 
210 208 206 209 209 213 215 214 213 213 218 219 213 212 214 212 210 213 216 
219 223 225 227 229 229 228 223 219 221 219 218 218 216 215 216 217 218 216 
215 215 214 218 220 218 214 215 217 218 217 214 208 205 208 212 215 220 225 
229 231 233 237 237 237 238 242 246 249 249 248 246 248 249 252 252 252 251 
252 251 246 240 236 235 234 231 230 228 223 222 222 220 218 216 211 212 213 
216 219 217 216 217 216 217 217 217 216 212 210 213 212 215 215 217 224 226 
230 229 225 220 219 217 213 213 213 212 214 219 222 220 222 223 221 221 221 
219 218 217 216 215 217 215 214 215 218 223 223 226 228 229 230 232 234 234 
238 242 245 250 249 246 248 247 247 254 254 252 251 251 252 252 247 242 237 
236 232 232 231 231 229 225 222 221 222 219 215 216 217 219 218 219 216 215 
215 218 219 216 216 212 210 210 210 211 209 211 215 220 223 226 221 216 213 
212 209 208 208 208 213 215 214 217 217 217 216 211 209 210 212 213 216 214 
211 211 214 216 217 219 217 219 226 230 233 236 238 237 238 242 246 253 252 
248 245 242 239 252 254 252 251 251 252 251 245 237 233 231 225 226 225 224 
224 223 221 221 223 221 219 221 220 219 218 217 215 214 215 215 216 215 214 
212 209 208 207 209 209 211 212 216 218 216 216 214 210 209 210 210 209 209 
213 213 211 209 208 208 206 208 209 207 206 210 214 214 213 211 214 217 217 
218 217 221 227 232 234 238 235 234 236 236 245 250 252 253 252 252 252 255 
254 251 249 248 250 250 248 243 239 233 230 228 224 224 224 220 219 218 219 
220 222 221 220 219 219 217 215 213 214 215 216 214 213 211 209 212 211 209 
209 209 207 208 211 211 211 212 206 209 206 203 202 204 208 210 209 208 204 
205 205 205 210 208 203 202 205 209 208 210 213 216 218 221 219 222 228 230 
234 236 235 238 237 237 239 243 247 249 252 251 251 255 251 246 246 246 249 
248 244 243 238 230 228 229 227 225 223 220 216 214 217 217 218 218 220 219 
219 215 216 217 214 209 209 208 208 209 211 212 210 211 209 207 205 202 203 
206 209 213 212 214 211 207 206 205 211 212 212 205 202 205 207 207 212 210 
206 199 200 203 206 208 210 212 215 219 219 223 227 229 230 234 236 237 238 
238 238 241 247 251 250 245 242 253 251 251 249 247 249 247 242 241 238 234 
232 231 230 225 224 222 215 214 215 215 214 212 211 212 212 207 209 209 208 
202 199 198 202 203 207 208 205 203 202 205 204 200 201 203 207 211 214 212 
210 211 210 209 209 211 210 207 203 202 201 201 204 203 201 198 201 204 206 
206 208 208 211 215 215 218 222 223 224 226 227 234 237 237 241 244 249 250 
249 244 236 249 248 249 249 246 248 244 236 234 233 234 234 236 230 227 223 
222 215 212 214 214 210 206 203 204 204 200 202 201 203 200 197 197 199 203 
208 210 208 207 203 201 201 201 202 203 203 205 208 206 209 208 207 208 210 
213 215 214 207 204 202 201 199 200 200 201 203 209 210 214 214 214 213 214 
216 217 220 219 224 226 233 238 240 241 242 245 248 249 247 246 244 248 246 
244 243 243 246 245 239 236 238 236 234 233 227 225 223 220 215 216 216 216 
213 211 209 207 205 202 201 195 200 202 203 203 203 204 205 206 208 202 201 
195 193 194 195 200 199 202 203 202 203 200 201 201 200 203 208 212 205 202 
201 200 200 200 202 202 206 210 213 213 213 211 211 212 215 217 219 221 227 
229 237 240 244 246 247 250 253 253 252 251 251 244 244 243 242 246 245 245 
240 238 235 235 234 230 226 222 223 216 213 214 214 215 212 213 213 213 211 
208 206 201 203 204 205 206 202 203 204 204 206 204 203 199 196 196 197 199 
198 199 199 197 196 194 195 197 196 200 203 204 203 200 201 201 201 201 202 
201 204 209 214 212 214 215 212 213 212 212 216 220 227 228 234 238 238 247 
249 252 252 249 246 241 236 239 236 234 241 245 244 243 241 238 238 238 236 
227 223 220 219 214 213 212 213 214 215 215 217 212 211 206 201 199 197 198 
198 200 199 198 202 204 207 206 201 198 196 194 192 194 197 193 191 192 191 
190 189 194 196 198 201 202 201 201 202 199 200 197 199 200 203 209 212 213 
215 217 215 215 215 216 218 219 224 224 229 238 246 249 248 251 252 251 249 
245 245 235 233 236 243 245 247 245 244 243 241 242 239 229 226 223 221 219 
215 212 210 211 210 210 210 207 205 204 200 200 199 199 196 191 189 191 192 
194 200 200 197 194 192 196 194 194 193 190 190 188 189 191 194 197 199 203 
204 200 197 195 197 195 198 197 197 202 207 215 216 217 218 221 218 219 218 
218 217 221 224 225 228 234 241 245 247 251 252 252 250 246 244 242 243 244 
247 248 247 244 242 242 242 245 240 230 228 225 224 221 217 216 212 212 210 
207 207 207 208 205 201 201 199 196 193 191 191 189 191 191 192 188 186 183 
183 188 193 194 192 190 189 185 187 188 186 189 196 204 208 208 201 197 193 
195 197 196 196 199 206 212 211 215 217 217 216 218 220 222 224 223 225 224 
226 231 234 236 238 242 248 252 253 252 251 248 250 251 253 251 249 245 243 
243 241 239 236 232 231 227 227 227 224 222 218 215 211 205 204 206 206 205 
204 205 201 199 199 197 195 193 192 186 187 185 185 184 184 188 192 193 191 
191 188 185 185 185 187 188 191 194 196 200 197 196 196 196 194 192 191 194 
200 201 202 207 213 214 218 220 223 226 228 227 228 226 228 228 230 230 233 
236 241 245 246 243 237 250 251 255 253 251 248 244 243 243 240 237 235 231 
229 227 228 229 228 226 224 216 212 209 207 207 206 206 204 205 203 203 205 
201 197 194 190 183 184 185 188 187 188 189 193 193 191 190 188 188 187 184 
185 185 187 190 193 194 194 194 190 189 189 191 193 195 197 200 201 205 209 
212 216 219 224 227 230 230 233 234 231 232 228 229 232 238 244 250 252 254 
252 252 253 253 250 249 246 242 241 239 239 235 231 228 224 222 221 224 227 
225 225 217 212 205 203 204 205 205 201 205 206 207 206 196 194 190 182 176 
180 183 185 184 185 187 188 189 189 188 186 188 192 189 186 185 186 184 184 
187 190 190 190 186 189 191 191 193 199 200 201 205 205 210 215 221 227 231 
233 233 233 233 230 229 229 229 235 239 245 250 254 255 255 254 255 254 254 
251 246 243 243 243 243 240 234 228 224 222 222 223 224 223 225 214 206 198 
199 205 205 205 203 202 200 202 204 199 195 190 184 180 179 179 177 180 181 
183 182 184 185 190 188 187 191 190 187 184 179 177 178 184 187 190 188 189 
190 192 192 194 200 202 205 206 205 209 214 220 227 231 235 235 236 233 228 
227 226 229 235 237 244 249 253 255 255 255 255 255 255 255 255 254 251 245 
243 237 233 228 225 223 220 222 221 219 219 213 207 202 202 204 205 202 200 
199 198 198 198 195 194 193 192 191 187 179 174 170 175 177 179 181 183 189 
189 189 191 190 186 182 178 179 183 187 188 187 188 191 192 194 195 198 202 
204 212 213 212 214 217 218 221 223 226 232 237 234 230 229 230 231 236 238 
241 246 252 253 251 253 255 255 254 255 255 252 249 244 241 235 232 230 228 
231 227 223 220 215 215 210 207 202 204 205 209 206 203 200 199 199 199 196 
194 192 191 189 189 183 175 170 170 169 172 176 181 183 186 186 186 185 185 
183 181 188 196 197 197 193 193 197 197 195 197 203 205 208 213 215 216 217 
220 221 224 225 226 227 233 236 235 236 237 236 234 236 240 248 254 253 251 
254 255 255 253 253 251 248 243 240 239 238 235 231 231 233 231 226 222 216 
214 210 208 208 210 210 211 208 205 203 205 202 201 196 193 191 190 189 187 
184 180 175 175 174 172 176 180 182 184 186 184 183 182 182 187 191 198 202 
200 197 195 196 197 196 198 202 203 204 206 215 217 218 217 216 218 219 220 
222 233 239 240 246 246 244 242 240 241 246 251 251 251 253 254 252 250 249 
250 246 242 240 238 237 236 226 227 231 231 227 225 218 215 209 208 206 207 
210 209 205 204 201 201 198 200 199 198 197 193 190 183 179 177 177 175 176 
176 179 182 182 184 180 179 178 180 185 193 198 202 205 205 205 204 206 206 
204 203 204 206 204 207 216 217 220 220 218 221 224 226 229 234 237 238 241 
245 246 246 246 248 251 253 253 252 246 248 247 247 248 248 245 242 241 239 
238 238 230 228 228 226 227 224 219 216 211 205 205 205 209 209 206 204 202 
200 200 200 200 198 199 191 187 180 175 175 174 174 175 175 183 188 185 179 
174 177 178 181 184 190 191 198 200 199 194 191 193 196 197 202 203 203 205 
207 212 217 215 213 215 220 223 222 225 229 233 235 237 243 247 247 247 249 
251 250 252 249 243 243 242 246 248 247 243 241 236 236 237 236 231 233 234 
232 229 226 221 218 214 208 207 205 206 206 203 204 205 201 200 203 202 201 
199 193 189 180 175 171 169 171 173 178 184 186 182 174 174 175 173 179 181 
185 185 189 187 190 189 188 192 196 198 203 202 200 202 204 210 211 213 212 
214 215 216 217 217 220 226 229 231 235 237 240 243 244 247 247 245 245 245 
248 245 244 244 243 239 236 235 237 240 240 234 235 236 231 228 224 221 219 
218 216 214 212 208 209 206 203 199 195 195 199 198 199 196 193 189 182 179 
175 172 171 172 175 181 181 178 174 173 173 170 172 175 179 182 187 185 187 
184 185 188 189 193 198 202 205 206 210 212 212 215 212 211 212 215 217 219 
220 225 228 229 230 234 237 242 244 248 250 251 251 245 249 250 244 239 235 
231 228 226 227 236 237 236 235 230 228 226 223 221 218 218 216 216 215 212 
210 204 199 195 191 193 195 196 197 196 185 180 175 174 171 169 169 168 172 
174 172 173 172 172 171 170 173 168 167 172 177 179 184 186 186 187 189 194 
196 200 205 210 214 216 216 219 216 216 218 221 224 226 230 232 231 232 232 
235 237 239 243 248 250 252 254 247 249 248 244 241 237 232 231 229 228 235 
237 236 235 234 230 226 224 222 216 220 220 218 215 211 208 201 198 196 192 
190 191 192 191 192 183 179 176 175 174 172 171 168 168 170 170 175 172 171 
169 170 172 169 171 171 171 173 184 189 192 195 198 200 202 205 207 211 214 
214 216 218 219 220 223 227 230 230 232 234 234 235 235 238 237 240 243 250 
252 253 254 251 254 251 249 244 239 236 234 237 238 242 242 243 238 235 228 
228 223 220 216 218 215 213 210 209 207 198 192 192 187 188 189 185 185 183 
179 179 180 179 178 174 173 172 169 169 170 171 170 170 168 169 171 172 172 
174 175 176 183 186 190 191 195 196 201 205 205 209 212 214 217 218 217 218 
221 226 230 231 230 232 234 234 237 239 241 244 245 249 251 253 254 251 252 
250 248 246 244 240 237 239 239 235 239 237 233 235 229 231 230 227 221 217 
212 212 213 212 204 196 192 189 186 185 187 183 184 181 178 181 183 185 183 
180 175 173 170 170 168 169 167 167 168 170 170 171 172 178 178 177 179 180 
184 191 195 200 201 204 208 209 212 212 215 216 218 222 224 226 227 228 227 
229 231 233 237 237 238 242 244 247 250 251 251 247 246 245 244 242 241 241 
238 237 236 236 237 235 230 226 222 225 226 227 221 215 209 206 207 205 200 
194 191 186 183 183 186 185 180 177 176 178 180 184 183 180 175 174 177 173 
171 172 169 169 170 176 178 179 179 182 183 181 185 185 191 197 200 205 206 
207 209 208 209 208 206 211 212 215 218 220 220 219 222 225 226 231 236 239 
243 249 250 251 249 245 238 244 244 243 244 243 242 242 240 238 238 235 233 
230 227 221 218 222 222 224 218 213 209 207 208 207 201 196 194 193 190 189 
189 185 181 175 173 174 176 177 176 176 173 172 173 172 173 174 173 170 171 
174 179 185 184 188 191 191 191 192 196 200 203 206 210 212 213 211 210 210 
210 211 211 211 218 219 221 219 221 223 226 231 235 238 243 249 254 254 254 
253 252 246 245 243 244 244 245 245 246 244 241 239 236 233 230 227 226 230 
230 229 222 217 211 210 207 205 198 192 193 193 193 194 193 187 180 174 173 
171 173 174 173 172 172 170 169 171 173 176 173 174 174 176 177 181 189 194 
195 195 195 195 198 198 200 204 207 208 211 214 214 217 217 221 219 219 218 
218 216 217 218 221 224 228 230 233 239 246 249 251 255 255 255 242 241 241 
239 242 245 247 247 248 245 240 236 235 233 231 229 232 232 229 221 216 216 
214 211 210 204 198 195 196 198 197 199 198 197 191 179 174 175 177 175 174 
174 172 172 172 174 177 177 177 175 176 176 179 186 192 197 200 201 200 201 
203 202 202 206 208 209 212 212 213 217 220 220 219 216 213 210 213 219 224 
225 229 230 232 239 244 246 249 250 252 252 241 242 242 240 242 245 246 246 
243 243 242 239 239 237 238 236 232 229 225 224 215 214 211 211 211 207 205 
204 202 200 199 196 196 198 191 183 179 174 173 173 175 175 173 171 174 176 
180 181 178 176 176 176 182 187 191 193 196 196 197 196 199 199 200 201 204 
205 206 208 209 215 220 222 220 215 212 213 216 222 225 225 228 232 234 239 
243 245 247 248 249 249 241 241 242 242 239 241 243 238 237 237 235 234 235 
233 233 232 225 221 221 222 216 217 214 209 209 206 201 201 197 194 194 193 
195 198 191 186 184 183 180 179 180 179 176 172 175 174 175 175 175 176 176 
176 179 183 189 192 194 193 194 194 199 201 204 202 202 203 204 207 210 211 
215 218 219 218 216 219 223 227 233 235 236 237 235 241 243 244 246 245 243 
242 249 247 246 245 244 241 239 238 237 234 232 232 232 231 226 226 225 221 
224 223 217 214 210 208 208 201 197 195 192 192 192 192 193 193 190 187 185 
183 183 183 180 177 177 174 175 176 175 175 179 177 177 177 177 179 188 192 
194 193 193 195 200 203 205 203 202 202 203 206 209 211 216 218 218 216 215 
219 223 229 234 238 237 233 234 240 242 244 246 246 245 246 252 251 249 247 
245 243 238 235 234 233 234 233 234 234 229 227 228 222 220 219 217 217 213 
210 206 199 192 193 194 192 190 191 192 188 187 189 186 186 189 189 188 185 
186 185 182 178 179 180 183 181 181 180 180 178 182 186 190 191 189 194 201 
204 204 203 208 210 209 209 214 217 221 220 217 214 214 220 225 228 232 233 
235 237 239 242 240 243 244 243 243 242 252 252 250 245 239 241 239 236 236 
235 236 232 232 232 231 230 229 220 219 218 218 215 211 208 208 204 200 198 
192 190 191 194 194 191 188 189 189 190 190 189 192 188 188 188 190 186 181 
181 183 183 185 184 183 185 187 187 187 189 188 196 198 202 206 208 208 209 
211 212 214 217 216 216 216 216 217 221 224 228 229 231 231 235 240 242 241 
242 243 243 242 241 253 252 249 244 242 243 243 242 240 238 239 234 231 232 
232 230 224 220 218 220 217 214 211 209 210 209 208 205 201 199 200 199 199 
198 197 197 194 192 188 186 186 184 186 188 188 186 184 183 185 188 188 189 
189 192 190 190 189 194 194 197 197 200 205 204 204 204 206 208 210 213 212 
212 210 212 218 221 222 223 225 228 234 236 237 241 244 243 242 243 242 239 
249 248 249 246 244 243 243 243 243 242 242 240 238 238 236 233 228 221 217 
215 210 208 208 209 207 206 204 202 200 199 201 201 198 199 200 198 194 194 
191 186 184 183 183 188 190 189 189 187 186 187 189 190 191 191 189 189 190 
196 195 194 197 198 199 197 195 197 196 199 203 203 204 211 210 213 218 223 
223 224 225 229 234 237 242 243 243 243 243 247 251 252 251 249 248 246 246 
246 244 244 244 242 241 240 239 238 236 234 229 224 217 214 211 207 205 204 
201 201 201 200 200 201 201 201 201 201 201 200 199 200 198 194 187 185 184 
187 190 191 191 190 187 188 190 192 193 194 191 192 191 192 191 192 194 196 
200 201 199 200 199 202 205 206 206 206 213 217 223 225 224 224 225 227 232 
237 239 243 242 243 243 245 247 249 249 248 247 242 243 244 243 242 240 237 
234 233 236 237 237 237 231 220 214 209 209 204 202 201 200 200 200 198 197 
198 197 196 196 197 201 203 203 203 200 196 190 185 182 187 187 189 190 192 
193 192 192 193 194 194 194 195 197 194 193 195 194 195 197 198 201 200 202 
206 211 211 209 211 216 222 227 227 227 224 227 229 232 234 235 239 240 240 
242 245 246 249 246 244 242 241 238 238 238 240 240 240 240 240 240 240 238 
236 225 219 216 213 210 205 205 203 203 203 198 195 197 198 199 196 196 194 
198 199 199 197 197 196 193 188 185 186 187 192 194 196 194 193 193 192 195 
199 196 195 198 196 192 192 191 196 196 197 199 199 198 203 205 208 210 214 
218 225 227 229 227 227 229 231 235 238 237 241 243 241 244 242 241 240 244 
244 243 240 242 241 238 239 238 238 239 238 235 234 233 230 226 222 217 215 
213 211 210 207 206 201 195 193 195 194 196 198 197 196 200 200 201 198 198 
194 192 191 191 190 191 196 197 200 199 200 202 202 203 203 198 198 198 197 
193 195 194 197 195 195 194 195 200 204 209 210 215 214 217 223 223 225 225 
223 226 226 231 234 239 243 246 245 243 243 244 246 247 244 244 244 245 244 
244 244 240 237 234 232 232 233 234 230 226 223 217 216 212 208 206 203 200 
195 190 188 190 194 195 197 198 199 199 199 199 196 198 198 198 199 199 198 
199 199 198 202 204 205 207 206 206 203 199 198 199 200 200 196 192 190 188 
192 196 199 200 206 211 211 216 220 225 225 227 226 225 224 225 226 234 236 
238 240 243 244 244 244 244 243 247 245 241 240 242 242 241 243 239 234 228 
227 229 231 234 231 230 224 220 218 214 211 208 203 200 198 196 193 195 197 
196 196 198 200 200 201 198 195 198 199 201 204 202 204 203 204 204 202 203 
202 206 205 202 203 203 205 205 203 200 194 193 191 191 195 202 205 210 210 
212 215 216 216 218 218 219 221 222 225 226 227 234 235 234 238 241 245 245 
247 247 248 251 251 245 243 241 240 239 240 239 233 230 225 224 228 229 229 
225 222 219 216 216 216 213 210 202 198 197 195 194 193 198 200 201 204 206 
204 197 195 193 197 201 201 200 200 203 206 209 208 208 207 204 202 198 198 
202 206 209 206 201 200 198 197 196 202 205 208 216 219 220 220 219 219 216 
215 217 222 222 226 226 230 232 231 233 234 240 244 243 243 241 243 251 252 
250 247 238 234 236 234 233 229 228 223 225 225 225 225 221 219 219 218 217 
217 212 207 200 199 196 197 198 199 203 202 203 204 207 206 199 197 195 203 
200 197 200 202 204 204 207 208 206 206 204 202 198 200 202 207 213 212 207 
206 203 198 200 206 208 213 215 217 219 214 215 212 213 215 216 219 224 224 
229 233 236 235 238 241 241 238 236 236 236 238 255 255 253 250 245 241 240 
235 231 229 225 226 228 229 229 229 226 223 222 216 215 212 209 204 204 204 
204 206 208 207 207 209 209 209 213 212 207 206 203 202 201 199 201 204 204 
205 209 211 210 210 206 205 204 205 207 210 208 206 202 204 204 200 198 201 
207 212 214 216 214 212 212 209 210 207 210 214 220 225 236 239 242 242 240 
243 243 241 238 238 242 241 252 254 253 250 246 240 239 237 236 234 230 230 
233 231 229 227 226 224 221 215 211 210 207 206 208 211 215 212 211 209 207 
208 209 207 207 210 208 210 207 209 210 213 211 210 210 214 217 216 218 217 
212 210 210 208 212 209 208 204 202 200 201 200 201 203 209 212 212 210 209 
210 208 208 211 211 214 212 214 221 226 228 230 233 239 242 240 240 237 239 
244 246 254 252 250 249 243 241 241 238 236 234 229 229 231 229 227 225 225 
227 224 222 221 221 214 204 209 215 219 217 213 208 208 209 212 211 211 212 
213 213 211 210 212 212 209 209 211 214 219 220 221 223 221 219 215 211 214 
213 211 207 204 198 199 200 203 205 209 210 211 212 210 209 210 212 214 220 
222 219 217 218 220 224 230 233 238 240 239 243 242 242 241 238 252 249 250 
250 250 248 245 240 238 235 229 229 229 229 226 225 224 224 221 225 224 221 
218 212 212 216 214 212 210 209 209 209 212 210 207 207 206 208 209 215 214 
214 214 212 211 212 216 218 218 219 219 220 217 216 219 216 212 208 204 202 
202 203 205 207 211 214 216 218 220 218 215 217 221 225 225 224 222 221 226 
233 234 234 234 239 242 243 244 245 244 242 250 248 248 245 249 248 244 238 
235 233 231 230 228 228 224 222 222 219 217 221 220 218 215 213 211 211 210 
212 211 209 209 207 211 214 212 211 209 210 212 216 216 214 214 210 210 209 
212 214 217 215 219 221 224 225 225 221 219 212 208 209 208 208 208 210 212 
216 220 222 222 223 222 223 226 228 228 227 224 221 220 224 229 228 229 236 
241 243 247 250 250 249 249 250 251 251 254 250 246 240 238 236 235 233 228 
224 223 223 223 220 214 216 216 212 211 210 211 212 211 213 214 214 215 215 
217 219 217 215 214 216 218 220 219 217 219 219 218 217 216 212 217 213 214 
218 219 221 223 222 219 213 212 209 208 208 212 213 216 217 220 222 220 217 
216 217 220 220 223 226 226 223 225 227 229 231 232 237 244 245 247 250 248 
247 252 252 252 250 252 249 244 241 239 238 237 235 227 222 219 217 219 217 
213 211 210 212 212 213 214 213 214 217 221 223 220 219 218 222 221 220 220 
219 218 217 219 218 221 222 220 217 216 214 215 209 208 211 212 216 218 216 
215 215 215 217 216 217 219 218 216 217 218 214 215 215 215 217 219 222 222 
225 224 225 225 224 225 228 232 239 244 247 250 251 251 254 251 250 245 245 
247 249 245 243 241 239 237 236 232 225 221 219 218 219 215 212 216 219 221 
222 224 225 225 224 225 226 226 227 222 221 220 223 221 221 219 218 219 221 
221 221 218 216 216 215 216 212 217 221 219 222 219 214 217 218 219 222 225 
224 220 221 220 219 219 214 215 211 210 214 211 218 222 223 225 226 228 227 
227 231 234 239 243 247 250 255 255 255 249 250 247 247 246 247 243 241 236 
234 235 232 231 225 222 220 220 220 218 215 216 217 220 225 228 227 225 225 
224 223 223 223 221 220 221 221 220 219 218 218 220 222 224 220 218 218 218 
219 219 217 220 223 225 226 226 223 222 220 221 222 225 228 225 222 221 220 
219 220 220 215 214 217 215 218 222 225 228 228 231 229 230 233 238 242 245 
248 250 254 255 254 254 255 250 248 245 246 244 239 234 233 235 234 231 225 
223 218 220 224 227 225 224 224 222 228 232 233 231 227 224 223 224 224 223 
220 221 220 219 219 218 218 219 222 224 225 224 221 222 222 222 222 225 226 
228 224 226 226 224 221 222 223 223 226 226 228 227 225 221 220 223 220 220 
217 218 218 222 224 225 227 230 227 230 234 241 246 248 251 249 253 254 254 
253 253 251 253 250 251 247 244 242 240 241 238 234 230 228 227 226 228 229 
226 224 223 225 228 233 231 229 221 223 224 227 229 228 226 225 218 220 219 
220 218 218 218 221 227 225 226 224 225 224 224 224 222 222 222 224 226 226 
220 221 223 223 222 226 227 225 225 227 229 230 231 232 228 227 227 228 230 
230 234 235 237 239 240 242 244 248 249 249 249 245 241 252 252 251 248 248 
246 244 241 239 236 237 238 238 235 233 231 228 226 225 224 226 229 233 233 
234 230 228 226 224 225 230 229 232 231 230 230 230 229 226 223 223 222 223 
228 229 228 225 227 225 226 228 228 224 222 222 226 224 221 222 221 221 221 
222 223 221 221 226 231 233 234 233 228 229 229 228 229 226 231 237 241 244 
245 245 247 251 251 249 246 244 243 254 255 253 252 250 244 239 237 235 236 
238 236 237 238 239 237 235 233 231 228 232 235 237 237 235 228 228 228 228 
229 233 236 239 234 230 228 231 231 231 228 224 222 226 230 231 226 225 224 
219 223 225 226 223 222 220 221 223 226 229 231 229 227 226 227 227 228 231 
233 236 236 237 236 237 234 231 234 232 232 234 239 243 247 249 252 253 254 
250 248 243 241 254 255 253 252 250 246 244 240 238 238 239 238 239 237 237 
233 233 230 231 230 233 237 237 237 236 231 227 228 228 231 236 239 240 236 
232 231 230 232 234 231 231 229 231 230 228 225 224 225 227 225 229 226 224 
228 228 228 228 231 233 233 230 227 224 227 230 232 233 233 233 233 235 236 
240 237 236 236 231 230 238 245 247 248 252 254 252 253 250 252 251 251 250 
250 249 249 245 242 241 241 240 238 238 238 237 236 235 233 232 230 231 231 
233 237 240 242 239 230 225 225 230 234 239 239 236 232 231 231 231 233 237 
237 235 234 237 237 239 237 237 237 238 238 237 233 230 231 231 232 231 233 
233 231 227 226 229 233 235 236 234 232 231 232 234 237 241 243 244 242 236 
233 237 241 242 246 248 252 252 250 247 248 249 249 251 251 247 244 237 237 
237 239 239 239 239 238 235 237 234 230 230 230 231 230 232 237 242 247 243 
236 230 227 231 235 239 238 237 237 236 239 239 242 243 243 244 243 241 238 
242 245 245 243 243 243 241 240 240 239 238 238 237 238 237 234 227 226 229 
232 233 235 234 234 234 234 236 239 246 247 246 246 240 240 240 242 241 242 
245 248 249 246 248 251 251 251 251 249 250 244 239 237 236 235 235 237 238 
239 239 238 235 233 229 231 230 230 232 238 241 243 238 235 230 229 233 238 
241 240 236 241 241 243 245 247 247 247 249 248 244 241 243 245 245 242 245 
240 238 237 236 237 240 242 240 237 236 234 231 234 237 239 238 239 239 237 
238 238 243 244 249 249 249 246 242 241 241 240 240 237 239 241 244 246 247 
249 252 251 255 255 253 252 248 243 238 238 239 240 238 237 238 236 231 233 
235 237 239 238 239 238 240 242 239 238 235 235 238 242 244 242 238 240 242 
246 247 251 251 251 252 248 246 244 243 245 246 247 248 245 240 241 237 238 
242 245 242 239 238 236 233 238 241 245 245 246 247 247 247 246 247 246 245 
247 248 245 242 238 239 239 236 242 241 237 238 243 244 245 247 248 255 255 
255 255 254 250 247 245 244 244 243 242 242 244 240 242 242 243 244 244 244 
243 242 245 245 246 243 243 244 247 247 244 241 241 241 248 251 253 253 255 
253 252 251 251 251 248 247 249 251 249 248 244 242 238 238 241 239 237 235 
233 231 235 238 244 247 251 251 251 249 248 248 245 247 248 248 247 246 244 
244 240 237 234 236 238 238 241 242 243 243 242 255 255 255 254 252 248 245 
245 243 244 247 248 249 251 249 249 249 248 246 245 245 247 248 247 249 250 
247 247 245 243 244 243 241 242 244 248 251 250 250 250 249 247 245 248 250 
249 250 249 248 251 251 249 248 244 239 240 239 239 240 242 240 240 241 246 
249 253 253 253 252 252 252 252 253 255 252 249 250 248 243 242 241 236 238 
238 238 242 248 250 252 251 250 253 250 248 249 247 245 246 244 244 246 247 
250 251 252 253 252 251 249 246 246 247 246 248 246 245 245 245 247 247 248 
247 243 246 250 249 248 245 245 243 245 248 246 247 248 247 246 243 243 250 
250 252 251 247 243 243 241 240 241 243 244 244 245 249 252 253 253 251 251 
252 250 250 252 253 254 252 252 249 244 240 238 238 238 240 242 247 251 251 
252 252 250 251 249 244 244 245 245 247 248 247 249 251 252 255 255 253 252 
254 255 252 250 246 242 241 239 244 245 248 251 251 250 248 244 248 250 248 
246 242 240 242 244 245 247 249 249 248 247 244 245 251 252 254 252 250 250 
248 245 244 246 247 246 246 246 245 249 253 251 252 251 250 247 245 248 252 
251 249 247 247 244 242 240 240 238 242 244 249 252 250 252 249 248 248 246 
247 248 247 248 251 250 251 252 254 254 255 255 255 255 254 255 253 252 248 
245 241 239 242 244 248 253 255 254 252 250 250 255 255 252 250 248 248 250 
249 250 250 250 251 251 251 251 253 255 255 254 254 253 251 250 250 249 248 
248 246 244 246 248 249 250 249 247 248 249 251 253 253 253 252 250 248 248 
245 240 240 241 246 247 249 250 249 250 249 246 248 249 248 247 247 246 248 
251 253 255 255 254 255 255 255 255 255 252 249 249 246 246 243 242 243 246 
249 253 255 255 255 255 254 252 253 253 253 249 251 252 250 250 251 253 254 
253 252 254 254 253 252 254 254 254 253 253 251 250 250 247 245 246 246 248 
246 247 245 244 245 249 251 252 252 251 253 251 247 248 246 242 239 240 247 
248 251 251 248 249 249 
