P2
#output from hocrtest
70 70
255
251 246 250 245 255 255 255 253 255 253 254 255 255 255 255 253 252 254 246 
233 246 250 241 252 249 250 249 242 247 249 250 246 254 251 250 250 251 255 
255 254 247 250 250 255 255 255 253 252 248 240 249 253 255 249 249 255 255 
252 253 242 252 253 251 247 251 255 233 242 243 248 251 250 252 251 254 254 
255 254 254 253 253 254 255 255 255 255 254 252 252 249 252 255 251 253 251 
249 247 243 246 248 249 249 250 251 252 252 252 254 255 253 250 249 251 255 
254 255 255 255 251 248 251 253 253 253 251 255 253 252 253 250 252 252 249 
249 251 249 236 236 234 230 255 254 254 254 255 254 252 250 250 246 248 251 
252 254 255 255 255 254 252 249 247 252 253 252 248 246 247 245 246 248 248 
245 247 245 243 248 249 250 252 252 250 250 251 255 253 252 255 255 254 254 
253 252 252 252 254 255 250 250 250 249 249 250 249 245 247 246 242 242 242 
244 255 255 255 255 253 252 252 249 247 245 247 248 251 252 254 255 248 248 
246 248 248 252 253 251 248 243 242 244 245 247 249 245 246 243 243 246 246 
244 246 246 247 247 249 250 250 249 252 253 253 255 254 253 254 255 255 253 
249 246 245 246 246 247 245 244 245 245 244 243 244 246 254 255 254 254 250 
247 246 241 244 247 252 252 251 252 252 255 251 251 248 247 249 247 250 247 
245 244 243 243 243 242 242 241 242 242 243 244 243 244 245 245 244 246 247 
249 249 250 250 251 251 251 252 250 254 255 253 252 250 247 247 246 246 248 
245 240 242 243 245 243 243 244 252 253 251 250 247 244 241 242 241 244 247 
249 251 248 246 248 249 251 249 250 250 246 242 241 240 242 241 240 239 238 
237 237 238 241 244 246 246 245 247 249 249 250 244 245 245 243 243 240 240 
244 247 247 251 251 249 248 247 246 247 245 245 246 246 245 243 242 243 245 
248 251 254 253 251 251 246 242 237 234 238 244 247 248 246 240 242 242 242 
244 247 248 248 242 240 239 237 239 238 240 240 241 239 238 239 240 241 246 
248 247 247 252 251 251 245 243 243 240 241 239 237 238 244 249 251 249 243 
241 242 244 244 241 243 245 244 243 242 240 242 243 247 248 255 255 251 250 
245 240 236 232 234 241 244 244 243 236 234 234 236 235 237 241 241 239 242 
242 239 238 235 234 234 235 234 233 236 239 240 243 245 247 250 248 248 243 
240 238 242 241 239 238 239 239 244 246 245 241 240 236 238 242 243 241 243 
243 241 240 242 244 247 248 247 246 255 255 252 250 245 237 233 233 234 238 
244 241 241 238 238 238 240 239 242 242 240 237 238 242 242 242 240 240 238 
241 243 238 235 234 235 235 236 237 239 237 234 234 234 233 237 236 237 238 
239 241 249 248 244 240 241 238 238 241 243 243 244 243 241 241 241 245 249 
251 252 249 255 255 252 248 242 236 231 230 235 237 238 238 239 240 240 240 
237 232 236 237 237 235 232 235 237 237 238 241 238 238 238 235 234 233 234 
237 240 239 238 235 232 231 230 230 229 226 229 231 233 239 243 243 239 237 
238 239 238 241 242 244 241 238 236 236 239 243 246 249 251 252 254 255 251 
247 240 237 232 227 230 230 226 229 235 239 239 237 232 229 230 231 232 234 
233 235 235 235 235 235 239 237 239 238 236 239 240 243 243 243 240 237 235 
233 229 228 229 229 231 234 235 238 238 238 236 237 237 238 238 241 242 241 
239 234 233 233 237 242 245 246 247 246 251 253 255 251 244 240 236 234 232 
230 227 230 230 235 235 232 227 228 226 228 229 229 228 227 227 227 225 225 
229 234 237 239 236 238 241 242 241 246 242 235 232 232 229 227 229 229 231 
233 235 237 234 235 235 235 235 236 238 238 240 237 234 231 230 232 236 242 
246 246 247 246 254 253 253 252 250 244 239 236 232 231 232 232 231 233 233 
233 233 225 221 224 223 225 225 222 222 223 220 221 223 227 232 234 237 240 
240 241 240 242 238 237 234 228 225 226 225 228 230 227 226 230 229 230 233 
230 228 230 231 231 232 230 232 230 230 232 238 242 247 252 255 255 254 253 
251 249 246 241 241 243 242 240 236 234 232 234 237 235 230 224 221 221 223 
227 225 226 227 223 220 219 221 225 226 230 231 235 236 237 234 238 234 235 
231 224 222 224 223 223 223 225 227 230 228 228 228 228 227 228 228 227 228 
226 227 227 228 233 239 241 245 249 249 248 251 252 252 253 249 248 247 247 
244 243 240 235 234 234 236 235 230 227 221 222 223 226 226 226 225 224 218 
218 218 221 219 228 232 228 229 234 234 233 234 233 224 222 222 222 223 224 
225 227 226 228 228 230 228 227 224 224 225 225 228 229 230 229 231 234 238 
242 245 247 250 251 251 254 253 252 250 249 250 244 244 243 239 234 231 234 
235 232 228 227 225 223 221 222 226 225 221 222 218 218 218 224 225 231 233 
230 231 233 233 230 229 226 222 222 221 218 224 225 221 221 223 224 225 228 
227 230 227 222 225 225 228 228 230 229 230 235 239 244 244 246 250 251 252 
252 249 247 247 248 247 246 245 244 241 236 235 231 231 227 222 218 218 220 
220 220 228 227 226 219 218 212 214 219 226 227 229 226 226 227 227 226 225 
224 222 222 221 223 224 224 226 225 222 223 225 230 226 226 223 219 221 222 
227 232 235 230 230 233 236 243 246 248 249 248 252 253 254 252 248 248 247 
247 246 243 240 236 236 235 229 223 222 212 213 219 219 222 224 224 225 221 
218 213 213 215 219 219 222 226 226 226 227 224 223 221 220 215 215 219 222 
223 226 226 223 223 220 220 216 217 216 212 217 220 229 231 233 232 234 235 
238 244 249 250 249 250 254 255 255 255 252 249 246 245 245 246 245 241 239 
237 232 226 224 219 217 219 220 222 221 224 224 219 218 214 214 214 213 216 
219 220 218 220 222 223 222 217 215 212 212 215 218 218 221 223 220 219 217 
217 216 216 216 217 219 221 229 233 236 238 237 240 241 243 251 254 254 255 
255 255 254 253 249 245 244 246 248 247 245 242 237 234 229 224 219 214 217 
216 218 219 219 222 222 220 221 219 218 217 216 215 218 219 220 222 224 222 
221 217 214 212 209 209 212 213 215 216 215 216 215 215 215 215 217 218 221 
222 225 235 238 239 241 243 244 246 249 252 253 253 254 254 255 249 243 238 
237 239 243 246 244 241 234 230 229 226 224 221 219 218 219 220 221 221 220 
216 217 219 217 215 214 214 218 221 219 219 221 220 219 217 214 209 207 209 
209 214 215 215 215 215 216 217 217 218 222 223 226 225 229 237 240 242 241 
238 238 241 243 243 244 245 255 253 252 252 251 245 242 240 240 241 241 239 
234 234 230 225 223 219 217 218 222 222 219 218 217 215 214 216 212 211 210 
210 213 215 215 214 218 217 217 217 214 209 208 208 210 213 215 215 214 212 
211 212 213 215 220 223 227 228 230 234 238 243 241 239 238 240 239 243 243 
243 253 252 253 253 249 245 243 240 238 237 237 233 231 230 228 225 220 216 
217 219 217 220 217 215 214 212 211 211 205 204 207 208 210 210 212 212 214 
213 214 214 212 210 207 207 207 211 214 212 211 210 210 212 212 216 221 226 
230 229 229 233 233 236 235 236 237 241 245 249 248 247 248 250 253 253 252 
251 247 243 239 236 236 233 232 228 223 224 215 215 213 216 216 213 213 215 
215 213 209 207 205 201 203 208 208 209 214 213 216 216 212 212 212 209 206 
209 206 208 211 213 215 216 213 213 214 217 223 223 225 230 233 235 234 233 
234 237 237 241 246 249 251 251 249 248 252 250 249 252 249 243 235 231 228 
228 233 232 228 224 212 209 211 214 213 212 210 210 207 206 205 203 203 200 
202 204 207 209 212 211 218 219 217 215 212 212 203 205 207 210 215 216 216 
217 215 220 220 221 223 224 225 227 229 234 233 228 232 238 237 238 244 247 
250 252 251 251 252 253 253 251 242 248 242 236 234 234 238 236 227 222 213 
208 210 213 214 214 212 207 205 201 202 203 201 197 193 195 198 201 207 210 
214 215 216 217 214 210 203 206 208 210 214 216 214 213 213 219 220 227 228 
229 229 229 230 229 233 234 238 243 243 240 241 247 249 250 252 251 252 251 
251 251 251 250 248 242 238 237 236 235 230 223 219 213 209 211 213 216 215 
213 208 205 203 203 199 195 193 194 195 200 208 211 210 212 213 213 213 209 
206 208 209 210 211 215 214 216 216 219 226 230 230 229 228 228 228 228 227 
232 236 241 248 247 247 251 253 255 255 253 251 251 253 252 251 250 247 246 
241 237 234 234 233 229 222 214 213 214 215 212 213 211 209 208 205 198 194 
192 192 192 193 198 200 202 203 205 207 206 208 206 204 206 210 209 207 209 
213 212 214 217 220 225 227 226 233 230 232 234 232 234 237 243 248 251 250 
250 251 252 255 255 255 252 249 251 249 245 242 241 239 237 238 239 237 231 
220 211 210 210 211 211 212 213 209 207 203 195 191 188 187 184 187 191 192 
196 201 201 203 204 204 202 203 203 207 209 208 208 215 214 214 217 220 222 
224 227 229 234 237 237 239 241 247 247 248 250 253 252 252 253 254 254 254 
253 253 252 248 242 238 235 236 235 234 235 235 232 224 219 217 214 212 211 
211 210 208 206 205 197 194 188 190 190 189 191 194 194 198 199 198 197 198 
199 201 200 204 210 213 216 221 220 218 219 222 221 222 226 225 230 234 236 
241 244 246 247 249 252 255 254 252 252 253 255 254 253 250 246 248 244 236 
235 234 230 232 234 233 230 226 220 218 213 207 203 206 208 208 207 206 199 
196 189 190 194 191 188 189 191 194 196 194 193 193 197 200 199 205 211 212 
217 221 221 219 221 223 219 220 224 225 230 234 235 238 239 237 241 247 253 
255 255 255 255 249 250 251 250 249 246 243 237 233 234 234 234 234 236 236 
234 228 226 226 225 214 212 209 207 205 206 205 202 198 198 193 194 185 183 
185 187 192 193 197 195 192 196 197 202 207 210 207 208 212 214 218 221 220 
218 217 219 222 229 230 229 231 238 240 244 249 251 254 253 255 255 250 249 
247 246 244 243 242 238 230 230 232 233 233 232 234 231 228 222 220 217 214 
211 207 208 205 205 205 199 195 193 194 193 190 188 186 188 186 189 194 194 
192 194 195 198 200 204 204 202 203 208 213 218 212 210 214 220 224 227 230 
228 231 236 237 241 248 252 255 253 254 252 249 250 247 246 243 239 237 234 
229 230 228 229 229 229 228 227 223 219 215 211 212 210 209 211 208 207 207 
204 201 193 193 193 192 190 186 186 182 183 186 188 193 195 199 198 201 203 
205 203 207 214 216 212 208 204 207 215 219 224 226 229 232 233 235 239 247 
250 253 253 255 255 253 254 252 251 247 242 239 237 232 234 235 232 230 232 
233 228 226 223 220 214 211 206 204 203 204 205 205 205 201 198 197 197 194 
189 188 186 183 185 188 191 195 197 196 198 199 202 206 205 209 211 211 209 
207 207 208 216 221 223 224 229 233 232 234 237 243 249 251 250 255 255 249 
249 252 249 246 242 238 236 231 233 235 234 231 230 229 224 222 220 215 210 
203 199 200 200 204 201 202 201 199 196 196 199 195 190 189 191 190 190 191 
197 199 202 202 204 204 207 209 210 211 213 209 209 210 213 214 219 224 230 
230 232 235 238 239 240 242 245 248 251 252 255 249 248 246 246 246 245 242 
239 237 237 236 234 233 231 229 226 220 216 213 210 207 203 201 203 208 209 
207 203 199 200 202 202 197 192 192 193 189 191 193 197 199 201 201 206 211 
210 213 212 214 217 215 216 218 218 218 223 227 230 227 229 233 235 236 238 
237 241 243 244 244 246 246 245 245 244 243 241 243 243 241 242 237 234 235 
233 230 224 216 212 209 206 207 206 204 207 208 206 205 202 196 198 201 201 
198 197 197 194 187 188 186 189 192 197 201 207 211 215 213 213 213 215 214 
217 223 225 225 229 232 231 230 228 229 232 233 232 236 239 238 237 242 245 
245 240 241 241 239 240 243 247 246 243 240 236 233 230 226 222 217 214 212 
213 213 213 208 206 207 205 201 196 191 192 195 204 205 203 201 198 195 191 
187 188 186 186 193 200 205 209 212 213 212 213 215 219 222 224 226 229 232 
232 227 227 227 230 234 237 238 238 237 238 242 245 248 244 235 232 235 234 
233 243 245 242 239 234 231 229 225 221 217 214 213 213 213 214 210 208 208 
206 199 194 189 190 192 196 199 201 204 202 203 199 192 191 190 190 196 200 
203 207 208 210 211 210 211 219 221 220 222 227 230 230 228 229 231 233 240 
244 243 244 242 241 241 243 250 246 238 234 233 234 233 235 237 234 235 232 
228 227 226 225 222 215 212 212 211 212 212 209 204 203 200 197 191 190 188 
189 192 199 200 199 197 197 192 192 192 191 196 204 212 214 215 212 210 208 
213 219 220 219 220 225 229 229 232 233 236 237 242 245 247 248 245 244 244 
246 251 250 243 237 235 237 235 233 231 232 231 231 229 228 227 227 222 220 
216 213 211 209 211 210 204 202 199 198 195 192 191 192 194 200 202 200 201 
200 201 198 196 195 200 205 210 213 213 212 210 210 213 216 219 220 220 225 
229 230 231 233 235 238 241 243 245 247 248 249 247 246 254 252 245 239 237 
236 232 232 229 231 228 227 227 226 226 224 221 218 213 209 207 205 201 202 
199 199 197 197 191 189 195 197 201 206 207 206 204 205 207 202 200 200 201 
203 208 214 216 215 215 216 214 215 219 217 218 223 225 228 230 233 237 240 
244 245 247 248 245 248 249 251 251 251 246 244 243 240 234 233 233 231 225 
224 224 225 227 225 221 219 217 213 208 203 202 204 202 199 199 196 197 196 
198 201 204 205 206 204 202 203 203 203 202 199 198 202 205 212 215 214 218 
217 216 214 219 218 222 222 223 227 228 235 234 234 236 238 240 244 248 251 
249 250 250 250 249 242 244 241 237 233 237 238 235 234 225 226 225 221 215 
216 218 215 210 208 207 209 210 209 210 207 208 213 211 213 212 210 204 201 
200 201 199 200 201 201 201 198 202 209 210 211 214 216 217 215 219 219 221 
221 225 228 232 236 235 236 233 235 237 246 251 254 255 255 252 250 250 248 
247 243 238 235 235 236 235 232 228 225 223 223 219 220 220 218 214 210 207 
207 213 212 213 213 213 213 212 215 217 213 207 201 197 199 199 199 202 202 
201 198 203 206 209 210 212 217 217 215 214 212 217 220 228 230 233 231 231 
232 233 233 235 247 248 248 245 241 253 250 249 248 248 245 245 235 235 229 
228 227 224 228 224 226 224 224 224 223 219 215 216 213 213 212 216 214 213 
214 212 214 214 211 207 202 203 201 201 205 207 205 203 204 202 207 209 208 
211 214 214 211 216 219 223 226 229 230 228 226 224 227 233 236 240 250 252 
255 255 255 253 251 248 246 243 239 238 236 230 229 226 224 223 225 225 227 
226 228 226 222 220 217 215 214 214 214 218 217 215 211 207 211 212 213 211 
208 210 211 212 212 215 212 211 210 211 214 213 215 212 213 212 215 216 219 
224 228 230 235 231 225 223 225 230 233 238 248 251 250 249 247 255 255 254 
254 252 248 246 242 235 227 223 223 224 224 228 231 228 226 225 220 220 219 
216 213 216 218 219 219 215 213 215 216 212 212 214 212 215 220 218 217 216 
214 214 214 213 214 210 211 213 216 218 221 220 216 218 223 230 235 234 229 
228 230 231 231 237 246 249 248 252 255 255 255 253 254 254 249 247 241 236 
232 229 229 231 231 231 233 232 227 224 219 217 216 212 212 217 218 220 219 
212 210 215 215 208 207 208 212 214 218 220 220 216 216 214 216 216 217 217 
217 216 216 218 218 217 218 222 226 230 232 235 234 234 234 234 233 235 240 
241 248 250 251 255 255 251 249 249 246 245 242 237 236 233 230 232 229 226 
229 226 220 218 216 214 215 210 212 218 220 219 221 215 214 213 212 212 211 
213 215 216 218 218 220 218 222 220 221 219 217 217 214 213 216 219 220 219 
220 222 226 228 232 234 235 235 239 242 246 250 251 251 253 253 255 255 255 
255 253 250 246 241 239 238 237 236 232 231 229 229 231 230 226 220 218 217 
219 219 220 221 222 224 224 220 218 215 217 214 214 212 217 218 220 223 222 
222 223 219 217 212 213 214 215 213 213 213 211 213 215 219 223 227 231 233 
236 238 240 242 245 252 251 253 255 254 255 250 251 250 246 247 245 242 238 
234 236 235 233 232 230 229 230 230 227 222 216 214 216 218 221 221 222 225 
223 220 221 216 216 215 218 218 216 219 222 226 226 223 224 223 222 216 215 
217 216 213 211 210 209 209 212 216 220 223 227 228 230 236 239 242 248 252 
253 254 254 254 255 247 246 246 241 244 243 240 239 235 237 237 237 234 233 
234 231 229 226 222 219 217 218 220 223 227 227 226 221 218 220 216 220 223 
224 220 220 217 221 223 222 223 226 226 226 221 216 214 214 215 213 213 209 
211 211 211 211 210 219 222 226 232 235 237 242 248 252 252 251 247 245 247 
247 246 248 247 246 242 239 235 235 234 231 231 230 230 228 226 227 228 228 
229 226 223 222 225 224 226 225 219 217 218 220 224 227 226 224 224 223 224 
224 224 224 224 224 224 222 222 222 221 217 214 211 214 215 218 218 217 218 
219 222 226 230 234 242 245 251 253 255 255 253 248 246 242 244 242 240 238 
239 234 232 226 227 225 223 224 225 229 234 235 235 235 231 227 222 219 218 
219 217 214 214 222 226 228 228 223 222 225 225 227 229 228 224 224 221 223 
224 221 220 219 218 218 221 221 221 223 221 221 221 222 220 223 232 236 239 
245 246 248 250 249 248 244 247 243 237 236 237 236 237 234 230 225 222 224 
223 224 226 233 234 236 232 233 230 226 223 219 216 219 222 222 220 224 224 
225 225 222 224 227 227 228 230 227 228 226 222 220 222 218 220 220 219 221 
222 224 221 225 223 223 225 225 224 230 236 241 244 249 248 247 245 243 241 
247 249 249 246 245 241 239 237 237 235 231 228 223 222 224 225 231 231 232 
229 231 231 225 222 218 216 221 227 232 231 231 231 234 233 231 230 232 231 
229 227 226 228 229 230 231 233 230 229 227 228 228 227 227 226 228 229 231 
233 232 232 231 235 240 242 244 243 242 239 241 241 254 255 254 252 247 238 
240 238 238 238 236 235 233 229 231 231 231 232 231 229 231 227 223 224 223 
222 227 230 231 233 231 231 231 231 230 231 233 232 230 227 227 230 231 233 
232 234 234 232 231 232 229 230 230 230 232 234 232 232 235 235 233 232 236 
238 241 242 240 235 234 236 251 253 253 253 249 244 244 243 240 241 241 239 
239 237 238 237 229 230 233 232 229 228 224 227 227 228 236 241 239 236 234 
231 230 230 231 231 230 230 229 229 229 233 236 236 237 235 237 236 234 231 
229 229 230 231 231 233 231 228 228 229 227 227 231 234 239 240 243 237 236 
233 250 253 255 252 253 250 248 245 240 240 241 242 244 243 242 236 232 230 
232 235 236 233 230 229 230 228 233 241 238 234 232 231 229 230 230 230 232 
233 231 234 235 241 242 242 240 237 238 235 233 231 229 228 232 234 234 232 
229 227 225 224 224 230 231 231 232 236 243 245 247 247 255 255 255 255 255 
253 250 246 243 241 242 243 244 244 241 236 233 232 231 235 234 233 232 230 
229 229 230 234 231 231 234 235 235 232 233 232 230 232 233 233 237 245 249 
251 249 242 240 234 228 223 221 230 237 237 239 239 236 234 232 231 231 231 
235 236 238 239 244 246 248 244 255 255 253 251 252 250 248 245 245 243 240 
241 241 240 236 234 238 236 237 241 241 236 235 233 232 234 234 234 231 231 
232 236 236 232 234 235 234 235 233 236 240 246 246 248 248 247 242 235 231 
230 229 233 237 239 242 242 237 235 233 232 235 238 238 240 244 248 250 252 
253 252 255 255 254 251 251 247 248 244 242 241 241 239 242 243 241 239 245 
246 245 245 245 241 242 237 235 233 232 236 236 238 239 240 236 230 225 229 
232 235 236 236 236 240 241 242 244 246 243 237 236 235 237 240 243 245 249 
248 243 237 235 235 234 237 240 242 248 254 254 254 255 255 255 253 253 251 
249 246 246 244 243 243 243 240 243 244 244 245 248 248 249 245 243 240 241 
238 236 240 242 247 245 240 245 243 241 238 238 235 239 239 239 239 238 241 
243 242 243 244 242 241 241 241 240 248 250 251 250 251 245 243 241 237 236 
237 239 241 245 251 252 252 254 253 252 250 249 248 249 248 247 245 244 245 
246 245 244 245 246 248 249 249 249 247 246 246 245 242 241 243 245 248 249 
244 246 244 245 243 240 239 242 243 244 241 242 243 244 241 242 242 243 242 
242 245 245 251 252 253 255 253 249 251 246 241 237 237 238 242 245 248 249 
248 251 251 250 248 249 249 248 247 245 241 241 245 248 248 244 242 243 247 
249 249 250 250 248 248 248 245 245 246 248 250 249 247 247 246 245 243 241 
240 240 242 243 244 246 246 247 246 245 243 246 246 244 247 246 248 249 251 
252 250 248 248 248 244 238 237 238 240 240 243 245 245 245 245 252 252 250 
252 252 248 242 238 239 244 247 249 246 242 244 246 247 248 248 247 247 247 
248 247 247 249 252 255 253 251 251 249 247 241 240 238 240 240 241 245 247 
247 248 249 249 247 247 248 247 247 247 251 251 252 252 251 248 246 246 245 
243 244 244 245 246 250 250 250 250 251 255 255 255 255 252 249 247 244 242 
245 248 249 247 246 247 245 246 248 249 249 248 247 247 248 247 250 252 253 
254 254 252 251 249 242 241 240 241 241 241 245 248 249 254 255 251 250 249 
248 249 250 247 249 251 252 249 246 243 240 244 245 243 246 243 244 247 250 
253 255 255 254 255 255 255 253 250 249 251 250 248 247 249 250 248 248 249 
247 249 250 251 250 247 243 243 246 247 250 253 255 255 255 255 254 252 248 
245 244 242 241 241 243 247 251 253 254 252 249 250 250 251 253 249 252 252 
251 247 244 240 241 243 242 241 245 245 246 248 251 254 254 255 255 
