P2
#output from hocrtest
80 80
255
253 251 252 248 252 252 252 249 250 252 253 253 255 255 255 251 246 247 243 
234 243 244 235 251 248 255 254 252 255 255 252 248 251 252 249 254 254 255 
252 253 247 253 253 251 251 252 249 251 249 243 248 254 249 246 247 250 241 
242 242 234 250 254 255 251 252 248 238 250 250 248 247 247 249 245 251 252 
253 255 255 255 255 255 253 250 250 249 248 246 248 249 251 252 254 255 255 
252 249 246 246 244 245 245 243 251 252 255 254 255 255 253 251 249 250 251 
251 253 253 254 253 254 253 255 255 251 248 250 251 251 251 251 252 254 250 
251 250 247 239 237 238 241 250 252 253 253 252 248 244 248 248 247 246 249 
250 249 250 251 252 253 254 254 250 253 252 251 246 242 244 244 243 242 243 
244 251 251 251 251 249 250 251 251 249 247 246 249 252 251 252 255 253 250 
250 247 248 248 249 252 253 253 252 254 254 255 255 250 248 249 250 249 252 
253 254 255 253 251 249 247 242 244 244 246 250 250 253 254 252 249 244 245 
244 244 247 247 249 248 245 244 246 248 250 252 253 253 252 250 247 246 245 
244 242 245 245 245 249 251 252 249 248 252 251 250 248 247 243 245 248 248 
248 247 248 248 249 248 249 250 250 251 251 250 249 252 254 254 254 250 248 
249 251 247 249 250 253 254 251 252 250 248 246 249 247 245 247 246 250 252 
251 251 249 248 249 247 250 249 249 247 244 243 242 241 245 249 251 254 255 
252 251 249 248 248 248 249 249 250 254 253 250 247 246 245 245 244 242 242 
238 235 236 235 237 237 239 243 245 248 248 249 250 249 248 249 248 251 254 
252 252 250 246 250 253 251 248 250 250 250 250 249 249 248 247 245 243 245 
244 245 249 250 251 248 248 249 251 251 250 252 245 244 240 240 240 238 239 
241 252 252 249 248 249 247 244 247 246 248 251 251 251 251 246 242 242 243 
244 244 243 239 237 236 234 232 234 236 238 243 245 247 245 242 245 245 242 
242 243 244 246 246 248 250 248 251 253 251 250 251 251 251 252 249 249 248 
245 242 241 244 245 246 247 246 245 243 243 243 242 244 248 248 247 245 240 
240 242 244 246 246 250 248 246 246 245 241 239 241 245 247 249 250 249 249 
245 245 244 242 243 244 243 239 236 235 234 235 235 233 235 239 238 239 240 
238 237 237 236 232 232 232 233 241 246 246 247 251 252 250 249 250 248 245 
246 244 246 246 243 241 239 238 239 243 242 242 241 237 237 239 238 239 242 
244 243 243 240 241 242 245 246 246 252 250 248 248 245 239 234 239 242 242 
245 245 243 242 244 246 246 244 246 246 243 238 237 238 238 239 239 238 238 
240 240 238 237 234 232 229 228 226 228 227 229 234 235 239 246 252 255 247 
244 242 243 243 243 244 244 242 240 240 240 239 241 243 243 243 242 242 240 
239 236 235 237 241 242 241 237 237 238 241 245 247 255 255 252 250 249 247 
242 240 242 243 244 243 237 236 241 243 240 238 238 236 236 234 232 233 233 
236 237 237 238 239 236 237 234 233 233 232 231 231 231 232 235 233 230 233 
245 249 248 239 235 236 238 238 239 240 241 239 238 238 242 242 240 242 241 
241 238 237 232 228 230 232 233 238 241 239 237 237 237 241 240 241 255 255 
254 252 252 251 248 245 243 240 241 238 234 235 237 238 237 235 235 235 234 
235 232 232 236 235 237 237 238 240 238 237 235 234 233 237 235 235 234 231 
233 232 231 230 241 247 244 236 232 232 233 235 239 239 236 236 235 236 239 
238 236 235 236 237 233 229 226 226 228 232 239 242 243 240 238 239 241 244 
246 248 254 255 253 252 252 251 249 246 242 236 234 234 232 233 233 234 232 
231 231 234 232 235 235 234 237 238 239 238 238 239 237 235 232 228 231 234 
235 235 234 231 231 230 229 232 239 240 237 231 229 229 232 234 235 235 237 
235 236 233 232 232 231 234 233 234 234 233 233 231 232 233 239 241 243 241 
239 240 241 244 246 248 249 246 247 250 250 249 247 242 237 233 227 227 230 
230 231 232 230 231 231 232 235 235 234 233 235 236 237 238 238 239 237 235 
230 228 230 231 236 236 234 233 231 229 227 232 237 239 233 229 227 222 225 
228 231 228 230 229 230 225 226 228 227 233 235 234 235 236 236 235 232 234 
237 236 238 240 236 234 237 242 247 250 249 247 246 253 252 250 248 246 241 
234 230 227 227 227 228 228 228 229 228 230 234 233 235 238 237 234 235 238 
236 238 235 232 231 230 230 230 232 231 230 227 226 228 230 234 234 235 230 
226 225 220 217 229 229 228 227 231 232 229 228 227 223 228 229 232 234 234 
234 233 230 233 237 240 241 242 240 238 237 240 242 244 251 252 249 254 253 
251 247 243 241 235 229 226 226 227 225 224 226 225 224 227 226 230 230 233 
235 234 234 235 234 233 231 229 229 228 227 227 225 228 227 228 229 231 232 
234 233 235 232 227 223 217 217 225 227 227 229 228 225 225 225 222 220 223 
224 231 233 233 231 230 229 231 234 237 240 244 245 243 241 240 239 241 253 
253 249 252 252 252 250 246 240 238 231 229 228 227 226 224 222 221 221 222 
221 223 228 231 232 229 230 226 224 223 225 223 226 225 227 226 223 225 226 
228 226 227 226 229 229 228 230 231 226 221 223 229 229 230 230 228 227 228 
228 229 226 224 223 226 226 230 231 232 232 231 233 241 244 248 248 249 248 
247 246 246 248 247 248 251 251 249 247 240 235 234 228 229 228 228 227 225 
223 220 222 224 227 222 222 229 230 229 230 227 224 222 220 217 221 224 227 
226 225 227 227 229 225 221 219 222 224 222 226 226 226 224 227 225 226 227 
227 228 226 229 229 231 227 228 227 229 228 229 227 227 230 231 237 243 247 
250 254 254 253 251 250 251 247 246 245 247 247 245 245 240 236 233 226 228 
229 227 225 224 220 219 220 218 219 218 215 218 220 219 224 223 219 221 218 
216 219 222 224 226 225 226 226 225 224 222 218 217 218 217 222 225 225 226 
226 226 226 227 229 228 230 230 233 233 230 231 231 232 230 230 228 227 229 
233 235 239 244 253 254 253 255 255 255 255 250 247 244 243 244 247 246 243 
240 237 234 233 231 226 224 224 223 219 217 218 219 216 214 213 215 213 217 
215 214 218 217 216 220 221 222 225 225 227 227 225 221 222 216 213 212 210 
213 217 220 221 225 227 226 224 224 225 226 227 228 225 223 224 229 232 232 
228 228 229 228 233 237 238 242 247 252 251 253 255 255 255 247 245 239 237 
238 243 243 243 243 241 236 237 233 229 227 224 221 218 216 216 216 219 217 
216 214 216 216 215 216 218 218 217 221 223 224 224 222 223 224 225 220 221 
217 214 214 214 217 216 216 215 223 225 221 221 220 219 220 222 220 220 221 
217 218 226 227 226 227 227 229 233 235 235 240 245 248 249 252 253 255 255 
245 243 238 231 238 240 242 241 239 240 238 238 234 228 226 223 219 215 213 
216 217 217 218 218 215 212 213 212 214 218 219 218 216 216 216 215 214 215 
218 219 216 218 217 216 217 217 218 217 212 213 217 218 218 216 216 213 214 
218 221 223 221 216 215 216 217 221 223 225 226 228 230 233 238 243 245 249 
251 250 248 245 241 241 240 238 240 243 243 241 237 233 230 230 227 224 226 
226 222 219 217 216 215 215 214 213 209 210 209 211 214 218 219 217 217 218 
218 218 216 215 217 211 210 211 209 213 218 218 217 216 213 215 214 213 213 
213 210 209 213 216 220 225 225 218 214 214 214 213 218 225 229 232 234 236 
239 243 246 248 252 251 251 251 241 240 244 244 246 246 242 235 228 226 226 
222 220 221 223 222 219 216 216 216 214 212 209 207 204 208 209 214 220 223 
220 219 219 220 220 221 218 216 216 212 210 210 206 210 213 217 218 216 215 
212 210 209 211 210 208 207 209 213 215 221 221 217 215 215 214 216 220 227 
232 237 239 244 247 252 251 250 249 251 251 248 246 247 250 249 248 244 238 
230 227 225 227 227 224 222 223 222 224 221 218 215 211 210 208 209 208 211 
216 217 221 221 224 216 216 218 220 218 217 215 212 210 207 207 207 209 211 
215 216 214 215 211 210 213 212 211 211 208 209 212 213 217 218 217 218 219 
220 224 226 228 233 235 238 240 244 248 250 249 251 253 254 252 250 254 252 
251 249 248 243 238 233 231 233 231 229 224 229 229 226 226 224 219 216 215 
216 221 220 216 218 219 218 216 215 213 214 216 218 217 213 211 208 206 204 
205 208 210 213 215 213 213 215 213 214 215 212 211 213 213 214 215 214 218 
219 218 219 224 227 228 228 227 229 233 235 236 239 242 247 250 249 249 249 
246 255 254 251 250 251 247 241 238 235 232 233 232 230 230 233 230 224 222 
220 216 213 213 214 219 219 213 215 215 216 215 210 208 208 209 211 210 208 
206 204 203 205 206 207 206 208 214 211 210 213 214 212 212 212 212 214 213 
211 207 206 207 213 219 221 225 227 228 228 226 225 227 229 228 236 240 241 
245 250 251 253 252 255 253 252 251 250 248 243 240 239 238 235 233 232 229 
229 230 228 221 219 215 213 214 214 216 214 214 213 213 211 218 213 210 207 
208 211 211 206 203 200 197 201 203 203 204 209 213 211 210 208 208 208 208 
207 204 204 205 208 205 207 204 207 216 219 222 225 226 228 229 230 230 231 
233 236 237 240 245 248 249 253 253 255 253 251 250 248 246 243 243 241 238 
238 236 235 233 230 229 228 218 214 215 215 213 215 217 216 213 212 210 209 
209 205 201 202 206 209 210 206 201 200 198 197 197 198 201 205 207 210 206 
204 201 201 204 203 200 199 205 208 206 206 209 213 217 221 220 223 226 228 
233 235 234 234 235 236 236 240 242 243 245 249 249 252 249 243 242 244 246 
244 243 240 238 235 234 233 231 229 229 227 213 211 211 209 208 210 213 213 
213 206 206 208 208 202 203 202 201 203 204 201 201 202 203 200 198 194 197 
201 203 206 204 203 201 200 201 201 204 209 212 211 212 215 217 220 225 226 
225 224 225 227 230 233 230 231 237 237 240 244 244 245 247 250 250 250 248 
245 241 239 242 241 240 239 235 236 238 235 233 234 232 229 218 213 211 210 
210 206 207 207 207 203 194 192 193 196 198 198 194 195 193 193 199 202 202 
200 195 191 192 192 196 195 192 191 192 197 197 197 199 208 214 216 219 217 
219 223 225 225 223 225 225 229 229 231 231 231 235 239 243 244 244 247 248 
248 247 247 248 246 244 240 241 237 236 236 232 231 233 233 234 236 233 228 
222 218 210 208 210 208 208 203 204 200 191 190 191 193 192 194 192 193 191 
194 197 199 204 202 194 190 187 188 191 190 192 192 194 195 195 194 199 205 
210 213 215 217 220 223 226 225 227 227 225 228 233 231 234 238 236 241 244 
247 250 255 252 253 255 252 251 246 244 245 244 242 243 240 238 235 233 233 
231 232 231 223 221 218 216 214 208 205 203 200 199 198 192 193 192 193 193 
191 191 190 192 196 196 196 202 202 196 190 188 191 193 192 190 195 194 193 
196 198 203 208 212 210 210 212 215 217 219 219 221 225 225 228 229 226 228 
228 230 236 240 246 248 251 252 254 255 247 250 248 246 248 247 246 241 238 
238 235 232 230 230 230 232 230 228 221 217 211 208 204 204 201 199 200 200 
198 200 197 197 194 192 193 195 198 198 196 202 202 197 192 190 192 192 191 
188 189 189 190 193 197 202 205 209 207 203 208 212 214 215 214 215 224 230 
231 230 230 233 235 239 242 243 247 250 251 252 254 255 246 248 247 247 248 
248 248 244 241 239 235 231 229 226 230 232 232 228 220 217 215 210 207 204 
200 202 203 203 201 202 198 195 195 194 193 193 194 195 194 200 198 194 192 
190 193 192 188 186 186 186 190 193 195 207 209 210 209 210 211 213 215 213 
215 217 222 225 224 224 223 229 232 238 242 246 249 252 253 249 246 245 247 
248 249 250 248 249 250 249 246 242 234 231 225 220 223 226 226 226 226 221 
215 207 206 206 202 202 202 203 203 202 199 196 196 196 193 190 188 187 190 
193 192 190 188 187 189 190 188 188 188 190 196 200 204 211 210 211 213 215 
216 217 214 210 213 219 223 228 230 229 226 228 229 235 239 243 245 247 245 
244 243 243 244 245 246 246 246 247 249 246 246 243 238 231 224 220 219 217 
217 219 222 219 214 209 209 206 200 201 201 202 202 201 199 196 195 195 195 
189 181 178 180 181 182 185 187 188 192 196 200 201 198 196 199 201 204 204 
204 205 208 213 219 219 218 221 223 225 228 230 231 231 228 228 229 233 238 
242 244 247 245 244 245 245 248 247 246 246 246 247 246 244 243 238 238 232 
225 224 225 225 223 222 221 218 214 211 213 208 204 204 205 201 201 197 189 
188 188 192 193 188 183 182 179 180 181 178 179 187 192 196 200 198 196 192 
197 201 203 204 205 208 212 211 216 216 218 217 221 225 228 228 229 230 228 
230 233 235 239 241 242 246 248 247 246 247 252 251 249 249 247 247 245 244 
241 240 236 233 231 232 231 227 225 222 221 217 215 213 211 209 208 204 204 
206 204 198 193 189 189 188 190 190 186 184 183 182 181 181 182 185 185 189 
194 193 194 194 196 201 202 203 205 207 210 211 214 215 215 216 215 217 220 
224 224 223 226 232 234 237 240 241 243 245 246 246 243 242 254 254 250 245 
244 244 241 240 235 233 234 233 234 236 234 230 224 222 222 219 219 219 216 
212 210 208 208 206 204 201 194 191 190 185 185 185 183 182 184 184 184 185 
184 184 185 187 187 190 194 199 199 201 199 203 205 207 206 208 210 207 206 
215 216 220 224 228 229 231 232 232 234 233 236 238 240 240 243 244 244 245 
253 253 251 248 247 246 243 242 238 236 234 228 225 227 228 226 224 221 221 
219 219 212 211 208 207 206 206 205 203 204 199 190 186 182 181 180 181 184 
186 189 185 186 182 179 180 186 188 190 198 201 199 199 197 200 203 201 200 
206 210 211 211 216 219 224 229 229 229 227 231 235 239 239 240 241 242 242 
243 245 245 247 251 253 250 245 246 244 240 239 236 232 231 230 228 225 224 
221 220 221 219 216 216 212 208 208 207 207 207 211 209 206 203 195 189 187 
184 182 182 184 187 187 186 186 183 182 184 187 189 193 197 200 198 196 195 
198 207 209 209 212 214 216 218 222 225 227 227 225 226 226 226 227 236 238 
242 240 244 245 248 247 246 247 251 252 249 242 242 240 241 239 236 232 231 
226 223 216 217 216 218 218 215 212 214 210 209 212 211 210 210 207 205 200 
198 191 187 185 184 185 184 184 186 187 184 183 183 187 189 192 196 198 199 
201 198 198 196 198 204 203 210 211 212 215 216 215 217 222 222 224 226 228 
229 231 232 233 238 241 245 246 248 247 243 243 244 249 251 248 247 244 245 
242 236 231 229 225 220 213 215 215 215 215 213 213 215 212 212 210 208 208 
206 209 209 200 198 193 186 181 181 181 183 187 186 182 177 177 181 187 189 
190 192 195 195 195 197 201 203 201 206 210 214 216 216 216 215 216 219 221 
224 226 228 229 230 231 235 237 238 243 243 245 248 248 244 244 252 255 255 
254 252 250 248 246 241 233 228 224 219 216 221 221 220 222 220 220 220 219 
218 211 209 210 209 209 206 205 202 196 190 187 186 187 188 189 185 180 176 
179 181 186 189 191 190 190 194 194 198 202 199 194 197 201 207 214 218 217 
218 218 220 220 222 226 226 228 231 235 239 242 243 247 250 250 251 248 245 
246 251 251 253 253 253 248 249 245 241 237 231 228 223 220 223 224 225 226 
220 220 218 216 213 207 207 208 207 207 207 203 197 196 192 192 191 192 190 
190 184 179 177 179 179 184 189 192 193 192 196 197 200 202 199 198 197 199 
202 211 220 221 222 222 223 221 224 225 228 230 232 236 238 241 245 247 248 
250 249 247 247 246 251 252 245 246 248 250 247 246 239 235 226 224 221 222 
224 224 221 222 215 215 209 211 212 212 213 212 212 206 203 201 198 196 194 
193 191 190 186 186 178 179 179 184 185 191 194 194 198 196 198 200 205 210 
211 210 209 209 209 212 216 219 221 220 220 223 225 228 230 232 233 234 236 
238 242 247 250 252 253 252 254 255 247 249 246 246 248 248 245 245 237 230 
225 225 222 222 222 223 223 219 213 208 206 204 208 210 213 214 211 205 202 
200 198 195 196 194 191 188 184 184 181 181 181 187 188 188 194 197 196 192 
190 193 197 201 207 212 212 214 217 217 213 214 214 218 223 226 225 227 229 
231 235 233 233 235 240 248 252 248 250 249 250 254 245 246 246 245 245 244 
245 243 240 230 224 222 221 221 221 222 220 218 210 206 205 206 209 216 219 
217 213 206 202 198 195 193 191 188 188 188 183 186 187 187 187 190 189 190 
194 194 193 191 189 188 190 197 203 208 216 219 219 213 211 211 211 217 223 
224 225 226 226 232 237 233 235 238 242 245 245 242 242 241 242 241 244 240 
240 239 237 237 235 237 237 231 230 223 220 218 219 219 218 216 209 206 207 
208 210 214 216 212 211 207 201 197 196 193 191 189 190 189 186 189 189 188 
188 190 191 192 191 192 191 190 186 186 190 196 203 209 215 216 216 213 212 
212 213 219 222 225 228 226 227 232 233 231 229 233 235 241 243 242 241 240 
237 234 236 234 235 235 236 238 235 238 238 234 232 226 220 218 216 217 218 
218 216 216 212 212 210 211 213 210 209 209 204 199 195 192 190 189 190 189 
187 187 187 187 191 193 191 192 188 189 191 191 191 191 194 197 204 209 214 
214 211 212 210 210 216 222 223 226 228 224 226 229 230 228 227 230 234 238 
240 240 242 242 241 241 234 233 233 228 230 233 234 235 234 231 229 226 222 
217 216 216 221 225 226 226 225 220 214 212 210 208 206 206 202 197 194 191 
189 192 193 195 195 193 190 189 190 192 189 187 187 192 192 192 190 189 193 
197 203 206 211 211 209 212 214 212 222 228 228 227 225 226 227 227 229 229 
229 232 237 239 241 241 241 241 242 244 239 236 233 233 234 233 235 235 234 
231 230 228 221 219 217 214 216 224 227 225 223 222 217 212 209 205 204 201 
198 198 195 195 197 201 203 202 202 197 196 197 195 194 193 188 191 194 197 
197 196 195 194 200 207 209 211 210 210 212 218 223 231 235 231 229 228 225 
227 224 228 229 234 236 239 240 242 244 244 244 242 239 249 248 244 241 238 
237 235 234 233 232 229 228 226 223 221 220 219 221 222 218 216 214 211 209 
206 205 202 199 196 195 191 192 194 197 199 199 200 199 200 201 198 195 194 
194 195 198 198 196 195 197 196 202 206 207 207 206 208 211 216 221 223 224 
224 228 230 230 227 225 232 233 230 234 237 239 245 248 252 252 253 254 250 
251 248 245 244 240 237 235 235 232 227 227 224 225 222 219 218 221 220 215 
213 212 209 206 206 204 202 198 197 195 192 193 193 195 197 197 197 195 196 
195 197 197 199 198 197 200 197 195 194 200 200 203 205 204 205 203 202 202 
204 209 214 219 217 220 227 226 226 228 232 231 231 232 235 239 245 246 248 
249 248 247 252 252 251 248 245 241 241 240 240 236 231 226 225 225 222 218 
215 213 209 206 206 209 208 205 205 202 202 202 203 203 199 197 197 197 194 
193 193 193 195 198 203 202 200 201 199 200 197 197 195 200 201 201 203 200 
199 203 202 202 204 206 211 215 216 222 229 227 224 224 226 226 228 235 237 
240 244 250 247 247 241 234 251 252 255 250 249 245 244 241 240 241 234 230 
228 226 222 219 216 211 212 208 207 208 208 208 208 205 206 206 206 204 203 
202 201 201 194 192 193 193 196 199 201 196 197 198 198 201 201 200 198 198 
200 202 204 200 200 204 206 209 211 212 218 222 225 232 237 235 230 226 226 
225 225 226 233 236 244 247 247 246 241 239 255 255 254 252 250 249 246 242 
240 239 235 233 228 226 224 223 219 219 220 215 213 212 212 209 209 209 213 
214 214 211 208 204 204 204 200 195 192 199 201 203 203 202 201 199 197 198 
198 200 199 199 197 200 199 203 206 208 212 211 219 222 224 223 224 229 234 
233 232 229 229 229 228 228 233 236 240 246 249 250 252 252 255 254 255 255 
253 247 243 237 236 236 233 230 227 224 223 222 223 220 220 215 212 210 208 
206 206 211 214 215 216 215 210 207 206 206 204 202 202 208 208 208 208 213 
211 211 211 211 209 208 208 208 206 209 212 215 215 211 211 214 220 222 222 
219 220 222 225 229 229 229 230 230 230 231 230 235 240 245 249 252 254 255 
255 255 255 255 255 248 245 238 238 237 235 232 228 222 222 219 220 218 217 
213 213 210 207 207 211 210 213 211 213 210 205 204 204 205 206 207 209 211 
210 210 206 208 211 213 214 215 215 215 215 212 206 210 211 215 216 216 215 
216 220 221 222 219 221 223 224 225 224 224 225 230 233 235 234 236 240 246 
250 252 254 251 255 255 255 255 254 249 244 240 237 235 233 232 228 226 222 
219 218 218 217 217 217 219 216 211 212 212 213 211 209 206 204 207 208 210 
210 210 209 208 209 209 205 201 206 208 207 211 213 212 208 207 203 208 211 
216 217 218 213 213 215 219 221 222 224 223 226 225 224 226 230 234 236 236 
237 240 243 246 250 252 252 252 255 255 255 251 249 243 241 237 233 233 231 
229 228 225 224 222 219 217 218 217 218 221 219 214 215 216 216 215 214 212 
211 211 212 212 209 210 211 209 210 210 210 211 211 212 211 212 213 214 209 
207 208 208 208 213 217 216 217 218 217 219 217 221 223 222 220 223 226 228 
234 234 234 237 235 237 242 243 249 250 252 255 255 253 253 250 247 243 238 
234 234 233 228 226 223 220 220 219 218 216 220 216 217 220 220 218 222 222 
224 223 220 217 216 216 216 213 209 208 209 211 212 213 214 214 213 212 213 
213 214 217 216 217 215 211 211 217 218 219 221 221 222 220 221 220 223 226 
226 226 227 228 230 232 236 239 241 241 241 243 249 253 253 253 253 253 253 
249 245 242 235 233 236 235 230 227 225 221 222 225 224 221 221 219 222 223 
223 222 221 219 220 223 221 219 219 218 217 217 215 215 215 216 214 216 219 
220 219 219 220 219 217 216 218 221 222 220 218 218 216 220 222 221 221 223 
223 223 222 228 227 227 227 227 229 231 236 240 243 240 238 241 246 246 251 
251 252 250 249 247 245 243 240 235 233 235 235 232 227 226 226 227 225 222 
221 222 224 224 222 223 221 221 223 225 224 222 225 225 224 224 224 222 219 
217 218 218 221 221 219 221 219 218 216 215 215 223 223 226 223 223 222 222 
221 221 222 223 220 219 221 223 227 227 230 232 233 233 232 237 239 241 241 
242 244 247 249 250 252 251 250 243 241 242 240 237 234 234 235 230 229 230 
229 229 228 226 227 230 231 227 223 221 224 225 228 229 226 226 226 225 226 
228 226 227 223 221 220 220 222 221 223 222 220 218 216 215 219 224 224 227 
225 226 222 220 218 221 223 224 221 220 224 224 228 226 225 231 234 233 232 
232 232 236 240 240 239 239 241 239 250 250 248 244 242 242 240 236 235 232 
232 230 229 232 228 229 230 229 230 233 233 233 232 232 232 230 229 230 229 
227 225 225 228 232 228 230 226 225 224 224 227 227 229 227 225 220 218 217 
218 221 222 224 224 226 225 222 221 222 223 225 224 223 226 227 227 229 228 
234 234 229 230 231 232 232 234 235 233 234 239 238 248 249 248 243 240 243 
240 238 236 235 234 233 235 232 230 229 227 230 234 232 231 232 235 234 232 
229 229 230 230 230 228 228 229 231 232 229 227 227 226 227 228 225 226 225 
223 221 219 219 220 225 231 232 232 231 228 226 223 227 226 227 225 225 229 
231 233 236 236 234 233 229 226 230 231 233 235 240 239 241 242 241 252 252 
253 247 244 242 241 241 239 237 232 228 231 231 233 233 230 233 231 230 228 
229 230 230 228 228 226 227 227 228 228 227 228 227 229 227 226 222 223 222 
221 218 222 224 225 225 223 217 224 228 236 235 237 233 227 229 227 225 226 
226 225 225 228 231 234 238 240 238 238 234 232 232 232 234 235 238 238 240 
243 245 252 251 250 246 247 246 245 242 240 236 230 230 229 230 233 233 234 
236 233 231 225 225 227 230 231 232 229 226 225 225 225 225 225 226 226 223 
225 227 230 230 228 222 220 224 223 222 223 226 230 233 236 241 241 239 234 
231 227 226 224 225 225 225 225 230 231 234 234 233 235 236 237 236 236 237 
241 241 240 239 243 245 252 251 246 243 240 242 242 241 237 234 229 228 230 
232 233 233 235 234 231 229 227 229 229 231 232 233 231 229 229 230 230 231 
230 232 233 231 231 231 231 231 231 228 222 223 223 223 224 225 228 229 236 
238 240 237 235 230 224 224 223 226 228 229 229 231 235 234 238 239 237 237 
239 240 242 243 246 245 243 241 243 241 250 251 247 243 243 242 241 239 236 
233 230 230 232 231 232 234 236 232 231 233 233 232 234 236 237 237 238 238 
237 241 241 242 239 237 232 230 230 233 235 233 231 230 224 226 223 224 224 
225 230 229 232 233 238 238 238 233 227 226 226 228 229 229 233 236 239 238 
241 241 240 238 238 239 240 242 245 245 245 246 248 248 244 244 245 241 240 
237 234 231 233 235 233 234 233 233 233 234 236 236 237 237 237 236 236 237 
239 242 239 240 241 244 246 247 244 240 235 234 232 236 237 238 234 232 225 
226 225 226 226 225 229 227 229 234 235 235 236 235 230 229 229 229 233 232 
235 235 236 236 237 241 239 238 240 240 239 241 245 246 248 251 252 252 241 
242 243 240 241 241 241 239 239 239 236 235 233 233 234 238 236 240 241 240 
239 237 236 238 240 240 240 238 240 241 244 249 248 244 241 238 236 234 235 
234 233 235 231 232 233 234 232 230 232 230 230 230 232 236 239 240 238 235 
233 233 233 231 234 236 236 236 238 239 241 239 241 241 239 241 244 248 250 
252 252 255 244 244 243 240 240 241 242 243 242 240 237 234 234 236 235 237 
238 239 239 240 238 239 240 239 237 237 237 236 238 241 245 249 245 245 242 
240 235 233 232 234 238 236 235 234 235 236 237 239 241 240 236 233 231 234 
239 241 241 240 238 236 233 230 233 236 237 236 238 242 242 242 242 241 239 
240 240 246 247 248 249 251 237 237 240 241 243 243 241 241 239 239 238 241 
238 237 232 230 235 236 239 239 242 240 240 238 234 236 234 235 237 240 242 
244 244 244 241 242 239 238 237 237 238 237 236 236 238 239 239 242 243 242 
238 238 235 239 242 240 242 241 241 239 235 233 233 233 233 233 239 240 240 
241 241 240 241 243 243 248 249 247 245 242 243 241 243 245 246 243 242 239 
239 239 238 237 238 238 237 232 231 234 239 243 244 244 245 242 241 240 238 
235 236 239 240 242 244 247 247 247 247 247 250 248 247 243 241 242 241 242 
243 245 245 245 243 240 240 241 245 245 248 244 243 240 235 231 232 234 233 
234 240 240 238 239 238 241 244 246 248 249 248 245 241 243 247 245 243 244 
245 245 245 243 241 240 239 237 237 237 238 238 239 239 243 244 243 242 242 
244 243 239 237 236 239 241 241 246 250 249 248 247 247 248 253 252 251 249 
252 253 250 249 250 247 244 240 240 238 239 242 246 247 249 248 246 244 240 
239 239 237 238 240 240 242 239 240 243 246 246 247 247 250 252 249 246 245 
250 248 245 245 246 246 245 242 242 241 242 240 242 243 248 248 246 241 242 
242 240 239 240 239 237 236 235 239 242 242 244 246 248 248 248 246 245 244 
247 249 251 251 252 252 250 252 254 250 249 245 241 240 241 243 246 247 247 
252 251 251 247 245 243 242 242 245 248 250 245 243 244 247 247 247 248 251 
253 250 248 246 252 249 245 242 244 245 245 247 248 249 251 248 248 247 251 
251 248 247 244 239 240 240 240 240 241 242 243 246 245 244 250 249 251 250 
249 246 243 241 245 246 250 251 253 252 252 255 255 250 247 244 242 241 241 
243 249 249 249 250 248 246 244 245 246 246 248 249 251 250 247 246 246 247 
248 248 248 249 250 249 248 250 251 248 247 243 240 240 239 242 242 245 251 
249 251 252 253 251 251 251 249 248 247 244 242 241 242 243 243 245 247 246 
250 250 253 251 251 250 249 249 251 252 252 251 251 253 254 254 251 249 250 
249 249 249 249 250 251 249 247 246 244 241 240 238 241 242 248 251 254 250 
251 251 251 251 252 252 252 250 250 247 246 248 252 252 252 248 244 242 240 
242 243 243 247 245 246 251 251 250 248 246 248 249 249 247 246 244 241 239 
241 243 247 250 254 255 255 255 253 252 250 248 248 252 253 252 251 252 253 
255 255 254 255 254 254 255 254 252 250 249 248 242 237 238 238 237 240 244 
248 250 253 255 254 253 251 253 255 255 254 252 251 247 247 248 
