P2
#output from hocrtest
100 100
255
250 244 249 246 252 255 253 250 255 255 251 251 251 252 252 251 247 248 241 
230 242 243 239 249 243 248 250 245 250 255 253 249 251 254 255 255 253 254 
243 245 243 252 252 251 249 248 244 247 243 235 244 255 251 246 251 254 255 
253 252 239 244 250 250 247 251 248 243 251 251 252 249 246 250 247 250 254 
254 255 255 255 251 251 251 255 254 255 254 242 253 252 254 249 247 250 254 
255 254 238 251 251 249 248 249 250 252 253 253 253 255 252 249 248 249 249 
249 250 248 247 245 242 246 247 247 249 246 249 250 247 249 252 252 250 250 
253 255 251 249 248 241 243 246 249 251 249 247 246 247 247 244 241 246 250 
251 251 255 255 255 253 251 245 242 246 248 249 248 247 248 248 250 252 250 
248 250 250 249 252 253 253 253 254 250 249 249 253 252 252 252 249 252 250 
252 248 249 251 254 255 255 251 253 253 253 252 251 248 248 250 250 249 250 
248 248 247 248 249 248 248 246 245 243 243 244 246 251 253 251 249 246 244 
245 248 250 249 250 251 251 247 245 245 242 245 247 246 244 237 237 241 244 
243 243 240 244 246 249 253 253 253 253 253 253 253 251 251 250 251 251 250 
248 247 247 248 250 251 251 250 251 252 253 251 249 248 246 247 248 253 254 
254 252 248 252 251 255 252 250 251 252 251 251 250 249 245 253 252 251 250 
250 250 249 248 247 246 246 246 249 249 247 245 242 239 241 243 242 248 252 
252 251 250 248 247 247 249 249 248 250 251 251 249 247 243 242 245 247 244 
239 237 237 238 240 239 239 240 242 246 248 251 252 252 253 254 254 252 250 
252 251 252 248 251 248 246 244 245 247 249 250 248 248 249 248 246 243 242 
238 239 243 251 254 254 252 249 252 253 253 252 247 247 245 247 247 246 244 
247 254 254 252 250 248 246 244 243 242 245 246 248 251 247 246 244 241 240 
241 243 245 248 250 250 248 245 243 245 246 248 249 249 249 248 249 248 246 
244 245 246 246 241 240 239 238 240 240 243 243 244 245 247 248 248 247 250 
251 251 252 255 252 251 251 248 247 245 244 244 241 242 244 249 250 251 246 
245 245 246 245 242 241 241 245 250 249 246 245 246 250 252 252 252 248 246 
244 244 243 242 244 247 252 252 248 245 241 241 242 238 241 244 244 242 249 
249 247 244 241 238 239 240 242 246 248 249 248 249 249 250 250 249 250 247 
247 244 245 244 243 243 245 244 243 245 244 242 242 238 238 241 243 244 246 
246 244 243 244 246 247 248 247 249 249 246 243 244 243 240 238 242 243 244 
246 248 247 247 247 246 246 246 249 247 242 241 243 246 249 245 245 247 248 
248 250 248 244 241 240 238 239 240 242 240 249 249 247 245 243 243 244 241 
241 243 246 246 247 246 245 243 241 240 238 237 243 246 247 248 248 250 251 
253 247 244 245 245 243 242 241 240 241 240 244 244 245 245 245 244 243 241 
239 240 242 245 246 246 244 242 243 245 242 244 245 247 245 240 238 238 239 
243 243 243 243 243 242 244 245 246 243 241 242 243 245 245 243 241 239 239 
243 245 242 241 244 245 245 243 240 239 240 241 242 243 246 247 252 251 248 
246 244 243 239 235 236 238 236 238 241 242 243 242 241 239 238 238 240 243 
245 246 248 250 249 248 245 241 241 238 238 239 239 239 241 239 241 240 240 
241 239 240 242 240 240 240 239 241 241 241 240 242 241 243 240 243 245 246 
242 238 236 236 239 242 242 240 238 238 236 238 241 242 238 238 239 242 244 
244 241 237 237 239 242 241 235 236 238 239 241 240 239 238 240 242 242 243 
243 245 250 250 248 247 245 246 242 240 239 237 235 236 235 237 240 240 239 
238 236 236 238 239 241 243 247 247 249 246 245 243 238 237 237 234 232 234 
235 233 235 234 236 236 237 238 242 241 240 237 234 235 236 236 235 236 238 
239 240 240 240 240 236 235 232 231 233 235 236 235 235 235 237 240 242 243 
239 238 237 238 239 240 239 236 236 237 241 239 236 236 234 237 237 236 238 
240 241 243 244 244 245 242 250 250 248 245 244 244 242 239 239 239 237 236 
233 232 232 233 238 239 239 238 235 234 235 239 243 245 245 243 241 239 236 
237 234 233 232 231 233 229 230 231 230 233 235 236 239 239 238 236 232 233 
231 230 230 232 231 229 230 233 236 237 234 234 233 233 234 235 237 237 235 
235 237 235 236 237 235 234 234 236 236 237 239 238 238 239 241 239 241 238 
235 237 236 235 235 237 242 245 246 247 248 247 252 251 248 247 245 242 237 
236 237 235 231 233 234 232 234 237 238 237 238 238 231 231 232 236 239 241 
245 242 239 240 239 238 234 231 230 231 229 229 230 232 232 231 230 233 234 
234 232 230 231 231 228 228 229 231 230 228 229 228 230 234 233 236 232 233 
234 234 234 235 235 234 233 234 236 236 231 231 228 232 231 234 236 237 236 
235 236 240 240 236 234 233 231 234 235 236 242 245 243 246 246 242 254 254 
250 250 245 240 238 236 234 234 231 230 231 232 233 232 231 228 229 232 231 
232 231 233 237 240 241 242 241 240 237 234 234 231 229 231 228 230 231 230 
228 225 228 231 233 229 230 228 228 229 229 229 228 228 228 228 228 227 229 
233 233 235 234 234 234 233 234 233 231 230 231 233 233 235 234 229 228 231 
231 236 235 232 229 228 231 236 238 236 234 231 231 234 236 238 240 246 246 
247 249 248 255 249 249 248 244 239 238 234 230 231 229 230 230 232 233 231 
229 226 228 230 230 230 230 235 238 237 239 240 239 237 233 229 230 232 233 
233 235 237 238 236 231 227 225 227 227 223 224 223 227 225 225 224 226 226 
227 229 227 229 229 232 234 235 234 233 234 234 232 228 228 227 231 233 234 
235 235 235 236 232 230 232 231 231 229 227 230 229 230 229 228 227 226 230 
233 235 238 244 245 247 248 246 250 248 247 246 240 234 234 233 232 232 229 
229 230 231 231 231 228 224 225 225 226 229 228 231 234 232 234 235 233 234 
232 230 231 233 235 235 237 239 239 235 232 228 223 223 221 220 218 217 222 
224 225 224 227 231 233 231 233 232 233 235 236 235 233 230 229 232 231 228 
227 228 229 229 231 230 230 232 231 226 220 223 223 224 224 224 227 224 225 
224 222 229 232 232 237 236 239 243 244 246 247 248 245 245 245 243 236 232 
230 232 233 232 234 232 229 231 232 231 229 227 227 223 222 224 228 230 232 
230 230 233 231 233 232 229 231 232 230 229 232 234 234 233 229 224 219 218 
216 216 215 213 220 223 225 226 226 228 229 227 227 225 229 232 232 234 232 
226 223 226 225 224 224 223 226 227 230 230 232 231 229 225 224 225 224 225 
225 225 227 224 226 224 224 227 231 233 236 237 241 244 244 244 242 243 243 
241 242 239 240 235 235 233 235 235 234 232 232 231 230 226 226 226 225 224 
224 220 220 222 225 228 230 232 234 237 234 232 230 228 224 222 221 221 221 
222 223 221 222 222 220 217 218 216 219 223 224 224 223 226 227 224 223 224 
227 231 231 231 228 225 222 223 224 221 220 222 225 226 226 226 228 229 228 
225 226 225 223 222 222 222 222 227 228 226 226 226 227 229 231 237 240 243 
244 242 239 238 240 240 239 238 237 236 237 237 236 235 231 235 234 231 231 
229 227 227 225 224 224 223 221 220 221 225 225 229 231 230 229 225 225 227 
224 220 219 220 219 214 216 218 218 220 222 220 221 221 219 223 224 225 224 
227 226 223 224 228 230 233 229 224 222 222 220 218 218 219 221 222 222 224 
223 223 223 227 226 224 223 221 217 216 218 220 222 225 229 229 229 229 230 
229 233 239 244 245 242 243 243 244 241 240 240 240 239 240 240 238 239 238 
234 235 235 232 231 230 228 226 225 225 225 222 217 220 220 223 225 227 228 
224 222 222 222 221 219 217 217 218 218 219 220 217 218 221 218 219 220 221 
220 222 223 226 228 228 228 224 223 228 228 228 226 223 222 221 216 217 214 
213 216 217 222 225 226 222 223 223 222 221 219 215 211 212 215 217 221 225 
231 232 234 237 237 236 237 242 246 249 247 248 247 248 242 243 244 247 248 
248 247 242 240 238 234 232 234 233 229 224 224 222 222 223 221 220 219 221 
221 223 223 225 225 221 222 225 226 224 221 218 217 216 216 215 215 218 220 
223 220 220 220 220 219 216 215 218 217 219 223 223 222 224 227 227 226 223 
222 222 220 219 219 221 221 221 225 228 228 228 226 223 219 217 215 213 211 
215 221 222 226 228 229 231 234 236 238 239 239 241 245 248 249 251 251 252 
250 249 248 251 254 253 250 245 240 238 235 231 232 230 228 225 222 219 217 
217 218 216 215 221 220 220 220 221 219 217 220 224 224 224 225 222 215 213 
211 210 212 214 216 220 219 217 220 221 220 218 212 212 212 214 217 218 218 
217 219 220 222 218 216 216 217 220 220 220 218 220 220 219 223 222 222 221 
216 213 212 213 215 220 222 225 228 228 229 228 228 232 234 233 238 242 245 
248 250 250 251 253 255 253 252 252 253 254 251 245 243 239 235 232 232 229 
226 223 218 216 214 211 211 211 214 218 219 219 219 218 217 220 222 225 223 
223 222 221 216 213 211 208 212 215 213 215 218 219 219 220 219 218 215 214 
212 211 211 212 214 213 215 212 214 214 211 213 214 214 217 218 217 215 212 
213 215 213 216 216 218 218 219 219 219 220 223 225 225 228 228 229 231 233 
237 240 244 245 247 249 250 250 249 249 255 254 254 253 252 250 249 246 242 
239 236 230 231 231 229 222 216 211 211 208 206 207 209 214 216 215 216 213 
211 209 212 220 220 214 214 214 214 210 210 211 215 214 215 210 213 216 216 
218 218 216 215 216 213 209 210 210 209 212 214 213 213 210 204 205 206 210 
212 213 213 211 207 208 210 212 216 218 220 217 215 217 217 218 220 224 226 
227 226 227 231 234 234 239 241 243 247 252 252 253 253 253 252 250 246 247 
249 247 248 245 244 240 236 235 234 234 232 226 216 212 214 215 214 216 215 
213 210 208 208 208 208 207 209 214 215 214 214 215 211 208 210 211 211 212 
210 208 209 213 214 214 209 209 213 215 212 208 208 211 213 209 209 207 209 
207 202 203 204 204 208 208 208 207 206 205 205 207 213 215 213 217 218 220 
220 219 218 220 220 223 225 226 219 227 236 239 240 241 247 253 255 255 255 
255 252 251 248 247 248 246 246 242 241 237 235 236 235 232 228 221 215 213 
212 213 211 212 210 207 203 202 200 199 200 199 204 209 210 214 213 212 208 
206 206 203 205 208 209 210 209 213 209 206 206 205 208 210 210 207 207 208 
208 206 205 206 207 203 201 200 202 204 206 208 206 205 202 199 199 200 207 
210 215 216 217 219 220 222 222 224 224 224 223 222 223 236 242 240 244 248 
250 253 254 255 255 255 247 247 247 246 247 246 244 242 241 240 238 237 236 
233 230 225 218 217 217 219 218 214 207 203 199 198 198 196 200 199 203 204 
204 206 206 208 207 203 202 203 205 205 205 205 209 213 215 213 213 209 209 
210 209 206 205 203 203 202 203 205 207 207 206 206 209 207 207 207 203 200 
195 193 194 197 202 203 210 212 214 218 220 221 222 219 222 224 225 224 224 
235 238 241 244 247 250 250 250 251 252 255 238 238 241 244 243 242 243 242 
238 238 235 235 234 232 230 227 223 221 221 219 217 212 203 201 201 200 198 
196 198 198 201 202 203 206 206 207 203 198 198 201 203 203 204 205 211 217 
219 220 215 213 213 212 208 203 203 203 201 203 205 208 206 206 205 210 211 
208 208 206 204 202 200 197 199 197 198 201 208 212 213 217 221 223 225 222 
221 223 223 225 222 233 237 240 244 245 246 246 248 248 247 248 238 236 240 
243 245 244 243 239 233 230 229 227 226 231 229 227 223 219 216 215 212 207 
201 200 200 200 197 197 197 199 200 202 202 204 205 206 202 198 196 200 199 
201 205 208 208 214 215 216 212 209 207 206 203 197 198 202 201 201 205 205 
203 202 204 207 208 207 208 207 206 206 204 201 200 198 197 198 205 208 212 
216 220 222 224 223 222 222 221 224 227 233 239 246 248 250 248 250 250 249 
248 249 236 232 235 240 244 246 244 241 236 229 229 230 230 230 228 226 223 
217 214 212 208 204 201 199 201 199 200 198 201 203 201 198 195 196 197 197 
195 199 200 201 200 199 202 203 203 206 204 205 204 203 205 207 204 200 202 
201 199 197 197 197 200 202 205 208 208 209 210 207 205 204 204 201 200 198 
197 198 203 207 212 214 218 225 226 226 225 228 229 228 229 233 238 245 248 
250 250 252 250 251 250 250 243 242 241 244 245 245 242 239 237 231 231 230 
228 228 229 228 226 220 219 215 210 206 204 202 200 202 201 200 196 194 192 
192 193 197 198 197 196 198 197 198 200 197 199 201 204 206 205 203 198 195 
199 201 201 199 200 201 201 197 197 196 198 197 198 199 204 204 202 200 198 
199 200 200 200 199 200 203 207 211 214 214 218 223 225 227 225 227 229 230 
233 237 240 243 246 250 250 254 253 254 252 251 249 247 244 246 245 243 242 
240 241 237 235 233 234 233 232 230 226 221 216 213 209 206 204 202 204 205 
208 203 197 194 191 193 191 194 195 196 199 199 198 200 199 197 195 195 196 
199 198 198 197 199 199 200 199 200 200 202 200 197 193 191 193 193 192 192 
193 194 194 194 188 186 191 196 200 203 205 206 208 212 216 217 220 225 224 
224 225 229 230 230 233 238 240 241 244 247 249 250 250 253 251 251 255 255 
252 253 251 249 243 244 246 245 240 236 234 233 232 228 223 220 216 212 207 
208 204 204 206 209 207 202 195 191 189 187 189 191 190 190 194 193 193 196 
195 194 193 194 196 198 199 200 200 199 198 194 194 194 196 196 196 195 196 
195 195 192 192 190 191 192 190 192 189 192 191 192 194 197 202 204 210 213 
214 219 221 225 224 222 223 227 228 228 234 239 240 240 238 240 241 240 240 
248 249 252 251 251 251 250 249 247 245 241 243 244 244 239 236 232 226 221 
220 217 214 211 207 207 207 205 206 209 204 201 196 192 190 188 188 190 191 
191 192 193 193 193 194 193 191 193 194 198 201 203 201 200 199 194 192 191 
192 191 190 191 194 196 194 193 191 190 191 191 192 193 192 193 190 189 190 
194 208 212 215 216 218 218 220 225 226 225 224 224 226 227 230 233 237 237 
235 233 237 239 241 246 246 249 250 250 249 244 242 242 243 242 242 240 240 
236 231 224 218 219 220 218 213 208 206 205 207 210 209 208 205 201 196 188 
187 187 190 192 190 192 193 192 194 195 194 194 197 197 197 199 201 199 197 
197 191 189 186 186 189 189 192 193 192 193 192 189 186 187 188 190 192 191 
189 189 187 187 192 198 209 214 216 216 215 214 213 218 222 222 224 226 230 
232 234 234 233 234 232 230 232 234 239 243 244 243 248 248 246 243 244 244 
242 245 244 241 239 235 229 222 218 219 223 222 221 216 208 206 207 210 208 
206 203 201 199 191 190 189 190 192 196 195 194 193 189 189 187 189 192 195 
195 196 197 193 191 191 187 185 183 183 187 191 193 192 190 189 190 191 189 
188 188 190 193 195 195 193 190 190 189 193 204 208 211 213 213 213 215 219 
221 221 225 230 233 235 234 235 237 236 232 232 236 238 242 249 252 253 247 
248 247 246 245 245 243 244 244 240 240 238 230 223 220 220 222 224 224 219 
217 211 209 209 209 209 207 202 200 197 197 195 195 196 199 196 191 190 187 
187 187 188 191 194 194 195 195 191 190 191 190 189 185 183 187 190 192 193 
189 186 185 186 185 183 185 188 192 198 202 201 198 196 196 200 203 206 210 
211 211 212 213 215 215 219 225 230 234 233 236 235 236 235 235 235 236 238 
240 249 251 253 252 252 248 244 243 245 245 245 243 243 238 236 230 229 226 
225 222 221 220 217 215 211 205 205 209 208 205 203 199 197 192 190 190 191 
193 190 185 185 182 183 184 188 191 193 194 193 192 187 186 188 188 187 186 
186 187 189 189 190 185 180 179 183 182 184 185 188 195 199 205 207 209 208 
206 205 206 205 204 206 211 215 216 219 219 224 229 233 236 236 236 233 234 
235 238 239 241 244 244 247 246 245 252 254 250 246 245 244 243 242 241 235 
233 233 229 229 227 225 225 221 219 217 214 209 208 208 211 206 205 201 198 
195 192 191 192 192 195 189 187 184 181 183 183 186 188 188 191 191 190 184 
181 185 186 186 186 187 185 187 189 186 180 177 176 176 178 181 181 184 190 
194 199 206 207 204 204 204 207 204 205 205 208 214 212 218 222 228 231 231 
234 236 235 232 232 234 237 240 242 246 245 247 245 240 251 253 251 250 248 
247 246 242 240 235 232 230 228 226 227 228 225 224 223 221 216 219 217 213 
213 208 204 200 196 189 187 187 188 190 196 194 189 184 181 182 180 183 185 
185 183 184 181 181 182 182 185 185 182 183 182 179 178 177 178 176 176 174 
176 176 177 175 177 185 191 195 199 197 198 197 199 199 202 202 201 205 209 
214 221 228 231 231 231 234 235 235 235 235 239 243 246 248 248 250 251 252 
253 253 250 249 246 244 242 239 236 229 229 228 230 229 228 228 227 224 222 
220 218 219 213 211 209 204 201 201 196 191 186 184 185 187 192 192 188 184 
178 178 178 179 179 180 179 180 180 182 181 179 180 179 176 177 176 175 175 
175 176 178 176 176 178 179 180 180 181 187 190 191 195 197 195 194 194 193 
197 200 200 202 214 219 224 227 225 226 228 231 233 233 233 233 240 245 247 
250 249 247 246 242 253 252 249 246 243 239 237 235 233 228 228 229 228 228 
226 223 223 222 221 221 219 218 213 205 203 199 197 197 193 188 187 185 186 
187 187 189 189 187 185 183 185 182 179 179 178 179 180 181 181 177 174 173 
172 173 175 176 176 174 175 180 180 181 183 180 181 183 182 183 184 186 191 
195 197 197 200 200 200 204 208 209 217 221 223 225 224 224 226 227 229 228 
229 231 238 242 244 246 246 244 247 248 251 249 244 241 242 239 239 237 235 
231 231 230 227 227 223 219 218 221 222 225 225 223 218 213 208 203 201 198 
194 191 188 189 189 192 193 191 189 187 183 184 184 181 182 178 176 177 179 
181 177 175 171 170 171 172 175 175 174 174 177 180 182 184 185 185 184 184 
184 183 184 189 194 196 200 200 200 201 201 205 209 211 219 223 222 223 222 
223 224 225 226 227 225 230 235 239 242 244 245 245 245 244 250 248 247 246 
245 245 242 243 242 239 235 234 231 230 228 223 220 221 222 221 219 214 212 
208 209 205 202 198 196 196 191 190 189 189 190 187 185 183 181 184 183 181 
180 177 174 172 171 171 175 173 168 167 168 170 173 173 176 177 178 178 179 
180 181 187 187 186 186 186 187 190 193 195 196 201 201 202 205 210 215 217 
222 223 224 222 223 224 224 223 223 225 225 228 232 236 241 243 242 241 239 
235 250 251 249 248 247 247 243 243 240 240 236 238 237 234 231 225 222 219 
216 216 215 214 212 210 212 208 207 209 212 202 197 190 187 187 186 183 183 
180 177 177 177 178 175 171 168 165 166 168 171 170 167 163 163 168 168 167 
166 168 169 171 175 178 180 181 183 184 188 189 190 195 197 198 202 207 207 
208 210 211 215 218 225 227 227 229 229 228 226 227 225 228 227 229 233 236 
239 241 241 242 239 238 252 253 249 248 250 249 244 242 239 237 236 238 238 
236 234 231 225 220 215 212 213 215 217 215 216 212 210 208 209 204 197 192 
190 189 184 178 176 174 172 170 172 172 167 164 162 160 162 163 164 164 163 
165 163 164 163 162 164 165 171 175 179 180 183 184 186 190 191 188 188 190 
193 197 203 201 203 208 210 212 216 221 224 226 229 230 231 231 227 226 225 
226 224 225 230 234 239 243 243 244 243 244 254 255 254 254 253 252 250 248 
245 242 238 236 233 232 230 227 225 222 223 219 220 220 220 216 214 212 212 
210 210 207 202 196 196 195 190 177 172 172 172 171 170 168 164 160 156 158 
159 159 160 160 158 158 157 159 162 168 173 173 178 179 181 182 184 187 189 
190 190 188 188 190 190 193 199 199 199 204 208 211 216 219 223 223 227 227 
227 225 225 225 226 226 225 226 231 234 239 244 247 246 246 247 251 252 252 
250 250 253 253 254 250 248 240 236 233 231 229 227 226 225 223 221 220 221 
220 218 215 210 205 203 201 200 197 199 199 198 193 182 178 179 178 171 170 
168 164 161 159 161 162 162 162 162 161 158 157 160 164 170 175 178 180 182 
186 185 185 186 188 188 191 187 190 192 193 195 197 197 198 199 203 206 209 
210 210 210 214 219 222 222 225 226 228 228 226 228 231 232 235 239 242 243 
241 242 254 254 254 253 254 254 253 254 248 245 238 234 230 231 229 228 228 
228 227 224 224 220 218 215 211 208 203 197 196 197 197 197 193 191 191 185 
183 182 178 172 171 170 170 167 165 164 165 164 163 160 161 160 160 161 163 
165 169 173 175 181 187 189 188 185 184 184 186 184 184 186 189 193 195 198 
200 200 202 206 207 206 205 205 211 211 212 218 223 225 223 224 224 226 230 
232 234 237 237 236 238 240 253 255 255 253 253 255 250 249 247 240 237 233 
231 231 229 229 229 229 225 222 220 219 217 211 213 205 202 197 195 194 194 
192 191 189 187 183 180 180 178 174 172 173 173 167 165 164 162 161 162 160 
159 159 162 165 165 168 171 173 177 180 184 187 187 187 186 185 184 182 183 
187 191 195 198 201 205 204 205 207 206 207 208 212 215 215 214 218 222 224 
228 229 228 229 229 229 236 238 237 239 241 243 254 254 255 253 251 249 244 
241 242 239 234 231 229 226 225 225 224 223 223 218 217 217 214 211 215 213 
208 204 201 198 197 195 193 190 187 181 180 179 175 173 173 172 169 165 165 
162 160 159 159 158 156 154 160 167 168 170 171 175 181 182 183 183 185 185 
188 185 184 182 183 186 194 198 203 207 209 210 211 208 206 209 212 218 222 
220 218 218 219 223 228 228 227 230 233 233 236 240 241 241 246 249 255 255 
255 255 248 241 237 237 237 236 234 232 230 228 227 227 226 226 220 218 217 
216 215 210 214 214 209 202 201 200 198 194 192 189 185 182 181 179 175 173 
174 173 169 167 165 164 162 158 156 153 157 161 166 168 162 165 168 172 177 
179 180 178 178 181 186 186 188 185 186 191 199 200 202 205 208 209 208 208 
206 207 211 218 221 220 219 220 222 225 228 228 231 234 237 238 240 243 242 
242 244 244 252 253 251 251 248 241 237 235 233 235 235 235 232 231 229 227 
226 224 222 220 214 212 210 208 209 207 205 202 199 197 193 192 194 193 186 
184 180 179 176 175 175 174 172 167 167 170 167 162 156 152 155 154 157 161 
160 163 166 169 174 179 179 177 174 176 188 190 194 193 192 194 200 202 205 
209 210 212 210 208 208 209 212 215 221 221 221 221 222 223 226 228 229 232 
235 238 238 239 240 242 244 244 250 250 250 250 244 240 239 239 238 238 235 
233 229 228 229 226 226 223 218 215 212 210 207 207 205 203 203 201 195 194 
193 191 193 192 188 186 183 181 180 179 179 177 175 174 173 171 168 163 160 
155 153 156 159 163 162 164 166 170 172 174 178 179 179 184 190 193 192 192 
188 188 192 195 199 206 209 210 211 209 208 209 213 216 221 221 221 219 220 
224 226 224 225 226 227 229 232 236 235 235 237 237 249 252 250 249 246 244 
240 239 240 239 238 236 233 231 229 227 224 224 222 217 210 208 208 209 207 
205 204 201 199 199 197 195 194 192 189 187 185 183 179 178 176 172 171 171 
171 169 168 165 163 162 157 160 159 163 164 166 166 172 173 174 176 179 182 
186 191 193 193 192 189 187 187 194 199 207 209 212 211 210 209 209 212 215 
218 220 219 218 219 221 225 223 225 225 230 233 237 239 238 240 241 243 251 
252 253 251 245 243 241 243 243 241 241 240 238 235 235 231 228 221 219 212 
206 202 205 207 205 205 206 199 196 195 195 191 189 189 188 187 186 182 178 
176 172 169 169 167 168 168 169 168 167 163 158 157 156 161 162 163 164 170 
173 173 175 179 181 183 187 190 191 191 190 190 189 193 196 200 207 208 209 
212 213 214 213 215 215 220 224 224 224 223 228 229 228 228 229 234 236 237 
239 241 243 243 250 249 248 248 244 241 240 242 244 243 244 243 242 238 237 
229 225 221 219 213 209 206 206 207 204 206 204 197 196 194 192 190 188 185 
187 185 183 179 177 176 175 168 164 162 160 162 165 166 165 163 161 162 163 
168 166 165 168 169 170 173 176 183 183 185 187 189 188 188 187 187 190 193 
195 202 207 208 209 210 210 214 215 215 216 220 224 226 228 228 230 230 230 
234 236 237 243 241 241 244 243 244 251 250 249 249 246 243 243 242 240 239 
239 239 239 236 233 227 220 217 217 213 213 211 210 208 209 210 210 203 201 
196 194 191 189 186 183 181 181 178 175 174 172 167 168 165 163 167 167 168 
168 169 170 172 170 170 166 164 167 168 170 173 178 182 182 186 184 186 187 
188 192 189 192 193 196 203 208 208 208 211 210 213 213 214 219 227 230 236 
237 234 233 233 233 235 237 240 241 243 242 242 244 246 249 248 248 247 244 
242 242 240 238 238 236 235 234 232 227 224 220 216 215 217 217 215 215 212 
212 212 207 205 202 201 199 195 193 190 183 183 180 179 178 175 171 167 164 
165 164 165 164 168 170 167 171 174 172 172 172 171 167 166 169 172 180 184 
185 183 183 184 186 189 193 192 194 195 196 200 207 208 211 212 213 212 212 
216 222 228 231 234 234 233 233 234 232 234 235 237 240 242 240 238 238 240 
250 249 248 246 246 245 244 242 241 239 235 234 232 231 230 229 227 219 219 
216 218 217 214 214 216 213 211 204 200 195 192 188 186 185 184 186 181 179 
176 174 172 167 167 167 168 169 167 171 170 169 171 173 172 171 171 172 170 
169 172 177 180 181 178 178 178 180 183 190 195 196 198 198 200 201 205 208 
210 209 209 208 212 218 223 226 226 228 228 227 228 233 233 235 236 240 242 
242 239 236 234 233 250 247 245 242 246 245 245 245 242 240 235 230 227 226 
229 231 230 225 222 218 216 215 214 216 215 212 210 205 203 199 196 196 191 
187 184 181 175 177 176 177 175 170 170 169 172 173 172 170 167 167 166 167 
172 173 169 167 173 173 176 177 180 177 175 176 176 178 180 186 189 194 199 
199 201 201 203 206 205 205 204 205 208 210 215 220 224 226 225 224 224 229 
230 229 235 240 242 242 239 237 236 239 247 247 242 241 242 241 243 242 240 
235 231 225 223 224 224 228 228 226 224 218 217 213 212 212 211 208 207 200 
199 198 196 194 195 191 187 175 174 177 178 181 181 181 180 180 178 179 178 
172 167 167 166 166 169 173 176 179 180 178 179 177 178 177 176 176 179 181 
184 190 193 198 200 201 202 203 206 205 207 207 208 207 207 208 212 218 222 
222 223 224 226 229 229 230 235 241 244 246 243 238 235 238 246 246 240 239 
240 240 240 239 234 229 226 223 222 219 221 223 224 221 223 223 222 217 211 
211 209 206 204 199 200 197 195 197 197 193 189 180 179 179 179 183 183 184 
183 181 180 178 179 178 172 166 167 167 172 176 179 183 184 182 181 177 174 
177 177 177 180 184 187 190 193 198 203 205 204 202 204 207 211 213 215 214 
211 212 215 218 224 224 223 222 224 226 230 232 235 239 242 244 240 234 234 
236 244 243 241 239 238 232 232 235 231 224 223 223 224 223 222 220 219 217 
220 220 220 215 213 212 207 206 207 201 200 199 195 196 193 188 185 180 179 
181 182 184 185 186 184 179 177 182 183 181 177 173 174 176 180 181 183 184 
185 185 182 178 175 175 176 175 181 187 189 193 195 201 201 204 202 199 202 
207 210 211 213 208 206 210 215 218 221 221 223 223 223 226 231 234 235 239 
242 241 239 236 233 232 246 246 247 244 240 239 238 236 232 227 226 223 222 
223 222 220 219 216 218 216 216 218 215 214 208 205 202 199 199 200 199 194 
192 188 184 183 181 178 179 184 185 185 186 176 170 172 175 174 175 179 182 
183 185 186 185 183 185 185 182 179 176 173 172 173 179 185 187 193 194 198 
197 197 200 200 203 207 210 210 213 211 208 209 212 218 223 222 221 223 232 
234 236 236 238 241 244 245 244 246 243 242 247 245 244 241 241 243 242 238 
233 232 231 227 224 223 221 218 218 217 217 217 219 220 217 213 207 202 197 
196 195 193 192 188 189 191 188 183 179 179 181 185 186 185 186 179 175 175 
175 175 179 179 183 187 189 189 187 184 183 181 178 181 178 176 175 177 180 
186 192 196 199 203 202 202 203 203 205 205 204 200 201 204 204 207 210 216 
222 223 226 228 231 235 235 237 241 245 248 248 246 245 248 249 247 246 247 
245 241 241 242 239 235 236 233 225 221 220 220 218 217 219 217 215 218 218 
217 214 207 203 200 199 198 195 189 185 188 190 189 186 182 179 183 184 185 
184 184 183 182 184 183 179 178 178 180 181 188 186 186 182 181 182 181 177 
176 177 178 180 184 188 192 192 196 201 199 196 197 200 206 206 203 201 201 
203 207 212 214 218 221 222 223 225 226 230 234 237 240 242 244 245 244 241 
239 239 243 243 244 244 242 239 242 241 242 237 231 229 226 226 222 220 219 
218 218 216 220 217 216 214 207 203 200 199 198 192 187 182 181 183 185 185 
183 181 181 183 181 182 182 181 183 184 183 178 178 179 178 182 186 187 186 
185 183 185 182 180 177 177 179 183 188 189 192 194 197 203 201 196 192 194 
205 206 206 208 208 208 212 215 218 221 218 219 220 222 224 224 232 237 241 
241 244 245 244 242 243 243 247 247 246 241 239 242 243 244 242 236 232 231 
231 231 226 221 218 215 215 215 219 217 215 212 204 201 200 200 198 196 193 
188 183 186 187 185 185 179 180 179 179 182 180 183 187 189 189 186 187 185 
182 183 184 186 186 187 187 187 187 187 183 183 183 185 190 190 189 193 195 
200 201 199 199 200 205 205 204 205 207 208 210 213 217 220 220 221 222 224 
226 228 232 236 241 241 243 243 242 241 243 243 247 249 246 239 238 240 241 
242 241 234 232 233 236 236 230 225 220 215 215 215 216 216 216 210 204 202 
201 206 203 194 192 190 186 187 188 187 185 183 186 184 183 185 182 184 189 
192 192 190 189 187 187 186 186 189 186 186 189 187 185 186 185 186 187 188 
189 186 188 191 196 201 202 206 204 207 211 209 211 211 209 211 213 216 216 
217 220 221 222 226 228 230 231 236 239 242 242 240 241 240 241 240 249 251 
248 245 244 245 243 238 239 238 236 236 239 242 238 231 222 216 215 212 212 
210 212 206 204 204 202 201 200 194 193 194 194 194 194 192 187 189 188 188 
188 191 190 192 194 198 196 198 196 195 193 191 191 191 191 190 190 191 189 
189 186 184 187 190 193 192 192 189 194 196 200 204 203 206 210 208 209 210 
211 213 214 214 216 220 221 222 221 226 228 230 230 230 233 236 238 239 241 
240 243 245 250 252 249 246 245 245 244 243 243 242 240 238 238 241 238 233 
228 223 218 215 215 217 212 209 206 204 200 198 196 194 195 197 198 198 197 
197 193 193 195 194 196 198 200 199 198 196 194 194 190 190 191 192 193 193 
192 190 191 190 188 187 189 187 191 193 195 195 196 197 193 193 197 199 199 
200 203 206 208 211 212 217 219 221 221 221 221 223 222 223 225 227 228 229 
232 234 233 238 238 241 243 244 249 249 249 249 249 247 242 242 242 243 242 
239 236 235 235 231 226 221 218 216 217 219 216 211 207 197 193 189 188 190 
193 194 197 198 200 199 197 196 197 197 204 205 205 204 202 198 198 197 194 
192 195 195 196 196 192 190 193 191 191 191 190 188 193 195 198 194 194 194 
190 192 193 195 196 195 197 197 200 205 210 218 219 221 223 223 225 225 223 
224 227 229 234 235 238 238 235 238 233 235 234 234 251 250 250 250 247 244 
238 238 236 237 239 237 235 234 234 231 228 223 219 217 217 217 216 211 207 
195 192 189 192 195 197 200 197 197 198 196 192 193 193 195 201 205 207 205 
203 201 198 199 198 196 198 196 194 194 191 191 191 192 192 190 193 191 190 
198 202 203 198 197 194 194 195 193 193 194 197 199 202 206 209 216 218 221 
224 222 222 224 222 220 228 231 236 237 241 242 240 241 238 243 245 247 249 
248 247 249 246 242 240 239 238 236 237 237 236 235 234 231 227 223 221 218 
216 216 216 213 205 198 193 193 196 199 203 204 199 196 195 195 193 195 197 
199 199 202 207 207 207 203 202 204 201 200 200 195 192 191 193 195 196 194 
192 190 189 191 197 204 208 206 202 198 195 194 195 196 197 203 205 202 201 
202 206 212 216 221 225 227 227 226 222 222 225 231 236 239 240 241 239 242 
242 247 248 249 250 249 246 247 245 242 240 236 237 235 235 236 237 238 237 
235 232 226 225 222 217 217 215 212 209 205 200 199 200 201 204 201 196 195 
202 203 203 204 205 206 203 206 209 208 207 204 202 204 202 201 199 195 194 
194 196 198 200 199 197 194 197 200 204 211 216 210 205 204 203 202 199 199 
201 203 203 200 204 206 207 213 214 214 218 216 217 220 220 222 225 230 233 
235 237 239 237 239 239 241 240 240 252 251 249 249 246 244 240 238 237 238 
237 237 236 237 235 234 232 231 232 228 225 221 214 212 210 207 203 201 203 
203 201 199 197 199 203 209 210 206 205 204 201 203 204 204 203 203 203 201 
202 203 205 207 206 205 205 205 204 206 204 202 203 204 208 211 214 212 210 
207 206 206 204 205 207 209 207 206 209 212 215 216 214 212 214 212 214 219 
223 228 230 233 236 234 234 236 235 240 241 243 245 247 255 253 250 249 247 
247 243 240 243 241 239 237 233 231 229 233 234 234 231 225 221 218 214 213 
213 212 211 207 207 207 209 208 207 206 207 210 215 213 211 206 203 198 199 
202 201 201 200 200 204 208 208 211 209 207 204 204 204 209 206 206 208 209 
211 211 211 212 213 209 207 206 205 206 205 207 206 208 208 215 216 217 215 
214 215 217 222 225 226 231 235 238 240 240 236 234 234 243 247 250 252 254 
253 254 252 250 248 245 240 241 242 241 237 233 229 227 225 227 227 225 222 
218 213 211 211 212 213 216 217 216 214 214 216 212 210 207 205 209 211 212 
211 205 199 198 200 204 202 202 200 200 202 206 208 210 209 207 205 204 205 
210 210 210 210 212 211 211 210 208 209 208 207 205 205 207 206 208 209 211 
211 213 212 210 209 212 218 216 219 222 227 230 235 240 241 240 238 239 242 
248 251 253 252 251 252 252 250 250 246 245 240 241 241 239 236 232 228 226 
225 227 229 226 223 217 215 215 215 215 217 218 219 217 213 213 214 213 213 
204 202 205 208 209 210 207 203 204 203 203 207 206 204 205 205 206 207 207 
208 209 209 212 211 214 213 211 208 211 209 210 210 206 204 204 206 205 205 
207 207 211 214 211 210 209 211 208 210 213 213 214 219 224 226 229 230 236 
239 241 243 242 243 248 251 250 248 247 247 247 247 251 250 247 243 241 240 
239 236 234 231 226 224 224 225 222 218 214 211 212 212 213 217 218 219 219 
219 215 213 214 211 203 202 201 202 208 211 212 211 214 212 214 214 211 209 
209 211 213 213 210 208 209 209 215 213 215 215 212 210 209 205 207 207 205 
204 204 202 206 207 210 211 213 215 213 211 211 210 213 212 216 216 218 221 
225 225 226 229 232 237 238 240 241 246 250 252 253 254 255 242 241 244 247 
248 244 241 240 239 235 232 233 227 225 223 223 224 221 218 215 214 214 213 
215 218 222 220 216 215 213 213 215 214 213 210 209 209 211 214 216 216 217 
218 217 213 212 207 212 215 218 218 217 214 214 218 219 217 217 215 214 213 
209 208 208 208 210 211 215 216 215 216 213 213 214 216 214 213 213 214 216 
219 219 219 221 223 226 227 225 227 232 234 237 243 246 249 252 255 255 255 
255 237 238 242 245 246 243 242 239 237 233 230 234 232 226 221 221 218 222 
223 224 221 216 216 219 218 220 218 215 213 209 212 214 215 218 219 217 219 
222 221 222 219 219 218 216 212 211 210 213 214 220 218 218 215 216 221 219 
217 215 216 216 214 211 210 211 213 215 218 219 217 214 211 209 211 210 211 
211 211 212 213 214 218 222 225 224 224 227 230 226 229 232 234 233 236 244 
250 251 255 251 251 250 242 243 244 243 244 242 241 239 237 233 235 235 233 
228 223 221 221 223 226 226 223 218 218 219 217 216 216 213 212 212 215 218 
222 227 229 227 226 226 223 222 220 218 215 213 212 213 212 211 213 219 221 
219 217 218 222 219 213 210 211 208 212 215 215 212 213 214 219 215 210 209 
209 213 214 213 211 215 215 213 215 213 216 219 222 224 226 225 225 227 230 
231 234 235 238 240 247 250 253 252 254 255 244 244 244 243 242 241 243 240 
237 235 236 235 234 227 227 224 226 226 226 225 223 222 223 223 223 222 222 
218 215 216 217 220 221 227 230 231 230 228 228 228 222 218 214 217 217 218 
218 218 217 219 220 221 222 222 223 221 217 214 211 208 210 213 215 214 213 
214 217 218 216 216 217 219 221 220 216 218 220 219 222 221 220 223 225 226 
225 226 225 229 233 234 236 239 242 243 246 247 250 251 255 255 244 244 244 
244 243 244 243 242 239 237 236 233 232 229 227 229 228 227 227 227 226 227 
231 233 234 231 227 221 216 212 214 214 215 224 231 232 228 224 227 224 221 
221 220 220 223 223 223 224 223 224 224 222 222 222 222 222 223 218 212 212 
212 215 216 217 215 216 221 220 220 222 223 224 226 222 219 220 222 221 223 
223 224 227 228 227 224 225 222 225 227 234 237 241 242 244 246 248 250 250 
248 248 238 241 242 244 244 241 240 238 235 234 232 227 226 224 227 229 226 
225 225 226 227 228 229 231 234 231 225 220 218 214 214 212 213 220 227 229 
228 227 226 226 225 225 226 225 226 227 227 225 226 227 227 224 225 225 224 
220 218 217 215 215 216 216 216 217 215 216 219 224 224 224 226 228 230 226 
221 219 218 224 226 228 229 230 229 228 225 222 222 229 232 237 240 242 245 
246 248 250 250 252 251 251 233 237 242 242 242 241 243 243 243 243 238 231 
227 227 223 223 224 224 223 221 224 226 227 228 229 230 227 222 219 216 216 
214 216 220 226 227 231 231 230 230 230 230 231 231 230 229 226 227 230 230 
227 223 225 227 227 225 222 223 220 220 223 222 221 218 215 217 221 225 227 
226 228 229 231 227 221 221 218 223 223 224 225 227 227 225 225 223 225 229 
233 236 240 243 246 246 247 247 246 248 248 248 237 240 243 244 240 239 242 
243 244 241 235 229 223 222 222 221 226 227 224 221 223 222 225 224 227 228 
226 225 230 229 226 222 224 228 230 231 233 233 228 228 230 231 232 232 233 
231 228 227 227 230 227 226 225 226 227 225 224 224 221 221 224 224 226 223 
221 216 216 220 223 224 227 227 227 228 225 224 222 225 223 224 226 227 226 
224 222 220 222 228 230 234 237 240 244 245 245 245 244 246 246 245 239 243 
245 244 242 240 239 240 239 235 234 232 228 226 219 220 223 225 222 220 222 
218 219 220 223 224 225 226 229 232 231 228 230 231 229 230 234 235 233 230 
232 231 235 235 233 233 231 229 230 229 228 227 226 226 226 226 227 226 227 
225 224 224 226 226 222 218 219 221 222 228 231 232 231 229 225 226 225 229 
230 229 231 229 227 229 229 227 225 228 229 233 236 239 242 244 245 244 244 
245 245 244 243 245 248 245 242 240 239 237 237 236 236 233 229 228 225 222 
223 222 222 221 224 225 228 228 228 229 228 230 229 232 232 232 229 229 230 
230 234 235 233 232 235 236 238 237 236 234 232 226 227 228 228 227 226 228 
230 228 227 228 228 229 229 228 225 229 229 228 229 230 232 235 235 234 233 
230 225 229 230 235 233 233 230 230 229 228 229 227 227 231 231 234 234 239 
242 243 247 246 243 246 247 245 248 250 248 246 243 240 239 236 232 233 234 
235 233 230 227 224 221 221 223 225 226 227 230 230 231 232 233 234 234 237 
237 235 234 234 233 232 235 236 236 238 241 242 241 242 240 238 233 231 230 
229 226 226 226 230 233 232 229 226 225 227 230 231 229 229 230 231 233 235 
237 238 238 236 237 235 233 232 230 234 233 233 230 231 231 230 230 230 229 
233 235 235 236 239 239 240 241 240 242 244 243 242 253 253 252 250 246 241 
237 233 231 227 231 233 231 230 229 228 225 225 226 228 230 233 236 235 236 
237 236 237 237 238 237 240 240 239 238 237 237 238 236 240 242 245 243 239 
237 236 233 232 230 229 228 229 231 230 230 229 229 229 228 233 234 234 234 
234 236 239 239 238 239 240 240 238 238 238 237 236 234 233 233 232 233 233 
233 231 229 231 230 231 229 231 234 236 239 242 242 242 243 249 251 252 254 
254 251 247 246 245 241 238 235 232 233 231 229 225 228 230 231 230 230 232 
232 231 233 233 236 239 236 237 238 240 241 240 242 242 241 239 238 239 238 
240 242 244 242 240 238 238 236 233 227 225 225 227 230 230 230 231 232 233 
236 238 236 234 236 236 239 239 241 241 244 243 243 243 242 241 243 242 240 
240 235 233 233 236 234 232 234 234 232 230 232 230 235 239 242 243 242 244 
246 251 251 253 255 255 255 255 253 249 243 239 235 234 233 231 228 229 232 
236 236 235 232 235 231 233 235 235 235 236 235 236 237 236 239 238 241 240 
237 238 240 241 239 240 240 243 243 243 239 238 238 236 234 231 230 228 231 
230 230 231 231 235 240 240 240 239 239 238 241 241 242 243 245 244 244 245 
247 245 246 246 243 242 234 234 233 237 236 237 239 237 233 231 232 232 235 
236 239 242 245 247 247 251 250 250 255 254 254 253 254 254 248 243 240 236 
230 228 230 231 237 239 240 238 234 234 235 235 239 240 241 241 242 241 238 
236 237 237 236 237 241 242 241 240 239 243 244 246 249 246 244 242 242 240 
238 233 230 231 233 233 234 236 236 239 239 239 239 239 236 239 240 242 243 
245 244 243 240 243 244 245 246 246 241 240 235 232 235 237 238 240 242 243 
236 233 233 233 234 237 237 238 243 245 246 247 243 237 254 254 255 255 255 
255 250 247 240 238 237 235 234 237 243 243 243 242 237 240 243 244 244 247 
243 241 239 238 238 238 237 237 240 243 245 245 240 239 238 238 241 243 245 
245 242 241 242 242 241 237 237 238 238 236 237 238 239 241 241 240 240 238 
237 240 241 240 242 244 243 244 241 240 239 239 241 243 240 240 235 232 236 
240 242 244 247 247 243 242 242 241 240 242 243 240 242 244 243 244 243 239 
251 251 253 255 255 254 250 248 244 242 242 240 241 243 244 242 242 241 238 
242 245 247 249 249 246 247 245 241 239 239 237 242 244 244 246 244 242 241 
240 240 241 244 245 246 244 243 245 245 243 240 241 242 240 240 238 239 238 
242 242 241 239 238 239 241 242 242 243 243 244 244 243 241 241 243 241 245 
245 245 241 239 238 239 242 244 247 249 248 248 247 243 243 245 246 246 248 
247 245 244 244 243 250 250 253 255 255 254 251 250 248 245 245 244 244 247 
250 247 243 240 235 242 246 250 250 252 251 249 248 245 242 241 241 242 244 
242 242 245 246 244 243 241 243 244 247 245 246 247 246 245 244 246 244 246 
243 242 240 240 241 244 245 244 241 242 243 243 241 242 243 245 246 244 240 
241 243 248 249 251 251 249 248 246 243 240 242 243 248 253 253 253 253 252 
250 249 250 248 250 251 250 249 249 250 255 255 255 255 255 255 255 252 252 
252 251 249 249 250 248 246 242 239 238 242 245 248 250 252 253 253 252 250 
247 244 241 243 245 244 243 246 249 246 247 246 244 243 242 244 246 248 250 
250 248 249 245 247 250 250 246 245 246 245 245 244 245 246 248 248 248 246 
245 247 248 246 244 244 246 249 247 250 252 251 251 249 247 249 246 245 247 
251 252 250 251 249 248 249 248 250 251 250 249 246 248 249 255 255 254 253 
253 254 253 253 254 255 255 252 251 251 248 245 242 241 240 242 245 246 248 
248 250 252 254 252 249 249 249 249 247 246 247 248 250 250 248 245 247 246 
243 243 245 249 249 249 248 248 247 251 252 252 250 248 248 249 249 248 251 
250 251 251 250 248 248 250 253 253 252 251 248 248 244 247 248 246 247 247 
247 247 245 246 246 249 248 249 247 244 245 244 246 252 253 251 247 240 238 
234 255 255 254 253 252 254 253 249 253 254 254 253 251 250 249 246 241 242 
243 244 245 246 246 244 248 251 253 252 251 252 252 251 248 247 248 249 249 
247 245 245 246 248 250 249 250 252 250 250 251 251 251 251 253 253 252 250 
251 250 254 251 251 251 255 254 252 251 252 252 252 250 251 251 249 247 246 
248 247 247 247 246 245 244 244 244 245 250 250 251 251 248 247 249 252 253 
252 250 247 243 237 234 
