P2
#output from hocrtest
10 10
255
253 251 254 250 252 250 245 245 243 248 255 255 255 252 251 247 240 242 237 
229 255 250 243 248 249 251 249 249 250 250 254 254 253 255 255 255 255 251 
249 254 252 255 252 250 250 247 243 243 239 238 255 255 255 248 246 245 247 
246 246 240 255 255 255 254 255 247 246 247 246 249 252 249 248 246 250 249 
247 248 251 252 255 255 255 255 255 255 253 245 249 249 255 255 253 254 255 
255 255 236 247 249 
