P2
#output from hocrtest
60 60
255
253 249 254 248 255 255 252 253 255 255 255 252 253 252 253 251 250 248 245 
234 245 248 242 253 252 255 255 248 250 252 251 248 255 255 253 255 252 250 
253 250 242 247 251 254 252 250 247 250 246 239 240 248 247 244 243 255 255 
254 252 225 255 253 255 253 255 255 253 254 255 255 252 251 251 249 251 251 
250 248 246 245 248 249 250 254 253 253 253 249 247 249 250 251 255 255 254 
255 252 248 252 250 247 248 251 253 251 250 247 248 247 244 242 245 246 249 
247 255 255 254 255 250 255 255 255 254 253 253 252 247 252 251 250 248 247 
250 251 247 242 241 240 243 247 247 250 251 251 251 250 251 247 246 249 251 
252 253 253 254 252 252 251 250 246 247 250 250 247 244 244 244 244 244 243 
242 249 252 251 252 253 253 254 255 254 254 254 254 251 249 248 247 245 242 
242 242 244 247 250 245 246 247 249 250 250 250 250 245 244 245 244 245 246 
246 247 248 249 250 252 255 251 250 249 249 248 248 251 252 249 242 239 240 
241 243 247 247 252 253 249 247 248 251 253 253 255 255 254 252 249 247 247 
244 242 239 241 240 243 243 245 243 246 249 251 250 252 251 248 247 248 247 
244 242 243 243 241 242 246 248 251 249 250 248 246 248 248 250 252 253 252 
247 242 241 243 247 248 248 252 253 249 248 248 252 252 249 255 253 255 252 
249 248 246 243 242 240 241 241 244 245 242 240 238 236 237 239 239 241 244 
245 247 246 244 243 242 244 243 243 245 245 245 248 246 245 245 247 248 251 
249 243 243 245 243 241 241 244 248 252 254 252 249 244 246 250 253 251 253 
255 254 251 246 244 243 242 240 241 244 243 241 240 238 237 235 233 232 236 
236 237 237 240 242 242 242 241 243 246 245 245 243 241 238 242 239 236 239 
244 248 250 252 248 246 245 241 241 240 244 247 250 253 250 245 244 244 248 
254 255 255 255 254 253 247 239 239 241 241 245 246 244 241 239 239 237 235 
235 237 238 238 234 236 233 233 237 241 239 238 239 238 238 241 241 240 244 
240 236 237 243 248 251 250 251 249 243 242 241 239 244 245 248 251 245 243 
242 244 247 249 248 253 255 253 254 247 237 237 237 240 243 247 248 248 244 
235 233 233 234 236 239 240 237 235 232 230 234 235 227 229 233 233 232 238 
239 236 237 235 234 236 237 238 242 249 249 245 246 245 244 244 246 245 243 
242 239 245 242 243 244 246 242 251 254 252 249 245 241 240 240 241 243 248 
250 243 238 235 235 236 238 239 245 245 246 240 241 237 235 233 235 235 234 
235 235 237 238 235 234 236 240 242 239 236 237 239 244 244 245 240 239 238 
243 241 240 236 236 238 236 237 238 243 239 248 251 249 250 248 247 246 244 
243 241 243 244 240 238 234 232 234 236 241 243 244 243 238 238 238 239 239 
239 236 237 236 234 233 233 231 231 232 235 241 241 240 238 239 241 240 238 
235 233 235 236 236 238 232 235 237 238 238 246 248 250 250 249 248 248 247 
247 248 243 241 241 237 236 233 233 229 225 225 227 231 239 240 239 231 228 
234 238 240 237 236 237 235 231 229 226 226 228 230 234 237 240 238 236 237 
238 236 238 233 227 227 228 228 235 237 240 241 242 242 247 249 247 252 253 
250 250 249 247 247 244 244 240 239 235 231 230 225 223 226 227 230 230 232 
231 226 224 233 239 236 235 233 235 233 229 223 227 228 227 229 234 237 236 
235 232 231 233 238 242 238 231 227 227 225 232 236 238 238 240 244 249 255 
255 252 249 248 249 248 245 241 239 238 236 237 234 231 227 226 222 223 223 
225 229 230 230 227 226 234 236 234 234 233 230 230 232 228 229 233 229 227 
226 229 233 232 231 229 232 238 240 242 239 237 236 231 234 236 235 235 242 
245 249 249 246 253 250 248 247 247 247 243 239 233 234 235 234 229 229 235 
232 234 227 225 230 227 227 221 219 224 225 221 223 223 222 225 229 230 230 
226 225 226 225 226 228 228 226 225 228 232 236 239 234 232 235 233 234 235 
235 235 239 241 246 249 246 253 253 250 249 250 251 248 243 240 238 237 235 
230 230 235 230 234 229 225 228 225 222 219 221 225 223 219 216 215 214 215 
219 220 224 222 222 223 221 221 219 220 221 225 226 232 235 236 237 235 240 
236 236 233 234 232 235 236 246 252 254 248 248 248 248 247 247 246 244 240 
235 233 230 229 229 234 230 230 228 225 223 220 219 222 226 228 222 218 219 
219 218 217 216 217 220 222 223 223 219 218 217 216 217 222 225 228 233 232 
235 237 239 232 237 238 233 231 233 239 247 249 250 246 249 248 250 250 252 
248 243 238 236 236 234 233 230 229 225 223 220 222 224 222 222 221 231 224 
220 216 215 217 217 212 212 215 218 217 218 217 217 218 221 220 222 220 223 
230 230 234 239 244 243 240 238 235 235 229 234 235 242 245 244 251 253 254 
255 255 250 249 239 235 234 228 227 228 226 224 222 218 217 218 218 218 221 
222 228 225 219 216 214 213 211 209 212 214 217 217 215 215 217 222 222 222 
218 217 219 225 229 234 234 233 235 235 237 234 234 233 236 236 241 244 245 
248 250 253 255 253 247 243 233 232 233 232 234 234 231 228 222 220 218 218 
219 218 219 218 226 223 218 219 218 217 211 210 213 214 218 218 211 214 217 
220 223 220 214 214 216 220 229 233 235 232 232 231 234 237 238 236 237 237 
242 247 248 250 250 251 253 251 249 245 238 234 237 235 237 239 238 237 233 
228 222 220 222 221 218 218 224 224 222 219 217 215 213 209 205 210 214 216 
215 215 221 227 225 216 211 211 215 220 220 224 227 231 229 229 225 229 233 
238 239 236 241 247 252 252 251 251 255 253 250 247 240 239 238 241 240 240 
241 244 237 233 228 225 223 220 220 219 220 220 217 214 209 208 208 206 207 
209 210 213 216 216 219 223 219 214 210 212 221 225 223 226 228 232 231 231 
234 235 236 239 239 240 240 242 241 252 250 245 246 246 242 247 243 240 240 
236 237 238 239 240 236 234 234 230 227 223 222 215 215 214 212 209 210 210 
208 210 211 213 217 219 221 221 220 222 220 218 215 217 222 226 226 227 228 
230 233 234 235 235 237 242 243 246 246 246 245 251 249 243 240 238 232 233 
232 233 237 238 236 237 236 235 234 232 232 230 225 222 223 216 207 201 196 
202 204 207 208 212 214 214 216 215 217 219 220 220 217 217 220 226 231 232 
226 227 229 229 229 231 235 241 245 250 250 248 251 249 251 246 243 241 238 
233 230 232 233 234 238 237 234 232 231 229 226 223 223 222 220 218 221 216 
207 201 203 202 203 206 208 213 215 216 213 214 213 213 213 214 215 216 220 
223 228 230 226 227 227 227 231 238 242 241 241 249 250 250 250 247 248 246 
242 242 243 241 237 236 234 235 240 238 232 230 228 227 225 226 224 221 217 
216 215 206 200 200 202 204 204 207 209 213 216 214 206 204 205 203 203 205 
210 213 213 217 222 223 221 222 224 225 231 234 236 237 242 246 248 247 247 
248 248 246 247 246 244 244 241 241 240 234 235 235 230 229 227 226 224 223 
221 223 219 215 212 208 206 202 203 200 200 199 199 200 200 202 200 201 204 
206 205 204 204 204 203 207 211 219 222 225 228 232 233 233 235 239 239 244 
246 247 248 250 249 248 247 249 248 247 249 242 239 234 233 233 225 226 228 
229 227 224 222 222 209 208 209 206 205 206 204 202 200 200 203 203 206 207 
204 205 205 207 208 209 210 209 209 206 213 221 223 226 230 233 233 234 235 
236 237 241 244 246 246 249 250 246 245 248 247 247 246 243 241 236 234 231 
229 228 231 234 230 221 219 220 214 211 209 207 205 201 199 202 200 198 198 
199 203 209 205 208 207 210 209 211 211 211 215 209 215 221 226 232 234 236 
233 234 235 234 238 241 242 244 245 247 248 244 241 242 244 244 245 244 244 
240 233 236 236 239 238 236 229 224 225 223 219 215 211 211 209 205 202 195 
190 189 189 199 203 204 200 203 203 206 209 209 208 205 209 213 216 225 231 
237 236 236 236 237 237 239 242 247 251 252 253 252 254 244 244 245 246 246 
249 250 246 242 236 236 237 242 242 237 227 225 224 222 219 214 213 213 211 
210 208 203 204 201 196 195 202 206 204 203 203 205 207 206 206 209 219 221 
228 231 237 238 237 234 235 236 240 240 242 250 252 252 250 252 252 248 249 
249 249 247 245 245 245 243 239 240 239 242 242 241 233 227 222 219 216 210 
209 210 211 210 208 206 208 211 213 208 204 203 204 209 208 209 212 211 214 
215 219 219 225 230 235 236 236 235 239 239 241 243 245 249 249 249 246 240 
242 248 247 246 250 248 244 240 241 238 235 235 236 233 233 237 234 229 225 
220 215 210 207 206 207 207 203 207 208 210 208 204 203 202 204 205 205 204 
206 210 211 216 216 218 219 223 233 233 233 235 241 244 248 249 251 252 250 
246 240 236 233 250 251 250 252 252 249 245 242 235 233 232 229 228 229 228 
227 226 223 221 220 212 210 204 205 204 202 203 203 205 203 199 201 203 204 
204 207 207 208 211 211 215 219 219 221 221 233 236 236 238 245 248 249 252 
255 255 251 249 243 241 235 255 254 253 253 254 251 247 246 240 236 235 230 
229 229 227 226 227 225 221 215 206 204 202 205 206 205 207 208 207 204 204 
203 203 199 202 204 208 210 214 216 217 222 221 221 221 230 233 235 237 239 
243 246 247 251 251 251 248 245 243 243 255 254 252 252 252 248 248 244 239 
236 233 229 231 232 231 227 228 226 220 215 206 205 206 208 209 209 208 207 
205 202 202 203 204 200 201 205 208 207 212 214 216 219 220 219 221 228 231 
235 238 237 238 240 242 242 246 248 248 249 251 252 252 250 243 240 242 242 
243 237 236 232 229 231 232 232 231 230 230 227 225 222 216 212 212 212 214 
216 216 215 213 212 210 209 207 204 207 211 212 214 214 215 216 219 215 217 
220 226 230 233 237 236 236 239 240 246 249 252 249 251 253 255 251 249 248 
244 238 238 236 233 232 230 232 236 236 234 233 233 232 229 226 223 218 215 
210 208 210 216 217 216 211 210 216 210 209 209 207 212 215 214 214 214 216 
218 216 218 218 222 227 226 229 231 235 241 241 243 248 249 246 251 252 255 
248 249 246 245 239 238 235 229 229 226 231 234 230 227 229 232 231 229 224 
221 219 215 210 207 209 214 214 212 211 210 212 210 208 207 205 208 211 210 
209 211 211 214 216 217 216 219 222 224 224 225 233 239 243 246 250 251 249 
250 247 238 249 250 248 246 243 243 239 233 229 231 236 234 229 222 222 221 
221 216 217 220 218 212 206 202 203 209 211 211 212 213 213 209 206 208 207 
208 214 213 213 213 214 217 219 222 223 224 224 225 226 228 234 239 246 250 
255 255 253 253 250 249 253 252 250 248 247 246 244 241 237 236 234 230 228 
220 221 220 219 216 216 219 221 218 215 208 207 212 214 210 210 212 215 215 
213 215 212 213 217 215 213 215 215 213 216 218 223 227 230 231 234 235 236 
242 248 251 253 252 250 249 246 244 255 254 250 248 247 246 244 242 234 229 
224 216 218 216 217 216 217 217 217 217 217 217 217 216 217 221 223 218 216 
220 223 222 219 217 218 222 221 220 219 220 215 215 216 223 224 226 229 231 
235 238 242 246 249 250 253 255 254 253 250 251 255 254 250 250 248 248 245 
242 239 236 233 229 228 223 223 222 218 216 217 218 215 214 215 217 225 230 
229 226 224 226 228 228 224 222 222 223 220 222 224 226 222 218 219 223 227 
227 230 231 232 232 237 243 245 246 253 253 255 254 248 250 255 254 254 250 
246 249 249 249 243 241 236 233 230 226 227 224 223 222 220 222 217 214 218 
218 224 225 224 223 221 216 216 218 218 220 222 224 223 224 227 228 226 222 
219 220 222 220 219 225 226 228 234 241 244 248 250 250 249 246 245 246 248 
248 249 246 245 249 252 252 246 240 234 232 228 220 220 224 222 221 220 220 
218 215 219 222 222 223 225 225 225 227 224 223 222 220 220 221 223 225 229 
231 230 224 222 221 218 220 218 224 226 228 235 244 248 250 249 250 249 247 
246 246 239 237 241 243 245 248 251 250 243 238 235 235 230 228 226 225 224 
222 220 221 219 220 221 223 225 225 226 224 226 229 229 227 224 223 222 222 
222 226 230 232 228 225 223 224 219 216 218 223 228 230 237 243 247 246 248 
247 245 244 244 243 241 241 244 242 245 246 247 246 242 237 234 234 231 229 
226 223 222 221 223 224 225 227 228 228 229 231 230 230 226 224 226 226 225 
227 229 229 231 232 231 233 231 229 225 225 225 225 223 225 229 232 235 238 
238 241 246 249 249 247 247 244 246 247 246 240 241 244 242 241 239 235 229 
227 227 230 231 228 226 225 221 223 225 223 226 229 235 242 238 234 226 223 
223 226 228 230 233 236 237 234 233 232 231 229 229 229 230 230 229 230 231 
237 236 235 236 240 245 248 249 251 252 254 254 255 252 249 245 245 243 240 
239 238 234 234 234 235 234 233 232 232 230 227 227 225 225 227 234 234 235 
232 229 224 225 226 232 235 238 241 239 235 230 228 228 230 231 231 230 229 
234 232 231 234 234 234 235 239 244 251 252 255 255 255 255 255 254 246 247 
245 240 239 238 240 238 238 237 236 236 238 236 238 230 226 223 225 219 224 
228 231 231 229 227 223 226 228 234 236 237 235 233 231 229 225 229 233 233 
231 235 240 240 238 239 241 241 240 242 242 246 251 252 253 255 253 255 255 
255 255 250 248 241 241 238 242 243 238 236 237 238 238 236 237 234 230 224 
225 224 227 231 236 238 237 237 231 229 228 231 235 236 232 229 229 230 228 
230 232 235 235 237 240 241 243 246 248 249 246 241 241 244 247 250 251 252 
250 253 252 254 249 247 245 240 238 234 236 233 228 228 232 234 235 237 240 
240 244 238 236 232 231 232 235 241 243 247 246 242 238 235 236 235 229 226 
229 233 234 235 237 237 236 239 239 238 238 242 244 244 241 240 241 242 245 
247 249 249 251 254 253 252 246 242 243 239 237 231 230 233 233 233 235 237 
237 241 243 244 246 243 242 237 234 234 240 244 248 250 247 247 243 238 239 
239 237 233 234 236 238 238 237 238 236 238 240 236 234 236 235 234 231 231 
233 240 247 247 249 253 253 255 255 254 251 247 247 241 238 233 233 235 235 
234 234 237 239 245 249 246 253 248 243 237 229 229 234 243 245 248 244 244 
241 240 241 240 241 239 239 237 236 235 236 240 243 245 246 245 239 238 233 
234 233 229 230 233 242 246 248 250 252 255 255 255 253 252 250 248 246 242 
241 240 241 236 237 238 239 245 247 247 248 245 239 234 235 230 234 242 245 
246 247 244 243 245 248 249 250 247 244 240 240 235 239 244 242 246 246 247 
243 241 237 237 235 231 230 233 237 244 247 243 241 255 255 255 253 251 251 
251 252 249 243 240 240 238 237 239 242 250 249 251 247 242 242 241 242 242 
244 248 250 250 250 249 248 249 249 252 255 255 251 247 244 240 242 247 248 
249 250 247 245 245 244 243 242 239 237 239 241 248 250 247 245 255 255 254 
252 251 252 252 251 249 242 240 240 238 241 247 250 251 254 253 252 252 253 
253 253 252 253 254 255 253 253 252 250 248 249 251 253 252 253 251 249 247 
248 249 251 253 254 251 250 252 253 251 250 247 243 243 246 249 250 252 250 
255 255 253 251 251 252 251 251 253 252 249 246 245 247 250 253 252 255 254 
254 253 253 254 254 255 255 255 255 255 255 255 253 252 252 254 255 255 254 
253 254 250 249 246 243 247 253 253 252 253 255 254 253 251 254 253 253 255 
255 253 251 252 253 249 250 251 252 253 252 253 253 252 249 247 247 247 250 
248 253 255 255 255 255 254 254 254 255 255 255 255 255 255 254 253 254 253 
253 253 251 253 253 254 250 242 244 249 254 253 255 255 255 252 253 251 254 
255 255 253 253 252 252 251 255 253 254 254 255 254 254 255 255 254 253 254 
252 253 255 252 253 255 255 254 255 254 255 255 255 255 255 255 255 255 255 
255 254 252 250 250 250 252 254 255 251 247 249 252 255 255 255 255 255 255 
255 254 255 255 255 255 255 255 255 
