P2
#output from hocrtest
90 90
255
254 247 251 247 255 255 255 249 255 255 255 253 255 255 255 252 251 254 245 
234 241 244 236 250 247 252 249 249 253 255 255 252 255 255 251 255 254 253 
254 254 248 250 248 254 255 251 240 237 233 230 243 251 252 247 245 248 247 
250 248 237 254 255 252 247 252 255 245 253 253 250 247 246 252 248 249 248 
249 249 253 254 252 251 255 255 252 253 250 240 251 255 253 251 252 252 254 
254 255 250 253 254 255 253 253 253 255 255 254 255 251 248 245 245 245 250 
247 250 249 250 253 255 255 255 255 255 252 255 253 253 255 254 253 251 249 
253 252 247 238 233 230 233 244 247 252 252 248 246 244 248 247 244 250 254 
251 249 252 253 251 251 250 248 247 249 252 251 247 245 246 247 250 252 252 
251 255 253 250 251 250 247 251 253 250 249 250 251 250 250 251 254 255 252 
252 250 252 252 255 254 252 254 252 251 249 249 249 248 249 248 248 250 254 
255 255 254 255 255 253 252 251 252 252 253 253 249 250 251 250 246 238 234 
232 237 243 248 251 251 247 243 243 246 245 250 253 252 252 247 247 249 250 
246 244 242 244 246 247 246 245 245 248 249 253 255 255 254 255 253 252 250 
246 245 246 247 249 250 252 251 250 251 253 253 251 252 253 252 252 253 252 
252 251 247 249 248 249 250 251 253 253 252 247 250 251 252 254 252 255 255 
255 254 253 251 251 252 253 249 252 251 249 246 240 237 238 241 244 248 251 
251 248 246 245 246 244 249 250 249 252 251 251 249 249 245 242 242 243 246 
246 243 248 249 251 250 249 252 251 253 253 255 255 252 250 251 249 247 250 
252 252 252 246 248 249 248 248 252 252 249 247 245 245 245 245 244 242 244 
244 246 248 252 249 252 249 249 252 251 255 252 249 250 247 249 251 248 250 
253 254 252 252 251 248 245 242 241 240 242 246 248 248 247 241 240 239 239 
242 244 245 245 248 247 245 243 241 240 237 241 244 248 248 249 251 253 255 
254 254 252 252 251 251 254 252 252 252 255 253 253 253 253 252 252 248 247 
245 246 248 252 251 247 246 243 241 237 239 240 238 241 246 250 251 255 250 
248 247 246 248 247 251 247 245 245 245 249 251 250 253 252 253 252 250 250 
247 247 241 240 241 247 249 245 245 239 232 234 234 232 235 238 237 238 241 
242 239 240 241 240 240 240 242 249 250 252 251 253 255 254 253 253 250 248 
250 247 251 254 255 252 248 245 252 253 251 250 248 242 242 245 247 247 249 
245 243 242 241 241 240 238 237 241 243 245 245 246 244 240 241 247 248 248 
250 247 245 244 247 252 255 252 251 248 246 246 244 245 245 244 240 239 238 
244 249 245 241 236 234 232 231 229 231 232 231 234 235 237 241 241 244 244 
245 246 251 253 251 250 248 248 247 246 249 247 250 249 249 249 251 252 251 
249 245 241 254 253 253 253 248 244 242 242 246 249 250 246 244 245 244 242 
240 239 240 241 241 240 236 236 240 241 241 245 246 243 245 242 241 241 242 
248 251 249 247 244 242 242 239 238 239 237 238 236 234 239 241 240 235 232 
233 234 234 232 232 235 234 233 233 235 238 237 238 240 243 245 247 247 248 
245 241 240 236 233 235 237 236 241 245 245 248 249 245 243 239 237 252 252 
253 252 247 245 243 243 246 246 246 243 240 241 242 239 239 237 236 233 233 
233 231 233 235 236 239 242 243 244 242 239 238 241 243 246 246 244 242 239 
240 239 239 237 240 240 240 236 235 236 235 233 235 229 229 231 232 233 234 
236 237 234 234 236 235 233 230 233 236 238 241 241 239 238 236 233 232 230 
229 238 237 240 240 244 247 249 250 248 248 247 250 250 248 247 245 243 240 
237 238 243 242 243 240 240 242 240 239 237 237 235 231 233 233 232 234 237 
238 239 242 239 240 239 237 239 241 241 240 236 234 235 239 238 238 237 239 
239 238 235 234 234 231 232 231 230 229 230 229 231 231 232 236 235 235 235 
232 227 229 231 233 236 236 234 232 234 233 234 232 230 231 236 236 237 240 
242 246 249 253 250 251 250 252 252 248 247 249 249 247 245 243 243 239 238 
235 236 237 234 233 232 231 233 231 232 231 230 233 236 236 238 238 237 236 
236 234 235 235 234 234 229 228 232 234 237 238 237 238 238 236 236 234 236 
235 232 231 231 229 228 226 230 232 233 233 231 231 231 231 228 229 230 229 
228 229 229 228 230 233 234 235 235 234 236 238 238 241 243 245 247 250 253 
252 251 252 253 253 253 252 249 247 241 238 234 231 230 232 233 233 232 229 
227 226 228 224 231 232 230 230 233 234 234 235 234 232 231 230 232 232 231 
230 230 228 231 236 240 237 235 234 233 232 231 232 235 235 233 228 228 226 
227 228 228 229 230 227 227 229 229 228 229 231 229 227 228 228 231 229 229 
231 232 233 234 236 238 238 238 240 242 241 245 244 249 248 249 255 255 255 
253 251 250 245 238 233 230 228 230 230 230 232 232 230 232 231 229 227 230 
230 232 232 231 229 226 226 226 225 226 227 231 229 230 227 225 225 229 235 
235 233 231 234 235 235 236 235 237 236 232 229 227 227 229 227 227 228 227 
224 223 229 230 231 227 231 229 229 230 231 232 231 227 228 228 230 230 232 
235 234 236 239 243 243 245 247 250 250 246 254 255 255 254 252 248 243 238 
235 232 235 235 235 233 236 238 239 242 237 229 227 230 229 228 226 226 226 
225 224 222 221 219 221 227 227 228 227 223 220 221 222 228 232 233 232 232 
233 234 235 237 235 231 229 230 229 230 232 230 230 228 225 221 224 226 228 
228 230 231 231 232 230 230 228 228 229 226 229 230 234 233 235 234 239 242 
243 248 248 252 252 250 255 255 253 252 251 247 242 237 234 231 236 236 237 
237 238 239 240 241 233 229 227 229 224 221 221 219 221 220 218 216 216 216 
219 221 223 226 225 224 223 222 222 223 226 229 228 228 228 230 230 232 230 
227 226 222 219 222 221 220 223 224 225 224 223 225 227 225 228 228 230 230 
228 230 230 231 233 231 234 235 237 237 236 238 240 241 242 248 249 251 251 
248 252 250 249 248 247 245 240 238 237 236 238 237 235 233 233 236 234 229 
226 224 224 225 223 218 217 219 220 216 211 212 217 218 220 222 224 222 224 
223 222 224 224 222 225 224 226 228 228 230 231 229 229 228 223 216 212 209 
213 215 220 222 224 225 225 226 226 225 228 231 230 228 224 225 228 228 230 
231 234 235 235 237 237 239 241 243 245 247 252 253 254 255 249 248 247 245 
242 240 234 236 234 236 237 237 236 234 233 231 226 221 220 222 222 224 221 
217 213 216 217 216 215 216 220 221 225 225 227 226 225 224 223 223 224 225 
225 225 225 226 231 231 230 230 232 229 224 216 215 215 215 216 215 218 221 
220 223 226 225 222 225 226 225 224 222 220 223 223 226 227 233 234 234 234 
236 236 236 238 242 246 252 253 255 255 252 253 251 248 244 242 237 234 232 
234 236 234 234 233 231 226 224 220 219 219 219 221 217 218 218 218 218 220 
220 221 221 222 223 221 220 222 224 224 221 223 226 224 225 226 227 227 227 
227 230 228 228 223 218 214 213 218 215 215 214 214 215 216 218 221 221 223 
225 222 216 213 212 211 213 216 220 227 231 232 234 235 235 238 239 240 244 
248 252 253 254 254 254 255 255 252 247 246 242 241 240 240 237 233 232 231 
228 225 223 221 219 214 213 215 212 214 218 217 219 220 217 220 220 219 216 
215 214 216 219 221 222 225 225 223 223 227 229 226 225 227 227 222 219 215 
214 214 215 220 219 215 214 214 214 216 218 220 221 222 222 218 213 210 207 
206 208 214 219 225 229 230 235 236 237 238 237 240 241 248 252 253 254 255 
253 255 255 253 250 248 247 243 242 242 237 234 229 228 224 223 222 220 217 
216 217 216 215 214 215 214 215 216 215 218 218 214 213 215 212 213 217 220 
220 223 223 225 227 229 227 224 220 224 221 219 219 217 215 217 215 216 212 
208 209 212 215 218 220 219 219 219 219 218 217 213 208 208 210 214 220 224 
231 232 234 236 237 240 241 244 246 251 252 251 252 252 253 255 253 253 252 
251 249 244 241 238 235 233 231 231 228 224 224 222 220 220 219 216 216 214 
213 215 214 216 216 216 216 216 216 216 213 213 216 218 219 217 218 220 224 
225 222 221 218 219 218 216 216 217 215 217 219 219 217 213 215 216 216 218 
219 222 221 220 221 222 220 218 217 218 222 222 226 228 230 229 229 232 233 
237 243 247 250 251 251 252 251 251 254 255 254 251 253 253 250 244 240 239 
234 231 228 230 231 230 228 224 222 222 219 215 216 214 214 214 214 213 212 
213 214 214 213 216 214 212 212 214 215 213 216 217 220 224 222 220 216 214 
213 216 216 214 213 215 217 213 216 214 215 213 210 212 213 216 217 219 218 
217 217 218 222 220 220 218 221 227 229 229 231 234 235 240 244 248 248 250 
248 246 245 241 254 255 252 251 252 252 248 243 234 231 228 224 224 225 225 
226 227 224 222 223 222 218 220 217 214 212 211 210 212 214 214 218 216 216 
215 212 210 210 211 209 211 213 216 216 213 214 214 214 214 217 218 218 216 
219 221 218 215 210 208 205 210 213 211 210 211 213 213 214 214 216 218 218 
220 217 219 225 230 231 234 233 234 238 241 245 248 250 250 251 252 255 255 
255 255 251 250 250 247 243 239 236 231 231 232 228 227 227 225 223 221 222 
224 221 219 218 217 215 212 210 209 212 214 215 215 215 212 210 211 210 208 
206 206 204 206 209 210 209 211 209 211 212 210 208 208 212 215 214 212 208 
207 202 207 212 212 204 201 203 205 205 209 210 214 215 218 218 222 227 230 
234 237 235 234 235 238 238 243 247 247 249 249 250 253 252 247 247 248 249 
246 241 236 234 230 231 230 228 226 226 227 220 217 218 218 216 214 216 215 
213 211 212 214 214 212 211 209 208 206 205 205 205 205 203 201 201 198 200 
205 208 211 211 211 210 208 209 209 213 215 213 209 207 208 207 210 214 213 
206 201 197 200 204 205 207 210 217 220 220 223 227 227 231 236 236 236 237 
237 239 243 248 248 247 243 239 253 253 253 249 248 247 243 234 232 231 231 
233 229 227 225 226 225 218 216 216 216 216 214 211 211 210 206 209 211 210 
207 205 204 204 203 206 206 199 197 196 199 200 198 199 203 208 210 211 208 
208 207 207 206 206 209 209 208 205 205 203 202 204 203 201 198 196 199 202 
202 203 208 212 216 218 220 223 223 226 229 229 234 237 240 243 244 246 246 
243 238 229 251 254 251 250 247 245 240 230 227 229 231 230 230 227 226 224 
226 221 219 215 213 211 210 207 206 206 204 207 207 207 206 203 202 203 205 
206 206 203 198 197 197 198 199 203 204 205 205 206 204 206 206 206 207 209 
211 212 212 206 205 203 201 200 200 199 199 200 203 207 209 210 211 213 216 
217 220 221 220 225 228 232 237 240 242 244 244 245 246 243 244 242 252 252 
247 245 244 243 240 231 228 231 232 231 231 227 227 228 226 223 222 218 214 
214 214 214 214 211 209 206 204 204 204 205 204 203 205 206 204 204 199 198 
195 193 195 197 200 198 200 200 200 201 199 201 203 201 203 206 209 204 203 
203 199 199 197 198 200 202 205 207 209 211 209 210 212 215 216 218 223 228 
231 236 238 241 244 245 245 246 246 246 248 248 247 246 243 244 245 243 240 
235 233 232 232 230 227 225 224 226 222 219 218 216 215 213 214 215 219 219 
213 208 204 203 203 205 207 204 204 205 204 207 206 203 199 195 193 193 200 
199 199 199 199 198 197 197 200 199 201 202 202 202 200 202 202 202 202 202 
201 204 207 210 210 214 215 214 215 215 216 218 222 228 230 235 237 237 243 
244 246 247 246 243 240 237 240 238 237 244 248 247 242 240 236 235 235 230 
222 222 221 220 215 215 212 211 210 213 213 215 216 217 212 206 200 200 199 
201 201 203 201 202 203 205 205 203 196 194 192 191 194 198 196 196 201 197 
194 192 196 198 198 200 201 201 201 202 202 201 201 202 203 208 211 211 213 
217 219 218 218 217 216 218 218 223 226 230 236 241 245 247 248 249 251 248 
244 244 234 231 236 240 245 245 243 240 237 236 238 234 226 224 224 224 221 
217 214 212 210 212 212 212 213 213 210 204 203 202 200 198 195 192 189 192 
193 198 200 198 193 190 193 195 195 197 197 197 196 196 198 198 198 197 200 
199 198 198 197 197 198 199 202 203 206 209 213 214 217 218 221 222 223 221 
219 218 219 223 224 229 234 239 241 245 245 249 253 247 242 240 242 242 244 
247 246 246 242 237 236 236 236 231 225 224 223 223 220 218 217 213 213 213 
209 209 213 216 212 206 205 202 200 197 198 195 192 192 192 194 189 188 184 
185 186 193 197 198 196 196 190 190 191 189 192 197 202 203 204 201 197 197 
199 202 202 201 203 208 210 209 214 216 221 222 225 225 227 225 223 224 226 
229 234 236 237 239 242 249 251 249 247 247 250 252 253 251 248 247 244 239 
238 239 235 231 228 226 224 224 225 222 221 215 213 211 208 207 208 208 207 
204 204 201 200 198 198 195 194 194 190 188 187 187 186 186 188 192 193 194 
197 193 189 188 186 190 191 192 193 195 198 199 198 200 200 200 198 198 202 
208 206 206 208 214 215 220 223 225 227 228 228 228 225 226 230 232 231 233 
237 245 248 247 243 237 253 253 254 253 249 248 243 241 241 239 235 231 227 
224 223 226 227 226 225 223 217 215 212 208 205 206 205 205 205 205 202 205 
199 193 191 189 183 183 184 186 187 189 189 191 193 193 192 189 189 188 187 
188 188 187 189 190 191 193 195 194 194 192 193 196 199 200 202 205 208 213 
216 220 222 224 228 228 228 229 229 230 232 230 231 235 240 244 252 254 255 
253 252 250 251 250 249 245 241 240 237 238 235 228 225 222 222 222 224 226 
224 223 216 214 205 203 201 202 203 201 203 204 203 202 194 192 187 181 177 
179 181 182 183 186 187 187 190 190 190 187 188 191 189 185 183 182 181 182 
184 186 186 188 187 189 189 191 194 200 203 205 207 209 215 216 221 224 229 
228 230 230 231 229 232 234 232 237 240 247 252 253 255 255 255 255 252 251 
251 246 244 240 241 239 236 233 227 223 221 223 223 226 225 223 214 206 200 
201 204 203 203 201 201 200 200 201 198 193 186 183 180 179 178 176 179 181 
183 182 186 187 187 186 186 188 186 182 179 175 177 179 182 184 185 186 187 
187 185 186 189 199 203 207 207 209 215 215 221 227 230 234 233 232 232 230 
231 232 234 237 237 245 250 251 253 252 255 255 255 255 254 251 249 245 239 
238 235 232 227 226 225 222 223 222 220 219 213 207 203 204 203 204 203 200 
196 195 193 193 195 192 190 189 187 182 177 175 172 175 177 178 182 183 188 
185 184 183 182 181 178 176 177 180 183 184 183 184 187 188 189 191 195 201 
205 212 217 217 219 220 221 225 225 225 229 233 234 233 232 234 236 240 241 
244 248 249 250 248 252 252 252 252 253 253 252 250 242 240 234 232 229 227 
229 226 222 219 217 215 210 207 207 208 210 213 209 203 197 196 197 196 194 
192 192 190 189 187 183 176 175 173 170 168 176 179 180 183 182 181 181 182 
183 182 186 191 194 193 190 190 192 194 193 195 200 203 209 215 218 218 218 
220 223 227 227 229 228 233 237 235 236 237 237 234 239 244 247 249 249 247 
250 249 249 249 249 249 247 243 240 238 236 233 232 232 232 230 223 220 215 
214 212 209 208 208 210 210 210 204 199 200 199 198 195 195 194 194 192 190 
184 181 178 179 175 171 173 176 179 182 184 183 182 183 182 186 191 198 201 
204 198 193 194 194 196 197 198 201 206 208 214 215 216 216 217 218 220 222 
224 232 235 237 240 240 242 240 242 244 247 252 252 253 250 248 247 246 245 
246 246 240 239 237 236 231 223 225 229 229 224 222 217 215 208 207 204 205 
209 209 205 204 202 202 201 201 200 199 197 194 192 189 185 183 181 179 178 
177 179 179 180 181 179 177 180 185 186 193 194 198 202 203 204 204 204 205 
205 206 202 202 200 205 212 216 216 215 215 219 221 226 230 235 233 234 237 
241 245 245 246 247 249 251 252 252 244 246 245 243 244 245 247 241 241 235 
234 231 224 226 226 224 224 220 215 210 206 202 202 203 208 211 207 204 203 
201 199 200 201 197 195 190 187 182 179 178 177 179 181 179 182 185 184 181 
177 179 180 184 186 190 190 194 199 196 193 195 198 201 203 205 203 202 203 
207 212 216 213 214 215 218 220 220 225 228 229 228 230 237 242 244 245 245 
247 248 246 244 243 243 242 242 242 244 243 240 236 232 236 233 230 231 232 
230 228 223 218 215 211 207 207 206 210 211 207 206 204 200 198 201 201 196 
195 190 187 180 178 175 174 174 177 180 184 184 181 178 177 178 174 178 182 
185 186 187 185 188 190 192 196 201 202 204 203 200 202 205 210 212 213 212 
211 211 212 212 212 220 224 226 229 233 237 238 241 241 244 245 243 242 243 
244 243 244 244 244 240 239 236 236 239 240 235 234 234 233 228 224 221 219 
218 216 214 214 213 214 210 206 201 197 198 200 201 198 192 190 185 180 179 
176 173 172 173 176 180 177 178 177 175 172 168 169 172 177 181 184 183 185 
185 185 188 188 193 198 201 202 207 211 213 214 216 214 211 212 213 215 216 
221 224 227 228 231 234 237 241 245 248 250 253 253 246 247 245 243 239 236 
233 231 230 235 242 241 239 237 235 232 228 225 222 219 219 216 217 215 213 
213 206 203 201 198 200 200 197 193 190 183 177 175 176 174 170 171 170 172 
174 174 175 174 172 168 167 169 169 167 171 175 179 186 189 190 190 192 193 
199 200 203 212 217 217 218 222 222 217 219 219 222 223 228 228 229 230 231 
233 236 240 245 248 249 251 252 248 248 249 245 240 238 232 232 232 234 239 
241 241 237 238 231 227 224 221 215 218 218 215 213 210 210 204 200 199 195 
197 194 193 190 187 182 177 175 176 176 172 168 166 165 169 171 176 174 173 
172 176 175 171 170 170 171 175 186 193 198 203 204 204 204 204 204 212 214 
214 215 219 221 221 224 227 227 228 229 230 233 235 236 237 238 242 246 249 
251 255 255 248 250 251 250 249 244 238 236 239 240 244 244 244 239 235 228 
227 222 219 218 218 217 214 212 210 208 201 196 194 189 193 192 189 187 182 
178 176 176 175 175 173 172 170 167 167 169 170 171 171 170 174 176 175 175 
176 178 179 188 193 197 197 201 201 202 203 201 206 209 213 217 220 218 217 
221 225 226 228 226 227 233 235 237 238 242 245 246 251 253 254 254 252 253 
253 253 251 247 244 240 241 243 245 241 239 237 234 228 229 226 225 221 218 
216 213 212 211 207 199 194 191 188 187 188 185 185 179 176 175 179 181 179 
178 177 176 173 172 171 171 168 167 170 174 176 177 177 181 184 185 188 191 
193 193 196 201 200 200 201 204 206 205 213 217 218 220 221 224 222 223 223 
225 231 234 237 238 241 244 245 249 255 253 253 252 251 251 251 248 247 244 
243 241 239 240 238 238 232 228 222 224 222 223 220 218 212 210 210 205 200 
195 191 188 186 185 191 186 180 174 172 174 177 180 181 180 177 178 178 173 
171 172 170 171 172 178 180 181 182 183 185 186 189 190 194 197 200 204 204 
203 204 204 205 202 206 209 212 212 215 222 220 220 221 224 226 232 239 244 
246 249 249 250 249 246 240 252 253 251 249 251 253 251 246 244 240 236 231 
232 230 227 224 224 223 222 216 215 212 210 209 206 199 195 193 193 191 190 
190 187 182 175 171 172 174 174 175 179 177 178 176 174 174 174 173 172 172 
177 180 181 179 184 189 190 192 193 196 199 204 208 209 212 210 207 206 206 
208 206 208 210 216 220 217 217 219 222 226 232 238 242 245 249 252 253 254 
253 253 251 252 251 250 248 254 252 249 244 243 239 234 234 231 228 225 227 
227 226 218 216 213 212 209 207 198 192 192 193 194 193 192 187 181 175 174 
174 177 175 173 170 172 170 170 171 174 177 177 175 175 178 179 180 182 189 
191 192 192 192 196 198 202 206 207 206 206 206 206 212 213 214 213 215 217 
217 215 217 219 223 226 230 233 238 243 252 251 255 255 255 255 249 247 249 
246 246 249 251 250 247 246 239 235 233 232 229 226 227 227 224 217 213 214 
213 213 210 204 199 197 198 198 195 195 194 192 186 182 179 179 178 174 173 
173 172 171 172 174 178 179 178 175 179 177 178 181 186 189 195 199 200 201 
204 205 205 206 206 206 207 206 211 215 215 215 216 216 215 212 216 223 228 
227 231 232 236 244 251 249 253 254 255 255 245 245 246 243 243 245 246 244 
240 238 235 231 232 232 232 229 227 223 220 216 211 211 209 208 208 205 203 
201 202 199 199 194 193 192 188 186 183 179 177 176 176 176 175 173 174 174 
178 178 174 172 175 174 179 183 188 191 196 199 201 198 200 201 202 202 204 
204 206 208 210 216 218 220 218 214 215 217 224 228 228 228 229 232 237 243 
250 249 254 255 254 254 242 241 243 242 240 241 242 238 233 230 228 228 230 
229 229 227 220 214 215 216 210 212 211 207 207 204 202 201 199 198 199 195 
193 192 189 188 187 186 183 182 180 181 178 175 176 174 175 174 174 175 176 
176 178 184 190 193 195 198 199 198 198 200 202 201 203 205 206 208 211 212 
215 217 215 215 217 218 225 229 231 231 234 235 237 245 248 249 252 250 248 
246 248 246 246 246 243 240 239 237 235 231 230 230 232 229 224 223 222 219 
222 218 211 209 206 204 206 202 201 199 196 197 196 194 195 193 189 188 188 
185 186 184 180 178 180 178 178 176 175 174 178 176 174 177 177 182 192 194 
195 196 195 196 200 202 203 203 204 206 208 211 213 215 218 218 216 215 216 
219 225 231 234 235 237 234 233 242 244 247 251 252 253 253 252 250 250 249 
247 241 236 234 232 230 233 234 234 232 228 224 225 221 218 218 214 212 207 
207 206 203 198 197 197 195 191 191 192 188 188 189 188 188 190 190 189 187 
188 186 182 179 179 179 181 181 180 179 180 182 185 187 188 191 189 191 195 
200 202 202 207 210 211 213 218 223 222 219 216 217 218 222 226 227 229 231 
234 233 233 236 238 242 245 247 246 246 254 251 251 246 242 239 237 237 238 
237 239 234 232 232 231 229 226 221 219 219 217 211 207 204 207 210 206 206 
196 195 194 195 194 192 191 191 191 190 192 191 191 188 187 187 188 184 180 
178 181 183 186 184 182 186 187 185 185 189 188 191 195 200 202 204 205 207 
209 213 217 220 220 217 215 216 219 222 227 228 228 229 229 232 237 242 242 
243 243 246 246 247 250 250 249 245 244 246 243 244 244 241 238 235 234 235 
233 230 226 224 224 223 217 210 204 202 207 208 209 206 200 199 200 198 198 
198 198 197 194 192 190 188 186 185 189 189 186 184 181 180 180 184 187 190 
189 192 189 190 191 193 194 194 191 196 202 203 204 204 205 210 213 215 217 
216 213 215 220 222 224 225 224 228 233 235 234 238 240 242 242 244 242 241 
246 245 246 247 248 247 245 248 248 245 243 241 240 238 237 234 231 225 223 
218 209 208 206 205 205 205 206 204 202 201 203 200 198 198 200 197 192 192 
189 185 184 185 186 189 188 187 185 182 183 187 191 194 194 193 188 189 192 
196 197 196 194 196 199 200 197 199 199 202 208 209 210 213 210 213 217 222 
222 222 226 231 236 237 240 243 243 244 243 246 249 250 246 246 245 246 245 
243 244 246 247 245 243 242 239 238 238 234 230 226 222 220 216 208 204 204 
202 200 201 202 202 203 202 200 201 202 202 201 197 197 195 193 188 186 187 
189 190 190 191 188 188 188 192 195 197 196 195 196 196 197 195 195 196 198 
200 201 198 197 197 199 205 207 206 206 211 215 219 223 224 223 225 230 235 
239 241 244 242 243 244 246 249 251 245 244 243 240 240 239 240 240 242 240 
237 236 238 237 234 234 231 224 219 216 212 207 203 203 201 200 200 200 200 
201 200 199 200 200 203 204 202 200 201 197 192 186 182 184 184 187 188 191 
193 193 195 198 198 197 197 200 201 199 198 197 194 197 196 198 200 198 200 
204 207 209 208 209 213 219 223 223 222 221 225 229 232 235 235 239 239 238 
242 246 251 253 243 241 237 238 237 234 235 239 242 244 245 245 245 242 238 
232 226 222 219 215 211 207 205 205 202 201 199 198 201 202 203 201 202 201 
202 200 197 193 195 196 193 189 184 184 183 188 194 197 198 200 199 202 203 
206 205 206 209 205 199 198 196 200 199 200 200 199 201 204 205 208 209 212 
214 220 222 224 223 224 227 229 234 235 236 240 242 240 241 241 244 241 242 
242 239 237 238 236 236 238 238 241 246 251 250 244 239 231 228 224 219 215 
213 211 211 209 205 200 198 197 198 197 197 198 198 199 200 197 196 194 196 
196 195 196 196 193 194 200 201 203 202 205 207 207 210 209 206 205 207 207 
201 199 199 201 200 200 199 199 201 204 206 207 209 212 214 218 219 222 222 
223 227 228 235 237 240 244 244 243 241 242 243 244 246 245 244 244 244 242 
245 245 242 241 240 240 237 236 234 232 226 222 218 217 214 213 208 205 201 
196 193 193 193 198 198 199 199 198 198 196 196 193 195 196 198 199 199 199 
200 206 204 204 203 207 210 211 212 209 208 209 207 205 202 199 195 195 195 
196 198 199 201 204 207 206 211 214 215 215 220 223 222 223 228 229 238 241 
244 244 246 246 245 245 244 242 245 245 241 239 241 242 246 246 244 240 235 
233 232 232 233 233 229 224 221 218 214 211 208 204 202 198 196 195 197 201 
201 200 200 201 201 199 198 195 197 197 198 201 201 202 204 209 211 207 208 
208 210 210 207 206 205 208 207 204 202 199 195 193 195 199 205 207 210 210 
210 211 213 215 217 217 219 222 222 225 228 232 239 243 247 245 248 251 247 
248 247 247 249 247 243 239 238 240 243 246 247 241 237 230 230 229 228 228 
227 224 221 217 218 217 214 213 205 202 201 200 202 204 204 205 204 208 208 
203 199 196 195 198 199 198 197 197 201 205 210 208 208 209 207 204 201 199 
203 208 210 209 206 204 201 200 201 207 208 209 212 212 212 212 213 215 214 
214 215 220 221 224 228 231 234 235 240 240 243 244 244 245 242 243 252 253 
253 249 240 236 240 239 239 238 236 229 228 226 223 223 222 222 219 216 216 
215 214 213 204 203 201 201 201 201 202 200 199 203 207 208 201 201 199 201 
198 195 195 195 198 201 206 208 208 210 209 207 204 205 205 208 213 213 208 
208 207 203 203 207 208 211 212 214 215 211 210 209 212 216 218 218 223 222 
227 233 237 236 239 240 240 236 236 238 240 242 254 255 254 252 247 243 241 
236 235 235 232 230 230 230 229 229 228 224 221 216 212 211 211 210 209 206 
206 208 208 209 208 207 207 207 208 207 205 205 202 200 198 196 199 201 202 
202 208 213 212 213 208 207 208 210 210 209 210 205 202 205 204 203 200 201 
207 211 214 213 211 207 207 209 208 208 211 215 221 225 230 235 238 238 238 
240 240 238 238 238 242 243 249 252 253 253 248 242 240 239 239 237 234 233 
234 233 230 228 229 226 220 216 212 210 210 211 212 210 212 212 211 208 206 
208 210 208 208 211 209 209 205 206 208 207 207 208 209 213 219 221 224 223 
216 212 211 211 214 215 213 208 206 203 202 202 201 204 209 211 212 209 208 
207 207 208 210 211 213 214 214 218 223 229 229 233 238 238 239 240 241 241 
245 245 250 250 249 249 245 242 242 240 239 235 232 233 231 229 229 226 224 
226 222 221 220 219 213 211 210 213 215 213 212 209 207 207 209 208 208 211 
211 211 207 206 210 210 209 211 213 218 220 223 223 225 222 218 214 211 213 
215 215 209 206 200 198 200 201 202 205 208 213 212 210 208 210 210 214 218 
219 218 215 213 217 222 227 232 235 237 238 241 244 243 242 238 248 246 247 
250 249 247 243 238 237 234 230 231 230 230 228 225 224 224 221 224 223 219 
217 213 211 211 210 208 207 208 209 210 212 209 206 206 203 204 206 210 214 
214 216 216 216 217 222 222 221 223 220 217 214 212 215 215 211 208 204 200 
198 198 201 200 207 212 213 218 217 218 216 215 217 222 222 221 218 217 222 
227 230 233 234 238 241 244 246 248 245 243 246 244 247 246 248 248 245 238 
234 231 232 230 229 227 224 222 222 222 219 220 219 217 213 212 209 205 203 
205 207 208 210 211 214 216 214 210 206 206 210 215 217 217 220 217 215 214 
215 216 219 217 219 220 220 220 221 217 213 207 204 206 203 201 204 207 211 
215 219 223 223 223 221 220 221 223 223 222 221 219 219 225 228 230 232 237 
243 244 248 252 253 253 250 251 253 254 254 249 244 235 233 232 232 232 229 
224 223 224 224 221 215 215 214 209 208 207 206 206 202 207 211 212 216 217 
219 221 219 217 216 216 219 221 222 221 226 223 219 215 215 213 215 213 215 
217 217 219 219 217 213 207 207 204 202 202 207 210 214 217 219 219 220 218 
217 219 219 218 221 223 225 224 227 228 229 230 233 238 245 247 248 248 246 
246 254 255 255 254 253 249 241 236 230 232 233 234 229 224 222 221 222 218 
212 210 208 210 209 210 210 209 209 211 217 219 218 219 218 220 218 220 219 
218 219 219 223 223 225 227 220 216 214 212 211 206 207 210 211 212 213 212 
211 210 210 211 211 212 213 213 214 216 217 213 215 215 216 222 222 222 222 
223 225 228 227 226 226 227 233 242 245 246 250 250 249 250 250 249 249 246 
250 250 244 242 238 236 236 236 231 228 221 219 218 216 213 210 213 216 215 
217 219 219 218 220 224 226 226 225 221 219 218 222 223 223 223 222 222 224 
227 228 221 218 216 215 213 210 213 216 217 218 213 213 212 214 214 219 221 
221 216 216 215 216 217 214 215 213 213 218 216 219 222 223 225 226 228 230 
230 234 238 243 247 249 249 251 251 251 247 250 250 248 250 249 245 245 237 
233 234 232 229 225 224 222 220 219 218 215 214 215 215 221 223 223 222 224 
228 226 225 226 223 220 219 220 221 220 222 225 224 227 228 223 220 220 218 
219 217 213 215 216 219 221 220 220 218 217 218 221 224 226 226 222 221 221 
220 220 220 218 216 217 217 219 221 223 224 225 230 229 234 240 244 245 249 
250 249 251 252 251 249 252 250 247 244 243 243 240 236 237 236 233 231 228 
228 222 221 224 226 226 224 224 222 226 229 229 228 228 226 226 227 227 224 
221 223 222 222 224 226 226 225 231 230 229 221 217 216 218 218 218 219 221 
223 223 224 226 222 220 220 223 224 225 227 225 227 230 224 221 221 221 220 
218 222 220 223 225 225 225 229 230 232 237 241 244 247 247 245 250 254 254 
251 252 249 248 246 246 244 241 241 240 237 233 232 229 231 227 229 230 230 
230 224 220 223 228 232 232 232 228 229 225 226 226 230 231 231 226 225 227 
230 230 228 226 225 228 224 224 222 225 224 224 223 221 221 220 220 222 222 
220 222 224 225 225 227 229 227 229 227 226 228 229 229 227 227 229 229 231 
229 231 233 236 237 240 242 244 247 247 244 244 244 242 252 252 250 246 244 
244 241 235 236 235 235 235 235 234 235 231 230 231 228 229 228 229 231 233 
232 230 231 230 226 224 226 223 227 228 229 228 229 229 229 229 230 229 228 
230 227 230 230 233 229 227 226 225 222 220 218 220 219 216 220 222 224 221 
225 228 229 231 231 232 233 234 232 228 230 229 228 231 228 229 234 240 240 
243 244 245 249 249 246 245 244 243 253 252 251 248 246 241 238 235 234 236 
237 235 234 236 236 232 232 231 232 231 232 235 237 237 234 231 229 229 227 
225 227 224 228 229 227 227 230 230 232 230 227 226 228 232 231 229 232 233 
228 227 226 225 223 219 219 220 221 219 223 229 231 231 231 231 232 234 232 
233 235 233 233 229 232 231 228 229 225 222 225 234 239 244 249 251 250 251 
250 248 245 245 252 253 253 252 248 242 241 238 236 237 235 235 235 234 233 
228 228 227 230 230 233 237 239 238 234 230 226 227 226 227 232 234 233 232 
229 229 227 229 233 229 230 230 227 231 231 231 232 233 233 230 231 229 225 
226 229 228 226 228 231 236 233 232 232 231 234 236 235 234 234 235 235 233 
235 236 233 232 229 228 233 239 242 246 250 252 251 252 252 250 250 251 252 
253 252 251 246 244 242 242 240 237 237 237 233 233 230 229 229 228 229 229 
231 237 242 239 236 231 227 227 231 236 238 240 236 234 233 230 229 231 237 
236 234 231 232 234 238 239 240 239 239 238 236 233 232 233 232 232 229 231 
232 232 231 231 232 235 235 235 233 232 231 232 234 238 240 242 242 239 234 
232 237 241 242 247 252 255 255 251 249 250 248 249 251 252 249 245 239 239 
239 242 242 239 235 233 228 231 231 230 232 233 233 230 231 236 241 243 242 
239 235 231 233 237 239 241 240 241 239 239 237 241 247 246 248 243 236 232 
239 242 243 243 243 243 241 240 242 239 237 235 233 235 234 234 233 230 229 
230 231 233 235 236 236 235 238 242 244 246 247 244 240 240 242 243 241 242 
246 248 249 248 250 252 252 254 251 250 248 245 239 237 236 235 230 234 235 
235 234 233 230 232 231 232 233 233 232 236 239 242 240 240 238 236 236 239 
239 240 239 242 244 245 243 247 251 252 253 249 244 239 240 242 243 241 243 
242 239 240 239 239 239 238 238 233 232 233 232 235 236 237 235 238 239 238 
238 238 242 245 246 247 249 248 242 242 242 241 240 239 241 244 248 252 252 
252 254 255 255 255 254 249 244 241 236 235 234 239 238 237 237 236 231 233 
237 239 241 239 238 237 238 241 240 242 242 240 240 242 243 242 241 242 245 
247 247 247 252 255 253 252 247 243 241 242 244 247 246 244 241 241 239 243 
243 241 240 237 235 235 235 239 241 242 240 242 244 244 246 245 245 246 244 
247 248 246 243 242 242 244 240 241 241 242 242 245 245 249 250 251 254 254 
253 248 244 241 240 240 240 243 242 241 242 243 238 240 240 243 244 243 242 
242 244 244 248 247 246 243 243 243 242 242 241 240 241 245 248 253 254 254 
252 251 248 247 245 244 245 249 248 249 248 245 245 245 244 244 240 238 236 
236 237 240 243 247 248 250 251 251 249 248 246 245 246 246 246 245 244 244 
243 240 237 235 240 242 243 245 245 245 246 246 254 255 251 247 245 243 241 
243 243 245 246 247 247 248 245 246 248 249 249 244 242 245 244 245 246 247 
246 243 240 240 239 240 242 241 242 245 249 251 250 252 251 249 246 248 249 
249 252 252 250 251 251 251 249 247 242 244 240 240 240 241 242 244 245 248 
250 253 255 255 254 251 249 249 249 249 247 244 246 245 244 241 239 238 241 
241 240 245 248 250 252 252 252 251 248 243 244 244 244 246 247 248 248 248 
251 252 253 253 253 253 252 248 245 247 244 246 246 245 245 243 244 243 243 
242 240 244 246 246 249 245 246 247 251 250 249 250 251 254 253 253 249 252 
253 253 251 250 247 251 249 244 243 242 244 246 248 251 251 252 253 253 253 
252 250 250 249 249 247 245 246 247 245 240 239 240 243 245 246 251 250 252 
254 255 252 250 246 241 242 243 245 249 250 250 252 253 254 255 254 253 253 
254 253 253 251 249 244 245 246 250 252 251 249 247 247 246 244 248 249 250 
247 245 242 244 248 249 250 251 253 253 254 252 252 254 253 253 253 255 253 
253 252 251 252 249 248 249 249 248 249 251 254 253 254 254 254 250 250 251 
251 250 248 249 248 242 239 240 241 245 248 255 254 253 252 251 247 247 244 
243 244 248 248 251 253 254 254 255 254 255 254 254 253 251 252 253 252 252 
250 250 249 252 251 251 251 252 250 251 251 252 252 253 255 254 251 250 249 
248 248 249 248 253 254 254 255 255 255 255 255 255 255 254 253 254 255 254 
254 251 250 250 249 250 251 248 249 250 252 254 254 254 255 252 252 250 249 
245 240 240 242 247 251 255 255 254 253 251 243 245 245 243 244 246 247 253 
255 255 255 254 253 254 255 254 253 251 251 250 250 251 249 251 252 249 252 
253 253 253 253 254 254 253 252 252 255 254 252 251 250 250 250 250 252 255 
255 255 255 253 252 253 254 254 255 255 255 255 255 253 251 247 248 246 246 
246 249 248 247 247 251 254 253 252 250 252 249 248 248 246 243 240 240 250 
253 255 252 249 250 249 
