P2
#output from hocrtest
80 80
255
255 250 254 250 254 253 246 242 250 251 250 251 253 255 255 252 245 244 241 
232 241 242 235 251 251 254 254 254 255 255 253 243 248 252 252 255 254 255 
254 255 250 253 254 255 251 255 251 255 251 244 248 253 251 244 247 250 246 
244 241 230 252 253 252 247 255 255 244 250 249 246 247 247 253 245 255 253 
251 253 254 255 255 255 255 254 252 252 247 244 248 249 250 252 252 253 254 
252 246 243 245 243 244 244 244 250 250 252 252 250 252 252 248 245 247 250 
252 254 253 255 255 255 255 255 255 253 251 254 253 253 252 253 255 255 253 
251 249 248 242 240 237 238 248 251 252 253 255 253 248 250 247 245 248 250 
251 249 252 252 251 252 253 252 252 254 254 254 249 247 243 244 244 245 247 
246 250 250 251 251 251 250 250 249 247 245 246 247 248 249 250 250 250 249 
247 245 247 249 252 255 254 255 254 255 254 254 252 250 247 248 249 250 252 
253 254 253 253 253 248 246 241 241 240 241 246 245 249 250 252 250 247 247 
246 248 248 249 249 250 247 243 242 243 241 242 251 253 252 249 247 246 244 
243 241 240 244 247 251 254 253 251 253 250 250 250 251 247 246 246 247 247 
245 245 244 245 246 246 247 251 254 254 255 253 249 250 252 255 254 252 251 
252 250 245 248 250 252 252 253 255 251 247 239 240 239 239 241 241 247 248 
250 250 250 249 249 249 252 246 246 248 244 240 238 237 239 243 248 252 253 
253 250 248 245 244 244 244 248 249 253 253 253 251 254 251 251 250 248 246 
242 237 236 236 236 236 237 242 243 246 248 251 252 248 248 247 245 245 245 
249 251 251 250 254 253 250 250 251 251 250 250 248 248 244 239 237 233 238 
238 240 242 246 249 248 247 246 249 248 249 247 244 244 241 241 241 237 239 
241 250 251 253 252 251 247 244 243 242 246 249 252 254 253 251 251 252 251 
252 253 250 247 244 241 237 234 236 237 241 244 244 244 248 247 248 245 243 
242 242 241 240 245 249 250 250 254 251 252 251 250 247 249 248 247 245 243 
239 236 236 243 244 243 243 246 245 243 241 240 240 242 246 247 247 243 241 
242 242 243 242 241 252 252 253 253 249 242 240 237 242 248 252 255 254 251 
248 251 251 251 251 251 246 242 240 236 234 234 237 237 242 244 247 246 245 
244 242 239 237 234 233 235 236 241 245 248 248 252 253 253 251 248 249 248 
247 243 245 244 240 238 238 239 241 243 241 241 240 237 238 237 238 239 243 
244 245 243 242 243 242 243 243 243 255 255 253 254 249 243 238 239 241 245 
249 248 247 245 246 247 249 248 246 246 239 236 236 237 238 241 241 241 245 
246 246 243 240 237 235 231 230 231 231 231 231 235 238 241 245 248 250 250 
248 246 246 245 245 244 245 241 238 239 242 241 243 243 243 242 240 239 238 
235 234 236 239 242 243 243 241 241 240 241 246 246 255 255 255 255 250 244 
241 241 243 244 246 243 240 241 245 241 242 242 240 236 234 235 231 233 235 
242 244 243 241 244 240 237 233 231 228 225 228 230 233 234 235 238 238 239 
247 246 246 241 238 239 239 237 238 239 237 234 235 238 242 242 241 240 240 
238 235 234 230 226 229 233 234 239 240 238 241 240 240 242 244 242 255 255 
255 254 254 251 248 244 243 241 240 236 235 236 237 236 238 237 235 232 230 
230 226 230 239 244 247 247 244 241 240 235 230 228 227 228 228 233 233 233 
236 237 236 238 240 245 244 237 231 231 230 230 233 233 231 230 232 234 236 
237 235 234 234 234 232 230 226 227 229 231 236 238 240 236 236 236 239 242 
244 245 254 254 250 251 254 251 248 246 243 238 234 233 230 229 231 230 230 
230 228 227 227 229 233 238 244 244 248 245 245 243 237 232 232 229 225 227 
229 229 230 232 236 236 236 236 240 240 236 229 222 222 228 231 231 230 233 
232 233 229 231 233 234 235 233 233 232 232 230 229 228 229 234 237 239 240 
237 237 240 243 247 249 250 248 246 248 248 248 246 241 236 234 227 230 230 
229 228 229 228 228 225 225 229 232 234 237 240 240 241 239 239 239 235 231 
228 228 228 228 232 232 230 232 232 231 230 233 235 235 230 224 221 220 223 
230 227 227 227 228 229 227 230 232 231 233 232 232 235 235 235 235 232 233 
236 236 237 239 237 236 237 242 245 248 248 247 246 244 241 244 244 242 238 
234 227 224 226 227 227 226 225 224 221 224 227 231 235 237 236 234 234 234 
233 234 231 230 229 230 231 230 231 232 230 230 228 229 228 227 227 228 223 
220 220 221 218 227 227 228 226 228 230 228 230 230 229 229 231 233 236 236 
236 233 231 235 238 240 241 242 240 238 238 240 242 245 251 250 245 245 245 
247 246 243 243 239 230 228 227 226 224 222 222 219 218 219 220 226 230 232 
235 232 231 231 230 231 227 227 227 226 222 225 226 229 232 235 234 235 232 
229 227 226 223 223 221 223 223 228 227 227 229 226 222 224 223 223 224 225 
225 229 233 234 232 235 232 233 234 238 242 245 243 243 242 243 243 245 253 
252 249 249 249 250 249 247 243 240 233 231 230 227 224 224 218 217 216 218 
217 219 228 232 235 232 229 223 221 225 226 225 227 224 224 224 226 230 231 
233 231 230 228 228 227 224 225 226 227 225 226 230 229 229 228 223 220 222 
224 226 227 225 223 225 228 233 234 236 234 233 234 242 243 249 249 250 249 
249 247 247 251 249 250 250 249 247 246 240 236 235 230 231 232 231 226 226 
221 219 219 219 220 217 223 229 233 231 228 223 222 222 220 215 221 223 224 
225 228 231 232 232 228 225 224 224 223 219 221 222 225 225 226 225 225 225 
226 225 222 225 226 227 227 226 223 223 228 230 229 228 229 230 237 242 246 
254 254 254 254 254 255 255 254 251 250 249 246 245 243 239 235 229 227 228 
229 226 221 223 219 219 221 218 217 215 217 223 225 223 222 222 219 216 215 
216 223 223 225 227 226 223 224 224 227 226 221 221 219 216 219 220 223 227 
229 232 229 230 231 227 228 231 232 229 228 226 221 222 223 224 223 226 227 
232 237 241 243 249 251 251 253 254 255 255 251 248 248 245 244 247 246 244 
242 239 235 233 230 224 218 220 219 218 216 215 216 216 217 220 219 216 218 
218 215 217 216 215 219 221 226 226 224 224 224 223 224 226 221 217 214 212 
214 217 220 222 226 230 229 228 226 225 226 229 228 228 225 223 223 223 224 
221 221 226 227 232 236 238 242 243 244 245 250 252 252 254 248 247 243 240 
242 245 245 245 243 243 240 237 232 226 223 219 215 213 215 216 216 218 220 
218 215 216 215 214 214 216 217 218 222 222 226 225 223 221 221 219 219 221 
218 217 217 217 218 218 218 219 226 229 228 225 222 220 219 223 222 223 223 
218 219 221 221 220 220 222 224 229 232 233 237 239 242 244 248 251 251 253 
248 247 243 242 244 246 247 246 244 243 241 238 235 228 224 219 215 213 213 
215 217 217 218 218 217 214 214 211 211 214 215 217 218 219 220 219 216 216 
219 220 219 220 219 217 217 217 218 217 214 217 221 220 220 217 217 216 216 
220 224 227 227 218 215 215 217 220 220 221 224 225 226 230 234 238 241 245 
247 247 247 244 248 249 246 245 245 246 244 242 237 230 229 230 232 231 229 
226 222 219 217 217 217 215 214 212 213 215 213 212 212 214 216 215 217 218 
219 217 214 213 217 215 216 217 212 214 218 218 219 217 215 218 217 219 217 
216 214 212 214 218 223 224 221 210 209 211 217 217 220 225 230 234 234 235 
236 239 242 245 247 249 251 248 252 253 251 248 246 246 245 239 233 227 225 
223 226 228 228 228 221 219 219 217 214 213 210 209 208 212 211 212 215 218 
216 217 217 218 220 219 218 216 216 216 217 218 209 212 214 217 221 220 219 
216 215 215 216 212 211 209 210 213 215 218 218 211 210 213 214 220 224 226 
226 234 237 239 241 242 241 244 242 246 248 247 253 254 255 251 249 248 240 
233 230 228 226 227 227 225 227 227 224 224 224 219 212 210 211 212 213 214 
216 216 216 216 216 216 216 219 222 223 219 214 210 210 210 209 210 212 212 
217 220 218 218 216 216 216 215 212 213 212 211 213 214 216 216 214 216 215 
219 225 226 228 229 233 237 242 245 244 243 241 244 245 246 245 253 254 254 
254 249 247 243 240 235 232 232 232 230 230 232 232 224 225 224 223 218 215 
217 221 221 216 215 216 214 214 213 214 216 219 219 220 215 209 205 204 202 
204 208 208 211 215 214 215 217 217 218 217 213 212 213 213 212 214 214 216 
218 218 217 222 226 228 229 227 228 233 234 236 239 241 243 244 247 247 247 
246 251 251 250 252 250 247 243 238 236 231 232 233 232 233 234 233 226 223 
220 217 213 213 215 217 214 209 213 213 213 212 205 207 209 213 216 217 212 
204 201 200 202 202 205 202 207 213 213 211 211 214 213 212 212 212 213 211 
207 202 202 203 211 216 219 224 227 228 227 226 226 228 227 230 236 241 242 
245 250 250 250 252 253 252 252 250 248 247 243 238 236 233 235 234 234 233 
233 229 223 220 216 214 212 215 216 215 208 209 210 210 213 216 211 212 213 
216 217 213 207 202 196 194 196 199 201 202 205 211 211 207 209 208 208 210 
208 208 207 208 210 208 209 208 212 215 218 222 226 229 229 232 233 233 234 
237 240 242 245 247 248 249 253 255 253 253 251 248 246 245 243 241 238 236 
239 237 236 233 231 228 223 220 216 216 217 218 216 217 211 209 209 209 208 
208 209 206 209 212 212 209 205 200 199 195 191 192 192 197 201 205 206 204 
204 201 203 208 205 204 205 208 210 210 211 214 220 223 225 223 224 228 229 
233 234 234 235 240 240 241 244 245 247 249 254 255 251 250 245 245 244 246 
245 244 240 238 237 236 236 234 231 229 227 221 217 217 216 217 215 215 211 
208 207 207 210 210 208 207 207 208 209 209 205 202 203 200 196 193 188 191 
195 198 200 200 202 201 203 205 202 206 210 212 209 212 214 217 222 228 227 
225 225 225 226 229 231 231 233 239 242 244 248 248 248 249 252 252 251 250 
245 243 242 244 242 242 238 235 237 238 237 236 233 232 229 220 217 215 216 
217 212 211 205 201 198 193 195 195 199 202 203 204 206 204 201 202 201 202 
200 195 189 189 190 193 193 191 191 193 199 201 200 202 208 214 215 218 217 
218 222 225 224 223 224 228 230 231 232 234 235 240 242 245 246 244 244 244 
244 243 247 246 244 242 244 244 243 239 235 231 231 233 233 235 233 232 227 
220 217 210 213 216 214 211 202 198 194 189 189 192 196 199 203 203 204 201 
203 201 200 202 201 193 188 184 184 187 189 192 192 196 197 197 199 203 209 
213 215 214 217 218 221 225 228 229 228 230 231 233 233 240 239 242 244 248 
250 249 250 250 251 250 246 244 242 239 241 241 242 241 238 236 235 234 232 
230 229 226 219 217 214 214 215 215 211 207 201 198 194 193 194 193 194 197 
199 202 199 200 201 199 197 200 201 196 191 189 191 192 194 193 196 193 192 
197 200 204 208 211 211 212 212 213 219 223 225 227 227 228 230 234 233 234 
234 236 239 241 247 249 251 251 252 252 243 243 244 241 241 244 244 242 239 
237 234 233 232 231 229 230 225 220 215 213 212 210 207 207 201 200 200 198 
198 198 197 198 198 199 197 199 199 200 196 197 195 191 187 189 194 194 194 
190 193 190 191 195 199 205 210 214 211 210 212 212 215 215 217 222 228 231 
232 236 234 239 241 244 246 243 248 252 250 252 255 255 249 246 245 245 245 
244 244 243 240 235 232 229 229 225 225 227 225 220 214 212 213 213 210 207 
202 204 203 202 194 196 194 194 195 193 191 191 192 192 191 192 191 187 188 
189 192 193 192 190 188 187 188 191 194 207 210 214 213 213 212 213 214 213 
213 218 223 226 227 231 229 235 237 243 246 249 253 252 252 250 251 254 248 
250 250 251 248 249 248 246 241 236 230 228 223 218 219 226 223 220 221 216 
211 207 208 207 202 203 203 202 197 198 192 191 192 189 188 186 183 182 182 
186 187 186 187 187 191 194 191 189 189 190 193 202 205 211 211 213 213 214 
214 215 212 210 212 218 222 227 232 235 233 233 235 239 243 249 254 251 251 
248 246 246 247 247 246 244 244 243 241 238 238 236 233 229 223 220 221 223 
221 221 222 217 210 207 208 207 202 203 201 200 197 196 193 194 193 192 190 
188 182 179 179 179 182 184 188 188 195 198 199 198 197 196 199 203 207 208 
210 208 208 209 210 211 213 217 219 221 222 226 228 228 227 227 229 234 241 
246 250 248 247 244 245 244 252 249 245 243 241 239 238 236 236 234 235 233 
229 227 227 227 223 221 221 215 212 210 210 207 203 204 203 202 198 195 192 
189 190 191 193 188 183 179 175 178 181 180 184 192 198 202 203 201 196 195 
198 202 203 205 206 208 210 208 209 211 214 216 218 219 222 225 226 226 226 
230 234 236 240 242 244 246 247 245 245 246 253 250 247 245 242 244 242 240 
237 235 234 233 233 232 228 227 224 222 221 215 213 210 207 206 206 205 204 
202 201 196 193 189 191 190 193 189 185 183 180 179 181 180 184 188 191 192 
195 193 192 194 195 198 197 201 203 206 209 211 211 214 215 216 216 217 218 
221 222 224 223 230 233 237 240 241 243 245 245 244 241 239 250 249 248 243 
241 244 243 242 234 230 230 231 235 234 232 229 227 227 226 219 218 217 213 
210 210 207 207 204 204 202 196 192 192 189 190 187 184 182 182 182 184 186 
186 187 189 190 188 192 195 197 198 197 196 201 204 204 202 206 209 211 210 
213 218 219 223 226 228 229 228 227 230 230 236 241 243 243 246 247 246 246 
246 246 244 242 242 243 241 240 237 236 233 229 227 223 226 226 227 225 227 
224 222 215 214 209 209 207 205 203 202 203 198 191 188 186 183 181 181 183 
182 187 184 186 182 181 182 186 188 189 197 201 203 199 197 201 202 199 197 
206 210 214 213 217 221 222 226 228 228 228 226 227 230 231 235 238 240 242 
246 251 250 250 243 243 241 237 238 239 238 238 236 235 232 228 225 221 222 
220 221 221 221 220 217 214 210 209 208 209 209 209 207 204 200 193 189 188 
187 183 182 181 182 185 186 185 183 181 183 185 188 192 196 200 200 196 192 
196 205 204 207 211 215 216 218 222 224 224 224 225 225 225 225 226 229 231 
233 236 241 246 249 250 249 250 242 246 244 238 238 237 241 239 238 233 230 
226 224 219 217 216 216 215 213 210 211 208 208 209 209 209 209 207 202 194 
193 189 189 190 187 189 186 185 186 187 185 184 187 186 188 187 191 193 193 
196 195 197 197 201 209 206 210 212 213 216 217 217 217 222 222 224 225 225 
223 226 228 231 235 239 245 250 252 251 248 247 241 243 247 245 245 242 245 
245 240 235 230 226 221 217 214 212 213 211 211 209 209 208 208 206 205 205 
205 206 203 197 195 190 187 188 189 189 189 187 185 181 176 178 182 186 186 
188 190 194 195 193 195 198 199 201 206 209 212 214 214 218 216 218 221 224 
226 226 227 225 226 228 230 234 237 241 245 250 250 250 248 246 253 253 255 
255 252 252 248 247 243 234 228 223 218 219 221 222 218 216 215 212 212 212 
210 206 206 207 209 207 204 199 198 194 191 190 192 190 188 187 184 181 178 
180 182 189 191 192 192 194 194 196 198 201 200 199 200 201 206 212 215 218 
224 223 225 225 227 229 228 228 230 232 237 242 244 250 251 252 251 250 249 
250 252 254 255 255 255 255 253 250 247 241 235 230 225 224 225 227 227 226 
219 216 211 213 207 203 203 203 205 205 207 203 199 195 191 191 190 190 187 
186 181 176 175 176 174 184 190 193 199 197 200 199 200 201 201 198 199 203 
203 208 217 221 224 225 228 227 228 230 230 231 233 235 238 242 248 253 252 
253 251 247 246 246 250 250 246 249 255 255 251 248 243 240 232 229 224 223 
226 225 224 227 216 215 213 212 210 209 207 206 206 203 201 202 200 198 194 
191 188 188 185 186 183 180 181 185 186 192 196 200 203 202 202 204 205 207 
206 206 206 208 207 210 215 219 223 224 226 229 231 234 234 234 233 232 237 
242 248 251 251 252 254 254 254 255 244 246 245 248 250 251 251 248 244 238 
233 229 224 220 221 220 220 219 214 211 208 205 206 208 209 208 206 202 201 
200 198 195 195 190 190 187 186 187 186 188 189 193 194 193 198 202 205 195 
191 196 199 203 205 209 210 213 216 214 212 214 215 221 226 229 230 232 236 
238 237 236 238 242 247 249 250 248 251 253 252 253 240 243 244 246 246 245 
247 247 244 236 232 227 223 219 219 219 215 215 208 205 204 206 208 213 215 
212 208 203 199 197 193 192 188 185 187 187 186 189 191 192 193 200 201 198 
200 199 198 191 190 190 195 198 202 208 215 217 216 214 213 217 216 223 228 
230 231 232 231 234 236 235 238 243 248 247 246 244 245 245 247 246 240 238 
239 239 238 236 235 239 239 236 234 227 223 220 219 216 215 214 206 206 204 
205 207 214 215 213 210 206 202 200 199 195 191 188 187 184 184 185 189 191 
195 198 198 195 195 194 192 189 189 188 193 198 204 210 212 214 214 214 214 
216 216 222 225 228 231 229 231 234 235 234 234 237 240 245 247 247 249 246 
245 244 238 237 235 237 237 239 241 243 238 235 235 228 221 220 218 219 218 
217 214 213 210 208 209 211 210 209 208 207 203 197 194 197 193 188 184 183 
182 186 185 189 195 197 198 197 192 190 190 191 191 191 193 195 203 208 210 
211 211 210 211 213 218 222 225 228 230 227 228 228 228 226 229 237 243 246 
246 246 246 245 244 244 237 237 233 230 232 235 237 237 235 232 231 228 224 
223 222 220 223 224 223 219 222 218 215 214 211 211 208 206 200 196 193 190 
190 190 188 187 186 186 187 191 193 196 197 191 189 191 189 188 188 189 191 
196 202 204 208 206 206 209 212 214 222 227 227 228 230 229 228 227 230 227 
229 233 239 242 242 243 243 242 244 246 236 234 232 231 235 237 241 239 235 
232 232 231 225 222 221 219 219 223 223 222 223 223 220 217 211 207 205 202 
197 194 193 193 194 197 199 200 198 196 196 197 197 195 196 192 192 193 195 
195 195 198 196 199 202 204 205 204 203 204 213 220 223 229 230 230 229 225 
225 224 224 228 230 233 236 239 241 243 244 243 243 239 239 237 234 239 239 
239 241 239 234 232 229 229 226 225 222 223 221 221 221 218 217 217 214 211 
209 206 202 197 195 194 189 191 190 195 198 198 199 198 200 200 196 192 194 
196 198 198 198 195 194 199 200 203 202 202 201 200 203 206 211 221 222 224 
225 227 228 228 226 225 228 228 228 233 234 238 242 244 247 249 250 252 244 
244 244 246 243 241 238 237 234 230 227 223 221 223 220 220 219 220 219 216 
215 214 210 204 205 204 203 198 197 196 189 190 192 195 199 198 197 195 196 
195 197 199 201 201 201 202 200 198 197 200 201 201 201 200 201 200 203 205 
208 215 217 219 219 220 227 227 225 227 227 224 226 230 231 238 241 245 249 
249 247 246 248 248 247 247 245 242 240 238 237 235 230 226 222 224 221 219 
216 213 211 209 208 210 208 203 201 201 201 201 202 201 196 197 199 202 201 
200 198 196 196 198 205 205 205 205 204 204 201 202 199 205 204 201 202 200 
198 202 205 208 210 211 217 220 219 222 229 230 225 224 224 222 224 230 236 
240 244 247 247 245 240 233 248 251 250 250 249 246 245 239 238 237 232 228 
226 224 220 218 218 217 216 213 214 212 210 206 204 202 204 206 206 203 202 
202 203 202 202 197 197 196 198 201 204 203 203 202 202 206 207 206 204 203 
202 202 203 197 198 206 207 210 211 214 218 224 226 231 235 234 228 226 225 
224 224 226 231 235 242 246 247 249 246 244 255 255 255 254 252 249 246 242 
239 238 236 232 229 227 222 222 222 222 223 220 218 215 214 209 207 206 210 
213 214 209 208 202 203 202 202 196 195 199 199 202 203 204 203 201 201 202 
205 205 203 202 200 202 202 202 204 207 210 210 214 215 219 222 224 228 234 
235 234 229 226 227 225 229 234 235 239 245 248 251 252 255 254 253 254 254 
253 246 243 239 239 238 233 230 228 225 223 223 225 226 222 217 213 212 209 
206 205 209 210 216 218 214 210 207 207 208 207 205 206 208 207 206 206 210 
209 208 211 210 209 207 206 208 206 209 212 214 214 212 210 211 214 214 217 
218 221 223 225 229 231 229 229 229 228 228 232 236 241 246 250 254 255 255 
254 252 252 252 252 247 246 243 241 238 234 231 231 226 222 217 218 220 221 
218 216 213 211 209 211 212 213 213 215 212 208 207 207 205 205 206 208 210 
209 210 209 210 212 212 212 214 215 212 210 211 207 210 210 213 214 213 212 
213 215 217 218 218 220 222 224 225 227 226 229 232 233 234 236 238 244 247 
250 255 252 250 253 252 251 251 251 247 246 245 241 235 233 229 229 229 225 
220 217 216 215 217 219 219 216 212 211 212 213 213 212 208 207 208 206 206 
206 205 207 209 211 210 206 206 210 214 212 215 215 210 206 206 202 204 208 
211 214 211 208 208 210 216 217 221 222 220 221 223 224 229 232 232 234 236 
238 242 245 245 249 253 252 252 254 253 251 246 246 244 242 241 236 235 232 
229 228 227 227 224 221 218 217 215 214 216 215 214 218 221 218 214 215 212 
212 213 212 213 209 208 210 208 209 207 210 212 212 215 216 217 217 212 208 
206 207 208 207 210 215 211 211 214 215 216 216 218 220 219 217 220 223 228 
232 236 237 238 238 241 245 245 246 247 249 251 255 253 252 252 248 244 239 
235 234 233 230 227 226 222 222 223 218 216 219 217 215 216 216 217 224 224 
223 220 219 216 215 215 214 211 209 207 210 208 207 206 211 213 212 213 217 
217 216 214 215 216 214 209 210 216 219 219 219 219 222 221 219 217 219 219 
219 219 221 224 226 231 239 241 243 244 245 243 246 248 250 253 254 254 255 
255 247 239 233 230 232 230 226 225 223 219 220 223 222 221 221 221 221 222 
223 223 223 222 222 221 220 218 217 216 215 214 213 213 213 213 210 210 214 
216 216 217 222 224 219 217 217 220 221 218 216 216 215 218 217 216 216 219 
218 218 218 220 218 221 224 226 230 233 237 242 244 244 240 241 241 244 246 
247 255 255 255 249 246 241 237 232 229 230 229 226 222 218 221 224 223 224 
220 221 223 222 219 220 222 224 226 226 224 223 225 224 224 224 225 223 219 
216 215 215 218 219 218 223 224 222 217 217 216 221 223 223 223 223 222 224 
222 220 221 223 219 219 221 222 221 222 227 228 231 233 232 236 241 246 243 
242 240 242 243 243 255 255 254 249 247 246 242 237 231 231 229 224 222 223 
224 226 225 222 221 226 226 224 222 222 228 229 232 230 226 225 225 226 228 
230 229 228 225 222 218 218 219 220 224 228 226 223 219 218 218 222 222 225 
225 226 224 225 224 224 225 224 220 219 224 224 225 225 228 233 234 234 234 
236 234 236 239 241 241 241 240 238 255 255 251 248 244 244 240 236 231 228 
223 223 223 224 224 224 226 225 226 228 229 230 231 231 231 234 232 229 228 
225 222 225 229 233 231 229 229 229 227 221 221 222 221 225 226 223 219 219 
219 217 218 221 224 226 226 224 223 223 225 223 224 222 226 226 225 224 227 
231 233 231 231 232 232 232 235 234 234 238 239 238 252 252 251 249 246 244 
239 237 235 233 230 226 226 227 225 226 226 229 229 228 227 228 231 232 232 
231 229 230 229 227 227 229 231 231 230 230 230 231 227 225 224 221 220 222 
220 219 219 220 221 224 227 231 235 234 234 231 227 228 228 226 222 221 225 
224 225 226 226 229 229 231 230 232 233 234 235 239 240 241 242 241 250 252 
252 247 245 243 241 241 238 234 228 225 226 227 227 227 227 229 226 225 225 
227 229 231 228 228 227 229 227 225 225 225 227 227 229 229 230 229 227 225 
220 214 215 218 214 217 222 222 224 226 230 232 233 235 234 234 230 227 227 
226 224 222 219 220 225 229 231 232 234 234 233 232 231 235 237 239 240 243 
246 244 251 250 249 243 243 243 244 242 239 235 228 228 228 229 229 226 227 
228 228 228 225 226 226 228 229 229 226 225 225 225 225 220 222 224 225 223 
228 228 230 231 229 224 221 224 223 220 223 225 229 231 234 238 242 237 236 
233 228 227 224 225 224 224 223 225 225 229 231 230 233 236 238 235 236 237 
240 243 241 242 244 244 253 250 248 242 240 240 240 239 237 235 230 229 231 
233 233 232 232 232 227 226 225 227 228 229 229 230 229 230 230 231 233 232 
232 230 232 230 230 229 231 235 236 234 226 228 227 224 223 223 224 225 228 
232 236 236 233 231 228 226 224 228 229 229 226 227 227 232 233 233 232 233 
233 236 237 238 242 242 241 242 242 238 253 250 247 243 243 241 240 237 237 
232 228 230 234 233 232 232 233 234 231 231 232 230 231 231 230 232 233 236 
236 238 239 240 240 237 231 229 229 230 232 235 236 234 230 232 228 229 229 
227 228 226 228 229 234 238 237 234 229 229 228 230 230 229 228 231 232 237 
237 237 236 236 237 238 238 242 248 248 248 249 249 249 247 248 247 247 245 
242 239 238 234 232 230 232 232 232 232 232 233 232 233 233 234 232 230 233 
233 234 233 235 237 240 243 246 245 243 236 234 234 234 235 236 237 232 228 
231 229 229 228 229 231 228 230 233 235 237 238 235 231 229 231 230 233 233 
232 231 232 235 236 236 236 234 239 240 238 242 247 249 248 255 254 253 245 
247 250 249 248 245 246 243 241 239 236 235 235 236 234 235 233 232 233 235 
235 233 233 236 236 235 232 232 237 240 243 247 247 245 244 242 239 233 234 
233 238 237 233 235 234 236 237 236 236 232 229 230 232 233 239 240 237 238 
237 235 237 233 233 233 232 236 238 239 240 238 242 243 240 244 246 250 252 
255 253 255 248 248 247 246 247 246 245 246 244 241 240 236 235 235 234 233 
235 235 236 235 238 240 236 238 238 238 237 235 235 240 244 245 244 245 244 
242 239 236 235 235 240 236 233 233 234 239 240 241 242 239 238 235 234 233 
237 240 241 243 241 239 236 233 232 235 235 239 243 246 246 245 243 241 239 
241 243 248 250 253 252 255 248 248 246 244 247 245 244 242 240 239 238 238 
238 237 233 229 232 232 236 237 240 238 240 240 239 237 237 238 237 240 241 
242 243 243 241 241 238 238 238 238 243 240 236 235 238 241 239 240 240 241 
240 236 236 237 239 239 238 239 238 239 236 235 233 235 236 239 244 247 242 
244 242 239 237 239 241 245 248 250 251 249 242 241 243 242 240 243 244 239 
241 241 241 238 239 237 234 230 231 233 236 241 244 242 245 246 244 242 240 
234 236 236 238 241 244 243 244 244 244 242 244 245 249 245 245 244 245 246 
247 247 246 245 243 240 240 240 241 240 239 239 239 238 236 236 235 237 238 
242 245 247 241 242 240 240 241 242 243 245 245 244 240 241 243 242 239 238 
242 246 247 245 246 244 244 244 242 238 237 234 236 237 240 242 242 245 244 
245 242 239 237 234 235 235 237 241 244 244 243 242 243 244 246 249 251 249 
252 251 251 248 248 248 246 241 239 238 241 242 246 245 245 243 241 238 237 
238 240 242 243 247 248 249 245 245 245 246 247 247 247 248 248 249 248 248 
249 245 243 242 245 247 248 246 247 247 248 249 248 245 245 244 240 236 233 
237 237 238 241 242 241 236 234 237 236 236 237 239 240 243 244 242 241 242 
244 247 250 250 249 250 248 249 249 247 246 243 241 242 243 246 250 247 245 
244 242 241 242 244 245 242 245 249 253 255 251 247 248 248 251 252 253 253 
253 250 249 248 253 252 248 245 245 246 248 249 251 250 253 255 255 251 252 
250 248 244 242 238 240 241 242 242 243 238 237 237 237 237 239 239 242 246 
246 245 243 242 243 245 247 250 253 253 249 253 250 248 248 245 244 244 245 
250 254 253 249 247 244 242 241 244 247 247 249 255 255 255 251 254 255 255 
255 253 252 255 255 254 252 252 255 255 251 245 242 241 238 241 245 246 249 
254 255 255 254 251 250 249 249 250 245 245 242 240 241 239 240 241 238 239 
240 240 245 250 251 252 254 250 250 249 248 250 251 252 253 251 249 246 250 
251 252 252 252 253 254 253 250 246 243 240 240 240 244 245 250 255 255 254 
253 254 255 255 255 255 254 252 253 254 252 253 255 254 251 247 243 239 238 
240 243 242 245 245 249 252 253 250 250 249 249 252 250 249 245 241 239 238 
238 240 240 241 244 248 251 254 254 254 252 251 249 250 251 251 251 251 250 
250 250 250 253 255 255 255 255 255 254 251 248 242 238 239 240 241 243 248 
252 250 255 255 255 255 255 255 255 255 255 253 251 249 251 251 
