P2
#output from hocrtest
50 50
255
254 247 252 247 253 255 255 252 255 251 254 255 255 255 255 251 245 254 243 
235 243 242 232 248 251 255 251 248 253 255 254 251 255 255 255 255 252 249 
251 248 246 248 249 251 253 252 249 247 244 231 254 254 253 250 252 255 255 
255 255 251 253 255 255 254 255 251 248 252 250 248 248 243 242 246 252 254 
252 252 254 255 255 255 255 255 255 253 250 247 250 250 250 249 250 251 252 
251 251 248 249 247 255 253 252 250 252 252 252 253 254 250 249 250 250 250 
247 245 244 245 248 249 253 252 254 255 251 252 252 252 254 253 254 250 250 
254 252 249 244 242 244 247 248 247 246 247 248 246 246 247 246 242 255 255 
254 251 252 250 253 255 253 249 244 247 249 251 249 244 241 243 245 247 252 
249 253 252 248 252 254 251 252 251 251 249 248 249 249 245 243 246 249 250 
249 245 246 243 242 244 246 248 248 249 254 254 252 248 248 245 249 253 252 
249 248 247 247 248 246 243 240 240 242 244 246 246 248 248 245 247 244 245 
242 243 246 245 249 251 247 245 244 244 244 248 250 247 246 240 238 247 247 
245 244 241 250 248 251 252 255 249 250 251 251 249 250 249 244 248 247 243 
235 234 236 238 242 245 248 245 245 249 248 248 244 246 247 248 249 251 249 
247 244 240 243 247 249 250 244 242 243 246 246 244 244 243 245 242 251 252 
252 252 251 247 245 242 244 243 246 246 241 236 229 230 235 238 239 246 247 
246 247 246 246 246 243 243 243 243 246 248 247 248 247 243 243 244 244 245 
239 236 240 242 243 243 244 248 244 247 249 252 255 254 252 247 245 241 240 
247 248 244 237 235 233 233 235 239 241 243 239 236 235 239 240 239 239 240 
238 236 238 242 242 244 244 241 248 249 248 244 238 238 236 237 241 241 247 
251 247 246 249 248 247 247 245 244 242 241 245 247 248 242 233 229 227 226 
232 235 238 239 237 237 233 232 232 238 237 239 236 235 236 240 241 241 238 
239 244 247 244 241 239 240 240 242 246 247 252 252 252 253 254 248 244 245 
243 240 239 244 247 247 246 241 230 224 223 222 225 231 238 242 245 240 238 
236 237 241 240 236 232 233 232 235 234 233 231 232 238 242 241 243 241 239 
239 242 246 247 253 254 253 252 249 240 236 236 237 233 233 240 242 243 246 
239 230 224 222 220 224 228 233 238 239 239 241 242 247 249 244 238 236 232 
229 230 232 231 230 231 234 235 240 241 236 233 234 231 239 243 245 244 255 
253 250 243 242 239 239 238 234 242 245 244 243 243 237 229 220 223 229 232 
236 237 236 237 238 240 247 245 242 237 234 232 232 235 234 229 228 231 233 
241 244 243 236 233 233 232 236 240 242 239 254 255 250 247 247 246 242 240 
239 239 241 243 242 239 236 231 229 227 232 232 233 235 234 235 235 236 237 
238 235 233 233 233 232 231 229 224 222 226 235 242 246 246 238 238 239 239 
241 245 246 248 255 255 248 246 246 245 239 239 237 235 236 235 234 231 231 
232 234 233 233 229 228 231 230 231 232 230 229 230 231 234 233 235 228 225 
227 226 226 227 232 239 239 237 234 234 239 240 244 247 250 248 255 255 251 
247 245 244 237 233 233 233 229 232 235 233 236 231 228 231 227 225 227 227 
228 228 228 229 231 231 233 231 229 228 223 225 226 226 226 224 225 228 230 
235 232 232 238 239 241 246 249 250 255 255 251 250 248 248 244 244 240 235 
232 230 228 228 230 228 227 222 217 218 220 222 226 227 224 225 228 230 231 
230 224 218 220 222 223 225 222 220 221 226 234 237 236 236 239 241 244 247 
247 250 252 252 250 250 252 252 249 246 243 236 233 232 226 223 225 221 217 
215 215 217 219 222 224 227 230 231 235 234 233 230 222 218 219 216 216 220 
222 220 221 223 233 235 237 239 245 247 247 247 245 241 250 249 249 248 250 
252 250 246 243 239 236 234 226 222 221 218 218 216 214 217 219 220 221 225 
226 227 227 226 225 224 222 220 217 218 219 219 220 220 220 227 232 233 239 
244 247 251 250 251 251 248 249 246 245 244 244 247 243 242 242 241 236 233 
226 224 221 218 222 221 218 220 217 216 213 216 223 225 219 219 220 221 222 
223 220 221 221 219 221 221 224 228 232 236 241 245 249 253 253 252 249 249 
244 241 239 240 240 239 235 238 241 240 233 229 225 225 220 220 223 223 221 
218 214 211 209 215 220 220 215 214 216 216 222 222 225 225 223 218 221 226 
226 230 233 236 239 245 250 254 248 249 249 252 243 244 244 245 245 240 233 
232 233 233 225 229 227 225 221 221 223 223 224 222 216 216 210 210 208 206 
214 212 213 219 221 225 224 223 222 218 220 222 224 228 232 235 238 245 247 
249 245 246 247 248 244 244 245 246 242 238 236 233 230 230 226 228 225 224 
222 221 218 219 219 219 217 215 213 212 208 206 207 209 208 216 223 227 225 
224 222 225 225 222 220 223 225 231 237 243 246 244 238 238 239 236 246 249 
247 247 247 242 239 238 235 233 230 230 229 231 228 223 218 213 213 220 222 
225 221 218 216 216 214 210 212 218 219 219 218 216 218 223 222 222 222 222 
221 222 245 247 244 236 236 237 236 235 248 248 250 249 246 244 241 240 238 
238 234 232 231 231 228 223 221 218 216 221 223 227 223 224 221 215 215 215 
216 221 224 216 212 214 218 229 230 233 229 225 227 231 242 249 244 240 242 
247 250 251 245 243 245 246 246 243 241 237 234 236 230 233 233 237 231 226 
222 216 218 223 227 226 226 229 228 220 219 218 218 220 217 213 217 221 227 
230 230 232 235 234 233 232 234 238 239 239 243 246 249 249 247 245 245 244 
243 242 238 236 235 236 235 234 231 231 232 228 221 213 214 221 227 227 225 
226 224 218 220 219 216 221 220 219 221 224 229 227 229 231 232 230 231 233 
232 234 235 241 243 245 247 245 248 245 242 243 243 241 240 240 240 240 237 
236 234 232 232 228 223 216 217 219 224 223 223 223 222 214 215 216 216 220 
220 222 222 226 229 227 230 233 235 235 237 237 236 238 240 244 243 241 248 
249 252 249 247 244 246 243 244 242 243 244 243 243 236 231 231 233 230 224 
219 219 219 222 223 221 218 215 217 216 213 213 216 216 218 224 227 223 228 
230 226 233 234 233 234 236 240 245 245 244 247 248 254 253 247 240 235 232 
233 240 243 246 245 243 237 235 229 229 224 224 221 216 215 219 227 229 222 
217 216 215 212 213 216 219 223 228 229 227 231 230 231 234 235 234 234 235 
239 243 245 247 249 251 251 251 248 245 243 239 236 238 243 243 243 242 236 
232 227 228 223 221 218 214 215 217 223 222 222 220 219 219 218 217 219 224 
224 227 227 226 229 224 227 228 232 238 241 243 248 248 249 245 238 240 252 
251 250 248 246 241 240 240 241 245 245 240 239 233 230 225 225 222 218 214 
213 214 212 214 214 217 218 220 224 228 231 232 228 224 222 221 219 219 221 
224 227 233 242 248 249 250 247 243 236 234 252 251 249 250 245 240 238 238 
242 247 247 241 242 233 230 227 224 221 214 215 216 216 217 218 220 218 218 
220 225 230 228 224 221 219 218 221 220 219 221 222 223 231 236 242 246 251 
250 248 238 236 245 243 245 243 241 241 243 245 247 245 243 240 240 229 228 
223 219 222 219 218 220 219 218 217 215 220 219 218 219 225 224 219 219 220 
220 221 222 223 226 222 224 228 233 241 249 250 255 252 248 250 252 250 247 
247 245 243 243 246 247 247 245 242 239 233 233 224 218 222 224 223 222 219 
216 218 217 224 226 224 221 220 218 217 219 219 218 222 224 224 222 222 227 
229 234 244 247 249 255 253 253 255 255 253 250 250 247 247 247 249 248 247 
245 243 242 241 234 225 223 224 227 229 230 226 217 221 218 222 229 226 222 
216 213 214 217 217 218 221 224 226 230 235 237 233 236 244 245 251 252 252 
250 251 254 255 255 253 252 251 250 251 249 245 244 240 241 237 230 221 217 
218 222 224 230 230 226 222 222 223 225 228 225 219 211 213 213 219 218 220 
229 232 237 241 241 240 239 245 249 255 255 254 252 252 249 251 253 249 250 
254 252 248 247 243 241 240 241 235 230 223 219 225 227 229 230 228 231 229 
227 230 229 231 230 226 226 227 228 231 231 229 233 235 236 234 238 243 244 
247 252 253 254 255 254 253 246 248 246 249 250 251 249 245 245 245 242 239 
240 239 236 232 230 232 231 231 231 237 242 244 240 236 233 231 230 228 224 
231 233 237 236 234 232 233 230 232 239 241 243 243 249 252 254 255 254 255 
245 246 245 250 252 250 250 242 238 241 240 235 237 235 237 234 233 230 227 
228 227 232 242 248 243 238 236 232 230 228 230 234 240 240 245 238 232 229 
227 226 229 231 235 245 247 247 252 255 255 255 240 240 240 244 246 246 244 
236 232 235 236 237 240 234 234 236 232 232 231 233 230 233 247 249 245 239 
237 230 228 229 231 239 240 241 241 238 235 230 224 223 226 228 236 241 243 
246 250 253 255 255 243 242 242 242 242 244 242 236 235 233 233 235 238 239 
238 237 234 234 232 231 231 235 240 241 239 240 239 239 237 240 240 242 239 
237 238 237 235 234 232 229 233 238 241 244 246 250 252 255 255 255 248 248 
247 245 242 240 241 240 239 234 235 234 235 240 240 240 238 237 236 234 232 
230 234 238 240 242 243 241 243 242 242 242 238 238 238 236 235 236 235 235 
242 245 243 246 249 253 254 254 251 251 254 254 252 251 248 246 246 245 246 
240 238 231 229 237 240 239 240 236 236 232 228 225 232 237 240 239 239 236 
236 234 236 241 240 235 236 239 239 238 240 240 242 243 242 241 246 251 254 
255 254 255 255 255 250 248 248 248 247 245 247 251 245 244 232 234 233 238 
239 238 239 237 231 233 236 238 238 235 235 232 231 231 235 240 242 244 248 
253 249 246 246 248 246 248 245 244 246 251 253 255 255 255 254 252 247 248 
250 252 251 248 248 248 247 245 237 240 238 237 233 235 236 237 235 241 240 
239 236 233 232 232 238 231 234 240 242 245 249 251 247 246 246 247 248 248 
245 243 247 251 252 251 249 248 255 255 253 252 253 253 250 244 244 243 245 
244 237 239 235 235 235 231 233 236 238 242 242 240 237 235 234 237 240 239 
238 243 244 244 245 250 245 240 238 240 247 253 245 242 247 251 254 254 249 
248 255 255 252 250 251 250 251 247 247 245 245 243 240 241 236 238 238 235 
234 237 238 239 242 240 238 239 240 237 238 240 243 247 247 249 248 250 248 
243 236 236 242 246 245 248 252 255 249 244 239 236 255 251 250 247 248 248 
248 245 246 248 250 246 245 242 240 242 242 241 241 242 243 242 240 242 246 
245 246 246 248 249 251 255 253 252 252 251 250 246 243 245 247 250 249 250 
253 255 253 251 251 251 255 253 252 249 248 245 243 245 248 249 251 252 252 
252 250 248 245 245 245 246 246 243 242 240 243 244 247 244 247 247 250 250 
249 249 250 252 252 251 245 250 252 250 248 246 251 255 254 253 255 255 254 
255 255 255 250 247 245 244 245 248 252 253 255 255 254 255 252 249 245 247 
241 238 240 241 243 243 247 249 250 247 247 250 250 249 249 251 252 253 249 
255 255 251 249 251 254 255 255 255 255 255 
