P2
#output from hocrtest
60 60
255
254 250 255 250 255 255 253 253 255 255 254 254 252 255 255 252 251 251 244 
233 249 250 242 252 251 254 249 248 255 255 255 252 255 255 255 255 254 247 
251 250 241 251 251 255 255 255 245 249 244 235 236 245 245 242 242 249 255 
251 247 227 255 254 254 251 253 254 253 254 255 255 251 253 251 254 255 255 
254 251 249 248 253 255 254 255 255 254 250 250 254 252 255 255 255 255 255 
252 251 246 250 249 247 250 251 254 254 253 247 249 245 241 241 244 245 245 
246 250 253 250 249 245 255 255 255 255 252 251 251 252 253 250 246 245 245 
246 251 250 247 248 247 248 252 252 254 253 251 248 247 252 250 248 251 252 
254 253 255 255 255 255 255 253 251 252 253 252 251 250 245 247 244 239 241 
242 244 244 245 247 250 251 253 255 255 254 254 255 250 248 247 248 246 243 
241 239 242 245 249 251 251 251 251 251 253 252 253 251 247 245 243 246 248 
248 249 249 251 251 250 253 254 255 254 253 252 252 253 253 249 248 242 244 
242 241 242 242 244 246 244 243 245 250 250 252 253 253 251 248 246 247 248 
248 242 238 237 238 242 243 244 243 245 247 248 249 252 250 251 254 251 250 
245 244 247 246 248 248 248 249 249 252 253 254 253 254 255 253 252 250 251 
247 241 238 240 241 243 246 246 249 246 244 245 246 246 244 250 250 251 249 
247 246 245 243 240 239 238 237 239 241 241 241 240 241 243 244 245 249 250 
252 251 251 249 249 247 247 247 245 245 246 246 249 247 243 244 246 247 247 
243 240 240 238 236 236 235 237 239 245 247 250 246 246 245 246 246 246 246 
246 248 246 244 244 243 242 238 237 240 240 239 240 241 241 240 239 240 244 
244 244 245 250 249 249 247 244 244 244 243 240 237 237 233 236 236 234 236 
246 247 248 245 242 239 238 236 235 235 236 241 245 248 247 243 242 242 245 
249 253 245 245 246 246 243 241 240 241 241 242 244 243 241 241 243 244 241 
241 241 243 243 243 245 246 245 246 243 243 242 240 238 238 237 234 229 232 
236 235 237 243 243 244 244 243 241 240 241 241 239 240 243 245 247 249 245 
245 245 249 249 248 244 243 246 249 248 243 241 241 242 245 249 245 244 242 
237 238 238 235 234 239 241 242 243 239 233 235 236 235 233 233 231 231 233 
234 231 233 233 232 233 236 237 240 242 243 242 241 243 245 243 243 245 244 
244 242 243 244 245 245 247 248 245 247 248 249 247 244 244 241 242 243 246 
241 239 234 230 232 232 233 231 234 238 240 238 237 236 235 234 234 230 234 
233 234 233 232 233 233 232 233 236 239 237 238 241 243 243 242 242 240 242 
245 245 243 242 239 240 241 241 244 247 245 249 248 246 249 248 247 246 245 
245 243 246 242 238 233 229 227 227 228 229 228 239 241 241 237 236 238 238 
237 233 232 232 231 229 230 229 228 226 227 236 241 241 242 244 245 242 237 
232 229 234 237 238 240 238 237 242 245 245 249 250 250 252 248 248 249 248 
248 248 245 245 242 242 238 232 231 225 224 224 224 226 229 236 236 230 227 
230 234 236 234 234 233 230 229 227 228 226 228 228 230 237 237 238 237 238 
236 236 236 230 224 228 233 229 235 240 240 243 245 246 250 252 251 250 248 
249 250 251 250 245 242 242 238 238 235 232 234 228 224 224 224 227 229 232 
233 227 227 232 230 230 231 230 229 228 229 227 229 226 226 226 229 233 232 
234 234 233 234 235 235 235 228 226 229 230 233 240 239 237 242 243 247 250 
250 248 245 246 246 245 242 235 235 236 235 235 234 231 227 225 222 222 225 
226 229 231 229 225 226 233 233 232 232 230 226 225 225 227 229 228 225 223 
224 225 228 229 230 230 233 238 240 237 229 228 231 230 233 238 237 235 240 
243 242 245 242 251 253 255 254 253 249 244 240 236 234 235 234 231 228 227 
225 226 224 223 223 222 222 221 224 226 228 227 226 224 224 227 230 229 230 
228 226 224 222 222 223 223 225 225 228 232 235 235 225 220 228 231 230 236 
238 238 242 244 245 250 246 255 255 254 253 253 251 248 244 242 241 237 236 
229 228 225 221 224 224 223 225 224 224 223 227 229 230 228 226 223 222 224 
226 224 226 226 224 223 220 220 220 219 222 224 226 229 233 233 233 230 232 
232 232 235 235 235 238 241 250 255 255 255 253 253 253 252 254 249 248 243 
239 235 233 230 230 227 221 221 224 222 223 225 226 227 230 230 227 225 224 
222 221 221 221 221 222 225 223 224 221 221 218 216 220 222 229 233 233 227 
231 234 233 229 233 234 232 233 238 244 251 253 255 251 254 255 254 251 249 
248 247 241 239 237 235 232 228 223 220 216 214 217 220 223 223 225 228 227 
225 223 226 226 224 219 219 218 220 220 217 220 216 217 218 217 217 216 217 
227 233 236 235 238 238 234 232 232 232 235 239 241 246 248 251 255 254 255 
254 252 249 247 239 233 232 229 232 230 225 223 220 215 216 217 218 216 220 
222 226 226 222 219 221 220 220 219 219 218 219 218 218 218 215 216 218 218 
215 208 212 222 233 236 237 236 236 233 232 232 231 234 238 238 244 248 248 
241 245 245 246 243 240 241 233 230 231 231 231 232 227 225 221 218 220 219 
220 219 221 221 222 223 223 221 220 217 217 218 220 220 219 220 217 215 217 
217 220 218 216 212 212 219 229 233 234 233 229 229 230 231 232 232 237 239 
244 246 248 245 246 245 249 247 244 241 237 232 232 232 235 236 237 234 229 
227 222 221 222 224 222 223 226 226 224 222 219 217 215 215 211 215 217 218 
220 220 221 224 224 219 212 209 211 218 221 226 227 230 227 228 229 230 234 
237 239 241 240 239 242 250 250 248 249 250 247 242 236 236 237 240 242 239 
244 240 235 234 228 224 224 223 222 220 222 220 216 214 210 209 206 207 211 
213 215 217 223 222 223 225 223 221 215 212 212 218 223 228 230 233 229 228 
228 233 235 238 241 241 240 240 239 251 249 246 247 246 242 242 239 238 240 
241 242 240 241 240 235 232 232 231 227 224 222 216 214 212 209 204 200 206 
207 212 213 212 215 219 220 221 221 223 222 223 221 222 222 223 227 230 232 
232 231 233 236 238 240 241 243 245 244 243 243 254 250 246 245 244 241 240 
235 233 235 234 232 234 233 231 231 226 227 228 227 224 219 211 203 198 198 
197 197 203 206 211 216 215 215 216 217 217 217 219 215 217 220 225 229 228 
225 228 230 228 232 234 237 242 247 248 247 250 250 251 252 252 251 247 246 
246 242 241 238 236 236 235 238 235 231 229 226 222 222 226 226 221 218 210 
202 196 197 197 199 202 208 211 214 216 216 216 213 211 212 214 212 216 220 
223 228 227 225 229 228 228 229 235 238 243 246 248 248 247 252 250 249 252 
250 250 248 250 245 243 241 238 238 236 235 235 231 229 226 221 223 224 222 
219 215 206 198 199 198 201 203 207 210 212 212 215 214 211 208 206 204 204 
207 210 214 220 227 226 225 227 225 227 233 238 242 243 245 248 247 248 251 
253 255 253 253 254 250 249 246 244 242 234 234 235 231 234 232 232 228 223 
223 224 225 220 214 206 200 201 204 204 203 204 204 205 206 205 207 208 208 
207 207 203 202 209 211 215 218 223 228 230 232 233 236 237 241 245 245 248 
251 252 253 253 255 250 252 250 247 245 244 241 238 232 233 231 230 233 235 
233 230 226 224 224 217 216 214 208 206 207 208 209 208 206 208 208 210 208 
210 212 207 209 208 208 209 211 211 215 217 223 224 229 233 236 235 234 239 
241 244 246 250 253 253 254 255 247 243 245 243 242 242 241 238 232 230 230 
228 230 239 236 232 224 221 221 218 218 213 213 210 206 207 203 199 200 203 
203 207 208 207 208 206 210 210 212 209 210 214 213 216 219 223 229 234 236 
235 236 238 241 242 246 248 251 251 251 252 245 243 243 241 239 238 239 240 
238 239 237 238 239 240 236 231 223 222 219 216 216 213 215 211 206 203 197 
194 195 195 201 204 205 200 203 205 209 211 212 209 209 209 212 215 220 226 
233 234 234 238 238 238 238 242 249 254 254 253 254 255 247 249 249 248 245 
244 243 241 239 239 238 238 238 237 230 225 221 219 216 216 216 213 215 213 
211 208 201 200 201 199 201 202 204 205 206 209 215 217 216 216 215 220 222 
225 226 229 230 231 228 233 235 237 238 242 249 254 253 254 253 253 253 254 
254 254 251 248 245 243 242 239 240 240 241 241 236 228 221 216 216 210 210 
211 212 214 213 209 204 204 206 204 204 200 200 204 208 211 215 218 217 220 
222 223 223 225 229 229 229 225 226 234 237 237 242 246 251 252 250 248 246 
245 252 252 251 252 250 247 244 239 237 234 236 237 238 238 235 230 222 217 
217 213 209 209 211 212 211 209 207 205 205 202 197 196 197 201 204 208 210 
211 212 215 219 222 223 224 226 231 230 228 230 237 241 244 246 252 255 254 
247 240 238 234 253 255 254 253 252 251 246 239 233 230 230 228 230 229 226 
224 222 219 220 217 213 211 213 211 205 206 203 199 202 199 196 195 194 199 
202 206 207 212 212 213 216 221 222 223 225 232 232 230 233 240 246 248 249 
252 253 252 250 245 244 236 254 255 252 252 255 250 247 242 239 238 232 229 
228 226 226 225 223 219 217 214 211 210 209 208 209 209 206 203 201 201 200 
201 202 204 206 208 209 210 211 215 217 219 219 219 223 230 230 230 233 236 
244 247 252 252 252 254 254 250 250 251 255 255 253 253 250 248 248 245 243 
238 233 227 227 228 228 225 223 217 216 213 208 208 208 211 211 211 210 205 
202 202 203 208 207 206 207 206 208 208 212 217 217 219 217 213 219 226 228 
232 235 236 239 244 246 247 247 249 250 250 253 254 252 250 244 242 241 239 
244 241 239 235 229 226 227 228 226 226 224 217 215 215 213 210 209 211 211 
212 212 211 212 212 211 211 210 209 209 210 210 210 212 213 213 214 210 212 
217 220 223 229 232 232 233 238 240 245 247 248 246 248 250 255 249 248 244 
240 239 238 240 241 238 233 229 231 229 226 229 230 226 223 222 221 220 211 
206 205 202 208 208 209 208 213 218 217 214 211 210 212 212 209 210 208 213 
214 214 214 217 221 223 222 224 225 231 237 237 240 245 247 246 250 253 254 
248 247 243 242 240 240 240 238 236 232 233 233 230 224 227 229 225 223 221 
218 218 211 207 202 200 200 205 206 211 212 216 215 211 209 206 206 208 208 
206 206 209 212 214 217 219 219 219 222 225 226 230 237 242 245 249 251 251 
251 249 240 248 249 247 246 244 244 241 236 235 235 236 235 234 232 230 226 
224 220 219 220 216 210 207 203 198 203 207 211 211 214 217 213 209 209 209 
211 215 211 212 211 213 216 218 224 225 224 227 231 230 236 237 239 245 248 
252 253 255 255 255 253 253 254 251 249 247 245 242 241 238 239 236 232 231 
229 229 226 220 220 219 221 222 218 214 209 207 207 211 211 214 215 216 217 
210 208 209 212 213 210 211 213 215 215 217 218 223 227 229 231 237 237 236 
240 245 248 254 255 255 254 253 252 255 255 253 249 246 245 242 240 235 232 
227 225 227 227 230 224 221 220 220 222 222 224 218 218 219 223 224 220 216 
218 217 216 211 214 214 218 214 214 215 217 213 215 218 219 221 224 229 234 
237 239 239 242 244 246 251 255 255 254 253 255 254 255 249 249 247 246 243 
239 235 232 231 230 228 227 228 225 222 221 222 225 226 224 219 222 229 228 
226 223 219 222 222 221 217 218 220 222 216 217 219 220 217 218 222 222 223 
225 228 231 232 233 236 242 244 245 252 255 254 253 247 247 251 251 251 248 
245 247 247 246 240 240 240 234 231 226 225 223 221 222 221 224 224 222 224 
225 227 224 222 221 218 217 218 218 217 223 219 219 216 214 215 215 215 216 
216 217 220 222 221 224 225 227 231 242 246 252 255 255 254 250 246 246 246 
247 249 250 253 252 250 251 246 242 237 234 229 221 223 223 221 221 222 222 
220 217 220 221 221 222 223 224 225 226 224 223 220 220 219 218 218 216 217 
219 217 214 217 217 218 221 220 225 226 229 233 243 248 246 251 253 251 250 
247 247 245 241 240 248 249 249 248 248 243 240 236 235 231 228 224 225 223 
223 223 220 220 221 223 226 224 225 226 226 225 224 224 223 221 220 219 216 
217 219 221 222 219 217 219 219 219 220 219 224 228 231 236 243 246 245 247 
248 245 244 244 243 250 250 246 249 249 250 251 250 247 242 237 232 232 229 
225 226 223 225 224 222 224 225 227 227 226 228 228 227 221 221 223 225 226 
226 228 227 222 219 217 222 225 224 221 223 222 223 222 222 228 227 235 239 
241 242 244 247 248 246 248 249 252 250 249 248 245 247 248 250 242 235 232 
227 229 231 230 227 225 225 221 222 222 218 221 224 228 229 228 227 221 220 
223 226 228 229 231 232 231 227 227 225 227 226 225 226 227 228 225 225 228 
233 236 238 239 241 243 245 249 252 253 252 254 254 253 249 247 245 244 244 
239 235 232 230 233 237 232 229 230 229 227 224 223 223 225 224 225 226 227 
227 225 223 225 227 232 232 237 236 234 232 229 227 226 226 225 227 228 230 
230 228 228 231 233 237 238 240 242 246 250 255 255 255 255 252 251 248 245 
244 240 238 235 236 232 232 233 234 235 236 232 230 227 226 225 223 223 221 
224 228 226 226 226 219 221 227 233 235 236 232 231 229 228 226 227 230 231 
232 234 237 237 234 234 236 236 236 238 238 241 245 246 251 252 252 255 255 
255 250 246 244 237 237 235 235 232 233 233 235 238 238 236 231 229 226 226 
225 222 223 228 231 233 233 234 232 230 227 230 232 232 227 227 227 226 227 
228 233 232 234 240 240 239 237 237 236 236 234 235 237 241 244 246 246 247 
246 253 252 250 247 246 243 236 237 234 236 234 234 234 235 236 237 238 237 
231 231 231 231 227 228 229 235 239 237 240 241 241 238 235 235 233 225 224 
230 232 233 233 238 238 238 240 240 239 236 240 239 236 235 236 237 239 241 
244 247 247 247 253 253 251 247 247 244 239 238 237 236 234 234 234 237 240 
239 241 239 235 234 234 233 230 233 235 242 245 244 245 246 246 244 239 237 
237 233 229 233 236 237 237 241 242 244 246 242 239 238 240 238 234 229 228 
230 236 243 246 248 250 250 255 254 253 251 248 246 243 241 237 233 232 235 
234 232 235 237 240 239 233 235 234 230 230 230 230 236 243 245 245 246 245 
242 241 239 239 239 238 238 235 234 235 236 242 246 248 248 245 243 241 233 
233 229 230 231 232 243 248 250 254 255 255 255 254 254 254 253 251 246 238 
238 236 237 234 232 235 236 242 246 240 241 237 232 234 236 235 239 243 246 
243 244 242 241 243 245 247 248 247 246 237 237 234 236 242 245 247 243 243 
244 243 240 240 240 236 232 234 241 248 250 246 243 255 254 253 252 253 253 
249 249 245 242 241 240 235 230 235 239 245 248 246 242 238 235 237 238 237 
238 241 246 247 245 245 247 252 253 254 255 255 252 248 249 242 242 245 245 
246 246 245 245 245 246 245 243 242 242 242 246 248 250 246 248 255 255 255 
255 255 255 253 252 247 243 238 238 234 233 239 242 243 249 249 248 247 248 
246 244 242 243 246 248 248 251 251 252 252 252 254 255 255 255 253 250 248 
249 250 250 249 249 248 250 250 251 251 253 251 248 248 248 249 250 246 245 
252 252 255 255 255 255 254 253 253 254 246 246 245 244 244 249 247 254 253 
255 252 252 251 252 250 250 251 252 252 255 255 255 253 254 255 255 255 255 
254 253 249 249 247 246 249 253 253 255 254 254 253 255 253 253 255 255 254 
251 246 244 248 250 252 254 255 255 255 255 255 253 251 248 247 246 246 247 
245 249 253 254 254 255 253 251 250 251 253 254 254 255 255 255 255 254 253 
253 250 250 254 253 252 249 244 246 251 252 252 255 254 255 253 255 252 253 
255 255 255 254 252 252 245 248 250 252 255 255 255 255 255 255 255 255 251 
252 249 248 246 247 249 248 249 253 252 255 253 253 254 255 255 255 255 255 
255 253 251 248 247 249 251 253 252 251 249 250 252 255 255 255 255 255 254 
255 255 255 255 255 255 255 255 255 
