P2
#output from hocrtest
50 50
255
249 248 248 243 252 255 255 253 255 255 255 251 255 252 255 252 246 247 242 
230 244 244 237 249 247 255 254 252 255 255 255 252 254 255 255 255 253 247 
248 249 246 252 249 255 255 253 247 244 239 230 249 251 248 247 251 255 255 
255 255 254 255 251 250 250 253 250 247 246 245 242 247 247 246 250 250 253 
253 253 255 255 253 253 253 255 255 254 250 244 246 248 250 253 252 254 255 
252 247 240 239 238 251 253 252 251 254 255 255 255 255 253 252 249 248 247 
244 244 245 244 244 245 248 250 252 251 249 251 252 251 255 253 250 249 247 
251 251 248 241 238 242 243 248 246 250 254 255 252 246 244 244 239 254 255 
251 249 251 253 255 254 254 255 254 251 249 246 241 239 240 241 240 242 243 
243 248 247 246 249 252 250 250 251 249 248 246 248 247 244 244 243 244 246 
246 242 243 242 245 247 244 243 244 244 250 250 250 249 248 251 250 249 251 
249 249 247 246 243 239 239 239 240 241 240 243 243 246 247 245 243 241 240 
238 240 245 246 250 252 248 243 242 244 245 247 250 245 243 238 239 241 241 
239 238 236 250 249 249 249 251 249 249 247 250 247 247 246 242 240 239 235 
235 235 238 239 239 240 240 242 244 244 246 243 239 240 245 247 247 249 248 
245 242 240 245 245 246 245 243 239 238 238 240 238 239 236 254 252 250 248 
246 243 243 241 243 240 240 239 238 236 233 228 229 229 232 235 235 237 239 
238 240 241 239 239 241 242 241 242 242 244 247 247 246 248 247 244 239 239 
233 226 232 235 237 235 236 236 253 252 251 251 248 244 241 240 237 236 236 
239 238 233 235 231 233 231 231 233 236 236 235 237 237 237 239 241 239 242 
239 237 237 239 242 242 243 243 248 248 247 242 234 232 234 238 237 237 237 
239 255 254 254 253 247 245 240 237 235 236 238 241 238 233 232 232 232 229 
230 233 235 235 238 240 236 236 238 239 239 239 236 234 233 235 236 239 239 
241 247 244 244 237 233 237 241 247 250 248 248 251 254 253 251 247 242 241 
239 235 233 236 237 239 237 233 231 229 230 229 229 232 235 239 244 241 237 
238 240 243 242 238 235 233 231 231 234 235 238 234 239 245 246 245 241 242 
244 248 249 248 248 253 255 253 250 244 238 238 237 230 230 233 233 234 237 
235 227 227 228 229 233 233 236 238 240 241 240 244 250 250 247 244 241 236 
233 231 235 235 235 235 237 239 241 239 238 238 237 238 242 245 247 246 250 
247 244 241 240 242 242 239 237 235 236 235 233 232 227 220 218 230 237 235 
239 238 235 234 235 239 243 245 244 242 243 236 233 234 234 234 233 234 237 
241 243 244 240 237 236 236 235 238 240 238 245 246 243 242 243 244 246 242 
241 239 239 237 234 231 227 223 221 227 231 231 234 232 232 232 234 236 238 
240 237 238 239 239 233 235 232 231 230 230 235 240 244 242 240 241 243 239 
236 238 245 248 247 246 242 241 242 244 240 239 238 234 235 232 231 227 225 
226 223 227 230 228 227 229 229 227 229 230 233 235 236 238 240 238 234 232 
231 234 235 233 235 237 237 239 238 239 240 240 239 245 251 252 252 252 250 
248 244 243 236 233 233 232 229 229 232 231 232 224 217 224 222 221 224 228 
228 228 227 231 232 233 235 233 232 227 226 231 230 230 232 231 232 232 233 
235 233 235 238 239 241 247 250 250 255 254 251 250 247 247 244 244 242 235 
234 231 228 230 234 231 230 224 221 221 221 225 228 229 225 225 229 233 231 
228 225 222 225 227 225 223 223 229 228 230 233 235 235 235 237 238 240 243 
243 245 255 252 249 250 252 255 248 245 242 235 235 235 229 229 230 226 224 
222 219 220 220 223 227 230 231 230 232 230 227 222 222 219 222 221 220 225 
227 228 230 230 235 240 242 243 246 249 248 244 243 240 255 255 251 250 252 
251 248 244 238 230 228 228 222 223 224 222 219 219 218 218 223 223 227 227 
225 223 224 219 218 216 216 213 215 219 219 224 227 227 227 229 231 237 241 
244 246 249 244 246 243 239 254 251 248 247 245 245 244 240 240 234 228 229 
225 224 223 224 227 225 223 222 221 218 220 225 227 225 220 218 220 220 219 
217 216 218 219 220 222 222 226 232 236 239 242 245 249 254 251 252 250 250 
244 244 241 242 238 234 234 237 237 235 228 228 225 225 223 224 226 230 228 
223 218 215 215 218 222 220 218 219 218 219 220 221 222 224 223 221 224 227 
229 233 234 233 234 239 240 242 246 247 250 250 244 245 243 245 243 237 232 
233 234 233 224 227 229 225 225 229 227 226 228 226 213 211 211 211 214 215 
217 218 217 222 222 226 227 224 223 222 223 225 227 232 234 233 233 235 237 
238 240 240 243 244 244 246 244 244 243 236 232 232 233 236 233 237 232 229 
232 230 231 228 226 223 216 211 213 212 210 212 211 214 214 219 222 227 226 
226 225 225 225 224 222 224 225 229 233 234 238 240 240 243 243 242 244 244 
243 244 244 239 234 235 235 235 234 234 232 232 230 227 223 221 222 222 224 
221 213 213 215 216 215 217 217 221 221 222 223 220 222 227 227 230 230 227 
226 226 233 240 241 242 244 245 244 245 244 246 249 246 244 239 236 235 236 
235 232 232 232 232 230 226 226 225 225 222 221 221 221 222 225 218 216 216 
216 220 218 216 218 220 223 232 234 236 237 234 233 237 238 241 242 245 248 
250 252 252 244 241 242 243 241 238 236 232 229 229 229 231 231 233 233 231 
228 223 223 224 225 222 223 226 230 224 224 222 219 218 216 216 218 224 229 
233 236 240 238 239 237 235 236 239 244 243 247 247 248 247 244 241 240 239 
236 235 230 230 231 235 235 233 234 234 232 229 227 221 222 221 225 226 222 
221 221 218 223 220 218 220 217 220 223 231 235 233 235 235 234 234 233 235 
237 239 242 245 246 248 248 246 244 242 241 239 237 238 238 239 239 240 239 
239 238 235 231 229 225 220 221 219 220 223 218 215 215 212 216 213 215 220 
221 223 225 232 233 229 230 234 237 237 238 238 239 243 244 243 245 243 244 
246 247 246 246 242 240 238 240 242 241 242 243 242 239 233 231 230 228 222 
221 218 215 213 214 211 208 210 214 213 213 217 219 220 220 226 228 223 228 
226 228 233 236 235 239 240 241 242 243 246 250 252 247 247 246 240 238 231 
234 237 240 240 243 241 238 234 228 228 226 222 218 214 211 209 219 220 221 
216 216 217 218 220 221 221 223 230 229 228 226 226 227 233 236 236 239 239 
240 243 241 245 247 250 252 252 250 250 245 238 235 236 240 240 238 239 239 
235 229 227 223 218 216 214 214 214 220 218 223 219 217 217 217 220 220 224 
225 228 228 226 226 223 224 229 236 239 244 242 242 241 236 240 237 241 254 
253 254 253 247 241 237 235 238 240 239 236 234 232 230 227 228 222 217 214 
214 214 212 208 212 214 214 215 218 224 224 226 227 224 222 222 221 220 221 
226 229 233 240 242 241 239 237 235 232 234 255 254 252 251 248 242 239 237 
241 240 239 236 234 232 229 227 225 221 213 212 215 213 212 207 211 210 212 
216 219 222 222 221 220 217 214 221 223 223 222 223 225 228 233 239 241 242 
240 239 234 233 252 250 250 248 245 244 243 242 240 236 232 232 233 233 231 
230 229 228 225 221 222 217 214 212 214 217 218 222 224 220 222 220 219 220 
221 227 227 225 224 222 222 228 232 240 244 246 246 245 242 245 255 255 254 
249 247 244 243 243 242 240 237 231 230 230 230 228 228 228 228 224 222 219 
214 212 215 221 222 222 224 222 219 218 217 215 219 223 226 225 222 222 223 
223 229 235 241 242 245 247 249 251 255 255 252 250 247 247 243 244 239 237 
237 234 235 232 230 228 228 227 227 226 222 222 214 214 219 220 228 231 228 
219 215 215 216 217 221 224 225 226 225 228 230 229 230 236 241 245 249 251 
252 252 251 250 252 250 248 247 245 247 241 235 239 237 237 237 228 223 217 
216 217 220 223 225 222 215 218 222 227 231 233 223 215 216 214 218 220 223 
228 230 233 236 237 235 238 244 250 252 252 253 252 250 247 249 251 250 248 
248 246 243 243 240 242 238 235 237 232 223 222 224 224 227 227 227 228 222 
218 223 223 233 237 228 224 223 222 223 225 225 225 226 231 234 234 237 242 
248 250 255 255 255 255 255 247 247 246 245 248 249 248 244 246 243 242 241 
237 237 236 231 229 233 231 232 234 234 234 233 231 231 229 228 229 225 224 
228 230 230 234 231 224 225 229 232 235 237 239 242 248 251 254 255 255 255 
250 248 247 249 250 249 250 242 239 239 238 234 235 233 233 233 232 231 229 
232 234 233 233 235 235 233 230 227 227 225 227 229 232 231 229 230 226 226 
228 228 230 230 234 242 246 247 252 253 255 255 247 247 248 249 250 252 250 
242 239 239 240 240 239 235 234 236 233 231 231 233 232 233 236 238 239 239 
232 224 222 224 229 235 238 237 233 231 228 225 223 222 227 228 233 241 248 
255 255 253 255 255 253 252 254 253 252 254 249 243 239 238 238 236 239 237 
237 235 233 230 232 232 229 233 234 233 234 237 236 232 230 235 237 241 239 
237 235 231 229 226 225 225 231 238 239 245 250 255 255 255 255 255 255 255 
255 255 253 253 252 247 244 239 236 234 236 242 244 239 237 237 238 234 232 
230 230 230 233 238 240 240 239 239 239 242 240 238 236 235 232 231 233 233 
239 243 244 248 253 255 255 255 253 254 255 255 255 254 252 249 252 252 246 
243 237 233 235 240 241 239 239 238 236 232 229 227 229 236 236 239 243 240 
239 237 240 244 240 236 235 238 239 235 236 239 246 249 247 245 247 251 252 
254 255 255 254 254 252 249 251 250 251 250 252 248 248 242 236 236 238 240 
239 238 238 237 234 238 238 239 239 238 240 240 243 247 248 248 245 245 247 
249 251 247 247 247 249 251 249 246 248 252 255 255 255 255 251 251 245 245 
248 248 250 250 252 250 253 251 246 244 244 240 238 238 239 240 239 242 243 
243 241 239 237 239 242 241 242 246 247 249 249 250 250 247 250 249 250 250 
248 243 245 252 255 255 252 252 254 255 252 251 253 252 251 251 253 255 255 
250 250 244 242 240 238 234 235 237 240 241 243 245 243 246 240 240 242 241 
239 241 242 245 245 249 250 246 247 245 252 251 246 242 244 251 251 251 250 
251 255 255 253 250 253 251 252 251 252 254 252 249 244 241 239 238 239 239 
239 241 240 240 243 246 248 248 246 244 241 241 246 247 249 251 252 255 254 
253 248 245 249 252 251 248 246 250 248 244 241 238 255 254 255 252 255 252 
252 255 255 254 251 246 245 240 239 241 242 242 245 249 249 245 247 250 255 
255 255 254 255 253 251 253 253 255 255 255 255 251 250 253 255 255 254 255 
254 255 254 254 255 255 254 255 255 255 255 253 253 255 255 255 255 252 250 
247 245 246 244 248 246 248 249 247 246 246 250 255 255 250 253 252 253 255 
254 255 252 255 255 253 252 254 255 255 254 254 254 255 255 254 255 255 252 
254 255 255 255 255 254 255 255 254 255 255 255 253 254 252 252 250 246 244 
241 238 242 247 253 255 255 252 252 252 251 255 253 252 252 255 255 255 254 
255 255 254 253 255 255 255 255 255 255 255 
