P2
#output from hocrtest
20 20
255
242 241 248 246 251 255 255 252 255 255 255 254 255 250 253 250 255 253 237 
211 240 246 247 251 250 254 255 255 255 253 254 252 254 247 247 250 255 255 
255 253 242 248 255 255 255 252 250 251 249 244 246 246 249 239 243 247 254 
254 251 246 253 254 255 255 255 255 250 252 251 244 241 246 247 246 249 248 
250 248 251 255 254 255 255 255 254 255 249 247 246 243 240 240 242 247 252 
248 244 240 243 245 255 254 255 254 251 251 244 246 243 242 237 240 237 251 
244 243 239 239 239 246 255 255 253 252 248 250 236 241 244 246 245 241 245 
250 250 248 237 238 234 234 254 255 255 255 251 245 240 245 242 235 238 254 
255 252 255 254 248 246 246 249 252 253 255 253 247 242 238 235 238 234 238 
241 244 245 246 255 255 255 253 255 255 254 253 245 238 233 239 240 241 234 
228 230 234 239 245 254 253 253 250 252 255 254 250 243 238 238 237 239 239 
237 233 235 237 242 238 238 245 248 246 246 255 255 253 247 244 242 239 236 
227 226 225 231 243 249 243 238 239 242 247 248 255 254 252 246 244 247 236 
231 225 217 223 228 240 247 248 242 246 248 252 255 255 255 254 253 252 252 
244 237 234 232 235 239 242 242 242 243 248 249 242 243 255 255 255 255 255 
254 245 238 237 236 243 248 253 250 245 243 252 248 244 239 253 253 255 255 
255 255 252 245 243 242 247 242 249 247 244 241 244 240 243 243 250 255 255 
255 255 255 255 248 246 250 253 254 255 255 249 248 252 249 245 244 246 250 
247 241 244 250 252 249 248 251 251 255 255 255 252 248 248 249 241 240 247 
253 255 251 250 255 255 254 255 255 255 255 255 255 254 253 249 249 249 250 
248 252 253 252 253 255 253 252 252 255 255 255 254 253 250 248 245 241 246 
248 
