P2
#output from hocrtest
60 60
255
252 250 254 247 255 255 251 251 253 253 255 249 249 254 255 255 250 253 243 
232 246 245 242 252 251 255 253 249 253 255 255 250 255 255 255 255 255 250 
250 250 241 252 252 255 255 255 254 248 242 240 240 244 249 241 243 253 255 
254 249 225 255 255 253 251 253 254 252 252 252 252 252 248 248 250 254 255 
253 253 249 246 250 251 252 254 254 255 253 250 252 254 255 253 255 255 255 
255 253 248 249 249 247 251 252 255 255 254 253 249 245 243 242 243 248 249 
249 253 253 254 252 248 255 253 253 254 252 253 251 252 250 250 248 244 245 
248 252 253 250 249 249 249 252 254 254 255 250 246 246 248 249 245 248 249 
251 252 253 254 254 254 250 247 246 249 252 253 253 249 247 245 243 244 244 
243 246 245 244 246 249 253 252 254 247 245 247 247 247 248 255 255 250 248 
246 242 244 248 250 252 249 251 251 255 255 255 253 251 248 246 247 247 249 
248 249 249 250 251 252 254 254 252 247 245 247 246 249 250 251 247 244 244 
241 242 243 242 242 245 242 238 243 247 247 248 249 249 247 245 245 250 255 
251 248 247 244 243 244 244 247 244 246 247 252 252 254 253 252 253 254 253 
248 247 245 244 244 245 247 248 248 250 252 250 247 247 249 249 249 250 252 
246 242 238 240 243 247 247 247 248 247 246 247 249 250 246 250 250 251 252 
251 253 255 250 248 246 245 240 242 243 242 241 239 237 241 244 244 246 250 
251 252 251 250 249 247 247 247 245 244 245 245 249 250 246 245 245 245 246 
244 239 242 239 236 234 234 239 243 246 247 249 248 246 245 246 245 246 250 
251 253 252 247 248 250 250 248 250 249 247 241 239 238 239 236 235 237 240 
238 237 239 245 247 248 246 245 247 250 249 248 241 239 237 240 240 237 240 
245 247 247 247 248 247 244 241 241 238 240 246 249 247 247 246 244 243 245 
247 252 250 250 252 252 249 247 246 246 246 252 252 250 244 239 237 237 237 
237 238 241 239 239 238 239 239 240 241 242 244 245 246 244 240 237 236 240 
239 237 237 243 246 246 249 249 248 247 244 244 241 242 245 249 250 249 247 
246 246 250 250 251 250 250 248 248 250 249 246 244 247 248 248 251 247 243 
237 236 236 236 237 240 241 239 235 236 232 232 233 231 236 241 241 241 239 
238 237 237 233 231 233 235 237 241 245 248 249 249 249 249 248 247 248 247 
247 246 247 248 248 250 251 251 250 249 248 247 250 249 247 246 246 243 242 
245 242 240 237 237 236 237 236 241 242 240 236 235 235 230 229 234 235 236 
240 237 236 235 235 238 236 235 236 235 237 237 242 245 247 248 245 246 246 
247 246 245 244 245 245 244 245 249 250 247 246 246 244 246 249 249 250 247 
246 242 243 242 242 241 237 233 232 233 234 236 237 239 237 236 236 235 236 
236 234 235 236 238 235 234 231 231 230 232 236 237 239 238 240 243 243 244 
239 236 238 242 240 241 239 239 243 244 245 249 252 255 246 244 245 244 246 
249 251 247 245 240 236 233 233 232 229 225 223 227 231 234 234 231 231 229 
229 233 233 232 231 234 233 232 228 226 226 227 227 231 232 230 233 235 237 
237 238 242 236 231 234 234 233 235 239 242 244 243 244 249 249 250 251 250 
250 251 253 250 249 246 242 237 236 231 230 228 228 225 227 227 229 231 232 
231 228 227 228 230 232 232 230 230 229 228 224 224 222 225 224 225 223 220 
223 230 231 232 238 243 242 237 236 234 230 235 238 239 238 240 243 247 249 
250 253 251 250 255 251 246 243 239 236 232 232 232 232 226 224 221 225 226 
228 231 232 231 227 231 233 234 233 232 232 227 224 226 224 223 224 221 217 
218 220 224 225 224 227 230 237 239 240 237 238 237 234 234 239 237 235 237 
238 240 242 241 251 251 250 250 252 250 245 242 236 233 235 235 232 228 228 
226 226 221 222 222 223 225 224 225 225 226 226 225 224 224 226 228 229 223 
222 219 217 219 220 223 224 223 224 228 232 235 239 235 234 237 234 234 239 
240 238 240 241 243 244 241 249 249 247 248 249 251 249 246 243 241 240 236 
230 228 227 225 227 224 225 226 224 224 223 225 227 227 222 222 222 223 223 
226 226 225 221 218 217 216 218 220 221 219 223 226 231 235 236 237 237 239 
237 236 238 241 236 237 238 246 250 255 242 245 245 245 246 246 245 243 242 
239 237 234 226 229 228 227 229 227 226 228 229 228 226 227 229 225 223 224 
224 225 223 222 219 220 219 217 217 215 216 216 215 217 222 227 230 233 231 
234 236 237 234 238 241 239 235 239 241 247 252 255 242 246 248 249 250 246 
245 243 240 237 237 236 231 229 227 223 221 218 221 226 227 226 223 225 224 
221 219 219 220 221 218 218 218 220 218 217 216 214 214 218 216 218 217 220 
224 230 233 237 239 239 238 238 238 238 233 237 237 243 243 248 250 253 254 
250 247 244 240 234 233 230 231 232 231 229 228 224 217 215 218 218 220 222 
222 226 227 221 217 217 214 213 213 214 218 219 217 215 215 213 212 217 218 
218 218 217 222 228 233 240 238 242 240 240 239 239 234 237 238 241 243 246 
245 246 252 251 248 243 241 235 232 234 234 234 236 231 229 224 220 219 220 
223 223 224 227 230 229 223 220 219 213 210 212 214 217 219 218 212 213 216 
216 222 217 212 209 210 215 224 230 236 240 237 237 240 241 242 238 240 240 
242 239 238 250 250 252 254 252 251 245 237 235 237 235 238 238 240 237 230 
227 223 223 226 224 221 221 226 225 221 220 216 214 210 208 205 209 213 217 
217 219 223 220 219 213 207 207 209 218 219 222 226 232 231 232 237 238 240 
240 241 241 241 241 242 253 254 255 253 254 249 244 239 238 239 242 243 242 
241 239 233 235 230 225 225 223 221 217 218 215 209 207 208 208 205 205 205 
208 212 214 219 218 220 222 216 214 211 210 213 219 223 228 228 229 230 232 
234 238 239 238 240 239 239 240 240 253 253 251 249 248 244 243 242 240 242 
243 240 239 238 237 232 230 230 227 227 223 222 216 212 207 202 202 201 207 
206 208 208 212 216 219 221 223 223 224 222 221 220 219 219 222 226 229 229 
230 232 235 236 238 238 238 241 245 247 246 244 251 250 248 247 243 242 241 
241 236 238 236 230 230 228 228 228 225 226 225 223 219 220 214 206 200 195 
192 197 204 206 210 212 214 216 216 220 219 219 220 219 219 221 226 227 228 
225 227 225 223 229 235 237 241 243 247 247 250 253 252 252 251 250 249 247 
243 241 238 238 236 236 235 229 225 226 225 223 221 219 219 218 219 219 212 
206 197 198 196 195 199 202 205 204 211 213 214 213 212 212 212 215 217 225 
227 228 228 224 226 224 224 228 240 243 243 247 251 251 251 254 251 252 250 
249 250 250 247 244 240 236 232 232 230 225 224 224 222 221 220 219 218 217 
214 211 205 201 200 199 199 196 199 201 202 205 206 207 208 207 206 206 206 
211 215 217 222 227 227 223 225 223 224 230 236 240 242 250 252 253 252 251 
255 255 252 252 253 252 248 246 244 237 231 230 230 227 226 224 222 218 217 
217 217 216 213 210 203 199 197 201 199 195 193 195 197 203 205 207 212 212 
214 210 207 205 206 208 213 220 221 225 227 228 227 228 231 238 241 245 246 
252 252 255 255 254 251 249 253 250 246 246 241 238 232 231 230 229 229 231 
232 226 221 219 217 210 206 203 200 199 199 201 200 199 197 200 202 207 208 
210 212 214 215 215 215 215 214 213 212 218 222 223 226 230 231 231 233 234 
235 236 240 246 249 252 253 255 246 241 245 245 249 250 245 241 232 232 229 
226 230 234 234 228 222 219 216 210 209 203 198 199 196 199 198 197 201 203 
204 210 213 211 211 213 215 214 216 216 215 216 212 218 221 225 228 232 233 
229 230 234 236 232 237 243 247 249 247 248 245 241 242 244 244 247 244 240 
236 236 232 234 238 239 236 231 220 224 221 217 214 205 205 201 199 196 195 
196 199 199 203 209 208 205 206 208 210 214 217 213 210 215 215 215 220 224 
229 233 234 235 235 238 236 239 245 250 253 254 251 251 247 248 249 248 246 
246 245 243 240 235 236 236 237 235 232 226 220 220 218 215 212 207 207 204 
202 202 199 199 201 199 202 207 205 205 206 207 212 215 216 216 216 221 226 
226 227 230 232 235 238 237 235 238 239 242 249 252 251 253 253 253 254 255 
255 254 251 250 246 243 240 234 234 238 239 234 230 228 220 217 215 212 208 
207 208 208 208 204 202 199 198 201 206 206 203 205 205 210 214 218 215 219 
219 220 221 225 228 232 234 235 238 241 240 238 242 244 248 250 244 242 240 
239 255 255 254 255 254 250 245 241 238 236 236 233 233 230 230 226 220 215 
214 213 210 207 208 210 209 203 204 202 200 205 200 198 200 201 204 208 208 
208 210 213 217 218 221 220 222 226 230 233 237 238 241 241 245 247 248 248 
241 236 230 228 255 255 255 255 252 251 247 241 235 233 230 225 226 225 224 
221 219 214 215 213 210 210 211 211 212 207 206 205 206 205 201 201 201 202 
204 207 208 207 211 212 218 222 225 223 222 232 231 231 231 235 239 242 243 
244 248 246 242 237 235 231 255 255 254 255 254 252 250 246 243 237 233 228 
227 223 223 221 221 215 216 211 211 211 215 216 214 212 210 210 210 205 201 
201 202 202 203 206 209 209 214 215 217 220 223 222 225 232 231 232 233 235 
240 243 242 244 246 247 245 247 243 245 255 255 254 253 254 252 252 249 247 
238 232 228 229 227 225 224 223 217 216 210 210 209 213 215 215 215 214 211 
208 203 202 206 207 201 198 202 206 204 209 212 216 218 221 219 222 229 233 
235 237 235 236 239 239 240 242 244 243 245 245 247 254 252 246 246 245 247 
247 243 240 238 233 233 232 229 227 227 226 221 215 214 213 213 214 216 216 
215 214 213 214 210 206 209 210 208 207 209 207 209 211 212 212 214 211 213 
216 223 228 231 233 232 233 237 237 241 244 245 241 245 248 247 252 252 248 
243 241 242 240 240 238 236 235 235 231 228 228 227 225 223 223 223 221 214 
210 209 210 214 214 212 210 208 209 211 209 209 212 214 215 211 211 211 211 
214 211 215 218 222 226 226 228 230 235 238 239 241 246 245 239 246 248 251 
251 251 250 248 242 243 240 234 231 230 233 233 226 222 223 223 223 222 219 
218 216 213 210 207 208 207 208 208 209 208 207 208 208 209 209 210 210 209 
208 208 208 213 216 221 221 221 223 225 224 225 233 237 240 248 251 254 250 
248 246 238 254 251 249 246 242 243 242 234 230 231 232 232 229 227 225 222 
221 215 214 215 213 208 204 203 206 208 210 215 213 214 213 211 209 210 213 
216 220 217 215 216 218 222 223 227 229 229 230 231 229 230 235 238 241 248 
252 255 253 252 252 251 253 253 249 246 244 241 239 238 235 235 233 230 227 
225 224 222 218 214 215 216 215 212 211 208 208 211 213 211 212 215 214 213 
210 212 211 215 218 218 216 221 222 223 224 226 228 229 229 231 232 234 237 
241 245 248 251 253 251 252 252 251 251 250 247 244 243 240 240 238 233 231 
226 221 219 219 221 217 216 215 215 215 212 214 213 210 211 216 218 216 213 
217 215 216 216 219 217 221 221 224 223 226 220 220 223 226 226 227 228 232 
233 237 239 243 248 250 251 253 253 252 252 253 249 248 244 242 243 242 241 
236 233 232 230 226 223 222 221 220 217 215 215 216 216 212 213 214 217 222 
223 222 220 224 223 222 221 222 224 224 220 221 226 227 227 225 222 226 228 
227 228 228 229 229 231 238 241 247 253 251 252 252 249 250 253 254 251 248 
244 245 245 244 236 236 234 233 228 222 221 221 220 219 218 219 215 211 216 
218 220 223 222 221 218 219 219 217 220 224 224 224 223 223 223 225 227 225 
219 222 222 223 220 222 223 226 231 234 237 245 249 250 253 250 250 251 245 
248 248 247 245 249 253 249 244 237 232 230 223 217 218 221 219 217 220 221 
221 217 220 221 220 223 224 225 224 226 225 225 225 224 223 220 222 223 228 
232 229 226 223 219 219 220 218 224 226 228 233 234 234 235 241 247 249 250 
249 250 241 239 240 243 243 248 249 248 245 239 235 232 227 226 224 221 220 
220 221 221 224 223 224 226 231 232 231 230 227 229 228 228 227 223 226 223 
222 224 228 232 228 225 222 219 216 217 217 224 225 227 233 236 237 236 241 
245 245 244 244 242 245 245 246 245 248 250 249 247 243 241 236 231 229 226 
224 222 222 222 224 227 227 230 230 230 232 237 236 238 232 230 229 230 231 
230 230 229 225 224 226 231 237 230 223 221 218 217 214 221 227 231 235 237 
234 237 245 249 251 251 253 254 249 249 249 250 249 251 249 248 242 239 233 
228 228 229 229 229 227 226 224 226 227 224 224 229 238 238 239 237 235 227 
230 233 235 237 236 233 229 225 227 230 234 231 233 231 228 227 226 226 229 
232 233 235 236 239 241 248 253 252 254 255 255 252 252 251 250 251 249 250 
246 241 233 229 233 231 229 231 232 230 229 226 225 224 224 227 233 232 236 
235 231 228 229 232 237 246 243 237 230 229 229 228 229 230 232 232 231 229 
231 230 229 230 232 238 239 240 242 249 252 253 255 255 255 253 251 248 246 
248 243 244 243 243 237 233 233 232 234 234 232 233 227 225 224 226 225 224 
225 231 234 236 230 226 228 231 237 245 243 237 234 234 232 230 229 233 234 
236 238 239 238 235 233 236 237 238 241 242 243 248 249 250 250 249 255 255 
254 251 250 247 243 243 244 242 239 237 236 236 238 237 235 232 229 227 226 
227 226 227 231 235 238 240 238 233 233 232 235 239 236 229 225 228 230 232 
230 233 236 239 242 243 243 240 237 236 238 237 240 242 245 253 253 253 254 
253 255 255 255 251 249 245 243 243 240 240 238 235 232 234 236 235 237 238 
234 237 235 234 230 230 232 237 242 241 244 244 245 245 241 243 237 226 226 
225 230 232 235 239 241 244 249 248 246 241 241 240 240 238 240 243 245 250 
250 253 253 255 254 255 254 249 247 245 240 237 236 237 240 241 241 240 242 
241 244 243 244 245 241 237 232 232 234 240 244 244 247 248 250 248 243 239 
237 233 229 229 234 235 237 240 245 247 246 246 247 244 241 238 235 230 231 
236 242 247 249 251 253 253 255 255 254 251 248 244 240 235 236 235 240 244 
245 243 244 243 247 246 250 247 245 236 233 230 232 236 243 242 243 242 244 
244 244 242 243 242 238 235 233 231 233 234 242 249 249 247 247 241 237 232 
232 228 229 232 234 240 244 248 249 252 255 254 252 252 252 250 247 244 240 
240 243 246 247 248 248 246 251 249 246 245 239 233 230 234 234 238 240 241 
240 243 244 244 246 248 250 250 250 247 237 234 233 235 241 244 247 247 248 
243 240 239 234 231 231 231 232 236 243 244 241 239 255 252 251 251 250 250 
245 247 247 245 243 245 244 245 248 246 249 251 250 245 236 237 238 239 241 
242 242 243 240 243 247 248 250 252 255 254 254 251 244 241 238 240 242 245 
250 249 248 246 245 243 241 240 238 237 238 242 248 250 243 241 255 255 255 
255 253 252 253 252 250 247 245 244 243 242 249 248 247 255 255 255 253 248 
246 246 248 252 251 250 248 250 251 250 251 253 254 255 254 250 248 246 242 
245 247 249 254 252 250 248 249 249 249 248 250 244 246 249 255 255 254 253 
255 254 254 253 254 255 255 254 253 252 251 249 250 250 250 249 251 253 255 
254 252 251 251 251 253 255 255 254 255 255 255 254 254 255 254 252 249 247 
248 247 246 246 244 243 249 251 250 251 252 254 251 252 255 252 253 255 255 
255 253 251 255 252 251 250 252 254 255 255 255 254 252 251 248 247 247 245 
246 252 255 255 254 255 254 253 253 255 255 255 255 255 255 255 255 255 252 
251 248 245 247 246 246 245 239 243 251 255 255 255 253 252 250 250 251 250 
253 255 254 255 253 253 253 255 255 254 255 255 255 255 254 255 255 253 253 
250 248 248 247 250 253 254 255 255 255 255 255 255 255 255 255 255 255 255 
255 255 254 251 247 247 251 251 251 249 246 249 252 255 255 254 253 252 251 
252 253 253 253 255 255 255 255 255 
