P2
#output from hocrtest
50 50
255
253 249 253 244 250 255 255 252 254 248 247 251 250 249 249 248 249 250 246 
232 247 249 242 250 246 255 254 251 255 255 252 249 255 255 254 255 253 245 
242 248 246 253 253 255 254 255 247 244 244 232 253 253 253 250 252 254 253 
251 249 245 243 247 248 247 249 249 249 249 251 245 249 247 247 248 248 253 
253 252 254 255 253 252 255 255 255 254 250 243 241 245 249 251 253 255 253 
251 246 246 249 247 254 255 254 255 255 255 255 254 253 249 245 248 249 250 
250 250 247 247 248 246 249 251 249 250 246 251 251 252 253 252 252 249 251 
254 254 251 244 241 238 242 249 249 250 253 251 250 247 247 248 244 255 255 
255 252 251 252 255 252 251 249 248 252 252 253 250 249 247 244 242 242 246 
247 245 246 245 250 249 249 251 251 250 249 248 250 251 248 245 244 243 246 
247 246 249 248 250 251 250 250 254 253 253 253 251 248 245 245 249 248 248 
249 249 250 253 255 250 249 248 244 239 238 243 245 248 249 248 249 246 247 
244 245 245 247 250 249 246 240 238 241 241 245 250 251 248 244 245 250 251 
250 248 246 251 249 250 249 249 246 250 247 246 247 248 249 250 250 247 245 
241 238 238 238 242 244 247 248 247 248 249 247 244 246 246 248 251 253 250 
243 240 239 240 244 250 252 247 244 244 241 247 245 241 240 251 250 252 252 
250 248 248 245 243 238 238 241 244 243 241 241 237 234 235 237 239 245 249 
246 246 243 242 242 241 243 244 244 247 250 249 247 243 242 242 244 245 244 
240 232 236 235 234 234 235 235 252 255 253 252 249 244 244 243 243 236 235 
243 246 244 239 240 239 237 236 239 244 247 245 244 242 236 233 234 234 235 
235 235 237 241 244 245 243 244 248 251 250 249 240 238 237 239 239 235 238 
237 255 255 254 251 246 241 240 240 236 238 242 243 245 245 239 239 237 236 
235 235 242 243 244 242 239 236 232 233 236 238 240 237 236 239 243 245 242 
244 248 248 250 248 241 240 236 238 239 242 246 247 254 254 254 250 245 244 
243 239 236 238 240 243 246 240 240 236 238 234 230 231 238 241 243 243 238 
234 236 237 239 237 238 235 233 237 237 236 233 234 237 242 243 246 243 241 
237 237 238 241 246 248 255 254 253 248 243 242 241 237 239 242 240 242 242 
241 234 231 229 227 227 228 234 238 239 240 237 237 238 238 240 237 238 234 
234 233 238 237 234 231 230 234 235 239 238 238 237 234 237 241 241 240 253 
253 250 248 243 244 243 240 240 239 242 243 243 241 235 229 225 229 230 231 
234 237 238 240 240 240 239 238 240 236 234 233 233 237 238 237 233 233 235 
241 240 238 234 234 235 236 236 237 241 237 247 249 248 247 246 248 245 246 
245 239 242 241 238 236 233 231 230 232 233 233 233 237 237 238 236 234 235 
235 234 232 233 232 232 233 231 232 229 229 235 241 245 240 235 237 240 246 
242 244 249 249 251 249 248 246 246 247 249 250 244 236 234 231 231 229 230 
232 233 234 234 232 232 230 229 230 230 228 228 229 226 230 229 229 225 226 
230 232 233 231 234 237 239 235 230 233 236 241 243 246 249 250 255 255 252 
249 248 246 241 236 235 233 229 228 230 229 233 234 233 233 228 224 224 225 
227 225 226 228 230 230 230 229 227 223 222 225 227 226 226 225 228 230 232 
234 231 234 239 240 242 248 248 249 255 255 252 252 249 248 244 240 236 234 
229 230 227 226 230 232 231 227 222 221 221 223 224 226 222 223 225 230 231 
231 227 223 217 221 224 222 220 221 222 226 231 236 235 235 236 239 242 247 
247 249 255 255 254 254 255 253 252 246 242 239 235 237 230 228 226 224 222 
220 218 221 223 226 226 227 228 228 228 229 231 229 222 219 216 218 220 219 
220 221 224 226 232 236 238 240 245 247 247 246 243 240 255 255 255 255 255 
253 251 246 242 241 233 234 229 224 223 221 220 221 220 221 223 224 224 228 
226 223 225 224 223 223 222 220 218 219 222 222 223 221 222 226 230 235 240 
244 246 250 252 251 249 248 254 255 253 252 249 246 246 241 240 240 235 234 
226 222 221 219 222 223 220 220 219 216 214 218 222 224 221 220 220 218 222 
224 221 221 221 219 222 219 221 226 229 234 238 245 250 254 254 255 254 255 
249 248 247 245 241 236 237 237 237 235 230 228 224 224 222 219 221 221 218 
214 211 210 209 214 219 220 221 220 217 219 228 225 225 224 223 220 222 225 
225 226 228 230 234 238 247 253 252 251 253 253 244 246 246 244 240 233 233 
230 231 227 222 228 228 228 226 226 223 223 223 221 215 214 212 215 218 218 
221 220 219 222 230 226 225 223 220 219 222 223 222 229 229 229 231 239 243 
249 247 248 249 251 246 248 249 246 241 238 237 234 231 230 226 228 227 230 
231 226 223 223 222 221 218 215 214 213 213 214 214 214 217 221 224 225 224 
224 221 230 228 223 222 218 221 228 232 236 241 244 242 242 241 236 246 252 
248 246 243 239 238 238 236 233 229 226 225 227 226 224 220 218 217 221 221 
219 215 213 215 215 216 215 218 224 222 220 219 218 220 228 226 225 225 224 
226 229 239 243 243 244 243 241 241 242 252 249 249 246 243 237 238 238 238 
237 234 232 230 231 229 224 222 220 218 219 220 220 218 220 221 216 215 214 
218 223 224 219 218 219 222 229 231 233 235 230 230 232 237 241 239 245 248 
246 246 245 250 247 250 249 246 242 239 236 235 237 234 235 233 235 236 230 
224 216 219 220 225 221 221 225 227 222 223 220 220 221 219 216 219 222 226 
227 229 235 237 232 232 233 233 236 241 243 243 242 243 239 246 242 241 242 
242 242 239 240 239 241 239 238 236 234 235 232 224 218 216 216 220 223 222 
223 223 223 225 223 219 222 221 220 221 224 225 224 227 232 233 232 233 236 
237 237 239 240 238 243 249 247 245 243 241 243 245 244 243 240 238 238 236 
236 233 232 232 230 225 217 215 213 218 219 215 213 209 210 216 217 217 221 
220 218 217 223 228 229 234 237 238 237 236 235 235 238 241 242 242 243 248 
248 253 249 246 247 247 244 244 244 245 240 237 234 230 229 230 232 230 222 
219 218 217 217 215 213 210 211 214 214 213 216 219 218 218 220 223 223 230 
233 232 237 239 237 237 236 238 242 241 246 254 255 251 250 246 243 238 233 
228 232 236 236 236 236 232 230 231 231 229 225 221 218 214 216 220 221 223 
214 215 216 213 216 219 220 221 225 226 225 230 233 237 240 242 239 239 236 
238 243 240 242 247 250 250 250 249 249 245 236 234 232 232 232 233 232 230 
227 227 227 225 221 218 214 214 214 218 221 225 219 217 217 216 218 220 223 
224 227 228 224 222 222 227 230 240 241 240 243 240 241 239 239 239 243 248 
246 247 247 241 236 232 231 233 234 233 232 231 230 229 226 228 225 219 216 
214 214 212 211 216 215 216 215 221 227 227 229 226 224 220 216 218 218 220 
225 230 233 235 239 240 239 238 236 237 239 248 248 244 244 241 238 237 234 
232 233 229 230 230 229 228 226 231 228 219 217 217 217 217 217 218 220 219 
219 223 226 227 229 225 224 221 220 219 216 218 218 221 227 233 239 240 239 
244 238 234 231 244 244 242 244 243 242 244 241 238 234 233 234 233 230 230 
230 228 229 223 218 219 219 219 219 220 225 224 224 224 226 222 219 222 223 
221 221 220 215 219 213 219 224 228 236 244 240 241 240 239 241 247 249 246 
246 244 243 243 245 244 242 240 236 233 228 229 226 224 224 227 223 221 220 
218 219 224 228 229 228 225 221 216 215 218 219 220 223 223 221 217 219 222 
223 229 236 239 236 236 237 241 244 252 250 245 247 244 247 245 248 246 243 
239 238 238 233 231 226 224 221 226 225 222 223 219 221 224 227 231 229 226 
220 214 214 214 215 219 222 228 227 227 231 233 233 234 238 237 240 242 244 
245 243 252 255 252 251 251 250 249 248 246 241 239 238 237 237 232 227 221 
219 222 225 227 228 226 222 224 225 227 231 229 224 218 218 218 214 219 224 
232 234 234 235 236 236 237 243 245 249 252 252 252 253 250 253 251 250 250 
251 247 247 246 242 239 237 238 238 233 227 225 224 226 228 229 228 229 228 
229 231 231 233 234 230 229 230 232 229 228 227 233 234 233 231 233 236 241 
245 247 251 254 255 255 253 244 245 246 248 252 253 250 249 248 245 242 241 
239 239 236 232 230 231 230 231 234 237 239 239 237 234 228 226 228 226 228 
234 238 234 237 234 232 233 234 231 233 236 237 239 246 249 253 255 254 254 
246 246 246 250 253 254 252 246 244 243 239 235 235 235 238 237 234 229 226 
224 226 227 232 236 234 233 229 228 228 227 234 238 241 241 242 238 232 228 
227 226 225 226 231 239 243 243 249 252 254 254 248 246 248 251 254 254 250 
246 243 240 236 234 235 235 237 237 236 233 231 232 232 232 238 240 239 238 
233 228 230 230 236 242 245 244 243 238 232 224 223 224 224 226 233 240 242 
244 247 248 250 250 251 253 252 254 251 250 248 246 246 242 237 237 234 235 
236 236 235 232 233 230 232 233 237 238 237 239 239 238 237 238 243 243 243 
245 244 240 235 231 228 226 233 238 239 242 246 248 252 252 253 255 255 255 
253 252 249 248 250 251 250 244 238 236 238 239 241 238 237 237 236 235 231 
230 235 235 237 240 242 242 242 245 245 247 246 242 240 242 240 238 237 237 
241 245 244 240 247 251 253 254 252 251 255 255 255 255 252 250 253 252 249 
245 241 235 235 239 243 242 241 239 237 232 228 229 236 241 240 241 244 239 
239 236 237 244 247 243 243 243 245 242 239 241 241 242 241 239 243 250 251 
253 254 254 253 252 249 246 245 247 249 250 249 246 244 237 233 234 238 240 
241 241 240 238 236 238 243 246 246 248 249 241 237 238 240 244 248 249 249 
250 247 242 244 249 248 249 243 242 245 252 253 254 254 255 250 249 245 243 
246 249 252 251 251 248 246 244 239 241 243 243 241 244 244 245 248 247 245 
244 245 246 243 242 243 241 242 248 248 250 249 249 246 242 244 247 250 249 
243 241 243 249 251 252 251 250 253 249 248 246 248 251 251 250 250 250 250 
250 247 246 245 247 246 240 239 240 245 247 246 247 249 246 241 243 243 242 
242 245 246 244 244 245 245 241 241 241 246 248 244 240 243 250 249 249 250 
250 255 252 249 246 249 249 251 250 251 251 250 249 248 246 245 246 247 242 
239 241 241 241 243 243 246 249 247 243 242 242 245 248 248 250 250 248 247 
243 242 238 240 246 245 245 245 249 249 247 245 241 253 252 251 251 250 246 
246 248 251 255 254 247 240 238 240 249 249 248 246 247 245 243 243 243 248 
253 251 248 249 249 253 255 255 253 251 250 251 250 251 250 251 249 249 250 
252 253 253 253 254 255 254 255 254 254 253 250 249 248 249 250 252 251 248 
247 249 253 250 251 248 248 249 248 246 245 248 249 249 247 250 252 254 255 
254 253 251 252 253 252 250 253 254 255 255 253 255 255 254 252 254 254 254 
255 255 255 255 251 248 249 246 249 252 251 249 249 252 253 253 249 246 244 
241 240 244 244 246 245 248 250 253 255 252 254 253 251 250 252 255 254 252 
255 255 255 254 255 254 255 255 255 255 255 
