P2

110 110
255
253 234 255 234 255 255 255 245 255 255 255 255 255 255 253 249 242 255 237 202 240 245 215 255 238 255 252 242 254 255 255 241 255 255 249 255 255 255 250 255 229 253 246 255 255 255 247 249 243 224 236 255 255 229 236 255 255 252 255 216 255 255 255 232 255 255 227 253 255 251 247 235 253 233 255 254 255 254 255 255 252 255 255 255 255 255 255 218 255 251 255 255 241 255 255 253 255 198 255 250 246 247 244 255 255 255 231 255 255 253 
235 234 239 255 246 255 246 247 245 248 255 255 255 255 220 255 254 233 255 255 255 251 216 255 255 255 214 233 211 233 250 248 255 255 255 244 232 255 255 211 250 255 255 246 255 255 255 255 253 249 224 255 255 255 237 225 241 247 244 237 255 204 255 248 217 255 253 244 255 255 250 249 235 255 244 222 255 255 255 242 255 225 248 228 255 255 238 255 255 255 251 253 255 230 227 241 247 247 255 255 251 253 251 254 239 253 239 255 248 237 
255 215 255 255 248 255 220 246 218 239 253 222 255 255 236 207 231 255 219 255 255 251 255 222 221 253 255 241 237 223 248 220 252 243 255 211 255 250 255 254 255 255 237 246 255 255 241 230 244 242 244 252 249 252 249 255 255 255 227 252 255 255 255 255 255 255 253 193 251 241 255 255 250 255 249 255 231 255 255 216 255 223 255 247 255 254 255 238 255 237 255 215 255 251 247 247 227 214 241 254 216 254 255 255 253 255 248 255 244 254 
255 233 255 255 249 255 255 230 249 233 228 255 248 175 246 234 255 223 213 255 228 255 241 255 255 243 238 255 232 241 225 255 255 252 215 251 255 255 225 247 255 255 230 226 231 255 236 246 211 255 231 222 230 255 255 254 251 222 255 255 255 255 210 255 215 241 255 209 220 255 255 241 255 255 239 255 240 252 233 238 253 255 255 255 222 243 231 233 255 249 255 236 250 255 249 228 229 249 228 255 255 255 244 234 255 255 243 243 255 255 
255 227 234 255 234 255 240 255 245 252 235 255 255 244 217 255 255 235 224 255 255 242 255 240 255 210 253 254 209 231 250 252 255 255 232 240 242 255 255 226 240 237 236 249 255 218 242 217 247 255 253 255 255 255 227 250 249 225 242 255 255 242 255 238 200 232 255 191 231 255 235 216 255 255 207 246 241 227 225 236 219 251 255 253 239 254 255 255 255 255 255 231 255 205 255 255 245 241 242 223 232 255 244 231 255 210 233 248 249 228 
255 248 236 230 233 247 245 246 218 239 255 255 227 255 255 225 189 255 243 228 255 251 247 226 247 255 255 245 255 251 237 223 240 254 254 255 228 246 232 255 255 255 242 222 239 222 222 218 255 218 212 244 229 229 255 248 255 247 255 231 255 255 242 252 255 232 244 239 252 220 255 250 255 252 245 249 255 255 235 229 242 255 247 255 228 230 234 206 255 255 255 250 235 255 255 255 226 224 244 252 253 255 216 214 255 255 213 254 253 237 
253 221 240 230 213 243 255 238 249 243 222 247 227 243 235 221 233 230 230 255 255 255 222 208 245 255 255 235 233 255 247 232 234 235 249 238 239 237 255 244 246 243 253 255 217 255 229 192 232 255 192 225 255 234 255 255 218 255 230 227 240 255 241 247 238 255 255 243 255 233 255 229 226 255 253 232 255 235 253 236 233 255 209 220 253 234 242 252 231 255 245 243 221 255 226 251 229 246 255 227 253 235 229 226 250 255 255 237 226 240 
211 234 255 255 200 234 232 255 255 248 243 215 223 255 254 231 197 238 231 224 255 247 248 214 232 225 234 239 225 250 255 253 217 239 255 255 242 255 255 227 224 255 218 235 255 232 228 240 218 252 221 255 244 237 255 246 255 249 255 255 218 233 255 220 215 241 244 210 255 218 255 248 231 236 253 253 241 240 219 218 252 255 234 226 255 246 255 232 231 244 207 255 228 232 234 244 230 228 230 220 252 245 253 255 230 227 241 233 236 247 
251 229 213 242 233 250 255 219 201 255 220 216 249 242 227 255 231 236 240 211 255 255 230 231 236 252 250 228 244 255 255 255 213 239 233 206 255 247 224 255 241 236 220 233 251 255 236 227 246 221 214 255 221 239 235 218 248 208 232 232 223 243 251 235 246 255 240 255 217 255 244 212 219 255 221 225 201 240 249 255 228 230 229 243 233 230 232 255 251 220 226 228 220 229 249 242 233 255 232 222 255 223 248 246 255 221 230 255 224 255 
239 221 222 229 255 253 240 229 237 229 210 229 230 245 235 255 205 218 237 254 163 255 246 232 200 243 244 235 255 255 191 243 226 238 240 220 255 246 216 245 253 255 240 239 234 226 226 222 221 255 255 248 204 254 225 250 221 224 255 255 209 231 235 245 231 228 245 221 218 254 207 255 218 230 255 238 232 252 251 239 244 218 242 255 193 246 201 245 212 243 242 255 255 236 220 255 250 226 223 225 193 246 230 203 252 237 204 230 244 202 
214 241 205 255 255 229 226 237 223 226 235 220 219 243 232 240 220 221 212 248 243 250 218 223 239 251 240 251 236 255 231 235 238 211 213 253 206 227 218 232 209 188 255 248 255 197 255 210 204 233 243 235 255 219 246 223 228 229 234 255 220 241 230 255 241 213 241 255 234 207 221 255 237 250 255 210 213 241 222 255 255 226 213 211 210 255 255 255 255 213 214 251 244 255 218 255 236 244 235 227 235 198 227 255 235 232 255 222 192 255 
196 233 226 250 245 241 238 203 233 248 255 220 222 255 255 241 252 246 240 241 240 170 226 233 246 231 233 255 234 255 229 220 211 225 255 203 229 206 255 220 238 221 222 223 222 247 201 242 221 232 237 247 233 235 255 247 231 200 233 210 255 243 247 250 255 226 255 247 215 251 224 255 211 252 248 209 233 226 229 214 192 229 231 222 208 255 216 230 255 215 229 219 210 243 235 221 234 234 225 240 220 213 240 234 238 241 225 205 231 215 
244 245 216 233 241 200 244 235 232 255 232 242 228 247 255 225 241 255 255 241 242 255 222 242 226 243 223 192 236 226 244 224 218 245 246 233 252 239 255 237 255 240 229 218 208 255 255 234 230 243 231 231 237 223 203 227 255 228 200 209 242 221 197 221 235 186 250 222 186 244 239 198 244 220 226 255 215 245 251 235 221 255 236 206 204 183 195 215 244 228 238 255 226 237 224 240 232 247 248 218 212 217 255 247 255 201 226 255 197 242 
230 216 232 253 240 223 236 252 229 249 247 214 220 208 209 234 203 219 234 234 224 241 230 225 244 221 228 212 229 237 211 255 237 219 198 233 229 214 228 218 237 206 255 234 255 235 241 225 232 229 214 249 222 238 237 210 255 222 225 195 255 255 235 216 241 237 212 247 189 227 250 191 222 254 245 205 229 214 222 248 255 198 235 221 236 206 235 241 232 224 227 239 197 192 228 217 234 222 231 255 248 255 255 226 226 227 202 205 199 226 
249 212 231 255 235 196 241 201 202 226 238 244 206 231 237 225 207 201 240 248 211 243 240 227 218 229 238 244 181 222 240 219 237 212 236 222 222 211 237 241 239 230 217 222 193 239 223 207 223 204 211 217 209 228 210 237 241 243 198 201 202 217 208 211 212 227 241 228 244 216 195 253 241 211 237 243 231 243 227 220 241 227 239 221 204 253 203 230 214 251 235 206 227 238 233 233 217 224 255 181 193 241 196 211 255 214 234 248 189 254 
223 236 213 237 224 191 225 229 226 255 239 214 201 216 255 207 206 233 255 227 224 223 212 216 216 255 240 221 225 227 217 198 233 219 217 232 238 225 192 199 220 176 201 232 236 238 193 199 238 228 228 221 207 230 188 239 211 211 236 246 211 238 255 225 242 223 253 222 241 241 224 255 169 235 214 220 248 233 237 204 209 220 229 216 212 221 217 222 205 239 255 192 194 248 199 216 215 230 219 255 222 239 255 251 255 230 192 255 243 206 
239 204 234 242 214 226 195 176 201 193 227 245 239 179 220 213 216 238 249 214 180 201 201 204 219 213 248 230 225 245 235 228 197 222 232 236 238 235 202 226 193 233 213 229 202 237 254 218 236 205 218 222 237 239 224 195 204 226 216 237 234 201 239 212 213 250 208 229 249 222 223 233 255 235 220 204 234 220 231 207 205 245 239 255 222 245 220 242 223 211 210 238 210 201 255 255 210 233 246 231 230 235 226 255 244 223 225 255 233 220 
227 226 255 236 255 233 215 221 214 214 191 211 234 221 246 227 202 223 255 220 255 245 212 196 227 229 228 255 208 249 242 223 198 226 249 236 233 204 207 238 238 190 225 210 234 228 232 220 203 208 227 217 194 255 224 216 211 222 232 181 224 228 225 220 250 247 210 209 228 211 207 206 195 233 234 170 242 233 226 241 190 203 197 221 221 232 228 208 212 217 238 222 238 194 203 255 227 217 210 247 234 201 240 239 247 249 209 182 193 187 
205 241 218 235 217 226 236 209 179 194 216 153 213 228 196 210 233 199 221 248 229 205 241 228 204 230 219 189 230 220 203 219 223 216 227 230 202 210 230 209 211 229 231 229 190 236 222 215 204 255 230 244 210 221 246 229 210 213 212 168 225 241 202 205 226 243 219 242 215 232 226 220 216 211 206 205 247 207 236 193 200 216 207 225 238 215 217 231 232 217 216 202 230 206 209 222 226 229 244 239 221 225 223 211 212 239 202 226 224 205 
238 233 233 214 221 233 231 215 195 215 229 222 228 235 225 202 228 233 201 218 233 167 207 234 231 202 237 183 224 201 182 183 201 219 226 217 246 193 219 177 197 249 237 184 198 206 230 191 209 213 224 218 255 187 202 234 220 247 255 217 210 220 220 186 207 220 203 205 238 216 231 225 159 190 203 232 228 212 221 222 187 197 219 222 210 209 255 207 182 232 209 220 213 238 228 231 213 222 255 251 200 231 219 213 217 239 213 219 232 235 
197 236 157 200 218 209 224 214 250 221 198 221 186 236 245 255 174 203 219 219 213 255 238 238 200 205 200 215 222 201 193 236 227 212 223 255 212 208 241 237 220 219 209 190 193 237 222 231 191 196 229 243 230 206 222 239 255 195 221 201 223 234 188 228 194 206 240 178 201 201 216 226 215 192 225 232 165 221 236 225 203 213 183 214 182 235 215 181 185 176 226 228 197 170 213 227 230 255 208 215 222 241 216 190 224 196 240 202 215 203 
187 220 208 215 198 188 214 203 188 198 174 196 210 210 188 215 212 200 197 168 208 213 204 250 219 222 231 210 243 153 193 215 210 246 183 234 215 172 188 184 223 197 225 204 215 193 246 199 204 230 237 189 200 162 180 215 184 236 197 217 226 203 189 199 220 218 250 213 228 213 211 226 217 255 225 202 205 230 184 234 233 197 213 236 245 228 247 215 224 213 225 205 217 195 215 204 202 251 208 232 232 213 223 201 228 224 173 210 195 213 
237 220 206 200 197 203 219 156 216 190 211 217 182 206 186 216 232 206 175 219 227 211 205 191 218 215 219 188 255 210 193 215 225 213 226 207 199 211 195 202 225 231 210 205 228 205 212 239 184 205 168 162 200 190 241 174 226 203 211 222 176 218 226 184 189 221 255 209 186 241 207 221 195 225 203 227 208 222 210 233 177 196 186 225 202 195 208 237 207 239 207 236 212 220 209 221 209 233 210 238 232 221 183 186 228 215 215 184 217 203 
208 206 204 211 191 243 197 193 205 208 228 194 197 197 228 255 220 231 199 224 236 232 222 190 214 237 182 220 217 229 218 201 185 223 240 192 231 208 209 197 204 192 231 176 219 221 209 237 169 204 225 217 225 210 175 213 208 235 168 217 219 201 223 197 209 193 212 226 194 238 209 168 234 205 234 212 210 206 185 165 194 192 160 239 216 229 206 217 188 207 218 216 181 196 225 210 163 208 185 203 191 230 205 239 217 246 218 202 185 213 
183 205 216 240 185 239 225 234 228 214 182 219 202 152 177 244 200 176 227 212 208 165 195 222 176 205 207 216 216 230 209 210 207 205 197 200 216 188 201 225 222 193 216 192 191 217 172 207 199 191 205 229 220 232 194 223 211 231 198 224 186 143 175 197 198 217 216 232 211 194 201 227 201 212 209 203 221 187 194 202 186 192 208 196 201 190 226 172 213 224 216 210 183 172 201 185 173 213 232 225 199 181 220 209 194 205 175 207 210 201 
209 243 218 185 229 214 185 193 192 189 190 224 216 186 220 208 246 230 213 205 225 200 235 205 198 176 185 203 214 199 201 242 212 221 186 227 219 229 176 181 198 188 210 224 205 215 195 195 191 204 231 225 172 201 194 209 191 185 220 170 229 205 190 187 213 219 214 179 213 203 199 196 229 208 169 206 196 214 178 208 181 163 183 209 231 211 188 218 150 199 222 155 181 212 247 234 255 226 191 162 205 223 201 211 191 213 235 180 220 205 
229 182 211 205 221 214 195 195 182 207 213 201 206 186 190 213 206 247 193 212 190 219 221 219 188 209 204 203 218 211 194 191 208 233 187 205 213 202 222 192 203 203 173 195 222 174 204 195 227 188 203 178 216 207 221 230 198 212 179 199 198 190 203 208 183 175 243 202 193 197 178 224 202 201 197 203 215 223 203 226 216 223 182 186 182 207 182 193 178 229 183 215 203 206 203 228 195 218 172 186 192 224 182 173 179 207 184 240 170 155 
177 202 217 227 223 207 186 199 221 182 182 255 206 195 202 218 230 193 209 224 197 193 238 182 204 212 193 205 208 194 201 231 219 210 213 228 165 201 194 212 209 208 182 209 217 216 192 193 213 195 156 206 183 192 203 214 214 208 224 169 209 152 189 205 204 165 200 187 194 193 191 201 199 192 219 203 203 207 201 209 232 179 186 191 202 211 213 186 246 190 227 171 221 180 201 195 178 209 160 231 202 171 186 193 194 178 201 222 174 245 
189 225 185 186 175 199 222 155 228 227 207 228 156 209 212 157 133 193 198 200 182 211 199 192 214 206 208 170 201 245 216 195 211 214 186 182 189 208 180 209 181 204 215 162 176 231 177 196 201 187 199 193 204 190 228 188 206 199 213 191 202 213 169 198 188 205 209 237 223 216 226 208 181 205 216 192 177 176 234 219 205 213 200 184 184 202 179 204 205 237 191 176 158 166 239 209 199 203 219 192 199 229 228 210 194 189 191 190 193 164 
213 197 208 169 201 193 209 195 179 229 208 199 204 150 177 165 206 186 208 174 200 190 206 174 161 200 194 201 167 159 201 171 195 227 213 211 207 191 204 148 193 178 184 238 154 223 202 186 206 231 206 189 232 213 202 214 226 213 172 237 178 220 165 185 203 154 213 208 163 222 206 184 154 203 173 197 194 196 168 208 184 175 197 202 208 216 228 219 166 190 140 187 203 193 194 186 250 203 191 200 191 208 185 177 170 172 184 200 170 170 
197 175 183 188 180 195 163 220 219 184 197 202 181 177 180 168 212 203 209 197 153 178 183 227 200 183 177 215 204 174 184 208 199 185 213 214 206 223 181 210 171 186 194 190 223 199 201 185 195 193 178 195 179 195 174 248 210 197 170 177 209 201 198 198 195 205 200 215 211 181 154 185 149 160 213 216 168 208 196 185 201 206 214 176 196 219 220 227 177 195 222 211 186 175 224 193 197 232 195 202 182 198 198 218 211 224 176 177 215 193 
199 213 202 150 183 168 193 202 229 176 221 181 204 178 196 229 200 180 193 193 226 211 189 213 252 228 193 192 184 195 183 181 214 200 194 205 216 188 187 208 204 216 179 187 196 193 205 225 190 215 176 206 195 148 187 197 190 197 233 212 178 202 162 204 192 213 204 221 195 167 184 188 165 180 192 188 228 161 202 187 193 186 180 185 170 176 142 199 217 198 214 211 229 185 178 184 193 208 188 214 195 188 215 207 172 216 195 159 189 183 
192 227 122 169 211 207 173 215 175 220 166 188 171 182 206 197 162 209 171 200 163 196 199 216 214 196 218 181 181 211 200 196 191 196 191 201 171 227 186 180 177 212 181 235 216 190 230 198 231 221 235 233 216 209 189 207 160 176 206 207 215 197 179 191 193 219 201 224 189 192 185 195 222 196 191 201 222 220 191 194 165 221 192 169 175 220 195 184 223 166 175 236 169 192 171 153 209 190 183 191 187 146 178 173 197 200 201 182 191 200 
192 174 214 177 217 169 182 179 174 208 182 203 209 145 207 216 236 178 141 204 189 192 185 221 163 194 234 202 170 187 167 177 189 207 183 181 201 196 192 237 173 180 177 205 226 156 194 189 196 232 152 205 197 204 193 179 241 209 205 165 162 174 174 188 172 201 172 226 174 149 202 179 173 226 230 194 207 194 181 196 182 167 191 147 192 196 159 197 211 200 163 241 208 175 228 194 205 181 194 166 174 181 176 183 236 228 211 163 177 229 
143 210 204 205 166 202 133 187 199 167 191 225 190 220 188 152 178 149 197 171 196 146 193 177 175 161 123 174 185 178 213 168 182 171 190 166 182 189 144 176 165 182 176 204 207 202 195 191 170 195 207 202 169 187 198 207 175 188 193 188 203 201 187 195 169 207 196 196 180 151 182 175 195 212 191 201 216 178 188 194 172 188 185 197 216 171 187 210 189 192 175 155 174 194 195 226 175 195 155 175 180 162 169 187 188 195 184 201 196 172 
209 184 145 184 155 177 181 176 168 207 170 167 180 178 189 176 179 217 207 185 156 190 189 171 152 172 164 168 137 166 216 187 199 216 155 169 185 185 195 188 188 159 191 207 190 223 179 180 184 156 199 218 172 192 218 162 171 179 185 161 153 205 165 189 195 160 189 188 178 174 148 201 174 131 162 173 163 181 191 159 175 173 177 180 156 164 202 215 216 181 232 191 168 196 167 206 174 205 195 171 180 179 176 175 164 188 195 171 164 203 
163 189 195 158 162 205 157 185 169 153 178 185 198 159 211 178 169 189 213 137 196 211 173 187 178 203 178 183 201 165 172 160 208 184 204 179 175 158 184 184 174 187 148 133 188 167 247 185 184 156 185 206 155 173 166 120 146 184 192 199 192 224 212 187 189 166 201 197 166 188 183 187 181 208 230 188 190 193 167 187 188 160 199 153 178 176 207 200 192 193 158 174 202 193 211 181 171 147 200 181 196 202 201 205 198 145 203 162 155 179 
187 183 214 176 164 216 164 171 196 142 206 202 160 193 174 158 193 173 158 193 161 181 182 174 173 198 177 178 190 156 168 180 183 176 175 192 164 188 170 208 151 188 156 179 202 170 176 177 202 210 191 149 152 172 188 181 200 148 151 195 154 203 172 196 190 162 187 196 175 210 203 181 187 181 196 199 169 151 203 189 153 186 170 171 200 172 211 211 213 186 172 174 164 214 191 204 157 177 177 164 157 179 144 194 170 162 172 200 228 177 
192 176 186 148 183 179 195 157 166 178 164 151 161 160 187 177 177 158 179 133 159 173 212 167 171 197 167 184 149 204 185 187 213 184 201 161 172 173 155 187 179 187 165 149 208 160 163 193 243 179 186 157 161 179 170 159 191 179 175 173 184 201 193 178 178 131 180 170 210 189 182 148 164 204 179 178 157 176 152 145 143 201 182 159 145 163 173 181 190 218 183 168 177 214 188 168 205 163 182 162 216 205 183 198 181 178 158 201 147 200 
177 169 196 182 164 171 164 197 150 155 161 203 152 151 186 184 143 172 177 158 154 198 223 185 205 205 185 176 160 122 142 177 199 166 214 170 191 155 176 199 168 158 173 182 169 156 173 155 192 146 176 180 161 177 187 160 174 179 182 168 168 189 174 181 154 154 166 149 167 170 197 151 188 172 161 197 193 184 165 160 176 176 229 143 163 196 182 184 170 179 191 194 183 210 208 212 176 166 162 176 155 156 161 161 196 187 147 168 158 170 
182 192 174 169 202 184 193 173 171 187 202 185 169 179 154 186 169 159 206 168 187 171 204 177 171 147 209 192 216 173 195 152 183 166 195 148 112 174 157 185 173 191 163 150 114 163 150 185 156 168 139 177 142 156 160 178 200 145 193 168 203 180 177 191 214 188 196 167 163 195 141 159 196 179 161 175 187 169 244 175 210 166 188 171 194 152 181 146 168 169 163 155 174 160 180 177 192 189 184 174 162 151 186 143 148 203 185 193 192 195 
177 171 172 205 168 154 186 198 187 163 151 208 191 172 198 176 167 156 183 181 145 184 200 219 203 163 146 174 209 152 169 165 172 163 152 179 190 168 188 162 180 159 154 160 168 182 199 199 186 187 213 167 167 176 182 162 195 153 172 181 174 174 181 163 165 138 151 174 183 148 191 143 157 174 206 161 183 154 180 187 151 164 185 138 166 172 186 178 153 203 167 170 193 184 200 192 197 187 174 214 142 181 148 183 186 173 190 166 202 185 
205 141 167 188 165 171 171 144 135 168 185 187 163 150 175 161 205 207 170 154 171 154 186 199 176 165 200 172 183 144 169 175 168 171 171 157 157 179 141 175 194 199 190 157 159 147 186 172 163 154 141 170 155 160 182 149 164 168 184 186 141 132 158 169 126 164 175 163 144 176 145 160 183 162 187 203 145 129 142 201 160 199 199 141 179 197 149 185 162 153 176 167 172 191 173 166 181 198 171 172 172 192 199 139 205 137 171 155 148 173 
174 157 164 169 169 180 161 168 188 159 155 177 188 146 169 184 158 151 189 167 162 163 174 194 150 177 193 151 175 165 176 180 167 182 172 167 180 172 125 151 176 169 160 149 197 145 153 179 177 160 162 171 170 166 127 155 175 152 204 187 148 172 140 135 194 153 168 159 154 172 175 155 180 179 174 179 167 144 189 183 144 150 168 146 165 167 151 130 212 165 141 189 150 139 222 192 189 184 174 165 169 187 180 175 146 135 175 166 159 149 
189 171 159 143 169 148 156 171 176 185 182 119 118 205 170 165 183 163 202 191 178 152 174 162 183 174 153 143 144 146 185 165 180 195 169 140 198 180 147 173 154 192 175 179 161 153 128 147 176 170 131 150 176 137 154 175 171 153 174 177 190 154 191 190 157 143 153 167 170 162 167 146 164 162 146 172 159 192 130 153 178 179 176 135 190 197 172 135 167 186 203 172 157 165 151 168 183 157 147 160 173 176 154 187 141 172 164 160 138 157 
169 186 204 211 118 156 155 153 199 165 179 162 150 165 172 158 196 136 131 170 187 164 157 146 165 171 144 188 129 145 160 179 165 165 140 167 166 178 176 143 197 168 178 156 187 180 153 138 173 146 183 165 122 176 194 154 138 163 119 183 164 182 162 178 166 171 171 156 179 196 151 154 174 154 159 153 182 179 169 172 115 143 206 194 150 165 141 174 154 159 161 172 187 135 139 219 211 164 153 154 189 147 146 168 170 183 169 145 176 190 
185 172 140 107 189 154 201 188 163 163 189 163 171 176 171 205 169 163 154 164 156 142 177 172 160 163 142 137 150 204 149 183 154 204 152 182 152 174 183 181 136 146 198 166 181 164 151 173 166 180 162 171 112 149 177 164 161 159 138 140 182 163 130 168 142 178 158 157 154 141 161 128 163 179 154 158 162 161 176 171 173 187 171 173 181 181 178 152 178 149 138 133 161 186 154 154 157 174 164 127 182 180 144 170 193 159 130 181 156 131 
147 147 145 164 162 141 172 155 148 155 173 156 165 178 147 154 144 196 188 141 158 147 166 146 131 158 120 134 155 140 129 191 153 148 132 187 143 152 163 163 177 152 169 170 161 155 131 169 189 167 154 152 174 170 172 156 160 174 167 181 163 178 175 167 171 170 155 183 153 168 179 144 161 161 157 143 151 153 152 191 164 177 171 184 175 175 135 186 163 182 143 145 180 156 177 171 174 161 152 147 149 167 158 190 151 183 161 156 155 143 
159 154 178 186 154 141 151 141 162 170 141 101 158 148 171 172 147 171 142 156 140 173 170 177 134 163 138 152 153 167 163 146 192 122 169 163 206 134 164 136 128 108 159 163 142 181 197 141 141 150 173 149 133 173 142 153 185 157 156 177 151 150 166 144 169 185 174 173 190 165 154 145 111 164 140 154 129 157 191 155 161 159 163 139 159 164 176 150 169 183 133 154 153 134 189 151 150 172 172 190 137 155 137 154 187 164 161 116 155 160 
141 142 112 154 150 112 146 155 166 182 160 138 127 190 139 136 138 157 182 167 188 196 188 172 182 168 132 147 165 157 143 141 146 185 143 185 163 123 157 164 190 143 150 135 177 157 161 131 148 173 185 151 130 138 117 127 162 171 159 144 138 145 154 211 167 147 194 169 141 151 127 184 151 157 161 162 130 157 141 144 149 169 149 171 179 163 157 155 152 159 172 177 117 158 160 146 154 135 157 124 127 168 179 132 166 145 128 149 134 148 
192 215 148 152 163 143 157 181 145 139 154 166 164 147 172 155 139 143 174 124 154 156 155 124 172 159 176 140 164 155 140 146 167 160 135 169 157 161 128 149 187 138 168 177 131 164 162 174 125 166 154 207 157 171 114 135 169 151 163 152 155 170 118 187 125 155 150 134 182 123 161 127 149 168 168 160 127 146 141 157 161 122 146 167 160 184 168 165 155 165 150 155 148 157 166 188 149 151 139 179 144 132 143 153 149 138 132 133 131 171 
132 165 153 156 148 124 160 121 157 155 152 157 153 148 151 185 132 165 153 167 195 161 184 176 129 141 152 153 161 160 136 145 122 152 126 153 105 145 172 101 162 170 167 139 180 162 136 128 142 119 178 164 196 146 154 156 149 148 157 128 165 159 131 124 167 151 157 168 166 141 116 142 156 155 173 193 199 147 156 178 149 145 144 138 134 161 142 150 144 157 163 132 148 150 174 156 163 110 180 132 144 170 161 160 164 169 187 112 184 98 
176 175 129 163 151 161 158 140 150 138 121 123 124 126 158 171 155 150 132 156 155 124 164 147 138 151 136 156 156 125 172 180 137 158 141 176 154 174 145 158 167 176 140 136 143 149 132 172 173 155 163 123 155 150 144 166 156 157 153 122 153 158 165 194 149 144 165 136 124 141 153 167 138 164 190 147 121 145 116 134 160 157 134 130 150 154 191 155 153 166 153 146 149 103 149 167 166 172 149 159 140 136 139 191 153 137 164 155 185 159 
146 185 141 139 117 174 126 149 144 155 145 115 135 124 156 163 137 152 116 146 130 161 188 182 115 79 168 133 162 133 170 118 136 144 132 144 115 156 140 147 168 148 156 154 106 170 113 149 135 124 154 123 138 130 163 176 115 135 110 207 140 117 140 163 151 132 146 171 130 165 139 178 121 144 132 123 194 194 144 158 168 116 140 181 123 170 162 158 192 115 164 115 128 173 149 136 179 106 133 146 153 117 154 149 191 114 114 131 134 169 
154 150 160 173 145 164 184 130 116 168 128 135 151 143 146 175 156 139 181 139 157 136 150 128 156 139 138 167 148 172 158 147 156 141 201 124 147 144 145 139 130 108 131 158 137 119 154 153 136 170 131 139 140 165 151 146 156 135 94 171 138 148 99 129 137 155 154 172 151 115 153 132 142 103 117 132 171 127 163 174 173 153 129 147 151 134 143 101 157 134 121 155 177 162 180 128 140 147 155 169 146 144 171 158 161 134 162 153 148 116 
136 121 133 141 153 144 178 148 162 142 112 147 160 125 127 173 132 171 115 139 155 169 152 145 132 150 161 137 179 179 145 140 140 127 171 152 138 111 145 121 137 149 142 125 178 151 152 111 123 152 130 118 137 124 154 114 89 146 135 144 126 117 155 136 156 135 136 122 147 143 168 158 124 153 118 135 182 138 152 145 121 138 148 129 152 128 135 166 150 155 153 174 155 122 128 167 186 166 167 114 140 132 163 145 155 157 173 184 140 133 
145 147 125 129 145 144 157 165 153 177 157 167 156 121 139 151 155 138 155 102 115 135 158 140 154 118 156 154 133 118 151 135 126 166 194 128 130 117 113 107 134 134 158 148 108 149 154 135 122 118 133 128 113 174 163 157 140 134 165 138 110 146 138 162 129 143 148 136 123 178 167 141 161 121 130 163 149 129 112 148 144 128 195 112 103 137 104 123 108 163 161 144 157 147 146 121 156 160 148 154 135 153 116 114 143 159 126 156 129 126 
117 117 141 127 142 148 148 146 150 165 141 127 130 149 150 147 103 94 155 159 149 140 128 143 159 144 120 145 134 117 136 104 146 86 144 149 161 132 130 133 155 135 138 165 133 125 153 139 123 153 148 158 149 149 137 112 109 121 141 110 135 106 127 176 146 135 119 121 137 153 150 136 179 126 121 116 118 130 185 115 149 154 173 149 174 148 152 121 101 176 147 135 112 150 118 142 150 189 149 180 156 159 169 152 138 144 146 116 86 123 
146 121 109 130 160 110 148 163 141 149 124 134 140 162 190 157 140 109 137 137 132 158 136 109 127 159 159 139 97 152 150 101 99 125 129 149 106 145 139 123 148 146 147 153 153 140 127 146 144 160 147 105 161 158 152 155 146 102 159 129 148 140 122 177 125 169 164 119 152 109 111 102 166 123 168 137 149 150 168 112 115 136 136 117 137 142 155 106 133 163 138 138 125 118 153 167 121 144 102 130 131 149 139 136 152 150 122 134 110 146 
136 149 133 127 115 123 155 137 102 125 86 138 126 121 130 113 125 126 147 169 105 140 102 154 130 137 133 129 151 112 158 119 137 171 137 131 133 106 166 102 106 105 100 115 144 133 129 139 118 160 118 136 146 123 131 131 143 98 119 145 127 144 151 150 127 144 113 159 134 124 108 95 131 156 147 125 161 134 118 181 143 133 89 85 150 148 129 168 153 134 147 165 142 177 104 120 127 140 131 71 136 161 150 123 142 152 158 130 151 153 
159 162 127 128 107 154 145 157 137 134 126 135 127 176 132 127 136 128 135 95 149 142 137 165 112 102 117 154 110 147 163 147 86 135 140 129 159 81 134 105 96 155 77 138 145 133 141 122 158 160 124 129 131 131 137 144 141 136 150 162 110 143 112 134 163 154 124 143 118 118 136 120 152 120 131 137 138 123 136 113 105 116 127 144 131 139 115 131 154 125 130 132 148 123 145 135 133 109 122 146 123 140 164 102 97 145 123 169 148 100 
127 115 151 163 135 141 136 111 134 120 130 147 160 114 126 128 118 169 168 113 119 148 116 116 134 130 131 111 160 120 134 147 145 111 155 130 139 137 125 128 133 142 124 162 97 115 131 129 101 125 135 133 133 124 138 76 109 136 146 152 144 174 111 155 156 147 147 160 109 125 138 151 114 100 127 130 112 139 132 134 110 156 123 165 116 99 143 119 133 121 115 161 163 109 134 141 149 99 129 134 126 129 150 153 153 149 120 95 135 120 
128 75 172 107 117 131 128 119 150 111 106 115 149 136 134 138 83 165 148 156 112 166 107 135 123 171 140 153 162 158 160 130 125 128 140 132 118 152 139 159 117 99 120 121 159 147 157 71 134 121 110 141 143 125 158 98 121 116 156 136 134 98 102 145 121 139 105 150 128 132 133 94 119 119 114 120 168 108 113 142 127 130 122 131 111 119 143 137 170 138 136 136 118 151 144 143 128 164 121 146 138 134 129 129 137 157 133 131 121 112 
125 148 145 107 119 162 128 114 148 111 129 129 160 132 142 123 115 134 93 119 129 128 132 144 129 107 129 153 97 98 151 76 142 128 147 128 143 185 136 103 147 125 104 142 126 160 124 169 122 132 126 151 120 129 103 165 128 116 113 108 112 95 106 128 104 134 105 152 131 136 144 95 137 137 116 153 102 116 169 160 157 137 132 108 149 136 124 123 108 118 151 155 144 126 129 115 81 103 95 116 142 105 127 136 156 131 136 133 168 99 
128 138 148 150 154 112 131 145 127 97 143 108 179 139 99 97 160 116 143 135 108 90 119 126 154 88 135 144 93 121 114 124 139 114 105 89 117 103 119 173 126 148 128 119 127 143 102 130 147 114 143 125 142 136 93 206 116 114 77 108 129 130 142 182 127 170 100 128 91 115 158 128 136 132 143 131 158 135 118 131 116 116 145 119 146 83 142 99 121 120 127 168 111 127 147 114 101 127 93 99 134 147 169 141 124 136 100 119 151 94 
150 134 113 149 89 124 106 114 147 89 160 121 83 121 153 121 106 127 127 158 124 109 113 95 129 129 133 125 114 152 128 122 129 103 92 193 93 89 181 146 138 130 145 140 117 157 111 111 130 144 109 118 103 135 138 116 113 150 130 107 126 165 127 113 136 118 127 94 131 116 116 128 135 132 131 107 81 99 121 128 154 154 125 114 119 107 103 96 130 129 111 97 123 140 158 118 137 166 125 124 156 97 109 102 121 138 119 117 123 108 
97 107 124 149 158 141 129 110 112 106 108 124 115 164 163 137 110 80 121 123 115 141 139 137 156 153 100 127 91 119 126 157 111 134 88 116 96 133 148 132 126 133 84 125 126 104 115 127 147 116 106 121 157 149 139 152 136 80 134 123 125 124 123 127 112 146 103 149 138 120 150 143 104 76 161 128 122 124 136 136 104 158 134 129 162 116 99 152 128 135 128 96 109 96 117 112 129 110 126 103 116 129 130 145 153 133 103 130 135 147 
98 106 127 142 121 69 130 116 100 152 104 94 138 102 77 107 106 98 95 116 115 127 122 130 91 131 90 100 111 98 89 181 123 143 113 122 101 120 102 127 121 131 79 141 123 132 105 133 174 148 145 132 129 100 126 141 120 87 142 121 98 102 94 97 128 154 143 96 94 121 80 129 118 129 112 145 155 105 121 107 130 127 145 121 142 147 101 160 126 115 135 96 139 110 146 134 141 109 130 144 139 122 132 161 124 121 111 134 108 150 
112 101 125 110 79 94 115 147 138 106 138 85 107 123 83 142 98 109 110 134 139 123 100 117 108 137 119 86 142 156 123 140 120 115 78 118 121 160 143 133 83 154 98 122 136 124 149 101 124 111 105 148 125 120 127 105 175 125 158 126 142 126 78 128 129 111 104 94 119 153 114 153 104 137 94 115 93 140 120 119 149 113 169 122 146 117 129 125 110 123 119 113 111 132 86 137 80 158 120 144 129 117 105 124 132 146 103 134 125 128 
119 143 115 95 72 161 145 145 123 141 112 128 143 122 135 108 84 123 134 136 111 93 132 102 112 123 112 114 116 102 90 85 98 124 106 128 141 124 117 122 153 98 128 99 99 120 112 117 135 117 101 86 119 141 103 121 99 84 97 113 109 133 126 120 106 106 97 159 110 146 116 139 122 125 117 97 135 122 117 103 110 142 113 124 101 139 110 139 96 100 85 108 157 107 105 101 134 128 153 111 133 124 81 116 133 136 154 121 109 128 
141 135 113 124 72 130 64 109 153 117 108 103 103 123 106 124 143 116 144 121 115 130 126 132 122 95 149 120 107 116 128 92 145 99 75 108 122 132 123 113 92 126 94 87 139 132 109 115 112 102 104 86 116 137 121 144 115 134 117 101 90 128 97 144 134 108 90 99 149 103 131 131 83 113 133 89 123 89 148 90 123 121 89 107 104 144 107 128 72 137 128 122 135 126 75 122 150 92 84 99 101 127 104 131 136 121 169 108 121 118 
113 127 136 97 113 97 114 122 104 85 96 107 139 107 102 116 101 127 141 109 128 118 129 67 94 92 92 105 120 103 132 141 103 135 133 105 107 126 122 147 132 124 75 87 86 136 101 115 131 106 109 121 64 122 128 107 96 91 51 106 102 102 122 121 129 117 94 113 82 136 84 119 84 117 119 127 107 102 103 162 110 107 138 80 113 118 116 109 128 116 110 78 92 135 120 103 76 116 116 106 99 126 72 121 102 112 150 98 113 97 
103 145 80 96 123 144 106 118 100 106 105 142 110 132 102 111 126 87 120 121 128 114 139 111 80 114 86 108 111 123 136 114 120 102 140 113 115 126 108 112 134 99 110 109 63 123 111 129 130 124 166 127 112 133 128 104 110 115 114 106 143 125 80 110 109 112 115 88 86 111 99 116 119 145 130 114 117 151 127 118 64 95 99 148 127 124 121 104 125 97 74 129 139 99 96 114 83 105 118 140 128 114 92 130 131 122 111 120 124 77 
116 96 81 115 131 85 103 119 125 136 104 110 149 142 77 101 100 117 94 126 108 116 92 101 134 108 106 104 111 144 93 92 123 94 149 119 124 125 114 111 84 74 114 76 106 79 110 96 85 85 133 132 117 108 73 120 150 74 114 111 135 75 67 127 123 137 144 75 106 100 101 135 107 90 113 106 79 89 106 104 133 120 103 115 97 91 97 98 144 112 129 98 100 114 85 89 122 70 107 107 86 110 134 124 151 77 142 104 131 110 
116 100 98 92 95 112 105 77 89 113 119 110 75 113 128 113 106 73 102 72 112 111 129 109 102 78 145 107 66 56 78 117 113 90 87 139 135 89 109 89 94 83 111 111 133 89 84 89 118 83 108 92 108 81 136 136 104 133 102 117 119 91 94 103 96 83 141 104 107 92 117 116 135 105 96 105 119 112 108 104 113 81 116 106 122 90 112 103 94 106 106 140 109 141 114 125 123 82 118 137 108 97 116 97 120 98 107 106 90 106 
84 131 130 102 122 114 86 96 112 83 89 112 115 92 96 86 107 108 94 98 112 105 117 133 72 119 122 82 130 115 99 87 108 131 104 123 87 124 139 103 106 120 110 86 120 86 110 69 132 103 116 76 120 103 90 88 101 134 128 96 118 105 115 143 105 133 97 109 121 124 117 97 139 134 117 110 127 107 95 95 112 87 99 122 143 130 107 85 113 85 78 116 91 105 113 101 105 133 118 117 122 111 119 90 88 113 149 116 69 83 
79 103 94 118 75 90 119 95 64 127 85 118 112 95 82 97 143 86 103 95 89 115 118 117 81 121 97 77 72 115 108 118 103 101 106 96 110 129 68 99 63 124 76 113 125 88 108 91 81 84 102 60 103 78 115 158 102 90 115 99 114 124 82 100 148 119 93 82 107 98 82 83 57 96 111 114 102 89 77 103 109 111 124 101 94 117 112 110 82 110 111 83 118 98 111 74 78 102 93 95 98 92 83 100 98 70 99 136 97 80 
103 102 140 114 85 101 70 113 124 141 109 114 74 147 97 92 68 147 110 124 106 99 107 127 142 107 119 121 113 135 54 86 107 91 93 100 107 101 124 116 122 95 91 134 69 76 103 83 99 80 89 78 135 108 108 108 110 100 87 71 111 60 92 76 104 83 113 85 112 101 119 107 123 111 120 113 82 70 108 124 109 87 96 116 126 128 84 123 98 89 110 114 108 74 88 109 94 119 119 108 82 121 124 111 79 108 70 121 94 92 
99 111 110 80 122 96 112 103 112 86 136 105 110 99 75 100 69 133 88 98 70 73 98 130 86 54 88 113 113 127 100 87 70 64 96 61 100 125 111 101 85 76 98 92 99 131 96 83 112 116 114 85 116 114 109 95 117 114 80 68 96 107 101 101 117 108 96 80 71 131 80 108 92 93 107 92 87 112 63 86 109 75 114 111 109 73 74 95 91 92 95 85 68 111 105 92 68 128 77 78 73 101 106 97 75 52 60 109 94 115 
97 81 124 85 109 99 88 127 94 80 56 117 97 97 85 157 73 96 99 86 102 78 126 98 43 67 71 121 69 87 108 66 78 65 87 82 99 83 109 117 104 83 79 132 78 89 127 103 107 83 100 51 116 123 67 102 93 96 96 98 102 100 91 78 88 87 112 98 112 83 92 82 122 119 83 71 94 73 55 100 99 107 94 108 59 79 67 122 97 97 118 102 64 126 85 125 78 86 98 97 95 87 112 100 117 76 100 90 109 84 
69 95 93 90 87 68 97 91 100 95 115 89 67 118 89 91 103 87 95 68 108 80 128 93 96 118 58 112 60 78 109 89 65 89 95 65 128 112 82 91 93 100 102 90 104 84 114 48 84 80 110 86 87 76 116 77 58 110 82 128 103 103 89 91 104 76 95 105 81 119 114 107 77 89 47 109 86 122 105 128 74 77 92 82 100 123 70 87 67 103 70 111 105 80 109 92 73 111 108 77 69 100 95 100 87 90 107 95 75 99 
95 112 121 76 91 83 72 69 76 103 73 91 124 69 81 87 94 85 93 99 79 94 87 105 96 79 108 90 92 110 104 115 76 108 103 113 94 89 86 113 74 76 62 89 132 93 92 72 73 78 97 93 93 71 81 82 94 92 108 93 99 84 122 96 138 100 45 117 74 87 84 93 112 95 103 91 63 112 123 92 94 103 80 108 74 105 80 101 69 77 101 105 96 116 105 81 86 73 76 49 80 121 82 111 97 88 95 83 74 92 
84 100 98 117 96 113 83 128 87 121 70 96 102 81 104 99 92 108 46 112 101 126 115 66 73 97 70 100 91 128 79 106 111 77 93 51 83 93 55 118 91 86 88 87 97 125 92 106 74 80 115 75 82 109 85 86 84 64 96 76 107 83 102 83 63 132 95 91 50 82 77 66 80 102 84 77 71 110 126 113 128 113 78 71 80 100 91 93 112 64 138 65 85 67 75 83 104 70 100 95 125 80 83 76 96 111 72 94 92 70 
104 103 99 88 124 92 80 89 91 78 94 99 96 74 68 130 129 89 58 68 70 56 138 77 79 91 102 64 88 134 114 49 97 69 94 88 86 68 109 108 87 94 101 68 107 92 81 111 82 86 81 107 89 47 83 74 92 62 92 59 96 113 84 92 88 80 86 97 79 125 99 87 100 94 101 100 67 105 65 95 102 107 58 70 78 125 80 102 56 113 71 99 92 62 72 86 67 80 102 70 81 87 116 115 80 59 99 118 81 88 
65 96 66 122 90 74 121 80 104 110 94 59 100 84 60 87 45 67 92 111 87 81 88 103 108 81 109 79 110 89 84 101 92 73 123 87 116 96 69 80 64 86 74 114 99 109 66 66 91 74 92 63 89 100 95 109 85 120 82 112 87 101 102 69 79 105 122 70 121 130 47 50 89 52 110 89 99 101 45 77 72 48 92 84 100 119 93 104 79 69 100 85 48 58 87 100 74 77 61 103 99 87 106 123 82 97 99 77 109 69 
61 48 96 72 78 80 56 118 66 58 108 95 38 88 53 103 77 116 101 82 43 104 85 88 105 100 58 132 71 32 108 73 53 61 96 107 70 44 60 76 50 87 66 57 98 65 83 102 78 29 81 70 83 93 95 95 83 118 55 76 84 97 58 103 92 100 90 95 70 85 120 87 99 120 77 81 50 71 79 89 91 59 85 92 78 59 81 73 74 76 75 86 71 91 71 60 74 103 95 51 80 95 117 78 73 101 85 111 85 71 
114 76 88 88 100 54 72 110 55 92 95 25 67 48 70 97 66 74 59 37 89 122 83 69 91 84 62 86 80 132 82 124 115 86 61 91 55 67 83 54 68 75 83 89 105 93 99 80 87 67 127 61 61 88 83 73 82 81 71 137 101 69 97 125 66 92 108 68 59 78 47 80 82 85 104 68 52 85 84 79 76 69 102 83 76 52 100 112 119 55 101 97 76 90 65 105 49 69 76 91 68 76 59 82 93 65 106 59 87 87 
104 78 75 97 44 88 99 91 61 89 42 66 124 87 87 112 64 91 85 52 53 92 81 76 101 82 76 61 81 60 64 57 80 96 88 76 74 78 112 56 73 112 48 103 93 107 67 94 34 71 89 73 61 95 109 77 81 79 67 67 82 73 89 97 51 75 84 62 68 67 72 68 101 78 76 93 80 70 56 77 70 115 66 106 66 67 78 98 106 89 38 81 86 84 63 64 80 93 54 74 49 69 43 91 84 99 74 92 90 91 
66 34 54 52 125 104 92 79 87 93 73 64 80 58 95 75 77 82 77 91 108 59 85 95 115 80 93 91 78 82 122 70 83 65 94 69 90 60 93 91 61 95 98 92 94 115 84 89 66 77 22 59 95 51 54 63 97 68 88 89 74 57 74 63 74 69 94 82 72 84 40 59 86 101 76 67 91 113 70 48 55 90 72 64 98 128 67 71 103 95 46 70 78 99 79 58 92 78 109 84 81 89 79 68 78 98 75 54 87 99 
72 95 58 95 85 80 104 38 57 78 75 90 104 58 71 85 73 52 88 75 108 63 71 75 55 106 64 56 59 94 77 74 90 49 94 95 105 58 77 89 69 94 60 68 83 60 73 100 92 55 91 84 36 45 65 77 54 74 75 59 66 71 93 71 121 74 53 80 97 51 83 72 70 103 97 71 57 90 91 103 88 87 85 92 16 81 95 60 50 87 72 113 83 73 60 76 65 76 69 59 66 31 60 80 84 86 90 36 58 38 
64 77 95 99 56 86 62 33 91 76 111 82 69 60 69 107 40 108 66 63 70 110 67 25 68 75 130 51 68 61 75 82 83 47 94 79 64 97 45 66 64 76 76 78 98 101 56 97 81 74 61 65 107 88 96 50 73 67 101 90 49 106 114 118 87 70 76 119 81 47 90 93 82 61 52 67 63 62 80 76 48 65 67 61 65 74 70 91 81 79 99 68 97 75 83 91 87 90 56 40 58 105 84 59 103 70 51 62 76 76 
88 73 73 108 58 73 73 69 51 35 89 78 66 65 91 75 86 45 86 54 73 69 59 85 48 82 57 60 48 93 68 49 94 72 78 65 62 111 65 87 66 65 87 81 63 46 69 103 35 63 87 71 61 85 89 73 76 76 74 89 32 98 94 56 84 75 27 75 45 81 60 66 63 74 80 64 77 56 53 47 52 61 88 89 65 70 66 57 68 55 96 95 70 59 73 22 80 95 74 129 86 76 99 105 47 73 97 47 58 100 
80 17 85 71 65 107 79 90 64 90 54 61 87 77 51 68 79 93 50 83 78 31 66 61 70 90 78 71 73 72 71 86 96 73 52 53 78 71 47 57 58 97 67 70 98 76 81 59 39 64 78 46 83 36 49 78 77 59 88 56 64 54 68 40 40 87 60 75 60 73 60 77 71 68 95 96 60 73 86 52 79 60 84 69 66 59 97 41 79 47 71 78 103 77 68 62 71 78 85 72 55 85 64 100 69 63 50 53 68 97 
73 79 78 69 60 53 82 46 36 55 66 42 56 107 86 98 69 92 34 106 47 63 95 54 77 36 57 60 49 71 81 61 87 49 51 88 68 84 60 92 82 80 79 57 69 86 42 35 70 113 83 76 75 54 69 77 95 83 103 44 72 27 76 87 51 68 76 74 44 60 67 41 85 65 25 102 36 78 81 91 83 54 44 68 84 74 63 87 99 65 97 89 79 88 74 69 26 65 76 55 84 52 56 48 75 77 75 85 60 63 
71 110 66 54 68 76 67 64 86 74 67 119 28 45 71 73 49 64 64 98 47 63 48 73 81 102 87 65 43 58 42 98 43 70 68 80 54 90 68 80 73 92 46 72 97 66 76 72 43 79 46 64 105 63 91 52 52 70 71 74 76 84 97 119 62 30 67 110 65 61 85 69 41 50 16 56 72 72 78 69 76 65 106 90 65 98 67 75 46 49 84 69 80 60 42 61 46 67 50 31 88 94 60 67 72 57 105 83 42 61 
63 93 88 80 104 78 65 65 46 38 54 91 73 57 43 61 68 62 34 34 39 90 50 68 77 89 59 59 20 79 79 107 85 33 69 67 64 65 79 18 69 72 108 56 61 65 92 97 72 56 67 65 46 44 84 85 83 86 49 71 58 44 85 78 57 58 48 64 51 54 73 95 75 54 29 62 95 81 46 26 41 72 111 80 42 67 61 68 42 61 66 36 92 48 61 60 51 58 63 81 45 22 43 53 69 69 57 48 77 47 
67 27 91 45 53 84 59 55 98 43 78 72 60 100 50 93 74 35 83 63 67 40 53 56 66 72 97 84 45 72 62 63 64 80 78 74 67 45 57 60 28 51 63 75 80 60 62 69 54 62 79 32 65 50 35 58 41 61 11 60 57 42 72 57 70 43 61 26 71 48 95 74 104 86 74 83 95 58 77 67 31 76 60 78 94 69 34 55 75 58 76 69 93 46 68 87 110 38 90 46 53 55 17 43 32 78 63 58 85 63 
72 63 61 117 62 73 28 49 39 76 75 77 73 87 43 65 49 66 45 34 48 59 72 65 75 73 79 62 44 35 11 83 64 29 84 57 62 71 56 24 84 35 56 43 47 96 76 56 61 42 57 43 39 60 61 67 55 71 69 75 24 54 53 63 49 79 81 82 84 54 42 67 90 64 56 53 37 46 79 87 73 65 74 49 49 57 57 43 41 18 24 76 74 13 82 66 55 86 65 23 72 75 39 39 62 89 41 46 61 68 
44 80 54 48 43 75 35 67 49 20 71 72 34 54 67 98 92 63 106 73 43 85 64 54 68 52 65 51 54 108 69 98 59 64 61 91 74 31 59 25 48 50 66 74 70 38 26 73 39 68 51 25 26 9 33 63 41 56 45 77 48 55 36 54 85 53 52 86 91 19 49 54 59 62 87 100 42 55 27 34 94 49 85 75 64 59 77 65 64 78 63 51 84 86 41 74 98 16 44 35 56 87 99 59 21 75 58 66 64 54 
18 36 43 37 69 69 60 58 33 50 78 59 55 60 45 68 54 56 66 78 63 57 56 48 53 74 42 63 51 71 39 91 36 53 46 72 47 36 67 54 85 12 62 72 65 44 16 45 63 45 69 46 35 45 34 28 67 63 96 49 77 45 47 55 71 48 63 66 28 57 52 65 46 59 43 48 49 75 82 48 37 79 48 80 49 45 52 70 87 59 47 5 65 79 61 94 57 74 85 92 48 53 39 50 70 53 78 56 84 62 
56 72 78 54 50 64 59 70 74 79 34 72 76 82 72 44 48 116 87 39 61 68 43 46 52 8 88 7 81 51 63 52 64 46 55 41 63 59 40 57 60 55 50 67 57 75 48 48 70 71 52 59 37 48 60 71 103 56 45 48 55 36 55 54 25 62 33 69 79 85 67 77 88 70 44 44 24 69 72 67 50 52 57 38 0 19 57 67 37 46 58 72 53 80 55 74 90 71 63 83 57 62 82 57 41 39 49 71 78 72 
61 34 67 48 51 40 22 54 28 56 19 58 66 45 64 52 57 47 46 37 68 68 50 45 80 38 46 33 75 16 14 27 44 42 16 86 36 22 22 61 48 24 18 66 39 80 26 84 22 70 68 10 45 59 76 71 54 64 59 57 47 35 49 43 88 64 31 64 93 107 53 61 49 30 50 74 47 61 53 41 54 52 51 73 52 80 55 35 64 79 51 68 57 64 63 26 43 18 30 53 105 67 20 30 117 53 68 20 45 50 
49 22 45 22 87 33 42 30 52 50 67 83 67 63 78 54 34 81 55 64 44 73 20 63 35 26 79 28 75 39 43 29 45 50 41 71 43 46 62 60 89 40 56 49 72 93 55 17 53 47 42 66 58 17 57 74 36 44 15 13 87 42 61 33 64 62 54 34 79 63 80 49 90 65 70 66 102 68 49 36 52 23 70 69 90 17 40 19 57 81 38 73 38 75 31 42 68 54 56 79 44 38 72 41 30 45 75 53 36 44 
40 47 62 55 73 80 70 48 78 42 38 41 49 30 73 37 27 31 29 66 54 82 65 36 12 44 22 70 85 23 27 50 74 31 74 63 29 50 77 40 44 42 50 58 47 52 17 61 72 21 46 53 65 39 80 55 58 52 35 14 63 38 74 54 59 56 22 56 60 57 57 30 32 56 76 52 11 53 60 59 56 32 63 56 51 78 19 10 18 39 41 36 39 48 67 38 34 63 52 13 76 26 27 35 12 49 49 24 26 40 
47 48 31 30 38 35 54 20 35 40 56 41 74 36 68 69 42 57 35 21 35 31 42 68 72 45 69 22 49 35 47 71 13 32 36 71 3 33 46 47 44 64 16 43 76 55 50 24 72 22 96 89 22 78 43 59 66 47 32 15 58 30 19 68 32 12 53 48 52 24 0 52 41 63 19 29 58 16 53 73 45 30 47 57 65 49 36 21 64 95 46 63 47 58 44 69 71 46 48 57 74 53 64 46 40 19 37 53 58 64 
55 32 24 32 12 36 58 40 30 53 75 66 45 73 68 87 61 76 19 23 38 39 25 12 55 48 49 46 67 42 35 29 37 55 40 36 16 42 59 70 64 62 57 30 21 46 38 55 63 17 20 29 36 95 29 34 28 11 21 21 0 9 42 32 45 33 32 52 32 63 69 55 22 14 48 44 34 72 56 50 29 55 10 69 40 25 36 21 50 65 29 50 34 61 51 36 66 17 16 58 45 42 47 10 53 62 44 5 45 25 
26 22 45 49 47 50 86 57 80 88 40 17 73 0 58 60 47 64 50 53 38 40 48 73 61 68 7 12 21 43 58 53 29 56 31 38 50 63 56 37 99 13 30 68 33 36 59 28 27 51 83 35 66 43 40 10 33 45 61 0 27 37 38 68 37 53 25 7 54 88 22 40 54 24 48 76 26 45 46 29 59 34 79 19 47 47 70 58 63 54 52 25 5 50 51 58 68 27 31 6 83 25 36 34 79 42 57 58 29 42 
51 36 35 19 52 30 76 40 24 54 0 55 28 15 30 67 48 40 39 15 13 29 36 13 77 35 58 26 68 38 37 34 84 33 73 53 51 26 58 53 47 57 54 33 52 60 13 61 61 37 0 47 36 41 14 35 57 61 28 74 61 21 46 47 28 58 34 40 0 41 50 74 41 27 26 55 47 41 49 38 83 0 12 37 16 52 41 20 60 27 46 38 56 32 39 0 17 53 15 5 3 35 14 80 41 63 85 44 60 48 
37 19 66 27 28 25 34 39 79 52 25 31 22 39 68 39 29 4 18 68 25 26 16 8 20 19 42 48 11 19 37 28 54 19 57 37 0 16 39 27 71 25 37 24 19 33 29 24 34 29 46 23 69 43 18 39 32 68 0 23 12 78 18 17 45 57 44 0 8 72 62 22 11 55 59 46 36 28 43 36 12 28 41 37 26 22 16 45 0 16 39 41 64 14 28 75 0 58 25 57 80 2 10 48 48 47 43 12 45 39 
22 44 4 48 44 39 41 29 51 8 43 40 17 50 41 30 22 40 20 44 20 34 33 51 42 37 54 65 68 0 40 28 27 18 67 68 55 32 43 11 31 39 31 35 35 42 52 28 51 25 39 18 53 61 21 41 68 28 32 43 34 50 88 44 24 45 0 54 34 53 18 60 68 40 27 68 44 40 27 37 52 20 31 33 25 38 12 18 43 47 61 38 13 35 38 49 49 70 16 44 29 44 79 45 40 48 19 9 54 60 
