P2

10 10
255
253 234 255 234 255 255 255 245 255 255 
255 237 250 245 228 224 217 255 212 177 
190 195 165 206 188 205 202 192 204 222 
187 166 208 196 174 193 204 180 175 203 
129 153 146 156 188 155 147 149 143 124 
111 145 152 104 111 161 133 127 158 91 
116 105 115 82 127 116 77 103 123 101 
72 60 78 58 94 79 81 79 80 102 
52 81 77 64 57 56 57 18 74 51 
48 49 16 30 70 28 45 0 56 25 
