P2

100 100
255
253 234 255 234 255 255 255 245 255 255 255 255 255 255 253 249 242 255 237 202 240 245 215 255 238 255 252 242 254 255 255 241 255 255 249 255 255 255 250 255 229 253 246 255 255 255 247 249 243 224 236 255 255 229 236 255 255 252 255 216 255 255 255 232 255 255 227 253 255 251 247 235 253 233 255 254 255 254 255 255 252 255 255 255 255 255 255 218 255 251 255 255 241 255 255 253 255 198 255 250 
244 245 242 255 255 255 229 255 255 251 235 234 239 255 246 255 246 247 245 248 255 255 255 255 220 255 254 233 255 255 255 251 216 255 255 255 214 233 211 233 250 248 255 255 255 244 232 255 255 211 250 255 255 246 255 255 255 255 253 249 224 255 255 255 237 225 241 247 244 237 255 204 255 248 217 255 253 244 255 255 250 249 235 255 244 222 255 255 255 242 255 225 248 228 255 255 238 255 255 255 
249 251 255 228 225 239 245 245 255 253 249 251 249 252 237 251 237 255 246 235 255 215 255 255 248 255 220 246 218 239 253 222 255 255 236 207 231 255 219 255 255 251 255 222 221 253 255 241 237 223 248 220 252 243 255 211 255 250 255 254 255 255 237 246 255 255 241 230 244 242 244 252 249 252 249 255 255 255 227 252 255 255 255 255 255 255 253 193 251 241 255 255 250 255 249 255 231 255 255 216 
255 221 255 245 255 252 255 236 255 235 255 213 255 249 245 245 225 212 239 252 214 252 255 255 251 255 246 253 242 252 255 233 255 255 249 255 255 230 249 233 228 255 248 175 246 234 255 223 213 255 228 255 241 255 255 243 238 255 232 241 225 255 255 252 215 251 255 255 225 247 255 255 230 226 231 255 236 246 211 255 231 222 230 255 255 254 251 222 255 255 255 255 210 255 215 241 255 209 220 255 
255 239 255 255 237 255 238 250 231 236 251 255 255 255 220 241 229 231 255 247 255 234 248 255 247 226 227 247 226 255 255 255 242 232 255 255 241 241 255 253 255 227 234 255 234 255 240 255 245 252 235 255 255 244 217 255 255 235 224 255 255 242 255 240 255 210 253 254 209 231 250 252 255 255 232 240 242 255 255 226 240 237 236 249 255 218 242 217 247 255 253 255 255 255 227 250 249 225 242 255 
255 240 255 236 198 230 255 189 229 255 233 214 255 255 205 244 239 225 223 234 217 249 255 251 237 252 255 255 255 254 255 229 255 203 255 255 243 239 240 221 230 255 242 229 255 208 231 246 247 226 255 248 236 230 233 247 245 246 218 239 255 255 227 255 255 225 189 255 243 228 255 251 247 226 247 255 255 245 255 251 237 223 240 254 254 255 228 246 232 255 255 255 242 222 239 222 222 218 255 218 
210 242 227 227 255 246 255 245 255 229 255 255 240 250 254 230 242 237 250 218 255 248 255 250 243 247 255 255 233 227 240 255 245 255 226 228 232 204 255 253 255 248 233 255 255 255 224 222 242 250 251 255 214 212 255 253 211 252 251 235 253 221 240 230 213 243 255 238 249 243 222 247 227 243 235 221 233 230 230 255 255 255 222 208 245 255 255 235 233 255 247 232 234 235 249 238 239 237 255 244 
244 241 251 255 215 255 227 190 230 255 190 223 255 232 255 255 216 255 228 225 238 255 239 245 236 255 255 241 255 231 255 227 224 255 251 230 255 233 251 234 231 255 207 218 251 232 240 250 229 255 243 241 219 255 224 249 227 244 254 225 251 233 227 224 248 255 255 235 224 238 211 234 255 255 200 234 232 255 255 248 243 215 223 255 254 231 197 238 231 224 255 247 248 214 232 225 234 239 225 250 
255 251 215 237 255 255 240 255 255 225 222 255 216 233 255 230 226 238 216 250 219 255 242 235 255 244 255 247 255 255 216 231 255 218 213 239 242 208 255 216 255 246 229 234 251 251 239 238 217 216 250 254 232 224 255 244 255 230 229 242 205 255 226 230 232 242 228 226 228 218 250 243 251 255 228 225 239 231 234 245 251 229 213 242 233 250 255 219 201 255 220 216 249 242 227 255 231 236 240 211 
255 254 228 229 234 250 248 226 242 255 253 255 211 237 231 204 255 245 222 255 239 234 218 231 249 255 234 225 244 219 212 255 219 237 233 216 246 206 230 230 221 241 249 233 244 255 238 255 215 255 242 210 217 254 219 223 199 238 247 255 226 228 227 241 231 228 230 255 249 218 224 226 218 227 247 240 231 255 230 220 255 221 246 244 255 219 228 255 222 254 239 221 222 229 255 253 240 229 237 229 
208 227 228 243 233 255 203 216 235 252 161 255 244 230 198 241 242 233 253 255 189 241 224 236 238 218 255 244 214 243 251 255 238 237 232 224 224 220 219 255 253 246 202 252 223 248 219 222 255 255 207 229 233 243 229 226 243 219 216 252 205 255 216 228 255 236 230 250 249 237 242 216 240 254 191 244 199 243 210 241 240 255 255 234 218 255 248 224 221 223 191 244 228 201 250 235 202 228 242 200 
212 239 203 255 255 227 224 235 221 224 233 218 217 241 230 238 218 219 210 246 241 248 216 221 237 249 238 249 234 255 229 233 236 209 211 251 204 225 216 230 207 186 255 246 255 195 255 208 202 231 241 233 255 217 244 221 226 227 232 255 218 239 228 255 239 211 239 255 232 205 219 255 235 248 255 208 211 239 220 255 254 224 211 209 208 255 255 255 255 211 212 249 242 253 216 255 234 242 233 225 
231 194 223 255 231 228 255 218 188 255 194 231 224 248 243 239 236 201 231 246 255 218 220 255 255 239 250 244 238 239 238 168 224 231 244 229 231 255 232 255 227 218 209 223 255 201 227 204 255 218 236 219 220 221 220 245 199 240 219 230 235 245 231 233 255 245 229 198 231 208 255 241 245 248 255 224 255 245 213 249 222 255 209 250 246 207 231 224 227 212 190 227 229 220 206 255 214 228 255 213 
225 215 206 239 231 217 230 230 221 236 216 209 236 230 234 237 221 201 227 211 242 243 214 231 239 198 242 233 230 255 230 240 226 245 255 223 239 254 255 239 240 255 220 240 224 241 221 190 234 224 242 222 216 243 244 231 250 237 255 235 255 238 227 216 206 255 255 232 228 241 229 229 235 221 201 225 255 226 198 207 240 219 195 219 233 184 248 220 184 242 237 196 242 218 224 253 213 243 249 233 
217 255 232 202 200 179 191 211 240 224 234 255 222 233 220 236 228 243 244 214 208 213 255 243 255 197 222 255 193 238 228 214 230 251 238 221 234 250 227 247 245 212 218 206 207 232 201 217 232 232 222 239 228 223 242 219 226 210 227 235 209 255 235 217 196 231 227 212 226 216 235 204 255 232 255 233 239 223 230 227 212 247 220 236 235 208 255 220 223 193 255 255 233 214 239 235 210 245 187 225 
246 187 218 250 241 201 225 210 218 244 255 194 231 217 232 202 231 237 228 220 223 235 193 188 224 213 230 218 227 254 244 255 255 222 222 223 198 201 195 222 247 210 229 255 233 194 239 199 200 224 236 242 204 229 235 223 205 199 238 246 209 241 238 225 216 227 236 242 179 220 238 217 235 210 234 220 220 209 235 239 237 228 215 220 191 237 221 205 221 202 209 215 207 226 208 235 239 241 196 199 
198 213 204 207 208 223 237 224 240 212 191 249 237 207 233 239 227 239 223 216 237 223 235 217 200 249 199 226 210 247 231 202 223 234 229 229 213 220 255 177 189 237 192 207 255 210 230 244 185 250 221 234 211 235 222 189 223 227 224 255 237 212 199 214 255 205 204 231 253 225 222 221 210 214 214 255 238 219 223 225 215 196 231 217 215 230 236 223 190 197 218 174 199 230 234 236 191 197 236 226 
224 217 203 226 184 235 207 207 232 242 207 234 251 221 238 219 249 218 237 237 220 255 165 231 210 216 244 229 233 200 205 216 225 212 208 217 213 218 201 235 255 188 190 244 195 212 211 226 215 254 218 235 255 247 255 226 188 255 239 202 237 202 232 240 212 224 193 174 199 191 225 243 237 177 218 211 214 236 247 212 178 199 199 202 217 211 246 228 223 243 233 226 195 220 230 234 236 233 200 224 
189 229 209 225 198 233 250 214 232 201 214 218 233 235 220 191 200 222 212 233 230 197 235 208 209 246 204 225 245 218 219 229 254 231 216 200 230 216 227 203 201 241 235 255 218 241 216 238 219 207 206 234 206 197 255 255 206 229 242 227 226 231 222 254 240 219 221 255 229 216 225 224 253 234 254 231 213 219 212 212 189 209 232 219 244 225 200 221 253 218 255 243 210 194 225 227 226 255 206 247 
238 219 194 222 245 232 229 200 203 234 234 186 221 206 230 224 228 216 199 204 223 213 190 251 220 212 207 218 228 177 220 224 221 216 246 243 206 205 224 207 203 202 191 229 230 166 238 229 222 237 186 199 193 217 217 228 224 204 208 213 234 218 234 190 199 254 223 213 206 243 230 197 236 235 243 245 205 178 189 183 203 239 216 233 215 224 234 207 177 192 214 151 211 226 194 208 231 197 219 246 
225 201 237 224 200 226 215 185 226 216 199 215 219 212 223 226 198 206 226 205 207 225 227 225 186 232 218 211 200 255 226 240 206 217 242 225 206 209 208 164 221 237 198 201 222 239 215 238 211 228 222 216 212 207 202 201 243 203 232 189 196 212 203 221 234 211 213 227 228 213 212 198 226 202 205 218 222 225 240 235 217 221 219 207 208 235 198 222 220 201 236 231 231 212 219 231 229 213 193 213 
225 218 224 231 221 198 224 229 197 214 229 163 203 230 227 198 233 179 220 197 178 179 197 215 222 213 242 189 215 173 193 245 233 180 194 202 226 187 205 209 220 214 255 183 198 230 216 243 255 213 206 216 216 182 203 216 199 201 234 212 227 221 155 186 199 228 224 208 217 218 183 193 215 218 206 205 255 203 178 228 205 216 209 234 224 227 209 218 251 247 196 227 215 209 213 235 209 215 228 231 
193 232 153 196 214 205 220 210 246 217 194 217 182 232 241 252 170 199 215 215 209 254 234 234 196 201 196 211 218 197 189 232 223 208 219 255 208 204 237 233 216 215 205 186 189 233 218 227 187 192 225 239 226 202 218 235 255 191 217 197 219 230 184 224 190 202 236 174 197 197 212 222 211 188 221 228 161 217 232 221 199 209 179 210 178 231 211 177 181 172 222 224 193 166 209 223 226 255 204 211 
216 235 210 184 218 190 234 196 209 197 183 216 204 211 194 184 210 199 184 194 170 192 206 206 184 211 208 196 193 164 204 209 200 246 215 218 227 206 239 149 189 211 206 242 179 230 211 168 184 180 219 193 221 200 211 189 242 195 200 226 233 185 196 158 176 211 180 232 193 213 222 199 185 195 216 214 246 209 224 209 207 222 213 255 221 198 201 226 180 230 229 193 209 232 241 224 243 211 220 209 
219 199 211 189 209 198 196 245 202 226 226 207 217 195 222 218 167 204 189 207 233 216 202 196 193 199 215 152 212 186 207 213 178 202 182 212 228 202 171 215 223 207 201 187 214 211 215 184 251 206 189 211 221 209 222 203 195 207 191 198 221 227 206 201 224 201 208 235 180 201 164 158 196 186 237 170 222 199 207 218 172 214 222 180 185 217 251 205 182 237 203 217 191 221 199 223 204 218 206 229 
171 190 180 219 196 189 202 231 201 233 201 230 206 214 203 215 203 227 204 232 226 215 177 180 222 209 209 178 211 197 204 202 200 207 187 239 193 189 201 204 224 190 193 193 224 255 216 227 195 220 232 228 218 186 210 233 178 216 213 225 214 197 181 219 236 188 227 204 205 193 200 188 227 172 215 217 205 233 165 200 221 213 221 206 171 209 204 231 164 213 215 197 219 193 205 189 208 222 190 234 
203 162 228 199 228 206 204 200 179 159 188 186 154 233 210 223 200 211 182 201 212 210 175 190 219 204 157 202 179 197 185 224 199 233 211 240 212 196 179 207 179 201 212 236 181 235 221 230 224 210 178 215 198 148 173 240 196 172 223 208 204 161 191 218 172 201 203 212 212 226 205 206 203 201 193 196 212 184 197 221 218 189 212 188 187 213 168 203 195 187 201 225 216 228 190 219 207 227 194 220 
180 137 169 191 192 211 210 226 205 188 195 221 195 206 203 197 215 181 188 196 180 186 202 190 195 184 220 166 207 218 210 204 177 166 195 179 167 207 226 219 193 175 214 203 188 199 169 201 204 195 205 239 214 181 225 210 181 189 188 185 186 220 212 182 216 204 242 226 209 201 221 196 231 201 194 172 181 199 210 195 197 238 208 217 182 223 215 225 172 177 194 184 206 220 201 211 191 191 187 200 
225 219 166 195 188 203 185 179 214 164 223 199 184 181 207 213 208 173 207 197 193 190 223 202 163 200 190 208 172 202 175 157 177 203 225 205 182 212 144 193 216 149 175 206 241 228 249 220 185 156 199 217 195 205 185 207 229 174 214 199 225 178 207 201 217 210 191 191 178 203 209 197 202 182 186 209 202 243 189 208 186 215 217 215 184 205 200 199 214 207 190 187 204 229 183 201 209 198 218 188 
197 197 167 189 216 168 198 189 221 182 197 172 210 201 215 224 192 206 173 193 192 184 197 202 177 169 237 196 187 191 172 218 196 195 191 197 209 217 197 220 210 217 176 180 176 201 176 187 172 223 177 209 197 200 197 222 189 212 166 180 186 218 176 167 173 201 178 234 164 149 173 198 213 223 219 203 182 195 217 178 178 254 202 191 198 214 226 189 205 220 193 189 234 178 200 208 189 201 204 190 
195 225 213 204 207 222 159 195 188 206 203 202 176 203 211 210 186 187 207 189 150 200 177 186 197 208 208 202 218 163 203 146 183 199 198 159 194 181 188 187 185 195 193 186 213 197 197 201 195 203 226 173 180 185 196 205 207 180 240 184 221 165 215 174 195 189 172 203 154 225 196 165 180 187 188 172 195 216 168 239 185 221 181 182 171 195 218 151 224 223 203 224 152 205 208 153 129 189 194 196 
176 205 193 186 208 200 202 164 195 239 210 189 205 208 180 176 183 202 174 203 175 198 209 156 170 225 171 190 195 181 193 187 198 184 222 182 200 193 207 185 196 207 163 192 182 199 203 231 217 210 220 202 175 199 210 186 171 170 228 213 199 207 194 178 178 196 173 198 199 231 185 170 152 160 233 203 193 197 213 186 193 223 222 204 188 183 185 184 187 158 209 193 204 165 197 189 205 191 175 225 
202 193 198 144 171 159 200 180 202 168 194 184 200 168 155 194 188 195 161 153 195 165 189 221 207 205 201 185 198 142 187 172 178 232 148 217 196 180 200 225 200 183 226 207 196 208 220 207 166 231 172 214 159 179 197 148 207 202 157 216 200 178 148 197 167 191 188 190 162 202 178 169 191 196 202 210 222 213 160 184 134 181 197 187 188 180 244 197 185 194 185 202 179 171 164 166 178 194 164 164 
191 169 177 182 174 189 157 214 213 178 191 196 175 171 174 162 206 197 203 191 147 172 177 221 194 177 171 209 198 168 178 202 193 179 207 208 200 217 175 204 165 180 188 184 217 193 195 179 189 187 172 189 173 189 168 242 204 191 164 171 203 195 192 192 189 199 194 209 205 175 148 179 143 154 207 210 162 202 190 179 195 200 208 170 190 213 214 221 171 189 216 205 180 169 218 187 191 226 189 196 
174 190 190 210 203 216 168 169 207 185 193 207 196 144 177 162 187 196 223 170 215 175 198 172 190 223 194 174 187 187 220 205 183 207 246 222 187 186 178 189 177 175 208 194 188 199 210 182 181 202 198 210 173 181 190 187 199 219 184 209 170 200 189 142 181 191 184 191 227 206 172 196 156 198 186 207 198 215 189 161 178 182 159 174 186 182 222 155 196 181 187 180 174 179 164 170 136 193 211 192 
206 203 221 177 170 176 185 200 180 206 187 180 207 199 164 208 187 151 181 175 186 221 116 163 205 201 167 209 169 214 160 182 165 176 200 191 156 203 165 194 157 190 193 210 208 190 212 175 175 205 194 190 185 190 185 195 165 221 180 174 171 206 175 229 210 184 224 192 225 215 229 227 210 203 183 201 154 170 200 201 209 191 173 185 187 213 195 218 183 186 179 189 216 190 185 195 216 214 185 188 
157 213 184 161 167 212 187 176 215 158 167 228 161 184 163 145 201 182 175 183 179 138 170 165 189 192 193 174 183 192 186 168 208 171 211 163 176 173 168 202 176 197 203 139 201 210 230 172 135 198 183 186 179 215 157 188 228 196 164 181 161 171 183 201 177 175 195 190 186 231 167 174 171 199 220 150 188 183 190 226 146 199 191 198 187 173 235 203 199 159 156 168 168 182 166 195 166 220 168 143 
194 171 165 218 222 186 199 186 173 188 174 159 183 139 184 188 151 189 203 192 155 233 200 167 220 186 197 173 186 158 166 173 168 175 228 220 203 155 169 221 137 204 198 199 160 196 127 181 193 161 185 219 184 214 182 146 172 143 191 165 190 140 187 171 169 155 117 168 179 172 207 162 176 165 184 160 176 183 138 170 159 176 170 198 201 196 189 185 164 189 201 196 163 181 192 201 169 182 187 182 
195 193 179 187 161 199 188 188 172 143 174 167 187 204 183 193 208 170 180 186 164 180 177 189 208 163 179 202 181 184 167 147 166 186 187 218 167 187 147 167 172 154 161 179 180 187 176 193 188 164 203 178 139 178 149 171 175 170 162 201 164 161 174 172 183 170 173 211 201 179 150 184 183 165 146 166 158 162 131 160 210 181 193 210 149 163 179 179 189 182 182 153 185 201 184 217 173 174 178 150 
191 210 164 184 210 154 163 171 177 153 145 197 157 181 187 152 181 180 170 166 140 193 166 123 154 165 155 173 183 151 167 165 169 172 148 156 194 207 208 173 224 183 160 188 159 198 166 197 187 163 172 171 168 167 156 180 187 163 156 195 157 183 189 152 156 199 151 179 163 147 172 179 192 153 205 172 163 183 207 131 190 205 167 181 172 197 172 177 195 159 166 154 202 178 198 173 169 152 178 178 
166 179 140 125 180 159 239 177 176 148 177 198 147 165 158 112 138 176 184 191 184 216 204 179 181 158 193 189 158 180 175 179 173 200 222 180 182 185 159 179 180 152 191 145 170 168 199 192 184 185 150 166 194 185 203 173 163 139 192 173 188 194 193 197 190 137 195 154 147 171 181 177 208 170 158 210 158 165 190 136 200 196 154 187 168 152 187 167 152 187 155 175 176 168 167 192 171 172 184 150 
160 172 175 168 167 184 156 180 162 200 143 180 148 171 194 162 168 169 194 202 183 141 144 164 180 173 192 140 143 187 146 195 164 188 182 154 179 188 167 202 195 173 179 173 188 191 161 143 195 181 145 178 162 163 192 164 203 203 205 178 164 166 156 206 183 196 149 169 169 156 149 171 136 186 162 154 164 192 220 169 186 170 180 142 177 173 189 151 160 172 158 145 155 154 181 171 171 152 173 127 
151 165 204 159 163 189 159 176 141 196 177 179 205 176 193 153 164 165 147 179 171 179 157 141 200 152 155 185 235 171 178 149 153 171 162 151 183 171 167 165 176 193 185 170 170 123 172 162 202 181 174 140 156 196 171 170 149 168 144 137 135 193 174 151 137 155 165 173 182 210 175 160 169 206 180 160 197 155 174 154 208 197 175 190 173 170 150 193 139 192 171 163 190 176 158 165 158 191 144 149 
153 195 144 143 178 176 135 164 169 150 146 190 215 177 197 197 177 168 152 114 134 169 191 158 206 162 183 147 168 191 160 150 165 174 161 148 165 147 184 138 168 172 153 169 179 152 166 171 174 160 160 181 166 173 146 146 158 141 159 162 189 143 180 164 153 189 185 176 157 152 168 168 221 135 155 188 174 176 162 171 183 186 175 202 200 204 168 158 154 168 147 148 153 153 188 179 139 160 150 162 
174 184 166 161 194 176 185 165 163 179 194 177 161 171 146 178 161 151 198 160 179 163 196 169 163 139 201 184 208 165 187 144 175 158 187 140 104 166 149 177 165 183 155 142 106 155 142 177 148 160 131 169 134 148 152 170 192 137 185 160 195 172 169 183 206 180 188 159 155 187 133 151 188 171 153 167 179 161 236 167 202 158 180 163 186 144 173 138 160 161 155 147 166 152 172 169 184 181 176 166 
152 141 176 133 138 193 175 183 182 185 169 163 164 197 160 146 178 190 179 155 143 200 183 164 190 168 159 148 175 173 137 176 192 211 195 155 138 166 201 144 161 157 164 155 144 171 182 160 180 154 172 151 146 152 160 174 191 191 178 179 205 159 159 168 174 154 187 145 164 173 166 166 173 155 157 130 143 166 175 140 183 135 149 166 198 153 175 146 172 179 143 156 177 130 158 164 178 170 145 195 
157 160 183 174 190 182 187 177 164 204 132 171 138 173 176 163 180 156 192 175 197 133 159 180 157 163 163 136 127 160 177 179 155 142 167 153 197 199 162 146 163 146 178 191 168 157 192 164 175 136 161 167 160 163 163 149 149 171 133 167 186 191 182 149 151 139 178 164 155 146 133 162 147 152 174 141 156 160 176 178 133 124 150 161 118 156 167 155 136 168 137 152 175 154 179 195 137 121 134 193 
150 189 189 131 169 187 139 175 152 143 166 157 162 181 163 156 171 188 161 162 162 182 189 129 195 127 161 145 138 163 166 149 156 161 161 172 153 160 180 151 147 169 180 138 161 176 150 143 181 159 154 155 166 186 142 169 185 143 167 157 168 172 159 174 164 159 172 164 117 143 168 161 152 141 189 137 145 171 169 152 154 163 162 158 119 147 167 144 196 179 140 164 132 127 186 145 160 151 146 164 
165 145 170 169 164 169 157 134 179 173 134 140 158 136 155 157 141 120 202 155 131 179 140 129 212 182 179 174 164 155 159 177 170 165 136 125 165 156 149 139 181 163 151 135 161 140 148 163 168 177 174 111 110 197 162 157 175 155 194 183 170 144 166 154 175 166 145 135 136 138 177 157 172 187 161 132 190 172 139 165 146 184 167 171 153 145 120 139 168 162 123 142 168 129 146 167 163 145 166 169 
180 144 181 180 147 133 143 157 160 152 157 136 154 152 136 162 149 182 120 143 168 169 166 125 180 187 162 125 157 176 193 162 147 155 141 158 173 147 137 150 163 166 144 177 131 162 154 150 128 147 161 178 196 203 110 148 147 145 191 157 171 154 142 157 164 150 188 128 123 162 179 156 149 138 157 163 136 180 121 137 152 171 157 157 132 159 158 170 168 135 189 160 170 148 179 172 145 130 165 138 
173 155 112 166 184 144 128 153 109 173 154 172 152 168 156 161 161 146 169 186 141 144 164 144 149 143 172 169 159 162 105 133 196 184 140 155 131 164 144 149 151 162 177 125 129 209 201 154 143 144 179 137 136 158 160 173 159 135 166 180 177 164 132 99 181 146 193 180 155 155 181 155 163 168 163 197 161 155 146 156 148 134 169 164 152 155 134 129 142 196 141 175 146 196 144 174 144 166 175 173 
126 136 188 156 171 154 141 163 156 170 152 161 102 139 167 154 151 149 128 130 172 153 120 158 132 168 148 147 144 131 151 118 153 169 144 148 152 151 166 161 163 177 161 163 171 171 168 142 168 139 128 123 151 176 144 144 147 164 154 117 172 170 134 160 183 149 120 171 146 121 139 139 137 156 154 133 164 147 140 147 165 148 157 170 139 146 136 188 180 133 150 139 158 138 123 150 112 126 147 132 
119 181 143 138 122 177 133 142 153 153 167 142 159 160 151 145 121 159 179 157 144 142 164 160 162 146 150 164 157 171 153 168 165 157 161 160 145 173 143 158 169 134 151 151 147 133 141 143 142 181 154 167 161 174 165 165 125 176 153 172 133 135 170 146 167 161 164 151 142 137 139 157 148 180 141 173 151 146 145 133 151 146 170 178 146 133 143 133 154 162 133 93 150 140 163 164 139 163 134 148 
130 163 160 167 124 153 128 142 143 157 153 136 182 112 159 153 196 124 154 126 118 98 149 153 132 171 187 131 131 140 163 139 123 163 132 143 175 147 146 167 141 140 156 134 159 175 164 163 180 155 144 135 101 154 130 144 119 147 181 145 151 149 153 129 149 154 166 140 159 173 123 144 143 124 179 141 140 162 162 180 127 145 127 144 177 154 151 106 145 150 133 134 104 146 142 104 138 147 158 174 
150 128 117 180 129 126 128 147 172 157 178 186 178 162 172 158 122 137 155 147 133 131 136 175 133 175 153 113 147 154 180 133 140 125 167 147 151 121 138 163 175 141 120 128 107 117 152 161 149 134 128 135 144 201 157 137 184 159 131 141 117 174 141 147 151 152 120 147 131 134 139 159 139 161 169 153 147 145 142 149 162 167 107 148 150 136 144 125 147 114 117 158 169 122 156 135 118 139 124 138 
182 205 138 142 153 133 147 171 135 129 144 156 154 137 162 145 129 133 164 114 144 146 145 114 162 149 166 130 154 145 130 136 157 150 125 159 147 151 118 139 177 128 158 167 121 154 152 164 115 156 144 197 147 161 104 125 159 141 153 142 145 160 108 177 115 145 140 124 172 113 151 117 139 158 158 150 117 136 131 147 151 112 136 157 150 174 158 155 145 155 140 145 138 147 156 178 139 141 129 169 
132 120 131 141 137 126 120 121 119 159 122 155 143 146 138 114 150 111 147 145 142 147 143 138 141 175 122 155 143 157 185 151 174 166 119 131 142 143 151 150 126 135 112 142 116 143 95 135 162 91 152 160 157 129 170 152 126 118 132 109 168 154 186 136 144 146 139 138 147 118 155 149 121 114 157 141 147 158 156 131 106 132 146 145 163 183 189 137 146 168 139 135 134 128 124 151 132 140 134 147 
151 120 136 138 162 144 151 98 168 120 132 158 149 148 152 157 175 100 172 86 166 165 119 153 141 151 148 130 140 128 111 113 114 116 148 161 145 140 122 146 145 114 154 137 128 141 126 146 146 115 162 170 127 148 131 166 144 164 135 148 157 166 130 126 133 139 122 162 163 145 153 113 145 140 134 156 146 147 143 112 143 148 155 184 139 134 155 126 114 131 143 157 128 154 180 137 111 135 106 124 
148 145 122 118 138 142 179 143 141 154 141 134 137 91 137 155 154 160 137 147 128 124 127 179 141 125 152 143 173 147 136 175 131 129 107 164 116 139 134 145 135 105 125 114 146 153 127 142 106 136 120 151 178 172 105 69 158 123 152 123 160 108 126 134 122 134 105 146 130 137 158 138 146 144 96 160 103 139 125 114 144 113 128 120 153 166 105 125 100 197 130 107 130 153 141 122 136 161 120 155 
127 166 109 132 120 111 182 182 132 146 156 104 128 169 111 158 150 146 180 103 152 103 116 161 137 124 167 94 121 134 141 105 142 137 179 102 102 119 122 157 144 140 150 163 135 154 174 120 106 158 118 125 141 133 136 165 146 129 171 129 147 126 140 118 146 129 128 157 138 162 148 137 146 131 191 114 137 134 135 129 120 98 121 148 127 109 144 143 126 160 121 129 130 155 141 136 146 125 84 161 
126 136 87 117 125 143 142 160 139 103 141 120 130 91 105 120 159 115 151 162 161 141 117 135 139 122 131 89 145 122 109 143 165 150 168 116 128 135 143 157 134 132 159 146 149 122 150 141 136 104 126 111 123 131 143 134 168 138 152 132 102 137 150 115 117 163 122 161 105 129 145 159 142 135 122 140 151 127 169 169 135 130 130 117 161 142 128 101 135 111 127 139 132 115 168 141 142 101 113 142 
118 106 125 112 142 102 77 134 123 132 114 105 143 124 144 123 124 110 135 131 156 146 112 141 106 123 170 126 140 133 109 126 136 117 140 116 123 154 138 143 141 162 143 110 116 155 174 154 155 102 128 120 151 133 143 145 161 172 128 121 135 137 115 119 135 134 147 155 143 167 147 157 146 111 129 141 145 128 145 92 105 125 148 130 144 108 146 144 123 108 141 125 116 156 184 118 120 107 103 97 
122 122 146 136 96 137 142 123 110 106 121 116 101 162 151 145 128 122 153 126 98 134 126 150 117 131 136 124 111 166 155 129 149 109 118 151 137 117 100 136 132 116 183 100 91 125 92 111 96 151 149 132 145 135 134 109 144 148 136 142 123 141 104 102 131 147 114 144 117 114 107 107 131 117 132 138 138 136 140 155 131 117 120 139 140 137 93 84 145 149 139 130 118 133 149 134 110 135 124 107 
124 92 134 74 132 137 149 120 118 121 143 123 126 153 121 113 141 127 111 141 136 146 137 137 125 100 97 109 129 98 123 94 115 164 134 123 107 109 125 141 138 124 167 114 109 104 106 118 173 103 137 142 161 137 162 136 140 109 89 164 135 123 100 138 106 130 138 177 137 168 144 147 157 140 126 132 134 104 74 111 136 111 99 120 150 100 138 153 131 139 114 124 130 152 180 147 130 99 127 127 
120 146 124 97 115 147 147 127 85 140 138 89 87 113 117 137 94 133 127 111 136 134 135 141 141 128 115 134 132 148 135 93 149 146 140 143 134 90 147 117 136 128 110 165 113 157 152 107 140 97 99 90 154 111 156 125 137 138 156 100 103 124 124 105 125 130 143 94 121 151 126 126 113 106 141 155 109 132 90 118 119 137 127 124 140 138 110 122 98 134 126 139 123 117 105 113 145 127 92 115 
74 126 114 109 118 101 113 114 135 157 93 128 90 142 118 125 121 117 139 100 146 107 125 159 125 119 121 94 154 90 94 93 88 103 132 121 117 127 106 148 106 124 134 111 119 119 131 86 107 133 115 132 139 138 115 132 101 147 122 112 96 83 119 144 135 113 149 122 106 169 131 121 77 73 138 136 117 156 141 122 135 153 130 165 92 108 115 128 119 59 124 149 138 111 130 140 146 118 139 141 
147 150 115 116 95 142 133 145 125 122 114 123 115 164 120 115 124 116 123 83 137 130 125 153 100 90 105 142 98 135 151 135 74 123 128 117 147 69 122 93 84 143 65 126 133 121 129 110 146 148 112 117 119 119 125 132 129 124 138 150 98 131 100 122 151 142 112 131 106 106 124 108 140 108 119 125 126 111 124 101 93 104 115 132 119 127 103 119 142 113 118 120 136 111 133 123 121 97 110 134 
109 126 150 88 83 131 109 155 134 86 115 103 139 151 123 129 124 99 122 108 118 135 148 102 114 116 106 157 156 101 107 136 104 104 122 118 119 99 148 108 122 135 133 99 143 118 127 125 113 116 121 130 112 150 85 103 119 117 89 113 123 121 121 112 126 64 97 124 134 140 132 162 99 143 144 135 135 148 97 113 126 139 102 88 115 118 100 127 120 122 98 144 111 153 104 87 131 107 121 109 
101 147 149 95 120 127 135 85 115 120 112 115 136 139 139 135 106 81 121 106 116 63 160 95 105 119 116 107 138 99 94 103 137 124 122 126 71 153 136 144 100 154 95 123 111 159 128 141 150 146 148 118 113 116 128 120 106 140 127 147 105 87 108 109 147 135 145 59 122 109 98 129 131 113 146 86 109 104 144 124 122 86 90 133 109 127 93 138 116 120 121 82 107 107 102 108 156 96 101 130 
113 116 108 117 97 105 129 123 156 124 122 122 104 137 130 129 114 150 107 132 124 120 115 115 123 143 119 117 107 98 113 136 133 95 107 150 116 102 136 99 117 117 148 120 130 111 103 122 81 107 117 116 120 132 117 95 117 141 85 86 139 64 130 116 135 116 131 173 124 91 135 113 92 130 114 148 112 157 110 120 114 139 108 117 91 153 116 104 101 96 100 83 94 116 92 122 93 140 119 124 
130 81 123 123 102 139 88 102 155 146 143 123 118 94 135 122 110 109 94 104 137 141 130 112 115 101 67 89 81 102 128 91 113 122 142 117 122 119 154 85 116 126 136 138 142 100 119 133 115 85 131 96 167 127 87 85 148 104 131 123 96 78 107 114 142 76 123 132 81 109 102 112 127 102 93 77 105 91 107 161 114 136 116 107 115 131 90 118 135 102 131 113 130 124 81 194 104 102 65 96 
115 116 128 168 113 156 86 114 77 101 144 114 122 118 129 117 144 121 104 117 102 102 131 105 132 69 128 85 107 106 113 154 97 113 133 100 87 113 79 85 120 133 155 127 110 122 86 105 137 80 138 122 101 137 77 112 94 102 135 77 148 109 71 109 141 109 94 115 115 146 112 97 101 83 117 117 121 113 102 140 116 110 117 91 80 181 81 77 169 134 126 118 133 128 105 145 99 99 118 132 
95 104 89 121 124 102 99 136 116 93 112 151 113 99 122 104 113 80 117 102 102 114 121 118 117 93 67 85 107 114 140 140 111 100 105 93 89 82 116 115 97 83 109 126 144 104 123 152 111 110 142 83 95 88 107 124 105 103 109 94 85 95 112 137 146 129 117 98 100 94 96 112 103 152 151 125 98 68 109 111 103 129 127 125 144 141 88 115 79 107 114 145 99 122 76 104 84 121 136 120 
112 119 70 111 112 90 101 113 133 102 92 107 143 135 125 138 122 66 120 109 111 110 109 113 98 132 89 135 124 106 136 129 90 62 147 114 108 110 122 122 90 144 120 115 148 102 85 138 114 121 114 82 95 82 103 98 115 96 112 89 102 115 116 131 139 119 89 116 121 133 86 94 115 130 109 57 118 104 88 140 92 82 126 90 65 95 94 86 83 104 103 115 110 118 79 119 78 88 99 86 
75 167 109 129 99 108 87 106 88 113 107 117 65 127 109 118 91 119 160 134 131 118 115 86 112 127 106 73 128 107 84 88 80 83 114 140 129 82 80 107 66 115 104 115 98 131 141 91 107 93 116 113 131 107 128 133 87 146 112 101 121 82 125 96 132 120 127 95 116 130 125 108 118 147 110 107 97 120 94 136 100 89 113 98 67 82 103 135 126 94 126 73 95 111 71 130 86 97 98 122 
125 109 86 103 94 123 105 72 128 142 109 126 106 101 64 104 107 146 129 119 69 140 84 108 122 110 135 87 110 97 91 134 111 106 113 91 161 111 144 112 128 112 64 114 115 97 90 80 105 139 100 139 90 123 80 101 79 126 106 105 135 99 155 108 132 103 115 111 96 109 105 99 97 118 72 123 66 144 106 130 115 103 91 110 118 132 89 120 111 114 107 131 103 83 60 149 133 133 111 129 
98 114 129 108 121 94 70 109 120 122 97 79 118 88 98 109 98 100 102 88 76 71 84 110 92 114 127 110 103 108 139 84 114 85 85 106 98 103 121 103 87 72 105 127 89 107 85 70 83 99 95 119 112 106 92 92 83 145 96 132 102 125 108 111 103 83 121 108 103 89 96 128 99 110 87 125 96 125 82 86 71 94 143 93 91 87 120 114 139 97 119 110 67 102 119 122 140 107 95 114 
127 121 99 110 58 116 50 95 139 103 94 89 89 109 92 110 129 102 130 107 101 116 112 118 108 81 135 106 93 102 114 78 131 85 61 94 108 118 109 99 78 112 80 73 125 118 95 101 98 88 90 72 102 123 107 130 101 120 103 87 76 114 83 130 120 94 76 85 135 89 117 117 69 99 119 75 109 75 134 76 109 107 75 93 90 130 93 114 58 123 114 108 121 112 61 108 136 78 70 85 
85 111 88 115 120 105 153 92 105 102 99 113 122 83 99 83 100 108 90 71 82 93 125 93 88 102 87 113 127 95 114 104 115 53 80 78 78 91 106 89 118 127 89 121 119 91 93 112 108 133 118 110 61 73 72 122 87 101 117 92 95 107 50 108 114 93 82 77 37 92 88 88 108 107 115 103 80 99 68 122 70 105 70 103 105 113 93 88 89 148 96 93 124 66 99 104 102 95 114 102 
94 62 76 119 104 87 60 100 100 90 83 110 56 105 86 96 134 82 97 81 89 131 66 82 109 130 92 104 86 92 91 128 96 118 88 97 112 73 106 107 114 100 125 97 66 100 72 94 97 109 122 100 106 88 126 99 101 112 94 98 120 85 96 95 49 109 97 115 116 110 152 113 98 119 114 90 96 101 100 92 129 111 66 96 95 98 101 74 72 97 85 102 105 131 116 100 103 137 113 104 
48 79 83 132 111 108 105 88 109 81 58 113 123 83 80 98 67 89 102 124 112 98 76 114 115 106 95 104 108 61 102 82 67 101 117 71 89 105 111 122 90 96 135 128 63 87 86 103 80 112 94 102 78 87 120 94 92 90 97 130 79 78 109 80 135 105 110 111 100 97 70 60 100 62 92 65 96 82 71 71 119 118 103 94 59 106 136 60 100 97 121 61 53 113 109 123 130 61 92 86 
85 119 91 74 97 90 63 73 90 88 117 104 87 99 81 75 81 82 128 96 113 82 84 98 69 73 106 54 91 91 70 94 118 108 135 61 126 88 115 94 102 86 84 78 81 98 91 63 75 99 105 96 61 99 114 99 92 59 88 58 98 97 115 95 88 64 131 93 52 42 64 103 99 76 73 125 121 75 95 75 80 69 97 97 119 75 70 75 104 69 94 78 94 67 122 122 90 119 88 103 
103 75 78 87 80 67 125 88 91 76 101 100 119 89 80 89 103 96 92 88 97 65 100 90 106 74 96 87 78 90 90 124 93 125 98 109 107 66 102 121 92 81 100 81 104 82 91 90 74 90 70 117 116 88 108 100 72 82 98 69 75 98 101 78 82 72 93 94 80 84 98 91 103 119 58 105 108 68 116 101 85 73 94 117 90 109 73 110 125 89 92 106 96 72 106 72 96 55 118 89 
100 60 104 87 74 72 85 118 112 80 102 89 99 127 89 117 81 93 105 108 101 81 123 118 101 94 111 91 79 79 96 71 83 106 127 114 91 69 97 69 62 100 75 89 97 85 89 117 102 101 106 95 103 74 72 97 133 100 53 67 65 89 80 104 61 76 105 81 50 113 71 104 98 81 68 83 129 72 89 81 75 101 104 103 67 107 83 63 58 101 94 104 89 87 92 82 96 115 54 85 
47 108 60 97 109 72 92 75 65 68 86 44 87 62 99 142 86 74 99 83 98 108 66 84 132 103 77 66 91 82 66 67 41 80 95 98 86 73 61 87 93 95 108 85 78 101 96 94 66 94 95 67 102 82 95 58 62 86 77 79 82 76 67 84 82 54 83 120 81 64 89 88 126 100 71 87 56 99 110 127 95 100 60 133 83 78 54 133 96 110 92 85 93 113 128 93 105 107 99 121 
38 70 91 75 77 84 91 85 108 100 106 79 75 118 53 60 87 67 83 64 73 62 119 92 92 92 94 84 71 55 95 44 76 60 88 67 97 69 96 85 103 91 107 95 104 97 66 54 92 108 93 71 80 100 110 112 68 107 82 73 94 98 92 58 72 93 78 103 103 92 66 105 108 95 63 92 54 105 78 76 85 97 96 66 108 82 98 89 98 72 122 91 96 85 61 86 55 119 74 84 
54 57 82 114 70 38 72 97 97 111 84 71 54 48 80 45 84 109 95 85 69 60 82 76 83 115 80 67 96 100 98 69 100 98 93 79 101 98 64 52 80 91 85 85 101 92 80 64 55 115 64 92 76 77 91 76 71 96 47 70 93 59 98 95 93 57 58 79 75 76 79 69 52 95 89 76 52 112 61 62 57 85 90 81 59 36 44 93 78 99 83 67 110 71 95 85 74 113 80 66 
40 101 81 81 69 141 57 80 83 70 86 62 110 82 27 51 55 105 53 71 92 50 62 49 71 66 83 67 93 101 88 67 63 116 62 73 111 87 91 67 84 35 100 107 51 86 77 80 80 82 86 84 75 62 72 71 96 82 96 67 76 66 106 103 67 55 78 57 39 84 83 91 78 92 43 63 51 106 81 81 102 86 48 110 69 109 62 70 82 81 79 71 96 84 101 60 84 74 93 68 
53 79 77 74 71 52 81 75 84 79 99 73 51 102 73 75 87 71 79 52 92 64 112 77 80 102 42 96 44 62 93 73 49 73 79 49 112 96 66 75 77 84 86 74 88 68 98 32 68 64 94 70 71 60 100 61 42 94 66 112 87 87 73 75 88 60 79 89 65 103 98 91 61 73 31 93 70 106 89 112 58 61 76 66 84 107 54 71 51 87 54 95 89 64 93 76 57 95 92 61 
51 82 77 82 69 72 89 77 57 81 79 96 105 60 75 67 56 53 60 87 57 75 108 53 65 71 78 69 77 83 63 78 71 89 80 63 92 74 76 94 88 99 60 92 87 97 78 73 70 97 58 60 46 73 116 77 76 56 57 62 81 77 77 55 65 66 78 76 92 77 83 68 106 80 122 84 29 101 58 71 68 77 96 79 87 75 47 96 107 76 78 87 64 92 58 89 64 85 53 61 
83 87 78 98 87 63 68 55 58 31 62 103 64 93 79 70 77 65 56 74 68 84 82 101 80 97 67 112 71 105 54 80 86 65 88 83 76 92 30 96 85 110 99 50 57 81 54 84 75 112 63 90 95 61 77 35 67 77 39 102 75 70 72 71 81 109 76 90 58 64 99 59 66 93 69 70 68 48 80 60 91 67 86 67 47 116 79 75 34 66 61 50 64 86 68 61 55 94 110 97 
110 95 60 53 62 82 73 75 94 46 120 47 67 49 57 65 86 52 82 77 107 62 65 58 78 93 54 76 74 52 88 87 83 72 108 76 64 73 75 62 78 83 80 58 52 114 113 73 42 52 54 40 122 61 63 75 86 48 72 118 98 33 81 53 78 72 70 52 93 92 71 78 85 52 91 76 65 95 66 70 65 91 73 31 67 58 76 46 76 43 80 97 68 76 72 64 70 81 63 109 
81 69 82 76 83 82 49 87 47 77 84 89 40 52 60 107 62 84 38 95 53 81 74 44 54 68 49 62 84 52 63 69 98 97 62 41 81 100 63 70 49 80 50 106 74 58 105 64 88 94 78 43 84 68 44 71 29 51 76 95 71 65 72 87 92 65 93 63 94 73 68 85 76 57 107 71 100 80 53 64 48 70 58 98 83 93 50 50 75 58 76 47 73 84 79 93 69 104 66 96 
69 83 84 51 61 87 104 52 103 112 29 32 71 34 92 71 81 83 27 59 54 30 74 66 82 101 75 86 61 51 82 67 30 40 69 82 56 59 43 85 81 69 88 105 64 79 81 59 91 51 45 32 80 56 62 64 40 102 50 42 92 79 22 72 37 87 61 100 85 66 27 88 69 72 89 84 42 116 55 16 92 57 37 45 80 91 54 28 44 60 34 71 50 41 82 49 67 86 62 13 
63 52 65 75 77 77 65 100 37 58 66 79 40 85 74 82 72 77 52 67 102 69 81 102 59 63 32 53 61 71 73 41 67 74 60 41 63 55 56 58 57 68 53 73 53 42 56 85 77 33 62 77 99 60 55 83 67 93 67 53 98 60 72 72 84 38 56 94 39 76 79 9 51 32 54 81 50 58 43 21 73 106 67 53 75 68 46 70 64 116 66 108 99 70 45 75 39 51 67 38 
50 57 65 71 87 75 81 62 69 49 109 43 43 70 65 55 64 63 53 119 83 51 79 107 48 74 90 50 41 60 29 62 64 67 86 50 34 67 66 61 58 51 84 65 58 34 82 94 101 37 83 79 58 72 47 87 31 51 58 73 50 58 41 64 75 47 88 41 69 69 88 62 59 81 28 72 83 75 45 73 26 50 108 71 71 96 48 75 69 36 37 76 65 60 85 66 60 45 65 44 
46 39 62 78 70 58 56 60 94 38 55 94 30 85 75 89 49 76 16 53 71 55 43 77 91 59 63 61 49 49 64 55 71 79 33 57 66 44 50 49 54 50 83 60 58 75 62 52 38 59 52 97 48 88 48 49 60 80 88 71 20 63 68 66 45 46 62 75 36 56 31 51 25 73 66 81 56 74 72 73 50 18 38 36 109 88 76 63 71 77 57 48 64 42 79 59 61 66 61 75 
90 41 67 77 97 62 75 73 60 64 104 52 65 47 76 51 72 42 75 73 43 77 80 74 76 97 66 71 48 59 4 41 77 33 36 45 79 50 70 71 56 39 56 45 56 51 76 64 54 66 22 41 68 83 58 49 73 95 52 30 37 72 54 46 80 110 49 53 85 77 28 52 60 81 61 40 74 60 91 66 63 71 61 50 60 80 57 36 69 81 56 79 42 79 69 64 88 22 41 62 
57 72 86 40 53 67 55 34 70 57 90 45 53 57 37 88 46 38 41 76 59 56 72 31 76 77 87 40 59 71 51 76 42 50 65 42 55 82 74 37 73 66 18 27 47 59 36 56 57 41 48 53 75 53 103 56 35 62 79 33 65 54 52 85 79 53 39 72 73 85 70 69 67 74 0 63 77 42 32 69 54 95 65 55 42 58 47 58 51 41 48 13 42 62 66 68 72 18 40 20 
46 59 77 81 38 68 44 15 73 58 93 64 51 42 51 89 22 90 48 45 52 92 49 7 50 57 112 33 50 43 57 64 65 29 76 61 46 79 27 48 46 58 58 60 80 83 38 79 63 56 43 47 89 70 78 32 55 49 83 72 31 88 96 100 69 52 58 101 63 29 72 75 64 43 34 49 45 44 62 58 30 47 49 43 47 56 52 73 63 61 81 50 79 57 65 73 69 72 38 22 
