P2

40 40
255
253 234 255 234 255 255 255 245 255 255 255 255 255 255 253 249 242 255 237 202 240 245 215 255 238 255 252 242 254 255 255 241 255 255 249 255 255 255 250 255 
223 247 240 250 255 249 241 243 237 218 230 255 255 223 230 255 252 246 255 210 255 249 255 226 255 255 221 247 255 245 241 229 247 227 255 248 250 248 249 255 
240 255 255 252 245 244 245 206 255 239 255 255 229 243 255 241 255 186 255 238 234 235 232 255 255 252 219 254 254 241 225 224 229 255 236 255 236 237 235 238 
255 247 250 255 204 254 238 217 255 251 240 235 200 248 255 253 198 217 195 217 234 232 255 255 255 228 216 243 243 195 234 255 255 230 255 253 241 245 237 233 
202 235 255 248 215 203 219 225 222 215 255 182 236 226 195 247 231 222 236 255 228 227 213 236 222 200 235 238 255 220 235 203 226 206 248 240 216 247 246 247 
223 225 237 202 199 213 219 219 233 227 223 225 223 226 211 225 211 235 220 209 241 189 240 245 222 236 194 220 192 213 227 196 233 239 210 181 205 235 193 247 
244 219 241 190 189 221 224 209 205 191 216 188 220 211 227 179 227 218 230 222 224 244 205 214 242 240 209 198 212 210 212 220 217 220 217 234 226 242 195 220 
234 255 224 252 228 249 215 155 213 203 255 233 212 244 211 251 193 232 217 178 223 185 219 209 223 216 220 200 237 199 228 177 241 213 209 209 189 176 203 216 
172 210 232 214 209 220 204 211 200 210 242 191 218 220 207 226 237 188 207 191 186 235 206 133 204 192 213 181 171 230 186 213 199 229 250 201 196 230 190 199 
177 223 215 204 167 203 209 222 177 199 222 213 182 178 183 216 188 198 163 233 183 174 182 248 221 206 203 174 216 211 225 228 162 208 167 193 209 161 172 212 
204 187 225 216 185 233 186 198 179 184 199 212 207 230 168 189 177 179 206 195 208 182 196 205 195 174 175 195 174 226 214 203 190 180 207 227 189 189 209 201 
214 169 176 207 176 199 182 218 187 194 177 201 202 186 159 214 200 177 166 219 201 184 211 182 207 152 195 196 151 173 192 194 199 215 174 182 184 221 204 168 
176 173 172 185 192 154 178 153 183 198 189 203 212 208 163 186 185 161 178 199 193 178 219 174 136 168 213 127 167 216 171 152 199 210 143 182 177 163 161 172 
149 181 225 183 169 184 229 194 194 186 200 161 201 135 206 207 175 171 172 153 162 204 174 161 190 140 163 178 179 158 200 180 168 162 165 179 177 178 150 171 
186 193 153 181 181 151 115 201 169 154 187 177 173 152 173 190 185 171 202 177 163 149 166 180 180 187 154 172 158 191 185 196 168 148 165 148 148 144 193 144 
132 164 149 149 188 168 183 167 192 151 178 190 162 172 176 152 164 159 172 140 194 170 177 172 165 169 181 186 155 149 162 180 167 183 148 150 154 126 185 175 
191 164 149 188 179 184 140 138 158 166 167 184 130 128 194 169 127 168 167 151 169 137 156 146 129 159 174 154 165 159 138 163 143 159 151 137 149 146 146 174 
170 210 132 118 155 169 178 145 143 170 157 142 144 145 159 148 149 147 175 154 156 153 163 171 127 185 139 102 142 170 102 135 194 144 191 167 128 170 140 137 
144 181 145 151 142 186 172 147 174 137 189 133 130 165 157 136 169 139 157 140 137 177 113 124 157 138 146 156 135 179 149 147 125 162 130 155 133 150 160 131 
151 133 127 124 148 162 175 135 124 138 111 134 155 183 100 134 132 155 155 148 143 115 123 156 154 131 97 138 131 124 164 147 148 114 132 125 134 139 125 150 
171 147 111 133 174 167 136 170 185 121 118 160 112 129 154 126 122 134 112 146 115 163 138 131 169 140 170 143 154 155 112 127 156 114 109 135 138 104 160 112 
153 136 119 124 141 141 129 128 107 106 140 144 122 114 147 134 153 120 119 132 95 147 116 120 122 132 118 116 118 108 140 133 141 152 118 115 129 121 124 135 
135 113 97 126 117 134 149 103 85 141 104 100 133 126 111 142 115 120 124 95 167 140 114 115 120 136 134 112 128 148 139 147 97 123 117 90 173 131 108 148 
119 114 98 111 129 150 114 105 124 99 92 143 99 117 113 96 126 86 110 110 101 121 129 113 124 143 118 144 95 148 122 90 97 134 99 103 79 118 127 135 
100 102 101 115 105 102 104 130 123 92 98 100 92 101 121 114 105 140 104 94 138 95 120 118 147 93 102 156 96 128 113 95 96 103 130 127 114 103 111 103 
78 97 98 113 103 131 73 86 105 122 31 129 114 100 68 111 112 103 123 140 59 111 94 106 108 88 127 114 84 113 121 128 108 107 102 94 94 90 89 159 
117 110 66 116 87 112 83 86 120 134 71 93 97 107 93 90 107 83 80 116 69 123 80 92 121 100 94 114 113 101 106 80 104 118 55 108 63 107 74 105 
98 123 122 92 76 117 106 82 79 81 49 102 86 59 108 93 60 86 100 58 72 99 63 122 127 87 84 95 81 84 93 78 77 101 90 98 78 79 70 106 
95 102 70 75 91 103 92 103 88 109 83 87 90 63 65 105 58 79 70 84 61 40 113 100 119 49 126 62 56 85 95 87 123 71 98 75 80 81 86 122 
66 87 76 110 87 59 87 103 80 53 67 114 83 96 141 56 59 87 68 112 102 72 59 57 56 109 105 120 117 59 60 97 90 101 64 105 82 90 81 73 
75 38 67 105 75 72 112 62 32 99 38 75 68 92 87 83 80 45 75 90 101 62 64 112 109 83 94 88 82 83 82 12 68 75 88 73 75 105 76 112 
65 56 47 61 99 39 65 42 94 56 74 57 58 59 58 83 37 78 57 68 73 83 69 71 96 83 67 36 69 46 102 79 83 86 94 62 119 83 51 87 
54 94 41 82 78 39 63 56 59 44 22 59 61 52 38 101 46 60 115 45 59 49 40 73 65 51 64 64 55 70 50 43 70 64 68 71 55 35 61 45 
70 71 42 59 67 26 70 61 58 89 58 68 54 73 90 51 67 82 94 67 68 86 48 68 52 69 49 18 62 52 70 50 44 71 72 59 78 65 85 63 
96 60 49 38 28 78 97 54 50 63 51 51 57 43 23 47 78 48 20 29 62 41 17 41 55 6 70 42 6 64 59 18 64 40 46 75 35 65 71 55 
35 82 50 20 18 0 9 29 58 42 52 78 40 51 38 54 46 61 62 32 26 31 92 61 92 15 40 75 11 56 46 32 48 69 56 39 52 68 45 65 
57 24 30 18 19 44 13 29 44 44 34 51 40 35 54 31 38 22 39 47 21 72 47 29 8 43 39 24 38 28 47 16 80 44 75 45 51 35 42 39 
18 53 26 42 41 14 67 26 29 0 66 66 39 20 45 41 16 51 0 31 54 0 26 58 49 9 33 18 26 52 66 2 39 25 40 10 39 45 36 28 
25 37 0 0 26 15 32 20 29 56 46 64 61 24 24 25 0 3 0 24 49 12 31 58 35 0 41 1 2 26 38 44 6 31 37 25 7 1 40 48 
5 37 34 21 12 23 32 38 0 16 34 13 31 6 30 16 16 5 31 35 33 24 11 16 0 33 17 1 17 0 5 11 3 22 4 31 35 37 0 0 
