P2

60 60
255
253 234 255 234 255 255 255 245 255 255 255 255 255 255 253 249 242 255 237 202 240 245 215 255 238 255 252 242 254 255 255 241 255 255 249 255 255 255 250 255 229 253 246 255 255 255 247 249 243 224 236 255 255 229 236 255 255 252 255 216 
255 251 255 228 255 255 223 249 255 247 243 231 249 229 255 250 252 250 251 255 248 255 255 255 253 252 253 214 255 247 255 255 237 251 255 249 255 194 255 246 242 243 240 255 255 255 227 255 255 249 233 232 237 255 244 255 244 245 243 246 
255 255 255 255 214 255 248 227 255 255 250 245 210 255 255 255 208 227 205 227 244 242 255 255 255 238 226 253 253 205 244 255 255 240 255 255 251 255 247 243 218 251 255 255 231 219 235 241 238 231 255 198 252 242 211 255 247 238 252 255 
240 239 225 248 234 212 247 250 255 232 247 215 238 218 255 252 228 255 255 255 241 243 255 220 217 231 237 237 251 245 241 243 241 244 229 243 229 253 238 227 255 207 255 255 240 254 212 238 210 231 245 214 251 255 228 199 223 253 211 255 
255 239 255 210 209 241 244 229 225 211 236 208 240 231 247 199 247 238 250 242 244 255 225 234 255 255 229 218 232 230 232 240 237 240 237 254 246 255 215 240 255 255 250 255 254 255 241 181 239 229 255 255 238 255 237 255 219 255 243 204 
245 207 241 231 245 238 242 222 255 221 250 199 255 235 231 231 211 198 225 238 200 238 255 242 237 248 232 239 228 238 255 219 246 248 235 254 255 216 235 219 214 255 234 161 232 220 241 209 199 255 214 241 227 255 255 229 224 255 218 227 
207 253 245 234 197 233 239 252 207 229 252 243 212 208 213 246 218 228 193 255 213 204 212 255 251 236 233 204 246 241 255 255 192 238 197 223 239 191 202 242 240 223 255 252 221 255 222 234 215 220 235 248 243 255 204 225 213 215 242 231 
240 214 228 237 227 206 207 227 206 255 246 235 222 212 239 255 221 221 241 233 252 207 214 245 214 237 220 255 225 232 215 239 240 224 197 252 238 215 204 255 239 222 249 220 245 190 233 234 189 211 230 232 237 253 212 220 222 255 242 206 
216 213 212 225 232 194 218 193 223 238 229 243 252 248 203 226 225 201 218 239 233 218 255 214 176 208 253 167 207 255 211 192 239 250 183 222 217 203 201 212 195 227 255 229 215 230 255 240 240 232 246 207 247 181 252 253 221 217 218 199 
204 246 216 203 232 182 205 220 221 200 242 222 210 204 207 221 219 220 192 213 234 241 201 229 229 199 163 249 217 202 235 225 221 200 221 238 233 219 250 225 211 197 214 228 228 235 202 220 206 239 233 244 216 196 213 196 196 192 241 192 
182 214 199 199 238 218 233 217 242 201 228 240 212 222 226 202 214 209 222 190 244 220 227 222 215 219 231 236 205 199 212 230 217 233 198 200 204 176 235 225 247 220 205 244 235 240 196 194 214 222 223 240 186 184 250 225 183 224 223 207 
221 189 208 198 181 211 226 206 217 211 190 215 195 211 203 189 201 198 198 226 228 255 190 176 213 227 236 203 201 228 215 200 202 203 217 206 207 205 233 212 214 211 221 229 185 243 197 160 200 228 160 193 252 202 249 225 186 228 198 195 
204 241 205 211 202 246 232 207 234 197 249 193 190 225 217 196 229 199 217 200 197 237 173 184 217 198 206 216 195 239 209 207 185 222 190 215 193 210 220 191 217 199 193 190 214 228 241 201 190 204 177 200 221 249 166 200 198 221 221 214 
205 177 185 218 216 193 159 200 193 186 226 209 210 176 194 187 196 201 187 212 239 215 179 201 242 235 204 238 253 189 186 228 180 197 222 194 190 202 180 214 183 231 206 199 237 208 238 211 222 223 180 195 224 182 177 203 206 172 228 180 
223 206 189 194 211 211 199 198 177 176 210 214 192 184 217 204 223 190 189 202 165 217 186 190 192 202 188 186 188 178 210 203 211 222 188 185 199 191 194 205 211 189 173 202 193 210 225 179 161 217 180 176 209 202 187 218 191 196 200 171 
239 212 186 187 192 208 206 184 200 220 211 219 169 195 189 162 245 203 180 220 197 192 176 189 207 228 192 183 202 177 170 221 177 195 191 174 204 164 188 188 179 199 207 191 202 221 196 222 173 226 200 168 175 212 177 181 157 196 205 213 
180 182 181 195 185 182 184 210 203 172 178 180 172 181 201 194 185 220 184 174 218 175 200 198 227 173 182 236 176 208 193 175 176 183 210 207 194 183 191 183 164 183 184 199 189 217 159 172 191 208 117 215 200 186 154 197 198 189 209 226 
141 193 176 188 190 170 209 196 166 195 203 210 190 189 184 176 176 172 171 241 205 198 154 204 175 200 171 174 208 222 159 181 185 195 181 178 195 171 168 204 157 211 168 180 209 188 182 202 201 189 194 168 192 206 143 196 151 195 162 193 
188 213 212 182 166 207 196 172 169 171 139 192 176 149 198 183 150 176 190 148 162 189 153 212 217 177 174 185 171 174 183 168 167 191 180 188 168 169 160 196 191 198 166 171 187 199 188 199 184 205 179 183 186 159 161 201 154 175 166 180 
153 132 205 192 211 141 218 154 148 177 187 179 215 163 190 167 172 173 178 214 164 185 174 208 185 157 185 201 178 151 165 212 181 194 239 154 157 185 166 210 200 170 157 155 154 207 203 218 215 157 158 195 188 199 162 203 180 188 179 171 
175 138 167 205 175 172 212 162 132 199 138 175 168 192 187 183 180 145 175 190 201 162 164 212 209 183 194 188 182 183 182 112 168 175 188 173 175 205 176 212 171 162 153 167 205 145 171 148 200 162 180 163 164 165 164 189 143 184 163 174 
175 185 171 173 198 185 169 138 171 148 204 181 185 188 196 164 221 185 153 189 162 202 149 190 186 147 171 164 167 152 130 167 169 160 146 209 154 168 223 153 167 157 148 181 173 159 172 172 163 178 158 151 178 172 176 179 163 143 169 153 
180 181 152 169 177 136 180 171 168 199 168 178 164 183 200 161 177 192 204 177 178 196 158 178 162 179 159 128 172 162 180 160 154 181 182 169 188 175 195 173 212 176 165 154 144 194 213 170 166 179 167 167 173 159 139 163 194 164 136 145 
174 153 129 153 167 118 182 154 118 176 171 130 176 152 158 187 147 177 183 167 153 200 168 138 136 115 127 147 176 160 170 196 158 169 156 172 164 179 180 150 144 149 210 179 210 133 158 193 129 174 164 150 166 187 174 157 170 186 163 183 
177 144 150 138 139 164 133 149 164 164 154 171 160 155 174 151 158 142 159 167 141 192 167 149 128 163 159 144 158 148 167 136 200 164 195 165 171 155 162 159 144 179 152 168 167 140 193 152 155 125 192 192 165 146 171 167 142 177 119 157 
176 117 148 180 171 131 155 140 148 174 188 124 161 147 162 132 161 167 158 150 153 165 123 118 154 143 160 148 157 184 174 192 189 152 152 153 128 131 125 152 177 140 159 186 163 124 169 129 130 154 166 172 134 159 165 153 135 129 168 176 
135 167 164 151 142 153 162 168 105 146 164 143 161 136 160 146 146 135 161 165 163 154 141 146 117 163 147 131 147 128 135 141 133 152 134 161 165 167 122 125 126 141 132 135 136 151 165 152 168 140 119 177 165 135 161 167 155 167 151 144 
161 147 159 141 124 173 123 150 134 171 155 126 147 158 153 153 137 144 181 101 113 161 116 131 180 134 154 168 109 174 145 158 135 159 146 113 147 151 148 180 161 136 123 138 203 129 128 155 177 149 146 145 134 138 138 180 162 143 147 149 
135 116 151 137 135 150 156 143 110 117 138 94 119 150 154 156 111 117 156 146 146 139 125 148 106 157 129 129 154 164 129 156 173 143 160 141 171 140 159 159 142 180 87 153 132 138 166 151 155 122 127 138 147 134 130 139 135 140 123 157 
174 106 108 162 113 130 129 144 133 172 136 153 186 165 174 144 106 183 157 120 155 120 150 158 130 142 111 92 117 109 143 161 155 95 136 129 132 154 165 130 96 117 117 120 135 129 164 146 141 161 151 144 113 138 148 152 154 151 118 142 
105 145 125 141 114 149 166 130 148 117 130 134 149 151 136 107 116 138 128 149 146 113 151 124 125 162 120 141 161 134 135 145 170 147 132 116 146 132 143 119 117 157 151 171 134 157 132 154 135 123 122 150 122 113 175 190 122 145 158 143 
138 143 134 166 152 131 133 168 141 128 137 136 165 146 166 143 125 131 124 124 101 121 144 131 156 137 112 133 165 130 172 155 122 106 137 139 138 175 118 159 152 133 108 136 159 146 143 114 117 148 148 100 135 120 144 138 142 130 113 118 
133 123 100 161 130 122 117 128 138 87 130 134 131 126 156 153 116 115 134 117 113 112 101 139 140 76 148 139 132 147 96 109 103 127 127 138 134 114 118 123 144 128 144 100 109 164 133 123 116 153 140 107 146 145 153 155 115 88 99 93 
109 145 122 139 121 130 140 113 83 98 120 57 117 132 100 114 137 103 125 152 133 109 145 132 108 134 123 93 134 124 107 123 127 120 131 134 106 114 134 113 115 133 135 133 94 140 126 119 108 170 134 148 114 125 150 133 114 117 116 72 
125 141 102 105 126 143 119 142 115 132 126 120 116 111 106 105 147 107 136 93 100 116 107 125 138 115 117 131 132 117 116 102 130 106 109 122 126 129 144 139 121 125 123 111 112 139 102 126 124 105 140 135 135 116 123 135 133 117 97 117 
127 120 126 133 123 100 126 131 99 116 131 65 105 132 129 100 135 81 122 99 80 81 99 117 124 115 144 91 117 75 95 147 135 82 96 104 128 89 107 111 122 116 159 85 100 132 118 145 166 115 108 118 118 84 105 118 101 103 136 114 
125 119 53 84 97 126 122 106 115 116 81 91 113 116 104 103 161 101 76 126 103 114 107 132 122 125 107 116 149 145 94 125 113 107 111 133 107 113 126 129 93 132 53 96 114 105 120 110 146 117 94 117 82 132 141 152 70 99 115 115 
105 150 130 130 92 97 92 107 114 93 85 128 119 104 115 152 104 100 133 129 112 111 101 82 85 129 114 123 83 88 121 135 122 98 114 131 154 87 113 93 115 126 80 120 86 98 132 70 93 93 108 118 107 84 117 124 57 113 128 117 
91 101 71 102 70 123 103 69 73 64 114 116 85 58 101 115 118 162 96 103 110 129 104 78 112 84 128 90 103 91 77 110 98 105 88 78 104 93 78 88 64 86 100 100 78 105 102 90 87 58 98 103 94 140 109 112 121 100 133 43 
79 101 96 132 69 120 101 58 74 70 109 83 111 90 101 79 132 85 90 116 123 75 86 48 66 101 70 122 83 103 112 89 75 85 106 104 136 99 114 99 97 112 103 147 111 88 91 116 70 120 119 83 99 122 131 114 133 101 110 99 
107 87 99 77 97 86 84 133 90 114 114 95 105 83 110 106 55 92 77 95 121 104 90 84 81 87 103 40 100 74 95 101 66 90 70 100 116 90 59 103 111 95 89 75 102 99 103 72 139 94 77 99 109 97 110 91 83 95 79 86 
105 111 90 85 108 85 92 119 64 85 48 42 80 70 121 54 106 83 91 102 56 98 106 64 69 101 135 89 66 121 87 101 75 105 83 107 88 102 90 113 57 76 66 105 82 75 88 117 87 119 87 116 92 100 89 101 89 113 90 118 
108 97 59 62 104 91 91 60 93 79 86 84 82 89 69 121 75 71 83 86 106 72 75 75 106 144 98 109 77 102 114 110 100 68 92 115 60 98 95 107 96 79 63 101 118 70 109 86 87 75 82 70 109 54 97 99 87 115 47 82 
99 91 99 84 49 87 82 109 42 91 93 75 97 71 83 67 86 100 68 112 83 42 108 79 108 86 84 80 59 39 68 66 34 113 90 103 80 91 62 81 92 90 55 70 99 84 37 82 59 77 65 104 79 113 91 120 92 76 59 87 
55 77 88 112 57 111 97 106 100 86 54 91 74 24 49 116 72 48 99 84 80 37 67 94 48 77 79 88 88 102 81 82 79 77 69 72 88 60 73 97 94 65 88 64 63 89 44 79 71 63 77 101 92 104 66 95 83 103 70 96 
54 11 43 65 66 85 84 100 79 62 69 95 69 80 77 71 89 55 62 70 54 60 76 64 69 58 94 40 81 92 84 78 51 40 69 53 41 81 100 93 67 49 88 77 62 73 43 75 78 69 79 113 88 55 99 84 55 63 62 59 
56 90 82 52 86 74 112 96 79 71 91 66 101 71 64 42 51 69 80 65 67 108 78 87 52 93 85 95 42 47 64 54 76 90 71 81 61 61 57 70 97 91 38 67 60 75 57 51 86 36 95 71 56 53 79 85 80 45 79 69 
61 58 91 70 31 68 58 76 40 70 43 25 45 71 93 73 50 80 12 61 84 17 43 74 109 96 117 88 53 24 67 85 63 73 53 75 97 42 82 67 93 46 75 69 85 78 59 59 46 71 77 65 70 50 54 77 70 111 57 76 
50 79 81 79 48 69 64 63 78 71 54 51 68 93 47 65 73 62 82 52 63 63 33 55 82 34 64 55 87 48 63 38 76 67 81 90 58 72 39 59 58 50 63 68 43 35 103 62 53 57 38 84 62 61 57 63 75 83 63 86 
72 79 38 42 38 63 38 49 34 85 39 71 59 62 59 84 51 74 28 42 48 80 38 29 35 63 40 96 26 11 35 60 75 85 81 65 44 57 79 40 40 116 64 53 60 76 88 51 67 82 55 51 96 40 62 70 51 63 66 52 
55 85 73 64 67 82 19 55 48 66 63 62 36 63 71 70 46 47 67 49 10 60 37 46 57 68 68 62 78 23 63 6 43 59 58 19 54 41 48 47 45 55 53 46 73 57 57 61 55 63 86 33 40 45 56 65 67 40 100 44 
77 21 71 30 51 45 28 59 10 81 52 21 36 43 44 28 51 72 24 95 41 77 37 38 27 51 74 7 80 79 59 80 8 61 64 9 0 45 50 52 34 63 51 44 66 58 60 22 53 97 68 47 63 66 38 34 41 60 32 61 
29 52 63 10 24 79 25 44 49 35 47 41 52 38 76 36 54 47 61 39 50 61 17 46 36 53 57 85 71 64 74 56 29 53 64 40 25 24 82 67 53 61 48 32 32 50 27 52 53 85 39 24 6 14 87 57 47 51 67 40 
43 73 72 54 38 33 35 34 37 8 59 43 54 15 47 39 55 41 25 75 54 45 50 0 23 11 52 32 54 20 46 36 52 20 7 46 40 47 13 5 47 17 41 73 59 57 53 37 50 0 39 24 30 84 0 69 48 32 52 77 
48 31 74 55 44 56 68 55 14 79 20 62 7 27 45 0 55 50 5 64 48 26 0 45 15 39 36 38 10 50 26 17 39 44 50 58 70 61 8 32 0 29 45 35 36 28 92 45 33 42 33 50 27 19 12 14 26 42 12 12 
37 15 23 28 20 35 3 60 59 24 37 42 21 17 20 8 52 43 49 37 0 18 23 67 40 23 17 55 44 14 24 48 39 25 53 54 46 63 21 50 11 26 34 30 63 39 41 25 35 33 18 35 19 35 14 88 50 37 10 17 
45 37 34 34 31 41 36 51 47 17 0 21 0 0 49 52 4 44 32 21 37 42 50 12 32 55 56 63 13 31 58 47 22 11 60 29 33 68 31 38 18 34 34 54 47 60 12 13 51 29 37 51 40 0 21 6 31 40 67 14 
55 15 38 12 30 63 34 14 27 27 60 45 23 47 86 62 27 26 18 29 17 15 48 34 28 39 50 22 21 42 38 50 13 21 30 27 39 59 24 49 10 40 29 0 21 31 24 31 67 46 12 36 0 38 26 47 38 55 29 1 
14 18 0 10 22 18 58 0 32 17 23 16 10 15 0 6 0 29 47 28 44 41 59 15 8 14 23 38 18 44 25 18 45 37 2 46 25 0 19 13 24 59 0 1 43 39 5 47 7 52 0 20 3 14 38 29 0 41 3 32 
0 24 27 44 42 24 46 9 9 39 28 24 19 24 19 29 0 55 14 8 5 40 9 63 44 18 58 26 59 49 63 61 44 37 17 35 0 4 34 35 43 25 7 19 21 47 29 52 17 20 13 23 50 24 19 29 50 48 19 22 
