P2

30 30
255
253 234 255 234 255 255 255 245 255 255 255 255 255 255 253 249 242 255 237 202 240 245 215 255 238 255 252 242 254 255 
254 233 255 255 241 255 255 247 242 255 221 245 238 248 255 247 239 241 235 216 228 255 255 221 228 255 250 244 255 208 
250 239 249 216 255 250 211 237 255 235 231 219 237 217 253 238 240 238 239 255 236 255 255 248 241 240 241 202 255 235 
249 250 217 231 255 229 246 174 255 226 222 223 220 255 249 240 207 242 242 229 213 212 217 249 224 255 224 225 223 226 
246 233 236 249 190 240 224 203 255 237 226 221 186 234 255 239 184 203 181 203 220 218 246 241 255 214 202 229 229 181 
212 238 246 208 236 231 219 223 215 211 186 219 243 232 199 187 203 209 206 199 255 166 220 210 179 231 215 206 220 248 
204 203 189 212 198 176 211 214 246 196 211 179 202 182 224 216 192 223 222 223 205 207 219 184 181 195 201 201 215 209 
197 199 197 200 185 199 185 209 194 183 215 163 214 219 196 210 168 194 166 187 201 170 207 213 184 155 179 209 167 221 
216 191 213 162 161 193 196 181 177 163 188 160 192 183 199 151 199 190 202 194 196 216 177 186 214 212 181 170 184 182 
176 184 181 184 181 198 190 206 159 184 204 232 194 222 198 219 185 125 183 173 225 203 182 214 181 221 163 202 187 148 
185 147 181 171 185 178 182 162 199 161 190 139 203 175 171 171 151 138 165 178 140 178 200 182 177 188 172 179 168 178 
202 151 178 180 167 186 197 148 167 151 146 195 166 93 164 152 173 141 131 190 146 173 159 189 210 161 156 190 150 159 
135 181 173 162 125 161 167 180 135 157 180 171 140 136 141 174 146 156 121 191 141 132 140 206 179 164 161 132 174 169 
175 178 112 158 117 143 159 111 122 162 160 143 181 172 141 189 142 154 135 140 155 168 163 186 124 145 133 135 162 151 
156 130 144 153 143 122 123 143 122 174 162 151 138 128 155 175 137 137 157 149 168 123 130 161 130 153 136 172 141 148 
123 147 148 132 105 160 146 123 112 165 147 130 157 128 153 98 141 142 97 119 138 140 145 161 120 128 130 167 150 114 
120 117 116 129 136 98 122 97 127 142 133 147 156 152 107 130 129 105 122 143 137 122 163 118 80 112 157 71 111 160 
107 88 135 146 79 118 113 99 97 108 91 123 167 125 111 126 171 136 136 128 142 103 143 77 148 149 117 113 114 95 
96 138 108 95 124 74 97 112 113 92 134 114 102 96 99 113 111 112 84 105 126 133 93 121 121 91 55 141 109 94 
119 109 105 84 105 122 117 103 134 109 95 81 98 112 112 119 86 104 90 123 117 128 100 80 97 80 80 76 125 76 
62 94 79 79 118 98 113 97 122 81 108 120 92 102 106 82 94 89 102 70 124 100 107 102 95 99 111 116 85 79 
84 102 89 105 70 72 76 48 107 97 119 92 77 116 107 112 68 66 86 94 95 112 58 56 122 97 55 96 95 79 
89 57 76 66 49 79 94 74 85 79 58 83 63 79 71 57 69 66 66 94 96 136 58 44 81 95 104 71 69 96 
75 60 62 63 77 66 67 65 93 72 74 71 81 89 45 103 57 20 60 88 20 53 112 62 109 85 46 88 58 55 
60 97 61 67 58 102 88 63 90 53 105 49 46 81 73 52 85 55 73 56 53 93 29 40 73 54 62 72 51 95 
57 55 33 70 38 63 41 58 68 39 65 47 41 38 62 76 89 49 38 52 25 48 69 97 14 48 46 69 69 62 
49 21 29 62 60 37 3 44 37 30 70 53 54 20 38 31 40 45 31 56 83 59 23 45 86 79 48 82 97 33 
22 64 16 33 58 30 26 38 16 50 19 67 42 35 73 44 74 47 58 59 16 31 60 18 13 39 42 8 64 16 
55 38 21 26 43 43 31 30 9 8 42 46 24 16 49 36 55 22 21 34 0 49 18 22 24 34 20 18 20 10 
34 27 35 46 12 9 23 15 18 29 35 13 0 26 17 34 49 3 0 41 4 0 33 26 11 42 15 20 24 0 
