P2

50 50
255
253 234 255 234 255 255 255 245 255 255 255 255 255 255 253 249 242 255 237 202 240 245 215 255 238 255 252 242 254 255 255 241 255 255 249 255 255 255 250 255 229 253 246 255 255 255 247 249 243 224 
231 255 255 224 231 255 253 247 255 211 255 250 255 227 255 255 222 248 255 246 242 230 248 228 255 249 251 249 250 255 247 255 255 255 252 251 252 213 255 246 255 255 236 250 255 248 255 193 255 245 
236 237 234 255 255 254 221 255 255 243 227 226 231 255 238 255 238 239 237 240 255 255 255 255 212 255 246 225 255 255 248 243 208 255 255 255 206 225 203 225 242 240 255 255 255 236 224 251 251 203 
237 255 255 233 255 255 244 248 240 236 211 244 255 255 224 212 228 234 231 224 255 191 245 235 204 255 240 231 245 255 237 236 222 245 231 209 244 247 255 229 244 212 235 215 255 249 225 255 255 255 
233 235 247 212 209 223 229 229 243 237 233 235 233 236 221 235 221 245 230 219 251 199 250 255 232 246 204 230 202 223 237 206 243 249 220 191 215 245 203 255 255 235 255 206 205 237 240 225 221 207 
227 199 231 222 238 190 238 229 241 233 235 255 216 225 253 251 220 209 223 221 223 231 228 231 228 245 237 253 206 231 251 255 241 255 245 255 232 172 230 220 255 250 229 255 228 255 210 249 234 195 
235 197 231 221 235 228 232 212 249 211 240 189 253 225 221 221 201 188 215 228 190 228 250 232 227 238 222 229 218 228 255 209 236 238 225 244 255 206 225 209 204 253 224 151 222 210 231 199 189 248 
199 226 212 242 255 214 209 243 203 212 196 242 234 223 186 222 228 241 196 218 241 232 201 197 202 235 207 217 182 252 202 193 201 255 240 225 222 193 235 230 244 247 181 227 186 212 228 180 191 231 
224 207 245 236 205 253 206 218 199 204 219 232 227 250 188 209 197 199 226 215 228 202 216 225 215 194 195 215 194 246 234 223 210 200 227 247 209 209 229 221 240 195 202 233 202 225 208 244 213 220 
198 222 223 207 180 235 221 198 187 240 222 205 232 203 228 173 216 217 172 194 213 215 220 236 195 203 205 242 225 189 203 200 199 212 219 181 205 180 210 225 216 230 239 235 190 213 212 188 205 226 
215 200 241 196 158 190 235 149 189 238 193 174 221 232 165 204 199 185 183 194 177 209 253 211 197 212 255 222 222 214 228 189 229 163 234 235 203 199 200 181 190 232 202 189 218 168 191 206 207 186 
223 203 191 185 188 202 200 201 173 194 215 222 182 210 210 180 144 230 198 183 216 206 202 181 202 219 214 200 231 206 192 178 195 209 209 216 183 201 187 220 214 225 197 177 194 177 177 173 222 173 
162 194 179 179 218 198 213 197 222 181 208 220 192 202 206 182 194 189 202 170 224 200 207 202 195 199 211 216 185 179 192 210 197 213 178 180 184 156 215 205 227 200 185 224 215 220 176 174 194 202 
198 215 161 159 225 200 158 199 198 182 200 168 187 177 160 190 205 185 196 190 169 194 174 190 182 168 180 177 177 205 207 247 169 155 192 206 215 182 180 207 194 179 181 182 196 185 186 184 212 191 
188 185 195 203 159 217 171 134 174 202 134 167 226 176 223 199 160 202 172 169 182 219 183 189 180 224 210 185 212 175 227 171 168 203 195 174 207 177 195 178 175 215 151 162 195 176 184 194 173 217 
182 180 158 195 163 188 166 183 193 164 190 172 166 163 187 201 214 174 163 177 150 173 194 222 139 173 171 194 194 187 182 154 162 195 193 170 136 177 170 163 203 186 187 153 171 164 173 178 164 189 
211 187 151 173 214 207 176 210 225 161 158 200 152 169 194 166 162 174 152 186 155 203 178 171 209 180 210 183 194 195 152 167 196 154 149 175 178 144 200 152 199 182 165 170 187 187 175 174 153 152 
181 185 163 155 188 175 194 161 160 173 136 188 157 161 163 173 159 157 159 149 181 174 182 193 159 156 170 162 165 176 182 160 144 173 164 181 196 150 132 188 151 147 180 173 158 189 162 167 171 142 
209 182 156 157 162 178 176 154 170 190 181 189 139 165 159 132 215 173 150 190 167 162 146 159 177 198 162 153 172 147 140 191 147 165 161 144 174 134 158 158 149 169 177 161 172 191 166 192 143 196 
165 133 140 177 142 146 122 161 170 178 149 151 150 164 154 151 153 179 172 141 147 149 141 150 170 163 154 189 153 143 187 144 169 167 196 142 151 205 145 177 162 144 145 152 179 176 163 152 160 152 
128 147 148 163 153 181 123 136 155 172 81 179 164 150 118 161 162 153 173 190 109 161 144 156 158 138 177 164 134 163 171 178 158 157 152 144 144 140 139 209 173 166 122 172 143 168 139 142 176 190 
122 144 148 158 144 141 158 134 131 167 120 174 131 143 172 151 145 165 164 152 157 131 155 169 106 159 114 158 125 156 155 180 179 149 133 174 163 139 136 138 106 159 143 116 165 150 117 143 157 115 
124 151 115 174 179 139 136 147 133 136 145 130 129 153 142 150 130 131 122 158 153 160 128 133 149 161 150 161 146 167 141 145 148 121 123 163 116 137 128 142 119 98 171 158 177 107 184 120 114 143 
148 140 176 124 151 128 133 134 139 175 125 146 135 169 146 118 146 162 139 112 126 173 142 155 200 115 118 146 127 171 161 131 118 116 115 168 164 179 176 118 119 156 149 160 123 164 141 149 140 132 
135 98 127 165 135 132 172 122 92 159 98 135 128 152 147 143 140 105 135 150 161 122 124 172 169 143 154 148 142 143 142 72 128 135 148 133 135 165 136 172 131 122 113 127 165 105 131 108 160 122 
135 118 119 120 119 144 98 139 118 129 134 144 130 132 157 144 128 97 130 107 163 140 144 147 155 123 180 144 112 148 121 161 108 149 145 106 130 123 126 111 89 126 128 119 105 168 113 127 182 112 
121 111 102 135 127 113 126 126 117 132 112 105 132 126 130 133 117 97 123 107 138 139 110 127 135 94 138 129 126 157 126 136 122 141 158 119 135 150 162 135 136 154 116 136 120 137 117 86 130 120 
133 113 107 134 135 122 141 128 148 126 165 129 118 107 97 147 166 123 119 132 120 120 126 112 92 116 147 117 89 98 131 110 86 110 124 75 139 111 75 133 128 87 133 109 115 144 104 134 140 124 
105 152 120 90 88 67 79 99 128 112 122 148 110 121 108 124 116 131 132 102 96 101 162 131 162 85 110 145 81 126 116 102 118 139 126 109 122 138 115 135 133 100 106 94 95 120 89 105 120 120 
105 122 111 106 125 102 109 93 110 118 92 143 118 100 79 114 110 95 109 99 118 87 151 115 146 116 122 106 113 110 95 130 103 119 118 91 144 103 106 76 143 143 116 97 122 118 93 128 70 108 
126 67 98 130 121 81 105 90 98 124 138 74 111 97 112 82 111 117 108 100 103 115 73 68 104 93 110 98 107 134 124 142 139 102 102 103 78 81 75 102 127 90 109 136 113 74 119 79 80 104 
111 117 79 104 110 98 80 74 113 121 84 116 113 100 91 102 111 117 54 95 113 92 110 85 109 95 95 84 110 114 112 103 90 95 66 112 96 80 96 77 84 90 82 101 83 110 114 116 71 74 
70 85 76 79 80 95 109 96 112 84 63 121 109 79 105 111 99 111 95 88 109 95 107 89 72 121 71 98 82 119 103 74 95 106 101 101 85 92 129 49 61 109 64 79 128 82 102 116 57 122 
88 101 78 102 89 56 90 94 91 123 104 79 66 81 146 72 71 98 120 92 89 88 77 81 81 123 105 86 90 92 82 63 98 84 82 97 103 90 57 64 85 41 66 97 101 103 58 64 103 93 
88 81 67 90 48 99 71 71 96 106 71 98 115 85 102 83 113 82 101 101 84 122 29 95 74 80 108 93 97 64 69 80 89 76 72 81 77 82 65 99 120 52 54 108 59 76 75 90 79 118 
77 94 127 106 115 85 47 124 98 61 96 61 91 99 71 83 52 33 58 50 84 102 96 36 77 70 73 95 106 71 37 58 58 61 76 70 105 87 82 102 92 85 54 79 89 93 95 92 59 83 
45 85 65 81 54 89 106 70 88 57 70 74 89 91 76 47 56 78 68 89 86 53 91 64 65 102 60 81 101 74 75 85 110 87 72 56 86 72 83 59 57 97 91 111 74 97 72 94 75 63 
57 85 57 48 110 125 57 80 93 78 77 82 73 105 91 70 72 107 80 67 76 75 104 85 105 82 64 70 63 63 40 60 83 70 95 76 51 72 104 69 111 94 61 45 76 78 77 114 57 98 
86 67 42 70 93 80 77 48 51 82 82 34 69 54 78 72 76 64 47 52 71 61 38 99 68 60 55 66 76 25 68 72 69 64 94 91 54 53 72 55 51 50 39 77 78 14 86 77 70 85 
29 42 36 60 60 71 67 47 51 56 77 61 77 33 42 97 66 56 49 86 73 40 79 78 86 88 48 21 32 26 46 82 59 76 58 67 77 50 20 35 57 0 54 69 37 51 74 40 62 89 
65 41 77 64 40 66 55 25 66 56 39 55 59 52 63 66 38 46 66 45 47 65 67 65 26 72 58 51 40 102 66 80 46 57 82 65 46 49 48 4 61 77 38 41 62 79 55 78 51 68 
57 51 47 42 37 36 78 38 67 24 31 47 38 56 69 46 48 62 63 48 47 33 61 37 40 53 57 60 75 70 52 56 54 42 43 70 33 57 55 36 71 66 66 47 54 66 64 48 28 48 
57 50 56 63 53 30 56 61 29 46 61 0 35 62 59 30 65 11 52 29 10 11 29 47 54 45 74 21 47 5 25 77 65 12 26 34 58 19 37 41 52 46 89 15 30 62 48 75 96 45 
33 43 43 9 30 43 26 28 61 39 54 48 0 13 26 55 51 35 44 45 10 20 42 45 33 32 90 30 5 55 32 43 36 61 51 54 36 45 78 74 23 54 42 36 40 62 36 42 55 58 
17 56 0 20 38 29 44 34 70 41 18 41 6 56 65 76 0 23 39 39 33 78 58 58 20 25 20 35 42 21 13 56 47 32 43 80 32 28 61 57 40 39 29 10 13 57 42 51 11 16 
44 58 45 21 37 54 77 10 36 16 38 49 3 43 9 21 55 0 16 16 31 41 30 7 40 47 0 36 51 40 18 28 0 29 0 50 30 0 0 0 41 43 12 0 28 42 45 89 23 30 
32 51 26 0 34 6 50 12 25 13 0 32 20 27 10 0 26 15 0 10 0 8 22 22 0 27 24 12 9 0 20 25 16 62 31 34 43 22 55 0 5 27 22 58 0 46 27 0 0 0 
30 4 32 11 22 0 53 6 11 37 44 0 7 0 0 22 0 43 4 24 33 10 0 6 27 25 57 20 35 20 18 33 24 68 32 9 12 37 0 41 40 4 20 43 52 35 54 22 31 20 
27 7 19 0 17 6 4 53 10 34 34 15 25 3 30 26 0 12 0 15 41 24 10 4 1 7 23 0 20 0 15 21 0 10 0 20 36 10 0 23 31 15 9 0 22 19 23 0 59 14 
0 14 24 12 25 6 0 10 0 1 24 30 9 4 27 4 11 38 0 4 0 0 0 0 40 0 25 2 10 21 0 17 25 0 0 20 54 8 0 40 6 20 0 24 2 26 7 21 9 32 
