P2

90 90
255
253 234 255 234 255 255 255 245 255 255 255 255 255 255 253 249 242 255 237 202 240 245 215 255 238 255 252 242 254 255 255 241 255 255 249 255 255 255 250 255 229 253 246 255 255 255 247 249 243 224 236 255 255 229 236 255 255 252 255 216 255 255 255 232 255 255 227 253 255 251 247 235 253 233 255 254 255 254 255 255 252 255 255 255 255 255 255 218 255 251 
255 255 239 253 255 251 255 196 255 248 244 245 242 255 255 255 229 255 255 251 235 234 239 255 246 255 246 247 245 248 255 255 255 255 220 255 254 233 255 255 255 251 216 255 255 255 214 233 211 233 250 248 255 255 255 244 232 255 255 211 250 255 255 246 255 255 255 255 253 249 224 255 255 255 237 225 241 247 244 237 255 204 255 248 217 255 253 244 255 255 
248 247 233 255 242 220 255 255 255 240 255 223 246 226 255 255 236 255 255 255 249 251 255 228 225 239 245 245 255 253 249 251 249 252 237 251 237 255 246 235 255 215 255 255 248 255 220 246 218 239 253 222 255 255 236 207 231 255 219 255 255 251 255 222 221 253 255 241 237 223 248 220 252 243 255 211 255 250 255 254 255 255 237 246 255 255 241 230 244 242 
242 250 247 250 247 255 255 255 225 250 255 255 255 255 255 255 251 191 249 239 255 255 248 255 247 255 229 255 253 214 255 221 255 245 255 252 255 236 255 235 255 213 255 249 245 245 225 212 239 252 214 252 255 255 251 255 246 253 242 252 255 233 255 255 249 255 255 230 249 233 228 255 248 175 246 234 255 223 213 255 228 255 241 255 255 243 238 255 232 241 
223 255 255 250 213 249 255 255 223 245 255 255 228 224 229 255 234 244 209 255 229 220 228 255 255 252 249 220 255 255 255 255 208 254 213 239 255 207 218 255 255 239 255 255 237 255 238 250 231 236 251 255 255 255 220 241 229 231 255 247 255 234 248 255 247 226 227 247 226 255 255 255 242 232 255 255 241 241 255 253 255 227 234 255 234 255 240 255 245 252 
233 255 255 242 215 255 255 233 222 255 255 240 255 238 255 208 251 252 207 229 248 250 255 255 230 238 240 255 255 224 238 235 234 247 254 216 240 215 245 255 251 255 255 255 225 248 247 223 240 255 255 240 255 236 198 230 255 189 229 255 233 214 255 255 205 244 239 225 223 234 217 249 255 251 237 252 255 255 255 254 255 229 255 203 255 255 243 239 240 221 
228 255 240 227 255 206 229 244 245 224 255 246 234 228 231 245 243 244 216 237 255 255 225 253 253 223 187 255 241 226 255 249 245 224 245 255 255 243 255 249 235 221 238 252 252 255 226 244 230 255 255 255 240 220 237 220 220 216 255 216 210 242 227 227 255 246 255 245 255 229 255 255 240 250 254 230 242 237 250 218 255 248 255 250 243 247 255 255 233 227 
238 255 243 255 224 226 230 202 255 251 255 246 231 255 255 255 222 220 240 248 249 255 212 210 255 251 209 250 249 233 251 219 238 228 211 241 255 236 247 241 220 245 225 241 233 219 231 228 228 255 255 255 220 206 243 255 255 233 231 255 245 230 232 233 247 236 237 235 255 242 244 241 251 255 215 255 227 190 230 255 190 223 255 232 255 255 216 255 228 225 
236 255 237 243 234 255 255 239 255 229 255 225 222 255 249 228 255 231 249 232 229 255 205 216 249 230 238 248 227 255 241 239 217 254 222 247 225 242 252 223 249 231 225 222 246 255 255 233 222 236 209 232 253 255 198 232 230 253 253 246 241 213 221 254 252 229 195 236 229 222 255 245 246 212 230 223 232 237 223 248 255 251 215 237 255 255 240 255 255 225 
220 255 214 231 255 228 224 236 214 248 217 255 240 233 255 242 255 245 255 255 214 229 255 216 211 237 240 206 255 214 255 244 227 232 249 249 237 236 215 214 248 252 230 222 255 242 255 228 227 240 203 255 224 228 230 240 226 224 226 216 248 241 249 255 226 223 237 229 232 243 249 227 211 240 231 248 255 217 199 255 218 214 247 240 225 255 229 234 238 209 
255 252 226 227 232 248 246 224 240 255 251 255 209 235 229 202 255 243 220 255 237 232 216 229 247 255 232 223 242 217 210 255 217 235 231 214 244 204 228 228 219 239 247 231 242 255 236 255 213 255 240 208 215 252 217 221 197 236 245 253 224 226 225 239 229 226 228 254 247 216 222 224 216 225 245 238 229 255 228 218 255 219 244 242 255 217 226 255 220 252 
235 217 218 225 252 249 236 225 233 225 206 225 226 241 231 255 201 214 233 250 159 255 242 228 196 239 240 231 251 255 187 239 222 234 236 216 255 242 212 241 249 255 236 235 230 222 222 218 217 255 251 244 200 250 221 246 217 220 254 255 205 227 231 241 227 224 241 217 214 250 203 255 214 226 255 234 228 248 247 235 240 214 238 252 189 242 197 241 208 239 
236 255 255 230 214 255 244 220 217 219 187 240 224 197 246 231 198 224 238 196 210 237 201 255 255 225 222 233 219 222 231 216 215 239 228 236 216 217 208 244 239 246 214 219 235 247 236 247 232 253 227 231 234 207 209 249 202 223 214 228 205 184 255 244 255 193 255 206 200 229 239 231 255 215 242 219 224 225 230 255 216 237 226 255 237 209 237 253 230 203 
215 255 231 244 255 204 207 235 216 255 250 220 207 205 204 255 253 255 255 207 208 245 238 249 212 253 230 238 229 221 229 192 221 255 229 226 255 216 186 253 192 229 222 246 241 237 234 199 229 244 255 216 218 255 255 237 248 242 236 237 236 166 222 229 242 227 229 255 230 255 225 216 207 221 255 199 225 202 254 216 234 217 218 219 218 243 197 238 217 228 
231 241 227 229 254 241 225 194 227 204 255 237 241 244 252 220 255 241 209 245 218 255 205 246 242 203 227 220 223 208 186 223 225 216 202 255 210 224 255 209 223 213 204 237 229 215 228 228 219 234 214 207 234 228 232 235 219 199 225 209 240 241 212 229 237 196 240 231 228 255 228 238 224 243 255 221 237 252 255 237 238 255 218 238 222 239 219 188 232 222 
238 218 212 239 240 227 246 233 253 231 255 234 223 212 202 252 255 228 224 237 225 225 231 217 197 221 252 222 194 203 236 215 191 215 229 180 244 216 180 238 233 192 238 214 220 249 209 239 245 229 215 255 230 200 198 177 189 209 238 222 232 255 220 231 218 234 226 241 242 212 206 211 255 241 255 195 220 255 191 236 226 212 228 249 236 219 232 248 225 245 
241 208 214 202 203 228 197 213 228 228 218 235 224 219 238 215 222 206 223 231 205 255 231 213 192 227 223 208 222 212 231 200 255 228 255 229 235 219 226 223 208 243 216 232 231 204 255 216 219 189 255 255 229 210 235 231 206 241 183 221 244 185 216 248 239 199 223 208 216 242 255 192 229 215 230 200 229 235 226 218 221 233 191 186 222 211 228 216 225 252 
240 255 255 218 218 219 194 197 191 218 243 206 225 252 229 190 235 195 196 220 232 238 200 225 231 219 201 195 234 242 205 237 234 221 212 223 232 238 175 216 234 213 231 206 230 216 216 205 231 235 233 224 211 216 187 233 217 201 217 198 205 211 203 222 204 231 235 237 192 195 196 211 202 205 206 221 235 222 238 210 189 247 235 205 231 237 225 237 221 214 
233 219 231 213 196 245 195 222 206 243 227 198 219 230 225 225 209 216 253 173 185 233 188 203 252 206 226 240 181 246 217 230 207 231 218 185 219 223 220 252 233 208 195 210 255 201 200 227 249 221 218 217 206 210 210 252 234 215 219 221 211 192 227 213 211 226 232 219 186 193 214 170 195 226 230 232 187 193 232 222 222 215 201 224 182 233 205 205 230 240 
203 230 247 217 234 215 245 214 233 233 216 254 161 227 206 212 240 225 229 196 201 212 221 208 204 213 209 214 197 231 252 184 186 240 191 208 207 222 211 250 214 231 255 243 252 222 184 255 235 198 233 198 228 236 208 220 189 170 195 187 221 239 233 173 214 207 210 232 243 208 174 195 195 198 213 207 242 224 219 239 229 222 191 216 226 230 232 229 196 220 
185 225 205 221 194 229 246 210 228 197 210 214 229 231 216 187 196 218 208 229 226 193 231 204 205 242 200 221 241 214 215 225 250 227 212 196 226 212 223 199 197 237 231 251 214 237 212 234 215 203 202 230 202 193 255 255 202 225 238 223 222 227 218 250 236 215 217 252 225 212 221 220 249 230 250 227 209 215 208 208 185 205 228 215 240 221 196 217 249 214 
254 237 204 188 219 221 220 255 200 241 234 215 190 218 241 228 225 196 199 230 230 182 217 202 226 220 224 212 195 200 219 209 186 247 216 208 203 214 224 173 216 220 217 212 242 239 202 201 220 203 199 198 187 225 226 162 234 225 218 233 182 195 189 213 213 224 220 200 204 209 230 214 230 186 195 250 219 209 202 239 226 193 232 231 239 241 201 174 185 179 
197 233 210 227 209 218 228 201 171 186 208 145 205 220 188 202 225 191 213 240 221 197 233 220 196 222 211 181 222 212 195 211 215 208 219 222 194 202 222 201 203 221 223 221 182 228 214 207 196 255 222 236 202 213 238 221 202 205 204 160 217 233 194 197 218 235 211 234 207 224 218 212 208 203 198 197 239 199 228 185 192 208 199 217 230 207 209 223 224 209 
206 192 220 196 199 212 216 219 234 229 211 215 213 201 202 229 192 216 214 195 230 225 225 206 213 225 223 207 187 207 221 214 220 227 217 194 220 225 193 210 225 159 199 226 223 194 229 175 216 193 174 175 193 211 218 209 238 185 211 169 189 241 229 176 190 198 222 183 201 205 216 210 253 179 194 226 212 239 255 209 202 212 212 178 199 212 195 197 230 208 
221 215 149 180 193 222 218 202 211 212 177 187 209 212 200 199 255 197 172 222 199 210 203 228 218 221 203 212 245 241 190 221 209 203 207 229 203 209 222 225 189 228 149 192 210 201 216 206 242 213 190 213 178 228 237 248 166 195 211 211 205 250 230 230 192 197 192 207 214 193 185 228 219 204 215 252 204 200 233 229 212 211 201 182 185 229 214 223 183 188 
219 233 220 196 212 229 252 185 211 191 213 224 178 218 184 196 230 168 191 191 206 216 205 182 215 222 155 211 226 215 193 203 173 204 172 225 205 171 175 166 216 218 187 160 203 217 220 255 198 205 212 231 206 180 214 186 230 192 205 193 179 212 200 207 190 180 206 195 180 190 166 188 202 202 180 207 204 192 189 160 200 205 196 242 211 214 223 202 235 145 
183 205 200 236 173 224 205 162 178 174 213 187 215 194 205 183 236 189 194 220 227 179 190 152 170 205 174 226 187 207 216 193 179 189 210 208 240 203 218 203 201 216 207 251 215 192 195 220 174 224 223 187 203 226 235 218 237 205 214 203 215 195 207 185 205 194 192 241 198 222 222 203 213 191 218 214 163 200 185 203 229 212 198 192 189 195 211 148 208 182 
201 207 172 196 176 206 222 196 165 209 217 201 195 181 208 205 209 178 245 200 183 205 215 203 216 197 189 201 185 192 215 221 200 195 218 195 202 229 174 195 158 152 190 180 231 164 216 193 201 212 166 208 216 174 179 211 245 199 176 231 197 211 185 215 193 217 198 212 200 223 167 186 176 215 192 185 198 227 197 229 197 226 202 210 199 211 199 223 200 228 
220 209 171 174 216 203 203 172 205 191 198 196 194 201 181 233 187 183 195 198 218 184 187 187 218 255 210 221 189 214 226 222 212 180 204 227 172 210 207 219 208 191 175 213 230 182 221 198 199 187 194 182 221 166 209 211 199 227 159 194 215 207 215 200 165 203 198 225 158 207 209 191 213 187 199 183 202 216 184 228 199 158 224 195 224 202 200 196 175 155 
182 180 148 227 204 217 194 205 176 195 206 204 169 184 213 198 151 196 173 191 179 218 193 227 205 234 206 190 173 201 173 195 206 230 175 229 215 224 218 204 172 209 192 142 167 234 190 166 217 202 198 155 185 212 166 195 197 206 206 220 199 200 197 195 187 190 206 178 191 215 212 183 206 182 181 207 162 197 189 181 195 219 210 222 184 213 201 221 188 214 
174 131 163 185 186 205 204 220 199 182 189 215 189 200 197 191 209 175 182 190 174 180 196 184 189 178 214 160 201 212 204 198 171 160 189 173 161 201 220 213 187 169 208 197 182 193 163 195 198 189 199 233 208 175 219 204 175 183 182 179 180 214 206 176 210 198 236 220 203 195 215 190 225 195 188 166 175 193 204 189 191 232 202 211 176 217 209 219 166 171 
186 176 198 212 193 203 183 183 179 192 219 213 160 189 182 197 179 173 208 158 217 193 178 175 201 207 202 167 201 191 187 184 217 196 157 194 184 202 166 196 169 151 171 197 219 199 176 206 138 187 210 143 169 200 235 222 243 214 179 150 193 211 189 199 179 201 223 168 208 193 219 172 201 195 211 204 185 185 172 197 203 191 196 176 180 203 196 237 183 202 
178 207 209 207 176 197 192 191 206 199 182 179 196 221 175 193 201 190 210 180 191 191 161 183 210 162 192 183 215 176 191 166 204 195 209 218 186 200 167 187 186 178 191 196 171 163 231 190 181 185 166 212 190 189 185 191 203 211 191 214 204 211 170 174 170 195 170 181 166 217 171 203 191 194 191 216 183 206 160 174 180 212 170 161 167 195 172 228 158 143 
165 190 205 215 211 195 174 187 209 170 170 246 194 183 190 206 218 181 197 212 185 181 226 170 192 200 181 193 196 182 189 219 207 198 201 216 153 189 182 200 197 196 170 197 205 204 180 181 201 183 144 194 171 180 191 202 202 196 212 157 197 140 177 193 192 153 188 175 182 181 179 189 187 180 207 191 191 195 189 197 220 167 174 179 190 199 201 174 234 178 
213 157 207 166 187 181 164 195 146 217 188 157 172 179 180 164 187 208 160 231 177 213 173 174 163 187 210 143 216 215 195 216 144 197 200 145 121 181 186 188 170 199 187 180 202 194 196 158 189 233 204 183 199 202 174 170 177 196 168 197 169 192 203 150 164 219 165 184 189 175 187 181 192 178 216 176 194 187 201 179 190 201 157 186 176 193 197 225 211 204 
212 194 167 191 202 178 163 162 220 205 191 199 186 170 170 188 165 190 191 223 177 162 144 152 225 195 185 189 205 178 185 215 214 196 180 175 177 176 179 150 201 185 196 157 189 181 197 183 167 217 196 187 192 138 165 153 194 174 196 162 188 178 194 162 149 188 182 189 155 147 189 159 183 215 201 199 195 179 192 136 181 166 172 226 142 211 190 174 194 219 
192 175 218 199 188 200 212 199 158 223 164 206 151 171 189 140 199 194 149 208 192 170 140 189 159 183 180 182 154 194 170 161 183 188 194 202 214 205 152 176 126 173 189 179 180 172 236 189 177 186 177 194 171 163 156 158 170 186 156 156 185 163 171 176 168 183 151 208 207 172 185 190 169 165 168 156 200 191 197 185 141 166 171 215 188 171 165 203 192 162 
170 194 185 171 199 200 192 209 167 196 157 172 180 176 209 185 187 171 181 179 164 181 165 181 160 234 196 183 156 163 195 187 184 184 181 191 186 201 197 167 140 171 135 146 199 202 154 194 182 171 187 192 200 162 182 205 206 213 163 181 208 197 172 161 210 179 183 218 181 188 168 184 184 204 197 210 162 163 201 179 187 201 190 138 171 156 181 190 217 164 
207 167 190 164 182 215 186 166 179 179 212 197 175 199 238 214 179 178 170 181 169 167 200 186 180 191 202 174 173 194 190 202 165 173 182 179 191 211 176 201 162 192 181 134 173 183 176 183 219 198 164 188 148 190 178 199 190 207 181 153 170 174 151 166 178 174 214 147 188 173 179 172 166 171 156 162 128 185 203 184 200 197 215 171 164 170 179 194 174 200 
179 172 199 191 156 200 179 143 173 167 178 213 108 155 197 193 159 201 161 206 152 174 157 168 192 183 148 195 157 186 149 182 185 202 200 182 204 167 167 197 186 182 177 182 177 187 157 213 172 166 163 198 167 221 202 176 216 184 217 207 221 219 202 195 175 193 146 162 192 193 201 183 165 177 179 205 187 210 175 178 171 181 208 182 177 187 208 206 177 180 
149 205 176 153 159 204 179 168 207 150 159 220 153 176 155 137 193 174 167 175 171 130 162 157 181 184 185 166 175 184 178 160 200 163 203 155 168 165 160 194 168 189 195 131 193 202 222 164 127 190 175 178 171 207 149 180 220 188 156 173 153 163 175 193 169 167 187 182 178 223 159 166 163 191 212 142 180 175 182 218 138 191 183 190 179 165 227 195 191 151 
146 158 158 172 156 185 156 210 158 133 186 163 157 210 214 178 191 178 165 180 166 151 175 131 176 180 143 181 195 184 147 225 192 159 212 178 189 165 178 150 158 165 160 167 220 212 195 147 161 213 129 196 190 191 152 188 119 173 185 153 177 211 176 206 174 138 164 135 183 157 182 132 179 163 161 147 109 160 171 164 199 154 168 157 176 152 168 175 130 162 
149 166 160 188 191 186 179 175 154 179 191 186 153 171 182 191 159 172 177 172 187 185 171 179 153 191 180 180 164 135 166 159 179 196 175 185 200 162 172 178 156 172 169 181 200 155 171 194 173 176 159 139 158 178 179 210 159 179 139 159 164 146 153 171 172 179 168 185 180 156 195 170 131 170 141 163 167 162 154 193 156 153 166 164 175 162 165 203 193 171 
140 174 173 155 136 156 148 152 121 150 200 171 183 200 139 153 169 169 179 172 172 143 175 191 174 207 163 164 168 140 183 202 156 176 202 146 155 163 169 145 137 189 149 173 179 144 173 172 162 158 132 185 158 115 146 157 147 165 175 143 159 157 161 164 140 148 186 199 200 165 216 175 152 180 151 190 158 189 179 155 164 163 160 159 148 172 179 155 148 187 
147 173 179 142 146 189 141 169 153 137 162 169 182 143 195 162 153 173 197 121 180 195 157 171 162 187 162 167 185 149 156 144 192 168 188 163 159 142 168 168 158 171 132 117 172 151 231 169 168 140 169 190 139 157 150 104 130 168 176 183 176 208 196 171 173 150 185 181 150 172 167 171 165 192 214 172 174 177 151 171 172 144 183 137 162 160 191 184 176 177 
140 156 184 175 193 163 153 129 182 163 178 184 183 187 180 127 185 144 137 161 171 167 198 160 148 200 148 155 180 126 190 186 144 177 158 142 177 157 142 177 145 165 166 158 157 182 161 162 174 140 152 164 167 160 159 176 148 172 154 192 135 172 140 163 186 154 160 161 186 194 175 133 136 156 172 165 184 132 135 179 138 187 156 180 174 146 171 180 159 194 
185 163 169 163 178 181 151 133 185 171 135 168 152 153 182 154 193 193 195 168 154 156 146 196 173 186 139 159 159 146 139 161 126 176 152 144 154 182 210 159 176 160 170 132 167 163 179 141 150 162 148 135 145 144 171 161 161 142 163 117 143 157 196 151 155 181 151 168 133 188 169 171 197 168 185 145 156 157 139 171 163 171 149 133 192 144 147 177 227 163 
168 139 143 161 152 141 173 161 157 155 166 183 175 160 160 113 162 152 192 171 164 130 146 186 161 160 139 158 134 127 125 183 164 141 127 145 155 163 172 200 165 150 159 196 170 150 187 145 164 144 198 187 165 180 163 160 140 183 129 182 161 153 180 166 148 155 148 181 134 139 145 187 136 135 170 168 127 156 161 142 138 182 207 169 189 189 169 160 144 106 
124 159 181 148 196 152 173 137 158 181 150 140 155 164 151 138 155 137 174 128 158 162 143 159 169 142 156 161 164 150 150 171 156 163 136 136 148 131 149 152 179 133 170 154 143 179 175 166 147 142 158 158 211 125 145 178 164 166 152 161 173 176 165 192 190 194 158 148 144 158 137 138 143 143 178 169 129 150 140 152 166 176 158 153 186 168 177 157 155 171 
184 167 151 161 136 168 151 141 188 150 169 153 186 159 153 129 191 174 198 155 177 134 165 148 177 130 94 156 139 167 155 173 145 132 96 145 132 167 138 150 121 159 124 138 142 160 182 127 175 150 185 162 159 173 196 170 178 149 145 177 123 141 178 161 143 157 169 151 226 157 192 148 170 153 176 134 163 128 150 151 145 137 156 142 162 159 174 171 166 156 
142 131 166 123 128 183 165 173 172 175 159 153 154 187 150 136 168 180 169 145 133 190 173 154 180 158 149 138 165 163 127 166 182 201 185 145 128 156 191 134 151 147 154 145 134 161 172 150 170 144 162 141 136 142 150 164 181 181 168 169 195 149 149 158 164 144 177 135 154 163 156 156 163 145 147 120 133 156 165 130 173 125 139 156 188 143 165 136 162 169 
131 144 165 118 146 152 166 158 133 183 147 150 173 164 180 172 177 167 154 194 122 161 128 163 166 153 170 146 182 165 187 123 149 170 147 153 153 126 117 150 167 169 145 132 157 143 187 189 152 136 153 136 168 181 158 147 182 154 165 126 151 157 150 153 153 139 139 161 123 157 176 181 172 139 141 129 168 154 145 136 123 152 137 142 164 131 146 150 166 168 
121 112 138 149 106 144 155 143 124 156 125 140 163 142 167 183 125 109 122 181 140 179 179 121 159 177 129 165 142 133 156 147 152 171 153 146 161 178 151 152 152 172 179 119 185 117 151 135 128 153 156 139 146 151 151 162 143 150 170 141 137 159 170 128 151 166 140 133 171 149 144 145 156 176 132 159 175 133 157 147 158 162 149 164 154 149 162 154 107 133 
156 149 140 129 177 125 133 159 157 140 142 151 150 146 107 135 155 132 184 167 128 152 120 115 174 133 148 139 134 152 155 135 160 159 154 159 147 124 169 163 124 130 148 126 145 147 131 110 192 145 121 169 130 119 202 172 169 164 154 145 149 167 160 155 126 115 155 146 139 129 171 153 141 125 151 130 138 153 158 167 164 101 100 187 152 147 165 145 184 173 
158 132 154 142 163 154 133 123 124 126 165 145 160 175 149 120 178 160 127 153 134 172 155 159 141 133 108 127 156 150 111 130 156 117 134 155 151 133 154 157 170 134 171 170 137 123 133 147 150 142 147 126 144 142 126 152 139 172 110 133 158 159 156 115 170 177 152 115 147 166 183 152 137 145 131 148 163 137 127 140 153 156 134 167 121 152 144 140 118 137 
149 166 184 191 98 136 135 133 179 145 159 142 130 145 152 138 176 116 111 150 167 144 137 126 145 151 124 168 109 125 140 159 145 145 120 147 146 158 156 123 177 148 158 136 167 160 133 118 153 126 163 145 102 156 174 134 118 143 99 163 144 162 142 158 146 151 151 136 159 176 131 134 154 134 139 133 162 159 149 152 95 123 186 174 130 145 121 154 134 139 
139 150 165 113 117 197 189 142 131 132 167 125 124 146 148 161 147 123 154 168 165 152 120 87 169 134 181 168 143 143 169 143 151 156 151 185 149 143 134 144 136 122 157 152 140 143 122 117 130 184 129 163 134 184 132 162 132 154 163 161 116 126 178 146 161 144 131 153 146 160 142 151 92 129 157 144 141 139 118 120 162 143 110 148 122 158 138 137 134 121 
139 106 141 157 132 136 140 139 154 149 151 165 149 151 159 159 156 130 156 127 116 111 139 164 132 132 135 152 142 105 160 158 122 148 171 137 108 159 134 109 127 127 125 144 142 121 152 135 128 135 153 136 145 158 127 134 124 176 168 121 138 127 146 126 111 138 100 114 135 120 109 171 133 128 112 167 123 132 143 143 157 132 149 150 141 135 111 149 169 147 
132 130 152 148 150 134 138 152 145 159 141 156 153 145 149 148 133 161 131 146 157 122 139 139 135 121 129 131 130 169 142 155 149 162 153 153 113 164 141 160 121 123 158 134 155 149 152 139 130 125 127 145 136 168 129 161 139 134 133 121 139 134 158 166 134 121 131 121 142 150 121 81 138 128 151 152 127 151 122 136 120 153 150 157 114 143 118 132 133 147 
141 124 170 100 147 141 184 112 142 114 106 86 137 141 120 159 175 119 119 128 151 127 111 151 120 131 163 135 134 155 129 128 144 122 147 163 152 151 168 143 132 123 89 142 118 132 107 135 169 133 139 137 141 117 137 142 154 128 147 161 111 132 131 112 167 129 128 150 150 168 115 133 115 132 165 142 139 94 133 138 121 122 92 134 130 92 126 135 146 162 
138 116 105 168 117 114 116 135 160 145 166 174 166 150 160 146 110 125 143 135 121 119 124 163 121 163 141 101 135 142 168 121 128 113 155 135 139 109 126 151 163 129 108 116 95 105 140 149 137 122 116 123 132 189 145 125 172 147 119 129 105 162 129 135 139 140 108 135 119 122 127 147 127 149 157 141 135 133 130 137 150 155 95 136 138 124 132 113 135 102 
103 144 155 108 142 121 104 125 110 124 170 193 126 130 141 121 135 159 123 117 132 144 142 125 150 133 117 121 152 102 132 134 133 102 150 137 154 118 142 133 118 124 145 138 113 147 135 139 106 127 165 116 146 155 109 142 140 152 103 144 132 185 135 149 92 113 147 129 141 130 133 148 96 165 103 133 128 112 160 101 139 105 127 146 146 138 105 124 119 135 
137 98 122 143 136 160 144 141 131 141 126 131 124 133 142 164 125 127 115 155 120 108 119 129 125 114 108 109 107 147 110 143 131 134 126 102 138 99 135 133 130 135 131 126 129 163 110 143 131 145 173 139 162 154 107 119 130 131 139 138 114 123 100 130 104 131 83 123 150 79 140 148 145 117 158 140 114 106 120 97 156 142 174 124 132 134 127 126 135 106 
141 135 107 100 143 127 133 144 142 117 92 118 132 131 149 169 175 123 132 154 125 121 120 114 110 137 118 126 120 133 139 108 124 126 150 132 139 86 156 108 120 146 137 136 140 145 163 88 160 74 154 153 107 141 129 139 136 118 128 116 99 101 102 104 136 149 133 128 110 134 133 102 142 125 116 129 114 134 134 103 150 158 115 136 119 154 132 152 123 136 
143 152 116 112 119 125 108 148 149 131 139 99 131 126 120 142 132 133 129 98 129 134 141 170 125 120 141 112 100 117 129 143 114 140 166 123 97 121 92 110 136 133 110 106 126 130 167 131 129 142 129 122 125 79 125 143 142 148 125 135 116 112 115 167 129 113 140 131 161 135 124 163 119 117 95 152 104 127 122 133 123 93 113 102 134 141 115 130 94 124 
106 137 164 158 91 55 144 109 138 109 146 94 112 120 108 120 91 132 116 123 144 124 132 130 82 146 89 125 111 100 130 99 114 106 139 152 91 111 86 183 116 93 116 139 127 108 122 147 106 141 115 154 97 120 108 99 170 170 120 134 144 92 116 157 99 146 138 134 168 91 140 91 104 149 125 112 155 82 109 122 129 93 130 125 167 90 90 107 110 145 
130 126 136 149 121 140 160 106 92 144 104 111 127 119 122 151 132 115 157 115 133 112 126 104 132 115 114 143 124 148 134 123 132 117 177 100 123 120 121 115 106 84 107 134 113 95 130 129 112 146 107 115 116 141 127 122 132 111 70 147 114 124 75 105 113 131 130 148 127 91 129 108 118 79 93 108 147 103 139 150 149 129 105 123 127 110 119 77 133 110 
95 129 151 136 154 102 114 121 129 143 120 118 145 132 135 108 136 127 122 90 112 97 109 117 129 120 154 124 138 118 88 123 136 101 103 149 108 147 91 115 131 145 128 121 108 126 137 113 155 155 121 116 116 103 147 128 114 87 121 97 113 125 118 101 154 127 128 87 99 128 106 94 113 100 130 90 65 122 111 120 102 93 131 112 132 111 112 98 123 119 
142 132 98 127 92 109 156 112 126 119 95 112 122 103 126 102 109 140 124 129 127 148 129 96 102 141 160 140 141 88 114 106 137 119 129 131 147 158 114 107 121 123 101 105 121 120 133 141 129 153 133 143 132 97 115 127 131 114 131 78 91 111 134 116 130 94 132 130 109 94 127 111 102 142 170 104 106 93 89 83 110 110 134 124 84 125 130 111 98 94 
107 102 87 148 137 131 114 108 139 112 84 120 112 136 103 117 122 110 97 152 141 115 135 95 104 137 123 103 86 122 118 102 169 86 77 111 78 97 82 137 135 118 131 121 120 95 130 134 122 128 109 127 90 88 117 133 100 130 103 100 93 93 117 103 118 124 124 122 126 141 117 103 106 125 126 123 79 70 131 135 125 116 104 119 135 120 96 121 110 93 
110 78 120 60 118 123 135 106 104 107 129 109 112 139 107 99 127 113 97 127 122 132 123 123 111 86 83 95 115 84 109 80 101 150 120 109 93 95 111 127 124 110 153 100 95 90 92 104 159 89 123 128 147 123 148 122 126 95 75 150 121 109 86 124 92 116 124 163 123 154 130 133 143 126 112 118 120 90 60 97 122 97 85 106 136 86 124 139 117 125 
98 108 114 136 164 131 114 83 111 111 106 132 110 83 101 133 133 113 71 126 124 75 73 99 103 123 80 119 113 97 122 120 121 127 127 114 101 120 118 134 121 79 135 132 126 129 120 76 133 103 122 114 96 151 99 143 138 93 126 83 85 76 140 97 142 111 123 124 142 86 89 110 110 91 111 116 129 80 107 137 112 112 99 92 127 141 95 118 76 104 
103 121 111 108 124 122 94 106 82 118 110 123 107 101 89 97 129 111 76 99 60 112 100 95 104 87 99 100 121 143 79 114 76 128 104 111 107 103 125 86 132 93 111 145 111 105 107 80 140 76 80 79 74 89 118 107 103 113 92 134 92 110 120 97 105 105 117 72 93 119 101 118 125 124 101 118 87 133 108 98 82 69 105 130 121 99 135 108 92 155 
115 105 61 57 122 120 101 140 125 106 119 137 114 149 76 92 99 112 103 43 108 133 122 95 114 124 130 102 123 125 133 136 101 102 81 128 119 131 111 108 100 109 101 150 106 101 110 102 109 69 123 116 111 139 86 76 91 128 84 121 137 121 60 109 114 103 133 55 108 79 70 129 51 112 119 107 115 96 132 134 98 103 105 105 111 118 115 110 124 136 
82 115 84 106 135 126 96 115 90 90 108 92 124 92 103 109 110 95 108 85 77 88 99 116 103 111 87 103 126 97 102 104 120 95 117 107 105 81 94 118 95 112 136 74 69 117 95 141 120 72 101 89 125 137 109 115 110 85 108 94 104 121 134 88 100 102 92 143 142 87 93 122 90 90 108 104 105 85 134 94 108 121 119 85 129 104 113 111 99 102 
105 114 96 134 69 87 103 101 73 97 107 105 105 96 110 48 81 108 118 124 116 146 83 127 128 119 119 132 81 97 110 123 86 72 99 102 84 111 104 106 82 128 95 137 88 71 115 91 105 93 87 133 135 81 106 113 121 71 101 106 98 101 122 125 125 121 92 67 107 92 102 49 146 81 91 105 102 93 124 85 80 89 123 110 108 112 57 139 122 130 
84 138 79 107 95 143 112 125 134 130 132 102 97 100 112 104 90 124 111 131 89 71 92 93 131 119 129 43 106 93 82 113 115 97 130 70 93 88 128 108 106 70 74 117 93 111 77 122 100 104 105 66 91 91 86 92 140 80 85 114 99 102 94 103 83 91 115 109 142 110 108 108 90 123 116 115 100 136 93 118 110 106 101 101 109 129 105 103 93 84 
97 120 117 79 91 134 100 86 120 83 101 101 132 104 114 95 87 106 65 91 101 100 104 116 101 79 101 125 69 70 123 48 114 100 119 100 115 157 108 75 119 97 76 114 98 132 96 141 94 104 98 123 92 101 75 137 100 88 85 80 84 67 78 100 76 106 77 124 103 108 116 67 109 109 88 125 74 88 141 132 129 109 104 80 121 108 96 95 80 90 
121 125 114 96 99 85 51 73 65 86 112 75 97 106 126 101 106 103 138 69 100 110 120 122 126 84 103 117 99 69 115 80 151 111 71 69 132 88 115 107 80 62 91 98 126 60 107 116 65 93 86 96 111 86 77 61 89 75 91 145 98 120 100 91 99 115 74 102 119 86 115 97 114 108 65 178 88 86 49 80 101 102 114 154 99 142 72 100 63 87 
128 98 106 102 113 101 128 105 88 101 86 86 115 89 116 53 112 69 91 90 97 138 81 97 117 84 71 97 63 69 104 117 139 111 94 106 70 89 121 64 122 106 85 121 61 96 78 86 119 61 132 93 55 93 125 93 78 99 99 130 96 81 85 67 101 101 105 97 86 124 100 94 101 75 64 165 65 61 153 118 110 102 117 112 89 129 83 83 102 116 
79 88 73 105 108 86 83 120 100 77 96 135 97 83 106 88 97 64 101 86 86 98 105 102 101 77 51 69 91 98 124 124 95 84 89 77 73 66 100 99 81 67 93 110 128 88 107 136 95 94 126 67 79 72 91 108 89 87 93 78 69 79 96 121 130 113 101 82 84 78 80 96 87 136 135 109 82 52 93 95 87 113 111 109 128 125 72 99 63 91 
96 127 81 104 58 86 66 103 118 102 96 103 54 95 96 74 85 97 117 86 76 91 127 119 109 122 106 50 104 93 95 94 93 97 82 116 73 119 108 90 120 113 74 46 131 98 92 94 106 106 74 128 104 99 132 86 69 122 98 105 98 66 79 66 87 82 99 80 96 73 86 99 100 115 123 103 73 100 105 117 70 78 99 114 93 41 102 88 72 124 
74 64 108 72 47 77 76 68 65 86 85 97 92 100 61 101 60 70 81 68 59 151 93 113 83 92 71 90 72 97 91 101 49 111 93 102 75 103 144 118 115 102 99 70 96 111 90 57 112 91 68 72 64 67 98 124 113 66 64 91 50 99 88 99 82 115 125 75 91 77 100 97 115 91 112 117 71 130 96 85 105 66 109 80 116 104 111 79 100 114 
107 90 100 129 92 89 79 102 76 118 82 71 95 80 49 64 85 117 108 76 108 55 77 93 53 112 68 79 80 104 109 93 70 87 78 107 89 56 112 126 93 110 90 85 48 88 91 130 113 103 53 124 68 92 106 94 119 71 94 81 75 118 95 90 97 75 145 95 128 96 112 96 48 98 99 81 74 64 89 123 84 123 74 107 64 85 63 110 90 89 
117 81 137 90 114 85 97 93 78 91 87 81 79 100 54 105 48 126 88 112 97 85 73 92 100 114 71 102 93 96 89 113 85 65 42 131 115 115 93 111 82 98 113 92 105 78 54 93 104 106 81 63 102 72 82 93 82 84 86 72 60 55 68 94 76 98 111 94 87 92 123 68 98 69 69 90 82 87 105 87 71 56 89 111 73 91 69 54 67 83 
77 101 94 88 74 74 65 127 78 114 84 107 90 93 85 65 103 90 85 71 78 110 81 92 69 107 78 107 64 68 53 76 125 75 73 69 102 96 121 79 101 92 49 84 101 104 122 89 77 96 111 105 83 94 42 100 34 79 123 87 78 73 73 93 76 94 113 86 114 91 85 100 96 102 92 65 119 90 77 86 98 62 115 69 45 78 92 102 93 83 
60 94 62 55 107 100 77 83 80 70 72 54 84 105 89 112 83 102 85 69 58 96 65 112 102 76 58 67 117 71 99 99 51 81 101 57 91 57 116 58 91 89 57 75 72 112 75 96 40 105 96 90 103 94 43 90 118 60 52 67 69 95 72 99 104 89 137 76 89 86 83 97 106 67 83 67 84 92 74 55 66 77 109 77 72 86 71 97 111 79 
96 86 97 35 62 60 60 73 88 71 100 109 71 103 101 73 75 94 90 115 100 92 43 55 54 104 69 83 99 74 77 89 32 90 96 75 64 59 19 74 70 70 90 89 97 85 62 81 50 104 52 87 52 85 87 95 75 70 71 130 78 75 106 48 81 86 84 77 96 84 78 46 60 103 88 71 44 84 84 74 67 94 40 89 70 80 118 66 81 65 
71 113 48 64 91 112 74 86 68 74 73 110 78 100 70 79 94 55 88 89 96 82 107 79 48 82 54 76 79 91 104 82 88 70 108 81 83 94 76 80 102 67 78 77 31 91 79 97 98 92 134 95 80 101 96 72 78 83 82 74 111 93 48 78 77 80 83 56 54 79 67 84 87 113 98 82 85 119 95 86 32 63 67 116 95 92 89 72 93 65 
40 95 105 65 62 80 49 71 84 106 94 80 58 96 97 88 77 86 90 43 84 64 49 83 99 53 71 87 93 104 72 78 117 110 45 69 68 85 62 94 76 84 60 69 102 76 74 72 79 112 61 60 91 62 117 87 92 93 82 79 52 42 82 44 74 47 78 64 53 53 101 100 85 76 41 88 118 42 82 79 103 43 35 95 91 105 112 43 74 68 
