P2

70 70
255
253 234 255 234 255 255 255 245 255 255 255 255 255 255 253 249 242 255 237 202 240 245 215 255 238 255 252 242 254 255 255 241 255 255 249 255 255 255 250 255 229 253 246 255 255 255 247 249 243 224 236 255 255 229 236 255 255 252 255 216 255 255 255 232 255 255 227 253 255 251 
244 232 250 230 255 251 253 251 252 255 249 255 255 255 254 253 254 215 255 248 255 255 238 252 255 250 255 195 255 247 243 244 241 255 255 255 228 255 255 250 234 233 238 255 245 255 245 246 244 247 255 255 255 255 219 255 253 232 255 255 255 250 215 255 255 255 213 232 210 232 
246 244 255 255 255 240 228 255 255 207 246 255 255 242 255 255 253 255 249 245 220 253 255 255 233 221 237 243 240 233 255 200 254 244 213 255 249 240 254 255 246 245 231 254 240 218 253 255 255 238 253 221 244 224 255 255 234 255 255 255 247 249 255 226 223 237 243 243 255 251 
244 246 244 247 232 246 232 255 241 230 255 210 255 255 243 255 215 241 213 234 248 217 254 255 231 202 226 255 214 255 255 246 255 217 216 248 251 236 232 218 243 215 247 238 254 206 254 245 255 249 251 255 232 241 255 255 236 225 239 237 239 247 244 247 244 255 253 255 222 247 
255 255 254 255 255 255 245 185 243 233 255 255 242 255 241 255 223 255 247 208 253 215 249 239 253 246 250 230 255 229 255 207 255 243 239 239 219 206 233 246 208 246 255 250 245 255 240 247 236 246 255 227 254 255 243 255 255 224 243 227 222 255 242 169 240 228 249 217 207 255 
219 246 232 255 255 234 229 255 223 232 216 255 254 243 206 242 248 255 216 238 255 252 221 217 222 255 227 237 202 255 222 213 221 255 255 245 242 213 255 250 255 255 201 247 206 232 248 200 211 251 249 232 255 255 230 255 231 243 224 229 244 255 252 255 213 234 222 224 251 240 
250 224 238 247 237 216 217 237 216 255 255 245 232 222 249 255 231 231 251 243 255 217 224 255 224 247 230 255 235 242 225 249 250 234 207 255 248 225 214 255 249 232 255 230 255 200 243 244 199 221 240 242 247 255 222 230 232 255 252 216 230 227 226 239 246 208 232 207 237 252 
240 254 255 255 214 237 236 212 229 250 244 229 255 225 187 219 255 178 218 255 222 203 250 255 194 233 228 214 212 223 206 238 255 240 226 241 255 251 251 243 255 218 255 192 255 255 232 228 229 210 219 255 231 218 247 197 220 235 236 215 255 237 225 219 222 236 234 235 207 228 
246 253 213 241 241 211 175 255 229 214 247 237 233 212 233 250 245 231 255 237 223 209 226 240 240 247 214 232 218 251 245 255 228 208 225 208 208 204 253 204 198 230 215 215 254 234 249 233 255 217 244 255 228 238 242 218 230 225 238 206 255 236 243 238 231 235 247 252 221 215 
225 243 230 246 211 213 217 189 248 238 255 233 218 255 248 253 209 207 227 235 236 253 199 197 255 238 196 237 236 220 238 206 225 215 198 228 243 223 234 228 207 232 212 228 220 206 218 215 215 243 245 255 207 193 230 244 253 220 218 245 232 217 219 220 234 223 224 222 250 229 
228 225 235 243 199 255 211 174 214 242 174 207 255 216 255 239 200 242 212 209 222 255 223 229 220 255 250 225 252 215 255 211 208 243 235 214 247 217 235 218 215 255 191 202 235 216 224 234 213 255 227 225 203 240 208 233 211 228 238 209 235 217 211 208 232 246 255 219 208 222 
192 215 236 255 181 215 213 236 236 229 224 196 204 237 235 212 178 219 212 205 245 228 229 195 213 206 215 220 206 231 255 234 198 220 255 254 223 255 255 208 205 247 199 216 241 213 209 221 199 233 202 250 225 218 255 227 255 230 241 242 199 214 243 201 196 222 225 191 247 199 
243 226 209 214 231 231 219 218 197 196 230 234 212 204 237 224 243 210 209 222 185 237 206 210 212 222 208 206 208 198 230 223 231 242 208 205 219 211 214 225 231 209 193 222 213 230 245 199 181 237 200 196 229 222 207 238 211 216 220 191 255 236 210 211 216 232 230 208 224 244 
232 240 190 216 210 183 255 224 201 241 218 213 197 210 228 249 213 204 223 198 191 242 198 216 212 195 225 185 209 209 200 220 228 212 223 242 217 243 194 247 221 189 196 233 198 202 178 217 226 234 205 207 206 220 210 207 209 235 228 197 203 205 197 206 226 219 210 245 209 199 
240 197 222 220 249 195 204 255 198 230 215 197 198 205 232 229 216 205 213 205 186 205 206 221 211 239 181 194 213 230 139 237 222 208 176 219 220 211 231 248 167 219 202 214 216 196 235 222 192 221 229 236 216 215 210 202 202 198 197 255 231 224 180 230 201 226 197 200 234 248 
182 204 208 218 204 201 218 194 191 227 180 234 191 203 232 211 205 225 224 212 217 191 215 229 166 219 174 218 185 216 215 240 239 209 193 234 223 199 196 198 166 219 203 176 225 210 177 203 217 175 189 216 180 239 244 204 201 212 198 201 210 195 194 218 207 215 195 196 187 223 
215 222 190 195 211 223 212 223 208 229 203 207 210 183 185 225 178 199 190 204 181 160 233 220 239 169 246 182 176 205 215 207 243 191 218 195 200 201 206 242 192 213 202 236 213 185 213 229 206 179 193 240 209 222 255 182 185 213 194 238 228 198 185 183 182 235 231 246 243 185 
183 220 213 224 187 228 205 213 204 196 204 167 196 234 204 201 241 191 161 228 167 204 197 221 216 212 209 174 204 219 230 191 193 241 238 212 223 217 211 212 211 141 197 204 217 202 204 234 205 241 200 191 182 196 234 174 200 177 229 191 209 192 193 194 193 218 172 213 192 203 
205 215 201 203 228 215 199 168 201 178 234 211 215 218 226 194 251 215 183 219 192 232 179 220 216 177 201 194 197 182 160 197 199 190 176 239 184 198 253 183 197 187 178 211 203 189 202 202 193 208 188 181 208 202 206 209 193 173 199 183 214 215 186 203 211 170 214 205 202 233 
199 209 195 214 231 192 208 223 235 208 209 227 189 209 193 210 190 159 203 193 211 191 185 212 213 200 219 206 226 204 243 207 196 185 175 225 244 201 197 210 198 198 204 190 170 194 225 195 167 176 209 188 164 188 202 153 217 189 153 211 206 165 211 187 193 222 182 212 218 202 
185 232 200 170 168 147 159 179 208 192 202 228 190 201 188 204 196 211 212 182 176 181 242 211 242 165 190 225 161 206 196 182 198 219 206 189 202 218 195 215 213 180 186 174 175 200 169 185 200 200 190 207 196 191 210 187 194 178 195 203 177 228 203 185 164 199 195 180 194 184 
200 169 233 197 228 198 204 188 195 192 177 212 185 201 200 173 226 185 188 158 225 225 198 179 204 200 175 210 152 190 213 154 185 217 208 168 192 177 185 211 225 161 198 184 199 169 198 204 195 187 190 202 160 155 191 180 197 185 194 221 211 229 226 189 189 190 165 168 162 189 
211 174 193 220 197 158 203 163 164 188 200 206 168 193 199 187 169 163 202 210 173 205 202 189 180 191 200 206 143 184 202 181 199 174 198 184 184 173 199 203 201 192 179 184 155 201 185 169 185 166 173 179 171 190 172 199 203 205 160 163 164 179 170 173 174 189 203 190 206 178 
154 212 200 170 196 202 190 202 186 179 200 186 198 180 163 212 162 189 173 210 194 165 186 197 192 192 176 183 220 140 152 200 155 170 219 173 193 207 148 213 184 197 174 198 185 152 186 190 187 219 200 175 162 177 242 168 167 194 216 188 185 184 173 177 177 219 201 182 186 188 
175 156 191 177 175 190 196 183 150 157 178 134 159 190 194 196 151 157 196 186 186 179 165 188 146 197 169 169 194 204 169 196 213 183 200 181 211 180 199 199 182 220 127 193 172 178 206 191 195 162 167 178 187 174 170 179 175 180 163 197 218 150 152 206 157 174 173 188 177 216 
177 194 227 206 215 185 147 224 198 161 196 161 191 199 171 183 152 133 158 150 184 202 196 136 177 170 173 195 206 171 137 158 158 161 176 170 205 187 182 202 192 185 154 179 189 193 195 192 159 183 150 190 170 186 159 194 211 175 193 162 175 179 194 196 181 152 161 183 173 194 
188 155 193 166 167 204 162 183 203 176 177 187 212 189 174 158 188 174 185 161 159 199 193 213 176 199 174 196 177 165 164 192 164 155 217 232 164 187 200 185 184 189 180 212 198 177 179 214 187 174 183 182 211 192 212 189 171 177 170 170 147 167 190 177 202 183 158 179 211 176 
215 198 165 149 180 182 181 218 161 202 195 176 151 179 202 189 186 157 160 191 191 143 178 163 187 181 185 173 156 161 180 170 147 208 177 169 164 175 185 134 177 181 178 173 203 200 163 162 181 164 160 159 148 186 187 123 195 186 179 194 143 156 150 174 174 185 181 161 165 170 
188 172 188 144 153 208 177 167 160 197 184 151 190 189 197 199 159 132 143 137 157 193 170 187 169 178 188 161 131 146 168 105 165 180 148 162 185 151 173 200 181 157 193 180 156 182 171 141 182 172 155 171 175 168 179 182 154 162 182 161 163 181 183 181 142 188 174 167 156 218 
179 193 159 170 195 178 159 162 161 117 174 190 151 154 175 192 168 191 164 181 175 169 165 160 155 154 196 156 185 142 149 165 156 174 187 164 166 180 181 166 165 151 179 155 158 171 175 178 193 188 170 174 172 160 161 188 151 175 173 154 189 184 184 165 172 184 182 166 146 166 
177 170 176 183 173 150 176 181 149 166 181 115 155 182 179 150 185 131 172 149 130 131 149 167 174 165 194 141 167 125 145 197 185 132 146 154 178 139 157 161 172 166 209 135 150 182 168 195 216 165 158 168 168 134 155 168 151 153 186 164 179 173 107 138 151 180 176 160 169 170 
132 142 164 167 155 154 212 152 127 177 154 165 158 183 173 176 158 167 200 196 145 176 164 158 162 184 158 164 177 180 144 183 104 147 165 156 171 161 197 168 145 168 133 183 192 203 121 150 166 166 160 205 185 185 147 152 147 162 169 148 140 183 174 159 170 207 159 155 188 184 
164 163 153 134 137 181 166 175 135 140 173 187 174 150 166 183 206 139 165 145 167 178 132 172 138 150 184 122 145 145 160 170 159 136 169 176 109 165 180 169 147 157 127 158 126 179 159 125 129 120 170 172 141 114 157 171 174 218 152 159 166 185 160 134 168 140 184 146 159 147 
130 163 151 158 141 131 157 146 131 141 117 139 153 153 131 158 155 143 140 111 151 156 147 193 162 165 174 153 186 96 136 158 153 189 126 177 158 115 131 127 166 140 168 147 158 136 189 142 147 173 180 132 143 105 123 158 127 179 140 160 169 146 132 142 163 161 193 156 171 156 
151 166 157 201 165 142 145 170 124 174 173 137 153 176 185 168 187 155 164 153 165 145 157 135 155 144 142 191 148 172 172 153 163 141 168 164 113 150 135 153 179 162 148 142 139 145 161 98 158 132 153 159 124 148 128 158 174 148 117 161 169 153 147 133 160 157 161 130 197 152 
132 154 164 152 165 146 138 150 134 141 164 170 149 144 167 144 151 178 123 144 107 101 139 129 180 113 165 142 150 161 115 157 165 123 128 160 194 148 125 180 146 160 134 164 142 166 147 161 149 172 116 135 125 164 141 134 147 176 146 178 146 175 151 159 148 160 148 172 149 177 
168 157 119 122 164 151 151 120 153 139 146 144 142 149 129 181 135 131 143 146 166 132 135 135 166 204 158 169 137 162 174 170 160 128 152 175 120 158 155 167 156 139 123 161 178 130 169 146 147 135 142 130 169 114 157 159 147 175 107 142 163 155 163 148 113 151 146 173 106 155 
154 136 158 132 144 128 147 161 129 173 144 103 169 140 169 147 145 141 120 100 129 127 95 174 151 164 141 152 123 142 153 151 116 131 160 145 98 143 120 138 126 165 140 174 152 181 153 137 120 148 120 142 153 177 122 176 162 171 165 151 119 156 139 89 114 181 137 113 164 149 
142 99 129 156 110 139 141 150 150 164 143 144 141 139 131 134 150 122 135 159 156 127 150 126 125 151 106 141 133 125 139 163 154 166 128 157 145 165 132 158 120 77 109 131 132 151 150 166 145 128 135 161 135 146 143 137 155 121 128 136 120 126 142 130 135 124 160 106 147 158 
147 141 114 103 132 116 104 144 163 156 130 112 151 140 125 136 106 138 141 132 142 176 151 118 162 147 118 126 125 122 123 157 149 119 153 141 179 163 146 138 158 133 168 138 131 109 118 136 147 132 134 175 145 154 119 160 152 162 109 114 131 121 143 157 138 148 128 128 124 137 
161 155 102 131 124 139 121 115 150 100 159 135 120 117 143 149 144 109 143 133 129 126 159 138 99 136 126 144 108 138 111 93 113 139 161 141 118 148 80 129 152 85 111 142 177 164 185 156 121 92 135 153 131 141 121 143 165 110 150 135 161 114 143 137 153 146 127 127 114 139 
142 130 135 115 119 142 135 176 122 141 119 148 150 148 117 138 133 132 147 140 123 120 137 162 116 134 142 131 151 121 132 132 102 124 151 103 133 124 156 117 132 107 145 136 150 159 127 141 108 128 127 119 132 137 112 104 172 131 122 126 107 153 131 130 126 132 144 152 132 155 
142 149 108 112 108 133 108 119 104 155 109 141 129 132 129 154 121 144 98 112 118 150 108 99 105 133 110 166 96 81 105 130 145 155 151 135 114 127 149 110 110 186 134 123 130 146 158 121 137 152 125 121 166 110 132 140 121 133 136 122 129 159 147 138 141 156 93 129 122 140 
134 133 107 134 142 141 117 118 138 120 81 131 108 117 128 139 139 133 149 94 134 77 114 130 129 90 125 112 119 118 116 126 124 117 144 128 128 132 126 134 157 104 111 116 127 136 138 111 171 115 152 96 146 105 126 120 103 134 85 156 127 96 111 118 119 103 126 147 99 170 
113 149 109 110 99 123 146 79 152 151 131 152 80 133 136 81 57 117 122 124 106 135 123 116 138 130 132 94 125 169 140 119 135 138 110 106 113 132 104 133 105 128 139 86 100 155 101 120 125 111 123 117 128 114 152 112 130 123 137 115 126 137 93 122 112 129 133 161 147 140 
147 129 102 126 137 113 98 97 155 140 126 134 121 105 105 123 100 125 126 158 112 97 79 87 160 130 120 124 140 113 120 150 149 131 115 110 112 111 114 85 136 120 131 92 124 116 132 118 102 152 131 122 127 73 100 88 129 109 131 97 123 113 129 97 84 123 117 124 90 82 
121 91 115 147 133 131 127 111 124 68 113 98 104 158 74 143 122 106 126 151 126 109 152 133 122 134 146 133 92 157 98 140 85 105 123 74 133 128 83 142 126 104 74 123 93 117 114 116 88 128 104 95 117 122 128 136 148 139 86 110 60 107 123 113 114 106 170 123 111 120 
108 125 102 94 87 89 101 117 87 87 116 94 102 107 99 114 82 139 138 103 116 121 100 96 99 87 131 122 128 116 72 97 102 146 119 102 96 134 123 93 103 127 118 104 132 133 125 142 100 129 90 105 113 109 142 118 120 104 114 112 97 114 98 114 93 167 129 116 89 96 
125 117 114 114 111 121 116 131 127 97 70 101 65 76 129 132 84 124 112 101 117 122 130 92 112 135 136 143 93 111 138 127 102 91 140 109 113 148 111 118 98 114 114 134 127 140 92 93 131 109 117 131 120 68 101 86 111 120 147 94 139 99 122 96 114 147 118 98 111 111 
141 126 104 128 167 143 108 107 99 110 98 96 129 115 109 120 131 103 102 123 119 131 94 102 111 108 120 140 105 130 91 121 110 63 102 112 105 112 148 127 93 117 77 119 107 128 119 136 110 82 99 103 80 95 107 103 143 76 117 102 108 101 95 100 85 91 57 114 132 113 
126 123 141 97 90 96 105 120 100 126 107 100 127 119 84 128 107 71 101 95 106 141 36 83 125 121 87 129 89 134 80 102 85 96 120 111 76 123 85 114 77 110 113 130 128 110 132 95 95 125 114 110 105 110 105 115 85 141 100 94 91 126 95 149 130 104 144 112 145 135 
146 144 127 120 100 118 71 87 117 118 126 108 90 102 104 130 112 135 100 103 96 106 133 107 102 112 133 131 102 105 76 132 103 80 86 131 106 95 134 77 86 147 80 103 82 64 120 101 94 102 98 57 89 84 108 111 112 93 102 111 105 87 127 90 130 82 95 92 87 121 
92 113 119 55 117 126 146 88 51 114 99 102 95 131 73 104 144 112 80 97 77 87 99 117 93 91 111 106 102 147 83 90 87 115 136 66 104 99 106 142 62 115 107 114 103 89 151 119 115 75 72 84 84 98 82 111 82 136 84 59 112 89 83 136 140 104 117 104 91 106 
89 74 98 54 99 103 66 104 118 107 70 148 115 82 135 101 112 88 101 73 81 88 83 90 143 135 118 70 84 136 52 119 113 114 75 111 42 96 108 76 100 134 99 129 97 61 87 58 106 80 105 55 102 86 84 70 32 83 94 87 122 77 91 80 99 75 91 98 53 85 
71 88 82 110 113 108 101 97 76 101 113 108 75 93 104 113 81 94 99 94 109 107 93 101 75 113 102 102 86 57 88 81 101 118 97 107 122 84 94 100 78 94 91 103 122 77 93 116 95 98 81 61 80 100 101 132 81 101 61 81 86 68 75 93 94 101 90 107 102 78 
114 89 50 89 60 82 86 81 73 112 75 72 85 83 94 81 84 122 112 90 61 95 94 76 57 77 69 73 42 71 121 92 104 121 60 74 90 90 100 93 93 64 96 112 95 128 84 85 89 61 104 123 77 97 123 67 76 84 90 66 58 110 70 94 100 65 94 93 83 79 
50 103 76 33 64 75 65 83 93 61 77 75 79 82 58 66 104 117 118 83 134 93 70 98 69 108 76 107 97 73 82 81 78 77 66 90 97 73 66 105 67 93 99 62 66 109 61 89 73 57 82 89 102 63 115 82 73 93 117 41 100 115 77 91 82 107 82 87 105 69 
73 61 109 85 105 80 76 59 85 85 75 88 49 34 89 68 148 86 85 57 86 107 56 74 67 21 47 85 93 100 93 125 113 88 90 67 102 98 67 89 84 88 82 109 131 89 91 94 68 88 89 61 100 54 79 77 108 101 93 94 59 75 103 94 112 82 72 48 101 82 
94 100 99 103 96 43 101 60 53 77 87 83 114 76 64 116 64 71 96 42 106 102 60 93 74 58 93 73 58 93 61 81 82 74 73 98 77 78 90 56 68 80 83 76 75 92 64 88 70 108 51 88 56 79 102 70 76 77 102 110 91 49 52 72 88 81 100 48 51 95 
51 100 69 93 87 59 84 93 72 107 100 78 84 78 93 96 66 48 100 86 50 83 67 68 97 69 108 108 110 83 69 71 61 111 88 101 54 74 74 61 54 76 41 91 67 59 69 97 125 74 91 75 85 47 82 78 94 56 65 77 63 50 60 59 86 76 76 57 78 32 
55 69 108 63 67 93 63 80 45 100 81 83 109 80 97 57 68 69 51 83 75 83 61 45 104 56 59 89 139 75 82 53 57 75 66 55 87 75 71 69 80 97 89 74 74 27 76 66 106 85 78 44 60 100 75 74 53 72 48 41 39 97 78 55 41 59 69 77 86 114 
76 61 70 107 81 61 98 56 75 55 109 98 76 91 74 71 51 94 40 93 72 64 91 77 59 66 59 92 45 50 56 98 47 46 81 79 38 67 72 53 49 93 118 80 100 100 80 71 55 17 37 72 94 61 109 65 86 50 71 94 63 53 68 77 64 51 68 50 87 41 
68 72 53 69 79 52 66 71 74 60 60 81 66 73 46 46 58 41 59 62 89 43 80 64 53 89 85 76 57 52 68 68 121 35 55 88 74 76 62 71 83 86 75 102 100 104 68 58 54 68 47 48 53 53 88 79 39 60 50 62 76 86 68 63 96 78 87 67 65 81 
93 76 60 70 45 77 60 50 97 59 78 62 95 68 62 38 100 83 107 64 86 43 74 57 86 39 3 65 48 76 64 82 54 41 5 54 41 76 47 59 30 68 33 47 51 69 91 36 84 59 94 71 68 82 105 79 87 58 54 86 32 50 87 70 52 66 78 60 135 66 
98 54 76 59 82 40 69 34 56 57 51 43 62 48 68 65 80 77 72 62 50 39 74 31 36 91 73 81 80 83 67 61 62 95 58 44 76 88 77 53 41 98 81 62 88 66 57 46 73 71 35 74 90 109 93 53 36 64 99 42 59 55 62 53 42 69 80 58 78 52 
67 46 41 47 55 69 86 86 73 74 100 54 54 63 69 49 82 40 59 68 61 61 68 50 52 25 38 61 70 35 78 30 44 61 93 48 70 41 67 74 38 51 72 25 53 59 73 65 40 90 54 57 80 71 87 79 84 74 61 101 29 68 35 70 73 60 77 53 89 72 
91 27 53 74 51 57 57 30 21 54 71 73 49 36 61 47 91 93 56 40 57 40 72 85 62 51 86 58 69 30 55 61 54 57 57 43 43 65 27 61 80 85 76 43 45 33 72 58 49 40 27 56 41 46 68 35 50 54 70 72 27 18 44 55 12 50 61 49 30 62 
28 43 66 45 70 86 28 12 25 84 43 82 82 24 62 80 32 68 45 36 59 50 55 74 56 49 64 81 54 55 55 75 82 22 88 20 54 38 31 56 59 42 49 54 54 65 46 53 73 44 40 62 73 31 54 69 43 36 74 52 47 48 59 79 35 62 78 36 60 50 
58 62 49 64 54 49 62 54 7 33 58 51 42 31 79 27 35 61 59 42 44 53 52 48 9 37 57 34 86 69 30 54 22 17 76 35 50 41 36 54 57 37 62 61 56 61 49 26 71 65 26 32 50 28 47 49 33 12 94 47 23 71 32 21 104 74 71 66 56 47 
48 66 59 54 25 14 54 45 38 28 70 52 40 24 50 29 37 52 57 66 63 0 0 86 51 46 64 44 83 72 59 33 55 43 64 55 34 24 25 27 66 46 61 76 50 21 79 61 28 54 35 73 56 60 42 34 9 28 57 51 12 31 57 18 35 56 52 34 55 58 
