P2

80 80
255
253 234 255 234 255 255 255 245 255 255 255 255 255 255 253 249 242 255 237 202 240 245 215 255 238 255 252 242 254 255 255 241 255 255 249 255 255 255 250 255 229 253 246 255 255 255 247 249 243 224 236 255 255 229 236 255 255 252 255 216 255 255 255 232 255 255 227 253 255 251 247 235 253 233 255 254 255 254 255 255 
249 255 255 255 254 253 254 215 255 248 255 255 238 252 255 250 255 195 255 247 243 244 241 255 255 255 228 255 255 250 234 233 238 255 245 255 245 246 244 247 255 255 255 255 219 255 253 232 255 255 255 250 215 255 255 255 213 232 210 232 249 247 255 255 255 243 231 255 255 210 249 255 255 245 255 255 255 255 252 248 
220 253 255 255 233 221 237 243 240 233 255 200 254 244 213 255 249 240 254 255 246 245 231 254 240 218 253 255 255 238 253 221 244 224 255 255 234 255 255 255 247 249 255 226 223 237 243 243 255 251 247 249 247 250 235 249 235 255 244 233 255 213 255 255 246 255 218 244 216 237 251 220 255 255 234 205 229 255 217 255 
255 246 255 217 216 248 251 236 232 218 243 215 247 238 254 206 254 245 255 249 251 255 232 241 255 255 236 225 239 237 239 247 244 247 244 255 253 255 222 247 255 255 255 255 255 255 248 188 246 236 255 255 245 255 244 255 226 255 250 211 255 218 252 242 255 249 253 233 255 232 255 210 255 246 242 242 222 209 236 249 
208 246 255 250 245 255 240 247 236 246 255 227 254 255 243 255 255 224 243 227 222 255 242 169 240 228 249 217 207 255 222 249 235 255 255 237 232 255 226 235 219 255 255 246 209 245 251 255 219 241 255 255 224 220 225 255 230 240 205 255 225 216 224 255 255 248 245 216 255 253 255 255 204 250 209 235 251 203 214 254 
249 232 255 255 230 255 231 243 224 229 244 255 252 255 213 234 222 224 251 240 253 227 241 250 240 219 220 240 219 255 255 248 235 225 252 255 234 234 254 246 255 220 227 255 227 250 233 255 238 245 228 252 253 237 210 255 251 228 217 255 252 235 255 233 255 203 246 247 202 224 243 245 250 255 225 233 235 255 255 219 
230 227 226 239 246 208 232 207 237 252 243 255 255 255 217 240 239 215 232 253 247 232 255 228 190 222 255 181 221 255 225 206 253 255 197 236 231 217 215 226 209 241 255 243 229 244 255 254 254 246 255 221 255 195 255 255 235 231 232 213 222 255 234 221 250 200 223 238 239 218 255 240 228 222 225 239 237 238 210 231 
249 255 216 244 244 214 178 255 232 217 250 240 236 215 236 253 248 234 255 240 226 212 229 243 243 250 217 235 221 254 248 255 231 211 228 211 211 207 255 207 201 233 218 218 255 237 252 236 255 220 247 255 231 241 245 221 233 228 241 209 255 239 246 241 234 238 250 255 224 218 231 249 236 252 217 219 223 195 254 244 
255 236 221 255 251 255 212 210 230 238 239 255 202 200 255 241 199 240 239 223 241 209 228 218 201 231 246 226 237 231 210 235 215 231 223 209 221 218 218 246 248 255 210 196 233 247 255 223 221 248 235 220 222 223 237 226 227 225 253 232 234 231 241 249 205 255 217 180 220 248 180 213 255 222 255 245 206 248 218 215 
225 255 226 232 223 255 253 228 255 218 255 214 211 246 238 217 250 220 238 221 218 255 194 205 238 219 227 237 216 255 230 228 206 243 211 236 214 231 241 212 238 220 214 211 235 249 255 222 211 225 198 221 242 255 187 221 219 242 242 235 230 202 210 243 241 218 184 225 218 211 251 234 235 201 219 212 221 226 212 237 
255 237 201 223 255 255 226 255 255 211 208 250 202 219 244 216 212 224 202 236 205 253 228 221 255 230 255 233 244 245 202 217 246 204 199 225 228 194 250 202 249 232 215 220 237 237 225 224 203 202 236 240 218 210 243 230 249 216 215 228 191 243 212 216 218 228 214 212 214 204 236 229 237 248 214 211 225 217 220 231 
234 212 196 225 216 233 248 202 184 240 203 199 232 225 210 241 214 219 223 194 255 239 213 214 219 235 233 211 227 247 238 246 196 222 216 189 255 230 207 247 224 219 203 216 234 255 219 210 229 204 197 248 204 222 218 201 231 191 215 215 206 226 234 218 229 248 223 249 200 253 227 195 202 239 204 208 184 223 232 240 
208 210 209 223 213 210 212 238 231 200 206 208 200 209 229 222 213 248 212 202 246 203 228 226 255 201 210 255 204 236 221 203 204 211 238 235 222 211 219 211 192 211 212 227 217 245 187 200 219 236 145 243 228 214 182 225 226 217 237 254 173 225 208 220 222 202 241 228 198 227 235 242 222 221 216 208 208 204 203 255 
234 227 183 233 204 229 200 203 237 251 188 210 214 224 210 207 224 200 197 233 186 240 197 209 238 217 211 231 230 218 223 197 221 235 172 225 180 224 191 222 221 246 245 215 199 240 229 205 202 204 172 225 209 182 231 216 183 209 223 181 195 222 186 245 250 210 207 218 204 207 216 201 200 224 213 221 201 202 193 229 
221 228 196 201 217 229 218 229 214 235 209 213 216 189 191 231 184 205 196 210 187 166 239 226 245 175 252 188 182 211 221 213 249 197 224 201 206 207 212 248 198 219 208 242 219 191 219 235 212 185 199 246 215 228 255 188 191 219 200 244 234 204 191 189 188 241 237 252 249 191 192 229 222 233 196 237 214 222 213 205 
210 173 202 240 210 207 247 197 167 234 173 210 203 227 222 218 215 180 210 225 236 197 199 247 244 218 229 223 217 218 217 147 203 210 223 208 210 240 211 247 206 197 188 202 240 180 206 183 235 197 215 198 199 200 199 224 178 219 198 209 214 224 210 212 237 224 208 177 210 187 243 220 224 227 235 203 255 224 192 228 
198 238 185 226 222 183 207 200 203 188 166 203 205 196 182 245 190 204 255 189 203 193 184 217 209 195 208 208 199 214 194 187 214 208 212 215 199 179 205 189 220 221 192 209 217 176 220 211 208 239 208 218 204 223 240 201 217 232 244 217 218 236 198 218 202 219 199 168 212 202 220 200 194 221 222 209 228 215 235 213 
249 213 202 191 181 231 250 207 203 216 204 204 210 196 176 200 231 201 173 182 215 194 170 194 208 159 223 195 159 217 212 171 217 193 199 228 188 218 224 208 194 241 209 179 177 156 168 188 217 201 211 237 199 210 197 213 205 220 221 191 185 190 251 220 251 174 199 234 170 215 205 191 207 228 215 198 211 227 204 224 
219 186 192 180 181 206 175 191 206 206 196 213 202 197 216 193 200 184 201 209 183 234 209 191 170 205 201 186 200 190 209 178 242 206 237 207 213 197 204 201 186 221 194 210 209 182 235 194 197 167 234 234 207 188 213 209 184 219 161 199 222 163 194 226 217 177 201 186 194 220 234 170 207 193 208 178 207 213 204 196 
196 208 166 161 197 186 203 191 200 227 217 235 232 195 195 196 171 174 168 195 220 183 202 229 206 167 212 172 173 197 209 215 177 202 208 196 178 172 211 219 182 214 211 198 189 200 209 215 152 193 211 190 208 183 207 193 193 182 208 212 210 201 188 193 164 210 194 178 194 175 182 188 180 199 181 208 212 214 169 172 
170 185 176 179 180 195 209 196 212 184 163 221 209 179 205 211 199 211 195 188 209 195 207 189 172 221 171 198 182 219 203 174 195 206 201 201 185 192 229 149 161 209 164 179 228 182 202 216 157 222 193 206 183 207 194 161 195 199 196 228 209 184 171 186 251 177 176 203 225 197 194 193 182 186 186 228 210 191 195 197 
184 165 200 186 184 199 205 192 159 166 187 143 168 199 203 205 160 166 205 195 195 188 174 197 155 206 178 178 203 213 178 205 222 192 209 190 220 189 208 208 191 229 136 202 181 187 215 200 204 171 176 187 196 183 179 188 184 189 172 206 227 159 161 215 166 183 182 197 186 225 189 206 239 218 227 197 159 236 210 173 
205 170 200 208 180 192 161 142 167 159 193 211 205 145 186 179 182 204 215 180 146 167 167 170 185 179 214 196 191 211 201 194 163 188 198 202 204 201 168 192 159 199 179 195 168 203 220 184 202 171 184 188 203 205 190 161 170 192 182 203 200 167 205 178 179 216 174 195 215 188 189 199 224 201 186 170 200 186 197 173 
168 208 202 222 185 208 183 205 186 174 173 201 173 164 226 241 173 196 209 194 193 198 189 221 207 186 188 223 196 183 192 191 220 201 221 198 180 186 179 179 156 176 199 186 211 192 167 188 220 185 227 210 177 161 192 194 193 230 173 214 207 188 163 191 214 201 198 169 172 203 203 155 190 175 199 193 197 185 168 173 
189 179 156 217 186 178 173 184 194 143 186 190 187 182 212 209 172 171 190 173 169 168 157 195 196 132 204 195 188 203 152 165 159 183 183 194 190 170 174 179 200 184 200 156 165 220 189 179 172 209 196 163 202 201 209 211 171 144 155 149 169 205 182 199 181 190 200 173 143 158 180 117 177 192 160 174 197 163 185 212 
190 166 202 189 165 191 180 150 191 181 164 180 184 177 188 191 163 171 191 170 172 190 192 190 151 197 183 176 165 227 191 205 171 182 207 190 171 174 173 129 186 202 163 166 187 204 180 203 176 193 187 181 177 172 167 166 208 168 197 154 161 177 168 186 199 176 178 192 193 178 177 163 191 167 170 183 187 190 205 200 
179 183 181 169 170 197 160 184 182 163 198 193 193 174 181 193 191 175 155 175 189 182 188 195 185 162 188 193 161 178 193 127 167 194 191 162 197 143 184 161 142 143 161 179 186 177 206 153 179 137 157 209 197 144 158 166 190 151 169 173 184 178 221 147 162 194 180 207 228 177 170 180 180 146 167 180 163 165 198 176 
188 182 116 147 160 189 185 169 178 179 144 154 176 179 167 166 224 164 139 189 166 177 170 195 185 188 170 179 212 208 157 188 176 170 174 196 170 176 189 192 156 195 116 159 177 168 183 173 209 180 157 180 145 195 204 215 133 162 178 178 172 217 197 197 159 164 159 174 181 160 152 195 186 171 182 219 171 167 200 196 
176 175 165 146 149 193 178 187 147 152 185 199 186 162 178 195 218 151 177 157 179 190 144 184 150 162 196 134 157 157 172 182 171 148 181 188 121 177 192 181 159 169 139 170 138 191 171 137 141 132 182 184 153 126 169 183 186 230 164 171 178 197 172 146 180 152 196 158 171 159 145 178 166 173 156 146 172 161 146 156 
129 151 165 165 143 170 167 155 152 123 163 168 159 205 174 177 186 165 198 108 148 170 165 201 138 189 170 127 143 139 178 152 180 159 170 148 201 154 159 185 192 144 155 117 135 170 139 191 152 172 181 158 144 154 175 173 205 168 183 168 166 181 172 216 180 157 160 185 139 189 188 152 168 191 200 183 202 170 179 168 
177 157 169 147 167 156 154 203 160 184 184 165 175 153 180 176 125 162 147 165 191 174 160 154 151 157 173 110 170 144 165 171 136 160 140 170 186 160 129 173 181 165 159 145 172 169 173 142 209 164 147 169 179 167 180 161 153 165 149 156 179 185 164 159 182 159 166 193 138 159 122 116 154 144 195 128 180 157 165 176 
127 169 177 135 140 172 206 160 137 192 158 172 146 176 154 178 159 173 161 184 128 147 137 176 153 146 159 188 158 190 158 187 163 171 160 172 160 184 161 189 183 172 134 137 179 166 166 135 168 154 161 159 157 164 144 196 150 146 158 161 181 147 150 150 181 219 173 184 152 177 189 185 175 143 167 190 135 173 170 182 
168 151 135 173 190 142 181 158 159 147 154 142 181 126 169 171 159 187 119 154 175 167 175 160 125 163 158 185 118 167 169 151 173 147 159 143 162 176 144 188 159 118 184 155 184 162 160 156 135 115 144 142 110 189 166 179 156 167 138 157 168 166 131 146 175 160 113 158 135 153 141 180 155 189 167 196 168 152 135 163 
132 154 165 189 134 188 174 183 177 163 131 168 151 101 126 193 149 125 176 161 157 114 144 171 125 154 156 165 165 179 158 159 156 154 146 149 165 137 150 174 171 142 165 141 140 166 121 156 148 140 154 178 169 181 143 172 160 180 147 173 135 92 124 146 147 166 165 181 160 143 150 176 150 161 158 152 170 136 143 151 
132 138 154 142 147 136 172 118 159 170 162 156 129 118 147 131 119 159 178 171 145 127 166 155 140 151 121 153 156 147 157 191 166 133 177 162 133 141 140 137 138 172 164 134 168 156 194 178 161 153 173 148 183 153 146 124 133 151 162 147 149 190 160 169 134 175 167 177 124 129 146 136 158 172 153 163 143 143 139 152 
176 170 117 146 139 154 136 130 165 115 174 150 135 132 158 164 159 124 158 148 144 141 174 153 114 151 141 159 123 153 126 108 128 154 176 156 133 163 95 144 167 100 126 157 192 179 200 171 136 107 150 168 146 156 136 158 180 125 165 150 176 129 158 152 168 161 142 142 129 154 160 148 153 133 137 160 153 194 140 159 
134 163 165 163 132 153 148 147 162 155 138 135 152 177 131 149 157 146 166 136 147 147 117 139 166 118 148 139 171 132 147 122 160 151 165 174 142 156 123 143 142 134 147 152 127 119 187 146 137 141 122 168 146 145 141 147 159 167 147 170 160 167 126 130 126 151 126 137 122 173 127 159 147 150 147 172 139 162 116 130 
133 165 123 114 120 148 125 181 111 96 120 145 160 170 166 150 129 142 164 125 125 201 149 138 145 161 173 136 152 167 140 136 181 125 147 155 136 148 151 137 144 174 162 153 156 171 108 144 137 155 152 151 125 152 160 159 135 136 156 138 99 149 126 135 146 157 157 151 167 112 152 95 132 148 147 108 143 130 137 136 
131 141 139 132 159 143 143 147 141 149 172 119 126 131 142 151 153 126 186 130 167 111 161 120 141 135 118 149 100 171 142 111 126 133 134 118 141 162 114 185 131 167 127 128 117 141 164 97 170 169 149 170 98 151 154 99 75 135 140 142 124 153 141 134 156 148 150 112 143 187 158 137 153 156 128 124 131 150 122 151 
120 143 154 101 115 170 116 135 140 126 138 132 143 129 167 127 145 138 152 130 141 152 108 137 127 144 148 176 162 155 165 147 120 144 155 131 116 115 173 158 144 152 139 123 123 141 118 143 144 176 130 115 97 105 178 148 138 142 158 131 138 168 167 149 133 128 130 129 132 103 154 138 149 110 142 134 150 136 120 170 
146 137 142 88 115 103 144 124 146 112 138 128 144 112 99 138 132 139 105 97 139 109 133 165 151 149 145 129 142 86 131 116 122 176 92 161 140 124 144 169 144 127 170 151 140 152 164 151 110 175 116 158 103 123 141 92 151 146 101 160 144 122 92 141 111 135 132 134 106 146 122 113 135 140 146 154 166 157 104 128 
75 122 138 128 129 121 185 138 126 135 126 143 120 112 105 107 119 135 105 105 134 112 120 125 117 132 100 157 156 121 134 139 118 114 117 105 149 140 146 134 90 115 120 164 137 120 114 152 141 111 121 145 136 122 150 151 143 160 118 147 108 123 131 127 160 136 138 122 132 130 115 132 116 132 111 185 147 134 107 114 
143 135 132 132 129 139 134 149 145 115 88 119 83 94 147 150 102 142 130 119 135 140 148 110 130 153 154 161 111 129 156 145 120 109 158 127 131 166 129 136 116 132 132 152 145 158 110 111 149 127 135 149 138 86 119 104 129 138 165 112 157 117 140 114 132 165 136 116 129 129 162 147 125 149 188 164 129 128 120 131 
116 114 147 133 127 138 149 121 120 141 137 149 112 120 129 126 138 158 123 148 109 139 128 81 120 130 123 130 166 145 111 135 95 137 125 146 137 154 128 100 117 121 98 113 125 121 161 94 135 120 126 119 113 118 103 109 75 132 150 131 147 144 162 118 111 117 126 141 121 147 128 121 148 140 105 149 128 92 122 116 
124 159 54 101 143 139 105 147 107 152 98 120 103 114 138 129 94 141 103 132 95 128 131 148 146 128 150 113 113 143 132 128 123 128 123 133 103 159 118 112 109 144 113 167 148 122 162 130 163 153 167 165 148 141 121 139 92 108 138 139 147 129 111 123 125 151 133 156 121 124 117 127 154 128 123 133 154 152 123 126 
94 150 121 98 104 149 124 113 152 95 104 165 98 121 100 82 138 119 112 120 116 75 107 102 126 129 130 111 120 129 123 105 145 108 148 100 113 110 105 139 113 134 140 76 138 147 167 109 72 135 120 123 116 152 94 125 165 133 101 118 98 108 120 138 114 112 132 127 123 168 104 111 108 136 157 87 125 120 127 163 
80 133 125 132 121 107 169 137 133 93 90 102 102 116 100 129 100 154 102 77 130 107 101 154 158 122 135 122 109 124 110 95 119 75 120 124 87 125 139 128 91 169 136 103 156 122 133 109 122 94 102 109 104 111 164 156 139 91 105 157 73 140 134 135 96 132 63 117 129 97 121 155 120 150 118 82 108 79 127 101 
123 73 120 104 102 88 50 101 112 105 140 95 109 98 117 93 109 116 71 103 92 109 103 131 134 129 122 118 97 122 134 129 96 114 125 134 102 115 120 115 130 128 114 122 96 134 123 123 107 78 109 102 122 139 118 128 143 105 115 121 99 115 112 124 143 98 114 137 116 119 102 82 101 121 122 153 102 122 82 102 
104 86 93 111 112 119 108 125 120 96 135 110 71 110 81 103 107 102 94 133 96 93 106 104 115 102 105 143 133 111 82 116 115 97 78 98 90 94 63 92 142 113 125 142 81 95 111 111 121 114 114 85 117 133 116 149 105 106 110 82 125 144 98 118 144 88 97 105 111 87 79 131 91 115 121 86 115 114 104 100 
71 124 97 54 85 96 86 104 114 82 98 96 100 103 79 87 125 138 139 104 155 114 91 119 90 129 97 128 118 94 103 102 99 98 87 111 118 94 87 126 88 114 120 83 87 130 82 110 94 78 103 110 123 84 136 103 94 114 138 62 121 136 98 112 103 128 103 108 126 90 97 85 133 109 129 104 100 83 109 109 
96 109 70 55 110 89 169 107 106 78 107 128 77 95 88 42 68 106 114 121 114 146 134 109 111 88 123 119 88 110 105 109 103 130 152 110 112 115 89 109 110 82 121 75 100 98 129 122 114 115 80 96 124 115 133 103 93 69 122 103 118 124 123 127 120 67 125 84 77 101 111 107 138 100 88 140 88 95 120 66 
127 123 81 114 95 79 114 94 79 114 82 102 103 95 94 119 98 99 111 77 89 101 104 97 96 113 85 109 91 129 72 109 77 100 123 91 97 98 123 131 112 70 73 93 109 102 121 69 72 116 75 124 93 117 111 83 108 117 96 131 124 102 108 102 117 120 90 72 124 110 74 107 91 92 121 93 132 132 134 107 
90 92 82 132 109 122 75 95 95 82 75 97 62 112 88 80 90 118 146 95 112 96 106 68 103 99 115 77 86 98 84 71 81 80 107 97 97 78 99 53 79 93 132 87 91 117 87 104 69 124 105 107 133 104 121 81 92 93 75 107 99 107 85 69 128 80 83 113 163 99 106 77 81 99 90 79 111 99 95 93 
101 118 110 95 95 48 97 87 127 106 99 65 81 121 96 95 74 93 69 62 60 118 99 76 62 80 90 98 107 135 100 85 94 131 105 85 122 80 99 79 133 122 100 115 98 95 75 118 64 117 96 88 115 101 83 90 83 116 69 74 80 122 71 70 105 103 62 91 96 77 73 117 142 104 124 124 104 95 79 41 
58 93 115 82 130 86 107 71 92 115 84 74 89 98 85 72 89 71 108 62 92 96 77 93 103 76 90 95 98 84 84 105 90 97 70 70 82 65 83 86 113 67 104 88 77 113 109 100 81 76 92 92 145 59 79 112 98 100 86 95 107 110 99 126 124 128 92 82 78 92 71 72 77 77 112 103 63 84 74 86 
97 107 89 84 117 99 108 88 86 102 117 100 84 94 69 101 84 74 121 83 102 86 119 92 86 62 124 107 131 88 110 67 98 81 110 63 27 89 72 100 88 106 78 65 29 78 65 100 71 83 54 92 57 71 75 93 115 60 108 83 118 95 92 106 129 103 111 82 78 110 56 74 111 94 76 90 102 84 159 90 
122 78 100 83 106 64 93 58 80 81 75 67 86 72 92 89 104 101 96 86 74 63 98 55 60 115 97 105 104 107 91 85 86 119 82 68 100 112 101 77 65 122 105 86 112 90 81 70 97 95 59 98 114 133 117 77 60 88 123 66 83 79 86 77 66 93 104 82 102 76 94 73 68 74 82 96 113 113 100 101 
124 78 78 87 93 73 106 64 83 92 85 85 92 74 76 49 62 85 94 59 102 54 68 85 117 72 94 65 91 98 62 75 96 49 77 83 97 89 64 114 78 81 104 95 111 103 108 98 85 125 53 92 59 94 97 84 101 77 113 96 118 54 80 101 78 84 84 57 48 81 98 100 76 63 88 74 118 120 83 67 
81 64 96 109 86 75 110 82 93 54 79 85 78 81 81 67 67 89 51 85 104 109 100 67 69 57 96 82 73 64 51 80 65 70 92 59 74 78 94 96 51 42 68 79 36 74 85 73 54 86 55 70 93 72 97 113 55 39 52 111 70 109 109 51 89 107 59 95 72 63 86 77 82 101 83 76 91 108 81 82 
79 99 106 46 112 44 78 62 55 80 83 66 73 78 78 89 70 77 97 68 64 86 97 55 78 93 67 60 98 76 71 72 83 103 59 86 102 60 84 74 85 89 76 91 81 76 89 81 34 60 85 78 69 58 106 54 62 88 86 69 71 80 79 75 36 64 84 61 113 96 57 81 49 44 103 62 77 68 63 81 
81 61 86 85 80 85 73 50 95 89 50 56 74 52 71 73 57 36 118 71 47 95 56 45 128 98 95 90 80 71 75 93 86 81 52 41 81 72 65 55 97 79 67 51 77 56 64 79 84 93 90 27 26 113 78 73 91 71 110 99 86 60 82 70 91 82 61 51 52 54 93 73 88 103 77 48 106 88 55 81 
59 97 80 84 66 58 33 52 81 75 36 55 81 42 59 80 76 58 79 82 95 59 96 95 62 48 58 72 75 67 72 51 69 67 51 77 64 97 35 58 83 84 81 40 95 102 77 40 72 91 108 77 62 70 56 73 88 62 52 65 78 81 59 92 46 77 69 65 43 62 76 93 111 118 25 63 62 60 106 72 
83 66 54 69 76 62 100 40 35 74 91 68 61 50 69 75 48 92 33 49 64 83 69 69 44 71 70 82 80 47 101 72 82 60 91 84 57 42 77 50 87 69 26 80 98 58 42 67 23 87 68 86 66 82 70 75 75 60 83 100 55 58 78 58 63 57 86 83 73 76 19 47 110 98 54 69 45 78 58 63 
62 73 88 36 40 120 112 65 54 55 90 48 47 69 71 84 70 46 77 91 88 75 43 10 92 57 104 91 66 66 92 66 74 79 74 108 72 66 57 67 59 45 80 75 63 66 45 40 53 107 52 86 57 107 55 85 55 77 86 84 39 49 101 69 84 67 54 76 69 83 65 74 15 52 80 67 64 62 41 43 
82 63 30 68 42 78 58 57 54 41 61 28 63 79 54 58 62 61 76 71 73 87 71 73 81 81 78 52 78 49 38 33 61 86 54 54 57 74 64 27 82 80 44 70 93 59 30 81 56 31 49 49 47 66 64 43 74 57 50 57 75 58 67 80 49 56 46 98 90 43 60 49 68 48 33 60 22 36 57 42 
28 90 52 47 31 86 42 51 62 62 76 51 68 69 60 54 30 68 88 66 53 51 73 69 71 55 59 73 66 80 62 77 74 66 70 69 54 82 52 67 78 43 60 60 56 42 50 52 51 90 63 76 70 83 74 74 34 85 62 81 42 44 79 55 76 70 73 60 51 46 48 66 57 89 50 82 60 55 54 42 
57 52 76 84 52 39 49 39 60 68 39 0 56 46 69 70 45 69 40 54 38 71 68 75 32 61 36 50 51 65 61 44 90 20 67 61 104 32 62 34 26 6 57 61 40 79 95 39 39 48 71 47 31 71 40 51 83 55 54 75 49 48 64 42 67 83 72 71 88 63 52 43 9 62 38 52 27 55 89 53 
56 54 58 34 54 59 71 45 64 78 28 49 48 29 84 46 45 67 67 85 32 50 32 49 82 59 56 11 50 55 38 39 9 51 47 9 43 52 63 79 57 35 24 87 36 33 35 54 79 64 85 93 85 69 79 65 29 44 62 54 40 38 43 82 40 82 60 20 54 61 87 40 47 32 74 54 58 28 45 70 
79 45 24 32 11 21 56 65 53 38 32 39 48 105 61 41 88 63 35 45 21 78 45 51 55 56 24 51 35 38 43 63 43 65 73 57 51 49 46 53 66 71 11 52 54 40 48 29 51 18 21 62 73 26 60 39 22 43 28 42 88 111 44 48 59 39 53 77 41 35 50 62 60 43 68 51 35 39 70 20 
47 49 48 17 65 52 69 33 57 48 33 39 60 53 28 62 50 54 21 42 80 31 61 70 24 57 55 67 18 59 47 100 50 64 7 28 62 44 56 45 48 63 11 80 18 48 43 27 75 16 54 20 42 61 61 53 20 39 34 50 54 15 39 60 53 77 61 58 48 58 43 48 41 50 59 81 42 44 32 72 
34 22 33 43 39 28 22 23 21 61 24 57 45 48 40 16 52 13 49 47 44 49 45 40 43 77 24 57 45 59 87 53 76 68 21 33 44 45 53 52 28 37 14 44 18 45 0 37 64 0 54 62 59 31 72 54 28 20 34 11 70 56 88 38 46 48 41 40 49 20 57 51 23 16 59 43 49 60 58 33 
5 31 45 44 62 82 88 36 45 67 38 34 33 27 23 50 31 39 33 46 52 21 37 39 63 45 52 0 69 21 33 59 50 49 53 58 76 1 73 0 67 66 20 54 42 52 49 31 41 29 12 14 15 17 49 62 46 41 23 47 46 15 55 38 29 42 27 47 47 16 63 71 28 49 32 67 45 65 36 49 
55 64 28 24 31 37 20 60 61 43 51 11 43 38 32 54 44 45 41 10 41 46 53 82 37 32 53 24 12 29 41 55 26 52 78 35 9 33 4 22 48 45 22 18 38 42 79 43 41 54 41 34 37 0 37 55 54 60 37 47 28 24 27 79 41 25 52 43 73 47 36 75 31 29 7 64 16 39 34 45 
32 2 22 11 43 50 24 39 3 33 17 48 75 69 2 0 55 20 49 20 57 5 23 31 19 31 2 43 27 34 55 35 43 41 0 57 0 36 22 11 41 10 25 17 50 63 2 22 0 94 27 4 27 50 38 19 33 58 17 52 26 65 8 31 19 10 81 81 31 45 55 3 27 68 10 57 49 45 79 2 
48 0 12 57 33 20 63 0 17 30 37 1 38 33 75 0 0 15 18 53 40 36 46 59 31 50 70 16 2 54 14 21 37 29 32 61 42 25 67 25 43 22 36 14 42 25 24 53 34 58 44 33 42 27 87 10 33 30 31 25 16 0 17 44 23 5 40 39 22 56 17 25 26 51 37 32 42 21 0 57 
21 31 0 12 20 38 37 55 34 0 36 15 25 0 0 15 54 10 46 57 56 36 12 30 34 17 26 0 40 17 4 38 60 45 63 11 23 30 38 52 29 27 54 41 44 17 45 36 31 0 21 6 18 26 38 29 63 33 47 27 0 32 45 10 12 58 17 56 0 24 40 54 37 30 17 35 46 22 64 64 
27 22 22 9 53 34 20 0 27 3 19 31 24 7 60 33 34 0 5 34 12 0 19 6 36 0 0 28 17 26 8 0 37 18 38 17 18 4 29 25 50 40 6 35 0 17 64 20 34 27 3 20 30 11 34 10 17 48 32 37 35 56 37 4 10 49 68 48 49 0 22 14 45 27 37 39 55 66 22 15 
26 28 6 10 26 25 38 46 34 58 38 48 37 2 20 32 36 19 36 0 0 16 39 21 35 0 37 35 14 0 32 16 7 47 75 9 11 0 0 0 15 15 39 29 0 30 35 16 3 0 14 9 0 55 44 38 21 15 46 19 0 27 19 43 10 24 29 17 4 59 48 22 42 2 11 44 30 10 0 29 
22 6 73 0 0 15 0 1 0 41 39 22 35 25 24 0 34 38 26 32 13 31 0 0 21 37 4 34 7 4 0 0 21 7 22 28 28 26 30 45 21 7 10 29 30 27 0 0 35 39 29 20 8 23 39 24 0 25 14 0 16 0 26 0 24 29 41 12 10 13 35 15 18 45 13 5 33 19 3 33 
25 35 26 26 14 0 0 0 18 0 12 0 4 53 23 12 0 0 14 30 27 13 56 3 0 0 0 7 62 0 26 31 50 26 51 25 29 0 0 53 24 12 0 27 0 19 27 66 26 57 33 36 46 29 15 21 23 0 0 0 25 0 0 9 39 0 27 42 20 28 3 13 19 41 69 36 19 0 16 16 
