P2

20 20
255
253 234 255 234 255 255 255 245 255 255 255 255 255 255 253 249 242 255 237 202 
228 233 203 244 226 243 240 230 242 255 250 229 255 255 237 255 255 243 238 255 
205 229 222 232 255 231 223 225 219 200 212 246 253 205 212 255 234 228 255 192 
230 219 229 196 241 230 191 217 237 215 211 199 217 197 233 218 220 218 219 241 
204 233 229 216 209 208 209 170 226 203 225 226 193 207 247 205 222 150 233 202 
186 187 184 227 213 204 171 206 206 193 177 176 181 213 188 219 188 189 187 190 
206 193 196 209 150 200 184 163 216 197 186 181 146 194 232 199 144 163 141 163 
168 166 194 189 211 162 150 177 177 129 168 194 202 164 192 187 175 179 171 167 
130 163 187 176 143 131 147 153 150 143 203 110 164 154 123 175 159 150 164 192 
144 143 129 152 138 116 151 154 186 136 151 119 142 122 164 156 132 163 162 163 
133 135 147 112 109 123 129 129 143 137 133 135 133 136 121 135 121 145 130 119 
139 87 138 143 120 134 92 118 90 111 125 94 131 137 108 79 103 133 91 145 
136 111 133 82 81 113 116 101 97 83 108 80 112 103 119 71 119 110 122 114 
104 124 85 94 122 120 89 78 92 90 92 100 97 100 97 114 106 122 75 100 
108 136 98 126 102 123 89 29 87 77 129 107 86 118 85 125 67 106 91 52 
85 47 81 71 85 78 82 62 99 61 90 39 103 75 71 71 51 38 65 78 
28 66 88 70 65 76 60 67 56 66 98 47 74 76 63 82 93 44 63 47 
30 79 50 0 48 36 57 25 15 74 30 57 43 73 94 45 40 74 34 43 
15 61 53 42 5 41 47 60 15 37 60 51 20 16 21 54 26 36 1 71 
9 0 8 74 47 32 29 0 42 37 51 54 0 34 0 19 35 0 0 38 
