P2

10 10
255
255 255 255 255 255 255 255 255 255 255 
230 230 230 230 230 230 230 230 230 230 
205 205 205 205 205 205 205 205 205 205 
180 180 180 180 180 180 180 180 180 180 
155 155 155 155 155 155 155 155 155 155 
130 130 130 130 130 130 130 130 130 130 
105 105 105 105 105 105 105 105 105 105 
80 80 80 80 80 80 80 80 80 80 
55 55 55 55 55 55 55 55 55 55 
30 30 30 30 30 30 30 30 30 30 
