P2

20 20
255
255 255 255 255 255 255 255 255 255 255 255 255 255 255 255 255 255 255 255 255 
243 243 243 243 243 243 243 243 243 243 243 243 243 243 243 243 243 243 243 243 
231 231 231 231 231 231 231 231 231 231 231 231 231 231 231 231 231 231 231 231 
219 219 219 219 219 219 219 219 219 219 219 219 219 219 219 219 219 219 219 219 
207 207 207 207 207 207 207 207 207 207 207 207 207 207 207 207 207 207 207 207 
195 195 195 195 195 195 195 195 195 195 195 195 195 195 195 195 195 195 195 195 
183 183 183 183 183 183 183 183 183 183 183 183 183 183 183 183 183 183 183 183 
171 171 171 171 171 171 171 171 171 171 171 171 171 171 171 171 171 171 171 171 
159 159 159 159 159 159 159 159 159 159 159 159 159 159 159 159 159 159 159 159 
147 147 147 147 147 147 147 147 147 147 147 147 147 147 147 147 147 147 147 147 
135 135 135 135 135 135 135 135 135 135 135 135 135 135 135 135 135 135 135 135 
123 123 123 123 123 123 123 123 123 123 123 123 123 123 123 123 123 123 123 123 
111 111 111 111 111 111 111 111 111 111 111 111 111 111 111 111 111 111 111 111 
99 99 99 99 99 99 99 99 99 99 99 99 99 99 99 99 99 99 99 99 
87 87 87 87 87 87 87 87 87 87 87 87 87 87 87 87 87 87 87 87 
75 75 75 75 75 75 75 75 75 75 75 75 75 75 75 75 75 75 75 75 
63 63 63 63 63 63 63 63 63 63 63 63 63 63 63 63 63 63 63 63 
51 51 51 51 51 51 51 51 51 51 51 51 51 51 51 51 51 51 51 51 
39 39 39 39 39 39 39 39 39 39 39 39 39 39 39 39 39 39 39 39 
27 27 27 27 27 27 27 27 27 27 27 27 27 27 27 27 27 27 27 27 
