P2
#output from hocrtest
70 70
255
249 244 248 242 253 253 252 250 252 252 253 255 255 255 255 253 247 248 240 
234 244 247 237 255 249 255 249 242 246 249 248 249 254 252 252 255 253 254 
253 251 241 248 242 253 252 253 250 249 245 242 251 255 250 242 243 254 255 
250 254 242 249 250 249 246 251 248 240 243 246 249 247 245 247 246 251 251 
249 249 250 250 252 255 255 255 255 255 250 246 246 247 249 251 248 255 249 
246 244 241 243 245 248 251 254 252 252 253 251 253 253 248 245 243 244 248 
251 251 250 249 247 250 251 253 251 247 246 251 252 248 250 248 250 249 247 
246 248 245 242 242 240 239 248 247 249 250 251 249 249 248 247 246 249 252 
255 255 253 252 249 247 247 248 248 251 249 248 242 238 239 239 240 242 245 
245 247 247 247 249 249 250 250 249 246 244 243 245 245 246 251 252 251 251 
253 250 249 248 249 248 246 247 247 248 247 248 247 245 244 242 243 243 242 
243 249 250 250 250 250 249 245 244 244 245 249 249 251 251 249 246 242 242 
242 245 246 245 245 242 238 235 234 236 236 240 242 243 244 242 241 244 243 
241 240 238 242 242 243 244 245 245 248 248 249 252 253 251 250 248 248 245 
238 237 239 241 243 245 245 244 244 243 242 239 235 237 251 253 253 255 251 
249 244 239 241 241 244 248 247 248 244 241 240 242 242 239 243 240 242 238 
238 238 236 234 234 234 236 236 242 242 242 240 238 235 238 241 241 243 244 
245 243 242 241 242 243 246 248 248 250 247 245 243 240 238 238 239 239 239 
236 233 235 235 234 231 230 235 244 246 246 248 248 240 238 237 235 236 239 
242 244 241 238 239 236 236 232 234 235 235 232 234 233 236 233 233 232 231 
229 232 237 240 240 240 238 237 242 248 244 245 243 241 237 238 236 234 234 
238 240 241 243 245 240 239 237 235 235 235 237 238 237 235 233 232 230 230 
229 228 243 242 242 242 240 236 235 235 233 237 239 239 239 237 237 239 235 
234 234 234 233 232 232 235 232 233 232 233 232 229 230 233 236 236 234 235 
236 235 240 247 245 243 243 242 239 235 235 234 230 232 234 238 237 236 231 
226 228 229 231 231 232 234 234 234 233 231 230 230 233 237 240 241 243 242 
238 236 233 231 231 233 237 235 235 233 230 231 231 227 230 232 230 228 229 
230 228 230 230 229 228 229 229 232 233 234 234 234 234 235 235 235 235 233 
231 228 232 234 232 231 229 226 229 233 231 229 228 223 224 226 227 227 231 
232 232 231 232 233 232 230 230 231 238 239 236 239 231 227 225 228 230 232 
236 233 232 230 230 230 229 228 227 226 225 222 223 228 229 229 228 229 229 
232 231 232 229 229 227 227 227 225 226 223 222 223 222 223 229 230 230 228 
231 226 229 231 230 229 227 225 223 225 226 225 229 232 233 231 232 231 231 
231 229 228 233 234 235 236 228 223 219 218 225 228 229 227 226 228 228 227 
223 221 221 222 224 225 222 225 228 226 224 225 227 229 228 225 225 224 223 
227 228 225 225 223 222 221 219 221 222 223 225 227 227 229 230 229 227 226 
227 229 228 224 220 221 225 224 225 225 227 226 227 226 227 228 230 231 232 
231 226 225 220 215 219 222 221 220 221 222 224 224 220 218 214 218 221 229 
225 224 225 224 223 221 224 224 224 223 224 228 228 229 230 228 227 224 222 
220 217 219 221 221 223 224 224 227 227 227 226 229 230 231 229 227 225 221 
221 221 221 221 224 227 227 223 220 219 224 225 228 230 223 220 220 219 220 
220 219 215 216 219 220 219 216 215 214 213 218 221 219 218 219 218 218 217 
219 222 224 223 221 221 226 228 225 226 223 216 216 215 213 214 215 213 216 
217 214 219 221 227 227 230 232 229 229 227 225 221 219 218 219 215 218 222 
223 219 219 216 225 226 226 227 225 221 219 218 216 216 217 214 212 216 222 
222 220 214 212 210 210 213 211 210 213 213 212 211 212 215 219 220 222 221 
220 220 219 220 218 216 212 206 204 207 209 212 214 212 210 214 214 215 219 
221 221 222 220 220 218 215 216 216 216 216 219 220 223 222 223 228 223 222 
219 219 219 216 218 218 216 217 215 212 210 215 221 223 223 216 214 210 210 
211 210 211 212 211 211 207 208 209 211 218 222 221 221 223 222 221 216 214 
207 200 196 204 203 208 209 212 213 211 211 212 214 218 215 212 214 215 215 
213 212 209 209 211 215 217 219 220 215 214 218 216 216 215 214 210 209 215 
213 213 209 208 205 208 212 216 215 213 212 208 207 208 209 212 211 210 208 
206 206 207 207 220 222 218 216 218 219 219 215 211 203 202 200 201 205 209 
213 213 212 213 213 214 214 213 212 210 210 210 212 213 211 206 204 208 212 
213 213 215 217 221 207 209 209 210 209 208 207 207 206 206 201 202 202 202 
206 209 209 210 209 208 208 207 209 210 207 208 206 206 204 207 211 218 219 
215 214 215 213 210 206 204 200 200 199 201 205 207 206 209 208 205 207 211 
209 213 213 211 211 210 210 208 206 203 203 207 206 207 207 209 209 211 207 
206 204 206 208 211 212 213 209 207 204 203 203 201 202 204 204 205 201 205 
201 202 208 211 212 207 208 203 202 205 208 211 212 209 208 208 207 206 206 
206 201 197 199 203 203 202 202 206 206 204 204 209 209 212 214 206 205 206 
206 206 205 200 199 200 201 205 209 212 212 209 202 202 204 207 207 211 209 
209 211 207 205 202 203 204 203 203 204 200 196 200 197 202 206 209 209 208 
207 203 203 206 207 206 206 209 207 206 208 207 207 204 197 194 197 200 203 
202 204 207 205 205 200 201 199 203 204 199 199 199 199 197 198 194 194 197 
199 202 201 205 208 208 202 204 205 207 208 209 205 206 206 206 210 208 207 
208 206 203 205 201 197 200 199 202 204 210 206 205 205 203 202 200 199 201 
200 199 201 206 205 206 206 200 196 193 194 198 199 199 201 202 201 200 197 
197 196 198 198 197 197 195 194 195 198 199 198 198 199 198 199 201 207 210 
204 205 204 206 206 202 202 207 207 208 211 210 206 205 201 196 196 194 195 
197 200 200 203 206 206 204 204 204 204 203 202 200 199 199 199 203 204 203 
201 200 198 194 195 194 193 194 196 196 194 194 194 192 190 193 195 194 198 
198 194 197 199 198 199 196 197 199 199 202 208 207 202 204 199 194 190 188 
192 197 204 207 212 211 205 203 200 198 197 197 196 196 198 201 207 203 204 
198 195 196 194 196 196 193 196 198 198 201 201 200 201 199 198 192 190 187 
188 189 189 191 191 190 190 188 188 190 195 193 197 194 195 198 197 199 197 
193 192 193 192 191 193 191 203 201 201 199 196 196 196 197 198 201 203 204 
201 200 197 194 197 197 193 192 195 198 198 195 196 194 190 191 187 189 191 
191 192 194 195 194 196 194 197 200 200 191 187 184 185 185 187 188 186 184 
183 183 183 185 191 192 193 190 190 194 197 197 197 192 189 188 186 185 185 
185 198 197 197 197 194 193 193 190 190 193 197 196 193 191 188 187 186 186 
189 190 190 192 192 191 192 192 190 188 184 185 185 185 187 188 192 193 198 
195 197 199 198 192 187 186 184 184 186 185 184 183 182 182 182 186 190 193 
191 191 188 188 188 186 185 184 185 187 188 189 189 187 191 195 194 193 194 
194 193 191 187 187 189 186 187 187 185 186 183 184 186 187 189 189 189 191 
192 193 191 190 188 181 177 181 181 184 188 189 193 193 192 196 192 191 186 
186 186 184 186 186 186 187 186 185 183 184 189 186 186 189 188 188 186 183 
181 181 181 187 186 186 186 188 188 187 189 189 189 192 194 190 186 184 184 
180 182 186 187 183 176 178 183 184 185 187 187 188 188 189 189 187 186 184 
179 180 183 183 186 186 191 191 193 192 190 190 186 187 186 187 188 186 184 
181 180 181 181 181 183 182 181 182 181 184 184 179 178 179 177 177 181 184 
185 188 186 188 189 189 186 186 187 190 187 185 187 184 186 185 182 178 172 
175 181 181 185 188 188 185 186 187 187 185 181 176 172 172 174 177 183 185 
190 191 188 190 189 187 184 186 187 186 184 183 180 175 176 182 185 185 183 
183 183 183 179 179 179 178 180 181 180 176 178 180 182 183 185 183 183 183 
184 185 184 186 184 184 184 186 187 185 182 178 174 174 178 181 180 187 190 
188 186 184 180 176 171 169 170 172 173 177 185 188 185 186 187 187 187 184 
185 186 185 181 181 181 178 175 175 181 185 184 184 183 181 179 176 174 173 
174 178 181 182 179 178 179 182 182 188 184 179 175 178 180 181 183 181 184 
182 181 183 184 187 183 178 174 172 175 179 178 180 181 180 177 173 167 163 
164 166 165 166 173 173 175 174 175 175 174 176 178 178 177 181 181 179 175 
175 170 169 171 171 176 176 173 176 176 174 172 169 169 171 174 175 173 174 
173 175 175 185 179 174 169 170 175 176 175 174 176 177 176 180 184 188 183 
174 167 163 166 170 174 173 174 173 172 170 163 159 157 158 157 160 165 166 
166 168 167 169 172 171 171 171 172 173 174 175 172 174 175 171 169 169 171 
172 171 170 172 171 169 168 170 173 175 172 174 174 173 175 181 181 176 172 
171 172 171 170 168 166 162 168 170 173 178 181 181 177 172 168 166 166 168 
166 166 166 165 165 160 157 154 155 157 160 162 164 164 166 167 166 168 167 
166 169 168 168 171 172 173 175 175 175 172 168 165 163 165 165 167 168 167 
170 170 171 172 171 173 174 170 169 171 171 170 169 170 169 168 169 167 163 
159 161 162 167 174 177 171 173 167 165 162 161 163 163 167 169 167 164 157 
156 154 155 159 157 156 158 160 162 162 165 166 167 166 167 165 166 168 169 
172 174 174 171 170 167 160 157 158 158 160 164 164 165 164 162 166 168 172 
173 170 170 170 160 163 164 163 163 167 167 163 158 158 157 162 166 170 174 
174 172 169 170 167 160 161 161 164 163 161 159 156 156 155 153 156 152 153 
156 158 161 162 165 162 161 162 160 163 165 167 162 161 163 166 167 168 164 
159 155 154 154 158 160 160 159 163 160 161 165 169 166 166 167 168 158 159 
158 154 153 157 157 155 150 152 155 158 158 160 164 168 168 164 162 159 157 
157 155 158 156 155 156 151 150 149 150 151 152 153 154 155 152 156 160 160 
160 158 156 156 156 158 155 151 150 150 157 157 152 148 151 155 158 161 158 
159 160 162 160 158 160 160 164 162 160 158 154 156 157 155 152 152 151 149 
144 145 144 146 153 153 156 160 161 158 155 151 151 153 154 158 158 159 157 
155 154 148 152 154 154 155 153 154 151 150 151 153 156 156 155 154 154 152 
153 147 147 150 151 145 140 140 143 148 150 154 154 156 157 157 156 157 159 
160 162 161 160 158 155 157 157 158 154 151 149 147 145 149 146 147 150 155 
159 160 160 156 151 147 147 146 148 151 155 154 156 157 155 155 155 154 154 
152 152 150 146 148 149 154 156 157 154 153 150 148 150 144 143 145 143 143 
140 141 143 148 149 150 151 154 157 155 154 154 156 157 158 158 162 160 150 
151 154 153 151 148 146 142 142 144 147 148 149 149 151 151 151 149 142 140 
137 135 140 145 150 148 151 153 154 150 153 158 154 150 150 151 151 150 149 
154 155 156 154 155 152 150 148 150 148 148 142 141 142 145 145 147 147 149 
150 154 156 155 154 152 152 153 154 157 157 158 151 149 146 145 147 144 142 
137 140 143 144 144 144 144 145 147 145 141 138 137 136 136 138 145 150 152 
151 152 151 153 157 156 152 151 152 151 148 150 152 149 150 150 150 154 152 
149 149 149 147 145 142 142 146 144 150 153 150 150 145 148 151 152 149 146 
145 149 151 152 148 148 148 145 141 140 143 141 140 139 141 144 143 139 140 
140 144 146 145 142 137 134 136 137 137 146 149 150 149 147 144 146 149 147 
143 146 149 147 143 144 144 143 142 144 144 149 149 149 148 145 142 141 139 
143 147 150 150 156 155 151 148 147 142 143 143 138 140 144 144 143 146 146 
137 131 132 135 133 137 138 140 141 143 143 140 141 142 139 140 140 139 140 
140 142 141 143 143 143 142 136 136 137 136 141 145 144 145 146 148 148 148 
144 138 135 132 134 139 141 143 145 143 140 138 141 144 144 145 146 149 150 
145 142 142 140 141 142 140 140 140 141 139 145 147 135 132 127 128 128 129 
130 136 140 141 138 137 140 140 139 138 135 137 138 142 143 145 144 141 141 
139 135 132 128 130 133 137 137 138 142 146 148 147 142 138 136 131 135 137 
139 138 139 139 138 138 139 144 145 144 143 147 147 143 139 141 141 143 145 
145 143 140 136 134 134 135 136 133 127 127 126 126 131 130 133 134 136 136 
136 136 138 139 137 133 135 134 134 135 136 136 131 131 129 129 127 127 126 
128 130 134 138 139 137 138 132 130 129 126 130 135 141 142 142 137 133 131 
134 137 138 139 139 141 143 140 137 138 139 140 142 141 139 138 134 132 129 
131 135 133 129 126 124 128 131 133 132 133 132 135 135 136 136 138 136 133 
132 130 128 126 127 129 124 126 123 125 127 126 129 130 129 132 134 133 131 
132 132 128 127 128 132 136 141 142 139 135 129 130 129 129 130 131 133 133 
135 134 132 132 132 137 140 136 134 135 133 132 132 136 136 134 126 125 125 
125 124 124 124 126 125 128 130 131 132 133 131 131 127 124 123 123 121 120 
123 124 122 125 123 122 125 129 134 133 132 132 130 131 130 129 130 132 131 
132 134 136 136 133 130 129 125 125 127 126 129 131 128 128 127 127 130 135 
136 133 132 132 128 129 128 131 133 132 125 125 124 123 121 120 122 121 118 
118 118 121 126 127 126 127 126 122 120 118 120 121 123 122 124 123 123 123 
125 127 129 127 127 128 128 127 126 128 129 126 126 126 126 128 127 125 126 
124 125 122 124 123 126 127 123 124 120 125 125 125 124 123 121 123 125 128 
128 134 127 126 123 120 118 116 117 119 124 125 124 122 116 115 113 110 108 
120 123 121 119 119 119 121 125 126 126 123 125 125 124 128 129 128 120 121 
124 124 121 123 123 123 123 121 121 123 122 122 122 121 123 122 121 120 122 
121 121 123 121 121 124 122 121 119 119 122 125 129 130 132 124 122 119 117 
114 112 114 116 124 124 121 120 117 110 108 110 113 121 124 125 118 114 113 
114 125 128 125 123 120 120 121 125 123 121 118 116 119 119 118 119 122 123 
121 121 121 122 122 120 120 122 123 122 120 115 115 114 119 117 116 112 112 
114 116 114 113 117 117 116 112 108 121 117 114 116 114 112 113 113 114 108 
107 109 109 111 109 116 118 121 123 124 121 116 118 117 120 121 122 118 115 
118 116 116 113 114 115 112 117 119 117 120 121 117 114 115 115 118 118 116 
116 115 116 116 120 121 120 119 121 118 113 109 106 108 111 112 114 118 121 
116 111 112 118 114 114 109 108 107 107 105 104 102 101 100 101 104 106 112 
115 118 121 121 119 116 113 112 114 115 119 118 116 114 110 109 109 112 112 
112 114 116 115 114 114 115 114 116 121 124 120 119 118 116 114 116 117 118 
118 118 118 115 114 111 108 109 108 110 112 118 118 116 110 109 119 117 116 
114 113 113 112 110 107 103 99 101 100 102 110 113 111 115 113 114 117 116 
115 111 114 117 120 120 115 114 113 109 105 106 110 112 113 116 115 114 113 
114 117 120 121 121 115 111 113 112 111 111 108 106 106 107 111 113 115 111 
111 110 107 107 110 114 114 113 112 111 123 122 119 119 121 118 113 111 110 
108 108 109 112 110 110 113 110 106 105 105 107 110 108 107 109 113 116 119 
112 110 105 104 103 101 104 109 111 114 116 114 111 111 110 112 112 112 111 
106 106 103 103 104 102 104 108 108 110 109 110 105 106 107 105 104 101 107 
108 114 119 118 124 124 118 110 108 107 108 108 107 110 109 109 111 110 108 
108 102 97 101 101 102 105 101 102 106 109 108 111 107 105 98 97 96 99 
103 106 107 110 108 108 107 110 111 113 110 106 107 102 101 102 102 101 100 
101 105 108 107 107 102 96 98 103 104 107 106 108 111 113 118 120 125 123 
116 110 107 105 102 101 106 106 108 108 109 110 109 110 107 104 101 99 99 
100 102 100 100 104 109 108 104 101 96 98 98 98 101 103 106 106 107 103 
103 108 106 106 101 99 100 97 97 97 95 93 93 94 98 100 103 102 99 
95 96 97 103 103 104 103 101 100 102 104 107 107 104 99 102 105 103 99 
97 101 105 107 110 107 106 110 110 106 100 96 93 95 99 97 99 103 105 
104 102 102 96 96 97 99 98 98 100 103 108 107 103 107 107 108 103 102 
102 97 97 91 90 88 88 90 92 93 94 96 92 89 91 90 93 99 99 
98 97 98 97 98 94 92 91 91 96 99 99 98 98 99 101 108 106 105 
107 106 106 103 98 94 91 91 93 96 100 102 101 98 96 97 93 97 99 
101 97 96 95 97 100 100 102 106 104 107 100 95 91 89 93 89 88 84 
87 87 88 86 84 88 89 89 92 91 91 93 94 92 91 92 92 93 89 
88 87 89 91 92 92 91 90 92 94 96 95 95 98 99 99 99 99 98 
97 94 92 92 92 95 93 94 88 87 92 95 98 101 99 99 95 94 96 
96 93 96 97 97 95 93 92 91 91 89 86 81 84 85 87 89 85 85 
83 83 84 84 86 89 90 90 90 92 90 89 88 85 81 81 79 81 83 
83 82 86 85 84 86 89 92 94 94 100 100 95 93 91 87 85 83 84 
83 84 84 87 92 94 96 98 94 92 91 90 93 93 94 93 92 92 91 
92 91 91 88 87 87 87 87 89 91 88 86 84 86 82 83 87 89 90 
88 86 87 87 87 88 79 81 78 74 76 77 78 80 81 79 78 80 81 
83 85 93 96 98 99 95 95 91 84 82 81 82 82 84 86 87 89 89 
91 90 89 88 88 84 84 86 85 85 84 84 88 87 86 85 83 81 82 
83 84 83 85 84 84 83 88 85 88 88 90 91 85 84 83 82 81 80 
80 80 83 81 82 79 78 77 77 77 76 82 76 78 84 91 93 90 89 
86 86 83 74 73 70 70 76 83 87 90 90 92 91 89 88 86 86 82 
79 80 82 82 82 85 86 84 85 84 85 84 84 82 81 80 81 81 85 
85 88 86 85 85 85 85 82 77 73 72 74 74 85 86 87 84 81 78 
79 78 78 80 84 84 84 86 83 85 85 82 84 80 82 81 75 76 76 
74 79 82 83 86 84 85 88 88 87 86 83 77 76 75 75 78 77 78 
78 77 79 83 84 86 87 82 78 78 79 78 79 80 83 83 81 75 74 
75 76 75 74 68 67 70 79 83 85 82 79 77 79 81 82 86 87 84 
84 83 83 83 77 76 81 78 76 76 73 74 77 78 84 88 86 86 77 
75 76 81 81 81 79 75 72 71 72 76 74 77 78 77 79 83 84 82 
83 79 77 74 77 75 76 73 71 69 67 66 67 68 70 71 71 67 65 
58 76 78 80 78 76 77 76 78 80 83 84 84 83 80 79 74 68 70 
73 75 74 75 71 70 73 73 78 82 84 79 72 69 67 69 69 73 73 
72 71 72 75 79 79 81 80 79 80 83 80 78 74 75 76 76 75 72 
70 67 63 61 63 66 66 65 64 66 68 70 75 77 74 75 78 77 76 
73 75 74 76 78 82 81 80 76 74 71 69 67 69 71 73 71 69 68 
67 66 68 71 68 66 65 65 64 60 65 67 66 67 68 69 73 80 84 
83 85 82 75 69 68 62 65 72 76 78 79 74 71 65 63 65 63 65 
65 66 65 66 70 70 73 69 71 70 70 71 72 70 70 71 73 71 73 
74 74 70 66 63 63 65 68 70 71 67 67 65 66 66 66 66 65 66 
67 65 66 61 59 63 64 65 65 66 72 77 79 79 78 78 72 67 64 
65 65 68 74 76 76 75 72 65 63 63 63 66 67 68 70 70 71 71 
73 74 74 70 69 68 67 67 65 64 69 69 69 69 72 68 67 64 67 
68 68 67 66 61 58 57 59 57 56 59 62 66 68 63 58 55 52 56 
57 60 60 61 65 67 66 68 68 69 68 63 63 67 71 75 78 79 79 
74 71 66 63 62 59 62 64 65 66 68 69 70 73 72 72 68 66 65 
66 63 62 60 61 61 63 62 67 65 66 66 67 66 64 64 61 58 57 
56 55 58 60 63 65 64 64 59 57 58 56 55 59 61 60 58 61 64 
64 64 65 63 62 60 60 63 65 71 77 79 78 71 68 65 65 61 58 
57 59 60 60 65 68 70 71 68 66 60 60 59 61 60 60 59 59 60 
64 65 63 62 62 61 63 60 59 60 60 58 57 53 51 49 55 60 60 
58 58 54 54 55 56 56 58 58 57 57 54 56 59 56 56 56 58 58 
58 60 59 63 67 69 71 72 69 69 64 62 56 55 55 57 56 60 65 
65 66 66 62 56 57 57 56 55 54 50 49 53 56 58 57 55 55 53 
57 59 57 56 55 56 57 58 55 56 61 61 59 55 54 54 53 53 54 
53 52 53 51 55 58 60 57 56 53 54 55 54 51 51 51 56 58 59 
59 57 56 57 58 57 49 50 54 54 54 56 59 57 57 58 54 54 55 
53 53 49 43 41 40 48 51 55 55 51 52 50 50 51 50 48 47 49 
53 54 53 56 61 63 58 56 54 54 52 49 50 46 46 46 45 51 54 
55 54 56 56 55 54 53 52 50 51 56 58 57 56 54 51 51 51 51 
48 50 55 57 57 59 60 58 58 58 56 55 54 53 54 47 44 40 38 
42 47 49 48 46 48 47 46 50 50 47 45 45 46 48 48 50 54 54 
55 52 49 48 45 45 47 45 44 41 41 45 50 52 54 56 53 53 52 
49 51 49 48 49 51 50 49 46 43 41 47 44 40 46 47 50 58 60 
63 61 63 60 55 56 56 50 45 40 39 39 37 38 44 46 46 45 47 
48 49 52 52 51 48 41 42 50 51 50 53 53 56 54 49 48 47 46 
46 44 41 39 40 42 50 53 55 55 52 51 54 50 49 49 48 50 49 
49 45 41 37 36 41 39 37 40 45 47 50 54 54 55 58 60 
