P2
#output from hocrtest
20 20
255
235 236 244 244 248 248 249 236 237 244 254 249 255 248 245 250 247 252 236 
217 228 232 231 237 239 242 240 230 231 237 248 246 252 244 244 247 249 247 
243 242 224 227 228 233 235 231 223 223 219 222 226 230 233 232 231 233 234 
234 232 224 222 222 220 221 221 221 214 217 216 215 211 212 217 219 222 221 
220 218 219 218 219 226 221 216 213 210 207 208 213 212 208 202 205 208 212 
209 207 199 200 200 197 198 201 209 207 203 188 192 195 194 188 189 191 202 
203 201 193 184 185 190 195 195 196 202 186 186 176 182 194 192 186 181 186 
196 201 198 180 171 160 160 171 177 180 187 175 162 168 173 177 169 175 175 
178 179 182 187 176 176 171 171 156 163 173 176 156 143 146 153 158 158 164 
155 164 166 166 169 160 165 172 177 144 145 148 152 138 125 136 143 146 144 
143 134 138 135 147 156 154 156 161 163 137 137 139 140 131 127 127 132 136 
137 134 135 133 127 126 127 128 129 130 123 135 133 132 129 124 119 112 111 
109 111 110 113 116 116 115 113 115 115 122 125 127 126 122 114 110 110 106 
102 99 99 105 105 111 110 108 103 110 112 116 113 119 119 112 108 108 104 
99 94 92 90 92 95 98 99 97 96 99 100 96 94 108 113 104 101 99 
96 89 84 84 84 93 93 90 91 85 89 87 91 88 85 83 81 81 80 
78 81 82 82 78 72 73 70 78 75 71 71 64 66 65 66 68 75 76 
70 68 69 69 66 62 61 59 61 65 66 69 63 51 51 52 51 59 65 
59 51 53 52 54 52 42 45 45 47 46 46 52 50 45 41 38 35 48 
54 53 52 48 47 45 35 35 39 45 48 29 24 25 39 40 41 38 40 
18 22 38 48 45 39 30 31 35 44 39 34 31 24 24 30 30 26 25 
27 
