P2
#output from hocrtest
80 80
255
252 246 254 249 251 247 246 242 250 255 255 255 254 255 255 252 246 244 241 
230 241 243 236 249 251 254 254 252 252 250 249 243 248 251 251 253 254 255 
254 255 250 253 254 255 251 255 251 250 251 244 251 251 247 244 244 247 244 
243 241 231 250 252 252 249 255 253 240 247 249 246 245 243 245 245 249 255 
251 255 255 255 250 251 255 252 248 245 244 243 250 255 255 254 253 253 254 
252 246 242 243 241 244 244 243 249 252 252 252 254 252 250 246 244 246 249 
251 253 253 255 255 255 255 255 255 253 251 254 253 253 255 255 255 251 247 
248 247 244 241 240 237 237 248 251 252 252 251 249 243 245 246 244 245 245 
247 249 251 252 251 253 250 249 244 248 251 249 245 243 241 241 244 247 250 
248 252 253 249 249 247 248 248 249 247 245 244 246 248 249 249 249 248 246 
244 243 245 246 250 252 251 252 253 252 253 252 251 249 247 249 250 251 254 
254 254 253 250 248 247 246 243 243 243 245 250 248 250 249 248 249 244 245 
244 245 245 244 246 246 243 240 239 241 239 241 245 248 247 242 241 242 242 
241 241 243 246 246 252 247 249 246 247 248 249 248 247 247 244 244 244 246 
244 242 241 241 241 243 245 249 250 253 253 250 245 246 248 250 251 251 249 
250 247 243 246 248 250 249 249 248 248 247 241 241 242 244 246 245 246 246 
248 248 248 247 247 244 243 241 242 245 240 237 232 233 238 240 238 241 245 
244 244 243 240 240 240 242 246 248 248 250 245 244 244 242 243 242 243 245 
239 233 235 233 232 232 233 239 240 242 243 246 250 249 246 246 242 242 243 
247 249 249 245 246 247 244 242 243 246 245 246 246 248 248 243 241 240 241 
240 241 242 245 247 245 244 245 247 245 244 243 240 240 236 235 234 232 233 
236 240 240 244 244 243 241 239 238 238 240 243 247 249 246 240 238 239 240 
244 241 243 243 239 235 232 230 231 232 235 239 242 244 243 244 246 248 243 
240 239 238 238 239 243 245 243 244 245 244 243 243 244 244 245 245 244 246 
244 243 240 241 243 242 243 242 242 241 241 241 238 238 240 242 239 238 234 
233 235 235 235 234 236 235 235 238 239 236 232 231 235 239 241 245 245 242 
239 240 240 237 239 241 240 238 237 231 228 230 232 232 236 240 242 241 240 
239 237 235 232 230 230 230 231 236 239 242 242 244 245 244 242 241 243 241 
244 244 243 242 239 236 236 235 238 240 241 240 240 237 238 237 235 236 236 
236 234 233 230 230 230 229 229 230 236 235 233 234 236 232 226 231 233 235 
238 237 237 235 238 239 241 239 240 237 231 226 229 230 231 234 234 234 236 
238 237 236 233 229 228 226 224 223 226 225 224 229 231 235 241 245 244 240 
238 235 238 238 239 240 240 236 235 232 235 233 235 237 238 240 237 236 237 
235 233 232 233 234 233 232 228 227 227 227 230 232 238 236 233 233 235 236 
229 229 230 229 232 231 228 229 235 233 233 233 233 231 227 223 223 226 228 
231 233 233 235 234 230 229 227 225 220 219 219 221 224 226 227 228 227 229 
236 240 237 233 231 233 232 229 229 229 232 232 232 234 234 236 234 231 233 
232 227 227 223 219 224 227 226 231 231 229 230 229 226 226 225 224 236 236 
235 235 237 238 237 233 231 226 226 223 223 227 229 229 229 228 226 226 225 
225 223 226 229 230 231 233 233 235 229 226 222 220 217 218 218 220 223 224 
223 225 225 228 235 239 235 229 224 223 222 220 223 224 221 223 228 230 228 
226 229 226 226 226 224 222 219 218 221 222 227 229 229 224 224 223 224 224 
225 227 233 233 231 235 240 241 237 235 230 224 220 220 220 223 224 223 221 
220 221 225 226 228 228 228 231 230 233 232 233 232 226 223 220 217 215 217 
220 218 220 222 222 225 223 226 232 234 227 222 218 213 218 217 217 216 217 
218 222 221 220 221 220 223 223 223 222 221 220 218 219 222 226 226 227 226 
223 221 221 223 225 226 226 224 222 225 227 233 229 228 223 221 215 213 215 
216 218 218 218 219 218 220 225 225 227 226 226 223 225 225 227 228 225 221 
216 215 216 217 221 220 218 220 219 218 219 219 222 224 219 218 219 213 213 
214 214 215 216 216 216 215 216 217 216 219 222 221 223 225 223 222 221 225 
225 222 221 220 217 214 214 219 223 226 219 217 216 215 213 220 224 224 220 
217 214 210 211 212 213 214 212 213 211 215 220 221 223 225 224 218 220 220 
220 221 220 216 214 215 218 218 217 217 216 215 213 215 216 216 217 218 213 
214 214 211 208 214 215 213 213 215 214 213 214 214 212 216 218 221 223 224 
222 223 222 225 224 222 219 216 214 212 210 212 217 220 218 216 212 212 213 
218 221 220 222 220 213 211 211 210 209 209 208 206 205 206 207 214 216 219 
220 218 217 215 215 214 212 209 211 213 212 214 213 214 216 218 216 215 215 
215 215 215 213 212 209 209 208 214 212 210 212 210 207 208 207 208 208 213 
214 219 222 220 218 217 215 216 216 216 216 217 215 214 212 212 214 216 215 
214 210 211 212 216 217 217 214 215 211 209 209 206 204 206 202 202 203 204 
204 205 215 219 222 220 218 212 210 210 209 209 210 210 210 210 210 214 214 
215 215 213 212 212 210 210 211 211 211 211 211 215 213 213 211 204 200 203 
206 211 212 212 212 211 213 215 216 216 213 212 213 218 222 221 218 220 219 
219 220 219 210 207 208 210 209 210 212 208 205 205 204 205 205 204 201 203 
203 201 205 206 208 204 207 214 217 218 215 212 208 207 204 203 204 205 208 
205 207 209 210 211 208 205 204 204 205 204 204 205 209 208 209 211 210 208 
207 204 202 206 207 210 212 213 213 213 213 212 207 204 206 207 214 217 220 
222 223 220 223 222 219 220 206 205 200 204 205 203 204 203 201 199 200 203 
203 200 199 203 202 203 207 203 204 202 202 206 207 206 205 206 203 202 197 
198 201 202 205 205 204 204 204 204 205 205 204 205 201 199 202 204 207 210 
212 215 213 214 214 210 213 214 214 213 213 214 213 213 210 207 202 198 201 
203 208 210 214 218 220 219 219 220 220 220 206 200 196 196 198 203 204 201 
201 203 203 204 203 199 196 198 200 200 198 199 200 200 198 199 198 194 199 
199 199 202 202 200 202 202 206 205 204 205 206 204 204 205 200 197 195 192 
195 199 205 207 211 214 212 210 210 209 210 211 211 208 208 209 213 212 209 
201 199 198 196 200 203 205 210 214 214 214 215 216 216 218 198 193 191 187 
191 196 195 196 198 201 202 203 203 201 201 198 197 197 198 199 201 202 201 
197 193 192 194 195 196 200 199 203 206 207 207 204 202 202 202 201 200 201 
197 195 195 195 199 200 200 201 208 210 208 205 205 204 201 202 202 204 205 
201 202 202 199 194 193 192 194 198 199 199 201 202 202 204 206 208 206 204 
191 189 190 188 192 192 194 195 197 201 202 205 204 200 199 198 194 194 195 
198 201 200 201 198 192 189 190 190 191 194 197 198 197 201 203 200 198 197 
198 197 195 197 194 191 193 195 198 198 195 198 202 202 202 200 200 198 199 
202 204 207 207 201 199 198 195 193 190 189 192 194 195 194 195 197 197 200 
201 200 195 191 187 187 189 190 194 195 197 196 195 195 194 200 200 198 201 
199 198 197 199 197 198 195 194 192 186 186 186 187 189 191 194 193 196 200 
202 200 199 197 196 190 188 191 189 190 193 194 197 198 195 197 196 197 196 
195 193 191 194 197 199 201 199 193 190 192 194 189 188 190 193 195 195 194 
193 195 197 200 199 198 195 195 193 193 195 197 195 194 195 189 184 182 183 
181 188 193 197 195 191 192 195 195 193 190 191 188 184 185 187 187 189 192 
192 193 196 197 200 200 201 197 195 192 189 190 185 189 191 196 199 200 198 
193 191 191 192 190 189 188 189 190 192 195 195 189 189 190 186 185 185 186 
189 193 195 197 199 201 199 197 194 196 195 193 195 193 197 197 189 188 185 
181 180 179 183 183 185 185 190 191 191 193 195 192 185 183 184 184 184 186 
188 188 190 192 192 192 192 194 199 197 197 192 187 186 183 186 185 188 190 
193 198 199 198 193 192 191 190 189 190 190 190 192 192 192 193 189 187 187 
187 188 186 186 188 190 193 197 199 195 192 189 190 189 188 186 191 193 193 
194 190 188 186 185 183 181 183 186 188 191 198 198 189 189 190 187 186 186 
187 188 187 184 187 189 189 188 187 189 192 194 197 195 191 185 183 181 180 
183 184 184 189 192 191 193 193 193 194 191 188 187 189 190 191 191 188 189 
189 187 184 186 189 190 188 181 181 183 185 183 185 185 186 184 186 186 185 
185 186 185 184 188 186 184 183 184 183 180 185 187 188 190 195 193 186 187 
186 183 183 183 182 185 184 183 186 186 184 182 183 183 185 188 190 192 189 
182 179 178 181 184 184 183 185 189 188 187 188 190 189 187 187 187 187 186 
180 174 170 170 175 179 183 186 188 189 187 182 175 175 176 172 176 178 179 
180 184 184 185 189 182 181 182 183 182 182 182 180 180 181 185 184 186 186 
187 186 182 180 180 179 181 181 185 185 184 185 185 184 183 186 186 185 185 
187 190 187 182 177 173 169 172 175 176 177 178 184 186 187 185 185 185 184 
183 180 178 177 175 172 170 171 171 179 182 184 187 189 187 184 181 178 176 
172 173 173 174 179 183 186 189 190 178 178 176 175 176 178 178 180 180 180 
182 182 184 183 183 184 182 178 175 176 179 181 182 183 182 181 182 181 179 
182 181 179 180 183 185 182 180 175 172 168 162 164 166 172 175 178 181 178 
178 176 177 180 179 175 173 174 173 169 171 173 179 182 185 180 180 183 183 
184 183 178 176 174 173 172 174 177 178 180 185 185 176 175 171 169 170 175 
175 177 175 174 173 175 178 179 179 180 181 174 168 170 173 174 175 179 177 
176 175 176 179 182 181 181 181 181 182 182 178 174 173 168 162 161 161 165 
168 173 174 175 176 175 175 176 174 178 179 177 173 173 175 178 182 185 184 
179 175 173 172 171 169 169 168 171 171 171 174 177 176 177 182 183 172 171 
168 165 165 169 170 172 170 168 172 175 178 178 178 178 178 169 164 165 169 
173 170 171 166 163 165 160 163 164 171 175 175 175 175 175 171 172 172 169 
166 164 162 165 166 170 168 167 166 165 170 171 170 171 175 178 178 178 176 
176 177 180 178 174 174 172 172 168 164 163 163 165 166 168 168 170 168 168 
165 162 164 164 166 163 159 161 162 164 163 160 165 169 171 175 175 172 171 
167 164 159 162 164 166 166 160 161 158 154 157 159 165 168 169 169 170 170 
173 171 171 171 171 165 161 160 164 168 167 168 167 167 167 166 168 169 171 
172 173 171 169 171 173 175 178 179 176 172 170 168 162 160 163 165 169 175 
176 175 174 171 171 170 162 162 163 160 160 160 163 164 161 164 167 167 168 
168 168 166 159 162 159 158 160 161 160 159 157 157 156 156 161 161 162 166 
166 167 165 169 173 170 170 173 174 167 163 162 166 169 170 167 169 166 163 
164 165 165 163 162 162 161 158 164 168 169 168 170 171 169 168 167 161 158 
157 160 168 172 177 173 172 170 170 171 158 161 162 161 162 164 165 163 162 
164 163 165 165 165 164 165 159 161 157 155 153 152 153 155 154 155 158 162 
163 167 168 167 165 165 163 166 170 170 172 176 174 168 163 162 167 167 166 
163 161 159 158 159 160 162 161 161 158 157 156 161 162 159 160 162 166 168 
166 165 162 161 163 165 167 169 171 172 168 168 169 171 157 158 159 161 163 
163 165 162 160 158 156 156 155 151 153 155 154 157 153 151 152 152 155 155 
152 156 158 161 161 167 164 163 161 159 159 159 163 164 163 167 167 163 164 
162 166 164 161 157 152 149 152 152 153 161 161 161 158 156 153 155 155 152 
153 155 161 162 160 162 160 160 158 163 165 170 170 171 168 163 160 161 152 
154 156 157 157 161 164 163 160 156 151 149 146 143 145 148 149 151 153 151 
150 148 151 153 150 154 155 156 160 161 160 159 158 157 156 154 152 153 155 
161 160 158 157 158 160 162 159 156 152 151 153 155 157 159 157 157 157 157 
154 153 149 145 147 152 154 158 161 160 156 154 153 158 160 162 161 160 158 
153 150 150 152 150 149 147 146 149 150 149 153 152 153 150 143 142 144 143 
146 153 156 155 151 148 148 151 149 151 150 150 150 151 154 155 155 154 156 
153 148 148 148 149 151 152 155 157 161 162 164 161 156 154 155 154 156 153 
150 147 150 154 154 154 152 152 152 153 152 154 153 151 147 147 150 152 156 
159 156 155 151 148 147 148 156 152 147 145 145 145 142 142 148 150 151 150 
148 147 148 148 149 150 152 149 148 149 149 148 147 148 148 148 146 145 145 
144 148 153 153 149 145 145 140 143 146 144 147 154 159 161 162 161 152 147 
150 152 154 152 149 149 150 148 151 152 149 148 147 148 150 149 147 145 144 
148 150 153 154 155 151 151 151 150 145 147 146 146 145 146 144 144 142 141 
144 146 146 148 150 151 150 151 151 148 149 146 144 144 144 145 148 147 148 
147 147 144 144 143 147 149 151 150 147 146 142 142 144 144 146 147 147 147 
151 150 148 147 147 147 148 147 146 147 149 149 150 151 149 146 143 141 142 
143 141 141 139 146 146 148 148 150 150 148 143 140 133 133 141 141 139 138 
136 139 136 141 138 138 141 145 149 150 150 149 147 146 146 141 143 146 145 
144 145 148 149 147 147 146 141 138 142 141 143 144 144 143 143 143 144 147 
146 145 146 144 143 143 146 148 146 144 141 141 142 142 141 141 141 141 139 
141 142 142 143 143 143 140 142 141 142 140 142 145 144 140 138 136 134 134 
137 138 137 135 136 137 138 139 139 140 142 140 141 141 143 143 144 143 145 
142 143 141 140 141 143 143 143 146 144 145 140 133 130 133 134 135 137 141 
141 145 144 146 143 141 140 140 142 138 145 148 146 144 137 137 139 135 132 
136 139 140 140 142 144 142 142 140 139 137 141 142 141 138 140 140 138 137 
137 137 135 137 135 135 134 130 130 134 134 134 134 135 137 136 136 138 140 
139 139 138 140 140 139 138 137 140 141 142 143 145 144 143 138 133 127 129 
132 133 134 136 140 141 140 142 141 139 139 140 139 139 141 144 140 137 132 
134 141 140 139 139 140 140 141 142 143 140 138 136 135 132 131 131 134 135 
137 136 138 139 141 139 135 139 134 134 132 126 125 130 134 133 133 133 134 
134 131 129 128 131 131 130 127 127 130 131 134 139 142 140 140 138 136 131 
129 128 126 129 129 134 136 137 139 141 139 139 142 142 142 143 141 139 138 
139 135 135 134 135 141 139 141 141 138 138 137 136 134 134 133 135 133 130 
127 128 126 129 133 137 140 144 143 139 132 133 126 130 131 129 129 131 136 
132 131 129 128 127 123 122 124 124 127 125 123 123 124 127 130 133 134 135 
135 137 137 133 132 130 127 128 131 132 135 135 136 134 130 129 133 138 137 
135 132 133 133 132 132 136 134 133 137 137 137 139 138 134 133 133 131 133 
135 135 133 129 127 126 128 129 130 135 136 140 138 134 128 126 129 131 131 
130 129 130 131 131 127 124 120 119 114 118 126 128 128 128 127 127 128 130 
129 128 130 133 134 134 131 129 130 129 130 130 134 134 134 134 132 128 125 
127 130 134 135 134 129 129 130 132 132 135 129 122 122 124 127 133 135 132 
130 129 128 127 130 132 131 128 128 130 133 133 133 138 140 139 135 130 127 
126 122 124 125 125 127 129 128 128 127 126 123 121 117 118 124 128 130 131 
129 129 127 129 128 124 127 125 125 128 128 129 126 125 125 127 129 133 132 
132 127 124 122 122 124 128 132 134 134 128 128 129 128 126 122 121 121 121 
122 125 130 130 129 130 129 127 127 128 131 130 128 129 129 131 132 133 131 
131 129 123 122 121 122 122 115 118 124 126 125 126 124 123 118 117 112 115 
119 120 123 128 123 122 119 123 126 126 127 126 125 124 125 127 124 124 126 
127 129 127 125 127 124 122 122 126 128 132 135 135 136 133 132 133 134 132 
128 126 122 121 120 123 126 126 126 127 124 125 125 128 130 129 126 125 121 
124 126 128 128 128 129 128 126 126 116 121 120 118 121 124 124 124 122 118 
117 117 111 111 111 110 116 119 117 116 115 114 119 121 124 124 124 122 121 
121 120 120 122 121 124 122 120 122 123 126 125 129 129 128 133 134 136 128 
121 123 124 124 124 127 126 127 126 123 120 120 119 121 123 124 123 124 126 
127 127 126 117 118 120 124 125 124 124 126 127 132 105 112 114 115 117 119 
123 121 119 115 112 111 109 110 110 110 111 113 112 109 109 108 113 122 127 
125 124 122 118 118 116 117 117 116 117 119 119 121 126 126 125 131 130 128 
130 128 128 121 119 115 118 119 120 125 130 130 125 116 119 121 118 122 124 
122 120 120 119 122 121 118 117 120 120 123 121 117 115 111 111 109 102 102 
104 104 104 103 104 108 111 110 110 106 104 104 104 103 106 107 105 105 103 
104 108 117 122 122 122 120 116 117 117 116 113 113 113 116 116 115 118 119 
121 122 122 122 119 120 120 118 116 111 112 112 118 125 126 127 124 116 115 
116 116 120 120 120 120 117 119 118 117 113 110 111 113 119 119 116 108 105 
101 99 97 97 98 100 104 105 106 110 112 108 107 104 100 101 99 100 104 
105 105 106 105 100 106 111 114 114 116 119 117 115 113 115 111 109 107 109 
107 105 106 108 112 113 114 113 106 105 108 109 109 107 107 108 116 118 119 
119 116 112 112 111 117 120 117 118 117 113 111 110 109 105 103 107 110 114 
116 110 108 107 105 104 97 98 94 93 94 98 102 105 106 103 103 102 99 
98 95 99 103 108 109 108 109 106 105 107 109 113 113 114 114 111 110 108 
107 107 106 108 107 103 102 103 101 106 106 103 99 100 102 103 102 100 105 
105 110 112 115 112 107 107 108 108 114 115 111 112 111 109 106 106 104 101 
101 99 106 108 112 110 107 106 107 107 102 100 95 96 97 100 107 106 102 
100 100 100 96 94 94 94 97 103 105 107 107 108 107 105 106 106 108 108 
107 107 106 105 107 110 111 110 106 105 102 103 103 101 102 99 100 101 103 
104 103 102 103 105 109 111 111 107 104 103 108 110 115 115 113 111 107 100 
96 97 96 98 98 99 103 105 108 112 109 107 107 100 106 107 102 105 99 
97 98 98 96 96 93 97 95 94 94 95 96 100 99 98 98 99 99 96 
96 99 100 103 103 104 101 103 104 107 106 103 99 101 102 103 103 100 98 
98 99 100 101 99 100 101 101 106 107 107 106 104 102 103 106 109 112 112 
108 106 104 99 94 94 97 97 95 96 97 101 105 105 109 111 112 110 106 
103 102 105 102 97 95 96 96 95 93 92 91 94 93 92 94 97 97 95 
94 94 93 89 91 94 95 96 98 100 98 96 99 102 99 94 91 92 94 
93 97 101 101 100 100 103 100 99 96 99 100 103 107 104 102 99 96 95 
96 99 100 102 100 100 102 98 98 101 99 93 92 93 94 99 101 101 102 
99 97 94 102 102 102 102 97 93 95 96 98 96 92 89 90 93 91 89 
87 88 84 85 85 88 88 85 86 89 93 96 100 102 99 96 95 96 94 
89 90 90 94 95 100 101 100 100 98 98 96 97 94 97 97 99 101 99 
98 94 94 94 91 91 96 99 97 99 101 100 94 94 92 90 90 96 98 
99 100 100 97 94 90 82 94 97 98 96 96 93 92 90 91 92 90 88 
88 88 87 85 85 84 87 85 85 87 87 87 87 88 92 96 99 96 96 
95 92 89 84 83 81 84 88 91 94 93 94 92 92 94 94 92 90 89 
90 91 94 91 92 96 95 94 93 94 96 99 99 101 103 102 96 89 85 
83 80 83 87 90 95 96 94 94 93 91 95 95 91 90 91 92 92 89 
88 89 90 87 87 86 84 86 85 83 87 84 84 84 88 87 87 88 94 
96 100 98 95 94 91 87 84 80 81 87 90 91 91 92 90 89 85 86 
85 85 85 82 81 85 87 89 90 89 91 90 91 92 95 96 96 96 99 
96 94 85 82 82 75 79 83 85 88 92 95 98 104 102 96 93 90 89 
91 89 90 85 82 83 82 79 81 80 80 82 86 88 88 85 83 83 86 
84 86 91 93 95 96 95 91 90 90 89 86 84 87 91 93 94 94 97 
95 92 92 88 86 84 85 86 83 88 91 92 90 86 85 85 88 87 87 
87 86 85 85 88 87 82 80 76 77 77 78 81 85 90 95 99 101 102 
92 89 87 88 90 86 86 83 83 83 81 81 77 76 76 74 76 80 82 
81 82 81 83 83 86 85 86 86 87 85 82 84 85 83 84 84 85 88 
88 92 90 90 91 89 90 87 88 87 85 85 78 81 81 84 85 84 84 
81 83 83 84 80 81 83 82 83 80 77 75 76 79 81 80 81 85 87 
91 95 93 90 85 85 85 87 88 84 85 81 81 80 80 79 78 79 78 
76 76 78 78 79 82 84 83 82 82 81 83 80 78 76 75 81 83 84 
83 81 80 82 85 85 82 80 80 79 77 77 79 78 75 77 75 74 77 
79 81 80 77 75 76 78 77 78 78 76 78 79 77 77 76 77 79 79 
79 81 83 85 86 90 87 85 82 85 84 81 82 77 75 72 72 76 75 
75 75 77 76 76 76 76 77 76 76 77 79 78 81 82 80 78 78 76 
77 81 83 85 82 81 79 78 80 80 80 81 78 78 77 75 77 74 71 
69 69 72 73 75 78 77 76 78 77 76 75 76 75 72 70 72 74 76 
78 80 78 78 76 77 79 78 79 80 80 81 77 77 77 78 76 73 69 
67 71 71 68 67 68 69 70 73 72 72 77 77 75 75 74 74 81 82 
82 79 78 75 76 79 80 80 79 75 76 74 73 73 77 77 76 74 75 
74 73 74 74 75 74 69 69 76 77 78 78 78 79 78 75 71 70 70 
70 69 70 72 73 74 78 77 79 78 75 74 76 77 77 78 73 75 75 
74 71 67 62 59 64 65 62 63 63 62 64 67 67 67 70 75 75 74 
76 75 76 73 75 75 74 72 72 71 73 75 74 74 72 70 68 68 73 
73 73 70 74 71 69 68 70 74 76 75 75 77 73 76 76 73 75 75 
71 72 71 70 67 68 69 69 69 70 75 79 78 79 69 68 68 71 75 
74 71 70 70 69 68 67 68 62 61 63 64 62 61 61 64 66 65 66 
64 67 68 70 69 69 71 73 75 75 74 72 74 72 73 74 75 74 71 
68 68 65 67 68 66 68 68 63 60 61 62 70 74 75 74 74 73 75 
76 76 79 78 70 69 70 69 69 71 72 72 70 69 66 69 75 74 62 
60 59 63 63 63 67 65 66 62 63 70 69 65 62 61 61 57 58 61 
62 63 63 62 65 66 68 68 66 65 69 71 73 72 72 71 72 70 71 
74 74 74 71 67 66 62 60 62 64 66 64 61 57 57 59 67 66 68 
69 72 70 70 71 74 75 72 67 66 70 68 70 70 69 70 68 66 65 
63 59 59 58 57 56 52 50 48 60 61 57 57 59 64 62 61 59 57 
57 56 59 61 61 61 61 62 65 66 67 68 69 67 70 70 69 67 68 
66 63 62 65 68 67 66 65 64 65 59 59 59 57 64 66 61 57 58 
56 55 57 62 64 68 69 66 65 68 67 66 62 63 65 66 67 66 68 
70 68 60 59 56 56 54 53 53 52 51 49 47 55 57 56 56 57 63 
59 59 59 58 56 53 59 60 60 58 58 61 64 63 62 62 65 64 63 
62 61 62 63 64 63 65 67 66 65 65 65 64 62 59 57 56 56 59 
57 57 53 54 54 57 59 63 66 68 67 63 61 63 63 62 56 58 62 
62 64 67 68 66 64 58 53 52 51 53 53 56 55 55 54 52 52 53 
54 54 54 55 56 56 58 56 51 49 54 54 56 54 54 56 56 56 56 
60 60 59 57 58 56 55 57 59 58 59 60 57 60 61 64 61 60 53 
47 47 51 55 58 57 57 54 55 58 62 62 61 62 60 58 57 57 58 
59 56 57 58 60 64 67 68 65 65 60 55 51 49 51 50 52 52 55 
57 57 53 53 51 49 52 54 56 55 55 52 49 47 50 52 54 52 51 
51 52 50 49 52 53 55 56 55 52 49 51 51 53 53 52 53 53 54 
55 58 56 56 52 48 48 52 53 51 51 53 57 59 65 67 65 66 63 
56 50 50 53 54 53 53 56 60 61 62 60 56 57 55 54 49 48 47 
50 51 51 51 53 56 51 49 46 46 45 47 52 53 51 48 46 46 50 
57 54 53 53 51 49 46 47 51 51 51 53 52 49 49 50 51 53 55 
54 55 54 53 52 52 51 51 50 48 44 48 49 46 47 46 49 47 49 
54 57 56 56 52 45 44 45 48 53 56 55 55 56 58 56 54 52 49 
51 50 49 50 51 50 47 45 45 42 45 45 44 43 43 44 45 44 45 
42 40 43 47 49 48 50 49 47 45 46 49 49 50 51 53 53 53 54 
50 52 54 57 53 51 44 45 46 47 47 48 49 47 43 44 43 42 39 
39 41 39 42 43 49 50 49 46 39 39 39 42 46 47 50 53 53 54 
52 51 49 48 48 49 50 53 52 52 49 48 46 47 38 38 40 40 41 
42 43 42 40 39 38 39 41 41 42 43 41 39 42 43 44 45 47 48 
50 50 49 51 50 51 54 54 52 50 45 44 44 43 43 43 43 41 37 
39 39 39 36 36 36 35 38 41 44 44 48 46 41 38 38 39 43 45 
49 48 48 47 46 45 47 46 48 47 46 46 48 50 50 52 50 48 35 
36 39 40 42 45 45 43 42 43 40 38 38 39 38 39 38 36 37 39 
41 40 43 44 46 45 44 43 44 42 46 50 49 49 47 45 44 37 37 
35 40 41 38 40 41 42 42 38 37 34 31 33 35 38 42 44 42 39 
38 39 39 37 39 39 41 42 43 46 47 47 49 50 46 45 44 47 48 
51 47 49 36 37 36 37 35 38 37 40 40 40 36 34 36 37 35 37 
37 35 35 34 36 37 39 41 39 38 39 40 37 37 41 44 43 45 45 
40 36 32 29 28 32 32 32 33 39 42 43 40 39 39 36 34 34 33 
39 41 41 39 37 38 34 34 35 38 38 39 43 46 47 47 45 47 44 
41 39 41 40 42 41 41 32 31 32 33 34 34 34 34 33 34 35 37 
40 37 31 29 31 32 34 35 35 32 33 32 31 30 27 30 30 33 37 
39 39 38 36 35 31 29 29 27 29 29 27 31 39 40 38 39 38 40 
36 31 32 32 36 36 38 37 33 32 30 30 28 30 32 34 42 44 43 
42 40 39 39 41 40 42 42 41 41 38 29 27 28 34 35 34 34 30 
29 29 29 29 31 30 31 26 24 25 27 29 30 30 31 31 32 30 28 
25 24 28 28 31 34 33 36 33 33 32 32 29 30 31 29 30 37 37 
36 37 36 37 35 32 33 37 41 36 38 34 31 27 25 23 25 28 30 
32 34 34 31 33 31 32 34 38 39 40 39 37 36 39 25 23 22 24 
29 31 31 31 29 28 28 27 27 26 28 29 27 23 24 26 27 26 25 
26 26 21 23 23 24 24 25 31 36 34 35 30 29 27 29 29 29 30 
31 32 33 33 32 30 27 26 25 24 27 31 34 34 37 33 30 27 25 
25 27 26 27 31 31 31 24 25 27 28 30 32 34 37 40 40 41 44 
23 22 20 20 26 27 26 26 27 26 28 29 29 30 31 31 27 24 18 
19 17 17 20 21 22 19 19 20 20 21 22 26 28 29 30 27 23 22 
24 25 27 25 26 26 25 25 26 22 20 20 20 20 23 27 29 27 25 
27 26 24 25 28 27 25 24 30 31 30 24 22 23 23 26 29 33 36 
37 35 29 26 21 22 19 19 21 23 24 26 26 29 29 29 31 27 27 
27 25 23 19 15 15 19 20 19 18 16 15 14 15 16 18 20 22 25 
27 23 21 19 19 20 20 20 22 23 21 22 23 19 16 16 19 21 22 
26 27 25 21 21 21 19 20 21 22 23 24 25 25 23 20 21 22 23 
25 27 28 33 32 27 24 23 22 21 21 15 15 15 14 15 18 22 20 
22 24 25 24 22 22 20 21 20 17 19 16 14 12 12 11 13 13 12 
12 15 19 20 23 24 27 25 25 26 22 20 21 23 23 22 23 20 22 
24 23 23 22 24 24 20 14 12 9 8 9 11 15 18 23 26 24 21 
16 15 17 18 23 26 27 29 27 22 20 22 24 23 21 18 15 12 9 
9 11 12 14 15 20 23 23 19 17 18 22 19 22 21 20 14 11 9 
9 11 15 13 14 17 21 21 25 25 25 23 24 25 21 18 18 18 17 
20 22 26 28 31 29 28 27 27 23 19 15 6 6 4 10 9 14 18 
22 24 22 19 15 15 12 17 22 29 34 29 23 19 17 17 
