P2
#output from hocrtest
70 70
255
247 243 248 244 253 255 252 251 255 255 255 255 255 255 255 253 250 249 243 
231 240 247 239 250 247 251 250 243 248 249 248 243 248 253 252 255 254 255 
253 255 242 244 242 248 249 248 246 248 243 240 246 255 248 241 243 253 255 
253 252 244 253 251 246 242 248 252 235 238 232 240 244 242 245 246 251 253 
252 252 254 255 255 255 255 255 255 255 252 247 247 244 247 249 247 249 247 
248 248 243 245 246 245 244 246 249 253 255 253 253 251 251 244 242 240 244 
245 245 245 246 247 247 251 251 248 246 247 252 253 252 253 252 253 249 244 
245 247 248 237 233 226 219 246 246 249 252 251 252 249 250 251 247 250 255 
255 255 255 253 251 248 246 244 243 244 243 242 238 237 239 242 242 244 244 
239 241 243 243 247 250 248 247 247 243 243 244 245 246 245 249 253 250 248 
248 247 246 245 250 250 250 251 252 251 250 248 245 243 245 245 244 243 242 
246 247 247 249 249 248 247 246 245 245 242 245 246 249 253 252 249 244 241 
238 240 239 239 240 240 237 235 238 241 241 241 242 240 240 238 238 241 241 
240 240 241 242 242 242 244 246 245 249 250 248 250 249 249 248 249 251 251 
248 246 246 245 243 243 243 242 244 244 244 242 238 239 247 248 250 247 246 
246 241 237 241 242 245 248 251 253 251 248 244 245 238 237 239 237 239 240 
240 239 240 240 239 238 237 236 237 239 239 239 238 235 240 242 242 244 245 
246 248 246 246 245 245 247 248 248 246 246 246 246 245 240 240 240 241 245 
240 232 234 234 236 235 236 236 243 245 247 249 246 240 238 237 234 237 237 
243 246 246 243 244 241 240 235 239 241 237 235 233 234 236 236 236 233 234 
233 235 235 240 245 245 241 239 244 246 246 244 242 243 245 246 244 236 235 
238 243 245 245 246 243 242 240 238 237 236 238 241 241 235 232 231 232 233 
235 237 248 248 248 249 240 235 233 233 233 236 239 242 241 241 240 243 239 
236 236 237 237 235 235 235 232 232 233 235 235 236 236 238 239 239 240 241 
241 241 243 245 243 239 240 239 240 240 238 233 229 234 239 242 241 242 236 
235 237 238 236 233 233 234 235 234 231 229 231 232 234 236 251 251 252 249 
239 237 232 230 229 234 237 240 238 235 232 237 235 232 234 235 233 232 234 
234 228 227 228 228 229 232 233 233 237 237 236 237 240 239 239 239 237 234 
233 231 235 235 232 228 229 233 238 240 239 236 233 229 231 232 232 230 232 
232 232 230 230 230 232 230 227 224 247 246 239 238 231 227 222 225 226 230 
235 237 233 234 235 236 236 234 235 236 233 231 230 230 230 230 229 231 231 
235 236 234 232 230 228 225 225 226 230 229 228 230 227 227 232 234 233 233 
234 237 241 241 236 233 232 229 230 230 231 230 232 234 232 230 230 232 232 
231 228 227 242 239 234 232 223 219 218 218 221 227 232 233 233 235 233 230 
226 225 228 231 232 231 227 228 230 229 228 228 230 232 234 229 228 226 224 
224 225 226 228 228 227 227 223 222 225 225 226 228 232 235 235 232 227 223 
225 226 227 225 226 226 225 222 223 223 225 227 228 227 229 230 234 235 234 
232 223 223 219 219 220 222 222 225 229 228 230 226 219 221 220 223 227 229 
226 224 226 229 226 225 227 227 228 226 225 229 228 227 228 227 227 228 226 
226 220 219 223 222 223 225 226 231 230 227 225 224 223 224 223 224 225 222 
220 219 219 219 221 224 226 221 221 221 224 227 229 227 221 220 220 223 225 
223 224 223 223 225 225 221 213 215 215 218 223 222 221 218 216 216 216 218 
216 220 224 224 223 226 228 228 227 230 226 223 221 222 217 217 218 217 217 
217 217 222 222 226 226 226 227 227 227 225 226 223 219 217 218 217 215 219 
219 219 223 222 225 224 223 223 223 220 219 218 217 217 222 223 221 221 224 
222 219 214 209 210 209 216 217 213 211 211 210 210 211 212 218 221 224 225 
223 222 223 223 223 223 221 216 211 212 211 211 211 211 210 214 213 215 221 
224 220 220 219 220 225 222 221 216 215 215 216 219 219 219 222 224 223 221 
217 217 216 216 218 219 217 219 220 219 215 217 219 221 216 211 207 203 200 
209 210 211 210 208 207 204 204 208 213 218 221 221 222 222 221 221 220 221 
218 211 206 210 209 207 206 209 210 212 212 213 213 216 217 214 214 218 223 
220 216 213 211 213 214 213 212 213 212 212 220 218 217 215 217 213 215 217 
215 217 215 214 209 209 212 214 208 205 203 202 201 207 209 212 212 211 205 
203 206 208 209 218 220 220 216 221 219 218 215 215 209 207 206 207 207 206 
208 209 208 210 211 212 209 212 213 209 206 209 211 215 215 213 209 210 209 
209 207 207 217 224 213 214 213 212 212 211 210 210 209 212 208 208 207 207 
209 208 206 203 202 202 202 204 209 214 210 211 206 205 206 210 214 219 221 
219 216 217 216 212 207 204 198 201 200 204 208 206 204 205 204 204 207 209 
209 215 214 211 206 205 204 206 206 205 205 205 203 205 201 197 203 205 209 
209 208 208 210 212 210 210 207 209 205 205 204 203 206 206 202 199 198 197 
195 200 210 213 213 209 208 204 204 210 214 216 221 220 217 215 212 210 208 
206 201 201 202 206 207 207 206 206 204 201 202 206 209 212 213 205 199 199 
199 204 203 200 198 198 199 206 207 211 210 208 205 207 206 208 210 211 212 
210 206 205 204 203 207 209 207 208 205 199 196 198 198 202 208 213 216 210 
209 202 203 206 208 207 210 214 215 215 213 214 211 205 201 196 201 205 206 
206 205 207 204 203 200 199 200 202 203 200 196 197 200 198 199 199 196 195 
195 200 201 206 204 203 205 207 206 208 212 209 208 205 204 204 210 213 212 
212 211 210 209 200 195 198 201 204 205 210 210 203 201 197 197 198 200 202 
203 203 206 215 211 212 212 204 201 199 199 201 201 199 199 200 199 197 196 
195 197 200 203 199 195 191 192 194 197 198 195 195 194 195 199 202 204 207 
201 202 202 205 205 202 203 207 208 207 209 212 209 209 206 204 198 188 190 
193 194 197 201 207 213 205 202 202 200 199 200 197 197 198 201 208 212 212 
210 204 201 197 195 193 190 193 195 195 193 191 192 191 191 195 194 192 195 
191 190 192 195 195 194 192 193 197 197 200 201 201 197 198 198 193 189 187 
188 191 199 200 202 205 203 201 200 199 197 192 191 191 193 196 203 206 209 
200 197 196 193 194 194 192 194 198 199 199 201 203 204 202 200 192 191 189 
187 186 192 194 194 191 190 189 189 190 192 190 189 189 193 194 197 203 197 
193 191 194 192 191 192 192 196 194 201 201 200 195 194 194 196 196 196 198 
197 195 193 192 195 192 193 192 197 199 201 201 200 197 194 190 186 189 189 
186 190 197 195 192 195 196 197 200 200 191 189 187 186 186 191 193 191 189 
187 186 183 183 186 186 186 190 194 197 197 201 196 191 189 189 186 185 183 
183 188 186 191 195 194 191 192 189 191 191 193 192 190 189 188 188 189 189 
191 195 195 195 198 197 196 194 192 189 184 183 184 183 185 189 192 192 192 
194 195 196 197 191 186 184 182 185 186 188 186 183 178 178 178 181 183 187 
188 189 189 188 186 187 184 185 183 187 187 187 187 186 181 187 189 188 191 
192 191 190 186 185 185 185 185 184 180 182 181 184 187 191 189 188 189 190 
191 192 190 189 188 178 179 180 182 187 192 192 193 195 193 196 193 190 185 
185 184 183 186 188 186 185 181 178 178 182 185 184 185 187 189 189 187 184 
181 182 182 186 185 185 186 187 178 179 184 184 187 190 188 185 179 176 176 
173 176 178 178 178 175 175 178 181 182 182 181 183 184 187 187 186 188 182 
178 179 183 185 189 192 195 193 192 195 193 188 182 184 186 185 189 187 185 
181 179 180 182 183 181 182 182 182 181 185 184 175 174 178 179 179 179 184 
187 192 179 182 187 188 187 185 182 182 179 177 179 178 182 181 177 173 168 
166 169 170 175 181 183 180 182 185 186 190 189 175 167 168 169 172 180 185 
188 190 192 191 188 183 182 187 189 191 194 190 184 180 177 179 180 180 179 
182 181 179 177 177 178 175 175 177 178 176 178 180 184 187 178 177 180 177 
179 182 180 182 184 183 184 183 184 183 178 173 169 166 167 167 171 177 181 
183 183 184 182 181 178 171 167 167 171 174 181 183 182 184 189 187 184 183 
185 192 190 192 190 188 184 180 181 181 182 182 181 178 176 174 172 172 171 
171 174 177 180 177 177 178 181 180 184 180 179 174 175 181 182 184 183 182 
181 179 178 181 183 180 173 166 166 167 170 169 174 177 178 178 177 174 169 
165 166 166 167 172 174 174 171 174 175 174 179 180 181 186 187 186 179 178 
174 173 175 174 173 175 173 169 172 172 174 173 169 166 169 172 174 175 174 
173 174 171 183 183 178 175 176 178 177 176 176 178 179 175 174 180 184 179 
172 164 162 162 164 169 171 174 174 175 175 169 164 162 161 159 163 168 168 
167 167 168 172 175 176 176 178 179 176 176 175 173 177 173 171 171 170 170 
170 168 171 168 172 174 172 174 173 174 172 173 173 171 173 181 178 180 178 
178 177 175 171 168 164 163 167 168 168 171 173 172 172 168 165 165 164 164 
167 169 168 170 172 166 162 159 157 160 162 164 165 163 163 164 168 169 170 
170 172 169 169 172 175 179 179 177 174 172 170 166 166 166 166 167 171 173 
177 176 175 173 172 175 172 168 166 165 171 171 174 174 172 171 169 168 160 
161 163 160 161 167 167 166 167 163 163 159 157 156 160 164 166 168 169 164 
161 156 160 164 162 160 160 158 161 163 164 165 168 167 167 164 165 171 174 
177 179 173 171 171 168 161 161 162 161 164 168 170 172 171 167 167 169 170 
170 165 166 167 160 162 165 166 166 167 167 162 156 157 159 161 163 166 168 
166 164 166 166 164 161 161 162 162 164 166 166 165 165 161 159 160 157 160 
162 161 160 161 165 165 163 163 161 165 167 167 165 164 165 164 166 169 167 
162 158 158 163 165 165 163 164 166 165 168 169 172 169 166 167 169 161 161 
161 158 158 158 159 157 151 150 155 157 159 161 162 161 160 157 158 155 159 
159 158 160 160 158 159 157 157 155 156 158 158 160 162 159 153 158 161 161 
160 156 152 156 157 160 158 154 152 154 159 160 157 155 160 166 174 173 164 
161 161 162 159 158 160 160 161 156 154 151 155 156 156 152 150 148 150 149 
147 147 151 152 154 153 150 155 155 152 151 149 154 156 154 158 157 157 159 
159 158 152 155 158 158 159 158 157 152 152 151 157 157 155 153 151 151 151 
153 150 148 151 152 151 150 147 150 157 158 164 160 160 159 157 154 154 155 
157 160 158 158 157 153 155 157 157 155 150 145 145 143 149 152 152 153 154 
157 159 159 155 157 154 155 154 153 153 154 154 157 159 158 159 160 159 157 
155 157 156 151 153 153 156 157 159 153 148 145 146 146 143 146 143 144 147 
145 147 149 152 156 157 155 161 160 158 154 154 156 158 158 158 161 161 151 
154 153 153 154 149 146 145 144 148 152 153 153 153 156 155 152 152 149 143 
140 140 142 144 154 155 157 155 155 157 156 158 157 153 152 156 156 154 153 
159 160 158 150 151 148 148 148 146 147 145 141 142 143 145 146 148 152 157 
157 158 156 156 154 155 155 156 154 154 155 157 151 152 150 148 150 147 145 
144 146 146 148 148 150 150 150 150 146 144 140 138 135 137 139 144 153 159 
161 157 156 157 157 157 154 150 151 153 151 152 153 154 153 151 148 148 148 
147 147 147 145 144 142 140 141 143 146 151 152 154 151 152 150 150 149 148 
145 148 148 148 147 149 145 145 145 140 141 142 145 148 149 148 145 142 146 
146 147 147 144 139 135 133 134 134 132 142 148 152 149 146 145 149 149 148 
145 144 146 145 141 144 144 146 147 146 145 147 148 149 148 145 142 144 142 
142 144 147 148 152 154 154 152 149 146 144 140 136 136 142 142 142 145 146 
136 133 131 130 129 133 141 147 147 147 145 143 143 140 140 141 142 138 137 
137 136 135 134 133 132 135 133 135 133 136 140 144 145 146 146 145 145 146 
142 142 138 132 134 139 141 145 145 147 142 140 141 143 143 144 143 146 146 
141 135 136 135 134 135 133 134 136 137 137 143 148 134 130 125 120 128 129 
134 142 146 146 145 139 139 138 138 136 136 136 136 135 138 136 136 133 133 
131 130 130 129 133 135 138 141 141 143 143 147 148 144 142 140 137 137 137 
139 140 139 138 139 139 142 144 144 142 141 144 144 140 135 134 133 131 134 
135 135 135 135 133 136 138 138 134 122 120 124 127 129 135 139 138 139 136 
136 137 139 138 141 137 137 138 136 134 134 131 129 130 130 132 130 134 134 
132 133 136 139 138 136 136 133 135 136 133 137 142 148 151 149 142 135 131 
135 134 136 135 135 140 142 139 137 136 136 135 136 134 136 135 135 134 136 
137 134 129 123 123 126 130 134 139 137 136 133 134 136 136 136 136 134 134 
134 133 131 132 131 130 127 129 130 132 134 132 132 130 127 130 132 130 130 
131 131 130 131 132 134 136 143 147 143 141 135 132 130 130 132 133 132 132 
137 135 134 133 132 136 136 132 132 132 135 139 139 142 132 128 119 123 126 
127 126 129 129 130 126 130 131 132 133 134 132 130 127 124 124 123 120 119 
119 123 124 127 123 122 127 130 132 133 134 133 130 130 130 128 130 134 133 
133 137 140 141 139 137 134 130 130 129 128 128 131 131 133 131 131 132 134 
134 133 132 133 133 134 135 136 129 126 121 119 123 123 124 124 128 128 121 
129 125 128 130 131 132 130 127 122 123 120 119 120 119 120 120 121 121 122 
123 126 127 126 127 126 125 126 126 127 127 126 126 125 125 128 131 131 133 
130 127 123 126 124 124 125 126 128 125 128 126 123 121 121 121 123 129 131 
131 137 124 125 122 120 118 117 118 116 124 129 128 128 123 125 125 121 118 
122 123 122 121 120 118 121 119 120 122 122 125 127 126 125 126 124 120 116 
117 123 121 123 124 125 125 124 122 125 124 125 125 124 122 120 121 122 124 
125 128 126 127 122 121 120 115 119 121 125 128 129 128 131 126 124 122 122 
121 118 115 114 121 124 124 123 119 119 119 121 120 122 123 126 121 117 115 
116 119 120 122 124 125 126 123 126 125 122 117 115 117 119 117 118 121 120 
119 116 117 119 121 122 121 123 121 119 117 115 117 120 123 121 121 116 115 
114 114 114 115 119 121 119 110 105 123 121 122 124 123 117 114 111 108 107 
111 113 113 115 114 116 116 120 122 123 120 119 119 119 119 122 124 124 123 
125 119 118 113 111 112 111 116 118 115 116 118 118 115 116 115 117 117 120 
118 120 116 112 115 118 122 123 126 123 115 109 107 110 111 113 114 117 121 
117 113 112 120 120 118 115 114 110 108 108 103 102 104 106 107 108 110 113 
112 118 119 117 116 115 115 114 114 117 122 120 119 119 114 114 114 115 114 
114 114 116 114 110 113 117 119 120 121 122 120 120 117 117 114 112 111 111 
115 116 118 117 113 112 109 111 112 112 115 120 119 114 110 108 120 119 117 
114 114 114 111 111 109 103 99 102 103 106 111 113 113 114 114 114 115 116 
116 115 115 118 120 119 116 115 115 114 110 109 113 114 115 118 117 114 112 
113 117 122 122 120 117 117 117 115 112 110 108 103 103 107 112 114 114 109 
109 107 108 108 110 115 114 113 112 111 124 123 121 120 115 113 110 108 108 
108 107 105 107 110 110 112 112 109 109 111 112 114 111 111 113 115 116 117 
115 115 112 111 108 107 113 113 113 116 118 115 112 116 115 119 117 119 119 
117 117 110 106 104 101 100 102 106 109 109 110 108 106 106 106 109 110 111 
109 115 114 113 123 122 121 119 114 112 110 110 110 111 109 107 109 110 110 
111 108 104 103 104 106 107 102 105 110 113 114 113 110 110 106 106 104 105 
109 111 110 112 112 110 108 110 112 114 113 113 112 110 109 108 105 102 101 
103 104 103 101 105 102 102 103 106 108 113 114 114 117 116 116 117 120 120 
117 114 114 109 105 104 105 107 110 106 106 107 109 111 110 105 100 100 102 
103 104 105 107 111 113 112 106 106 103 106 104 103 105 108 106 108 109 106 
105 108 105 103 100 98 101 102 101 102 96 92 94 97 99 99 99 100 99 
98 99 99 107 109 109 106 106 105 105 108 105 106 109 107 112 109 106 102 
102 104 104 104 105 103 104 105 107 102 97 96 97 96 97 101 103 106 108 
105 101 101 100 101 101 103 106 103 103 106 106 105 102 105 106 105 99 98 
102 100 98 94 89 85 87 89 92 94 92 96 93 92 95 95 100 105 105 
102 102 98 97 99 90 88 91 92 99 103 100 101 103 102 101 105 102 101 
102 100 99 96 95 91 93 93 92 97 107 109 106 101 96 95 93 101 103 
104 101 98 94 98 99 98 100 106 105 105 97 92 92 91 93 90 87 84 
84 86 86 86 83 87 88 89 92 92 94 95 97 94 94 91 88 86 85 
84 86 88 92 94 94 92 92 93 95 95 92 94 96 97 99 99 99 94 
93 93 94 93 95 96 100 96 91 88 93 99 103 102 98 98 95 93 94 
96 97 102 105 107 101 96 93 93 92 89 88 85 86 89 90 91 86 85 
84 83 84 87 89 92 94 93 94 94 95 94 86 83 79 80 80 82 82 
81 83 83 83 84 86 87 89 92 96 102 102 96 92 91 89 87 85 84 
85 86 84 87 94 95 98 96 92 91 91 91 93 93 93 97 103 105 104 
101 92 89 85 85 87 88 87 89 89 84 81 84 84 81 84 89 89 90 
91 89 91 91 91 91 78 81 77 74 77 78 78 79 80 77 77 77 79 
81 83 87 94 98 99 95 96 92 87 84 80 82 81 83 84 85 89 89 
89 88 87 88 89 87 87 90 89 92 95 97 99 97 89 86 80 80 85 
87 86 84 86 83 84 86 87 82 86 91 90 93 91 89 84 84 83 80 
81 82 83 83 86 80 78 77 77 77 76 76 75 76 82 84 88 87 90 
87 86 86 79 76 74 73 76 80 84 85 88 92 91 88 87 86 87 88 
86 86 86 87 89 93 94 90 89 84 79 80 81 80 80 78 80 84 88 
89 86 87 84 85 90 90 90 85 79 78 79 79 86 88 88 86 83 75 
78 76 76 79 80 80 82 80 81 82 79 78 77 74 79 78 73 73 73 
74 79 81 81 81 82 83 84 84 85 85 82 81 81 79 79 80 82 84 
84 84 82 82 82 81 79 78 74 75 79 78 81 79 83 82 81 70 72 
76 79 79 76 72 72 75 78 82 82 82 81 79 82 81 81 83 81 79 
82 82 82 80 75 72 75 74 74 74 72 76 77 78 84 86 84 80 78 
77 78 81 81 82 76 74 75 75 74 75 76 77 77 77 80 84 86 83 
78 76 72 72 75 76 76 72 71 68 66 61 65 67 74 71 71 69 67 
57 74 77 80 80 80 79 79 77 77 81 81 83 83 81 78 74 70 67 
68 72 74 74 73 72 73 72 75 80 83 78 74 71 71 71 71 71 71 
71 71 73 75 77 79 77 76 73 75 77 82 76 72 70 70 74 75 73 
70 68 67 66 64 67 67 68 69 70 70 73 77 82 74 73 75 76 75 
73 74 73 74 75 79 78 76 75 71 68 68 68 68 72 73 74 72 69 
66 66 66 68 67 65 68 72 69 66 66 65 66 68 70 70 73 78 82 
81 80 77 74 71 68 63 64 65 66 68 75 74 71 67 69 68 65 65 
65 67 66 67 67 68 70 68 73 72 69 69 68 66 68 68 70 69 71 
71 69 69 66 64 67 66 68 71 72 70 69 64 61 65 62 62 63 63 
66 69 70 62 61 63 65 66 69 70 73 76 79 79 77 74 69 63 58 
59 61 60 64 68 75 73 69 65 65 63 64 66 67 70 72 70 70 67 
71 71 71 71 67 65 63 65 65 65 67 68 69 66 68 68 66 65 71 
73 73 72 71 68 68 63 58 58 56 60 63 65 65 66 62 58 54 56 
60 63 63 64 62 63 62 65 65 68 66 61 60 59 63 64 68 74 79 
75 73 68 66 64 60 61 65 67 67 68 71 74 79 78 67 65 66 60 
61 62 62 61 62 61 61 59 61 62 64 67 71 72 70 67 64 62 64 
58 56 63 65 67 70 69 66 63 62 61 60 62 64 66 63 61 61 63 
62 62 64 64 62 56 59 60 60 68 71 74 74 69 67 65 66 62 59 
58 60 62 64 67 71 75 74 74 61 56 55 55 58 61 63 64 62 65 
65 61 60 61 62 64 69 68 67 66 64 63 64 62 59 61 64 65 65 
62 61 57 56 59 60 59 63 62 62 61 61 61 58 56 59 60 60 58 
59 62 61 65 67 70 73 68 67 66 66 64 56 54 56 59 61 63 68 
70 73 78 58 56 53 57 58 59 57 54 54 57 59 59 58 57 59 62 
67 65 59 57 58 60 65 65 63 62 65 63 60 56 55 53 52 52 52 
52 55 60 58 59 61 61 58 56 57 56 58 56 55 53 51 56 57 58 
59 55 54 57 59 58 54 51 52 54 54 58 58 58 55 54 52 53 56 
57 57 56 49 47 46 52 53 56 57 57 60 59 57 57 54 51 53 53 
55 58 58 59 62 64 59 56 55 55 50 48 50 47 48 49 51 53 55 
53 54 54 56 59 59 55 53 51 50 52 55 53 53 50 47 48 54 53 
51 50 53 57 56 59 59 56 53 52 55 54 53 52 52 49 47 46 43 
48 52 51 51 51 54 50 49 52 52 49 47 45 47 48 47 52 56 57 
60 56 50 46 40 37 42 39 41 41 45 49 50 50 55 55 56 56 55 
50 49 47 45 49 51 49 47 43 40 44 52 51 47 48 47 49 59 61 
60 59 57 56 55 57 55 53 49 45 45 43 42 45 50 52 49 47 49 
45 41 48 49 48 44 41 42 49 49 51 54 56 58 55 49 43 44 44 
42 42 39 36 40 44 50 53 58 58 57 53 54 51 48 47 46 51 53 
50 45 41 36 40 46 47 44 45 46 46 51 56 56 55 56 56 
