P2
#output from hocrtest
30 30
255
255 248 255 250 255 252 253 248 252 253 249 244 246 250 254 249 243 249 237 
226 232 245 245 253 250 252 251 244 250 255 255 250 255 254 252 251 250 247 
248 248 242 241 243 248 249 246 241 241 235 230 234 249 253 248 247 249 249 
246 245 244 249 247 249 247 246 246 242 240 239 236 233 231 233 239 244 240 
237 238 239 243 243 248 247 246 241 240 241 242 244 245 242 240 239 236 238 
235 234 229 229 226 224 225 229 233 238 234 227 229 229 229 221 223 230 238 
235 231 226 227 226 226 235 233 233 229 229 230 229 227 230 227 226 226 224 
231 231 226 206 209 210 214 217 218 229 231 234 229 226 226 229 222 225 227 
226 226 226 225 224 222 221 216 216 219 221 222 215 209 203 204 206 211 211 
209 213 210 210 217 214 216 220 224 205 204 203 208 210 208 211 213 214 211 
211 209 212 212 214 211 203 205 205 207 205 204 205 202 195 199 201 201 205 
209 199 198 197 197 198 199 198 197 197 198 200 200 205 207 207 204 200 198 
195 197 198 197 197 197 196 189 186 186 189 193 194 191 187 183 184 189 188 
186 182 183 188 190 192 195 197 193 193 188 187 192 196 197 196 199 204 199 
180 178 176 177 181 180 181 180 182 187 190 187 183 184 188 192 196 193 193 
189 185 170 176 182 192 192 193 197 197 190 182 178 174 170 175 174 177 176 
177 178 182 177 172 174 178 178 184 176 175 171 167 161 164 176 180 182 181 
182 182 179 172 172 171 173 172 170 175 172 169 178 182 172 167 164 164 167 
165 154 154 153 151 148 150 171 170 170 170 174 175 166 164 163 162 162 167 
169 166 165 161 164 163 160 157 159 162 163 158 150 151 153 154 150 148 167 
168 164 166 170 169 160 155 155 161 162 167 164 159 155 150 144 135 132 138 
154 157 155 154 147 151 160 158 154 151 156 157 158 159 162 150 146 143 141 
149 151 156 156 153 153 141 131 127 129 133 153 155 154 150 145 146 148 146 
153 150 150 150 147 147 149 138 138 139 145 142 144 136 139 142 142 133 134 
132 127 131 144 148 146 146 137 133 132 133 130 133 135 138 140 140 142 130 
129 131 138 140 135 119 119 122 126 122 119 121 118 127 139 142 144 140 134 
126 130 129 133 135 137 131 128 127 118 118 116 119 120 122 128 109 111 115 
115 112 112 112 108 111 117 122 123 128 126 123 126 130 135 130 128 127 122 
121 111 116 120 117 115 114 112 105 107 108 107 107 107 107 110 110 116 118 
119 119 117 115 116 116 113 109 121 126 121 118 110 108 104 104 108 107 104 
101 102 98 99 104 107 107 105 107 104 106 106 107 111 112 112 108 104 105 
116 120 116 108 100 97 90 88 93 96 93 91 96 93 95 94 98 100 98 
99 102 103 103 103 101 101 95 92 91 93 96 100 101 100 98 94 91 89 
91 85 83 92 91 89 89 82 87 86 87 97 97 97 94 90 94 93 86 
79 80 80 83 90 87 77 83 89 93 84 83 81 81 82 79 78 77 75 
79 82 80 84 79 77 76 74 78 78 73 68 68 76 86 91 83 73 77 
82 85 85 81 78 81 74 70 71 69 72 75 75 73 76 73 74 70 70 
74 75 72 66 62 65 67 66 64 70 72 77 77 71 70 69 68 64 64 
64 63 65 67 68 67 66 62 59 55 56 63 63 64 64 58 58 58 60 
56 60 61 66 67 66 64 66 69 56 54 51 54 56 58 57 57 58 52 
55 51 51 53 52 54 55 49 50 50 49 50 53 57 56 56 59 66 67 
67 48 45 42 44 44 44 41 44 45 47 52 53 48 42 38 38 44 41 
44 51 51 52 50 50 54 54 58 61 62 61 40 41 37 36 36 37 34 
35 36 37 40 43 42 41 40 38 46 39 40 42 37 38 39 35 34 34 
36 36 42 38 42 37 36 33 33 35 31 29 27 28 33 33 30 31 34 
36 39 34 32 30 24 29 25 24 20 21 20 18 19 14 34 34 34 31 
29 26 23 23 21 23 27 24 19 20 25 32 34 32 29 29 25 24 25 
22 19 18 17 16 17 12 
