P2
#output from hocrtest
80 80
255
251 247 252 249 255 253 253 247 251 253 255 255 254 255 253 251 249 247 242 
233 240 241 234 253 252 255 254 251 254 251 248 243 245 251 250 254 253 252 
252 255 249 254 252 252 247 248 248 247 249 245 247 251 248 244 247 253 248 
246 241 234 248 251 254 248 250 249 243 251 250 245 247 248 249 243 250 250 
254 252 250 254 251 251 253 252 252 250 250 247 249 251 252 254 253 255 254 
252 250 246 245 244 244 245 245 254 255 255 253 252 252 248 243 243 244 247 
250 252 251 252 252 253 253 253 251 249 245 247 248 249 252 252 251 250 247 
247 249 251 245 242 238 236 244 248 252 252 249 248 247 249 246 244 245 247 
248 246 248 248 250 250 247 249 248 250 252 249 246 244 243 241 243 243 245 
243 247 248 246 247 248 247 248 248 246 244 244 248 247 246 250 249 248 247 
244 242 242 245 249 252 251 252 252 251 252 250 247 244 242 244 245 246 248 
248 249 249 249 247 246 249 244 244 243 242 243 245 250 251 251 248 245 243 
240 241 243 241 243 244 241 238 239 240 240 243 246 246 246 243 241 243 241 
238 239 239 242 243 246 244 244 243 246 247 249 246 245 244 243 242 243 242 
240 238 239 241 241 241 242 244 251 251 250 250 246 247 249 250 252 250 248 
248 245 242 244 246 251 251 249 248 247 249 247 245 245 243 244 242 246 248 
248 247 244 242 243 240 242 240 240 236 235 235 234 234 236 238 239 243 246 
247 245 242 241 239 239 241 243 244 246 246 246 245 246 243 243 239 239 239 
238 233 235 233 233 230 232 238 239 239 241 243 245 245 243 244 242 242 242 
245 248 247 245 247 247 246 243 242 244 247 244 241 241 244 242 240 238 243 
242 239 239 242 244 244 243 241 243 244 241 241 235 232 230 232 233 233 235 
237 240 241 243 243 240 239 236 235 236 239 243 247 246 242 237 237 237 237 
240 241 241 240 239 236 234 231 228 228 229 235 237 238 239 239 240 240 238 
238 239 239 240 241 242 243 242 245 248 247 246 245 245 245 240 238 239 241 
239 239 238 245 246 243 242 238 238 235 238 238 237 238 241 244 239 234 230 
233 235 239 239 236 239 239 238 239 237 235 235 231 233 238 242 244 243 239 
237 237 237 236 238 240 239 237 237 233 229 228 227 226 226 233 233 235 236 
236 232 232 230 229 230 231 232 236 239 241 241 244 247 246 245 245 245 241 
239 236 239 239 238 237 238 239 241 244 241 238 237 233 234 234 234 235 238 
239 236 234 234 235 235 237 237 238 241 241 238 237 239 233 228 230 232 234 
237 237 235 233 237 238 237 238 241 239 237 235 235 234 232 232 230 230 227 
231 231 232 229 226 224 223 222 224 230 229 229 232 234 235 239 241 242 239 
239 237 238 237 235 233 234 233 234 235 239 238 243 243 243 241 236 234 233 
231 229 229 231 234 234 234 231 230 229 232 235 237 238 237 235 238 236 236 
231 230 230 232 231 230 227 228 233 233 232 236 239 236 238 233 229 229 228 
229 229 229 230 231 225 226 222 223 221 222 221 223 230 231 233 232 231 232 
234 236 238 231 227 229 228 226 228 226 226 228 230 233 235 235 234 233 233 
233 230 229 224 220 221 223 221 227 232 232 232 230 228 230 227 225 234 235 
234 234 233 237 236 235 233 230 228 225 221 223 225 227 229 230 228 228 230 
230 223 226 229 228 230 232 232 232 226 224 222 222 220 220 221 225 229 225 
230 230 228 229 232 233 235 228 222 220 219 221 225 227 227 228 229 231 232 
232 230 225 224 227 227 223 218 217 220 223 225 226 226 226 224 223 222 223 
224 227 232 229 228 230 231 232 232 232 229 224 221 220 219 221 224 224 223 
224 224 224 225 228 225 226 228 229 230 232 234 234 226 224 224 220 219 221 
222 221 225 225 226 223 223 224 229 231 229 222 214 213 217 219 222 222 225 
226 229 227 224 223 221 221 220 221 222 222 221 220 219 222 225 225 226 226 
221 218 216 219 220 222 222 218 218 221 223 225 225 220 218 217 215 215 215 
216 217 220 218 220 221 221 226 226 224 226 227 227 224 227 229 231 229 225 
219 219 220 220 226 227 225 225 222 222 219 220 224 228 222 218 214 212 212 
219 219 220 218 218 220 218 217 217 213 216 218 222 225 227 226 227 222 225 
224 223 223 224 218 215 215 219 222 226 214 212 211 216 218 218 217 217 216 
214 211 211 211 215 216 216 214 215 215 216 220 221 223 226 227 220 222 226 
224 224 224 219 218 221 224 223 225 224 222 218 216 217 218 219 220 220 215 
211 211 210 207 214 213 215 213 213 216 216 217 216 212 216 214 221 224 224 
225 224 221 226 224 223 222 220 215 213 213 213 213 218 213 212 209 214 215 
215 216 215 217 216 209 209 209 209 210 211 210 208 209 211 213 217 220 223 
225 222 223 223 221 221 219 216 217 217 213 215 215 219 219 220 220 221 221 
219 218 218 214 208 207 204 203 209 209 209 212 211 211 211 212 213 214 217 
216 222 224 224 223 221 218 218 218 218 218 220 217 213 208 205 208 211 212 
212 210 213 214 215 214 213 212 212 207 208 209 207 206 208 206 205 205 205 
203 205 217 222 224 219 220 215 214 215 215 213 215 213 212 210 211 214 216 
218 216 216 217 217 215 211 211 210 207 204 206 210 209 211 211 208 209 210 
211 214 216 217 217 221 222 223 221 219 217 213 213 216 218 220 218 217 215 
213 212 211 208 205 207 211 213 213 213 207 205 207 204 209 211 211 207 208 
205 203 205 205 205 205 212 220 222 220 217 215 216 214 213 207 209 210 210 
211 211 214 212 213 211 208 210 210 210 205 206 206 208 207 207 208 208 209 
209 209 209 211 211 213 217 220 219 220 220 217 212 208 210 211 215 215 218 
222 222 220 222 219 216 217 208 208 206 208 209 207 207 205 203 202 200 203 
205 204 202 205 202 203 205 201 201 202 204 207 208 207 209 210 208 208 208 
208 211 210 210 210 207 206 206 206 207 209 208 206 204 200 203 206 207 210 
209 209 209 211 214 215 214 216 216 216 218 220 219 218 215 213 208 205 206 
208 209 209 212 214 215 216 220 220 220 220 215 208 203 202 203 206 207 205 
204 205 205 206 205 202 200 202 202 201 201 200 201 201 200 201 203 199 201 
200 201 204 206 203 208 206 206 205 202 203 204 204 206 211 205 199 197 194 
198 200 204 207 211 212 209 210 211 211 210 211 208 208 208 211 216 217 216 
209 206 206 205 207 207 206 208 208 207 208 211 214 215 217 205 199 193 189 
191 195 194 194 201 203 203 204 204 202 201 199 197 196 199 200 200 203 202 
199 198 196 196 195 198 200 202 202 205 205 206 203 201 201 202 201 203 206 
205 202 200 198 201 201 201 203 209 209 205 204 206 205 202 202 199 203 203 
201 204 209 207 202 200 198 199 203 201 199 202 201 203 203 207 209 207 206 
194 192 187 185 186 190 192 194 198 203 205 208 207 202 201 197 194 194 197 
198 201 199 198 198 195 193 194 189 193 198 202 201 200 201 201 199 197 197 
201 201 200 202 201 200 199 199 201 201 198 201 201 199 199 198 200 198 199 
201 201 203 203 199 197 196 195 195 194 194 195 196 194 195 196 196 198 201 
204 202 198 196 187 187 185 183 183 188 191 191 192 193 194 202 202 199 199 
200 199 198 195 196 195 192 190 189 188 189 190 191 193 199 201 201 203 202 
200 199 196 194 193 190 190 192 190 192 198 197 200 200 196 197 195 194 193 
194 194 192 194 196 200 203 202 196 193 193 197 196 194 197 199 198 198 198 
198 197 196 200 199 197 194 194 184 183 187 188 187 188 184 181 179 180 182 
184 189 192 193 192 189 191 193 193 190 186 186 188 184 188 190 193 198 202 
201 203 203 202 201 199 197 192 191 186 186 186 182 189 193 197 201 197 194 
189 187 190 190 189 189 188 188 191 194 200 200 192 189 191 190 192 192 195 
197 200 201 204 206 203 201 198 194 193 192 188 184 182 188 190 188 186 178 
174 172 175 184 186 188 185 187 187 188 192 193 190 183 181 179 183 182 187 
192 194 196 199 198 197 195 197 198 196 194 188 182 181 182 185 185 185 189 
193 197 195 197 190 190 192 196 192 189 187 188 190 192 198 196 191 190 189 
189 192 190 191 192 193 195 198 202 200 198 195 192 189 188 186 183 185 190 
192 188 187 182 179 177 177 180 184 184 185 191 191 187 187 190 190 187 186 
186 189 189 189 192 195 194 195 194 193 195 195 196 193 188 184 179 178 179 
182 187 185 188 190 188 187 190 187 190 192 191 188 192 191 189 190 188 192 
191 189 187 190 192 191 189 188 186 187 188 188 192 192 195 194 193 188 185 
184 184 185 187 189 185 183 179 178 179 178 182 185 186 187 190 187 182 180 
181 180 180 182 184 187 187 185 190 193 188 189 184 177 181 185 188 187 182 
177 175 175 178 179 180 181 183 188 187 185 187 186 190 191 190 189 189 187 
179 171 171 173 179 182 182 185 186 186 186 183 176 172 175 173 181 184 188 
188 191 188 190 194 180 181 184 184 182 182 180 180 182 179 179 180 181 182 
183 182 178 175 176 176 179 184 186 185 181 183 183 184 184 187 185 181 180 
183 184 182 177 172 171 169 174 174 174 177 185 188 186 186 184 184 185 181 
181 178 178 179 177 171 171 172 175 179 180 182 183 182 183 183 182 177 172 
172 175 176 178 183 186 189 192 194 179 178 179 178 178 181 180 180 178 178 
179 179 179 179 177 177 178 175 174 176 178 182 185 187 183 179 180 180 178 
180 181 175 177 178 179 177 174 171 171 169 166 165 164 169 177 179 179 177 
178 177 180 180 177 174 176 177 175 171 173 176 179 184 185 179 178 182 183 
186 186 177 172 173 174 172 177 180 181 185 186 184 178 175 168 165 170 176 
176 174 174 173 173 173 175 175 175 177 178 174 172 173 174 177 179 181 182 
176 177 177 178 179 176 174 173 173 174 174 171 173 176 172 168 164 158 163 
170 175 176 176 176 172 171 170 169 172 176 176 172 174 174 177 182 186 184 
179 175 175 176 178 176 172 172 173 174 174 178 180 178 178 181 182 171 170 
167 164 164 170 171 169 166 169 174 175 174 173 174 177 179 174 172 170 172 
173 170 171 166 164 164 159 160 163 166 167 165 165 168 169 165 173 174 173 
170 166 159 162 165 168 167 163 160 160 164 164 162 164 171 175 175 176 174 
176 178 180 178 173 173 170 173 172 170 167 164 166 171 171 172 172 171 170 
167 165 162 163 164 164 163 165 166 163 161 162 168 168 168 171 173 174 175 
172 170 164 166 166 164 164 157 154 156 154 154 157 162 163 163 162 163 164 
166 166 168 170 170 164 161 159 162 163 164 164 161 161 161 160 161 164 169 
170 172 169 170 169 172 176 176 178 175 169 171 169 166 165 164 164 167 170 
173 173 174 171 170 169 165 162 162 161 162 163 165 166 162 164 166 165 166 
167 169 169 166 166 163 161 164 164 161 159 154 154 155 153 156 159 162 163 
161 161 161 163 164 163 162 167 169 165 161 161 164 164 164 162 163 161 160 
163 164 166 167 165 163 161 161 163 168 170 170 171 173 171 171 170 164 161 
155 155 158 159 166 166 167 170 169 170 158 159 159 159 160 164 168 164 161 
162 161 159 159 161 161 162 161 162 161 161 159 159 159 158 154 153 154 158 
159 162 164 166 163 161 159 160 160 162 163 166 165 160 158 159 162 162 160 
157 157 157 157 159 160 162 161 163 159 157 158 161 162 158 159 161 167 171 
169 167 163 164 163 163 163 164 168 169 165 166 169 169 156 156 157 160 163 
166 168 164 162 159 157 153 154 151 155 157 157 160 158 159 160 158 157 155 
151 152 154 158 157 161 164 162 159 156 155 156 157 160 160 163 163 160 162 
161 163 162 159 156 154 151 152 151 153 157 161 163 160 159 156 156 155 153 
148 151 157 158 157 156 154 155 155 161 163 166 166 166 161 158 156 158 148 
153 157 158 159 165 164 162 161 156 153 150 147 143 147 152 153 154 159 159 
157 151 153 153 151 151 152 156 157 161 161 159 157 155 152 152 153 153 153 
158 164 161 162 160 160 162 159 158 155 154 155 156 157 158 156 158 160 159 
157 156 151 144 145 150 157 161 161 158 151 151 153 158 159 159 158 157 156 
151 150 148 148 150 151 151 153 154 155 154 155 155 152 150 144 143 146 149 
150 154 157 155 153 149 150 150 148 148 147 151 154 156 158 161 163 157 155 
153 150 148 146 147 149 151 155 156 161 162 164 162 157 155 155 155 155 153 
152 148 150 153 155 154 155 154 152 156 158 162 161 156 147 146 149 150 156 
157 156 155 153 150 149 149 152 151 147 147 148 149 148 149 150 149 151 150 
147 149 150 152 153 151 153 151 149 148 149 144 142 144 144 149 149 149 148 
146 149 153 155 153 148 147 142 143 143 141 146 155 161 164 162 162 154 149 
150 150 149 149 147 149 153 153 156 156 157 155 153 153 156 154 150 147 144 
145 146 148 148 146 149 152 152 152 150 151 148 149 147 146 146 148 148 148 
148 146 146 147 148 151 150 150 150 150 151 147 146 146 143 142 142 142 145 
147 149 149 147 145 147 150 153 152 149 147 143 142 142 144 147 150 151 155 
157 152 146 146 146 148 146 145 144 148 153 159 159 158 154 153 146 143 145 
145 143 142 141 144 144 145 144 145 147 147 145 144 136 134 142 143 141 139 
140 144 145 146 142 138 139 142 147 151 150 148 147 142 145 143 142 145 143 
140 142 145 146 146 147 147 144 143 145 144 144 144 144 145 143 144 145 149 
149 150 151 152 150 147 144 148 149 146 144 146 147 145 145 145 146 145 142 
143 143 142 144 146 144 142 143 142 142 139 139 140 138 134 135 135 132 133 
139 140 139 137 139 141 143 141 138 135 136 132 134 137 139 142 142 141 143 
138 140 138 137 135 138 141 142 145 145 152 144 140 139 139 137 136 138 140 
140 145 146 146 144 142 143 144 144 142 147 149 146 141 137 140 140 137 135 
138 140 140 139 141 142 141 143 146 143 140 141 142 142 138 139 138 137 135 
135 133 133 136 135 135 134 125 129 135 135 135 135 133 134 132 132 134 136 
136 136 136 136 133 134 133 131 134 137 142 145 148 148 149 144 140 137 138 
136 134 133 136 141 145 144 145 143 142 141 142 142 143 145 146 140 134 129 
133 138 138 138 138 140 140 141 144 142 139 138 137 135 133 131 132 135 135 
136 136 139 141 140 138 135 140 131 131 129 122 126 130 134 133 132 129 130 
128 127 125 126 128 129 128 123 122 128 128 132 136 140 143 144 142 142 135 
135 132 133 135 131 135 136 138 139 142 141 141 143 143 144 142 141 144 143 
144 140 137 126 126 131 131 135 135 134 139 137 138 132 130 131 132 130 128 
127 129 130 131 135 136 139 144 146 137 127 128 122 126 129 128 130 131 135 
134 131 129 127 127 124 123 124 123 123 124 121 120 124 124 125 129 133 137 
137 139 138 134 133 130 127 127 129 130 135 135 133 132 129 131 136 140 139 
137 134 137 137 139 135 134 129 125 128 132 135 138 137 137 134 133 132 130 
132 132 130 126 126 130 130 132 132 133 138 143 140 133 123 121 125 128 131 
131 132 132 133 133 131 127 125 122 118 120 124 126 125 127 127 128 128 129 
129 128 130 136 139 140 136 134 134 131 127 127 130 132 135 136 131 128 126 
128 131 134 135 133 131 133 133 132 130 131 127 122 125 127 130 137 137 135 
135 134 133 132 132 132 130 128 129 131 133 135 135 138 140 140 134 128 124 
124 122 123 127 129 131 133 133 130 127 126 124 122 118 120 122 126 129 131 
129 129 127 127 126 124 128 132 132 133 133 131 130 126 123 123 127 130 131 
132 128 121 122 123 123 123 127 130 132 129 130 129 128 129 126 123 120 122 
122 132 136 136 136 136 135 132 132 131 130 131 131 132 131 130 131 132 132 
133 129 124 121 121 122 124 119 121 125 128 127 128 123 121 117 115 111 114 
119 122 122 125 121 123 122 124 126 128 131 132 131 127 126 127 127 123 122 
123 124 126 125 129 127 121 119 122 126 130 131 131 135 135 137 138 140 141 
136 134 132 129 124 125 126 128 130 129 128 130 128 131 133 133 131 130 128 
127 127 129 130 130 133 129 129 129 117 121 119 119 120 123 123 121 119 114 
112 113 111 111 113 114 118 119 117 115 112 111 117 123 127 128 125 120 121 
123 122 119 119 120 121 120 121 123 124 123 123 126 127 128 132 136 135 126 
122 124 124 126 128 132 129 129 127 123 123 118 118 122 126 128 126 125 125 
127 127 128 124 124 124 127 127 122 124 123 125 129 111 115 116 117 118 118 
121 120 115 110 107 106 108 110 111 113 113 114 109 108 108 110 114 124 127 
125 124 119 119 119 118 117 115 114 117 118 117 121 123 123 123 127 124 124 
129 128 128 119 115 113 115 115 121 127 131 130 125 116 114 116 114 118 125 
124 119 121 117 119 121 119 119 119 121 123 122 116 113 108 109 108 105 103 
106 106 104 101 102 107 109 109 109 107 108 109 110 109 109 108 103 106 108 
110 113 119 122 122 121 118 116 116 116 117 112 111 112 112 111 114 116 120 
123 123 120 119 118 120 123 116 111 107 111 115 119 123 125 124 120 114 113 
112 112 115 116 119 118 114 113 114 113 111 108 107 111 116 119 116 113 108 
105 102 100 99 99 100 100 102 103 106 108 107 107 104 101 100 99 102 107 
109 109 113 109 107 108 110 112 112 113 118 115 113 111 111 107 106 106 103 
102 103 103 109 117 119 117 115 110 111 112 110 108 108 111 112 117 117 117 
117 113 111 109 107 110 116 114 115 115 110 107 108 107 104 103 106 107 112 
113 110 107 107 104 104 97 98 94 93 95 99 101 103 102 100 100 98 96 
93 91 94 104 113 115 116 116 111 108 108 107 109 110 111 109 106 105 106 
105 105 105 103 101 102 101 107 108 109 111 105 103 106 106 106 103 105 106 
110 114 112 112 110 108 108 109 107 111 113 111 112 110 108 105 104 104 101 
102 103 107 108 109 106 105 103 104 104 97 96 92 93 96 101 106 104 101 
98 97 100 94 94 91 90 95 107 111 114 114 114 112 109 107 104 106 106 
104 103 103 105 107 110 112 107 104 103 102 103 103 99 99 97 100 104 107 
106 105 106 103 107 110 111 110 107 104 103 105 107 112 112 113 113 109 103 
101 97 96 98 99 101 102 103 104 106 104 102 101 97 102 101 95 94 93 
96 99 97 93 94 92 94 92 92 93 95 97 100 103 100 100 101 100 98 
98 98 98 100 100 101 99 98 98 100 103 101 101 101 102 103 100 96 93 
95 97 100 100 98 98 101 101 107 107 108 105 100 100 103 103 107 108 107 
108 107 107 102 96 97 97 98 96 97 96 98 102 105 112 112 112 112 95 
95 94 95 96 97 94 92 93 91 89 90 89 93 93 94 95 97 99 97 
96 97 94 94 93 93 92 93 97 95 90 88 90 95 98 98 97 95 95 
94 96 97 97 95 96 97 95 95 94 98 99 104 105 102 98 95 94 97 
99 101 99 100 99 98 101 97 94 94 100 98 97 95 95 99 101 104 105 
102 97 95 98 99 98 96 94 93 94 94 97 97 91 89 90 93 92 91 
90 89 89 87 90 93 93 88 87 89 91 94 98 98 93 90 94 98 100 
97 96 94 94 95 100 102 100 100 98 96 94 95 92 96 96 99 101 94 
91 92 94 95 93 95 96 97 96 95 98 94 91 89 93 91 91 96 101 
101 103 103 99 94 87 80 92 95 97 96 98 97 100 97 97 95 94 91 
90 89 88 88 88 88 91 88 91 91 90 88 89 89 92 95 98 94 92 
88 90 90 91 86 85 83 83 89 91 91 93 94 92 92 93 93 90 88 
91 94 93 90 90 92 94 92 92 95 98 99 100 102 104 100 95 91 88 
87 85 88 90 92 96 96 92 88 87 85 94 95 94 94 98 97 99 96 
95 94 94 92 90 89 88 89 88 88 91 90 90 90 92 90 90 91 97 
99 100 93 89 86 88 89 88 83 81 84 82 85 86 88 86 86 85 89 
90 92 91 89 87 89 88 87 86 87 89 83 89 91 94 95 98 99 101 
98 96 91 86 85 80 81 86 87 89 93 95 98 103 103 95 92 93 94 
95 90 89 86 84 82 83 84 84 82 84 86 90 89 89 89 88 87 89 
88 89 93 97 99 96 92 86 85 86 87 86 84 85 86 83 83 84 89 
92 92 94 93 90 90 91 89 86 90 91 93 90 84 84 84 88 84 85 
85 85 87 85 85 87 86 85 85 82 81 81 81 84 89 94 98 99 100 
95 93 93 94 91 87 87 83 81 81 82 82 81 80 79 78 81 81 84 
84 89 87 86 88 89 88 90 88 89 87 79 77 78 77 79 79 83 82 
80 83 83 86 88 91 95 93 91 90 87 89 82 83 83 85 88 83 81 
81 85 86 85 82 82 82 80 77 77 76 77 79 80 83 79 79 82 85 
92 94 91 90 89 91 92 90 88 85 84 79 77 76 78 79 78 78 76 
74 75 76 78 81 84 86 88 85 83 81 83 81 79 75 72 73 72 74 
76 75 77 78 80 80 77 77 79 80 79 82 84 83 80 80 76 77 79 
78 84 84 78 77 80 84 83 83 81 76 73 74 74 76 76 77 78 78 
77 79 81 83 86 87 85 85 81 88 89 89 85 76 75 71 68 70 71 
72 72 73 74 75 73 73 74 75 77 81 82 80 81 82 79 77 76 73 
72 73 75 77 73 73 74 73 74 74 77 78 78 78 78 80 83 80 76 
78 77 76 76 77 79 77 75 75 79 81 79 77 75 71 68 70 72 72 
75 75 74 73 72 74 77 74 76 77 75 76 79 80 81 81 80 75 70 
66 65 64 62 63 64 65 69 70 69 69 72 72 73 76 76 76 82 81 
78 75 73 73 73 75 74 72 66 65 66 68 69 71 77 79 74 71 73 
74 77 77 78 80 80 72 71 77 77 76 78 77 81 82 78 76 74 70 
69 69 69 68 69 71 74 76 77 77 72 68 74 76 75 76 73 76 78 
78 74 71 67 64 63 63 62 61 60 61 64 67 68 68 69 70 73 75 
78 79 74 73 72 73 73 72 72 70 69 67 64 64 64 64 63 66 71 
72 71 69 72 71 72 70 71 74 74 71 71 74 75 74 73 73 74 74 
75 74 71 70 68 69 70 69 69 70 73 77 79 78 66 64 66 70 74 
74 75 72 71 74 73 73 73 63 59 61 63 62 61 63 66 66 66 66 
67 65 70 73 72 69 66 71 74 75 73 71 71 69 69 70 70 68 64 
62 63 63 66 66 66 66 66 63 60 60 60 68 69 69 68 70 72 73 
72 72 73 73 69 67 67 68 69 70 73 72 70 70 68 73 76 73 65 
64 64 66 66 66 71 71 68 67 66 74 72 64 58 58 60 59 60 63 
65 65 65 65 67 69 71 72 69 65 66 67 75 76 73 71 70 68 69 
71 69 70 65 63 61 61 62 63 66 66 64 60 55 53 56 64 65 66 
68 71 70 72 71 73 73 72 68 66 68 69 69 68 69 69 68 67 65 
65 63 63 63 61 60 59 58 56 69 68 64 62 61 64 63 59 58 56 
53 53 59 63 61 60 61 65 70 71 71 73 71 69 69 68 69 67 67 
66 63 63 67 70 67 65 63 62 61 57 60 61 61 64 62 58 53 53 
54 56 58 60 65 66 67 71 71 71 67 66 65 62 64 67 66 64 64 
66 64 61 60 59 60 58 57 57 56 55 54 53 60 64 62 63 60 61 
58 57 59 61 58 56 58 59 59 58 58 61 65 65 65 67 68 69 67 
63 61 61 62 62 62 62 64 64 65 64 62 61 61 57 55 53 54 54 
54 54 52 51 54 59 61 64 66 68 68 68 66 67 64 63 59 58 62 
64 66 66 64 61 58 57 56 55 54 56 55 56 55 55 53 51 59 60 
61 59 55 53 52 53 56 57 52 49 52 53 53 54 54 57 56 55 55 
59 62 63 62 59 57 55 54 54 54 52 55 53 57 58 59 57 57 53 
49 46 47 48 49 52 53 49 52 56 61 64 64 65 63 59 57 57 58 
58 55 55 56 57 62 63 62 62 62 58 55 52 48 50 50 51 51 52 
55 55 52 52 50 49 49 50 51 53 56 54 48 47 45 49 52 52 52 
54 53 53 50 52 53 56 59 58 55 50 49 48 46 45 46 48 49 49 
52 55 57 58 53 48 44 46 45 45 46 49 54 56 62 67 67 64 62 
56 52 51 49 50 48 50 49 53 52 54 55 55 58 57 59 54 51 51 
53 52 49 47 49 49 49 46 41 38 41 43 48 50 51 49 46 46 50 
55 55 53 53 50 47 47 45 50 51 53 55 56 53 48 44 43 43 47 
47 51 50 50 51 51 53 53 51 47 42 45 46 48 48 49 50 48 49 
54 58 56 54 49 44 42 45 47 52 54 52 53 54 54 53 55 52 51 
53 51 51 52 54 50 47 44 45 43 44 44 42 41 45 47 48 47 49 
46 44 46 48 49 49 49 48 47 44 44 45 46 48 52 52 57 57 55 
47 47 48 53 51 51 47 48 48 47 49 49 48 45 38 41 39 42 43 
43 48 45 47 48 53 54 53 49 42 39 41 41 46 47 51 52 53 53 
52 52 50 50 50 46 47 49 52 51 48 47 45 48 37 38 39 39 40 
40 42 42 42 43 41 43 43 42 41 42 42 42 41 43 44 44 45 47 
48 51 49 48 46 47 49 52 53 53 47 45 46 45 45 44 41 37 31 
36 37 40 40 43 43 41 43 46 50 50 50 46 43 41 39 39 45 47 
50 47 46 48 47 48 48 47 47 43 40 42 48 49 50 51 51 47 33 
36 39 39 42 46 47 43 43 43 40 38 37 36 37 40 40 40 38 40 
41 40 42 45 44 45 41 37 38 39 42 46 48 48 48 46 44 41 41 
38 39 37 32 35 38 41 42 40 39 37 34 36 37 39 46 45 45 43 
41 41 41 40 43 42 42 42 43 45 45 43 45 42 39 40 42 46 46 
46 47 47 33 34 34 33 35 37 39 42 41 42 39 36 38 38 36 38 
37 36 36 36 37 37 41 44 41 38 36 33 31 35 38 41 41 43 42 
38 34 33 33 35 38 36 32 33 37 41 43 39 39 40 37 33 33 33 
39 42 43 42 40 38 36 35 35 37 37 38 41 43 45 43 40 39 35 
34 35 40 40 40 39 39 29 27 28 31 34 38 36 35 31 33 32 35 
37 36 29 28 30 31 34 36 37 33 35 36 33 34 32 31 30 33 37 
37 37 35 34 34 30 27 29 32 33 29 30 32 36 38 36 34 33 38 
35 32 33 35 37 36 38 39 34 34 30 30 27 28 29 34 42 43 41 
39 36 31 32 35 35 38 41 40 41 35 29 27 27 31 33 34 38 35 
30 27 28 25 26 28 27 23 24 26 30 36 40 38 37 37 35 35 33 
27 25 28 29 33 35 34 33 32 31 30 33 32 34 30 28 28 30 31 
32 34 34 34 33 31 31 33 37 33 34 35 31 28 25 24 25 27 29 
32 38 37 36 35 32 30 31 36 37 38 38 37 37 41 25 25 24 27 
28 32 33 33 33 28 27 25 20 20 20 23 24 25 30 35 36 34 31 
30 30 29 26 22 23 22 24 29 34 34 33 28 26 28 30 28 30 27 
26 26 27 28 30 30 28 24 22 21 23 26 29 31 32 32 31 29 27 
28 30 28 29 34 35 36 32 31 32 33 35 38 34 35 36 36 40 43 
24 22 21 22 25 29 30 28 28 31 29 26 23 22 24 23 21 22 24 
25 24 22 20 21 20 17 19 20 20 21 21 24 28 27 23 21 19 21 
20 24 23 25 23 25 25 26 29 28 27 24 18 18 19 21 24 24 25 
28 28 29 30 29 28 29 29 32 34 33 31 28 26 26 33 34 34 33 
32 27 26 23 19 18 17 17 17 20 23 28 30 34 33 31 26 22 22 
21 22 22 22 21 20 20 20 20 22 22 21 20 18 18 18 20 21 23 
25 21 18 17 16 18 18 18 21 22 23 25 26 26 26 22 20 20 20 
24 25 24 23 22 25 24 22 22 22 24 25 27 27 26 27 28 26 24 
24 24 25 27 25 21 19 22 16 16 18 14 12 11 10 14 18 24 25 
28 26 25 24 22 23 22 22 21 19 17 16 15 16 16 15 15 15 13 
11 13 19 21 23 24 24 24 22 21 18 16 18 21 23 23 24 26 29 
28 26 24 23 23 23 21 16 14 10 4 7 8 12 16 20 22 25 24 
22 21 20 20 21 27 24 22 22 19 19 22 20 21 20 15 11 5 5 
6 12 13 18 19 23 27 25 22 19 19 20 20 19 18 19 13 13 13 
13 14 18 16 17 20 23 24 26 26 25 21 20 23 20 17 16 20 22 
24 27 32 35 33 30 28 26 23 20 18 13 13 11 3 4 2 7 13 
19 24 27 26 24 23 20 20 22 26 26 23 19 17 16 16 
