P2
#output from hocrtest
10 10
255
245 235 255 234 239 234 243 240 247 247 242 237 248 238 228 224 219 230 214 
196 190 195 192 206 190 205 202 205 204 218 172 178 194 196 174 193 194 190 
180 185 129 153 159 157 179 156 151 149 143 143 140 145 143 105 111 140 134 
127 131 128 116 105 104 82 94 116 114 103 105 101 72 60 71 63 71 76 
77 79 93 90 64 66 74 57 57 56 53 63 65 57 52 49 45 39 50 
49 48 51 46 36 
