P2
#output from hocrtest
90 90
255
252 248 249 249 253 254 253 248 252 252 253 255 255 255 255 253 249 251 246 
234 240 241 236 246 246 252 254 254 255 255 255 252 255 252 250 255 255 254 
252 253 247 250 249 252 255 254 247 247 243 233 238 250 251 246 248 251 249 
255 255 238 253 255 255 247 255 255 244 250 253 251 246 244 249 244 249 248 
247 247 249 252 254 252 255 255 255 254 251 240 249 252 253 252 251 253 253 
253 251 246 250 251 252 255 255 255 255 254 251 252 251 248 245 243 243 245 
246 250 254 254 255 255 255 255 255 252 250 253 254 253 253 253 251 250 249 
252 254 251 245 243 241 239 243 249 250 250 250 249 247 251 253 247 254 255 
255 252 254 255 250 250 249 247 245 245 247 246 245 243 244 245 246 251 251 
250 252 253 255 252 251 247 250 252 249 248 248 251 253 252 253 253 250 249 
252 252 252 254 255 255 250 250 252 252 249 248 247 246 244 248 250 252 253 
254 254 253 253 252 249 254 253 253 251 247 249 248 251 252 252 250 248 245 
244 244 247 249 251 252 250 248 249 249 249 251 253 254 255 252 253 255 252 
248 244 243 244 242 244 244 244 240 240 243 246 250 251 250 251 253 254 252 
249 245 246 245 246 248 249 250 254 254 255 253 250 251 253 254 253 253 252 
251 246 244 249 252 252 253 251 250 247 249 249 251 251 252 253 250 250 249 
249 251 249 247 247 247 249 250 251 249 248 248 243 240 242 244 245 249 253 
253 251 251 249 249 250 250 252 251 252 253 251 251 248 246 244 243 244 244 
242 239 242 241 243 243 244 250 248 248 249 251 251 248 248 247 245 243 245 
247 248 246 245 248 251 249 246 248 250 249 247 247 249 251 246 244 244 251 
251 247 247 253 253 251 249 248 251 253 254 251 245 244 241 244 243 242 243 
247 251 251 253 252 249 246 243 240 241 245 249 251 251 248 243 242 241 240 
244 245 248 248 248 250 249 247 245 245 244 247 248 247 245 244 247 249 250 
248 249 249 247 245 246 250 249 249 247 246 246 246 245 245 245 242 239 239 
242 242 241 244 246 244 244 243 248 245 245 244 241 244 248 248 249 250 249 
246 244 245 246 245 245 244 241 240 240 242 242 242 245 247 249 251 250 248 
245 243 241 241 243 246 252 249 247 242 236 237 237 235 239 242 243 244 246 
248 244 245 244 243 243 244 246 247 248 248 248 249 250 249 248 249 247 245 
244 244 246 248 246 243 242 239 243 242 243 240 237 233 233 237 239 241 242 
241 239 237 239 241 243 242 240 242 244 245 244 246 246 241 238 242 241 241 
243 242 240 238 241 244 244 243 245 245 246 246 244 244 246 243 239 238 237 
245 246 246 242 237 236 236 236 235 238 238 238 239 241 242 243 246 246 244 
245 244 246 247 247 247 245 244 244 243 245 244 248 247 247 246 246 246 245 
243 241 238 245 246 243 242 238 236 235 239 243 245 244 241 238 239 239 239 
239 239 241 241 242 240 239 238 241 242 239 244 244 243 243 237 237 234 235 
239 240 240 241 238 237 236 236 236 236 234 235 234 237 242 243 242 236 233 
233 238 239 237 238 242 240 238 238 239 239 238 238 239 241 241 241 242 244 
242 239 238 235 231 236 239 239 240 244 244 245 244 241 241 238 236 239 240 
239 239 238 238 237 238 240 240 241 238 236 236 238 238 240 241 240 238 238 
238 236 235 238 239 239 239 241 239 238 235 234 235 237 238 240 239 238 234 
234 231 229 228 234 237 237 233 234 236 236 238 236 234 231 233 235 236 238 
240 240 236 237 237 235 232 230 232 234 236 239 240 239 237 235 237 235 232 
233 238 240 240 241 242 244 244 242 242 240 237 235 235 232 234 236 236 235 
235 236 238 237 238 236 236 238 239 242 242 241 240 237 235 237 233 235 237 
237 235 237 235 235 233 230 233 235 236 237 235 233 231 232 232 231 231 234 
236 237 234 233 233 232 234 232 233 231 231 231 232 234 237 239 239 238 235 
232 232 231 230 232 234 234 234 234 235 234 236 234 231 231 235 235 236 238 
238 240 241 238 238 237 236 235 234 231 232 234 238 237 236 236 237 236 236 
232 233 232 231 237 236 236 237 234 234 233 231 235 236 234 234 235 231 227 
231 229 231 233 235 237 234 234 236 236 235 234 234 237 238 236 237 236 236 
235 233 230 231 230 232 230 232 234 235 233 232 232 233 231 232 233 235 233 
231 230 230 231 233 235 236 235 234 233 235 236 234 237 237 235 235 235 234 
234 237 232 230 230 233 236 237 235 233 233 232 228 228 226 227 227 227 227 
227 230 229 225 233 233 230 229 231 232 232 233 231 226 228 226 230 233 235 
237 235 236 240 241 239 236 233 233 233 233 232 234 238 237 234 230 232 231 
233 234 234 235 235 230 230 231 232 232 232 232 229 228 231 229 230 231 232 
234 234 232 233 233 234 234 231 232 233 227 227 226 228 227 224 236 236 236 
235 236 236 234 232 230 228 224 226 224 223 225 225 225 227 229 227 230 238 
236 235 232 228 228 228 225 221 218 218 222 227 229 231 231 231 230 234 234 
233 230 230 230 233 235 236 235 239 234 231 230 229 230 234 231 231 229 229 
225 224 229 233 236 233 233 231 229 231 232 232 232 231 231 229 228 228 231 
231 230 229 229 229 224 224 226 227 226 223 235 236 235 236 235 231 229 231 
230 232 231 229 225 222 225 232 235 234 233 230 231 235 234 233 230 229 227 
227 224 220 218 216 221 227 229 231 230 227 225 227 225 226 224 228 231 233 
233 231 232 233 232 229 229 232 233 233 232 231 231 228 225 223 227 229 234 
236 234 234 232 231 229 228 228 228 229 224 227 228 231 230 229 229 227 226 
224 226 224 226 228 227 231 232 233 233 233 232 230 229 230 230 235 232 230 
230 231 231 237 236 233 233 232 233 229 230 227 225 224 222 217 215 214 214 
218 221 222 225 225 225 225 224 223 222 222 226 228 229 229 230 229 229 226 
226 227 226 225 225 224 224 227 229 229 229 229 232 235 233 232 231 228 228 
226 227 229 232 232 229 233 234 235 233 230 232 228 228 227 227 227 227 229 
230 229 229 231 232 230 231 231 231 232 230 232 229 225 224 228 231 234 231 
230 230 228 229 227 226 222 223 223 219 213 212 216 217 217 219 219 219 224 
224 224 223 222 222 224 224 226 230 229 231 231 230 230 231 226 220 218 215 
217 222 225 225 227 230 229 231 230 231 230 228 225 222 220 222 225 226 226 
223 226 231 228 230 227 227 228 231 231 232 232 231 230 232 224 224 225 222 
221 222 221 222 223 225 225 225 224 224 225 223 223 220 220 223 222 226 223 
221 219 221 219 216 215 212 215 216 219 223 227 225 226 226 225 223 221 220 
223 224 225 226 227 227 227 225 228 229 225 220 220 219 219 221 220 221 222 
220 224 228 228 227 225 223 220 219 219 215 217 218 220 220 223 228 226 225 
222 222 221 222 225 227 228 227 227 229 227 228 228 222 218 216 214 214 216 
221 223 223 225 227 224 219 216 215 211 214 215 218 216 218 220 220 218 217 
218 217 213 216 217 220 219 222 223 224 220 220 223 223 222 222 224 222 222 
223 224 223 223 222 218 215 216 218 218 218 218 215 214 215 217 220 221 225 
225 221 210 207 205 204 205 211 215 220 223 223 222 221 219 222 222 223 223 
225 225 226 224 220 226 227 226 222 218 216 215 216 217 221 222 222 223 225 
225 223 220 219 220 213 212 212 212 214 219 217 220 220 219 221 217 217 214 
216 216 216 219 222 223 225 223 223 222 224 225 223 225 227 226 222 220 219 
216 216 216 220 218 215 215 214 213 213 214 216 218 222 223 217 208 203 201 
201 202 209 215 217 217 217 219 222 221 220 220 223 221 224 222 224 226 228 
225 229 227 223 221 219 219 219 219 220 218 220 217 219 218 218 220 220 221 
216 211 211 211 210 213 216 217 219 219 220 220 214 214 216 214 214 216 221 
223 225 225 229 230 230 229 223 221 224 220 218 216 217 217 218 218 220 213 
210 211 212 214 215 216 213 216 219 220 219 215 210 205 204 207 209 212 215 
219 217 217 219 218 217 216 217 220 224 221 220 219 219 221 223 221 220 218 
218 218 218 219 218 217 216 216 219 216 215 217 217 218 217 215 212 211 212 
213 216 215 218 219 218 218 217 217 217 213 211 211 215 219 219 220 225 227 
228 224 224 220 218 215 213 210 211 212 214 220 222 216 216 217 217 218 219 
221 221 221 221 222 222 218 215 215 214 217 217 218 217 219 215 213 213 212 
215 217 217 220 219 215 215 217 216 223 223 219 218 219 219 218 218 215 216 
214 211 211 215 217 219 221 219 220 222 218 212 212 213 217 215 216 213 212 
211 214 214 212 219 215 211 209 210 213 212 216 220 222 220 220 219 215 212 
211 211 210 210 211 213 213 211 213 212 212 213 210 211 211 215 217 217 217 
215 214 214 214 214 215 212 212 217 215 213 211 211 210 210 215 217 219 217 
212 207 206 201 216 217 217 217 217 218 217 214 209 208 208 205 208 210 211 
216 219 217 218 220 219 214 215 218 217 215 211 209 210 211 212 213 213 215 
213 210 205 205 207 208 212 212 210 208 208 211 211 210 208 212 210 210 211 
213 216 213 209 205 206 204 208 210 209 210 212 212 211 209 210 210 212 211 
212 209 209 212 213 213 213 208 205 207 211 211 215 214 212 211 213 213 211 
209 208 210 211 214 216 216 215 212 211 210 210 210 211 215 214 214 212 213 
216 214 215 215 217 215 211 208 208 210 212 214 213 213 211 208 207 208 206 
205 206 203 203 206 207 202 206 205 207 207 204 203 206 212 214 212 210 205 
205 205 208 212 210 205 204 204 205 205 206 207 208 209 212 210 209 212 214 
217 218 210 207 205 207 206 207 207 207 208 210 209 210 207 201 202 207 212 
213 213 211 209 205 205 206 206 206 207 211 206 203 205 208 208 209 212 211 
210 207 208 211 210 208 208 205 206 207 208 205 205 205 204 201 201 196 198 
200 203 207 210 212 210 207 208 209 212 214 213 207 207 209 209 211 216 212 
207 201 200 198 200 203 203 204 208 209 208 209 214 212 212 215 210 209 208 
205 203 205 209 209 208 204 200 208 208 207 206 209 212 217 207 204 202 204 
203 203 203 200 202 204 198 197 197 200 200 199 199 202 203 200 205 208 208 
207 204 200 201 203 205 204 200 198 198 200 201 197 197 202 206 209 213 210 
209 210 212 213 210 210 207 209 206 205 204 204 206 206 202 199 197 198 196 
200 199 198 201 203 203 203 206 206 204 204 201 207 208 208 208 208 207 207 
206 203 193 203 205 204 207 207 211 208 201 198 199 200 200 201 202 202 203 
204 200 199 199 198 193 192 189 192 196 197 202 203 206 209 204 200 199 203 
205 208 205 205 203 203 203 202 204 204 204 206 207 205 208 209 208 209 208 
211 211 212 209 207 206 205 202 202 202 201 201 201 205 203 204 204 202 202 
203 203 204 202 204 205 207 210 209 206 203 203 203 204 200 203 201 200 200 
196 199 202 206 206 200 196 196 195 196 197 198 200 201 201 199 200 198 197 
195 197 196 198 199 196 200 202 204 207 205 202 201 203 204 205 204 203 200 
193 192 195 198 202 202 203 202 201 203 202 204 205 202 203 208 211 210 206 
208 207 204 202 201 200 201 201 203 204 205 202 200 198 198 196 198 201 204 
207 211 209 210 207 205 203 204 203 204 205 205 196 195 193 195 201 203 204 
199 199 197 197 196 196 198 198 200 196 194 193 194 197 196 196 198 204 206 
204 203 202 204 204 204 200 199 202 205 204 206 205 203 198 196 195 197 199 
199 201 200 200 199 199 199 200 198 202 205 209 208 204 205 205 205 201 198 
197 198 199 197 198 203 204 202 198 198 198 194 199 204 207 211 210 205 207 
206 206 205 204 204 197 192 182 182 183 194 198 201 201 200 196 197 196 195 
193 194 196 195 191 190 189 191 192 193 195 198 201 203 200 197 197 197 196 
197 197 199 199 203 204 205 204 202 194 192 193 189 190 192 193 193 197 197 
196 194 196 196 197 199 201 204 203 204 203 201 198 196 196 197 199 197 200 
203 203 200 199 195 195 193 192 198 202 204 208 208 207 207 205 206 206 209 
202 202 177 177 181 189 194 198 200 199 197 194 194 192 192 193 193 193 191 
190 188 189 190 189 191 192 193 194 194 192 194 195 194 194 192 192 191 193 
195 196 197 196 191 189 189 189 189 191 191 194 195 194 194 194 192 192 195 
196 196 196 196 197 198 198 196 193 197 197 200 198 198 196 197 196 199 195 
194 191 190 193 197 198 204 205 204 203 201 204 202 201 191 188 185 187 191 
194 194 195 193 192 192 190 193 189 188 189 188 189 188 187 188 186 188 186 
186 189 191 192 191 190 192 192 192 193 195 195 192 192 189 189 187 187 185 
186 189 189 192 191 190 192 190 189 188 187 188 192 198 200 200 199 195 192 
194 194 190 188 189 191 190 185 186 189 190 190 193 195 195 192 188 189 190 
193 195 195 194 194 194 198 199 200 193 195 193 196 202 198 194 193 191 191 
191 190 190 189 189 190 190 190 191 190 189 188 186 186 186 186 187 187 189 
190 193 192 193 194 196 196 195 194 189 190 187 186 186 185 188 189 190 188 
191 190 189 186 185 187 188 190 193 196 196 198 195 194 192 189 182 181 181 
182 182 183 183 185 185 187 190 193 194 193 190 190 187 189 190 192 189 189 
190 193 194 195 185 180 190 192 196 196 195 192 189 190 190 189 188 192 190 
190 190 191 193 191 190 191 189 190 190 189 188 188 189 192 193 195 196 198 
197 197 196 194 186 187 186 186 188 187 188 189 191 191 191 190 188 187 184 
186 187 188 191 192 192 191 190 185 183 180 181 181 181 180 180 180 181 182 
183 186 188 192 195 191 191 191 189 189 189 186 185 186 190 192 193 194 195 
192 190 187 188 188 187 185 184 184 185 190 188 187 186 185 185 185 188 189 
188 192 189 188 185 185 185 187 188 188 193 196 196 197 192 192 190 184 177 
180 182 184 183 185 185 185 189 190 192 192 193 194 191 188 187 186 183 182 
183 182 183 183 182 182 182 177 178 182 180 180 182 182 183 184 186 187 191 
190 190 189 189 187 185 186 184 186 187 190 193 197 199 200 191 188 187 188 
187 184 182 183 187 191 190 189 186 184 185 186 187 188 186 191 186 179 177 
179 184 186 186 187 188 188 190 193 194 194 191 185 181 180 178 174 178 178 
178 178 183 184 187 187 189 192 190 187 183 177 175 175 178 178 178 179 179 
179 180 175 176 179 179 181 180 179 182 183 187 189 191 191 191 190 189 183 
183 182 184 187 183 187 189 191 193 196 188 187 190 189 189 188 188 188 187 
191 188 190 186 184 185 185 187 188 183 186 184 177 172 176 178 184 185 182 
180 179 184 186 188 190 191 190 188 185 176 170 169 170 172 174 178 182 187 
186 187 188 185 183 179 176 174 174 176 177 175 174 175 174 174 173 175 179 
180 183 184 181 182 183 183 183 184 186 190 190 192 188 183 183 186 188 183 
183 184 186 185 181 184 184 186 186 187 189 190 186 182 184 183 184 184 184 
188 187 186 183 181 181 177 175 173 176 179 187 186 182 179 179 181 183 186 
190 192 191 189 187 179 174 169 171 170 171 176 178 179 183 185 186 188 188 
185 182 180 183 181 181 179 175 178 175 173 173 177 179 181 182 182 181 180 
180 181 183 185 186 184 184 187 186 187 188 187 180 177 178 180 184 185 182 
184 182 182 181 181 185 185 181 180 180 182 181 181 185 190 189 184 181 179 
178 175 173 174 176 179 183 183 182 180 181 181 182 184 187 188 188 189 187 
181 178 175 176 172 170 173 178 180 183 187 186 188 187 184 184 184 186 186 
186 182 178 176 174 172 170 173 176 180 177 179 178 178 177 174 176 179 179 
178 183 186 186 187 187 186 180 177 178 182 184 185 187 177 177 177 178 178 
182 180 175 174 175 177 179 173 177 182 182 179 179 176 176 171 170 170 173 
177 179 177 179 178 178 178 181 184 188 189 188 185 180 177 179 178 177 176 
176 177 179 178 180 179 179 179 180 180 183 183 184 187 186 187 186 185 184 
180 179 173 173 175 176 179 180 179 177 175 178 181 181 180 183 182 181 181 
182 184 181 178 179 184 185 183 182 172 174 173 174 174 178 176 176 177 175 
175 178 173 173 171 171 176 174 172 171 168 165 165 171 175 178 178 178 178 
179 179 181 183 184 184 179 177 174 174 176 175 175 174 173 179 182 182 175 
174 175 173 174 173 175 173 176 179 178 177 177 173 175 175 176 173 173 175 
177 178 180 175 172 172 174 175 173 174 176 177 178 176 179 181 181 180 180 
184 185 181 178 161 164 166 167 168 171 170 174 174 175 176 176 174 177 177 
175 176 174 172 172 171 170 171 169 175 178 177 178 179 178 178 181 181 181 
180 178 175 170 170 169 169 170 171 174 181 181 181 173 171 172 168 170 171 
169 169 172 169 172 172 170 170 173 173 173 172 170 171 174 175 175 175 169 
170 170 168 165 164 168 172 173 174 171 173 175 176 176 176 175 171 169 160 
162 163 167 167 169 167 167 168 173 177 176 173 174 173 173 173 173 173 172 
170 171 170 172 176 176 176 174 172 170 171 174 177 177 175 173 173 166 167 
168 167 168 169 170 172 168 171 170 168 166 162 162 163 165 167 169 164 165 
164 164 165 166 167 169 170 173 175 178 179 179 179 173 169 169 165 164 163 
165 166 168 167 166 168 170 173 174 176 177 176 178 158 161 163 163 162 162 
160 158 160 165 173 173 173 172 169 168 172 174 174 174 172 168 167 168 170 
173 171 169 169 167 171 173 171 171 173 168 165 166 165 164 164 166 165 168 
169 167 170 168 165 162 158 160 156 154 156 157 157 159 161 160 162 164 166 
168 168 170 175 178 179 181 183 178 174 173 170 171 168 168 166 165 165 164 
164 166 168 171 173 174 175 178 158 163 165 165 164 166 162 162 162 163 170 
171 173 169 167 165 169 173 175 170 172 171 169 168 166 166 166 167 167 163 
163 165 168 168 168 165 164 164 168 167 165 164 162 162 166 166 170 169 165 
158 159 159 156 154 151 147 152 159 162 164 166 168 170 170 169 168 171 173 
174 174 174 172 172 174 174 173 170 167 165 166 165 162 164 164 167 170 174 
175 176 177 161 164 167 168 170 169 165 165 167 168 171 172 172 170 166 165 
168 168 171 171 169 169 169 167 166 166 162 161 161 157 161 162 162 162 162 
160 163 165 167 167 167 167 166 165 165 167 167 164 163 157 159 160 160 159 
158 157 158 162 162 161 161 163 163 164 164 162 162 165 169 170 168 165 166 
168 168 168 167 161 160 163 163 164 164 165 169 169 172 175 176 177 164 164 
164 165 166 167 164 164 166 165 164 166 165 164 165 163 169 172 174 168 163 
162 162 164 162 164 159 157 156 154 155 156 154 158 155 155 160 165 169 169 
170 166 165 164 163 163 163 160 161 159 160 160 159 160 160 157 158 159 157 
154 157 159 162 159 159 160 158 160 160 164 164 165 165 168 168 163 159 158 
157 161 160 161 161 162 167 166 167 171 175 173 157 157 157 159 159 159 162 
163 164 163 163 165 163 160 160 157 163 170 171 165 161 158 160 161 159 158 
154 154 153 152 152 155 154 152 149 151 155 161 165 168 168 165 164 164 163 
162 163 160 159 159 166 167 165 166 163 161 160 161 160 161 162 162 162 160 
160 160 157 156 151 149 150 156 157 159 161 158 155 154 153 155 156 161 164 
161 166 166 165 164 160 151 151 154 154 154 157 157 159 158 163 163 162 161 
161 159 157 156 161 166 171 164 161 161 157 155 156 153 154 156 156 155 155 
156 154 152 148 149 151 154 157 160 159 157 156 156 158 162 163 161 160 160 
164 164 168 166 164 166 165 166 164 163 163 163 164 164 163 162 159 155 151 
150 153 151 155 156 160 157 152 151 151 153 156 158 159 161 164 164 164 162 
162 162 151 149 147 147 149 152 154 155 162 160 160 159 160 159 158 158 167 
170 170 162 161 159 158 156 157 155 152 152 155 157 157 155 153 150 145 147 
148 153 153 152 151 151 147 150 153 158 161 157 158 158 162 162 164 166 168 
168 168 164 162 163 159 158 160 159 158 159 161 161 162 158 158 155 155 154 
154 151 150 149 151 152 153 153 156 159 161 160 161 162 163 163 144 143 145 
143 146 152 155 157 160 159 156 155 158 160 159 160 166 166 164 162 159 163 
165 161 159 154 151 154 160 161 160 160 161 162 158 154 152 155 157 152 151 
152 150 149 150 156 159 157 156 155 156 155 157 159 160 164 165 165 164 163 
161 157 156 156 156 156 156 157 155 155 155 155 155 152 151 147 148 150 151 
150 151 149 151 154 156 154 155 154 154 155 139 141 143 142 145 150 153 153 
153 155 153 154 158 160 161 161 161 161 159 159 156 157 157 156 156 154 154 
154 158 160 159 157 158 161 159 155 154 152 151 152 154 154 151 149 151 153 
158 157 152 151 153 153 157 159 158 158 160 159 159 154 154 154 153 152 152 
150 150 151 150 152 153 154 153 146 143 144 146 148 149 148 147 147 147 149 
152 152 153 154 157 161 138 137 138 139 141 143 144 143 143 145 146 149 152 
152 152 154 150 148 149 154 155 156 154 150 150 152 149 149 151 153 152 154 
156 160 157 155 155 156 155 152 152 153 152 147 149 146 149 149 148 149 150 
150 151 151 153 154 154 154 154 150 149 151 151 148 149 149 149 149 153 155 
153 152 150 146 144 147 146 146 150 151 150 148 147 150 151 150 150 150 148 
147 149 148 146 143 144 142 142 142 140 141 144 148 150 149 145 146 147 145 
149 151 149 149 145 141 143 142 141 143 144 147 149 151 154 154 154 154 153 
151 152 151 148 146 146 145 145 143 143 143 149 148 148 150 149 151 154 153 
154 153 150 148 149 151 150 148 146 146 148 149 151 154 157 153 150 148 144 
142 144 146 148 149 149 142 141 148 148 149 150 151 154 156 155 152 154 149 
146 143 140 139 137 139 144 146 148 149 148 146 146 145 145 147 146 146 143 
141 139 135 133 137 141 142 142 146 148 146 147 149 149 149 151 149 149 147 
149 149 145 143 143 144 147 148 147 147 146 147 145 144 146 147 144 142 144 
146 145 144 145 146 144 144 150 155 156 152 147 145 143 142 144 142 144 145 
145 143 140 144 143 144 144 142 138 137 153 154 155 151 143 142 140 141 143 
142 145 146 145 146 147 148 148 143 141 146 146 141 135 132 132 132 131 137 
137 139 144 147 149 146 144 146 145 147 148 147 149 147 149 149 148 145 140 
140 144 144 149 145 143 143 140 137 134 137 136 140 141 143 144 145 146 145 
146 146 151 154 151 149 146 142 143 141 144 144 145 145 140 140 144 146 143 
143 141 141 139 139 147 148 149 146 144 148 149 147 145 145 145 145 144 146 
149 151 149 145 146 146 144 139 133 130 134 135 138 143 142 144 149 150 150 
149 148 148 144 142 141 141 142 142 146 145 145 141 136 135 141 147 150 148 
146 147 141 140 138 142 143 142 141 142 145 145 145 140 140 143 146 149 150 
147 139 139 140 140 140 141 141 140 139 137 137 139 138 140 138 137 135 133 
142 142 144 145 143 144 146 146 147 147 146 147 147 149 149 151 149 146 144 
141 137 134 135 136 135 135 136 140 140 140 147 148 147 150 150 147 141 139 
137 135 134 134 137 139 139 136 137 137 136 139 141 142 141 143 140 140 140 
143 143 139 139 138 140 137 135 131 130 132 136 137 137 139 135 133 135 140 
138 139 140 140 139 138 138 138 138 137 135 136 139 140 140 141 141 143 142 
141 142 141 142 142 143 144 144 145 146 145 143 141 138 137 135 134 135 139 
136 135 136 137 138 142 145 147 149 150 150 149 144 144 142 137 130 132 133 
134 135 135 136 137 135 135 138 139 141 143 140 140 140 138 139 137 137 137 
139 138 136 131 130 131 134 133 130 128 131 130 134 136 139 139 138 137 136 
135 136 137 135 133 133 134 137 139 138 139 141 137 136 137 138 135 133 132 
133 134 139 143 144 146 143 138 135 134 133 131 133 137 135 136 137 135 136 
140 139 140 142 142 145 146 145 144 142 137 132 130 126 127 127 129 130 134 
136 134 136 137 139 141 140 142 143 140 141 138 136 135 134 133 135 131 129 
130 131 132 130 131 131 132 137 139 137 134 133 133 131 129 128 131 131 130 
131 134 137 140 133 133 134 134 132 130 132 132 135 135 139 142 144 145 144 
141 135 132 133 132 131 131 132 135 135 135 132 129 131 133 132 134 135 136 
138 139 139 137 137 136 134 131 126 126 125 127 132 135 134 132 132 133 138 
143 141 142 143 141 137 135 134 138 136 135 133 129 127 127 128 128 132 132 
133 135 136 136 134 133 134 135 135 133 129 132 132 131 129 128 129 126 130 
132 132 131 131 130 131 132 133 135 139 143 141 141 139 136 134 132 130 130 
131 131 129 131 131 128 123 125 126 124 129 130 131 133 136 135 137 135 136 
134 132 131 131 130 129 131 134 134 133 133 133 133 137 138 134 135 136 137 
134 135 134 137 135 134 129 127 126 127 129 129 132 134 132 134 131 129 128 
128 132 132 134 132 132 134 133 132 129 129 128 128 131 130 131 132 133 137 
135 136 135 133 131 133 133 134 135 135 133 130 128 129 127 125 125 125 123 
121 121 122 122 125 122 127 129 132 132 132 134 132 134 132 131 131 133 133 
133 135 135 136 136 137 137 134 133 133 127 128 130 132 132 130 127 127 124 
126 125 126 123 125 128 126 131 134 132 132 132 128 125 124 127 128 134 135 
135 134 133 134 132 132 130 128 133 132 128 126 131 132 132 133 131 127 125 
126 127 130 132 135 135 129 128 127 126 124 124 123 121 121 120 121 122 123 
122 122 125 129 132 130 131 128 132 128 129 132 129 131 133 134 134 132 133 
130 133 131 128 129 129 131 130 130 128 124 119 117 118 122 126 131 130 127 
128 127 129 132 131 132 129 127 124 125 126 127 132 134 132 131 132 132 130 
130 128 129 133 134 132 129 129 128 126 131 131 127 124 122 123 125 126 129 
128 126 126 126 128 130 130 130 124 123 122 119 117 117 119 123 124 129 132 
129 126 126 126 127 125 123 123 123 127 131 133 133 131 130 129 125 122 122 
125 130 133 131 130 125 118 116 117 124 125 129 132 131 133 129 127 127 124 
126 124 125 124 124 124 126 128 129 126 125 125 124 121 121 119 119 131 134 
135 133 124 120 121 120 121 121 122 119 120 121 121 124 122 123 124 126 127 
127 125 122 118 120 119 120 119 119 120 119 120 124 129 128 123 122 121 124 
120 119 120 122 123 124 127 128 127 126 125 123 119 119 121 125 133 131 125 
124 121 118 118 121 122 128 131 132 132 125 123 118 117 121 121 123 124 120 
121 122 124 123 123 123 123 116 113 113 116 121 129 131 134 133 130 127 125 
118 115 118 119 117 118 122 123 126 125 125 126 124 125 123 123 121 120 120 
123 125 126 125 121 120 121 121 126 124 122 120 119 117 114 114 116 118 118 
119 124 126 125 125 123 122 119 119 119 120 122 119 115 117 115 115 113 116 
121 125 127 129 127 120 118 113 113 112 117 121 124 121 123 126 126 123 121 
120 118 114 111 107 111 112 122 126 129 131 130 123 121 119 119 119 120 121 
123 123 122 122 123 122 121 117 121 119 118 121 122 123 128 126 126 121 117 
117 118 117 118 120 119 119 114 115 116 116 120 118 118 120 122 123 129 127 
124 122 120 119 120 120 118 113 111 108 108 112 115 117 122 124 122 122 122 
117 114 110 112 114 116 112 110 114 115 117 116 115 118 118 116 113 111 108 
109 111 117 116 116 120 120 120 121 118 119 119 118 117 122 120 119 116 118 
120 120 120 121 121 120 118 118 123 127 125 122 118 116 116 117 115 115 117 
117 118 116 115 115 115 116 116 117 118 122 124 126 128 125 123 119 115 117 
118 117 113 108 105 105 107 112 116 119 120 121 122 120 117 115 113 115 120 
121 113 108 108 111 112 114 114 118 119 116 114 111 106 105 102 107 108 110 
117 121 120 117 115 116 116 114 114 117 118 116 115 115 115 116 119 120 119 
118 116 115 118 117 114 113 114 114 115 117 112 110 110 110 110 112 116 116 
116 118 116 116 115 119 121 123 125 124 122 117 115 117 118 114 113 108 104 
102 101 108 112 116 117 120 123 121 121 117 116 117 119 118 116 108 106 110 
113 114 114 115 117 117 114 110 108 107 103 105 104 110 114 119 120 117 111 
110 112 115 114 114 114 113 112 114 113 113 116 116 116 113 112 111 111 107 
108 108 109 111 110 113 114 112 110 108 110 113 115 116 118 120 113 111 110 
112 114 119 119 121 122 122 122 121 120 116 111 108 108 104 102 105 110 113 
117 122 124 123 122 118 117 118 118 115 115 112 107 106 110 112 110 110 113 
116 114 114 115 114 114 104 109 112 118 123 120 114 106 110 111 113 114 110 
108 109 113 116 113 110 111 108 107 104 103 105 108 108 106 109 112 113 111 
114 115 114 110 109 113 116 117 117 114 116 115 115 115 113 108 110 109 111 
116 114 119 117 116 113 109 107 103 101 100 108 110 114 113 115 115 115 111 
109 110 110 110 111 112 111 108 110 112 109 108 107 111 117 117 114 115 111 
111 105 106 107 113 116 116 113 111 110 110 111 111 108 106 107 109 112 109 
105 103 100 103 103 104 105 105 104 105 110 113 111 111 110 111 112 111 112 
112 115 114 113 111 113 114 113 111 108 105 105 102 103 104 106 107 110 109 
109 108 107 108 106 106 110 109 109 108 108 103 106 107 106 108 108 108 108 
108 110 112 113 112 106 106 107 111 113 113 115 114 116 122 102 101 99 103 
111 114 114 113 112 111 111 110 109 107 104 104 105 107 103 98 102 106 107 
108 109 109 109 109 113 112 111 111 109 108 108 110 111 112 111 110 108 108 
109 111 107 104 103 103 101 100 103 107 109 111 108 106 107 107 107 108 109 
108 106 108 108 107 102 100 103 101 101 104 102 105 107 107 107 108 110 111 
108 108 107 109 108 114 115 116 118 121 102 104 103 107 111 112 109 109 106 
105 106 105 104 103 103 103 105 105 104 102 103 105 109 111 111 110 108 108 
109 105 105 105 106 105 106 105 105 104 105 105 103 105 104 101 97 102 101 
105 102 100 101 104 107 109 109 108 108 105 105 103 105 107 109 108 108 107 
106 108 107 102 102 104 100 101 104 105 105 107 109 108 108 108 107 106 109 
110 109 109 109 109 106 108 109 109 108 108 107 107 105 106 107 105 103 101 
100 96 99 106 108 109 109 111 109 111 110 109 108 106 102 99 101 103 101 
101 103 102 102 104 105 104 102 103 101 102 97 99 101 102 101 101 102 104 
106 105 107 105 107 103 103 102 102 104 107 108 109 109 107 105 103 99 99 
98 100 99 102 104 103 104 108 106 102 103 103 103 105 106 104 107 108 111 
106 109 107 107 108 110 110 112 111 110 109 106 103 103 103 101 102 107 107 
108 107 105 104 106 109 107 106 98 96 94 98 100 102 103 105 103 103 104 
106 103 101 96 97 100 98 99 100 102 100 98 99 98 99 99 100 103 105 
102 100 99 97 97 99 101 101 103 105 106 104 103 103 101 102 105 108 109 
107 106 107 110 107 105 104 103 104 105 103 101 98 97 106 109 108 105 106 
108 105 105 103 101 103 103 105 104 104 102 101 101 101 101 103 104 105 106 
106 102 101 98 94 92 95 96 101 101 103 102 104 106 103 99 99 96 95 
99 101 102 103 105 103 101 100 99 94 93 94 98 98 96 95 95 94 92 
91 93 94 99 102 104 103 103 103 101 102 105 107 108 104 102 108 109 109 
108 107 106 105 103 98 94 91 92 110 111 107 104 102 100 97 96 96 97 
100 101 102 103 103 101 101 101 103 100 103 105 107 107 106 100 99 100 95 
94 96 98 103 102 99 99 101 100 100 96 94 92 95 98 99 100 103 104 
100 100 98 96 93 90 88 89 92 93 96 100 98 95 93 94 96 100 101 
102 103 101 104 103 103 104 104 109 101 98 97 101 104 108 109 110 107 104 
96 90 88 86 105 103 101 101 101 100 100 98 97 97 99 100 97 96 94 
90 93 91 93 94 99 105 104 102 100 92 91 92 91 93 99 102 104 100 
96 94 94 96 97 94 94 94 96 100 99 98 103 103 102 99 97 92 89 
91 91 92 92 93 95 98 94 91 90 92 96 100 100 97 97 99 98 96 
97 99 100 105 98 98 105 106 108 110 112 111 110 107 100 98 97 99 90 
92 91 94 94 94 94 96 97 97 98 99 93 90 89 89 91 90 92 93 
91 96 98 98 97 90 87 89 91 95 99 100 97 92 89 88 90 93 96 
97 94 92 95 99 102 102 104 106 105 103 99 92 91 91 93 94 92 92 
92 91 87 88 92 95 97 101 98 94 93 93 95 96 99 103 104 102 98 
98 101 103 106 110 108 107 107 102 98 97 94 95 89 92 89 86 85 86 
87 92 96 96 95 91 84 87 87 87 89 92 93 92 91 95 98 98 97 
95 90 86 90 94 96 94 93 92 90 94 94 99 101 101 101 98 93 92 
97 99 101 102 103 100 97 98 95 94 96 95 93 94 90 89 86 85 86 
87 92 96 97 94 94 94 95 99 102 105 105 100 96 97 101 104 101 100 
100 101 100 98 99 97 96 99 85 84 83 84 81 82 84 86 87 89 89 
89 87 87 84 86 86 86 87 88 90 95 94 93 90 88 87 88 89 96 
97 94 89 90 92 96 96 102 106 105 103 101 95 91 92 94 94 93 96 
93 89 90 89 90 93 94 92 87 83 83 83 86 88 91 95 101 103 97 
96 96 97 99 101 101 101 97 95 98 100 100 98 95 95 95 97 97 97 
97 99 102 93 92 92 91 86 84 85 87 86 88 87 86 87 87 83 86 
88 92 92 90 90 88 87 86 85 87 85 86 87 92 94 93 88 88 88 
93 94 97 103 103 101 100 94 89 87 86 88 91 93 92 87 88 87 88 
87 88 89 84 83 81 80 85 87 90 93 96 102 98 99 97 98 97 98 
98 98 93 91 91 94 97 95 95 93 92 90 88 89 92 92 92 94 93 
94 91 89 85 85 86 86 86 86 87 89 91 86 87 88 96 92 93 91 
87 86 86 87 86 84 86 85 87 86 88 86 86 87 97 99 99 100 100 
98 95 92 89 88 86 84 87 90 89 86 83 84 83 83 84 83 82 81 
78 75 77 82 86 88 93 97 95 94 94 95 94 95 92 91 89 88 88 
89 92 88 85 85 84 83 84 84 84 84 83 85 85 84 81 80 79 79 
83 82 82 84 88 90 93 92 90 90 92 90 90 88 87 86 86 85 84 
81 82 79 81 80 83 85 84 86 90 92 95 96 91 91 88 83 85 88 
91 91 89 88 90 89 87 85 83 79 81 78 79 81 77 76 76 79 84 
87 90 94 91 92 92 92 93 94 93 92 89 90 88 85 84 82 80 82 
80 78 82 86 89 91 90 78 78 75 75 79 81 75 79 79 78 79 83 
88 93 92 93 90 92 92 88 86 85 83 83 81 78 77 78 82 82 85 
84 82 84 84 84 86 85 86 83 83 81 79 81 84 85 85 86 84 90 
91 90 87 84 80 83 82 77 76 78 78 78 77 81 85 86 90 86 87 
88 87 87 87 87 87 84 84 84 80 77 75 77 80 79 79 82 85 87 
89 87 79 77 74 70 71 74 73 74 76 77 83 87 88 92 92 90 90 
88 88 88 87 82 77 77 74 77 76 78 82 83 85 85 81 83 84 79 
77 73 72 76 78 78 79 80 81 81 80 81 82 89 88 89 87 88 86 
87 83 80 79 81 79 75 74 72 75 78 79 80 83 82 82 80 84 86 
86 85 83 84 80 77 75 75 74 80 81 84 86 83 82 79 77 78 74 
72 75 76 74 74 75 78 81 85 85 87 85 85 86 86 88 88 86 82 
78 74 72 74 75 79 84 86 88 88 87 85 83 79 77 75 75 77 79 
78 77 77 75 79 80 83 86 91 96 95 93 95 96 90 87 83 80 79 
78 74 69 69 70 71 69 69 72 76 80 81 86 87 86 85 87 87 83 
78 74 75 77 84 85 87 86 82 81 78 75 78 78 76 78 76 74 75 
78 81 84 83 82 85 85 86 85 86 87 82 81 77 75 75 73 73 75 
81 85 87 88 88 91 87 79 77 75 76 76 77 77 76 74 75 77 77 
78 79 80 84 85 85 88 92 96 90 88 86 83 78 73 70 70 69 69 
67 65 66 69 72 80 84 84 84 82 85 88 83 81 78 76 72 72 83 
87 92 88 78 76 73 
