P2
#output from hocrtest
20 20
255
240 234 240 229 232 248 249 233 235 244 245 248 255 255 248 249 246 241 237 
217 229 230 232 229 231 238 240 230 231 236 240 245 252 255 249 248 247 244 
242 241 224 226 227 225 235 231 227 225 219 222 224 226 230 232 231 238 236 
234 230 224 216 220 220 222 221 221 214 214 216 218 213 210 210 216 219 221 
220 218 219 218 207 212 214 216 211 208 202 199 204 203 204 206 205 207 209 
208 207 201 206 208 197 198 200 205 201 195 193 196 197 193 195 193 196 202 
203 201 193 189 188 190 186 190 192 192 186 183 181 189 188 189 185 185 186 
190 186 188 179 171 166 164 169 169 177 178 179 171 173 177 174 167 170 175 
176 179 180 176 172 176 166 165 156 160 165 165 156 153 157 160 159 159 164 
160 164 162 161 161 165 169 164 165 150 151 152 148 138 138 145 148 149 144 
149 144 146 149 153 151 154 155 158 163 137 137 137 131 126 127 129 132 142 
139 137 135 134 134 130 128 128 128 130 130 134 133 132 126 120 119 112 112 
110 111 114 113 126 123 118 115 115 118 122 125 127 126 122 114 110 113 107 
102 97 95 96 99 105 102 103 98 105 105 113 117 116 117 112 110 108 104 
100 94 92 90 95 95 97 99 97 101 99 100 89 89 108 111 105 101 102 
100 89 81 86 87 95 89 90 91 91 89 82 83 80 72 82 81 81 82 
85 79 76 76 81 74 72 70 75 75 74 70 64 66 68 70 59 62 66 
67 68 69 66 63 62 61 61 63 66 72 68 59 51 54 56 53 44 53 
50 51 53 52 53 52 48 49 50 55 60 63 61 55 48 46 44 43 38 
43 53 52 49 48 47 49 45 43 46 46 43 37 39 41 38 39 38 38 
30 29 36 48 49 46 43 39 41 42 48 40 33 35 30 30 25 26 26 
26 
