P2
#output from hocrtest
80 80
255
251 248 253 245 254 253 249 243 247 248 251 250 255 255 255 251 245 247 243 
234 240 243 234 251 248 252 253 249 252 249 249 245 248 251 253 255 253 250 
248 248 245 253 252 255 251 252 246 244 245 241 247 251 248 243 243 248 243 
244 242 234 248 250 254 249 252 251 240 251 248 245 246 246 250 245 255 255 
254 255 255 255 250 251 249 249 250 250 246 241 243 244 247 249 253 255 254 
251 247 246 248 245 245 246 244 251 251 249 250 250 250 248 247 246 247 249 
253 255 252 249 247 248 250 252 252 251 248 249 246 244 247 248 251 251 247 
247 247 246 241 240 239 239 245 248 252 253 251 249 244 248 246 242 244 247 
250 250 254 252 253 253 252 254 245 249 250 249 247 244 242 240 239 240 242 
241 247 248 247 251 248 250 250 251 248 246 242 245 245 243 248 245 245 244 
244 243 244 245 250 252 251 249 248 249 252 253 251 249 246 245 244 244 247 
248 249 249 249 247 248 245 243 242 240 238 241 241 249 250 251 252 245 244 
240 239 241 241 246 248 245 242 242 244 244 248 250 249 247 246 243 244 242 
240 237 237 240 239 245 247 247 243 246 248 250 250 251 248 243 241 241 240 
239 236 238 240 241 244 245 249 249 249 249 247 246 249 251 253 255 252 249 
248 246 242 245 246 246 249 249 245 244 244 242 242 239 238 239 239 244 248 
248 249 247 244 244 241 242 240 242 242 238 238 236 233 237 240 243 246 245 
244 242 242 241 240 239 239 241 242 245 247 247 244 242 240 243 244 247 245 
242 233 236 233 235 233 235 240 239 244 246 248 251 246 245 245 244 246 248 
250 250 250 245 245 245 244 243 244 246 245 242 238 237 239 238 237 235 239 
237 236 242 246 248 246 246 246 245 244 243 242 239 240 236 239 239 236 236 
238 243 243 243 243 242 241 239 239 237 238 240 244 244 243 239 238 237 239 
243 245 245 243 241 238 235 233 232 232 233 240 241 243 242 241 241 239 238 
238 241 243 246 247 246 247 244 245 244 246 246 245 244 243 241 238 235 238 
239 237 236 241 239 239 242 241 241 238 239 239 236 235 240 244 241 239 236 
237 239 239 238 237 240 240 238 238 237 231 229 231 234 238 240 242 243 242 
239 239 237 236 239 241 241 241 239 237 232 232 230 229 230 237 238 239 240 
238 233 232 230 228 230 232 234 239 241 241 242 244 244 246 245 245 245 241 
239 235 236 236 235 232 233 232 233 234 237 236 237 234 234 234 234 233 238 
240 237 235 234 235 234 233 232 231 243 242 239 242 238 232 228 230 231 232 
234 234 235 234 237 239 237 237 239 237 235 235 234 234 233 234 232 232 232 
238 241 240 235 231 227 224 221 221 226 225 227 233 232 232 238 240 241 240 
240 239 241 240 238 237 235 233 235 235 236 234 235 237 240 238 237 235 235 
233 229 230 233 234 234 232 231 230 229 229 232 233 239 237 235 238 238 236 
231 231 235 233 234 233 229 231 237 237 236 237 239 236 235 233 229 228 230 
233 235 235 234 234 229 230 229 224 220 220 220 220 224 226 229 230 227 227 
233 236 237 234 233 235 234 234 234 232 230 230 231 232 235 235 234 233 235 
237 233 233 228 224 224 226 224 229 229 228 228 229 226 228 226 224 232 232 
230 231 232 234 234 232 235 234 232 227 225 229 232 230 231 231 233 232 230 
231 227 228 231 232 235 237 236 235 229 224 221 221 215 218 218 218 223 225 
227 227 223 227 231 234 233 228 222 222 221 223 227 227 224 228 228 229 231 
231 230 231 231 232 230 224 222 222 222 223 226 226 226 224 223 223 223 224 
224 226 229 226 222 225 227 229 228 229 229 225 223 224 220 223 228 227 226 
225 224 227 226 229 229 231 231 233 237 236 237 234 229 224 220 217 216 219 
220 219 222 222 223 223 222 223 226 228 226 220 214 212 215 217 219 219 222 
225 227 225 223 223 221 225 227 228 227 222 221 221 221 223 226 225 226 227 
223 221 220 221 220 222 222 220 218 220 223 226 225 223 222 219 217 216 219 
223 223 223 220 221 220 220 223 225 225 227 229 231 231 231 231 229 227 222 
216 217 217 216 221 221 220 221 219 220 220 224 229 232 223 218 216 213 212 
215 214 216 217 216 218 216 217 220 219 224 226 228 228 227 225 224 222 225 
225 222 222 222 218 217 216 219 222 227 217 216 214 216 216 217 218 220 219 
215 214 212 212 217 218 217 213 216 213 215 218 218 221 226 228 225 225 227 
225 225 224 220 217 221 220 218 219 218 218 218 217 219 219 221 222 222 215 
213 213 211 207 214 215 214 213 216 216 216 217 218 216 221 222 223 226 224 
223 222 220 221 222 223 222 220 221 219 216 215 218 224 219 217 214 217 217 
218 218 218 220 219 214 212 213 214 212 210 208 208 208 210 209 213 215 220 
223 223 222 223 222 221 219 216 216 217 216 215 213 216 217 219 219 220 219 
217 216 217 213 209 208 206 203 211 212 211 214 213 211 212 213 213 214 218 
217 223 222 219 217 218 215 215 215 217 218 220 218 219 215 213 214 217 213 
213 213 215 219 220 220 218 216 217 212 210 209 207 205 205 204 203 204 206 
206 207 215 220 223 219 222 217 216 215 215 213 215 213 213 211 210 212 214 
218 215 214 212 212 211 209 210 210 210 207 208 213 214 216 216 212 210 211 
211 213 215 215 214 216 218 223 219 218 215 212 213 216 219 222 221 222 220 
219 214 213 209 206 209 214 215 216 217 211 208 209 206 207 207 207 206 207 
204 203 206 209 210 209 213 218 221 220 220 216 214 212 209 203 207 210 211 
211 212 214 217 217 212 208 203 205 207 203 206 207 209 207 208 210 210 212 
213 214 213 213 213 212 216 219 219 220 219 218 213 208 210 209 214 216 218 
222 223 222 223 218 220 221 212 210 209 212 211 210 209 206 204 204 202 205 
205 204 203 208 205 205 207 203 203 201 203 206 207 206 206 203 203 202 200 
200 203 205 206 207 206 205 206 204 206 206 201 200 200 195 201 205 208 210 
210 212 212 213 215 215 215 217 217 216 216 217 218 221 215 213 208 202 205 
206 209 209 210 216 219 220 220 219 222 219 209 205 204 204 204 208 209 205 
204 205 205 202 202 201 202 204 203 201 198 197 199 198 198 199 199 197 199 
195 194 197 198 198 204 206 208 209 205 207 207 204 203 204 199 194 191 190 
192 199 202 203 207 211 209 208 208 209 211 214 214 213 212 212 217 216 216 
207 207 201 200 201 200 201 205 211 215 214 215 216 215 215 199 197 193 191 
194 197 198 198 201 203 203 204 203 201 201 199 198 195 195 197 197 200 197 
197 196 195 195 194 194 198 200 201 204 206 208 207 207 205 206 204 201 201 
197 197 195 193 198 198 198 198 205 208 206 204 206 207 207 210 206 205 203 
200 203 207 207 202 200 197 196 199 198 196 199 200 202 203 207 207 207 206 
192 190 187 187 194 196 198 198 200 204 204 206 205 200 199 197 194 192 191 
195 197 197 198 199 196 192 195 194 194 199 202 203 203 204 203 200 200 199 
201 200 198 200 198 197 199 196 198 198 193 195 200 201 201 198 200 201 202 
202 205 205 202 197 197 198 197 197 194 192 191 191 192 193 193 194 197 200 
203 202 198 195 187 187 187 190 193 196 196 193 193 193 193 198 199 198 199 
198 193 192 195 196 195 194 193 192 189 191 191 192 193 199 200 200 203 203 
201 198 198 197 199 193 192 194 191 192 194 193 196 197 192 193 195 197 195 
193 192 191 194 196 199 201 198 192 190 193 196 196 194 197 198 196 194 193 
194 194 196 201 203 202 199 199 186 185 188 191 192 191 188 186 182 181 182 
183 189 193 195 196 191 192 194 193 191 188 187 187 186 189 190 193 194 199 
200 202 203 203 202 200 201 199 199 194 191 190 188 186 188 190 192 193 190 
185 185 188 189 188 189 188 188 189 193 198 196 189 187 191 191 192 192 195 
197 200 201 204 202 200 199 197 196 198 197 194 189 188 190 192 190 187 180 
174 176 177 180 185 187 185 189 190 189 191 192 190 184 182 180 181 185 188 
192 194 195 196 196 196 196 198 198 198 199 192 188 187 185 187 186 186 188 
191 193 190 188 186 187 188 189 189 188 186 187 189 191 197 195 191 192 190 
192 195 193 194 197 195 195 197 199 196 193 190 189 191 191 188 188 191 191 
191 187 186 182 180 180 179 181 183 185 185 193 196 189 189 189 189 187 186 
186 189 189 190 193 196 196 196 194 194 195 195 197 195 193 186 182 181 180 
182 184 187 190 192 192 193 194 193 196 192 188 186 191 190 189 190 189 192 
191 189 188 189 191 190 188 185 185 186 185 182 185 185 187 188 187 186 184 
183 189 190 190 190 186 182 182 181 183 180 184 185 186 187 190 189 183 182 
182 180 179 181 182 187 187 187 192 194 194 193 189 186 183 184 188 188 186 
181 178 178 179 177 178 179 183 191 191 190 190 191 190 187 185 188 187 186 
181 177 177 177 181 183 182 185 185 186 186 182 180 178 179 174 179 182 181 
183 184 185 189 194 184 183 186 183 180 178 178 177 182 183 183 184 184 183 
183 184 181 178 178 177 180 182 183 185 182 183 183 184 186 190 185 182 178 
182 185 183 180 176 173 169 174 174 174 176 182 188 186 186 185 184 183 181 
180 177 176 177 178 176 175 174 174 178 179 181 183 182 182 184 185 180 177 
176 177 177 180 183 184 187 191 192 181 180 176 173 172 173 174 175 177 178 
181 184 184 182 181 183 181 177 173 174 176 179 181 182 180 180 180 182 182 
183 179 173 174 176 179 178 176 173 171 169 169 169 168 171 175 177 179 175 
175 173 174 181 179 174 173 174 175 172 174 172 174 178 180 176 176 178 181 
186 186 181 178 179 179 178 181 182 183 181 187 186 171 170 163 161 167 172 
173 174 175 175 176 177 180 180 179 180 180 173 170 171 172 175 177 177 176 
177 177 179 184 183 178 176 174 171 173 172 171 171 172 170 169 169 164 167 
171 175 176 173 174 174 174 176 175 176 178 178 174 174 175 175 177 180 179 
175 173 171 171 174 175 173 172 176 178 178 180 181 179 178 180 181 168 170 
166 164 165 170 170 170 167 169 174 179 181 181 179 180 180 173 170 166 170 
172 170 172 168 170 171 168 170 173 173 174 173 168 168 167 165 169 171 171 
168 166 162 164 164 169 169 165 167 165 168 170 168 168 174 177 179 180 175 
173 175 176 174 169 165 162 167 165 166 167 168 170 173 172 171 171 171 170 
167 164 160 163 163 165 164 167 168 166 161 162 169 171 173 175 174 174 173 
170 168 159 161 164 166 169 164 166 164 158 158 161 165 165 165 162 162 165 
167 167 167 172 170 165 160 159 161 166 166 167 167 168 170 169 167 168 172 
175 175 171 172 171 172 174 173 172 169 164 165 163 162 164 166 167 168 171 
172 174 172 170 169 168 163 162 163 163 165 167 168 170 166 167 168 170 170 
170 169 170 166 165 164 161 162 162 160 160 159 159 160 154 157 158 161 163 
161 160 158 161 164 165 167 170 170 166 160 159 162 164 165 168 170 168 170 
170 169 168 169 170 167 165 163 164 166 166 165 165 165 165 165 166 161 160 
158 158 159 162 167 169 169 168 168 169 158 159 160 159 161 166 170 166 163 
164 164 164 162 162 162 163 161 162 161 161 159 157 155 156 154 156 156 159 
158 160 162 164 162 160 159 159 160 164 164 168 171 168 162 161 162 163 164 
163 161 159 160 162 162 164 162 164 159 157 158 160 161 159 159 162 166 170 
167 166 163 163 164 163 162 163 166 167 164 164 165 168 156 155 156 160 163 
165 164 161 159 156 155 155 155 152 155 158 157 159 157 157 157 158 156 152 
150 155 156 159 157 159 160 159 158 155 156 156 158 157 159 165 165 163 162 
162 163 163 161 159 155 153 155 158 158 164 164 162 160 158 154 154 155 154 
155 162 164 163 159 158 157 156 155 159 160 163 163 164 160 155 154 157 151 
152 155 158 159 164 162 162 160 156 151 151 147 143 147 154 155 155 159 157 
157 154 153 152 151 154 157 159 161 163 161 161 158 156 156 156 155 153 155 
161 166 163 161 160 161 166 162 160 156 154 157 159 160 161 160 159 156 156 
152 147 146 144 148 156 160 160 161 158 154 152 153 156 157 159 159 156 153 
148 147 145 146 146 147 148 149 151 151 150 155 156 153 151 146 142 145 148 
151 154 162 158 154 152 153 151 149 150 149 153 155 157 158 161 159 155 158 
155 151 149 150 151 154 157 158 158 162 164 167 161 155 153 154 155 155 154 
154 155 154 153 152 150 149 151 154 157 156 158 157 154 148 146 146 147 152 
154 153 153 148 145 145 146 148 147 144 145 145 145 146 146 150 149 151 150 
145 145 148 150 153 155 159 155 153 154 153 150 147 147 147 147 145 146 144 
144 148 153 159 157 150 148 143 145 148 148 151 158 161 161 164 156 150 148 
146 148 149 152 153 152 155 152 151 151 150 148 151 152 154 153 150 147 145 
146 145 146 146 148 149 153 150 147 145 145 143 145 144 144 142 141 145 146 
147 145 147 147 146 149 147 149 152 154 158 152 150 150 147 148 147 145 144 
143 143 143 142 142 146 147 152 153 150 147 143 142 142 145 148 152 154 152 
153 148 145 143 139 148 148 148 150 149 153 151 149 150 148 146 144 144 144 
147 144 141 142 143 143 144 146 149 147 151 146 145 139 138 139 139 136 136 
137 141 144 146 142 138 142 145 148 153 150 150 149 149 149 145 145 148 145 
144 145 143 144 142 141 141 139 139 143 143 148 149 147 146 145 144 143 148 
149 150 151 149 145 144 143 148 148 149 145 146 146 147 143 142 142 142 141 
143 142 144 145 146 144 141 142 140 140 134 140 144 142 141 140 138 137 137 
134 135 135 135 138 142 143 143 140 138 140 137 140 145 148 149 147 148 147 
140 141 140 142 140 141 141 140 140 137 137 135 133 134 137 141 140 141 143 
143 146 146 148 145 144 144 143 143 140 144 148 146 144 138 139 138 135 133 
136 137 138 139 142 143 143 144 146 142 139 139 141 140 138 141 143 143 142 
139 140 137 138 130 131 131 125 129 137 137 138 135 134 135 135 138 141 143 
142 142 141 140 137 137 137 136 136 138 139 140 141 141 140 136 132 131 133 
136 135 135 138 144 146 144 145 143 140 141 141 139 138 139 140 133 129 125 
128 138 138 136 140 140 141 140 143 142 139 137 135 135 135 136 135 138 137 
139 141 142 142 140 139 137 142 129 129 129 124 129 131 133 135 134 132 131 
131 130 128 128 134 135 133 128 125 128 127 129 131 133 136 135 134 132 130 
131 130 130 134 131 132 135 137 140 144 141 142 142 140 139 139 138 136 134 
136 132 131 124 127 131 133 139 141 139 140 138 135 131 131 129 128 132 134 
133 135 135 135 138 139 141 143 142 138 133 132 123 128 130 130 132 134 137 
135 133 130 127 128 125 124 125 128 128 127 124 121 125 124 125 126 129 130 
129 132 134 132 131 128 126 127 129 130 133 135 136 135 133 133 133 135 133 
131 132 135 135 130 129 129 126 125 130 134 137 139 138 138 134 132 131 130 
132 131 133 132 132 132 133 133 134 135 138 144 141 134 128 124 128 129 131 
132 133 135 135 134 130 125 117 119 118 120 126 129 127 127 127 126 127 129 
129 128 130 132 132 134 133 133 133 130 127 126 129 130 131 133 131 128 127 
128 127 130 131 131 129 129 131 131 130 130 127 123 124 125 128 133 136 134 
133 131 129 127 128 131 131 131 132 132 135 137 137 139 140 140 136 132 128 
127 123 125 127 128 129 131 131 129 127 126 121 121 118 118 123 125 127 130 
129 129 127 127 127 126 130 130 130 132 134 132 129 127 124 123 127 130 129 
130 127 123 122 121 122 123 125 127 130 127 129 130 132 129 127 125 123 122 
123 128 130 131 131 130 129 125 124 124 126 128 129 129 130 132 134 134 130 
132 129 124 122 121 121 122 117 120 124 125 125 125 122 121 117 117 115 116 
118 118 118 122 121 123 123 125 127 128 131 130 130 128 128 129 126 123 123 
124 127 126 125 127 122 120 118 119 121 125 126 125 128 127 130 131 133 133 
131 129 125 123 122 123 126 127 127 125 122 122 121 122 125 127 125 125 125 
127 127 128 127 128 131 131 128 128 116 120 118 117 120 123 123 122 120 114 
112 116 114 114 114 114 116 117 117 116 116 115 119 124 128 129 129 125 124 
124 121 118 118 118 122 118 118 119 118 120 119 121 122 121 124 125 125 114 
113 119 122 126 127 129 127 126 124 120 115 116 114 115 117 119 117 118 123 
125 124 127 123 123 124 126 124 118 121 122 125 131 111 116 116 116 117 118 
121 121 116 111 107 109 110 110 110 112 112 114 110 110 114 116 119 126 129 
130 131 125 123 121 116 113 113 113 116 118 114 117 119 120 119 124 124 123 
124 122 121 114 112 110 113 116 119 122 126 127 123 116 113 116 112 116 114 
116 112 111 108 114 117 118 119 120 120 122 119 112 109 109 111 113 108 107 
108 108 108 108 107 110 110 109 109 108 109 107 106 105 106 106 103 105 106 
110 113 121 125 127 121 121 121 119 115 112 108 111 114 116 113 114 115 118 
122 123 122 121 118 119 119 113 110 109 112 116 118 121 120 122 119 114 113 
113 111 113 113 114 112 108 108 111 112 111 112 111 113 116 119 117 112 110 
104 100 101 100 100 103 105 107 108 109 107 107 107 104 102 102 100 100 101 
106 108 110 108 109 111 115 117 119 120 120 117 111 103 102 98 98 100 101 
104 104 103 108 119 121 120 120 114 111 112 112 110 110 112 112 114 116 116 
117 113 111 110 107 110 112 112 112 113 108 104 105 106 105 106 109 110 112 
113 111 112 107 104 104 95 96 94 93 97 100 102 103 101 99 101 101 100 
99 96 97 103 110 112 113 114 111 110 111 111 114 113 114 112 108 103 101 
99 98 99 100 101 101 102 108 109 110 113 110 108 108 106 106 104 104 106 
109 111 111 114 111 108 108 110 107 110 111 111 110 108 109 106 105 105 104 
106 110 111 109 110 108 108 105 105 104 95 95 92 91 97 100 104 101 98 
99 100 101 97 95 91 90 95 105 108 109 109 111 111 109 108 106 108 110 
108 105 100 99 97 101 104 103 104 103 102 105 105 103 105 103 104 106 107 
106 104 104 103 106 109 111 110 106 102 101 103 104 108 110 111 110 107 104 
103 101 102 105 107 108 109 105 105 106 102 103 102 97 100 98 96 97 98 
97 97 96 96 99 95 95 94 94 93 95 97 100 103 102 101 101 101 99 
100 103 104 107 104 103 96 94 92 96 101 101 103 102 104 106 102 98 98 
100 99 100 100 96 97 100 98 102 103 105 104 100 99 100 101 105 107 106 
108 103 103 101 97 98 104 106 107 104 102 101 104 104 106 106 103 102 96 
98 98 100 99 97 95 96 97 99 94 91 88 89 90 93 96 101 102 99 
98 97 97 94 95 97 98 97 95 95 88 90 89 92 95 96 97 95 96 
95 98 100 100 98 99 99 97 96 94 101 101 102 104 102 101 97 96 96 
95 100 102 100 98 94 99 96 95 99 104 100 100 97 99 99 100 99 100 
99 96 94 96 98 100 99 97 94 96 96 98 97 93 89 89 91 90 90 
89 91 90 88 90 93 93 87 86 90 94 96 97 97 93 91 91 95 96 
94 95 94 94 94 101 104 102 100 98 95 92 94 91 96 94 95 97 94 
95 95 95 95 93 96 96 98 95 95 97 96 92 92 94 91 92 96 101 
100 102 101 97 93 88 79 92 95 99 99 100 98 97 93 93 94 89 86 
86 87 87 88 88 90 92 90 91 91 90 88 89 90 96 97 98 95 93 
92 92 92 89 87 86 86 88 91 94 92 92 89 87 89 90 90 87 87 
88 90 93 90 91 93 94 90 91 95 96 97 98 101 100 97 91 87 86 
85 81 83 87 91 94 94 91 92 90 87 97 97 97 97 99 96 97 92 
90 90 90 86 85 85 85 88 87 88 91 90 89 88 89 90 88 90 99 
101 97 94 94 93 95 90 88 83 80 84 86 88 90 91 86 82 81 84 
85 87 86 86 85 87 86 86 86 88 89 89 92 93 95 95 95 98 99 
96 93 87 85 84 81 80 81 86 87 90 93 97 102 101 103 98 97 97 
95 89 88 82 83 82 83 81 82 83 85 88 92 92 91 89 86 85 85 
83 86 91 97 99 97 95 93 91 90 89 87 84 86 90 92 89 89 91 
88 85 86 86 86 88 91 90 87 91 92 92 92 86 87 92 93 91 92 
91 88 87 87 88 87 83 82 81 80 77 77 77 79 86 94 95 97 96 
98 93 92 92 90 85 84 81 83 82 82 81 79 79 79 81 84 87 89 
84 84 82 82 83 87 88 90 88 88 85 79 80 78 76 77 80 82 85 
87 90 90 88 88 86 86 88 89 89 89 91 87 89 88 89 90 87 86 
90 91 91 93 87 85 86 84 84 83 80 79 78 80 79 78 79 79 83 
90 94 91 86 87 86 87 87 86 82 82 80 80 78 77 75 74 75 76 
76 78 80 79 83 85 86 85 81 83 83 85 84 84 80 74 73 72 73 
76 75 77 83 84 84 80 78 79 79 78 81 82 83 82 82 81 83 85 
84 87 85 79 79 83 86 87 87 83 80 81 83 82 84 81 81 79 78 
78 79 79 80 83 85 84 84 82 87 86 82 80 74 74 73 73 73 71 
69 71 73 75 75 76 77 79 81 83 84 83 79 82 84 82 82 81 76 
72 73 73 75 74 77 79 78 78 77 77 77 76 76 75 77 79 78 77 
80 80 80 79 80 83 82 79 77 80 80 80 80 79 78 77 79 81 80 
80 79 76 76 74 74 77 74 76 75 74 74 79 80 80 81 79 75 71 
70 72 69 65 63 65 64 67 68 69 71 77 78 76 78 80 79 82 81 
81 80 80 77 75 75 77 75 73 74 75 74 73 73 77 79 75 73 75 
75 75 77 78 80 80 75 74 78 79 81 82 80 80 79 77 76 77 78 
76 77 76 74 72 72 74 76 75 75 74 70 73 72 69 71 72 73 73 
75 71 68 65 65 66 66 62 62 63 62 64 66 68 69 71 73 74 75 
79 77 75 73 74 75 74 72 72 71 73 71 72 71 70 70 68 69 73 
76 75 74 78 78 75 73 74 77 79 75 72 73 74 79 79 78 74 73 
73 72 72 72 72 74 75 73 71 71 73 75 79 81 69 66 66 68 71 
72 69 68 69 71 72 72 71 63 62 64 65 62 61 61 64 66 66 67 
65 68 71 74 75 74 72 73 75 74 72 72 74 73 75 72 73 72 69 
66 67 68 72 73 72 73 77 71 69 67 68 72 73 71 71 71 73 76 
76 75 75 74 69 69 71 68 69 72 74 75 73 71 68 71 72 73 66 
64 62 63 63 63 65 65 65 64 65 70 70 64 60 59 61 59 60 62 
65 68 69 69 69 71 72 72 70 68 71 71 73 72 70 69 68 68 70 
71 72 71 68 66 65 67 70 69 70 69 69 66 62 60 61 66 66 68 
69 73 73 77 75 74 74 73 66 67 69 69 68 68 68 71 71 68 66 
65 65 67 64 61 57 56 55 53 62 61 58 60 61 60 60 57 57 56 
56 54 58 60 62 64 65 67 70 72 72 73 72 72 71 69 68 66 66 
63 61 62 64 66 65 62 62 63 61 62 66 66 65 64 63 60 58 58 
57 57 59 60 62 66 69 71 73 70 66 62 60 62 64 67 66 65 66 
68 66 62 62 64 63 61 57 56 53 52 53 52 56 58 57 58 57 59 
57 59 59 62 57 53 55 56 58 60 61 67 71 68 66 67 68 70 66 
64 62 63 62 61 60 62 64 63 62 60 59 59 55 58 61 58 57 57 
56 53 54 54 57 62 62 66 66 67 70 70 68 67 63 59 57 61 64 
65 68 68 64 62 58 58 59 60 61 61 56 54 53 51 51 51 57 57 
58 57 55 55 55 54 57 54 47 45 50 52 56 58 59 59 59 59 55 
59 59 62 58 60 57 56 56 57 57 57 59 56 59 58 60 57 57 54 
53 51 52 55 56 58 58 58 57 60 60 64 64 65 65 64 63 59 57 
57 55 57 60 62 64 67 64 63 62 58 55 52 49 50 49 49 50 51 
54 54 54 54 53 50 52 51 53 51 53 51 44 47 50 51 57 58 58 
58 56 54 50 52 53 54 56 56 55 50 52 52 52 51 51 51 51 49 
51 53 55 57 55 53 50 54 53 54 54 54 55 56 62 66 67 67 66 
60 55 54 54 54 52 54 55 58 58 61 60 56 58 57 57 52 51 51 
53 50 48 47 50 51 50 46 44 43 44 44 48 47 46 44 43 45 48 
55 56 55 57 55 49 47 43 47 48 49 50 49 48 50 50 50 51 54 
53 53 52 50 51 51 52 55 56 53 48 49 48 47 46 47 48 48 51 
56 58 59 60 56 49 47 48 51 56 57 53 54 54 55 57 55 53 52 
54 53 52 50 52 49 48 48 49 47 44 43 43 44 50 51 49 47 48 
45 42 44 47 50 50 51 51 50 45 46 47 46 47 47 44 46 48 48 
49 53 53 57 55 52 47 48 50 50 51 50 49 48 44 44 42 42 42 
45 46 44 47 52 52 54 55 50 45 44 44 47 48 46 46 49 49 52 
51 52 50 48 49 48 48 49 52 52 51 49 50 52 36 37 39 43 48 
46 45 43 44 43 40 42 43 43 43 44 47 43 44 44 44 43 43 43 
42 47 44 46 48 51 55 57 56 53 46 45 47 48 47 46 44 42 36 
38 38 39 38 41 44 40 43 48 50 50 50 46 43 42 41 40 44 46 
48 46 46 48 48 48 46 45 46 44 42 42 46 49 51 51 51 47 34 
36 39 43 47 49 48 43 42 41 39 39 38 37 39 40 40 38 38 39 
41 39 41 42 43 44 43 40 41 41 44 48 50 48 46 45 45 42 43 
39 43 41 36 38 39 41 42 41 39 35 32 32 35 37 42 43 42 41 
41 39 39 41 41 43 43 45 45 47 46 44 45 42 41 40 42 47 48 
50 49 49 38 37 34 35 37 38 39 40 38 39 39 39 39 38 37 38 
38 34 34 34 37 35 40 43 39 38 37 35 34 35 38 41 42 43 44 
40 36 35 33 33 35 34 32 34 38 42 43 40 38 38 33 31 32 34 
40 42 40 39 35 34 35 35 36 37 37 40 44 46 46 45 44 43 41 
40 39 45 46 51 49 48 26 26 26 29 34 36 36 37 34 37 37 38 
39 36 31 29 32 33 35 35 35 33 33 36 35 33 31 30 28 31 34 
35 36 35 34 34 30 29 28 25 28 27 27 30 35 38 36 37 37 39 
35 33 35 37 40 38 38 39 35 35 35 35 34 34 32 35 42 44 41 
41 41 37 38 41 40 43 44 45 44 41 22 20 24 29 32 34 36 34 
32 35 36 33 33 33 32 27 26 29 33 36 37 36 35 36 35 35 33 
27 25 27 27 31 33 34 34 35 33 31 33 30 29 28 29 29 33 34 
35 36 37 36 34 33 32 35 40 34 35 36 34 33 32 32 33 35 33 
33 36 37 36 36 35 35 36 38 40 44 45 45 43 44 23 22 21 24 
27 30 32 33 31 29 30 29 29 27 27 26 30 29 34 37 37 36 34 
32 30 27 25 22 22 22 22 27 31 35 36 30 28 27 31 32 29 29 
29 29 32 30 32 31 29 24 23 22 24 27 31 32 34 34 34 33 31 
31 33 32 32 35 35 37 32 32 32 33 32 35 35 40 42 42 45 46 
27 24 23 25 28 29 29 28 27 27 28 31 31 30 31 28 24 21 22 
26 24 25 26 26 24 22 19 18 16 18 19 21 25 28 28 20 18 20 
20 22 20 22 22 25 25 26 29 26 23 19 17 18 21 24 25 26 25 
28 30 32 32 31 31 29 29 32 37 36 31 28 26 28 31 30 35 37 
39 37 33 32 28 27 25 23 25 26 27 29 31 33 33 34 31 29 28 
26 24 23 24 22 21 22 24 24 25 25 22 19 16 15 18 19 21 26 
28 23 20 17 16 18 19 19 21 23 20 24 24 21 18 17 19 19 23 
29 31 28 24 21 22 18 17 19 22 24 26 28 29 26 25 29 27 26 
27 27 30 32 30 27 23 23 25 27 29 23 19 18 19 21 26 30 28 
29 29 26 23 19 18 18 17 20 20 22 20 19 21 22 21 18 16 13 
12 16 19 23 27 27 25 23 24 24 22 19 20 22 22 23 22 22 24 
25 24 24 24 27 28 26 21 18 13 7 9 10 15 16 21 26 26 24 
22 22 23 23 24 27 28 29 26 22 20 22 31 30 28 23 16 15 15 
17 20 22 24 24 26 28 22 18 16 16 18 20 21 20 20 16 15 12 
15 18 19 16 18 21 24 25 28 29 28 24 25 26 21 18 16 18 17 
20 23 28 30 33 32 30 29 27 24 24 19 11 9 5 7 8 12 16 
20 22 24 25 21 20 18 22 24 27 30 29 21 18 18 13 
