P2
#output from hocrtest
30 30
255
247 238 252 245 255 255 255 247 248 249 247 248 249 252 248 249 247 245 231 
225 240 244 244 244 240 247 245 242 250 250 247 244 247 245 255 255 255 248 
245 244 239 242 243 248 246 247 243 241 236 237 243 244 243 239 241 243 242 
240 242 239 242 244 248 243 245 248 243 240 239 235 235 233 238 242 244 243 
240 239 238 239 241 240 237 235 234 238 237 233 235 233 240 240 242 246 243 
236 231 227 227 224 230 227 230 237 243 239 236 240 233 231 227 223 226 228 
227 230 227 227 226 223 236 236 235 234 227 228 223 218 221 223 224 223 222 
229 230 228 221 220 216 217 221 222 222 221 221 221 220 220 223 217 225 230 
228 228 223 224 221 220 223 220 218 219 220 218 217 212 210 212 213 217 217 
211 212 208 205 212 215 219 221 224 205 206 205 203 199 203 209 210 210 204 
202 204 212 210 210 206 208 209 211 208 206 202 200 195 193 196 201 205 207 
209 200 199 197 195 194 199 204 201 199 198 200 198 203 204 203 197 195 194 
192 195 194 195 199 195 191 186 185 185 189 194 195 197 194 189 188 189 190 
188 186 187 189 189 194 197 195 191 193 191 192 194 194 197 198 197 196 187 
185 183 184 182 188 188 185 181 183 186 188 185 184 185 190 194 194 193 192 
189 184 173 181 186 194 194 191 191 189 185 182 185 182 179 185 178 175 174 
171 176 177 173 174 172 175 173 174 171 172 171 168 164 165 172 176 176 180 
180 179 177 176 180 178 177 178 172 170 171 169 170 171 167 167 162 160 167 
164 158 158 158 159 156 156 160 163 170 171 175 172 170 169 172 171 171 164 
167 167 163 154 154 156 157 158 159 164 167 156 152 152 158 155 154 152 155 
151 152 157 169 167 163 161 162 169 169 158 156 153 152 147 145 144 144 144 
154 159 162 164 160 156 156 154 154 151 150 151 152 154 156 152 149 147 149 
156 155 148 147 150 151 143 137 133 135 135 148 151 151 153 151 150 151 150 
150 149 147 145 142 142 143 143 145 146 149 155 153 132 136 139 137 132 129 
126 126 130 142 146 145 147 144 144 139 141 139 137 137 137 135 136 137 133 
132 136 143 147 145 119 120 127 130 125 117 118 117 123 130 133 134 136 134 
130 130 128 127 130 135 134 131 132 130 122 121 125 119 123 127 111 111 116 
117 112 112 108 104 106 110 112 117 122 123 124 124 126 124 124 124 126 119 
117 112 116 118 117 114 111 106 105 109 111 109 108 106 106 106 106 106 111 
113 112 114 112 117 120 118 116 117 126 121 114 112 108 105 100 103 102 98 
99 102 103 103 105 108 107 108 105 106 107 108 108 109 108 108 104 101 98 
109 110 109 105 100 95 97 94 87 92 91 90 94 94 95 99 99 99 94 
100 106 108 105 98 99 97 93 97 98 101 111 109 105 101 99 95 91 85 
88 85 85 85 84 83 82 80 85 85 86 93 97 102 95 90 90 88 85 
81 80 82 91 90 87 80 81 88 84 81 84 86 86 71 65 65 67 71 
79 82 80 84 87 92 85 80 80 77 73 69 68 72 78 81 85 80 77 
81 80 79 78 77 80 66 63 64 66 69 73 71 72 75 78 81 76 75 
75 70 68 69 61 64 67 61 64 71 68 74 70 67 67 65 66 62 63 
64 64 64 68 65 66 70 70 68 65 62 70 65 61 60 57 59 59 59 
63 60 58 64 65 66 69 68 72 55 55 54 56 56 52 52 58 58 54 
53 50 50 52 57 58 59 54 54 52 52 55 57 60 57 63 66 69 69 
68 49 49 51 49 47 42 35 38 38 39 44 45 45 43 45 44 46 47 
48 48 51 53 52 51 55 60 61 64 65 58 42 42 40 41 39 38 33 
31 31 38 42 45 44 41 39 38 42 44 43 43 39 39 37 36 34 39 
37 36 33 32 39 38 33 32 35 33 30 27 26 30 35 40 39 40 39 
38 35 29 29 28 23 22 24 27 26 27 22 22 21 18 34 28 28 27 
20 23 25 26 27 30 32 30 26 23 24 26 25 22 20 22 18 19 19 
24 29 32 27 22 20 17 
