P2
#output from hocrtest
110 110
255
246 240 246 245 251 251 248 245 248 252 253 255 255 252 247 249 244 250 245 
236 246 247 238 248 245 251 246 242 243 245 247 247 253 253 251 252 252 253 
251 248 244 251 252 255 255 254 252 250 248 242 243 255 255 246 247 253 255 
255 252 242 254 249 253 246 253 254 246 248 252 251 251 248 252 248 252 254 
255 254 252 252 254 253 255 255 255 255 251 243 254 252 255 251 245 245 245 
245 246 227 248 250 250 250 252 255 255 254 249 254 254 251 241 241 245 247 
251 250 247 246 246 248 251 252 252 251 245 246 246 247 249 249 250 250 245 
249 249 250 243 239 238 240 244 247 250 251 250 250 251 252 251 248 249 252 
251 254 254 253 251 251 251 249 249 255 255 252 251 252 253 255 253 250 253 
249 251 250 251 252 250 249 251 252 254 252 253 252 252 252 252 253 251 251 
253 252 255 255 255 254 252 250 254 253 252 250 246 244 242 243 244 241 248 
250 251 252 254 255 255 255 254 255 253 250 242 241 244 247 248 247 243 242 
241 241 244 246 247 245 242 239 241 241 242 246 250 253 250 249 248 248 246 
241 239 239 241 243 246 249 249 248 251 253 253 253 251 252 249 249 249 248 
246 246 248 250 251 252 254 255 255 255 255 255 252 253 254 253 254 253 251 
249 246 242 245 247 250 253 255 254 254 254 249 251 250 250 251 250 253 253 
254 253 252 252 252 252 251 249 248 246 244 242 241 240 245 247 248 253 255 
255 255 255 253 254 254 254 245 243 245 246 248 249 247 243 242 241 242 246 
244 238 238 238 240 239 240 248 250 255 253 251 250 247 244 243 240 241 244 
246 249 249 247 248 250 251 250 251 249 248 242 241 241 241 241 241 241 245 
245 248 250 254 255 255 254 253 255 255 255 252 248 249 244 243 241 238 239 
243 245 249 252 251 248 249 246 245 243 245 248 249 252 253 249 249 249 250 
252 254 253 252 250 248 245 242 242 242 244 248 249 252 252 250 253 253 252 
250 250 250 243 241 242 244 245 250 248 247 245 243 243 246 244 241 237 237 
238 238 242 248 251 249 253 253 252 248 248 246 241 241 243 245 248 247 245 
245 245 247 248 248 247 246 242 241 239 235 235 235 239 243 245 248 251 253 
255 255 255 252 253 255 253 248 246 244 239 238 237 233 237 241 242 245 248 
248 244 244 242 240 239 241 244 248 249 251 251 251 251 251 253 255 253 250 
249 246 246 245 243 242 243 244 247 249 248 248 249 246 245 244 244 242 242 
242 240 239 241 246 245 245 242 243 245 245 242 242 238 234 233 238 241 244 
249 249 248 246 248 247 247 245 243 242 241 242 245 246 246 247 243 243 245 
248 249 247 242 237 233 231 231 231 234 234 235 240 245 247 251 253 255 253 
252 251 251 248 245 244 242 240 239 238 240 241 244 247 248 249 247 245 244 
242 241 239 241 245 245 245 245 243 243 242 246 249 249 248 246 246 247 246 
243 244 245 247 248 249 247 245 249 246 243 244 244 242 236 236 236 235 235 
240 241 242 241 241 240 240 240 239 236 234 232 234 236 242 247 248 244 240 
242 244 244 242 241 243 244 244 243 242 243 242 242 242 243 243 246 244 243 
240 234 232 231 228 230 232 231 239 244 246 249 248 248 248 246 245 245 245 
244 243 243 243 243 241 242 241 241 242 243 246 247 244 244 242 242 241 241 
243 241 241 242 241 243 242 240 241 242 240 240 242 242 242 242 242 244 244 
247 247 246 245 247 245 242 241 241 241 232 233 236 237 236 241 241 242 241 
240 239 237 237 239 240 236 231 233 234 238 245 248 244 239 240 241 239 240 
240 241 243 244 240 241 241 242 242 242 240 240 240 241 239 238 237 235 232 
228 224 230 233 239 243 244 244 243 245 244 244 242 240 241 242 240 238 240 
240 239 241 240 241 241 240 243 244 242 240 240 239 240 241 241 240 240 241 
241 241 239 236 235 234 235 235 238 238 240 240 239 238 239 243 244 245 242 
242 238 235 238 239 241 232 232 234 238 241 242 244 239 236 237 235 235 238 
242 242 239 235 235 237 238 243 245 245 241 239 241 242 243 244 243 242 240 
236 237 237 237 239 240 240 242 239 239 238 239 238 236 233 230 230 230 230 
235 235 238 238 237 238 237 239 239 238 241 243 243 242 241 241 240 238 240 
239 238 237 239 237 235 234 238 241 242 239 239 238 240 241 239 239 239 238 
236 235 235 235 236 238 240 240 240 238 237 240 240 241 240 239 236 235 238 
238 240 232 232 234 239 242 243 240 236 232 232 231 233 234 237 238 238 234 
233 235 237 237 242 241 239 236 239 240 240 243 243 236 236 233 233 233 234 
236 237 236 239 239 237 237 238 237 234 231 229 230 234 237 236 233 234 233 
233 233 233 237 240 239 239 240 241 239 238 240 239 236 238 237 240 237 238 
238 238 239 241 242 241 239 237 236 237 235 235 236 238 236 237 236 237 239 
238 238 241 240 236 233 233 231 234 236 236 236 234 231 232 231 227 231 233 
236 239 241 239 237 234 234 233 231 230 231 235 236 237 234 234 234 238 238 
238 237 237 238 242 244 242 242 242 236 232 230 228 230 231 230 230 230 230 
230 230 235 236 234 231 231 229 229 235 237 236 235 231 232 231 230 231 234 
239 238 238 240 243 241 240 241 241 237 236 236 239 239 239 239 237 236 237 
237 239 237 233 230 229 229 235 236 237 235 233 233 236 236 239 238 240 238 
237 235 234 232 231 233 235 235 233 232 230 228 231 230 234 237 240 240 238 
237 232 236 238 236 233 233 237 239 239 238 238 238 238 235 229 234 234 235 
237 238 238 237 235 232 228 227 228 230 228 229 230 233 231 230 229 230 228 
226 228 227 230 230 233 236 235 234 233 231 232 233 230 233 233 235 236 238 
242 240 240 243 243 237 238 237 238 238 239 238 236 235 234 233 232 229 229 
228 227 225 227 228 230 229 228 229 231 232 236 235 236 236 237 235 235 232 
232 236 236 235 233 231 231 227 228 233 234 235 237 236 234 238 238 239 242 
238 237 238 240 240 241 240 239 239 237 235 234 233 232 231 232 230 227 229 
229 229 229 229 231 232 233 234 237 236 234 233 231 230 229 229 233 232 230 
230 231 231 231 230 229 227 229 231 228 227 228 232 230 230 231 233 231 235 
233 230 233 235 236 236 237 236 236 235 233 233 231 228 228 226 223 221 220 
221 225 228 229 230 233 232 233 232 232 233 235 236 234 234 236 241 242 236 
229 228 227 219 220 232 232 233 236 234 233 236 235 237 240 237 233 231 230 
231 231 228 229 233 234 230 231 231 230 230 229 228 227 227 228 228 229 229 
228 228 229 230 230 230 230 231 229 231 232 233 234 233 229 229 228 226 228 
227 226 226 227 229 226 224 224 229 229 229 226 230 232 232 231 225 228 230 
229 231 233 232 232 230 230 230 231 229 225 226 225 224 223 225 228 228 229 
227 227 225 226 228 227 229 230 233 235 237 239 237 238 235 228 221 218 213 
216 233 232 234 235 228 224 225 225 228 231 232 234 228 228 229 225 223 225 
231 233 228 229 229 228 229 231 229 228 225 225 226 225 226 226 228 228 228 
228 227 228 226 225 224 225 225 228 226 223 223 221 223 223 225 225 224 225 
224 221 219 219 219 221 222 223 226 229 232 230 228 229 228 230 228 227 228 
229 229 230 228 228 228 227 226 224 222 224 222 224 224 228 229 226 226 229 
228 226 226 226 229 227 228 230 230 232 235 230 226 224 220 224 232 232 231 
230 225 218 220 222 225 229 231 228 225 224 224 219 219 224 228 227 224 223 
223 224 228 233 229 228 228 226 225 223 224 225 226 228 228 225 221 220 217 
215 217 222 225 226 224 222 224 224 224 223 223 222 220 222 220 219 221 223 
222 224 226 226 228 229 232 230 230 231 226 225 219 221 222 224 227 227 226 
224 223 223 224 224 224 225 223 222 223 227 228 224 223 225 225 224 223 226 
229 232 230 232 235 237 238 232 227 228 226 224 231 231 232 232 227 223 214 
213 210 214 218 222 223 218 219 219 219 224 226 223 220 219 219 220 224 227 
229 229 227 227 226 224 222 225 227 228 229 226 222 220 216 214 218 221 223 
226 226 223 223 222 222 222 223 223 220 219 217 218 220 222 222 222 226 226 
228 228 227 227 228 226 224 224 221 218 219 220 225 226 225 222 221 223 225 
227 228 228 226 225 223 224 226 226 225 227 229 230 227 227 230 232 231 232 
234 236 235 231 228 228 227 226 230 231 233 232 229 225 217 215 214 213 213 
215 219 219 220 218 218 220 224 223 224 224 221 221 225 227 227 225 223 224 
223 221 220 224 228 228 227 222 219 218 215 214 217 219 221 220 221 218 218 
220 222 221 219 224 222 220 218 218 218 217 221 222 223 225 228 228 226 224 
225 223 221 220 218 218 218 217 224 225 226 222 217 217 218 221 223 227 224 
222 221 222 226 225 225 223 224 228 227 227 230 231 231 231 233 235 234 231 
224 219 217 211 224 226 224 224 222 221 217 212 205 207 208 206 213 217 215 
216 217 217 219 222 222 222 222 223 222 222 220 216 215 214 212 214 217 221 
227 225 221 219 215 214 214 217 219 218 219 221 220 218 217 220 221 223 221 
222 223 221 219 218 216 214 218 219 218 219 222 224 223 224 224 224 221 219 
216 213 215 216 220 221 223 218 213 213 214 217 219 219 219 218 217 217 218 
218 220 220 221 225 227 229 232 232 228 227 226 225 226 224 221 221 222 220 
222 222 220 219 219 219 217 214 210 211 212 213 218 221 221 219 218 217 217 
218 219 217 220 224 222 219 218 213 211 208 207 208 213 219 223 222 219 214 
213 211 211 219 219 215 215 217 217 213 213 213 218 221 222 217 218 221 222 
222 221 217 218 217 216 214 216 217 217 217 221 222 221 218 210 209 213 216 
218 218 219 216 211 210 214 216 215 215 216 212 209 212 213 215 217 219 221 
224 225 227 230 229 225 224 221 218 219 219 219 220 222 223 215 215 209 210 
212 212 214 214 213 209 207 209 213 217 220 219 214 213 213 213 216 220 221 
221 218 216 214 213 211 206 207 211 215 218 219 218 214 211 212 212 213 216 
214 214 214 216 214 213 210 211 216 218 218 214 215 219 220 218 217 216 217 
216 212 212 211 213 216 213 215 215 217 217 215 214 217 216 213 216 216 215 
213 212 211 213 213 216 212 208 206 206 211 213 212 212 217 223 226 227 225 
224 223 223 219 215 216 216 216 214 214 213 211 212 209 207 206 207 209 207 
205 202 203 206 210 211 213 215 213 211 209 208 212 215 215 219 218 218 217 
214 214 207 208 212 215 216 213 212 209 203 203 206 211 215 215 214 214 214 
215 212 209 210 210 206 206 203 208 211 211 213 213 214 215 214 211 212 213 
215 218 216 217 216 216 217 217 219 218 216 213 214 212 213 212 210 213 215 
216 216 217 214 213 212 213 212 210 211 215 217 219 222 221 222 221 219 217 
214 216 215 211 210 210 210 214 212 208 205 204 205 204 201 204 204 205 206 
204 207 210 214 215 213 212 212 214 215 215 215 217 217 218 215 218 214 212 
214 216 215 214 212 209 207 206 208 214 215 214 212 213 213 212 210 203 202 
199 200 205 205 209 210 212 211 210 211 211 211 209 207 208 212 217 214 213 
215 214 214 214 216 215 215 212 211 209 208 204 203 205 212 211 209 211 214 
213 213 213 213 211 212 214 215 215 217 217 219 218 216 212 211 215 215 212 
209 209 208 213 212 209 208 207 209 205 203 206 208 208 207 204 205 212 217 
218 217 215 217 218 216 214 211 213 214 214 216 219 217 213 211 212 213 214 
212 212 208 205 205 208 207 208 207 209 210 209 207 202 204 206 208 212 210 
208 211 212 211 207 208 208 206 205 203 205 207 211 211 210 212 211 209 213 
213 211 211 208 204 198 195 196 198 199 208 209 209 209 209 206 207 209 208 
204 206 209 208 204 207 206 208 209 213 213 213 214 214 210 206 204 204 209 
212 213 213 213 215 211 210 211 210 209 207 204 201 205 215 215 214 214 212 
210 207 207 206 205 205 207 210 214 213 211 211 211 210 210 209 209 207 207 
207 207 206 207 205 204 204 203 202 201 203 208 212 215 215 211 211 210 210 
206 204 200 196 196 199 201 205 208 209 208 207 205 208 209 209 207 207 206 
202 198 195 193 193 196 202 203 203 203 201 203 205 204 201 199 200 205 208 
204 208 207 207 206 208 209 208 206 206 205 204 205 204 213 214 210 210 211 
209 205 204 205 207 207 208 206 202 207 212 215 214 211 208 207 206 208 204 
202 201 203 206 209 209 209 211 210 210 208 210 208 207 201 201 202 202 204 
205 205 205 203 201 202 204 207 209 209 210 209 209 206 204 203 200 201 197 
196 198 200 203 205 203 205 205 204 206 206 205 203 205 206 204 200 199 195 
194 196 200 204 202 200 198 195 198 198 194 195 203 210 213 212 208 202 198 
199 203 203 202 202 205 205 203 203 203 208 207 209 208 209 207 205 205 203 
206 206 208 206 203 204 208 211 211 208 206 204 206 207 206 204 204 203 206 
209 211 208 208 209 210 207 206 205 203 202 200 200 201 200 202 204 201 202 
201 203 201 201 203 207 209 211 212 209 206 203 199 198 195 194 195 196 199 
204 203 203 204 203 206 206 204 204 205 206 207 206 206 204 201 196 195 197 
198 197 196 196 198 195 192 197 200 202 205 204 203 198 197 196 198 195 194 
194 197 198 197 188 182 199 202 203 205 205 203 202 202 204 204 205 209 205 
203 202 204 205 204 205 205 203 203 204 202 204 205 203 204 207 207 208 210 
211 209 207 204 198 198 198 200 203 202 200 203 204 203 200 199 200 197 196 
200 203 205 208 209 207 204 206 199 198 192 193 195 196 196 200 201 200 200 
202 204 203 204 205 204 204 204 204 205 204 199 195 195 198 202 203 203 205 
203 200 195 196 196 199 199 199 198 196 199 197 194 193 192 192 193 195 195 
193 200 197 198 195 195 195 198 200 200 205 207 207 207 197 193 189 188 188 
195 198 199 197 198 198 197 199 201 201 200 202 205 205 204 205 205 204 199 
196 195 193 194 196 197 199 200 199 202 198 198 198 198 198 200 203 204 206 
206 207 206 207 203 200 196 192 194 195 198 203 206 204 204 204 202 201 202 
204 200 199 198 201 201 201 201 198 195 198 201 201 203 203 203 198 193 191 
192 198 200 201 202 202 201 199 199 197 196 193 192 192 192 189 186 193 191 
189 188 189 193 197 199 202 203 203 199 192 185 185 186 191 194 196 195 194 
195 196 195 195 197 196 195 192 192 196 196 200 204 206 203 199 198 195 191 
191 193 197 199 198 203 200 199 199 200 199 200 203 203 204 206 206 204 201 
202 198 197 192 194 194 195 201 202 199 200 197 194 192 195 196 197 194 192 
191 194 197 197 198 197 200 204 204 203 197 195 191 193 193 191 194 196 202 
202 201 200 198 197 196 195 193 192 192 191 188 186 189 185 185 184 182 184 
188 196 201 199 198 194 188 184 185 187 192 197 197 194 191 193 196 199 199 
198 196 196 194 194 195 197 199 200 204 204 202 200 195 192 193 195 196 198 
201 201 199 196 197 196 193 195 195 197 198 204 204 202 199 199 199 198 196 
197 198 199 203 201 197 192 188 188 186 188 196 198 194 193 189 190 194 195 
196 195 197 199 202 201 197 196 199 199 197 195 196 195 198 202 201 200 197 
197 200 202 201 201 195 193 193 193 192 190 185 180 178 182 187 193 198 197 
196 192 190 188 188 193 194 193 193 194 197 198 199 202 205 202 199 197 195 
195 195 195 198 199 199 201 202 199 196 196 197 198 197 199 201 201 202 201 
199 198 194 197 196 193 195 197 198 200 203 202 200 198 195 197 198 200 200 
199 193 187 184 183 185 188 194 196 197 192 189 187 190 187 187 185 186 188 
188 197 201 201 203 202 199 195 192 191 194 197 196 197 195 194 199 200 199 
199 196 191 191 189 193 191 181 181 183 183 184 189 191 195 191 190 188 187 
193 194 193 192 188 191 192 196 197 200 201 198 198 196 195 194 195 195 194 
194 193 193 194 197 194 194 193 196 198 205 205 202 205 203 204 205 204 203 
201 198 196 196 197 199 200 202 199 197 194 196 198 200 199 199 192 187 186 
187 191 195 198 200 199 194 189 187 184 184 184 181 185 188 188 195 199 198 
198 201 195 192 189 187 191 190 187 186 183 182 187 191 197 199 198 193 193 
194 192 188 188 187 186 182 182 184 187 192 193 192 191 188 193 196 195 190 
187 191 191 191 192 193 190 191 192 190 188 187 187 186 187 188 186 185 188 
189 189 189 188 189 193 200 202 198 198 196 197 198 196 197 196 196 195 195 
199 197 195 190 187 187 189 191 193 195 195 195 188 182 182 185 187 196 199 
199 196 190 189 187 182 180 179 180 185 187 189 194 198 198 197 199 195 192 
192 188 189 186 182 180 180 181 185 190 197 200 197 192 193 199 185 190 190 
189 183 183 180 183 186 188 191 191 191 191 190 188 187 184 188 189 190 187 
187 184 178 175 172 177 179 182 186 184 184 183 181 180 183 182 180 181 181 
184 189 195 195 196 194 191 192 192 196 195 192 192 193 193 191 191 190 188 
188 188 187 188 189 193 194 192 187 182 182 184 189 192 195 194 191 186 185 
183 181 181 181 182 186 186 190 194 195 194 194 192 190 190 189 190 187 184 
179 178 178 177 181 186 189 191 189 188 186 183 186 185 183 182 179 180 181 
181 180 184 185 186 187 187 187 186 187 189 190 188 187 187 184 180 176 174 
171 173 172 175 181 183 186 185 180 179 182 181 181 181 180 181 185 190 193 
193 190 186 188 188 191 191 186 185 185 181 181 183 185 184 184 188 187 188 
189 189 190 188 186 184 183 185 183 179 183 181 179 179 180 178 178 176 177 
179 179 184 193 198 199 197 196 192 189 189 188 188 186 186 184 182 180 181 
181 182 186 185 183 183 178 180 181 183 183 180 179 181 179 181 179 178 181 
183 182 180 181 181 181 184 185 181 183 185 182 182 180 180 177 176 175 173 
176 178 184 183 181 179 179 178 180 180 177 178 176 176 182 184 187 187 187 
186 186 184 177 175 172 170 177 181 185 188 189 191 190 189 188 188 190 190 
187 186 186 186 187 189 192 187 183 180 179 179 178 176 178 178 181 186 194 
196 195 192 189 189 190 191 189 185 183 182 183 184 184 186 186 185 184 179 
179 178 176 176 181 183 185 181 180 181 179 178 178 174 177 177 175 176 177 
177 179 178 177 176 175 179 181 180 179 180 178 178 177 175 177 179 180 179 
180 177 176 178 179 182 177 179 176 179 182 180 182 184 187 187 186 176 173 
173 174 175 180 178 179 183 184 186 185 185 183 181 184 185 186 187 187 185 
186 188 189 184 178 174 175 175 174 175 176 177 181 184 192 196 196 191 185 
183 186 190 190 186 181 180 179 179 179 180 179 181 178 176 178 179 181 180 
181 181 181 180 180 180 178 177 175 173 171 169 168 170 174 175 173 173 174 
170 171 176 183 182 183 183 180 179 177 177 178 180 184 181 180 176 176 175 
176 178 176 177 176 174 175 172 175 180 184 180 177 173 172 173 175 177 180 
180 181 182 182 183 182 180 177 173 175 176 180 181 181 178 181 183 181 178 
174 172 170 168 172 177 176 176 176 180 183 185 189 188 184 183 185 189 188 
185 183 180 179 178 181 182 181 180 179 178 177 178 175 177 179 179 180 179 
178 178 177 177 174 171 173 174 170 168 170 171 168 170 172 172 174 181 186 
186 186 185 182 178 174 170 172 177 180 180 180 175 174 172 174 176 175 173 
172 170 168 166 169 171 173 170 171 170 170 173 176 176 179 179 181 181 181 
180 178 177 172 169 168 166 169 173 175 174 177 178 178 178 176 175 173 171 
176 178 180 174 173 177 180 180 180 179 180 182 184 187 188 186 182 178 177 
176 173 174 174 177 180 181 178 176 172 172 176 178 177 177 178 178 178 177 
178 178 180 177 173 171 171 171 169 170 172 174 178 182 188 188 185 182 183 
182 181 176 175 173 174 174 173 168 166 168 169 172 171 171 167 162 158 162 
164 169 168 167 166 166 166 168 171 175 178 176 182 183 183 181 178 178 177 
173 171 169 168 171 170 172 176 178 178 179 179 178 180 178 180 178 178 172 
172 171 172 171 171 173 171 173 178 180 182 182 181 178 176 174 171 174 175 
175 177 182 181 179 179 181 174 173 172 173 173 172 174 173 174 174 175 176 
174 173 175 174 173 172 173 172 174 182 186 187 184 178 176 177 179 173 172 
172 170 171 171 171 171 171 170 170 170 167 163 160 161 165 168 170 171 170 
169 168 168 169 170 173 175 174 180 179 177 175 173 170 167 164 165 169 169 
170 172 172 175 178 179 176 174 171 172 175 175 176 175 169 169 170 171 171 
172 173 172 174 178 179 182 181 183 180 175 174 172 174 176 176 178 176 177 
174 173 173 172 168 169 171 171 171 170 168 167 172 173 173 172 170 172 173 
175 176 174 172 173 175 180 182 179 176 176 174 173 169 171 174 172 172 171 
169 168 168 165 169 171 170 165 162 161 163 167 168 167 165 163 165 164 164 
165 167 170 172 176 176 170 167 166 166 162 162 164 167 167 169 168 171 174 
178 179 176 168 166 169 174 174 176 173 169 170 170 168 168 169 169 169 171 
173 175 178 179 183 181 175 174 174 176 175 172 173 169 170 169 167 168 170 
168 166 166 167 169 168 168 169 170 171 173 171 170 171 173 173 173 174 173 
172 172 173 174 171 170 170 166 166 169 171 172 172 172 171 169 169 166 163 
163 167 167 166 165 166 164 165 168 168 165 163 163 161 158 160 163 167 169 
174 174 171 167 163 161 162 160 159 162 164 166 166 167 171 174 173 172 168 
167 170 172 170 171 169 168 168 167 165 164 169 167 166 169 168 170 178 180 
180 180 175 174 174 174 172 169 167 164 164 163 161 159 173 171 167 164 163 
162 164 168 169 169 169 166 167 172 172 172 172 171 172 171 168 165 165 164 
162 162 160 157 157 160 166 169 171 172 170 168 170 168 165 164 165 168 168 
169 168 164 161 163 166 164 160 160 159 157 159 162 165 167 171 171 172 170 
168 167 163 159 160 163 166 167 166 163 165 164 164 167 168 168 167 169 171 
172 170 168 169 168 164 163 165 166 167 167 167 168 172 175 177 174 169 168 
169 170 168 169 166 166 165 163 160 159 172 171 170 167 159 161 164 166 169 
168 169 167 167 170 171 170 168 163 163 164 165 160 161 158 158 157 153 155 
155 158 162 166 167 168 166 167 168 169 167 164 165 167 170 171 170 166 162 
161 164 163 162 160 157 160 163 161 160 161 162 167 168 167 165 166 163 163 
164 163 166 165 162 161 163 161 162 165 168 169 170 169 168 171 174 172 169 
167 163 163 162 162 161 163 164 163 167 173 175 170 165 164 166 165 166 168 
169 169 166 165 166 168 164 163 159 157 160 161 166 165 164 163 165 166 168 
171 172 172 169 165 162 162 164 161 162 160 157 155 152 151 154 160 159 164 
166 168 166 169 166 167 168 165 162 164 168 170 168 165 163 164 164 164 162 
160 155 158 160 160 161 163 162 164 166 165 164 165 164 164 161 161 160 158 
157 156 158 159 160 161 163 165 168 170 170 174 173 172 171 168 166 164 162 
160 156 156 161 164 165 167 168 166 162 159 161 163 165 169 172 168 163 161 
158 154 156 156 156 158 159 158 160 160 159 158 159 159 164 167 166 165 165 
167 164 159 161 162 162 158 153 152 149 148 150 153 155 160 161 162 160 163 
160 160 161 160 159 160 164 167 164 163 164 165 163 162 160 159 158 159 157 
157 161 164 165 166 165 166 167 167 168 167 165 165 162 160 158 156 156 157 
154 154 156 158 161 164 165 167 167 169 169 168 167 166 165 164 158 158 159 
160 163 164 164 162 159 157 157 161 163 166 166 166 162 158 156 154 155 155 
156 157 155 153 155 154 157 157 155 155 160 163 164 164 161 163 163 162 164 
167 166 163 157 155 151 151 153 155 156 157 160 159 161 162 161 157 158 154 
150 152 158 163 162 164 164 160 158 159 161 158 155 155 154 155 160 162 162 
162 159 158 163 165 169 168 168 165 163 158 155 153 152 156 153 152 152 156 
160 160 160 159 160 161 163 163 164 163 164 164 158 157 156 156 158 158 159 
159 158 156 154 156 157 159 163 160 157 152 152 151 151 151 150 151 149 147 
152 154 156 157 156 156 158 160 158 156 155 157 161 162 165 168 168 165 161 
157 152 152 154 154 155 156 159 160 158 159 157 153 153 155 155 153 155 156 
159 158 156 154 154 159 160 156 152 149 147 149 155 158 159 156 154 154 157 
164 165 166 166 164 159 155 154 155 154 157 156 154 152 153 153 154 155 157 
158 161 162 163 162 162 161 162 158 159 155 156 156 156 155 153 152 148 149 
153 156 155 156 151 147 147 146 145 163 164 154 151 151 149 153 156 157 155 
155 156 157 158 157 155 151 153 156 157 159 161 161 158 157 156 155 154 155 
155 155 155 157 154 152 154 152 151 151 152 154 155 155 155 153 153 151 151 
150 154 156 158 156 153 147 149 153 154 155 153 153 154 152 155 155 157 157 
158 158 152 151 151 154 159 159 156 153 152 152 152 152 150 152 156 158 161 
161 159 157 156 153 154 154 156 158 160 155 151 149 151 147 150 153 154 152 
145 145 143 140 144 159 162 156 152 149 148 150 150 153 153 151 149 152 153 
154 154 150 153 153 157 160 160 160 158 154 152 152 154 155 155 152 151 150 
149 147 147 144 145 149 150 153 153 153 151 151 150 147 148 149 151 155 156 
157 153 151 151 151 151 151 150 151 150 149 151 153 155 156 155 153 148 146 
148 153 156 159 159 157 153 151 151 149 146 146 148 150 155 155 153 152 152 
151 148 149 151 156 156 153 146 147 147 148 151 153 156 156 155 152 146 145 
140 160 160 155 151 150 151 151 149 149 146 143 141 141 144 150 153 151 151 
149 152 155 155 157 154 149 148 149 152 154 154 154 153 150 149 146 146 145 
146 147 149 151 151 147 145 144 146 146 149 150 150 152 150 149 148 148 148 
146 146 147 148 149 151 151 153 151 149 150 148 145 145 147 149 151 153 154 
152 150 149 147 146 148 146 146 147 150 153 157 155 154 153 150 146 147 148 
151 155 154 150 149 147 146 147 150 156 157 154 153 152 153 154 154 154 151 
147 144 149 149 148 147 144 141 139 140 142 149 152 149 148 145 147 149 154 
156 152 145 140 147 149 152 151 151 147 147 145 143 142 141 144 145 147 148 
147 146 145 141 144 141 142 142 142 144 144 143 143 146 144 139 139 138 146 
144 143 144 147 147 146 147 147 144 144 145 146 145 144 144 146 155 155 153 
151 149 144 144 149 149 152 153 153 154 148 148 146 147 151 151 151 152 146 
145 147 147 145 149 152 155 149 147 146 143 146 149 149 148 149 146 151 154 
150 148 147 144 142 143 145 148 151 150 148 149 148 151 154 153 149 147 144 
147 149 150 150 150 147 146 145 147 143 145 144 144 143 142 142 142 142 141 
140 140 139 139 140 139 138 138 140 141 140 138 136 135 140 139 139 138 141 
143 145 146 147 144 143 146 145 143 138 138 142 149 149 153 152 150 144 142 
144 144 144 143 143 150 146 148 150 151 151 151 150 151 148 147 148 146 147 
150 153 156 150 150 149 145 142 138 137 140 145 147 151 155 154 153 152 148 
147 146 145 144 148 147 147 145 145 148 151 150 146 143 142 143 144 148 147 
145 142 141 141 144 142 141 140 142 138 139 141 142 143 143 140 139 135 135 
138 138 134 135 137 139 136 133 135 136 136 134 137 140 141 142 141 141 142 
144 146 149 148 146 142 141 143 149 149 149 147 144 142 144 140 138 139 138 
142 145 148 152 151 150 147 148 151 154 153 150 145 143 146 147 148 150 152 
151 150 144 141 133 131 135 138 144 149 151 153 153 155 152 149 147 144 144 
144 145 145 146 143 143 145 144 143 142 141 142 142 140 137 138 136 135 139 
141 136 133 130 130 131 134 138 140 141 139 140 141 137 136 137 138 137 137 
141 142 139 137 137 140 137 136 140 141 143 142 139 138 137 140 147 149 148 
147 142 140 142 144 142 143 144 143 143 146 138 135 137 134 136 139 146 149 
147 145 146 146 148 152 153 150 148 145 145 143 144 146 148 145 142 136 133 
130 130 132 136 141 146 148 150 150 150 146 144 145 145 144 142 138 136 140 
141 141 140 139 139 141 140 138 138 136 132 132 130 132 131 132 132 132 129 
130 132 135 137 140 143 142 142 142 143 143 145 145 145 144 143 140 135 136 
134 136 134 137 137 141 144 142 140 137 137 139 141 143 141 144 137 134 135 
136 140 144 143 144 147 148 144 144 141 138 135 137 145 146 143 141 142 141 
145 149 152 150 151 149 148 147 145 144 142 137 131 125 125 132 131 131 134 
136 139 144 145 143 141 136 136 139 142 144 141 138 135 137 139 138 138 136 
136 138 139 139 138 137 136 135 129 129 131 131 130 127 127 130 129 131 134 
138 142 142 141 141 142 143 146 146 146 147 148 143 141 138 132 137 137 139 
137 140 144 142 142 140 137 136 132 129 129 135 134 136 137 139 141 142 140 
139 138 137 136 139 141 140 138 139 142 142 141 140 140 141 142 141 141 138 
138 140 142 142 141 142 139 133 131 128 130 135 135 134 133 133 133 139 137 
133 129 128 133 130 132 133 132 132 134 137 138 136 136 135 136 135 135 135 
136 137 137 139 135 134 136 133 131 129 127 128 123 120 123 124 130 134 135 
137 138 138 140 139 141 144 142 140 137 136 133 136 139 138 139 143 144 142 
141 138 138 134 128 127 127 131 133 135 135 137 138 138 139 135 133 132 132 
137 138 138 142 141 141 141 142 140 139 135 134 135 133 131 129 134 138 138 
137 139 139 137 135 137 141 137 136 135 135 134 136 137 137 135 131 128 130 
131 133 132 131 131 133 133 129 134 136 135 135 132 132 132 136 138 144 143 
139 134 135 134 133 134 127 127 124 122 126 123 129 133 134 136 136 136 135 
134 134 135 134 135 136 137 137 140 144 141 142 141 143 144 143 138 138 133 
131 130 129 130 130 131 132 133 134 134 132 129 130 132 134 135 138 137 137 
138 137 136 137 137 136 136 135 133 129 128 129 132 133 133 131 131 134 133 
133 132 129 133 133 135 136 135 135 135 133 132 129 129 132 134 133 131 130 
132 137 138 131 131 132 131 131 131 134 135 138 142 141 140 138 137 133 133 
131 133 133 131 129 128 128 127 130 130 131 133 132 129 130 131 132 132 130 
130 127 129 133 138 141 140 142 139 141 141 141 139 139 133 132 132 130 126 
124 126 128 129 132 131 132 131 133 133 134 132 131 133 133 133 132 131 135 
134 133 135 135 133 128 127 129 131 133 136 135 134 133 129 127 127 126 132 
130 134 132 131 130 130 129 128 125 126 129 134 133 132 130 127 133 132 128 
128 131 129 131 132 136 137 140 141 141 140 135 134 133 133 134 136 139 137 
136 131 127 127 128 133 138 136 131 131 131 130 131 131 128 130 127 128 130 
134 132 129 127 128 134 135 135 133 136 133 132 130 126 124 121 125 129 130 
128 128 132 132 131 131 131 129 128 129 132 134 133 133 135 134 135 135 133 
129 129 127 129 131 133 135 133 133 133 130 128 126 124 135 135 133 133 132 
132 129 127 125 125 125 129 133 133 131 127 126 125 122 122 124 125 127 130 
131 131 133 134 127 125 127 124 126 127 130 132 136 139 139 137 135 132 129 
130 132 136 134 135 132 131 131 131 130 129 129 131 127 123 120 119 119 121 
123 128 130 131 129 132 130 130 130 127 126 126 127 128 127 128 131 134 134 
132 131 129 128 126 126 125 125 128 132 135 133 131 130 126 120 119 119 123 
127 129 132 133 133 132 131 130 129 123 135 136 138 138 135 131 128 127 126 
123 126 127 133 132 127 124 124 122 122 122 121 118 122 126 130 127 128 129 
122 122 122 122 123 122 121 123 126 129 136 138 136 135 131 129 129 130 127 
128 127 128 129 130 131 130 130 134 125 121 118 119 123 126 130 134 133 133 
128 128 125 126 129 129 129 128 131 129 130 128 128 129 129 129 129 126 123 
118 119 118 119 123 127 131 128 128 128 124 122 122 119 121 126 130 132 131 
129 128 125 125 123 118 133 132 133 136 129 126 122 122 122 119 124 124 123 
125 124 122 120 121 123 125 122 119 122 124 128 129 127 125 122 123 123 123 
123 121 121 126 124 127 136 137 135 134 132 129 127 127 125 126 130 131 128 
129 129 131 131 131 126 125 123 122 124 128 128 128 130 129 127 126 124 124 
125 128 127 126 126 124 122 121 125 128 131 132 129 124 123 118 116 118 119 
121 123 124 125 127 128 126 127 129 125 125 126 125 124 126 127 126 124 124 
125 124 121 123 127 130 129 124 121 120 117 117 119 121 122 125 124 120 117 
115 119 122 123 126 129 130 130 127 121 120 118 120 122 125 122 121 119 121 
122 126 132 131 130 129 125 124 124 123 123 127 130 129 127 129 131 132 133 
132 129 123 124 123 123 124 123 124 125 129 124 125 125 123 122 123 120 119 
123 123 125 124 127 127 129 136 133 130 129 124 121 123 122 122 121 118 119 
118 120 123 126 125 125 124 125 126 127 130 132 128 124 125 127 131 116 117 
121 122 120 118 119 120 120 121 118 117 118 116 112 114 113 112 114 117 120 
121 122 122 120 121 116 114 114 116 118 125 122 120 118 120 121 123 122 124 
124 123 119 122 122 123 123 127 131 130 129 130 129 127 130 130 128 124 127 
123 120 118 114 116 118 121 119 116 116 116 116 117 115 117 118 121 122 120 
121 123 128 133 134 132 131 127 122 124 121 119 120 119 121 119 120 119 122 
122 123 125 125 123 125 128 126 125 121 123 123 127 116 116 117 116 114 117 
121 124 126 122 121 118 118 117 114 116 114 116 118 120 120 118 116 116 116 
118 115 114 116 117 117 118 116 114 112 117 120 122 121 121 117 118 115 116 
119 121 122 122 123 121 122 126 126 126 127 126 128 124 125 123 121 119 114 
115 116 115 114 114 119 122 120 120 117 117 115 116 116 119 119 122 127 130 
130 130 130 127 123 122 118 118 118 118 119 120 116 117 117 121 124 126 123 
121 121 124 125 126 123 125 125 126 120 119 116 113 112 123 127 126 127 124 
123 122 122 121 120 119 118 121 123 124 122 118 118 115 114 114 113 113 111 
110 109 108 108 111 112 117 121 122 121 121 119 117 114 112 114 116 117 117 
117 113 114 115 121 124 122 121 118 115 116 117 119 120 117 117 113 113 113 
116 118 121 119 120 117 116 115 115 116 116 117 117 120 123 122 121 121 122 
119 120 114 114 117 118 121 119 114 116 118 121 124 122 119 119 117 122 125 
127 127 125 121 118 121 120 116 112 110 114 113 117 120 117 116 115 116 116 
118 119 122 122 125 124 123 121 119 116 111 109 111 112 110 111 111 111 111 
109 108 113 117 120 120 119 116 114 109 107 110 113 113 114 113 109 109 112 
116 121 121 121 117 114 112 112 112 115 116 119 116 112 109 109 110 111 112 
115 113 114 115 112 112 113 116 115 116 116 115 116 117 120 118 115 112 115 
117 119 119 118 114 116 116 114 113 113 112 116 116 123 126 125 127 122 119 
118 115 116 114 110 109 110 111 112 112 109 110 111 114 113 112 115 117 120 
123 121 121 118 115 108 105 105 107 110 111 114 114 114 114 114 115 114 115 
119 121 121 118 111 102 101 104 110 111 113 114 112 111 113 113 118 117 114 
110 107 104 111 111 112 113 115 115 112 108 107 106 110 110 113 113 115 116 
114 112 112 113 113 110 109 111 110 113 116 116 115 114 113 112 112 113 114 
111 108 108 111 112 110 111 114 114 118 120 120 121 116 112 109 112 112 108 
107 109 111 110 110 110 110 112 114 113 112 109 111 113 115 118 119 118 115 
114 110 106 105 105 109 110 113 114 113 114 115 117 117 118 119 118 116 112 
107 103 102 102 106 110 113 115 116 118 116 116 117 115 113 112 111 112 114 
116 112 109 111 111 111 109 105 102 107 111 115 117 119 117 115 114 114 112 
110 107 108 110 113 114 115 113 111 111 108 106 108 110 107 102 101 104 107 
110 112 113 114 114 118 120 118 117 113 110 105 106 105 103 105 107 105 106 
107 109 112 113 114 115 112 107 107 108 110 111 112 112 112 110 110 109 108 
107 107 107 110 109 111 114 113 118 119 119 116 113 108 104 100 98 99 101 
100 104 105 107 109 113 113 112 112 110 113 114 111 113 114 113 108 106 109 
110 113 111 104 105 107 110 116 116 113 113 110 108 107 108 110 111 110 111 
110 110 110 110 110 111 109 109 107 106 106 104 103 105 105 107 109 109 113 
115 116 117 112 113 110 111 110 106 104 100 100 101 102 102 102 105 108 110 
109 107 108 108 106 106 104 105 105 108 110 112 112 110 108 110 106 103 101 
104 107 109 109 112 116 115 110 109 104 102 101 100 100 102 99 100 102 104 
103 105 105 106 107 111 111 112 113 115 116 112 108 106 107 108 109 110 107 
107 106 108 111 113 111 110 110 109 107 107 108 108 108 115 114 113 109 109 
106 105 104 103 106 104 105 104 107 108 109 111 111 110 110 111 110 111 108 
109 107 106 106 105 107 105 102 102 102 101 102 103 104 104 105 104 104 102 
101 103 103 103 104 108 110 112 113 111 110 110 107 108 107 105 104 107 109 
110 110 109 109 108 105 103 103 102 101 101 97 98 97 101 100 100 99 103 
105 107 108 109 110 111 110 109 109 108 110 109 109 105 105 107 105 107 110 
110 111 111 110 109 105 102 104 104 105 110 113 115 112 108 103 103 102 100 
100 98 100 101 102 105 109 110 110 109 108 108 106 107 108 111 108 101 99 
102 104 104 102 99 99 101 102 102 105 103 103 102 100 98 100 102 101 100 
101 103 107 111 111 109 109 108 106 108 108 106 105 105 104 105 104 106 106 
104 103 101 102 100 102 102 97 96 92 93 93 97 96 102 105 109 112 108 
105 103 104 105 104 103 105 108 106 103 104 105 103 101 100 98 105 108 108 
103 100 98 102 105 106 108 110 110 110 106 103 101 101 99 96 95 95 96 
95 97 100 103 104 103 102 102 102 101 101 101 104 99 96 103 105 105 103 
100 99 101 106 109 109 105 104 101 101 97 97 95 103 102 101 99 101 107 
111 110 107 107 108 108 107 99 97 97 96 97 99 102 104 105 105 104 102 
101 102 98 96 96 93 93 94 98 99 107 107 107 108 106 102 98 97 99 
97 99 99 101 101 101 101 103 102 103 104 105 106 107 104 98 95 97 101 
103 104 107 110 109 106 102 100 96 96 96 94 93 92 93 94 94 97 98 
98 98 99 100 99 96 96 95 98 97 95 99 102 102 100 101 100 103 106 
107 105 104 102 101 99 94 93 93 98 96 95 94 96 99 101 97 94 99 
105 105 103 96 90 86 87 90 91 97 102 103 101 99 98 98 99 99 99 
97 95 96 98 99 100 104 105 104 103 103 100 96 96 98 98 97 97 99 
98 96 98 98 100 99 101 102 100 98 96 94 94 91 95 98 99 102 105 
101 97 95 96 93 94 94 93 92 94 94 92 92 94 89 88 88 91 94 
94 92 89 92 96 97 99 95 95 97 95 95 95 97 99 98 98 97 98 
97 95 94 95 92 91 92 92 93 94 98 97 92 92 95 99 96 97 95 
89 86 85 87 90 94 96 97 99 98 97 97 100 99 99 99 95 94 93 
93 92 97 99 98 99 97 97 97 98 98 97 96 95 95 96 96 98 99 
99 99 100 100 97 93 91 92 94 93 97 98 98 97 96 92 91 90 93 
92 94 96 96 94 96 94 93 89 89 86 85 88 90 93 93 93 91 92 
92 92 91 92 94 95 93 92 91 93 94 95 96 96 94 92 92 89 92 
89 88 89 90 93 94 98 98 96 96 96 97 95 96 97 92 91 91 92 
92 95 94 92 94 94 94 96 100 99 97 95 87 87 88 89 89 91 92 
93 92 90 95 96 99 97 94 94 95 97 95 95 97 95 97 96 96 93 
93 90 92 93 98 97 99 96 94 93 91 90 92 87 89 90 93 96 98 
98 94 95 91 88 87 86 84 84 88 90 91 91 92 94 93 89 88 97 
99 99 95 93 89 89 90 91 95 94 93 92 88 89 89 89 90 87 90 
92 94 96 98 97 94 96 96 97 99 100 98 96 96 97 95 94 93 89 
92 89 89 91 96 99 96 92 87 85 87 89 89 90 89 90 90 91 94 
96 97 97 96 96 96 98 98 93 93 90 90 90 91 92 91 90 91 91 
103 105 101 98 99 94 92 89 91 90 91 91 92 96 97 98 96 92 88 
87 85 83 80 86 90 90 92 93 91 91 90 87 85 98 100 99 99 96 
94 92 93 92 94 93 91 90 86 88 89 89 87 85 89 92 95 95 92 
92 93 93 96 96 99 99 98 95 93 92 90 90 89 88 91 89 89 92 
97 99 99 96 92 88 88 90 89 90 91 89 89 89 91 94 94 97 97 
95 93 93 95 92 90 85 86 85 85 86 87 88 89 88 97 99 100 100 
96 89 86 86 89 90 93 93 92 93 89 88 86 85 86 88 85 86 86 
92 91 90 89 90 90 89 88 88 85 96 98 97 98 96 92 92 91 91 
91 92 92 90 87 88 91 91 86 83 85 85 89 92 90 91 91 92 91 
94 98 98 94 94 91 92 92 90 88 87 88 88 90 92 95 96 95 91 
89 86 85 86 88 87 87 89 90 91 91 92 93 94 94 92 90 89 87 
86 86 86 88 87 86 88 90 91 91 91 93 92 92 92 90 85 84 85 
89 89 90 88 88 87 87 83 80 81 84 86 85 87 88 90 91 94 94 
91 89 91 91 88 84 86 89 90 93 91 88 91 90 91 91 89 86 86 
84 83 85 83 83 85 86 85 86 90 92 93 94 94 91 93 92 92 91 
91 89 91 90 89 85 82 80 81 85 86 93 94 90 87 83 81 79 82 
84 86 89 91 92 92 94 91 94 93 92 90 87 87 88 90 86 88 88 
84 83 86 87 90 91 91 89 84 83 81 81 83 84 86 88 87 87 85 
84 85 84 79 78 81 82 81 82 82 84 87 90 94 94 91 91 90 87 
86 81 79 79 83 84 84 83 83 87 84 83 84 82 77 80 80 84 84 
85 85 82 81 85 88 89 92 91 89 90 89 85 87 84 82 83 86 86 
81 75 73 74 73 79 82 87 88 87 86 83 79 76 79 81 84 87 89 
90 89 90 86 88 89 88 85 86 85 86 86 84 83 85 87 87 90 90 
87 85 83 82 81 81 80 78 80 81 81 81 83 83 84 83 84 84 82 
82 79 78 78 78 79 78 79 85 89 89 89 92 90 87 85 83 83 80 
81 82 81 79 78 83 81 81 80 75 75 75 77 82 80 79 77 76 80 
85 85 85 88 86 83 83 85 89 88 87 85 83 83 81 79 76 74 72 
73 78 83 88 93 91 89 84 79 79 82 78 79 82 84 83 83 84 83 
87 86 84 84 85 82 82 82 79 77 78 79 83 87 88 88 85 81 80 
80 79 76 76 79 79 79 80 85 87 88 83 84 84 82 81 79 78 74 
73 72 75 73 76 79 83 86 87 87 84 85 85 79 77 75 79 79 84 
85 84 80 81 78 77 80 79 79 81 79 80 78 77 79 83 84 86 87 
83 81 79 81 82 83 81 82 83 83 81 79 78 76 73 76 79 82 88 
90 91 87 86 77 75 75 73 74 78 81 80 80 79 77 79 79 79 79 
79 76 77 76 74 73 75 77 80 85 87 87 84 80 78 76 76 77 79 
78 78 79 80 83 85 86 83 77 80 79 77 75 74 75 74 71 71 70 
72 74 81 85 86 84 84 85 86 73 70 70 75 83 85 85 83 81 80 
78 76 75 75 77 76 77 78 79 81 83 80 83 84 86 82 80 79 79 
82 83 80 80 81 80 82 80 77 77 76 76 80 83 86 87 88 87 85 
76 72 68 69 67 67 69 72 76 77 78 79 78 76 77 76 76 75 74 
74 75 76 77 78 82 85 85 82 82 81 78 76 75 77 77 77 78 82 
80 81 82 80 76 79 79 77 73 72 74 74 75 74 74 75 77 80 80 
82 79 76 79 81 74 75 74 78 80 81 80 75 75 76 77 77 75 73 
73 75 75 76 78 79 82 79 79 78 78 80 77 74 74 77 78 78 78 
78 81 81 80 73 73 73 73 77 78 79 82 83 84 86 82 75 73 70 
65 65 68 70 72 74 76 77 76 76 78 77 78 75 72 73 74 75 78 
79 80 82 81 77 77 78 78 78 77 78 76 74 70 74 77 77 78 79 
79 83 81 78 74 73 72 73 73 73 72 72 75 78 80 78 72 64 63 
60 76 77 79 79 76 76 74 71 73 74 77 75 72 72 72 75 74 76 
76 77 78 78 74 72 74 78 80 73 73 74 75 76 77 76 78 76 75 
75 71 71 72 75 77 79 82 81 80 81 79 74 73 73 74 72 72 72 
73 73 78 78 76 79 82 81 77 75 75 77 75 77 79 79 79 77 73 
69 70 71 72 73 70 71 71 70 70 72 74 77 80 80 84 84 83 80 
76 76 76 75 73 72 74 78 80 80 78 73 66 66 65 67 78 78 78 
79 75 75 73 70 69 68 71 71 71 71 74 75 75 74 74 73 74 73 
70 71 71 74 74 71 71 73 73 74 77 75 74 70 71 73 70 71 72 
74 75 74 75 72 74 74 70 70 72 70 71 71 73 73 74 74 76 76 
72 75 77 74 72 71 69 71 71 73 74 75 75 74 72 70 70 69 69 
69 68 71 74 73 70 69 70 70 73 75 81 83 80 76 74 72 75 77 
77 81 80 81 80 80 75 71 69 67 69 74 72 71 74 75 75 76 73 
71 69 69 67 69 72 73 74 75 73 71 69 71 71 69 69 70 71 73 
73 72 71 71 72 74 76 73 70 69 70 69 69 69 71 75 73 72 74 
70 69 67 66 69 70 68 67 65 67 71 74 74 74 70 68 67 69 67 
66 67 67 68 67 68 68 70 71 71 71 71 70 72 73 73 71 70 72 
71 70 69 70 70 73 73 78 80 81 76 72 70 71 73 74 74 75 76 
74 75 72 70 69 68 70 74 73 73 73 71 69 68 68 65 63 63 65 
68 70 76 78 76 72 69 66 69 69 71 71 70 72 69 70 69 67 68 
70 71 72 71 69 72 70 71 71 72 73 75 73 70 71 71 67 66 69 
73 71 71 69 68 69 72 74 73 72 69 68 66 70 71 67 66 67 67 
65 65 66 66 67 66 62 66 66 71 75 76 75 72 72 72 71 71 70 
72 74 74 76 78 77 75 71 66 63 64 66 65 65 66 67 69 71 71 
71 70 67 66 75 76 74 72 72 70 67 64 63 64 64 69 66 68 70 
68 66 64 63 66 65 69 68 71 73 73 70 67 64 65 66 70 69 70 
69 71 70 72 71 71 73 73 71 70 72 70 69 69 69 70 70 70 70 
67 69 70 69 69 69 69 70 73 75 75 69 65 66 69 66 66 69 68 
64 62 58 60 65 71 74 74 73 73 76 76 72 72 69 67 65 66 70 
72 73 70 65 62 60 61 60 60 63 66 65 68 70 71 72 69 65 66 
73 76 75 74 73 71 66 62 60 59 64 69 69 68 66 66 65 62 59 
59 59 65 66 68 70 71 68 64 62 67 68 72 70 68 69 69 68 67 
67 64 68 68 69 66 68 69 72 71 68 66 65 65 63 62 65 68 68 
66 63 63 62 63 69 68 66 64 63 63 64 66 72 72 69 65 61 63 
66 67 65 62 65 71 76 75 70 68 65 64 63 64 66 67 70 68 64 
61 60 60 60 59 55 53 55 59 62 64 65 64 64 62 68 69 71 69 
67 66 62 60 62 62 66 67 68 71 69 71 68 64 64 61 60 61 62 
64 68 69 69 66 63 64 63 65 67 68 70 69 67 63 60 58 57 56 
60 61 63 63 64 63 62 61 61 57 56 55 56 57 57 54 53 56 56 
57 61 63 63 63 63 63 66 67 72 73 73 72 67 67 67 64 64 63 
63 68 70 71 69 64 60 61 63 65 65 70 71 69 67 68 66 62 62 
57 55 54 49 52 56 62 63 63 66 65 64 64 66 68 65 62 58 56 
59 60 65 69 67 68 65 66 65 63 61 57 58 60 63 65 67 66 65 
62 60 59 58 66 67 67 69 68 65 61 57 55 58 54 56 58 60 63 
61 58 57 56 55 51 49 49 52 56 57 57 56 57 54 55 57 59 61 
64 66 68 69 66 65 67 68 67 64 63 61 61 64 66 67 69 69 65 
62 59 56 58 58 58 60 65 68 67 68 67 65 62 61 56 58 57 54 
55 58 60 59 59 62 63 57 59 59 60 61 61 58 60 56 56 64 68 
65 65 66 68 68 67 67 62 58 61 60 59 58 58 59 59 60 64 65 
67 66 64 64 65 62 57 55 53 55 55 58 60 60 57 54 56 55 54 
51 46 43 43 47 55 56 55 54 53 53 52 53 56 59 61 65 68 67 
62 61 62 61 62 63 64 61 60 57 59 63 65 66 63 62 59 59 59 
59 60 60 61 66 67 66 67 66 59 59 58 60 61 60 59 58 60 61 
62 62 61 50 52 55 57 59 61 59 58 56 58 63 66 66 64 63 63 
63 65 66 65 63 60 57 55 54 55 54 55 56 59 58 61 59 56 57 
59 56 53 52 54 57 55 57 60 59 55 51 53 54 53 51 47 43 46 
48 53 57 58 57 55 55 52 52 53 55 55 59 63 61 62 60 60 58 
57 55 56 56 59 61 61 62 66 64 62 56 54 55 56 59 58 56 55 
60 65 66 69 68 67 66 65 59 57 58 57 58 60 61 60 62 62 54 
56 57 54 54 56 57 58 59 60 60 66 66 66 64 60 60 65 64 60 
61 58 55 51 50 48 53 50 55 54 53 52 52 50 51 51 52 51 50 
54 55 54 56 58 58 58 53 53 54 54 52 49 46 49 55 59 62 60 
55 54 53 50 51 51 52 53 57 65 69 68 65 64 61 57 51 52 53 
58 60 60 61 57 54 51 45 45 51 54 54 56 57 58 59 62 62 65 
67 67 66 64 59 57 57 54 55 55 56 58 62 64 52 51 51 50 51 
49 48 50 51 53 55 60 61 60 59 56 55 56 53 53 56 56 54 52 
50 48 49 49 52 47 44 44 45 44 46 49 48 47 48 51 52 51 52 
58 57 56 53 53 50 52 51 47 48 51 57 62 62 57 51 50 49 49 
50 51 54 54 57 64 69 69 65 61 58 55 55 56 57 58 58 55 55 
53 51 54 52 50 48 50 54 57 57 58 57 58 57 55 54 53 55 57 
58 56 53 53 56 53 53 50 50 50 48 46 48 48 52 48 49 47 51 
52 55 57 59 58 57 53 50 51 51 51 52 54 52 52 48 48 52 53 
54 47 45 44 44 45 47 50 49 52 54 53 55 53 54 57 59 58 51 
48 49 48 50 51 52 51 54 57 52 48 43 41 48 47 50 51 55 55 
56 59 65 66 62 59 60 58 59 59 59 57 53 51 50 49 50 52 52 
46 44 43 49 54 53 54 53 54 51 50 52 53 54 55 54 51 50 48 
47 46 48 47 45 45 46 48 48 48 50 50 50 48 49 47 48 50 50 
50 53 50 46 46 46 47 48 51 49 48 46 46 48 52 55 46 45 46 
46 45 48 49 46 48 51 50 50 49 50 52 53 51 47 49 46 46 51 
55 56 54 55 55 51 45 39 35 42 44 50 51 54 52 51 56 58 56 
54 51 51 52 52 52 50 51 52 51 51 49 50 50 50 47 41 40 44 
49 50 50 50 49 49 47 48 49 50 50 51 48 46 45 44 45 45 44 
45 46 42 40 38 37 39 43 45 43 43 44 46 48 51 50 55 54 50 
47 42 39 41 43 45 48 50 48 48 47 48 44 43 43 38 40 45 47 
42 44 47 48 51 51 49 50 52 50 47 46 49 49 54 56 54 54 53 
53 49 42 36 33 36 35 39 42 40 40 44 47 49 48 46 46 45 45 
45 44 45 46 49 50 47 46 47 48 47 45 43 42 48 53 50 50 49 
50 50 50 49 49 49 50 51 49 48 46 43 42 44 47 50 54 37 35 
34 32 35 40 44 43 44 47 47 47 47 51 55 58 53 48 42 38 39 
40 41 44 47 46 45 44 44 42 40 40 40 43 45 46 44 46 50 53 
54 54 49 47 47 47 47 46 46 44 44 47 51 52 45 40 36 32 31 
28 29 32 34 36 36 37 36 41 45 49 49 46 42 41 44 44 43 46 
47 46 44 44 43 45 45 45 44 44 47 51 50 48 47 50 49 47 45 
41 38 43 44 43 43 42 42 45 44 43 45 43 34 33 35 35 40 45 
49 50 50 49 42 41 43 44 51 54 51 49 44 40 38 38 41 45 46 
45 40 37 39 40 40 40 42 45 45 47 48 50 52 54 52 48 46 45 
44 45 45 43 42 45 47 46 48 46 40 36 35 35 34 31 32 33 36 
39 37 36 35 36 42 48 46 45 45 43 42 43 42 44 44 43 43 42 
43 43 44 46 48 48 49 50 48 45 44 45 46 44 42 38 35 36 40 
39 40 42 46 48 50 50 48 48 34 34 35 35 40 41 45 45 44 42 
37 39 39 39 44 47 45 42 38 34 32 33 36 36 40 40 40 38 40 
39 38 39 44 44 47 47 46 45 46 45 46 46 44 42 42 43 42 44 
44 43 42 44 45 42 38 38 39 38 37 39 37 35 38 39 38 37 35 
35 36 43 46 46 45 43 40 42 42 43 43 42 42 35 34 35 36 39 
41 43 44 44 44 43 44 40 40 37 36 36 35 33 34 36 38 44 44 
47 50 50 50 51 32 32 34 34 34 36 39 41 43 40 36 36 36 39 
42 39 36 32 32 33 30 31 31 33 34 36 39 40 37 36 36 36 39 
40 46 46 41 38 38 38 41 38 36 34 36 37 38 37 38 39 40 40 
43 42 39 39 39 39 34 34 34 38 37 36 36 36 33 33 36 42 46 
44 44 44 45 45 44 42 40 35 33 31 31 30 30 30 32 36 35 37 
40 41 40 38 36 39 35 36 39 40 41 36 36 41 43 45 45 44 45 
45 30 29 29 32 35 36 36 37 39 36 36 36 34 37 38 37 35 32 
29 30 29 31 31 36 37 39 42 43 40 34 33 34 37 39 47 48 43 
36 36 33 34 34 33 34 36 37 38 37 38 37 38 39 43 44 39 40 
41 39 37 36 36 39 40 38 35 34 30 35 39 42 44 49 51 47 46 
52 46 41 36 35 32 29 29 28 28 28 29 33 36 39 42 39 37 37 
38 41 39 41 40 41 40 40 42 40 41 42 41 41 45 48 
