P2
#output from hocrtest
90 90
255
252 250 246 247 252 252 251 246 252 255 255 255 255 255 255 252 249 253 245 
234 239 239 234 248 247 251 247 247 253 255 255 251 255 255 252 254 255 255 
254 253 246 249 248 252 255 253 246 244 238 235 241 251 253 245 244 248 252 
253 250 234 252 255 254 250 255 254 247 253 253 246 247 248 251 249 249 249 
254 253 255 254 254 252 250 252 251 254 255 239 249 250 251 250 246 249 251 
251 250 246 251 254 255 255 255 255 255 254 250 252 248 246 243 242 242 247 
248 249 248 249 252 253 253 254 255 253 252 254 255 255 255 254 251 250 249 
252 251 248 243 241 237 239 245 250 253 250 248 247 248 249 249 244 251 252 
254 253 255 255 252 251 249 244 246 250 251 250 248 247 251 251 253 253 252 
249 249 250 249 252 249 246 249 249 250 249 247 248 249 248 249 250 250 252 
252 250 254 253 255 255 247 248 248 250 247 245 246 246 244 247 247 249 250 
251 250 252 252 253 252 254 253 252 254 254 253 250 251 252 249 248 242 241 
240 243 248 250 254 251 247 244 246 247 248 249 253 250 252 251 251 252 250 
246 244 240 244 246 247 248 247 244 247 247 250 251 251 251 249 250 249 248 
245 241 242 242 249 250 249 250 249 249 250 250 249 252 254 255 254 253 255 
253 247 245 246 245 245 244 246 248 248 248 245 247 248 247 248 247 248 249 
250 251 253 249 251 253 254 250 250 251 249 246 243 242 243 247 250 251 252 
251 247 246 245 245 246 249 250 249 252 253 252 250 247 243 243 241 243 245 
243 240 242 243 245 242 244 246 246 246 246 247 247 245 243 242 239 238 248 
250 251 250 247 250 250 251 248 252 255 252 250 249 250 250 245 243 240 242 
244 244 247 249 249 251 251 251 251 249 247 245 241 244 244 246 247 244 246 
251 251 253 255 254 251 249 246 245 247 250 250 251 249 245 239 238 238 239 
241 244 245 245 249 249 247 244 242 243 240 242 245 247 245 244 245 245 245 
246 248 247 246 245 244 245 246 246 244 244 243 245 247 249 250 250 248 248 
249 248 249 251 255 252 250 248 247 245 246 243 240 242 245 248 248 248 245 
247 249 248 247 244 244 242 241 241 242 243 245 243 245 249 250 251 252 253 
250 250 246 247 248 252 250 250 245 238 232 233 236 233 236 239 239 240 244 
244 242 242 242 241 240 244 245 248 247 248 247 248 248 247 248 248 247 245 
245 242 244 245 242 242 239 237 244 245 245 246 245 243 245 247 247 246 250 
250 248 246 246 245 244 242 240 242 246 245 245 246 245 243 241 245 244 243 
245 242 240 237 239 244 246 245 245 246 242 241 244 247 249 247 244 246 246 
252 250 244 240 234 232 232 231 231 234 233 234 237 238 241 242 243 244 245 
247 247 248 251 249 248 248 244 242 243 244 245 246 246 246 247 247 246 244 
241 238 236 242 244 243 243 242 242 243 242 245 247 249 247 246 247 248 246 
242 240 242 243 245 243 240 240 243 244 242 245 244 242 241 237 235 232 234 
239 242 242 241 239 237 238 239 242 243 242 241 240 242 244 244 243 236 233 
232 233 232 231 232 234 234 232 232 234 235 236 239 240 242 244 246 248 245 
244 240 239 235 235 237 239 237 239 242 243 246 246 242 240 239 236 238 240 
239 240 240 242 243 243 244 245 246 244 243 246 248 248 244 242 243 243 242 
240 236 236 238 240 241 242 242 242 241 237 234 235 234 238 237 237 239 236 
238 235 236 238 240 242 240 238 237 237 235 237 237 235 230 230 231 232 233 
233 232 229 228 231 233 233 233 236 237 240 242 244 243 240 237 235 234 235 
234 238 238 238 238 241 246 245 242 243 242 240 233 235 235 236 236 239 239 
240 240 242 243 243 241 242 245 244 244 243 243 242 237 234 236 234 235 239 
240 240 241 239 242 238 235 235 236 237 235 235 234 234 235 236 237 238 243 
242 240 238 236 236 234 234 233 230 227 227 226 225 228 229 231 230 231 232 
230 230 232 233 233 235 236 236 233 234 234 234 234 232 233 236 236 235 238 
240 242 243 239 237 236 232 234 235 236 236 238 240 239 236 237 241 241 241 
235 237 236 235 237 237 237 239 236 237 235 237 239 241 239 237 236 236 235 
234 231 232 231 231 232 230 231 234 236 238 237 236 239 240 240 240 236 237 
233 229 229 230 226 226 226 228 231 231 231 231 230 232 230 231 232 232 229 
228 229 229 227 228 232 230 230 235 236 237 237 234 236 238 239 238 235 237 
235 236 233 234 234 235 237 237 234 229 230 231 230 232 232 231 229 232 230 
231 232 233 229 235 236 237 238 238 237 237 237 236 231 232 231 231 229 229 
231 229 228 234 238 237 236 232 233 233 236 236 235 236 234 231 229 228 227 
227 227 228 231 231 227 228 230 231 231 231 229 227 225 227 226 230 228 228 
231 231 233 239 237 235 233 229 232 233 230 231 230 234 232 236 237 239 239 
236 234 233 229 228 227 228 226 229 228 226 229 230 229 231 232 230 229 234 
236 240 237 235 233 233 232 231 229 227 228 230 231 229 227 225 223 233 236 
234 233 233 233 234 235 235 235 235 233 230 227 226 226 228 227 227 227 226 
224 222 228 229 230 226 229 229 227 229 231 232 232 231 232 230 230 232 234 
233 231 230 230 230 229 229 228 230 228 225 237 241 240 238 235 229 226 226 
225 230 229 229 227 228 230 233 234 236 235 230 231 235 236 237 234 234 231 
230 229 225 223 221 224 227 228 226 225 222 220 228 224 227 228 231 232 232 
231 230 233 234 235 232 230 232 232 232 229 229 228 228 227 221 223 225 228 
226 231 233 233 234 232 231 231 232 233 231 231 231 234 233 231 227 225 227 
228 229 224 224 224 221 237 237 235 234 234 231 226 225 227 228 233 233 234 
235 235 233 234 232 230 229 231 234 233 235 228 228 226 223 219 216 214 218 
222 224 225 225 224 223 224 223 220 222 221 227 230 230 229 228 228 230 230 
229 229 228 228 227 224 221 225 226 227 228 227 229 228 226 229 231 233 234 
232 231 232 234 233 233 233 234 235 237 234 231 228 229 227 226 223 222 223 
223 233 230 229 230 230 228 227 227 229 228 231 230 230 230 229 230 230 227 
226 226 225 227 227 225 223 222 222 218 213 210 215 215 216 221 222 221 224 
223 220 221 219 218 221 222 228 230 228 229 228 229 230 230 227 223 219 216 
217 217 222 223 226 227 225 226 225 225 228 231 231 226 224 225 230 232 234 
230 232 233 230 232 229 228 228 228 226 224 224 226 226 229 229 225 222 221 
220 220 219 219 222 224 226 228 228 227 226 224 224 222 223 223 223 226 223 
220 218 217 217 215 214 213 218 218 223 225 227 226 226 224 223 223 222 222 
223 225 227 226 227 225 225 225 228 227 224 221 220 218 217 217 217 220 222 
219 220 223 224 223 224 223 223 223 222 218 221 223 222 223 228 228 226 226 
223 223 220 219 221 221 223 223 223 227 235 234 231 224 220 218 217 214 215 
221 224 223 223 226 225 222 222 221 220 220 222 222 219 220 219 216 214 214 
216 217 218 219 221 224 225 226 228 226 222 224 225 224 226 226 226 225 225 
225 226 227 225 222 217 214 213 214 215 214 214 213 213 215 216 219 221 223 
223 222 217 215 213 212 214 215 217 220 222 221 223 223 222 224 221 219 220 
222 223 225 224 225 230 230 228 223 220 220 218 219 219 223 222 221 220 223 
225 223 221 221 221 215 216 217 216 219 223 219 217 217 215 218 219 220 219 
222 220 219 220 223 226 229 229 228 229 228 229 225 225 226 224 224 222 218 
215 214 213 215 216 214 214 214 214 214 219 219 221 223 221 219 214 211 209 
207 210 214 216 218 217 218 221 222 224 222 218 217 217 218 220 223 225 226 
226 227 226 222 222 222 222 222 222 224 222 221 218 220 221 223 223 221 220 
216 217 217 217 214 215 216 216 217 215 218 219 218 218 220 217 215 216 219 
222 227 228 228 234 232 231 228 224 226 223 220 218 214 217 218 216 215 213 
212 212 213 216 218 218 217 220 222 225 224 220 210 205 205 208 213 215 217 
218 218 219 221 222 222 219 219 222 223 225 223 220 220 219 221 219 218 218 
220 221 220 219 216 215 215 215 217 217 215 216 216 217 219 218 213 213 212 
215 220 217 217 219 217 218 218 219 218 214 211 213 214 216 217 220 226 227 
229 229 228 224 224 220 216 213 213 214 217 222 222 218 219 219 218 216 217 
217 219 221 221 222 223 219 212 210 212 215 217 217 216 215 216 216 217 216 
218 220 220 221 220 219 220 222 221 225 221 215 213 216 216 219 218 215 212 
210 207 209 212 215 215 213 213 215 216 215 212 212 209 213 214 214 212 211 
211 212 213 212 213 212 211 212 213 213 210 214 218 222 223 226 224 220 217 
217 215 213 212 213 217 220 216 217 219 217 215 212 210 208 211 213 214 214 
214 212 210 212 212 210 207 208 213 211 213 213 215 215 214 217 218 219 218 
217 214 212 208 216 216 214 213 212 214 214 208 204 204 204 200 204 206 206 
209 210 210 213 217 215 211 214 211 211 213 211 209 210 210 210 212 213 214 
215 214 213 213 213 212 213 215 216 216 216 217 216 214 214 215 213 212 212 
217 217 216 212 210 207 205 209 210 207 206 209 211 210 211 210 211 211 210 
208 205 204 207 208 210 210 208 208 209 212 214 215 214 215 216 215 215 211 
208 209 209 210 212 213 209 209 209 209 207 206 206 207 210 208 208 209 211 
213 213 215 213 213 214 208 206 204 207 208 210 212 212 211 210 211 210 210 
210 209 206 210 213 213 213 213 210 210 208 207 208 208 213 215 212 209 203 
203 201 206 208 208 203 204 206 205 204 204 205 207 208 210 206 204 209 211 
214 215 212 209 209 211 209 211 213 214 214 212 212 211 207 204 205 208 212 
211 208 208 208 206 206 206 204 205 208 210 206 205 207 209 208 209 211 213 
213 209 209 210 210 207 208 208 208 208 210 209 208 210 209 207 206 203 204 
208 210 213 214 213 211 210 211 210 214 215 212 205 202 202 204 206 208 208 
205 200 197 199 200 201 200 201 207 207 207 209 213 212 211 212 210 209 209 
210 209 210 215 215 213 208 205 210 209 208 205 208 211 211 207 206 207 207 
207 205 206 204 206 207 201 202 204 205 205 204 204 208 206 202 206 208 208 
206 206 204 204 205 208 206 203 204 201 205 206 202 201 205 207 209 211 208 
207 208 209 208 209 211 209 207 204 203 203 201 205 205 200 197 194 196 198 
199 199 198 200 203 204 204 207 205 203 205 203 205 205 207 210 211 214 214 
212 208 197 204 203 203 203 201 204 202 198 197 198 203 202 203 203 201 201 
203 200 202 204 205 201 199 196 200 203 201 204 203 204 205 204 202 202 205 
207 207 205 203 201 200 201 202 205 204 202 202 201 198 201 202 203 206 209 
212 210 210 207 206 205 203 204 203 201 199 200 198 200 201 202 203 204 205 
205 204 203 200 201 203 205 204 203 200 201 203 206 206 202 203 198 201 200 
197 197 199 200 201 200 196 199 200 197 200 200 201 202 202 199 202 202 202 
201 201 201 205 205 202 202 201 201 206 206 203 202 203 205 205 205 201 197 
191 189 193 196 200 197 198 195 196 196 197 200 202 200 201 206 209 205 201 
204 203 203 203 202 200 202 202 203 202 203 200 198 199 202 200 199 200 203 
204 206 204 204 203 204 204 205 204 203 203 206 195 193 190 194 202 202 201 
198 196 197 198 197 199 198 199 199 196 196 197 198 199 199 199 203 207 210 
206 204 201 202 205 205 203 200 202 204 206 205 204 203 196 193 192 195 196 
195 197 193 194 195 194 195 202 200 201 202 203 201 195 199 201 203 202 200 
198 202 202 203 199 202 200 197 198 197 196 195 200 202 202 203 200 199 204 
205 207 206 203 200 194 190 185 184 185 196 198 201 201 199 196 197 198 196 
195 197 199 195 189 190 189 191 192 195 198 202 204 203 203 201 198 200 200 
201 200 200 200 204 206 204 206 201 195 194 192 190 193 195 193 191 194 194 
193 192 196 197 198 200 200 198 196 199 197 200 198 196 195 197 200 200 201 
203 202 199 199 196 194 194 194 197 197 198 198 199 203 205 204 207 206 204 
199 201 179 179 183 192 196 200 199 200 197 197 197 198 196 196 195 192 190 
188 186 182 184 185 187 186 191 194 196 194 198 198 196 194 192 190 192 193 
194 197 199 195 191 189 191 191 193 193 191 193 195 195 196 196 195 195 201 
202 199 196 192 189 191 195 196 193 194 197 201 201 202 203 205 201 202 199 
195 193 195 197 198 197 199 200 202 203 202 205 205 204 197 193 186 187 193 
197 197 196 196 195 195 197 198 198 194 193 192 191 189 188 187 184 186 185 
184 185 190 192 192 193 196 194 190 191 192 190 187 190 190 192 188 187 185 
184 188 192 193 193 191 191 188 189 190 188 190 195 202 204 204 199 192 188 
190 192 188 188 189 192 195 195 197 200 203 198 200 198 198 194 194 195 195 
195 195 193 193 194 194 200 201 203 198 197 189 192 196 195 191 191 191 192 
194 194 193 193 191 192 190 192 191 192 191 187 188 187 186 186 189 190 192 
194 196 192 193 191 194 195 194 193 186 186 186 188 188 188 189 190 189 191 
194 191 187 187 184 186 188 190 193 196 198 196 193 191 191 191 187 186 185 
186 187 188 190 193 195 196 195 194 196 195 193 193 189 189 188 186 182 184 
188 194 195 197 191 183 190 191 194 194 193 190 188 189 192 193 193 196 193 
191 189 192 193 191 191 191 189 188 188 186 189 191 191 194 196 196 195 196 
196 197 196 191 184 185 187 189 190 190 189 190 192 192 191 190 189 187 183 
184 184 185 187 189 190 189 188 186 187 186 184 186 184 181 182 184 184 186 
188 188 190 192 194 193 191 191 189 188 185 181 178 182 187 191 195 199 198 
194 193 191 194 190 187 186 184 186 188 191 189 187 185 184 183 185 189 190 
189 191 188 186 182 183 186 188 190 187 189 193 195 195 190 192 190 181 176 
179 182 183 186 189 189 189 192 192 192 188 188 190 186 185 185 183 181 182 
183 183 183 185 183 184 181 180 180 183 183 184 183 184 186 185 187 189 191 
189 191 187 186 183 182 179 178 182 184 192 196 202 203 203 194 192 190 189 
190 189 187 187 191 192 189 185 184 180 180 183 184 186 186 185 180 176 173 
178 184 185 186 186 186 190 191 192 192 191 188 183 180 178 179 177 179 182 
183 181 185 186 187 186 184 188 184 183 180 176 177 179 180 180 180 178 180 
180 178 176 176 180 182 182 180 181 182 181 183 187 188 189 188 185 181 175 
176 177 177 183 181 188 190 192 196 198 189 188 191 191 193 192 191 189 187 
190 186 185 181 180 181 180 182 182 180 182 180 176 173 177 178 184 185 184 
183 187 188 189 189 189 190 189 187 182 177 174 173 177 178 179 183 185 187 
186 184 186 185 183 179 177 177 180 181 180 177 176 176 174 171 172 173 177 
178 182 182 180 181 181 181 181 184 185 185 182 179 176 173 174 177 180 178 
178 181 186 187 183 186 188 188 188 190 190 188 186 183 184 183 185 185 186 
187 185 183 183 181 180 177 176 176 179 182 190 188 185 182 183 187 187 185 
185 185 186 186 183 179 175 171 171 171 174 182 184 184 186 183 184 185 185 
184 183 184 188 191 191 184 181 181 178 175 175 179 181 182 185 185 184 183 
184 183 183 184 185 181 180 182 180 180 182 182 177 177 176 180 185 188 185 
185 184 185 183 184 185 182 178 179 180 184 185 184 187 191 188 183 182 181 
177 172 173 177 180 182 185 186 184 183 185 186 188 186 186 186 185 184 182 
178 178 176 176 174 173 179 184 185 188 189 189 186 185 184 185 186 190 194 
194 188 183 181 179 177 176 178 181 182 180 183 183 181 180 178 178 177 177 
176 181 183 184 185 186 186 179 178 179 183 184 185 186 181 182 182 179 178 
178 175 173 174 173 177 179 173 178 181 181 179 179 175 172 169 167 169 173 
178 180 179 181 179 180 181 183 185 186 186 184 182 178 178 180 180 177 176 
177 181 185 185 189 186 187 187 187 187 189 190 190 191 193 191 190 189 189 
185 186 181 181 178 179 183 186 183 181 178 177 177 179 181 182 181 183 183 
187 185 181 179 181 182 183 181 178 172 175 174 173 174 177 176 173 176 170 
174 176 172 175 177 176 176 174 171 169 166 163 167 169 173 176 176 176 175 
176 178 179 181 180 181 178 177 175 174 173 174 176 174 172 181 187 187 182 
179 181 180 180 180 182 181 182 186 186 182 180 179 179 179 178 175 175 176 
177 181 183 181 178 175 176 177 175 177 177 179 183 179 180 179 179 177 176 
180 178 174 168 161 164 166 171 172 174 174 175 172 170 173 172 173 178 181 
181 179 174 171 168 166 165 166 166 172 173 172 175 173 172 172 180 180 181 
183 178 175 171 169 167 167 169 169 173 181 186 184 180 178 178 173 174 174 
173 171 171 170 173 173 170 173 176 175 176 174 172 173 175 178 176 175 170 
169 166 167 164 162 166 171 175 175 173 173 172 172 172 172 170 163 160 158 
161 164 169 171 171 171 173 172 173 175 173 173 175 178 178 174 173 172 170 
171 170 169 170 173 173 172 171 169 167 170 175 177 179 177 177 174 169 168 
167 165 167 167 168 173 174 176 176 173 171 167 165 164 165 167 170 167 167 
164 164 165 165 166 169 170 172 174 176 177 174 174 170 165 161 161 161 163 
164 167 172 171 169 169 170 171 174 172 176 176 176 151 157 161 161 160 162 
161 162 161 164 171 173 173 174 172 171 169 170 172 171 172 171 173 174 174 
174 170 169 168 166 170 172 173 173 173 168 166 164 166 165 163 164 161 162 
167 167 170 171 168 166 164 164 160 157 156 157 159 162 163 163 164 164 165 
166 165 165 175 177 177 176 177 174 169 167 166 167 167 168 168 169 169 167 
168 167 169 170 171 171 171 173 155 158 162 161 161 163 160 160 160 161 166 
170 172 170 172 170 169 170 173 170 173 173 171 172 171 170 168 169 167 165 
164 164 168 168 168 165 162 161 164 164 162 161 156 154 161 166 171 169 166 
163 164 164 157 158 156 153 156 162 164 167 166 165 166 166 166 164 172 173 
171 173 172 171 170 171 172 170 169 168 165 167 168 165 168 165 168 169 171 
171 172 172 158 160 164 164 164 162 159 157 161 162 165 168 169 169 168 166 
169 167 168 168 170 168 169 167 166 165 162 163 163 160 163 164 163 164 161 
159 161 163 163 165 164 163 160 159 163 168 166 164 161 157 158 160 159 160 
159 159 159 160 160 164 161 162 162 163 163 160 162 165 166 167 164 163 164 
165 166 165 167 161 161 165 165 169 169 169 171 171 172 172 173 176 164 163 
163 163 163 161 157 158 161 162 162 164 164 163 164 163 167 168 168 165 163 
163 162 164 164 162 158 158 157 156 157 159 158 159 155 154 157 163 168 168 
166 162 159 155 159 163 163 159 157 155 153 154 155 157 159 158 156 156 157 
156 158 159 162 159 158 158 156 157 157 159 158 161 164 165 167 162 159 158 
158 164 165 168 168 167 168 167 169 172 175 175 159 159 161 160 160 159 160 
160 162 162 163 165 163 160 158 156 159 161 164 162 160 157 158 162 161 159 
154 153 150 150 152 156 156 153 149 150 153 157 162 165 163 160 160 161 161 
163 165 159 158 158 163 162 160 160 160 159 157 157 157 160 161 162 164 160 
156 156 154 155 152 151 153 156 156 157 160 158 154 154 154 155 158 167 171 
171 172 171 168 163 159 152 155 157 160 159 161 160 160 159 160 161 160 160 
161 160 158 154 156 156 158 156 160 159 159 160 160 156 155 154 153 154 155 
159 156 153 146 144 147 150 153 156 158 156 157 156 157 159 161 159 158 158 
159 161 163 160 159 160 160 161 162 164 164 165 165 165 163 159 156 156 155 
155 154 154 155 155 157 157 155 154 153 154 158 162 163 164 168 168 168 165 
164 162 152 152 153 153 154 158 156 158 160 161 161 160 160 160 158 157 160 
161 161 158 161 160 160 159 156 150 147 151 152 154 155 156 153 150 144 144 
145 149 151 152 152 152 148 147 149 156 162 157 158 157 159 159 160 163 164 
163 163 161 157 159 157 161 164 162 159 157 158 160 164 162 160 157 157 156 
156 154 155 151 152 151 152 153 155 158 162 163 167 166 165 165 146 146 147 
145 147 154 157 159 159 160 159 158 158 161 160 160 162 161 161 159 158 161 
161 160 158 153 151 153 156 156 155 157 158 158 156 150 148 150 152 152 154 
154 150 146 148 153 157 157 156 153 153 151 152 155 158 159 161 161 160 159 
158 157 157 156 154 153 154 153 155 157 157 157 157 155 154 150 151 154 153 
150 151 148 150 154 157 155 158 157 161 163 143 143 140 136 143 150 154 154 
153 156 155 157 159 162 164 164 162 161 159 160 155 155 156 160 160 156 157 
155 155 156 156 151 155 157 154 151 148 147 149 154 155 157 152 148 150 150 
155 155 152 151 151 150 152 155 156 155 157 157 156 153 153 154 154 153 152 
149 148 149 149 152 155 156 155 153 150 149 154 154 152 149 148 147 148 149 
152 151 152 157 159 160 138 138 137 135 136 141 144 145 143 146 146 150 154 
156 159 159 157 153 152 155 154 156 154 151 153 152 150 151 150 150 153 151 
153 154 152 150 150 151 152 153 156 156 154 148 148 146 148 148 149 152 152 
150 150 152 154 155 155 155 154 151 152 153 153 149 149 145 144 146 149 149 
150 150 150 150 149 152 155 155 156 155 155 153 152 152 152 151 151 151 148 
146 142 141 139 139 140 138 138 140 140 142 145 148 150 150 149 150 152 151 
153 153 151 152 145 144 145 144 144 145 147 149 153 153 154 154 152 151 150 
149 153 153 152 152 149 147 146 145 145 145 151 150 149 149 148 149 155 156 
155 153 151 149 151 153 153 150 147 145 146 146 146 148 149 147 144 144 145 
148 151 154 155 157 154 149 146 150 148 148 150 151 154 158 144 142 142 141 
141 140 139 138 139 142 148 151 151 152 150 150 154 151 147 149 149 149 146 
144 143 141 139 142 144 145 147 147 149 147 148 149 149 148 152 152 153 151 
151 149 145 143 141 141 143 144 145 144 145 147 149 150 148 149 145 147 149 
150 150 149 148 148 146 145 148 151 151 147 142 140 141 146 149 150 148 149 
147 147 147 147 145 144 144 142 140 139 147 147 148 146 140 139 140 141 144 
145 149 148 147 149 149 151 151 146 144 146 147 144 141 139 140 141 142 145 
143 144 147 149 149 150 146 148 146 147 148 149 151 145 149 148 145 142 137 
138 139 140 142 140 139 144 146 146 144 145 143 146 146 146 144 144 143 145 
145 145 147 150 146 145 141 143 143 145 148 148 147 147 142 143 145 145 142 
141 139 140 137 135 144 144 144 141 140 148 149 145 145 146 149 147 146 148 
150 152 152 148 147 146 144 141 138 135 139 142 146 149 148 149 150 149 149 
150 149 148 144 144 143 144 141 140 144 146 145 140 137 137 141 143 143 144 
143 145 141 143 143 145 145 145 142 142 143 141 141 140 139 142 143 143 143 
141 137 139 142 144 147 146 144 144 144 143 141 141 139 140 139 138 136 134 
140 138 140 140 141 142 143 144 147 148 150 151 150 149 151 152 151 148 146 
142 138 135 136 137 136 136 139 144 146 146 148 148 147 148 149 145 142 143 
140 137 135 134 136 141 141 138 138 136 140 142 143 144 146 148 143 142 140 
143 141 139 138 138 139 138 137 135 134 133 135 134 134 138 137 138 140 145 
144 142 142 143 143 142 142 141 139 137 136 138 140 140 137 137 139 138 139 
139 140 141 144 146 147 148 148 147 147 147 146 146 144 141 139 136 136 136 
137 136 137 138 140 147 147 145 147 149 151 150 147 148 144 140 134 132 135 
135 137 138 140 139 138 139 139 142 144 147 144 144 143 139 137 136 137 138 
139 139 136 134 133 133 134 134 133 131 135 137 143 145 140 137 139 140 139 
139 140 137 131 132 131 133 135 138 136 135 136 134 137 139 142 139 142 139 
139 139 142 142 139 142 141 139 138 137 135 132 129 132 135 136 137 136 137 
140 139 139 138 141 145 147 149 148 145 139 133 129 126 129 129 132 135 137 
138 136 135 138 141 142 142 142 143 139 136 136 135 136 135 133 136 134 133 
134 135 133 132 133 134 137 141 140 138 134 135 135 136 134 132 132 130 129 
130 133 136 139 133 131 131 134 133 130 133 135 140 141 144 147 146 144 141 
138 136 136 136 134 131 127 127 132 133 135 135 134 136 139 137 133 135 137 
142 144 144 140 138 136 133 130 129 129 129 131 134 136 134 133 133 134 137 
142 142 141 145 140 135 133 134 137 134 134 134 133 129 130 130 129 129 132 
133 138 139 136 135 133 134 135 135 135 132 133 133 130 130 128 127 125 127 
132 133 133 133 133 132 134 135 139 146 150 144 142 141 138 136 136 133 130 
128 126 126 127 129 133 131 133 135 134 133 132 132 132 137 137 138 133 130 
132 131 132 133 132 133 136 135 138 135 133 134 132 136 138 136 136 138 140 
134 133 133 135 132 130 126 129 129 129 129 129 130 132 132 135 133 131 129 
128 130 131 134 132 134 134 134 130 128 128 127 127 133 130 131 133 135 138 
135 137 136 135 136 137 137 139 142 141 136 133 131 130 125 123 123 124 126 
125 124 125 127 129 128 129 129 130 131 130 131 129 130 130 132 133 133 134 
136 137 135 135 135 135 138 134 137 135 132 131 131 133 132 130 127 125 122 
123 119 124 124 126 128 126 129 130 130 130 129 127 125 123 125 128 133 134 
135 134 132 130 128 129 128 125 130 127 126 127 129 131 132 135 133 130 127 
129 132 135 138 139 137 133 132 132 127 124 122 122 121 122 122 121 122 124 
125 125 125 128 129 128 128 127 128 126 130 132 131 132 134 134 134 131 132 
129 132 133 131 131 129 130 132 131 127 124 121 120 120 122 125 129 130 130 
129 129 130 127 125 125 124 124 121 120 122 123 128 127 126 127 128 129 128 
129 126 126 130 130 127 125 124 125 127 130 131 130 128 127 130 130 132 133 
130 129 127 125 126 126 127 128 124 122 120 120 118 119 122 122 124 125 126 
123 119 119 118 123 128 128 127 128 131 131 132 129 127 126 127 126 125 123 
126 130 134 134 128 127 125 123 125 129 128 130 134 136 135 132 130 128 123 
121 117 119 118 120 120 122 123 119 123 123 122 122 119 119 116 116 126 129 
130 127 122 119 122 120 124 123 124 122 124 125 126 125 120 123 124 123 125 
124 125 125 121 122 121 123 122 122 123 121 120 121 123 122 118 115 113 121 
120 119 122 125 125 123 125 126 124 125 124 124 122 121 122 126 131 132 127 
127 125 121 122 125 125 129 131 133 134 128 127 121 119 119 116 116 116 115 
117 119 120 117 120 120 121 116 114 115 116 119 126 128 130 131 126 124 124 
119 118 120 120 120 125 125 127 127 124 123 123 122 121 119 121 122 123 125 
124 127 126 127 124 123 123 122 125 123 120 119 113 113 114 115 119 122 123 
121 125 126 125 127 126 125 124 124 125 125 125 121 117 121 120 119 117 120 
121 126 127 127 126 122 122 116 114 110 109 109 112 113 117 120 121 120 119 
120 119 115 110 109 112 111 120 124 127 128 126 122 122 120 120 120 118 120 
125 127 128 127 125 124 122 118 120 120 117 119 122 126 130 128 129 123 119 
120 121 119 121 124 123 122 117 118 120 122 123 123 124 125 127 129 130 129 
126 123 121 122 127 125 123 119 118 118 117 119 119 121 123 124 124 121 119 
117 115 112 112 110 111 107 107 109 111 114 115 115 120 120 121 118 114 111 
113 113 120 120 120 121 119 120 123 120 119 116 114 116 120 121 123 122 121 
122 122 121 120 118 117 116 118 124 129 130 125 119 118 117 118 116 117 120 
122 122 119 120 123 124 125 123 123 123 125 129 130 128 126 124 121 119 121 
122 123 116 114 111 111 114 118 121 123 123 127 125 118 115 115 113 113 116 
117 112 108 106 106 109 112 115 120 119 118 118 117 112 111 108 112 112 113 
118 120 121 122 117 117 113 113 115 116 117 116 117 118 118 118 122 121 117 
115 111 112 112 114 114 112 115 114 114 115 110 108 109 107 110 112 120 124 
124 126 125 122 119 121 122 121 121 121 121 118 116 118 119 117 113 109 108 
109 110 114 117 120 122 124 124 123 122 119 117 116 116 115 109 105 103 107 
110 112 111 113 116 118 118 115 114 115 112 105 106 109 110 117 119 121 116 
113 111 112 112 112 111 111 112 115 113 113 118 117 113 110 107 106 103 104 
107 110 112 113 113 114 115 112 109 107 107 112 118 121 121 122 118 114 112 
109 112 115 113 115 117 118 119 120 119 115 109 106 109 109 109 112 115 117 
119 123 126 125 125 122 120 120 117 113 107 105 100 101 104 106 106 108 112 
117 117 119 118 117 117 105 106 110 115 120 120 117 112 109 110 110 112 112 
107 107 111 112 107 105 110 109 106 102 102 103 103 102 107 110 112 116 116 
117 118 114 112 108 109 113 116 118 115 118 119 115 112 111 105 108 108 109 
110 111 115 115 116 113 108 106 106 106 108 115 116 117 116 118 117 116 115 
113 113 114 113 112 111 108 103 105 107 105 105 107 111 116 118 117 116 112 
111 105 107 109 113 118 119 116 112 109 110 110 110 110 108 105 105 107 104 
101 101 100 103 102 102 103 103 103 106 110 113 112 111 110 113 114 113 111 
111 111 110 114 113 114 116 111 108 107 105 107 102 102 103 104 107 109 110 
108 106 105 107 107 108 110 109 108 107 107 105 106 106 106 109 111 113 113 
111 108 108 108 107 103 102 107 113 116 116 117 116 116 120 103 103 102 103 
114 117 115 113 112 110 111 112 112 110 105 104 104 103 101 97 99 102 102 
103 106 107 107 107 112 112 111 110 107 107 107 109 110 111 109 108 109 111 
111 111 106 104 104 103 103 101 104 104 107 111 107 105 104 105 103 105 107 
109 105 106 106 104 102 99 99 97 97 100 101 105 109 108 106 109 110 109 
105 105 108 110 114 115 115 114 116 117 103 104 104 106 111 113 112 109 105 
103 103 106 108 108 104 101 101 100 100 98 96 99 102 106 110 110 108 107 
106 105 105 104 104 103 105 105 106 105 104 105 106 108 108 104 102 103 105 
105 105 102 103 103 107 110 108 106 103 100 99 99 103 107 107 106 103 102 
101 102 103 99 99 100 100 101 102 104 105 106 108 106 105 106 107 107 111 
111 112 112 110 108 105 106 105 107 106 109 107 104 101 102 104 105 105 102 
99 95 97 102 105 105 105 105 106 109 111 111 110 106 101 99 101 102 101 
100 102 103 103 105 105 105 103 104 103 103 99 99 99 100 101 100 100 103 
104 102 101 102 100 95 95 97 99 103 105 107 106 104 101 99 102 100 99 
98 102 99 99 101 102 104 105 103 101 103 106 107 109 110 108 112 113 115 
103 107 105 107 106 109 107 106 106 106 105 103 102 101 100 98 100 103 104 
104 102 101 102 105 109 109 106 98 98 96 99 101 105 106 106 103 103 105 
106 103 101 98 98 100 99 99 97 99 99 99 97 95 96 96 96 98 99 
95 93 95 96 97 98 99 98 99 101 104 105 106 105 104 103 102 101 103 
101 106 107 110 109 107 107 107 108 108 105 103 98 95 106 107 105 103 103 
106 102 99 100 99 100 101 104 104 103 101 101 102 101 101 103 105 105 106 
104 101 100 98 94 94 98 98 104 107 107 108 110 112 109 105 102 98 97 
99 98 97 99 102 99 98 95 96 92 92 92 94 94 93 93 94 94 92 
92 95 95 98 99 104 104 104 104 102 102 101 100 102 99 101 106 109 112 
110 108 106 108 105 101 98 92 90 109 108 106 103 100 96 91 89 90 91 
93 92 97 102 103 102 102 101 102 101 103 107 108 109 106 100 97 95 93 
93 98 102 109 108 103 101 105 106 105 102 98 94 97 97 97 95 98 99 
95 94 92 91 89 87 86 87 89 89 94 98 98 98 96 98 99 100 100 
102 102 100 98 99 100 99 98 103 97 95 98 102 106 108 111 113 113 108 
99 97 94 93 104 103 103 105 101 97 99 97 93 91 92 93 97 97 99 
95 97 95 98 100 101 108 108 107 104 93 88 88 87 90 98 103 107 104 
100 98 95 97 99 96 98 95 95 97 94 99 100 98 97 94 92 88 86 
89 91 90 89 90 94 97 97 97 96 97 101 101 101 99 97 96 96 97 
97 96 98 102 95 94 101 104 105 106 108 108 112 107 99 97 96 98 94 
95 95 98 96 94 94 97 95 94 95 98 96 96 96 93 93 92 95 98 
100 105 106 104 99 91 85 85 89 97 97 98 96 94 93 90 90 92 95 
95 95 94 96 98 99 99 101 100 99 99 95 89 89 89 93 94 91 92 
93 93 94 95 97 99 101 101 97 94 91 90 92 95 99 102 102 101 95 
93 98 100 101 103 106 106 108 102 94 93 92 93 90 91 91 91 88 87 
88 94 95 95 95 95 91 92 92 88 89 91 95 93 96 100 104 103 99 
94 89 86 92 95 96 95 93 90 89 92 93 97 101 102 101 99 95 92 
96 96 97 97 97 97 94 94 93 94 98 99 96 99 97 95 93 90 91 
90 92 93 94 91 90 92 95 98 101 102 103 101 97 98 100 101 98 99 
100 102 99 92 90 91 92 97 85 85 88 86 85 83 83 84 87 90 92 
94 92 92 88 85 87 86 84 86 91 99 99 99 94 91 87 87 89 95 
97 94 89 90 90 92 94 101 107 107 105 102 97 92 92 93 92 92 94 
92 91 88 87 89 95 97 94 90 88 88 87 90 89 90 90 94 97 94 
94 93 95 98 103 101 101 99 96 98 96 95 97 96 98 96 95 92 91 
91 92 96 89 88 89 91 88 87 85 87 88 90 90 89 88 86 82 83 
86 88 87 88 90 90 91 91 89 89 83 83 86 90 93 90 87 87 88 
92 95 100 105 107 106 101 96 91 87 88 90 94 96 94 91 91 87 90 
93 94 92 88 87 85 84 87 86 88 90 93 100 99 99 97 98 96 97 
98 94 93 90 88 93 94 93 94 94 93 87 85 86 89 90 90 91 92 
95 92 92 88 87 87 87 88 87 86 86 85 83 86 87 93 91 90 90 
90 88 89 89 89 84 84 85 88 89 89 86 84 83 94 98 102 101 103 
100 97 94 91 88 88 87 90 94 94 88 84 83 83 82 82 84 83 84 
80 78 77 78 83 84 91 96 95 95 93 95 93 93 90 89 89 88 88 
90 87 85 85 87 86 83 84 84 81 82 83 86 87 88 87 85 85 84 
86 85 85 84 85 85 86 86 87 89 91 90 86 87 88 86 86 86 87 
85 86 85 85 85 88 89 86 84 87 91 93 95 93 92 90 87 87 88 
90 91 89 88 90 90 87 84 83 79 79 77 79 82 79 77 76 76 81 
85 91 97 95 96 94 94 94 93 90 88 87 88 87 87 85 84 82 85 
82 78 80 85 90 89 89 82 83 82 80 81 81 79 78 78 77 80 80 
84 88 89 90 87 89 88 86 84 84 82 82 83 83 83 83 87 86 87 
86 84 84 83 81 82 81 83 82 85 86 85 85 85 87 86 85 82 88 
89 87 86 83 78 78 78 76 76 77 76 75 77 82 86 90 94 90 91 
89 88 89 89 87 85 82 84 85 84 79 81 81 83 82 83 85 89 90 
91 91 84 82 78 72 71 72 73 74 77 78 80 84 86 89 89 88 87 
88 89 90 88 84 80 79 80 81 81 84 85 85 85 84 81 84 83 80 
76 73 71 74 75 75 79 82 85 85 84 84 83 85 85 84 82 81 81 
80 79 80 80 82 78 77 80 78 82 85 86 83 84 83 81 81 84 86 
85 82 81 83 82 79 78 78 77 83 86 88 89 86 83 81 80 82 75 
72 72 74 74 73 76 78 81 87 87 90 88 87 87 86 88 89 86 84 
83 82 78 78 75 81 85 87 88 88 86 85 85 81 78 76 74 76 77 
76 76 77 77 81 84 87 88 87 89 85 83 83 83 82 80 81 81 81 
79 76 74 74 77 79 79 76 74 78 79 83 87 87 87 86 85 87 84 
79 73 72 75 84 89 88 88 83 81 79 73 76 76 70 68 70 70 71 
74 79 81 83 83 87 89 89 87 87 88 85 84 83 80 81 80 78 79 
82 86 90 89 89 90 87 81 78 76 75 74 78 79 77 75 76 80 79 
81 83 86 87 83 83 85 84 87 86 86 84 83 81 77 74 72 71 73 
73 73 71 70 74 80 84 84 83 81 84 85 81 82 78 74 71 74 85 
88 91 89 81 81 78 
