P2
#output from hocrtest
30 30
255
253 247 254 250 255 255 255 249 250 253 245 248 246 249 250 249 241 242 234 
222 240 244 240 248 240 246 244 242 245 255 252 252 255 252 253 253 252 249 
247 247 240 241 238 241 246 247 239 238 236 232 241 247 246 247 242 243 241 
240 239 239 250 249 249 249 253 250 244 239 237 232 230 230 229 233 236 240 
239 238 239 237 240 243 246 241 238 240 235 229 231 230 248 248 249 246 243 
239 235 231 232 227 224 222 224 227 231 233 230 232 231 229 228 229 232 237 
235 236 230 227 227 223 241 242 245 237 232 232 226 222 227 223 221 220 219 
224 226 225 210 210 211 216 220 220 227 230 227 225 222 222 222 215 226 227 
231 229 229 227 219 219 219 213 213 216 219 220 218 212 210 209 210 212 216 
214 217 217 212 214 215 216 220 225 205 203 202 201 202 204 206 212 211 203 
203 200 205 209 214 213 206 205 205 205 207 208 208 206 200 199 201 204 206 
206 197 197 197 196 193 191 186 194 195 192 193 191 200 203 206 209 199 196 
194 193 197 197 200 203 196 191 191 195 198 203 191 189 193 190 189 190 189 
189 187 187 188 192 197 197 199 197 195 191 193 194 197 196 197 200 196 189 
185 184 184 184 183 183 181 181 183 186 188 192 183 183 189 192 194 194 191 
188 183 174 180 185 194 193 194 194 187 180 178 180 181 180 179 178 178 176 
176 179 180 180 178 175 179 177 177 172 169 165 161 156 163 168 172 181 179 
180 177 175 171 169 170 171 168 164 167 167 167 174 180 171 167 163 164 166 
162 150 152 151 151 150 153 156 161 166 169 173 175 170 165 163 159 159 159 
161 163 162 159 161 163 160 161 160 161 159 154 148 149 150 149 149 147 148 
155 158 166 172 167 166 161 159 159 161 154 152 147 149 141 139 139 139 144 
152 153 152 153 150 148 149 142 143 141 145 151 154 156 160 153 152 147 149 
149 149 146 146 144 142 137 133 130 136 139 146 149 148 147 145 144 143 137 
136 142 144 146 149 147 146 139 139 136 141 141 142 132 132 132 132 128 127 
128 127 128 135 134 138 141 140 138 137 136 133 133 135 138 140 139 139 131 
130 130 131 132 129 119 121 123 125 124 119 118 118 120 127 128 134 140 137 
131 130 129 128 131 130 133 132 133 122 113 114 116 113 117 123 108 107 112 
113 108 107 108 109 110 109 112 120 126 126 117 123 129 123 122 127 126 123 
120 110 106 108 108 107 105 103 104 105 104 99 97 95 105 111 111 109 111 
110 111 112 112 113 113 115 112 118 120 120 112 107 104 100 101 107 105 108 
100 97 97 94 97 99 107 117 112 108 104 101 102 107 107 107 104 107 106 
110 105 111 109 103 99 95 95 99 104 100 91 91 90 90 92 95 94 101 
103 104 101 99 100 101 96 98 98 98 97 97 100 101 99 99 98 99 100 
101 99 96 86 86 85 83 79 81 80 82 96 97 97 92 92 94 93 92 
86 86 85 89 92 93 88 90 93 97 95 94 95 96 80 72 73 72 71 
74 77 77 85 83 85 83 83 81 82 76 67 66 71 84 85 89 83 81 
86 86 85 80 79 80 69 65 65 65 68 66 67 68 74 78 77 74 73 
76 72 71 63 60 61 69 66 72 76 74 78 78 74 70 67 66 66 64 
61 60 61 63 63 63 71 71 72 66 63 64 63 61 56 52 54 56 53 
59 58 60 62 62 62 62 62 65 56 53 51 51 48 50 50 54 59 60 
63 60 59 57 54 53 55 51 51 51 47 53 58 60 57 58 60 62 65 
64 36 36 42 43 44 45 41 43 43 43 46 52 52 43 42 45 47 50 
50 50 48 44 47 51 54 55 56 61 62 58 31 30 27 30 32 31 32 
26 24 34 38 46 45 40 41 39 51 48 46 45 41 39 39 38 37 39 
37 38 39 34 30 31 30 30 30 31 28 22 21 21 35 38 30 31 36 
35 37 29 30 25 26 28 27 29 30 30 25 21 23 20 34 34 34 32 
25 21 18 15 13 20 23 24 20 25 27 24 28 27 22 18 19 21 23 
23 23 21 23 20 19 17 
