P2
#output from hocrtest
50 50
255
247 246 253 244 255 255 255 252 254 249 251 250 252 251 249 243 243 238 237 
226 237 236 230 245 245 250 252 251 255 255 255 251 252 255 251 252 248 247 
249 249 249 248 251 255 255 255 255 251 250 232 245 247 252 248 252 253 255 
251 249 245 246 246 246 245 245 242 241 235 238 236 238 237 237 242 245 248 
250 253 255 255 255 253 253 254 251 249 247 244 247 248 247 248 250 253 255 
255 252 250 254 250 242 243 246 249 251 252 250 248 246 242 236 238 240 242 
242 240 238 235 236 237 240 240 242 243 241 244 246 249 252 252 250 247 243 
244 244 239 237 238 238 235 241 243 247 250 252 251 250 251 249 242 240 243 
243 243 246 243 241 240 239 238 235 237 238 235 233 234 231 231 229 230 230 
228 234 234 233 237 237 240 242 244 244 240 236 235 229 230 233 232 235 236 
237 236 240 241 245 247 244 247 249 249 234 235 236 233 233 232 231 230 232 
234 235 235 236 234 230 230 228 228 228 227 229 230 234 235 232 232 230 232 
232 235 238 237 237 235 229 225 224 225 223 231 236 238 239 233 236 236 233 
231 229 230 229 228 229 225 226 224 226 228 230 232 235 233 232 230 231 228 
224 221 224 223 225 227 228 233 230 229 227 231 228 232 238 240 240 240 235 
231 226 220 221 227 231 235 234 233 232 232 229 228 224 221 224 221 226 223 
221 221 224 227 230 229 228 228 229 225 221 216 213 211 215 218 219 224 223 
221 218 221 222 225 220 224 226 226 233 234 234 233 231 223 222 222 224 228 
224 218 220 220 220 216 215 219 220 223 224 228 226 222 221 222 221 222 221 
225 225 222 214 211 209 211 212 215 218 217 214 213 209 215 217 219 217 220 
218 219 225 229 229 230 227 223 225 224 225 222 215 214 212 212 213 210 213 
216 218 217 223 221 216 215 217 213 210 211 216 221 224 220 212 208 205 206 
209 209 214 213 212 212 210 209 212 217 219 220 219 218 220 220 224 226 222 
221 222 221 219 214 210 212 208 207 208 209 210 216 216 216 213 207 208 206 
205 203 203 212 216 216 216 215 209 200 200 200 201 204 206 212 214 213 208 
211 213 218 221 217 217 215 214 212 215 212 209 207 209 209 210 212 210 208 
203 201 201 200 204 211 207 206 204 198 194 198 202 197 200 206 209 211 212 
212 202 195 196 196 198 201 203 208 209 206 205 206 211 214 215 212 213 213 
212 210 215 213 206 203 203 201 203 203 202 198 200 196 195 194 195 194 198 
195 191 190 193 195 201 197 197 199 203 204 204 204 200 194 194 195 197 197 
200 205 205 201 203 207 209 209 209 203 203 201 201 205 206 204 204 201 200 
202 200 202 197 196 197 194 193 192 194 193 188 188 187 189 195 199 198 195 
198 196 196 196 197 198 197 193 192 192 193 191 194 198 199 198 197 199 202 
202 200 194 198 197 198 195 190 191 193 195 198 200 202 199 194 197 198 194 
190 188 188 190 192 193 190 193 196 194 189 190 192 193 191 191 191 191 191 
189 189 187 186 186 188 190 192 191 190 193 196 197 192 197 198 197 191 189 
189 191 194 193 193 193 190 192 190 190 190 185 185 187 188 190 190 189 187 
185 187 187 182 178 180 183 181 183 186 186 186 184 183 183 180 180 184 188 
190 189 189 194 194 191 192 191 191 183 181 181 180 184 189 189 189 190 190 
192 186 185 183 178 181 185 186 191 183 181 174 178 179 181 178 177 179 176 
177 178 177 177 180 180 181 176 175 176 176 181 184 188 186 189 188 188 187 
186 182 176 174 175 175 175 176 179 180 181 184 185 181 175 171 172 173 175 
178 179 184 184 173 172 176 177 177 178 179 173 171 174 166 170 170 170 170 
168 167 171 171 174 176 181 183 183 187 184 182 182 176 172 171 169 169 173 
176 175 178 176 179 178 174 174 172 172 171 170 169 167 178 178 171 168 168 
169 170 171 171 168 165 167 161 164 166 167 167 165 165 165 168 169 172 175 
177 178 177 173 177 175 172 168 164 165 165 170 172 169 166 173 173 172 174 
173 171 170 166 166 166 163 172 168 162 160 166 167 167 167 170 168 164 164 
161 162 164 165 170 168 166 168 166 164 164 167 171 174 172 168 169 166 166 
168 165 165 164 166 165 164 165 168 168 169 169 169 170 171 167 167 166 172 
155 153 154 158 156 153 153 156 158 157 155 157 158 162 161 163 166 170 170 
166 161 158 157 159 163 164 163 164 162 161 165 165 164 162 162 159 160 163 
161 164 161 163 164 166 169 170 165 162 163 163 149 150 152 155 153 153 150 
148 151 152 143 150 151 156 156 159 159 161 162 161 156 156 156 156 157 156 
157 157 155 158 161 164 160 155 154 151 151 151 153 159 159 161 159 161 159 
156 155 156 161 165 143 144 147 151 150 149 147 145 144 145 144 149 148 152 
157 160 155 156 158 159 156 154 155 155 151 150 149 151 151 156 157 156 154 
149 146 146 145 143 143 144 142 150 156 155 154 152 147 147 147 143 140 141 
141 147 146 145 142 140 138 138 140 142 141 145 147 146 144 144 146 151 152 
151 146 147 150 150 149 151 151 150 151 147 145 141 139 140 136 140 141 140 
133 137 148 150 151 146 143 141 140 140 138 138 141 140 140 139 138 135 135 
139 135 139 140 143 145 142 140 141 141 144 149 151 150 154 157 147 145 146 
144 146 144 137 135 133 134 139 141 143 143 140 137 141 143 146 145 145 144 
143 140 139 130 127 129 132 132 134 134 131 127 132 130 135 137 139 142 139 
135 131 134 138 146 146 148 153 154 147 144 143 142 140 137 130 130 131 131 
133 135 139 138 137 133 130 131 131 135 134 136 135 137 135 128 127 122 126 
127 129 128 128 127 130 132 135 134 134 135 133 128 125 126 130 138 141 142 
144 144 140 141 137 132 135 133 135 133 134 134 130 131 131 129 126 125 126 
125 123 125 126 127 128 132 129 121 119 118 126 126 126 127 126 125 127 129 
129 128 126 125 124 123 120 121 121 125 128 127 127 127 124 130 130 128 131 
131 131 133 134 135 132 130 128 126 125 123 124 122 122 124 124 122 121 124 
124 116 114 114 120 120 122 123 124 125 126 131 129 127 122 122 125 130 125 
122 121 120 121 120 120 119 119 122 123 119 119 123 122 120 123 124 120 124 
119 117 120 119 113 117 114 117 117 116 118 124 126 112 113 111 109 107 104 
108 111 117 119 122 124 122 118 116 117 118 118 118 116 115 116 119 121 119 
115 116 116 114 116 117 120 122 124 127 122 121 119 118 116 115 113 112 110 
110 112 108 109 111 115 109 107 106 106 106 106 105 104 108 110 111 115 112 
107 104 109 111 109 108 108 109 109 114 113 117 114 112 111 111 112 112 116 
118 117 117 115 114 111 112 110 111 114 115 115 111 110 107 104 100 101 104 
99 98 101 102 101 101 100 103 105 104 106 107 104 102 105 107 108 102 104 
103 103 102 103 106 105 107 106 109 111 112 113 111 106 103 99 96 93 95 
99 101 102 108 109 107 104 103 99 94 90 100 97 94 95 97 97 97 98 
101 103 105 109 107 104 104 102 102 102 96 98 100 100 99 96 97 97 100 
100 100 103 103 102 100 96 94 93 91 88 85 83 87 92 91 97 97 97 
98 96 89 90 91 89 91 89 91 95 97 98 98 99 99 101 103 105 107 
108 105 104 98 99 99 95 92 90 89 92 94 95 92 94 93 91 92 93 
93 93 93 91 91 80 80 81 82 88 94 97 98 96 89 89 93 91 88 
89 89 88 91 94 97 96 97 95 95 99 104 100 100 100 99 98 94 88 
82 81 83 90 89 89 87 84 81 80 85 85 87 92 91 89 83 82 81 
76 78 84 86 89 88 89 91 92 86 85 85 86 83 82 85 90 93 94 
92 92 94 92 92 91 93 94 92 92 89 85 75 73 78 81 86 86 85 
76 75 74 76 76 76 80 80 82 86 86 85 79 76 80 78 83 85 89 
90 95 81 84 87 90 89 89 92 93 91 89 90 87 91 90 85 80 79 
77 78 79 81 79 73 66 73 76 79 81 80 74 69 70 73 74 74 77 
81 83 86 85 85 83 80 84 83 85 86 87 82 82 67 70 72 77 79 
82 84 82 82 78 79 77 85 86 82 78 76 76 77 77 75 73 74 74 
75 76 75 76 76 73 72 72 74 74 74 76 79 81 85 80 79 82 84 
87 85 85 84 84 80 73 61 66 67 73 80 79 79 78 78 78 77 79 
79 84 84 79 74 76 77 75 76 76 78 77 77 73 68 67 65 63 62 
69 70 73 77 78 76 78 79 76 76 77 76 76 77 79 81 85 81 83 
63 57 60 70 75 73 71 68 68 69 71 66 67 68 72 72 68 65 60 
62 65 69 75 74 69 64 58 57 60 59 63 69 69 70 75 74 68 63 
63 59 58 59 63 68 69 71 76 77 76 78 52 54 56 60 62 63 60 
58 57 59 58 60 61 61 64 65 66 62 55 55 59 61 66 66 64 59 
54 52 50 54 59 66 66 67 67 70 69 59 55 54 55 55 60 62 62 
64 69 66 65 65 52 53 57 59 56 56 55 52 54 55 54 55 57 58 
60 59 55 55 53 53 55 58 61 58 54 56 56 55 56 61 62 64 64 
63 63 61 57 54 52 50 58 61 63 62 62 63 63 63 61 62 53 51 
49 47 48 46 52 49 50 47 48 50 54 53 53 53 52 51 48 45 44 
43 45 43 48 52 54 54 56 55 54 56 57 55 51 51 50 51 53 54 
58 61 60 57 57 56 55 55 55 54 49 48 48 48 49 45 49 48 47 
47 47 46 48 50 49 48 49 47 45 41 39 37 41 41 43 45 45 41 
39 35 38 47 50 47 44 42 43 42 48 49 52 55 53 46 47 52 52 
54 53 52 40 40 38 37 39 40 41 43 44 43 44 41 39 40 41 42 
41 40 39 38 37 40 40 39 37 39 40 35 31 32 33 38 42 44 42 
43 41 44 48 50 47 45 43 38 41 45 44 44 44 45 34 36 33 33 
35 36 39 39 41 40 37 36 34 35 38 39 32 31 31 37 37 37 37 
38 30 28 25 25 25 27 27 32 34 35 37 38 36 36 41 42 40 37 
33 29 34 41 42 40 32 27 36 38 36 33 35 35 35 31 30 26 30 
30 27 27 26 27 27 21 19 19 25 30 28 28 26 23 22 22 25 27 
28 28 27 28 27 32 31 27 26 26 31 30 25 26 31 36 36 34 29 
28 30 31 32 27 29 32 31 26 24 24 21 18 20 21 20 19 20 16 
12 7 10 16 19 21 18 17 17 12 15 16 20 25 27 31 31 33 34 
29 28 24 25 23 23 26 27 31 29 27 21 18 17 16 20 20 18 17 
21 18 18 20 18 14 14 14 18 19 20 17 12 7 10 13 13 14 14 
14 17 17 18 17 20 23 25 28 26 24 26 25 24 26 24 21 23 25 
28 29 29 26 25 22 16 15 16 17 16 11 13 13 11 17 18 17 16 
16 16 15 14 14 13 13 14 13 10 6 2 11 15 16 17 15 16 17 
14 15 14 17 19 17 17 19 20 18 17 18 21 23 23 23 25 24 13 
14 17 19 16 9 7 8 10 12 15 16 13 11 11 11 13 15 13 8 
7 4 4 5 8 10 14 14 15 15 16 17 14 13 13 16 20 12 13 
16 15 15 16 17 19 20 21 21 22 26 
