P2
#output from hocrtest
40 40
255
246 247 249 246 250 249 248 247 248 247 253 252 255 250 253 248 250 254 244 
227 238 245 240 253 252 255 253 254 255 252 255 241 246 248 250 251 255 250 
250 253 246 248 249 250 250 249 246 245 242 243 248 250 251 247 247 248 250 
249 246 238 243 246 248 252 255 255 253 255 255 251 248 241 243 245 247 249 
249 248 249 250 250 252 251 252 248 245 244 242 245 245 248 247 243 242 243 
241 235 233 235 235 239 241 248 247 252 252 253 254 252 246 242 239 239 245 
244 243 240 240 240 237 249 248 245 243 234 232 235 234 238 239 239 236 234 
239 240 238 230 228 229 228 232 234 238 244 245 241 242 243 242 235 235 236 
239 243 239 236 238 241 240 239 231 234 236 230 223 223 222 226 229 231 234 
229 229 231 230 232 226 227 228 228 228 227 229 230 228 226 229 232 232 223 
223 225 228 232 233 233 235 239 239 240 226 225 227 223 220 220 222 225 226 
228 229 225 224 223 222 222 219 220 222 223 224 225 227 231 228 224 222 220 
219 215 216 218 223 227 225 223 222 225 223 226 230 229 228 223 219 221 220 
217 218 220 220 218 220 219 218 216 213 221 218 221 224 225 226 229 230 224 
222 219 216 214 215 216 219 222 221 221 219 220 217 218 228 230 232 232 227 
224 220 210 212 212 218 217 218 219 218 221 219 219 214 214 215 215 220 220 
220 220 216 211 210 209 211 212 213 213 213 209 204 203 203 205 210 216 219 
219 216 217 214 211 210 210 213 209 206 209 207 211 211 206 204 203 202 205 
203 200 203 206 206 202 201 205 207 213 211 211 209 204 201 199 196 196 202 
206 208 208 206 209 209 208 203 203 207 206 204 195 197 200 197 193 192 194 
194 193 195 201 204 204 203 199 200 203 207 207 201 196 194 194 192 189 191 
193 198 196 198 197 199 202 200 200 198 199 200 202 204 201 197 195 191 187 
193 192 191 191 190 194 195 191 195 192 196 200 203 201 196 193 194 194 191 
189 188 189 186 182 190 193 194 198 197 197 197 194 194 196 198 193 190 194 
187 185 186 191 190 188 186 187 186 183 185 191 184 188 192 192 192 191 187 
184 185 185 183 179 175 173 178 185 188 187 188 187 190 189 186 189 191 188 
185 188 181 174 179 185 186 183 182 181 178 181 181 176 180 185 185 185 189 
184 177 178 179 178 174 171 169 177 180 182 184 184 187 185 186 186 184 180 
182 178 180 181 175 171 172 172 174 179 177 177 176 172 168 170 173 176 178 
176 175 175 173 173 177 175 174 172 175 175 176 181 178 175 171 178 180 179 
178 179 176 170 174 177 174 171 172 169 171 175 174 174 172 172 169 168 167 
171 173 173 170 168 165 166 166 164 167 164 162 164 164 168 172 173 171 171 
174 173 175 172 173 172 173 168 166 163 165 165 173 171 170 170 167 167 167 
163 162 163 165 168 167 167 160 158 156 156 162 164 167 163 160 166 165 165 
161 159 162 161 162 162 157 156 161 158 156 155 157 156 162 161 157 156 155 
158 159 157 156 155 159 162 159 158 154 153 150 151 153 154 164 162 156 154 
155 159 159 156 155 155 152 150 149 148 151 150 149 151 154 154 154 154 152 
151 148 153 151 145 146 152 151 155 157 156 155 153 148 151 147 140 158 157 
150 150 150 156 153 152 149 145 146 145 145 146 148 147 149 149 150 145 145 
145 141 139 141 142 144 144 146 149 149 147 147 147 146 148 145 145 143 142 
152 152 145 146 147 151 152 149 145 138 137 139 140 142 141 140 140 140 142 
140 140 139 138 140 140 137 136 137 140 141 144 142 139 134 136 137 137 140 
138 139 146 142 136 140 144 145 146 145 141 130 127 128 126 127 131 129 129 
130 130 135 134 136 134 138 141 140 141 141 142 143 142 139 136 128 128 132 
134 132 136 134 135 132 128 133 140 138 134 128 122 118 120 119 120 121 125 
125 125 125 127 129 127 128 125 125 125 129 129 135 133 134 136 137 135 130 
126 127 130 131 133 135 120 115 115 120 126 127 124 117 108 110 109 115 117 
116 116 116 118 120 122 120 128 126 124 125 126 130 127 128 128 132 131 129 
123 121 117 119 129 129 129 131 115 112 111 117 121 121 116 109 108 105 106 
113 114 114 113 111 112 112 113 112 116 120 121 120 122 123 123 125 122 123 
119 112 108 115 109 113 117 120 124 124 109 106 104 108 109 106 104 106 105 
102 102 105 106 108 111 112 110 111 110 110 111 111 113 115 117 114 116 122 
114 117 113 107 106 109 108 111 109 108 109 109 102 103 102 104 106 106 99 
101 102 100 92 102 102 100 101 105 103 103 105 106 103 103 103 105 105 102 
109 111 110 113 113 111 108 106 103 100 99 97 101 115 100 99 99 101 101 
102 96 98 101 100 92 93 92 92 93 93 92 90 90 90 88 95 97 99 
99 101 102 103 102 101 102 104 104 101 97 95 90 88 87 91 94 98 99 
99 98 101 96 92 89 89 87 85 82 81 88 85 82 84 88 85 84 86 
90 98 100 96 94 93 90 90 93 96 97 95 96 89 83 82 83 87 94 
93 94 93 92 94 92 89 86 86 82 82 78 76 80 80 76 79 82 81 
80 80 91 95 96 92 91 87 87 85 90 92 97 95 93 90 87 86 87 
91 83 84 86 90 88 87 87 85 80 77 77 81 80 77 82 78 76 76 
75 81 80 76 80 82 86 88 88 87 87 82 85 87 86 87 85 83 82 
80 83 83 68 71 77 83 82 85 81 71 71 75 70 74 78 80 79 79 
79 76 75 77 76 72 74 80 86 86 86 86 82 78 78 72 73 75 72 
71 73 78 81 86 65 67 70 76 74 73 72 63 65 61 60 60 63 66 
71 70 70 69 68 67 69 66 69 72 75 72 67 62 66 68 72 73 74 
74 73 71 72 68 66 68 65 66 63 65 62 59 59 57 55 57 57 58 
61 60 62 69 68 69 71 63 62 58 59 61 61 63 59 59 58 62 61 
63 64 64 63 62 62 61 61 57 62 60 55 54 52 53 57 57 58 56 
54 59 60 58 57 59 62 65 68 63 62 59 53 56 53 50 49 50 51 
56 58 58 59 60 59 59 59 60 61 61 61 57 52 45 47 51 58 57 
54 51 54 56 55 51 51 51 54 53 52 52 52 51 51 47 45 40 45 
44 44 51 50 48 52 54 56 59 59 59 60 59 51 49 45 37 36 37 
41 43 48 49 52 53 50 48 48 49 51 47 48 46 45 45 48 46 45 
39 40 43 41 44 44 44 48 53 53 52 52 52 55 57 40 41 41 37 
35 34 34 36 44 45 46 47 44 42 43 40 38 37 39 38 38 39 39 
33 33 33 33 33 35 34 33 35 39 41 44 43 42 42 41 41 36 37 
37 35 34 32 36 34 33 35 41 41 38 37 36 32 29 27 27 33 32 
30 31 35 32 28 27 26 27 30 31 28 28 30 34 33 35 36 38 37 
31 29 32 29 29 28 32 29 29 33 36 35 34 29 24 21 19 18 21 
28 30 26 27 29 26 19 20 16 18 21 22 23 23 25 28 28 27 30 
35 35 22 25 26 27 27 27 27 25 19 24 31 25 24 19 12 17 16 
21 24 27 28 24 22 22 19 19 17 12 12 13 15 15 15 18 21 25 
27 28 28 23 
