P2
#output from hocrtest
40 40
255
246 245 253 253 255 253 250 246 244 245 245 247 250 249 251 254 250 244 236 
216 242 240 235 244 243 255 251 252 251 248 249 242 244 245 245 251 250 250 
249 255 245 248 250 250 251 249 245 243 237 237 237 243 244 246 247 250 247 
240 233 226 239 240 240 242 248 252 252 253 249 245 243 239 239 239 244 248 
248 248 249 252 245 249 248 247 247 246 245 241 237 237 237 240 241 243 246 
241 235 225 230 228 234 237 239 243 242 246 249 253 247 241 239 236 234 236 
240 246 244 242 240 239 243 245 246 244 238 237 234 233 236 236 235 235 235 
237 239 239 230 223 224 225 229 232 237 241 240 234 235 240 238 229 234 235 
233 235 238 241 241 239 237 236 231 233 234 232 222 223 224 225 226 225 223 
222 226 227 227 232 227 225 224 226 223 221 225 228 227 225 225 228 230 225 
225 226 226 227 228 230 230 235 237 239 229 229 228 221 217 218 219 218 218 
219 222 223 223 226 221 222 222 223 221 221 222 220 222 223 223 223 218 215 
217 218 222 223 225 225 223 222 222 221 220 224 230 229 227 220 215 214 213 
209 208 211 216 217 220 221 219 214 219 221 223 222 222 220 219 218 221 220 
215 211 210 210 212 216 217 218 218 218 217 216 214 218 229 229 229 226 222 
219 212 204 204 211 218 218 219 222 220 223 219 220 218 219 221 213 215 212 
215 214 210 204 206 206 209 210 212 215 215 212 207 206 206 208 207 219 220 
219 215 214 209 207 206 210 215 215 214 216 216 213 211 208 205 204 208 208 
207 202 204 204 201 197 197 203 204 207 207 214 214 207 201 198 193 194 204 
212 212 209 206 205 202 202 202 204 209 208 196 193 197 198 198 198 197 197 
196 196 205 204 201 198 194 192 196 203 205 208 198 194 196 200 197 192 192 
194 200 201 202 202 200 199 194 191 193 191 199 204 197 194 189 189 185 189 
194 196 192 193 197 196 195 190 187 187 190 197 200 200 195 193 196 197 194 
192 193 194 188 184 189 193 189 192 190 192 192 194 198 197 195 191 188 193 
188 187 188 195 195 192 192 191 191 183 182 180 177 182 191 194 194 195 189 
188 189 190 189 191 181 183 185 184 182 181 184 187 192 194 195 194 193 190 
185 188 183 183 184 184 183 180 181 178 176 175 177 175 178 184 188 190 187 
184 180 180 175 176 172 170 182 186 189 183 181 182 185 188 189 186 183 177 
176 176 185 191 186 178 175 174 175 175 174 173 172 171 173 177 179 183 187 
183 174 173 170 171 167 168 167 169 179 181 178 177 178 173 171 178 179 181 
178 175 174 174 176 179 181 176 173 168 167 165 171 173 175 173 176 180 180 
181 179 183 171 166 164 160 160 158 156 154 164 167 165 167 170 169 168 169 
170 169 172 170 168 169 169 169 170 166 166 164 164 163 165 172 170 169 171 
172 169 166 162 170 167 164 156 152 153 153 157 161 165 163 163 167 167 167 
163 159 159 161 161 162 156 159 161 160 157 158 160 160 160 153 153 152 152 
157 158 156 154 149 150 151 154 153 153 146 143 148 151 155 166 166 155 152 
159 164 161 155 155 155 155 150 150 151 154 153 150 154 158 157 155 152 151 
152 149 150 148 144 143 144 144 145 148 148 148 144 143 143 140 139 156 156 
150 150 154 159 157 152 151 149 149 142 141 146 144 145 145 148 151 149 147 
145 145 148 148 146 142 141 144 146 149 144 141 141 141 141 139 141 141 142 
148 146 142 142 150 154 154 148 144 138 137 136 137 139 137 134 138 145 148 
148 143 142 144 147 149 145 135 135 137 138 139 138 135 132 134 135 129 126 
125 128 146 141 136 140 148 155 153 151 148 133 131 131 129 131 132 129 130 
134 133 134 129 136 135 137 140 138 136 134 133 134 134 131 131 127 123 121 
123 120 127 128 139 135 130 129 136 140 135 129 118 121 127 130 126 123 126 
124 124 124 124 124 125 126 124 122 128 129 125 125 124 125 128 128 127 124 
119 120 123 125 128 129 121 118 115 116 120 126 126 121 115 113 113 119 123 
122 121 119 115 117 118 118 123 124 122 121 126 129 127 123 123 126 126 124 
122 122 118 118 125 125 126 128 109 109 110 113 118 123 123 124 115 108 104 
114 112 114 112 110 110 110 106 107 104 121 121 122 124 125 123 124 122 123 
120 116 113 113 108 106 103 109 120 123 101 104 106 110 114 111 110 112 109 
104 99 100 101 104 105 106 108 110 105 105 107 111 114 118 120 118 120 120 
115 117 115 111 109 108 107 105 103 105 107 107 97 97 98 102 103 106 103 
102 105 101 91 94 100 98 97 100 101 104 107 110 101 105 107 108 110 111 
114 111 107 111 112 113 108 104 102 100 98 102 107 117 106 105 98 98 97 
97 95 93 96 97 88 93 95 94 93 92 93 92 92 96 93 100 99 102 
104 102 106 105 104 102 102 102 100 99 94 95 93 95 96 98 104 105 102 
96 94 92 89 88 86 86 83 87 86 83 88 87 83 86 87 85 87 89 
89 97 98 95 96 97 93 95 94 94 93 93 92 90 88 88 89 92 91 
91 90 89 91 92 90 86 81 82 85 86 85 82 84 84 80 81 82 79 
77 78 83 86 91 90 99 96 92 91 89 90 89 87 87 84 83 86 87 
93 75 75 81 86 84 84 84 80 74 74 78 83 83 87 89 80 77 78 
80 81 77 74 74 78 83 91 97 96 92 86 87 90 88 87 85 86 83 
87 85 82 67 66 69 75 77 73 71 66 63 64 61 69 75 80 80 78 
74 71 75 78 74 70 72 84 84 90 92 85 82 80 79 76 81 83 85 
87 87 93 93 99 64 63 64 69 68 61 62 60 59 55 54 58 60 62 
64 67 63 65 67 68 68 68 69 73 79 77 70 65 65 66 71 73 79 
82 82 82 82 80 76 76 65 63 62 62 63 59 59 56 54 51 52 56 
58 57 58 62 59 60 61 61 61 60 61 64 66 66 64 61 60 59 63 
63 65 65 67 66 63 65 61 59 67 65 61 60 60 58 59 60 58 58 
54 56 55 55 58 53 57 58 60 61 61 58 54 54 59 62 59 55 56 
58 60 59 57 60 62 61 64 66 66 68 64 59 51 46 45 53 56 56 
55 54 53 54 52 49 49 49 51 50 45 46 49 47 47 50 52 48 50 
44 44 47 54 47 49 53 56 63 63 64 64 64 51 49 37 29 27 26 
31 37 45 48 51 52 47 42 45 43 44 43 45 42 42 44 48 49 49 
43 42 41 40 44 46 47 48 52 52 52 53 52 53 55 43 39 30 22 
20 25 28 31 37 42 45 47 44 39 39 39 38 38 36 36 38 40 40 
40 40 38 36 36 36 38 40 39 44 44 48 47 51 50 47 46 32 37 
29 26 25 25 28 27 29 33 45 44 43 39 38 37 34 33 28 31 32 
30 35 42 39 31 30 26 31 30 33 29 33 33 36 37 39 37 36 35 
28 27 22 20 21 23 25 26 28 31 36 45 43 35 30 26 21 19 20 
23 25 25 30 34 34 31 25 18 20 21 23 17 21 23 25 25 21 25 
29 32 25 27 23 19 21 23 23 21 19 25 32 34 33 30 26 22 18 
16 20 22 24 24 26 27 25 23 19 15 17 15 14 13 15 19 22 23 
21 19 14 13 
