P2
#output from hocrtest
70 70
255
247 242 251 250 255 255 255 253 253 254 255 255 255 255 254 252 243 243 239 
227 251 248 243 251 248 249 247 243 252 253 251 246 248 253 251 250 251 252 
250 249 240 244 244 250 254 255 251 249 248 242 246 253 255 246 247 252 255 
255 254 239 254 253 247 243 250 252 238 244 247 251 247 245 250 250 254 254 
254 255 253 253 253 255 255 255 254 251 247 243 244 243 252 251 251 252 250 
246 245 243 247 251 248 247 248 252 250 250 250 250 249 249 243 243 245 250 
253 255 253 250 248 247 250 253 255 253 252 253 254 255 254 248 251 250 245 
244 246 246 240 240 238 237 246 246 248 251 252 250 249 252 250 245 248 251 
253 253 253 252 249 246 243 242 246 251 255 252 246 242 242 243 244 248 247 
246 246 246 245 247 248 246 248 246 245 245 244 248 250 250 251 251 251 249 
251 250 251 252 253 252 249 251 250 247 246 244 241 239 238 242 242 241 240 
242 246 248 249 250 249 247 245 244 243 241 246 246 250 251 251 250 245 243 
239 237 241 243 246 249 244 243 243 243 242 245 246 245 245 241 240 240 238 
237 238 240 241 241 243 244 245 246 248 248 248 250 251 252 250 250 250 248 
242 240 239 238 239 242 241 240 240 240 241 240 238 243 248 249 249 250 252 
247 244 235 236 239 243 246 246 248 247 248 242 245 244 241 241 239 239 240 
240 242 241 241 240 239 240 239 243 243 241 239 235 233 238 239 242 245 246 
247 244 243 244 243 242 244 247 247 249 251 248 244 240 236 234 234 235 238 
237 232 234 234 234 233 232 234 239 241 242 244 243 238 235 236 235 235 239 
243 244 242 240 243 244 250 244 243 241 239 236 233 233 233 233 233 231 234 
237 236 241 243 243 242 242 240 244 243 248 246 242 240 236 235 234 231 232 
236 242 243 243 245 243 240 235 234 232 235 239 240 238 236 231 230 228 231 
234 236 241 238 237 237 232 231 231 232 234 239 240 240 239 238 239 240 239 
239 241 239 239 233 231 231 229 229 230 231 233 234 237 238 241 242 239 240 
240 239 238 241 240 240 240 237 235 231 231 229 226 227 231 235 238 239 236 
234 232 231 232 233 236 236 235 235 232 231 231 230 232 236 237 235 235 232 
229 228 227 230 234 238 239 238 237 232 230 231 233 230 234 235 232 227 226 
227 225 224 226 228 228 230 232 235 237 236 235 236 239 238 237 233 234 232 
232 229 231 230 229 226 223 222 227 231 233 232 233 229 228 229 230 230 233 
234 233 234 232 233 233 230 228 228 233 231 230 229 223 218 217 226 230 234 
238 236 234 232 233 233 232 231 232 229 228 225 225 227 229 229 225 225 229 
232 232 231 228 228 228 227 228 228 230 226 225 223 224 223 226 226 227 226 
226 224 229 232 231 231 231 228 227 229 229 230 232 231 232 235 234 233 232 
228 224 223 229 229 229 227 221 217 218 221 229 232 236 235 234 236 235 234 
228 226 226 226 224 222 220 220 225 225 223 226 229 230 229 224 223 223 223 
227 229 229 227 224 220 217 216 217 220 220 221 219 223 224 230 231 230 228 
231 231 231 232 230 232 230 225 224 223 225 226 224 223 223 224 226 227 227 
226 221 222 220 220 224 226 224 228 230 232 232 230 222 223 223 221 221 222 
221 221 222 225 226 225 226 226 229 228 223 222 225 227 229 230 228 225 221 
220 214 216 219 219 222 225 222 224 226 226 227 231 230 231 232 230 227 231 
226 221 218 218 222 224 225 222 221 219 221 220 222 225 219 220 219 222 224 
226 224 224 224 227 230 223 218 219 218 219 220 219 215 214 213 214 215 217 
221 225 230 229 226 225 227 228 226 227 227 221 219 218 212 213 217 222 221 
221 220 224 222 223 224 225 230 232 232 231 228 228 223 220 217 216 217 220 
223 221 223 221 225 224 223 223 223 224 224 223 221 219 220 223 223 224 224 
221 219 218 215 216 215 215 212 210 210 210 210 210 213 217 222 223 223 222 
219 220 220 218 218 217 214 208 204 211 212 216 216 216 217 219 215 216 217 
219 220 221 219 222 223 224 225 219 212 212 216 222 222 223 225 227 223 224 
223 222 222 221 225 222 218 219 219 217 218 219 222 224 219 215 213 211 209 
211 209 208 208 205 204 204 207 212 213 217 219 219 218 220 219 217 215 215 
209 203 203 208 209 210 211 215 218 219 216 214 213 213 215 213 213 214 216 
217 216 212 212 215 215 218 219 220 221 218 221 220 222 220 220 217 218 218 
213 215 214 213 212 214 216 217 215 213 210 208 206 207 209 208 206 203 202 
202 203 208 206 215 215 212 211 214 216 214 213 210 203 203 203 207 209 209 
211 212 211 214 216 217 216 214 212 208 208 209 212 215 214 212 212 214 212 
215 216 218 221 224 213 215 217 216 212 211 210 210 208 211 207 208 207 208 
210 211 212 212 210 206 202 202 208 208 206 202 201 201 202 207 209 213 213 
209 209 209 209 204 201 201 198 201 203 205 208 206 205 207 207 206 208 213 
212 213 213 205 203 204 207 208 207 207 207 210 211 214 215 215 212 213 215 
214 211 208 208 210 207 207 208 208 204 205 205 201 199 204 202 200 199 197 
195 194 206 209 209 205 205 200 199 203 206 208 209 206 207 203 204 203 205 
205 200 199 202 207 207 205 207 210 205 203 204 209 210 211 211 201 199 200 
202 205 203 198 197 202 206 212 216 219 215 210 211 212 211 209 205 206 205 
204 204 201 201 201 204 205 203 202 204 200 197 199 196 199 206 212 211 208 
205 200 199 201 205 204 208 211 214 212 213 212 211 205 202 197 199 201 203 
202 205 207 205 203 200 199 200 202 202 195 193 194 198 197 198 197 196 199 
203 208 209 213 211 209 208 208 206 205 203 203 201 198 200 198 205 206 206 
208 206 203 203 200 199 200 200 204 203 211 209 204 202 199 196 197 195 195 
198 200 201 208 208 210 211 202 198 196 196 197 198 198 200 201 202 203 200 
198 200 204 201 197 193 192 193 193 197 197 196 199 203 205 206 207 209 212 
207 207 205 204 202 202 202 205 205 204 204 204 202 200 198 198 198 196 198 
198 199 201 205 209 209 205 201 200 199 198 199 197 196 196 198 204 208 208 
208 204 199 197 194 191 188 190 194 194 196 197 199 199 197 202 199 193 191 
189 188 193 195 196 199 197 199 201 202 205 207 206 205 207 202 198 195 191 
191 193 195 198 200 201 199 196 192 194 195 196 197 195 198 199 203 205 209 
201 198 198 192 194 193 191 192 196 196 195 199 203 203 202 198 194 189 186 
185 184 185 191 193 195 196 198 196 197 196 192 189 186 187 190 191 197 197 
195 193 196 194 192 190 189 201 200 203 202 201 196 192 192 192 192 194 195 
192 192 190 191 194 192 192 192 198 200 199 197 197 197 194 194 187 188 188 
186 188 192 192 190 192 191 194 197 197 190 188 185 184 184 187 190 188 188 
186 185 185 185 190 188 185 185 186 190 190 191 191 188 187 189 184 184 180 
183 196 195 197 196 196 190 189 187 184 186 190 191 190 189 188 188 188 188 
192 194 193 194 194 192 190 188 185 186 182 183 183 183 186 187 188 184 187 
188 192 194 194 191 187 185 184 185 188 187 185 183 181 179 181 181 183 186 
186 184 180 180 180 180 178 176 179 183 183 184 183 181 188 191 192 192 192 
190 187 186 184 185 186 186 186 185 185 188 188 187 190 191 190 188 187 187 
187 184 182 182 183 177 177 180 182 184 189 187 188 187 184 190 190 187 183 
183 185 182 185 186 185 185 182 178 177 178 185 183 182 181 181 181 181 179 
178 177 180 183 184 185 186 187 183 183 187 186 187 186 186 184 178 178 181 
178 180 182 182 180 177 179 183 186 185 181 180 180 180 182 180 179 181 179 
176 179 182 183 186 185 189 188 191 194 191 188 180 182 183 184 185 182 179 
178 178 180 180 180 183 181 180 177 176 182 181 177 178 178 177 182 184 184 
187 193 185 186 190 189 187 184 180 184 186 182 183 182 181 179 177 174 170 
169 173 176 178 183 183 178 179 180 180 179 179 174 170 170 172 176 182 183 
185 187 188 189 187 185 182 182 184 184 183 180 177 179 179 182 182 183 185 
184 181 177 175 175 174 177 180 179 178 179 176 180 182 184 185 183 185 183 
182 183 177 179 182 182 184 183 184 182 179 175 172 169 171 173 175 178 181 
184 181 181 181 181 176 170 169 170 169 175 182 182 181 183 186 186 188 188 
188 187 186 183 183 183 179 178 178 182 184 186 185 182 180 178 172 172 171 
174 176 177 179 179 176 177 180 179 187 184 183 180 180 182 180 182 180 182 
183 181 181 184 184 179 173 166 166 169 170 172 176 179 179 179 176 174 168 
165 165 167 170 174 175 173 173 174 176 175 179 180 181 182 184 183 180 178 
176 172 169 171 173 178 177 174 179 175 172 171 168 170 170 173 176 177 179 
175 176 176 182 179 179 175 175 177 177 177 173 176 177 177 180 181 181 177 
169 162 162 162 164 169 170 172 172 173 172 165 160 158 158 157 164 168 168 
168 169 170 172 174 174 173 174 173 175 176 176 174 176 173 171 171 174 178 
175 173 170 167 168 167 167 170 171 173 172 178 177 176 176 183 176 176 175 
174 174 172 170 168 163 160 167 170 171 172 175 176 172 170 167 164 164 164 
163 165 164 165 165 159 161 155 154 158 161 164 165 165 166 167 168 168 166 
165 167 166 168 171 174 174 177 178 174 172 172 170 170 170 167 168 169 169 
169 170 170 169 171 175 175 174 171 172 171 172 174 175 171 169 167 164 159 
159 162 161 165 169 172 173 170 166 167 163 158 157 159 162 163 163 162 158 
160 157 160 162 159 156 156 160 161 162 164 165 164 165 165 162 166 171 171 
173 174 171 169 169 169 166 166 169 166 165 164 166 165 163 163 165 167 172 
174 172 172 172 160 163 165 166 164 165 165 159 158 160 160 160 161 165 168 
168 167 165 166 166 162 159 161 162 163 164 164 161 161 159 158 157 156 156 
156 157 159 162 166 164 160 160 157 161 162 163 158 161 162 164 166 169 166 
164 163 166 166 167 164 163 162 167 168 168 170 173 172 171 173 175 156 156 
156 154 155 157 157 156 154 154 155 157 158 156 162 164 164 160 160 159 160 
160 159 160 160 161 163 159 157 155 156 156 157 155 157 158 156 160 165 162 
159 158 154 155 156 157 154 149 148 151 158 158 156 155 160 165 166 169 164 
164 166 164 163 159 163 164 166 162 161 159 152 153 152 151 150 149 152 150 
149 150 149 150 153 154 155 159 158 155 154 151 154 155 156 160 160 159 161 
158 156 151 152 153 155 155 152 156 155 153 154 153 157 157 156 153 153 153 
156 150 151 154 156 152 150 146 148 155 158 160 157 160 161 156 156 156 159 
161 163 160 157 156 154 156 155 155 152 146 147 148 149 152 153 152 154 156 
158 160 161 160 157 152 150 149 149 149 154 157 161 159 155 155 154 153 154 
153 152 153 151 154 154 155 159 156 153 150 150 151 151 148 153 150 150 148 
145 144 145 152 156 156 153 156 156 154 152 153 156 157 158 156 158 156 151 
153 151 150 149 145 143 143 145 147 151 152 152 152 154 155 155 154 149 146 
141 139 142 145 154 154 157 154 151 152 150 151 151 147 147 151 152 152 152 
155 155 153 151 152 151 153 153 151 149 147 144 144 143 145 147 151 152 155 
153 157 158 156 152 151 156 156 156 156 156 158 150 148 146 147 148 146 144 
143 144 145 145 144 146 148 150 152 148 149 146 144 142 140 141 146 153 157 
155 153 151 151 151 151 148 144 147 150 148 151 150 153 152 148 149 151 152 
151 152 149 146 145 145 146 147 147 152 156 154 155 150 152 153 152 147 147 
148 151 150 150 147 148 146 145 143 141 140 140 141 142 143 145 144 141 143 
145 147 145 142 139 137 135 136 134 135 141 144 146 146 147 146 145 144 144 
142 140 144 145 141 143 142 142 141 142 141 147 146 148 149 143 140 141 141 
144 147 151 150 154 155 152 149 146 143 144 141 140 143 145 141 140 143 146 
137 135 137 136 134 134 137 141 144 145 143 141 141 141 140 138 137 134 135 
137 139 139 138 135 137 138 136 138 137 138 141 143 144 145 146 145 142 144 
141 140 136 133 133 136 140 142 146 145 141 139 139 142 145 146 146 147 146 
143 139 138 136 138 140 140 139 139 138 133 135 142 137 136 134 129 131 129 
130 135 140 141 139 137 140 141 138 136 132 132 134 136 139 141 141 137 138 
134 132 132 132 133 136 136 140 142 144 142 144 140 139 138 137 136 138 138 
138 138 141 143 140 136 135 141 144 144 143 147 146 143 138 135 135 136 139 
140 137 136 133 129 130 132 137 136 129 126 125 124 124 123 130 132 138 139 
138 142 143 142 138 134 134 134 135 135 136 132 131 132 131 131 130 131 130 
129 133 140 143 141 138 137 133 133 133 132 135 141 144 143 144 141 135 131 
133 135 138 139 136 138 140 136 137 135 135 135 137 138 138 134 131 125 127 
129 133 130 129 126 127 125 123 127 128 131 134 138 139 142 139 138 136 134 
133 130 126 125 124 130 129 129 128 131 132 130 130 131 133 139 144 140 138 
136 135 133 133 133 135 136 137 135 129 131 128 128 129 130 130 129 126 128 
134 133 133 133 133 139 136 135 134 133 133 132 131 134 135 134 130 129 127 
125 122 121 123 127 127 130 132 131 132 132 130 128 124 123 122 121 117 122 
123 124 125 127 123 119 124 129 134 138 139 136 133 131 135 135 134 135 131 
129 133 132 131 129 128 127 126 126 127 122 122 123 127 130 133 131 132 136 
135 135 133 133 131 132 129 127 130 130 127 131 132 129 125 123 125 124 122 
121 120 122 126 127 128 126 124 120 119 115 116 121 123 122 125 123 121 121 
123 129 132 133 130 131 129 128 129 132 131 127 124 122 124 126 125 124 124 
123 123 120 122 120 119 117 121 121 121 125 125 124 124 123 125 125 133 134 
135 141 125 126 124 125 123 123 122 120 126 128 127 126 120 120 118 116 115 
118 121 120 116 114 115 118 123 124 127 123 124 126 126 126 125 126 125 125 
124 123 122 125 125 124 120 117 118 121 120 120 121 120 120 120 121 120 121 
120 122 121 122 122 122 121 118 119 120 122 128 133 134 136 124 121 120 121 
123 119 115 116 122 126 126 124 118 115 118 120 119 122 126 124 117 111 111 
113 122 126 125 124 123 124 121 125 124 121 119 117 118 117 116 118 121 120 
117 114 116 116 118 117 116 117 114 115 115 113 116 119 123 120 117 115 115 
116 116 113 113 118 121 122 114 109 118 117 117 119 120 119 118 118 115 112 
112 111 111 112 111 116 118 121 125 123 118 115 114 113 116 121 123 122 120 
119 117 119 115 115 116 115 117 116 114 115 116 115 113 114 116 117 116 114 
111 112 109 110 113 115 118 121 124 120 113 109 106 109 111 111 114 117 119 
116 111 111 114 113 111 110 111 115 115 116 113 109 109 106 104 106 106 109 
110 117 118 117 115 113 110 112 110 112 119 122 120 118 115 115 116 118 119 
118 116 118 115 112 112 114 114 115 118 118 116 114 111 108 103 105 111 113 
117 119 119 118 114 112 110 110 109 108 109 118 116 113 110 108 120 119 115 
114 115 116 115 115 112 107 103 100 99 101 110 113 110 113 112 113 113 112 
111 110 112 116 121 124 121 118 114 114 109 108 111 112 113 116 113 110 108 
113 114 117 118 116 112 110 110 107 106 107 106 104 109 112 114 114 114 111 
113 110 110 108 110 116 117 114 113 113 124 123 120 117 117 117 113 113 109 
107 103 103 106 110 112 114 112 108 107 110 110 113 109 109 111 115 117 119 
117 114 108 107 103 99 102 107 109 112 113 111 109 113 111 113 113 115 112 
109 108 104 102 103 104 103 105 107 109 108 107 104 104 106 108 108 110 111 
110 112 114 114 124 123 118 112 107 106 107 109 110 110 107 107 110 114 113 
116 113 106 105 106 105 108 103 104 109 115 113 115 110 109 102 102 99 100 
105 108 107 109 108 107 105 109 111 112 112 112 110 106 105 105 101 103 105 
102 104 106 106 107 104 101 101 106 110 112 112 110 112 113 117 119 122 120 
116 111 105 107 105 105 107 110 109 108 109 112 115 118 117 113 105 101 101 
102 102 102 102 109 109 111 108 105 99 101 102 101 102 105 105 106 107 105 
103 106 104 103 100 99 102 98 96 94 89 90 91 94 97 100 101 100 98 
98 99 101 106 108 109 107 105 103 101 104 110 110 108 102 104 108 106 106 
103 106 107 112 114 113 113 112 115 109 100 97 93 96 98 100 101 104 105 
103 102 101 96 99 102 104 102 98 97 100 104 104 100 105 106 105 101 97 
100 96 95 90 86 84 84 88 90 94 93 95 93 91 95 95 101 105 106 
102 102 98 96 98 96 96 98 96 102 105 102 102 105 105 103 107 107 105 
106 107 106 100 96 93 90 92 92 98 103 105 104 97 95 96 90 97 100 
103 98 98 96 97 98 98 100 105 103 101 96 89 88 86 90 89 89 83 
85 86 86 85 82 86 87 88 91 89 91 95 98 94 94 92 88 86 87 
90 93 95 98 98 97 97 96 97 95 93 92 91 94 96 96 96 95 94 
93 94 93 94 96 98 95 91 88 86 85 90 95 98 97 98 98 95 95 
94 94 98 98 99 97 91 90 88 87 87 86 82 85 88 90 90 84 84 
84 85 87 85 87 90 91 90 92 93 92 90 87 87 83 83 82 84 84 
82 84 87 85 85 84 84 87 90 94 97 94 90 90 91 89 86 83 83 
81 81 78 82 86 88 92 93 88 89 89 91 90 89 90 91 93 95 94 
93 89 85 84 84 85 87 88 91 91 86 83 84 84 83 84 87 88 87 
86 83 87 88 88 86 79 80 78 76 77 80 81 83 83 82 81 80 79 
80 80 86 94 98 96 93 94 89 84 82 80 82 84 85 85 85 85 85 
87 87 84 84 82 82 82 85 85 87 89 89 88 91 85 83 80 79 81 
81 83 82 84 82 80 84 87 85 88 90 90 87 86 84 84 82 83 81 
79 79 82 80 81 81 81 81 80 79 79 77 74 74 79 83 90 90 85 
84 87 84 79 77 74 74 78 83 86 89 89 90 88 88 85 83 82 80 
80 82 84 85 85 88 91 89 86 84 82 81 79 77 78 78 81 81 83 
84 85 86 84 83 84 83 84 81 79 75 76 77 81 82 83 82 81 79 
81 79 77 77 79 78 80 76 79 84 83 85 82 80 82 80 76 75 75 
76 79 83 86 89 83 83 82 83 82 81 78 76 76 76 77 79 79 78 
82 85 83 86 88 86 79 77 74 76 78 77 76 77 82 86 81 76 75 
76 78 77 76 70 68 71 75 79 79 79 80 80 82 81 80 82 80 80 
84 82 83 82 77 76 78 78 77 74 73 75 81 80 87 89 90 83 76 
75 75 80 78 77 72 73 73 74 76 77 77 79 77 76 79 84 87 80 
82 78 76 75 76 75 73 71 72 73 71 67 68 71 74 73 71 70 68 
62 73 76 79 78 79 80 79 78 76 78 81 84 91 87 82 76 73 71 
70 71 72 71 69 70 77 81 81 84 85 77 70 69 69 72 72 71 73 
71 71 73 76 79 79 78 75 69 72 74 80 79 77 74 73 75 77 76 
73 71 68 67 65 67 67 66 69 68 69 71 75 82 74 75 76 79 81 
78 77 74 73 72 76 77 79 78 72 66 64 68 65 69 68 70 71 69 
67 68 68 67 63 62 61 65 64 64 67 69 70 72 72 72 74 79 81 
80 78 73 66 67 68 65 64 69 72 74 79 77 75 72 70 68 64 61 
62 64 63 65 63 64 66 64 70 69 69 70 71 71 70 69 69 68 70 
71 70 69 66 62 62 62 62 64 65 63 65 64 63 65 64 62 60 60 
61 63 64 59 58 65 66 69 70 72 76 75 77 77 75 72 65 61 65 
65 63 67 70 74 76 77 71 69 67 67 66 65 65 65 66 65 64 65 
65 64 71 68 67 66 67 69 68 64 66 65 67 66 68 68 63 61 65 
66 65 60 60 57 59 59 60 57 57 60 60 62 62 60 58 55 52 58 
60 65 64 63 61 64 64 61 63 63 64 61 63 65 67 70 74 78 81 
78 73 70 69 67 63 63 65 64 63 67 70 71 76 74 71 66 65 65 
66 65 65 62 62 62 62 58 59 59 61 61 64 64 63 60 58 53 55 
53 54 58 59 62 64 67 64 61 62 62 58 58 61 63 63 63 61 64 
62 62 64 62 62 62 63 64 64 69 74 79 79 76 72 72 70 65 62 
60 62 63 63 67 69 67 69 66 60 55 51 57 59 63 65 64 63 63 
63 60 57 55 56 56 58 61 60 60 59 57 57 55 53 53 55 59 61 
61 60 57 59 61 59 57 58 56 58 61 59 61 59 55 57 58 62 62 
59 59 60 61 66 68 70 71 71 71 67 64 53 52 55 60 63 66 67 
65 66 65 57 53 54 56 56 59 58 54 54 54 57 55 52 52 52 54 
59 59 57 55 56 56 59 59 57 55 58 59 59 56 58 59 59 57 56 
54 53 53 52 58 60 60 57 53 53 54 57 54 54 53 53 56 54 53 
55 57 57 57 57 54 44 47 51 56 57 60 61 57 56 54 52 52 54 
54 56 54 52 49 48 50 50 53 53 48 50 54 52 52 52 50 53 54 
55 57 56 56 59 60 58 55 57 58 57 52 52 46 46 47 49 55 57 
56 54 53 54 53 52 51 52 53 53 55 52 50 50 51 49 49 53 52 
49 50 52 58 56 62 61 57 56 56 54 54 54 53 51 48 47 43 40 
42 43 45 44 42 43 42 45 48 50 51 52 51 50 50 49 51 57 58 
60 56 55 53 49 46 49 43 43 44 45 49 53 53 56 58 56 54 53 
52 53 52 51 51 50 48 47 46 43 43 48 48 47 50 50 51 60 63 
61 57 55 54 56 55 54 52 47 43 44 44 42 43 42 44 43 41 41 
39 43 47 50 52 50 44 44 51 50 51 56 58 62 60 55 50 46 46 
47 43 40 39 40 46 51 53 56 59 56 54 55 55 53 53 52 53 51 
49 46 44 42 44 44 46 42 44 47 46 50 54 54 51 51 52 
