P2
#output from hocrtest
50 50
255
245 243 248 245 251 253 254 251 255 246 249 255 254 253 247 249 242 248 239 
228 240 245 236 250 242 250 251 248 254 254 254 252 255 254 252 255 249 243 
243 249 245 252 254 255 254 254 247 239 237 231 238 243 246 246 249 252 252 
252 250 244 247 250 252 252 249 249 244 244 243 239 241 244 244 247 243 248 
250 249 252 253 254 254 255 253 253 251 247 240 243 246 249 252 253 254 253 
252 246 239 240 238 239 241 244 246 249 250 250 249 248 244 245 246 246 248 
245 244 238 239 240 240 243 245 247 245 243 245 246 245 249 251 248 245 244 
245 246 244 239 235 239 240 246 250 253 254 251 250 246 244 240 235 239 242 
239 241 243 245 246 247 244 239 237 240 241 241 235 232 229 233 237 238 239 
237 243 244 241 241 240 238 238 241 240 238 239 242 239 235 235 237 240 242 
245 240 240 246 249 247 246 249 250 250 233 234 235 234 234 234 237 240 239 
237 236 235 233 229 226 227 226 231 234 235 237 235 241 242 241 237 232 233 
229 229 233 235 240 243 237 233 229 231 232 236 239 238 236 235 235 236 234 
232 229 223 228 228 231 232 233 232 235 237 239 236 235 232 228 227 225 225 
221 221 224 226 230 233 236 238 237 234 231 233 230 234 237 239 236 240 236 
234 230 226 230 233 235 236 233 230 229 227 224 224 222 219 226 226 229 232 
233 237 235 238 237 232 232 228 228 225 221 220 219 219 221 224 225 228 231 
231 232 228 225 226 226 228 230 228 231 238 233 228 229 225 227 228 229 229 
224 219 220 219 219 217 217 221 223 226 229 232 232 234 230 232 225 224 225 
224 227 223 218 218 218 218 216 218 223 225 223 222 221 221 220 222 223 224 
222 218 219 221 224 223 222 220 225 229 232 231 220 222 214 215 215 212 213 
216 220 220 224 227 223 223 224 223 217 216 219 223 223 220 212 212 211 212 
214 215 217 218 221 222 219 216 214 216 219 221 219 216 218 215 219 218 215 
214 217 221 226 227 224 223 215 215 213 214 212 213 210 212 213 213 210 212 
210 209 209 213 216 219 217 215 210 206 205 204 203 206 211 215 217 218 216 
215 218 220 219 217 214 212 211 213 214 210 207 207 210 216 220 223 222 217 
212 211 210 208 210 211 209 210 208 204 200 200 199 194 199 204 204 206 209 
209 202 200 199 198 197 201 207 211 217 214 213 215 219 218 216 212 209 206 
210 210 211 209 204 203 205 204 210 212 209 204 203 203 200 197 199 197 204 
203 199 196 194 196 194 191 194 197 199 202 203 204 200 196 193 198 198 199 
204 204 205 204 205 209 213 212 211 209 206 202 204 208 206 203 202 199 202 
206 208 208 203 199 198 197 197 195 193 189 192 194 193 193 199 200 199 196 
196 192 194 196 199 199 195 194 194 195 197 196 200 203 202 198 199 199 202 
203 202 200 199 200 197 196 195 193 192 192 201 204 204 200 198 198 197 195 
194 192 193 194 191 192 189 190 194 192 190 192 189 187 186 186 190 191 193 
194 194 193 190 188 189 194 194 191 189 187 191 192 196 200 201 202 195 192 
192 191 190 187 189 194 194 187 188 190 190 188 188 188 188 188 188 188 188 
189 188 191 187 185 184 182 179 182 188 186 190 192 189 189 185 184 186 191 
190 188 186 190 193 193 194 194 195 193 189 190 188 187 185 181 184 187 189 
189 184 182 183 181 182 182 185 193 184 183 180 182 182 186 184 185 185 178 
178 176 175 177 182 183 184 181 179 179 180 185 187 187 180 183 185 188 189 
187 183 180 180 182 180 181 176 173 175 175 180 182 180 174 176 175 176 176 
175 176 187 183 178 179 186 185 186 186 184 176 173 173 171 172 172 173 172 
172 172 173 175 181 181 179 180 182 183 183 183 181 175 172 171 169 168 171 
171 169 170 166 168 170 170 173 175 175 173 172 167 165 183 183 178 177 180 
178 179 177 174 169 167 170 169 168 167 167 166 164 166 166 169 173 176 175 
171 171 170 171 172 171 170 164 160 161 165 168 165 160 160 161 163 164 168 
169 172 172 171 172 167 163 178 176 169 168 168 169 169 166 164 168 167 166 
163 164 162 161 167 167 166 167 164 164 166 167 170 168 165 163 163 162 160 
161 158 160 162 160 162 159 156 158 161 162 165 167 170 171 169 170 167 170 
159 158 157 159 157 155 153 154 154 156 155 153 153 154 156 157 160 167 165 
161 157 158 156 159 162 161 160 160 157 156 157 159 158 159 160 159 156 160 
156 155 157 155 154 157 161 163 163 162 162 160 147 148 153 156 157 152 148 
147 148 150 144 147 148 147 149 154 156 161 163 160 153 155 153 156 156 157 
158 162 156 156 159 161 159 156 154 155 152 152 154 159 158 156 153 153 156 
160 159 158 163 168 141 144 148 148 148 144 141 138 140 143 139 141 141 143 
148 150 150 150 153 151 151 149 149 151 148 148 148 149 148 152 154 156 156 
153 151 153 154 146 146 145 141 147 148 148 151 150 146 143 142 137 139 139 
140 141 143 140 138 137 137 138 138 137 136 142 142 143 142 142 142 145 145 
146 146 147 149 148 147 151 149 151 149 149 145 141 141 142 141 141 139 138 
137 139 146 148 148 146 144 135 134 133 139 139 140 137 137 135 134 132 132 
136 135 137 138 142 140 140 141 140 138 141 141 144 144 147 152 146 144 147 
148 151 147 143 137 135 138 141 140 140 140 137 137 138 139 142 143 144 141 
137 136 135 126 128 129 132 130 132 131 125 122 128 128 135 140 143 141 139 
137 133 135 138 140 138 141 146 149 146 148 145 143 143 139 133 136 135 135 
137 138 140 139 140 133 131 129 130 133 134 136 136 141 138 121 121 119 123 
124 126 125 124 122 127 130 133 135 136 135 132 128 123 127 131 138 137 139 
137 141 140 144 141 136 135 132 130 130 131 133 132 134 133 134 133 126 128 
127 127 129 132 131 134 138 134 118 116 119 123 127 125 126 126 124 127 128 
127 129 127 126 127 124 120 121 123 127 127 126 129 131 128 130 129 126 125 
124 122 124 128 131 129 135 135 132 129 125 124 122 124 125 127 125 126 130 
128 122 122 119 121 122 122 124 125 128 128 129 129 128 122 121 125 124 121 
119 121 122 120 120 120 119 116 120 117 113 115 117 115 115 119 120 119 121 
119 116 118 117 116 117 120 121 123 122 125 126 125 118 122 117 112 109 107 
109 114 119 123 124 124 119 116 112 113 116 119 117 115 116 118 122 124 122 
115 114 113 109 112 115 115 116 120 120 119 119 119 118 116 115 112 110 108 
106 109 110 113 117 118 115 115 114 113 113 106 106 108 113 115 116 117 112 
107 106 109 113 114 111 110 111 111 115 115 116 112 111 109 107 110 111 115 
115 116 114 111 114 108 106 105 115 115 113 110 109 107 107 108 107 108 111 
106 108 111 111 105 104 104 108 112 109 104 105 102 103 105 107 107 105 104 
103 102 101 101 104 101 106 105 107 114 116 119 116 110 105 103 98 93 93 
96 101 101 104 106 105 104 105 103 99 99 110 105 103 100 97 99 96 97 
104 106 104 109 106 102 100 102 104 104 100 100 99 100 100 99 100 98 96 
92 102 107 109 107 104 100 96 97 95 92 91 89 90 94 95 99 99 103 
103 102 93 90 92 89 90 89 90 91 90 94 97 102 103 104 100 95 98 
98 99 100 102 99 99 97 96 95 93 96 95 98 99 101 98 97 96 96 
95 93 91 90 92 86 85 87 88 91 95 96 96 96 92 96 91 91 91 
88 85 84 86 90 94 95 93 91 87 90 94 92 92 92 95 94 92 92 
89 89 90 92 93 94 97 93 89 88 91 91 90 90 89 89 85 82 81 
77 81 85 88 88 86 87 90 94 92 92 92 91 90 89 87 90 92 92 
89 87 88 89 89 86 86 84 86 88 86 86 80 82 85 84 86 87 88 
84 80 83 86 86 84 86 86 86 84 86 83 78 81 83 82 83 82 82 
82 88 88 90 94 93 90 87 85 88 89 86 84 84 88 87 84 81 74 
70 71 74 81 84 81 76 77 76 76 74 76 74 68 73 76 77 78 80 
83 83 83 83 84 84 81 86 84 82 81 81 78 81 78 83 84 84 87 
88 83 81 81 78 78 80 80 78 79 78 71 71 71 74 78 79 78 77 
77 78 76 75 74 71 71 77 82 80 78 77 79 77 76 73 76 82 85 
87 82 82 80 79 75 74 77 83 79 80 84 83 72 75 74 74 75 76 
77 77 75 75 70 71 69 70 75 77 79 79 79 77 71 65 64 63 65 
72 77 77 80 76 73 73 74 71 72 71 71 72 74 77 77 80 78 85 
68 68 68 71 74 73 66 60 63 70 69 68 68 65 66 65 65 62 58 
63 67 72 72 73 69 67 64 59 60 60 63 66 68 69 70 68 65 62 
60 57 53 54 57 62 62 60 66 68 70 74 51 48 56 59 61 62 60 
56 56 59 61 59 61 60 60 61 59 56 55 60 66 66 69 68 68 64 
58 53 51 52 57 61 61 61 62 59 58 53 50 48 51 48 50 55 55 
57 59 59 59 63 52 48 50 53 54 55 55 51 52 51 51 55 59 57 
58 58 51 50 54 56 60 63 64 62 58 61 58 54 55 59 61 63 61 
58 57 53 52 49 47 44 51 52 51 53 55 58 58 57 60 62 49 48 
47 46 50 50 50 49 46 43 44 48 52 55 57 57 55 50 51 50 51 
48 55 52 50 51 53 49 53 54 54 56 53 49 46 45 44 45 47 47 
51 52 52 49 51 55 55 56 54 55 47 46 48 51 49 46 44 44 44 
41 43 37 42 47 52 54 47 44 43 40 39 37 44 46 45 45 47 44 
45 45 46 51 49 44 40 38 40 40 43 47 49 51 49 40 38 46 48 
53 58 57 43 42 39 38 39 40 38 39 41 40 40 39 38 41 43 44 
42 35 35 35 32 36 42 42 40 42 45 42 43 46 44 45 44 44 43 
42 42 44 45 46 46 46 44 39 40 44 43 46 46 48 36 37 33 29 
33 35 37 37 43 40 39 41 37 41 42 41 35 32 31 31 33 38 40 
37 32 29 32 35 42 40 38 41 39 38 42 43 39 40 38 39 39 39 
34 32 34 40 41 40 35 32 36 35 28 23 28 33 34 31 33 34 37 
37 32 32 30 29 28 24 23 27 29 32 29 28 28 28 27 30 34 35 
32 31 28 31 31 35 30 27 25 26 29 29 26 27 29 34 41 41 36 
35 26 25 18 16 16 14 18 17 17 18 22 25 25 24 23 20 20 18 
17 21 22 23 21 20 20 21 21 19 17 23 24 25 28 33 32 31 27 
24 26 25 25 26 24 26 25 28 27 20 15 13 20 18 16 18 14 13 
15 12 14 17 18 16 16 17 17 13 8 14 14 19 19 14 11 13 16 
17 17 17 15 17 20 23 25 27 26 23 19 25 20 25 26 23 22 24 
26 26 25 19 17 15 16 15 15 16 15 11 12 15 11 14 16 14 15 
14 14 11 5 8 10 15 15 10 8 7 10 11 15 13 12 13 15 16 
17 18 17 18 16 18 18 23 20 16 17 16 18 22 22 19 21 20 13 
16 20 18 18 12 9 11 6 9 13 13 12 12 12 10 11 10 8 8 
8 7 8 8 12 10 10 9 10 12 12 14 17 16 16 19 19 14 15 
20 19 16 13 15 16 18 16 18 20 22 
