P2
#output from hocrtest
100 100
255
250 244 251 248 254 255 255 252 255 255 254 255 255 255 254 249 245 249 240 
232 247 249 240 251 249 253 253 251 252 255 254 250 253 255 254 255 248 246 
242 245 240 250 250 254 255 251 247 245 240 232 240 252 253 246 250 255 255 
255 252 242 251 255 254 248 250 248 242 250 249 249 249 242 249 245 249 252 
254 255 255 255 254 255 255 255 254 253 250 241 252 255 255 251 246 250 252 
252 248 233 252 250 249 248 252 252 254 254 255 255 255 255 253 251 253 253 
253 249 246 247 244 243 249 249 249 253 251 253 252 251 252 254 254 253 253 
253 252 249 243 241 239 243 244 248 250 251 252 248 244 243 239 236 242 250 
252 251 253 255 255 254 253 251 252 255 254 251 249 246 246 248 247 247 247 
244 249 246 247 251 253 253 254 254 254 255 255 255 253 250 249 248 252 255 
254 250 248 250 252 253 250 248 253 251 251 251 255 252 252 253 254 254 253 
255 254 254 252 251 248 244 241 242 241 243 246 247 252 253 252 252 251 251 
251 253 254 253 255 255 251 247 245 244 241 246 250 250 249 245 246 246 244 
242 240 240 243 248 251 251 252 250 253 254 253 252 253 255 255 251 250 247 
246 245 246 248 248 249 250 249 251 254 255 255 250 252 252 254 255 255 255 
251 250 246 250 252 253 251 250 250 249 250 249 248 248 244 251 251 253 253 
254 254 252 251 249 250 251 250 250 247 243 238 236 237 240 243 246 249 253 
253 253 254 254 253 253 254 255 254 255 255 255 253 253 250 249 249 245 247 
244 238 240 242 244 242 242 247 248 252 252 255 255 254 252 254 251 250 251 
251 252 249 244 242 243 244 244 246 248 249 247 247 250 255 253 253 248 250 
248 248 249 253 254 252 251 247 250 252 254 251 247 247 245 247 247 247 247 
248 251 250 252 250 249 249 249 246 245 246 250 252 252 248 242 239 237 239 
242 246 247 248 252 253 250 249 250 252 251 254 254 255 254 252 253 252 251 
250 249 247 246 246 243 244 242 244 245 245 246 247 248 252 250 247 247 250 
250 249 248 249 252 252 250 248 244 238 239 239 238 240 244 247 248 249 249 
251 253 253 250 247 246 247 249 251 251 248 248 245 247 251 251 250 248 246 
243 246 245 245 245 247 248 248 248 244 242 243 243 239 243 245 244 245 246 
246 242 241 239 238 238 240 243 248 252 251 248 249 250 251 251 251 252 252 
250 247 247 245 245 245 245 244 246 247 245 243 244 242 242 243 244 245 248 
249 245 244 245 247 245 246 246 249 249 248 247 247 243 239 237 241 241 241 
243 245 245 244 245 246 247 247 246 247 246 246 246 248 249 249 247 245 245 
246 247 246 244 242 241 243 242 240 240 237 241 243 243 243 245 246 244 240 
244 244 243 247 250 248 245 242 241 240 238 237 241 244 247 247 246 248 248 
248 246 245 245 246 246 243 243 241 241 239 243 245 246 246 244 245 246 243 
240 240 241 243 245 245 240 237 241 242 241 244 245 245 246 242 244 242 239 
239 239 240 241 241 241 243 241 241 238 236 236 239 241 243 244 244 241 241 
244 244 243 242 242 242 243 241 240 239 240 240 240 240 242 242 243 243 244 
244 244 244 240 237 239 239 238 242 245 244 244 242 240 239 237 237 238 241 
242 243 244 247 248 246 245 244 243 242 243 241 239 239 239 237 240 241 244 
244 242 240 241 239 238 237 237 239 240 239 238 238 238 240 239 240 241 241 
239 237 236 237 239 241 241 239 238 238 238 241 240 238 234 234 233 237 238 
241 242 242 241 242 242 239 236 237 236 237 239 237 237 236 237 239 237 237 
238 239 245 246 243 245 247 245 243 240 239 237 237 239 239 239 240 238 238 
238 237 238 237 239 239 240 245 248 250 248 247 246 240 239 238 236 234 233 
232 229 234 235 239 240 239 239 240 240 239 238 233 234 236 237 235 236 236 
236 235 235 235 235 234 233 232 233 234 237 238 237 236 236 238 242 242 241 
236 234 233 234 235 238 241 241 240 240 240 239 238 236 234 235 234 233 234 
235 236 238 236 236 235 232 241 242 241 242 243 241 238 236 235 237 236 236 
235 237 236 235 239 239 239 241 238 236 236 238 244 246 245 245 244 239 235 
236 233 231 229 227 227 226 230 233 235 237 237 238 236 238 236 236 233 235 
235 234 234 237 233 231 230 232 233 234 231 230 233 233 233 234 236 238 237 
235 236 238 240 239 237 234 231 232 233 234 240 242 243 241 242 240 238 240 
236 235 232 231 231 233 237 237 237 236 236 236 229 232 234 238 239 235 229 
230 231 232 227 231 233 236 233 235 236 236 238 237 233 234 235 237 239 239 
242 245 241 239 236 232 230 227 226 226 225 225 227 232 233 233 231 234 232 
231 227 227 229 232 231 233 235 234 231 230 229 229 229 232 231 235 232 231 
235 235 237 240 239 237 237 239 239 238 233 230 227 231 230 235 239 241 241 
239 240 241 241 239 234 229 227 229 229 227 232 233 231 231 230 225 226 227 
230 234 234 230 227 228 228 227 227 229 229 231 231 231 231 229 230 234 234 
234 233 235 240 243 243 244 241 238 231 228 226 224 225 227 226 228 229 230 
227 226 230 231 229 225 224 223 225 229 233 234 235 234 232 230 227 228 230 
233 233 235 235 236 236 236 236 236 233 231 233 239 238 240 237 231 231 233 
233 237 238 235 232 234 235 238 240 239 235 229 228 231 232 232 232 235 233 
234 232 230 225 225 228 231 231 228 229 228 226 227 226 229 229 231 229 229 
228 225 228 232 233 231 231 235 237 240 242 242 240 236 231 225 226 228 230 
231 232 235 238 238 232 228 227 227 226 224 223 223 226 227 230 229 229 228 
227 228 227 229 231 233 234 235 234 234 237 235 233 230 230 230 234 237 239 
237 236 233 234 233 234 239 237 237 233 234 235 233 233 231 229 226 225 227 
229 230 232 236 232 233 235 232 224 223 223 225 223 220 223 224 226 226 224 
225 228 229 228 228 224 222 222 224 227 226 226 229 230 229 233 235 235 235 
231 230 230 232 233 234 237 239 239 238 233 230 224 225 223 222 222 221 226 
230 233 230 229 230 230 229 230 231 232 234 232 232 230 229 229 230 231 230 
230 230 230 231 233 232 230 231 233 230 228 232 231 231 226 228 228 226 228 
225 221 227 228 227 230 230 232 235 233 234 235 237 223 223 221 217 215 212 
214 218 224 226 227 228 229 229 229 228 227 227 226 222 221 222 223 227 229 
227 230 232 231 233 230 231 232 233 232 231 233 238 235 234 231 226 223 221 
221 222 222 225 228 231 230 231 228 227 228 225 225 224 228 228 227 230 228 
225 224 226 227 227 225 225 226 226 230 232 231 230 228 226 227 228 228 227 
224 228 227 224 225 223 223 224 228 229 228 229 232 234 231 230 223 222 220 
217 218 219 218 214 217 219 221 224 225 224 227 226 229 225 226 227 225 221 
222 222 219 223 226 225 228 229 232 235 233 234 233 230 228 226 224 224 223 
224 224 222 224 225 225 222 223 223 224 228 229 228 225 226 225 223 221 222 
226 227 226 228 227 226 224 225 227 228 223 223 225 225 226 226 226 226 224 
223 224 225 224 222 221 222 220 222 223 221 222 220 220 217 221 224 226 229 
229 229 220 217 214 213 213 215 216 218 220 221 223 220 220 225 227 224 230 
229 228 227 224 222 221 220 219 221 220 224 225 226 227 228 227 224 227 226 
224 222 221 221 222 218 217 218 217 220 223 221 223 223 222 226 225 225 223 
224 223 219 220 223 223 225 223 222 220 221 222 221 221 222 222 222 223 223 
222 222 223 226 225 223 220 218 215 214 216 218 219 222 224 221 219 218 218 
214 219 223 227 229 226 226 224 224 217 217 218 218 219 220 220 219 221 222 
221 224 226 227 229 226 226 225 224 225 220 219 215 219 217 220 224 225 224 
222 220 220 221 219 217 217 217 218 218 218 217 215 217 219 218 219 218 219 
220 224 222 223 225 225 226 224 221 225 225 222 223 221 222 221 219 218 215 
214 214 216 221 225 225 223 224 222 220 220 218 214 207 210 211 213 218 221 
226 221 222 223 222 217 215 220 224 227 227 225 220 222 217 218 218 220 221 
222 222 217 215 215 216 218 222 224 223 220 219 219 220 221 221 219 218 218 
219 220 220 221 221 219 221 224 224 220 215 215 216 217 214 214 214 217 218 
220 219 218 219 219 219 218 217 216 214 216 224 226 222 222 223 222 220 218 
218 219 220 219 217 219 216 219 222 224 227 227 227 223 217 215 212 208 206 
209 212 216 220 221 220 221 223 221 222 218 216 216 220 224 227 227 224 227 
222 222 220 222 225 222 218 214 210 211 213 213 216 218 220 220 218 216 215 
215 217 216 215 218 218 218 218 216 216 214 218 221 221 219 220 218 213 210 
210 210 210 211 212 216 217 217 221 221 219 218 213 211 211 213 219 222 220 
218 218 219 218 217 215 212 215 217 215 216 217 220 221 221 224 224 223 221 
214 211 209 208 211 216 218 219 219 221 220 217 216 215 215 212 213 215 217 
220 224 224 225 229 220 221 221 220 219 217 214 210 211 211 211 212 213 216 
217 215 212 209 209 209 211 213 215 217 216 217 216 214 212 215 217 221 219 
218 220 218 214 210 209 207 210 211 209 211 214 217 219 221 219 220 217 215 
213 211 213 214 216 215 216 213 214 212 209 208 210 211 214 216 218 217 216 
215 218 217 218 219 218 217 216 216 217 216 216 217 217 219 218 218 220 218 
220 219 216 216 218 220 219 219 217 218 217 217 217 216 214 212 212 212 211 
212 212 209 210 213 214 212 209 204 203 202 203 207 211 214 216 215 214 209 
207 206 208 213 216 213 213 215 215 212 212 212 214 213 212 208 210 214 216 
217 219 216 215 215 214 210 210 212 212 212 216 217 215 211 203 202 202 204 
208 211 211 212 210 211 212 213 214 215 217 216 214 216 213 212 211 215 218 
220 219 218 219 218 216 215 213 213 215 218 217 217 218 218 210 210 206 208 
210 209 211 211 212 211 211 211 211 213 214 212 205 204 205 207 208 212 214 
214 213 211 208 205 203 202 203 210 212 215 216 218 216 214 215 215 216 213 
209 205 205 208 209 210 209 210 215 217 216 213 214 216 216 213 214 215 215 
211 204 202 199 200 202 200 202 205 208 208 210 210 213 211 208 213 214 212 
210 209 208 210 208 212 208 203 204 207 210 210 208 207 213 216 217 218 216 
216 213 213 209 205 207 208 210 209 209 207 208 209 208 208 206 204 205 204 
203 205 207 207 210 208 208 207 203 198 195 196 201 206 210 214 214 215 214 
212 212 208 209 210 208 207 203 206 201 200 202 206 211 214 214 213 213 211 
212 209 208 210 211 207 203 199 197 199 200 203 201 202 202 202 202 205 209 
211 213 212 212 211 208 209 212 213 212 211 208 205 203 206 208 207 210 214 
217 218 219 217 216 217 205 204 206 205 206 206 208 211 210 211 211 210 209 
207 208 206 203 203 204 206 209 209 205 203 204 203 199 192 195 196 199 201 
202 205 206 210 209 207 206 207 208 207 205 203 206 209 208 205 207 206 208 
211 211 209 210 207 205 204 204 205 209 207 206 207 206 204 203 205 201 199 
195 194 199 201 206 206 210 209 208 206 205 208 209 209 208 209 208 204 203 
205 206 207 209 212 212 214 215 215 214 216 193 197 199 203 204 204 207 209 
208 209 207 208 207 207 206 205 204 204 205 209 208 203 199 198 200 198 195 
191 192 195 199 201 203 204 204 208 206 205 205 206 207 206 204 205 207 212 
211 210 209 208 210 210 209 205 206 206 202 203 206 207 208 205 205 208 209 
207 208 208 206 203 200 198 202 201 207 208 208 207 205 207 208 209 209 207 
202 203 201 202 200 203 206 209 210 209 209 209 210 211 211 215 194 193 198 
200 204 204 204 201 195 196 198 201 201 205 205 205 201 201 201 204 202 200 
197 197 198 196 193 192 192 195 198 202 203 205 206 208 205 203 201 201 199 
200 201 205 206 210 209 209 209 207 207 207 204 200 201 205 202 203 205 204 
205 201 203 205 205 205 207 210 210 211 207 204 205 203 203 204 206 205 206 
208 209 209 207 203 199 197 192 193 194 196 201 206 208 209 208 209 207 208 
207 209 188 186 188 191 196 200 201 203 198 197 200 202 202 205 206 204 201 
197 197 197 196 194 193 193 193 194 196 194 195 197 197 199 199 199 202 201 
200 200 201 200 197 196 200 202 202 204 203 205 206 207 209 209 206 202 204 
203 199 198 198 199 202 204 204 205 206 206 209 210 208 208 207 204 206 204 
201 200 201 203 203 204 206 208 205 204 203 202 200 199 194 195 197 200 203 
204 204 205 203 201 201 202 194 194 189 191 195 197 198 198 198 195 200 201 
201 203 202 203 199 195 194 192 191 192 194 193 194 196 195 195 193 191 188 
189 192 197 200 199 198 197 196 196 195 192 196 202 206 207 208 206 204 202 
203 206 203 201 200 202 201 200 200 199 201 199 199 200 201 199 200 200 198 
199 199 202 202 200 200 201 202 204 202 202 203 207 207 204 203 203 201 201 
200 199 199 200 203 204 202 202 201 201 203 201 194 193 192 194 196 194 196 
198 199 196 197 197 199 200 202 201 196 193 189 186 187 189 192 196 192 196 
200 197 193 190 190 192 194 196 198 198 198 197 196 197 196 196 194 197 199 
201 201 201 200 203 201 201 200 199 200 202 200 200 196 192 193 195 192 192 
192 193 194 195 191 191 193 197 201 201 202 200 198 199 201 199 199 203 202 
200 199 201 202 200 202 202 199 198 199 197 198 196 195 196 197 196 199 202 
199 198 198 197 195 196 197 198 200 198 196 196 196 195 192 190 190 187 184 
187 188 190 193 197 200 199 195 190 190 188 192 194 195 193 194 194 193 193 
193 194 195 196 199 200 201 202 203 205 204 198 195 195 197 198 199 200 200 
196 196 193 193 191 191 189 189 190 190 192 190 187 188 190 193 193 195 197 
196 198 197 197 195 194 192 195 197 196 200 201 198 197 192 192 191 187 186 
192 194 195 194 197 197 198 198 196 194 193 197 198 197 195 194 190 188 188 
188 188 187 187 185 188 189 188 192 196 194 192 192 189 189 189 192 195 196 
195 196 197 196 194 193 191 191 193 196 198 200 203 203 204 202 199 193 193 
194 194 195 196 199 197 195 193 191 189 189 191 191 191 191 192 187 183 182 
185 194 196 196 196 195 194 194 196 196 193 190 190 192 192 194 194 193 192 
190 187 187 186 188 190 191 195 191 190 189 186 187 189 191 192 193 191 191 
190 188 184 182 185 187 187 184 183 182 182 187 191 194 196 194 192 190 185 
188 189 191 195 192 195 195 195 196 196 194 193 195 194 195 196 197 195 193 
196 193 192 188 188 189 190 195 195 193 194 193 191 188 189 189 191 192 192 
191 190 185 183 184 189 195 199 197 194 189 186 186 188 189 190 190 194 198 
196 195 194 191 189 185 183 181 181 183 187 185 182 186 185 185 186 189 191 
192 194 195 191 190 188 184 182 182 184 189 190 188 185 183 183 186 191 192 
191 191 193 191 189 191 194 194 195 196 195 195 195 192 190 187 189 191 193 
196 194 193 190 189 190 190 189 185 187 187 194 195 195 193 193 193 192 192 
191 191 193 194 196 195 191 183 185 181 186 195 199 195 193 190 187 188 190 
190 190 192 196 200 198 193 192 189 188 183 182 182 182 188 193 192 192 189 
190 191 193 194 195 193 193 193 190 189 188 183 181 182 184 188 191 191 186 
187 186 187 187 190 193 191 192 192 192 195 196 198 198 200 195 192 190 187 
187 185 188 193 197 195 197 196 190 187 190 192 190 187 187 189 191 194 195 
192 192 189 188 187 186 188 191 193 196 198 196 193 190 188 192 196 199 195 
193 189 186 186 186 186 187 190 192 194 191 190 187 186 183 183 181 181 183 
186 191 193 193 193 193 194 191 190 191 191 191 191 189 186 185 185 184 183 
185 185 185 186 185 184 183 177 181 189 192 189 190 189 190 189 190 190 191 
193 190 185 185 183 184 183 188 193 196 197 196 197 188 186 189 190 190 189 
189 189 190 189 190 186 183 183 184 185 189 189 190 194 196 201 201 201 199 
197 196 192 193 186 186 187 189 189 189 189 191 191 194 192 192 188 185 183 
183 185 185 186 186 190 192 190 189 186 189 188 185 186 190 188 188 187 183 
181 183 179 179 179 180 184 184 183 183 183 180 179 181 186 189 187 186 185 
183 182 182 185 186 188 187 183 181 181 182 182 188 190 187 192 194 193 185 
182 183 185 186 186 189 187 188 187 184 182 180 175 175 179 182 183 184 186 
189 194 196 195 190 190 192 191 185 183 182 182 184 182 185 187 190 191 192 
193 189 184 181 181 183 184 184 185 185 184 187 182 177 187 185 185 188 190 
189 188 186 183 179 177 177 177 177 179 180 180 183 183 181 179 183 183 182 
186 185 183 180 180 179 177 177 179 183 188 187 184 180 178 179 178 185 187 
186 183 184 183 182 181 178 180 183 182 183 181 177 176 175 178 175 173 171 
171 171 174 174 172 180 183 184 185 183 184 183 182 178 177 176 173 174 174 
178 181 186 187 188 188 185 182 183 184 183 183 183 186 186 183 184 182 180 
185 184 183 184 184 186 183 182 177 174 174 176 176 179 180 181 183 181 180 
178 177 177 177 177 179 178 178 179 177 172 170 172 176 181 184 185 181 179 
176 175 177 179 179 180 180 181 182 183 180 174 174 173 171 171 170 173 173 
172 172 174 172 171 173 173 173 171 172 178 180 179 177 179 177 174 172 172 
170 169 167 170 173 175 178 180 178 180 182 182 182 180 180 180 181 184 184 
183 179 178 176 173 181 183 179 179 180 180 178 177 175 170 169 172 170 172 
173 174 175 176 176 175 175 175 171 167 169 170 173 174 173 169 171 172 175 
178 179 182 182 181 180 178 179 177 176 177 178 180 181 183 181 175 170 171 
171 171 171 172 171 170 168 172 172 174 174 171 169 169 167 166 170 172 174 
177 178 175 175 172 169 169 171 168 170 173 174 176 176 177 178 180 179 175 
174 173 174 174 177 174 173 173 174 174 175 175 170 169 173 175 180 177 172 
168 170 169 164 164 163 162 167 174 177 179 180 178 175 172 173 174 175 174 
171 171 171 172 175 179 180 180 178 178 177 176 176 175 176 175 176 178 181 
182 180 176 170 171 174 176 176 172 170 168 171 170 173 175 176 175 173 170 
171 166 167 170 173 176 177 175 174 174 171 171 173 170 174 175 173 174 173 
174 177 176 173 172 168 168 168 168 170 171 170 170 169 166 170 171 169 166 
170 171 172 172 171 172 170 171 169 168 168 167 167 170 173 174 173 169 167 
169 170 170 171 168 168 170 168 171 173 175 173 171 173 174 173 176 177 177 
176 176 176 175 175 174 175 173 169 170 172 171 174 171 175 174 173 171 171 
171 172 174 174 174 170 169 169 169 169 171 172 174 172 170 171 174 177 176 
177 177 175 172 173 173 174 170 168 168 166 166 167 167 168 169 168 166 164 
159 169 170 171 170 170 171 170 171 170 174 175 176 176 173 172 169 168 166 
165 166 166 166 165 166 169 169 169 171 174 172 170 167 167 168 167 168 169 
172 171 172 175 174 173 171 169 166 168 168 170 169 166 165 168 169 169 168 
168 168 166 164 165 168 168 168 170 172 173 173 174 177 175 173 174 176 172 
171 171 171 174 174 178 179 177 176 174 172 171 169 166 169 167 167 168 168 
168 169 168 167 163 162 170 172 171 171 173 175 170 171 171 172 174 177 180 
177 178 177 173 168 161 159 161 165 168 169 172 169 171 170 171 172 169 166 
167 167 165 164 165 166 169 169 171 169 168 166 166 163 164 164 163 162 162 
163 164 166 164 166 167 167 168 165 167 168 169 170 171 174 174 172 170 169 
170 171 174 169 166 168 169 170 170 171 173 174 175 177 176 173 170 166 163 
163 162 161 162 165 166 165 162 165 163 163 170 170 169 170 174 176 177 176 
174 176 176 175 174 172 171 173 171 169 169 166 167 168 170 171 170 168 172 
171 173 171 169 168 169 166 165 159 158 164 166 167 167 168 164 160 156 158 
159 159 157 155 154 156 159 163 164 169 170 169 172 171 173 172 171 174 177 
175 175 170 168 168 166 167 169 166 164 166 167 169 173 170 172 168 169 171 
173 170 169 164 162 160 158 157 159 161 164 166 169 171 171 170 164 163 165 
165 167 173 175 174 174 173 171 169 169 170 168 168 172 171 171 169 169 171 
170 169 166 164 164 163 165 166 165 167 171 170 168 163 161 165 166 162 162 
162 161 159 158 161 163 162 160 157 156 157 158 162 163 170 172 174 174 174 
174 171 169 169 169 169 170 166 165 165 165 166 166 165 163 161 162 165 167 
166 164 161 162 165 169 166 167 164 164 162 158 159 160 159 162 164 168 169 
171 178 164 165 168 167 168 170 171 169 168 168 163 161 163 165 166 167 169 
169 172 170 169 168 168 169 167 164 161 157 157 159 161 163 161 161 163 163 
165 164 162 159 159 160 162 163 161 163 164 163 161 158 159 160 160 162 162 
163 164 167 169 171 173 173 170 166 164 163 165 164 160 161 162 164 165 166 
165 162 162 164 166 166 161 159 160 160 160 160 161 162 161 162 161 160 160 
160 163 164 161 159 160 166 164 167 167 162 163 163 162 161 159 158 157 156 
160 163 163 163 165 166 167 165 164 167 168 165 166 162 158 155 155 158 159 
159 157 158 158 159 159 158 160 161 160 162 162 161 161 163 162 162 162 159 
158 160 162 164 161 162 163 163 167 170 170 170 168 166 164 162 162 160 155 
157 161 163 164 165 165 162 162 163 164 162 161 161 160 158 156 158 160 161 
164 164 161 160 157 156 160 161 159 157 157 159 165 164 165 164 162 161 159 
158 158 157 153 153 154 154 157 159 159 159 163 159 157 160 161 162 167 166 
162 160 160 160 161 161 159 157 154 154 156 157 157 158 160 160 159 159 159 
159 159 161 162 163 163 159 158 163 162 160 161 162 168 170 167 166 166 165 
164 161 157 154 149 153 161 162 164 165 163 160 162 162 160 159 158 160 159 
158 157 156 156 160 163 162 159 158 157 155 158 158 159 159 161 162 165 163 
164 164 159 155 153 154 155 154 156 153 154 154 155 158 158 161 159 159 158 
158 157 157 161 162 160 158 159 162 163 161 159 156 154 155 155 157 157 160 
161 163 161 161 160 161 160 160 159 160 162 165 164 163 156 157 157 160 166 
166 166 164 163 162 162 160 158 152 150 153 157 156 159 159 160 159 157 157 
153 154 154 156 157 157 155 156 157 159 160 161 162 162 159 158 159 159 156 
154 154 152 158 158 156 159 157 151 148 149 148 152 154 152 152 153 156 158 
159 157 158 159 156 155 154 153 153 154 156 157 157 158 155 155 160 158 155 
156 155 156 156 158 161 163 163 162 165 168 166 159 157 160 158 156 156 157 
156 158 159 159 162 165 166 161 156 154 157 156 158 156 153 154 156 158 159 
159 159 160 157 155 151 152 152 152 156 156 155 153 151 151 151 157 157 157 
156 157 156 157 154 155 156 156 149 152 155 156 154 150 148 149 150 154 155 
153 149 150 153 153 153 153 154 152 151 148 143 148 149 151 152 153 154 153 
153 152 156 157 155 156 156 155 157 158 161 162 162 163 166 166 164 160 159 
159 154 154 155 157 155 156 155 155 156 156 158 156 152 153 155 153 152 152 
148 147 148 149 151 153 154 154 153 150 148 150 153 154 156 156 154 152 150 
153 153 150 149 147 146 145 144 147 144 144 144 143 144 148 146 147 146 146 
144 148 151 154 155 156 154 152 152 151 150 150 151 150 147 145 144 147 148 
150 151 152 154 155 155 154 155 157 156 156 155 156 156 155 155 155 155 155 
157 159 159 160 159 160 155 156 155 155 153 152 150 152 152 153 151 151 152 
152 154 154 152 149 146 144 145 148 149 151 152 153 152 149 147 148 150 151 
153 153 151 148 146 146 147 145 140 138 141 143 145 146 145 145 143 143 145 
147 146 145 142 140 142 146 150 155 158 160 161 152 153 153 152 147 146 143 
140 138 142 145 145 149 151 147 147 148 151 148 148 150 149 150 153 151 150 
151 150 148 146 146 149 154 159 158 159 154 150 149 146 149 148 148 147 148 
149 147 147 148 148 148 150 152 149 145 142 143 142 144 145 146 151 152 153 
152 152 152 148 147 146 148 149 146 143 139 140 139 138 138 139 141 141 140 
141 141 144 149 145 144 142 143 140 138 141 146 150 155 161 166 163 156 155 
150 144 142 143 142 140 140 142 145 146 149 147 144 147 150 153 149 149 148 
150 149 148 145 146 147 148 145 142 139 142 146 149 152 151 148 146 148 149 
153 149 148 149 148 143 142 143 145 145 146 145 148 144 142 140 139 140 142 
142 147 151 152 154 153 153 150 147 145 144 145 146 143 142 138 140 139 139 
141 142 141 142 140 138 137 132 132 150 149 143 142 141 140 142 145 146 148 
151 156 158 154 150 146 143 143 144 141 142 142 143 144 147 148 147 144 145 
147 149 148 150 149 148 148 146 143 142 142 143 139 140 138 139 143 145 146 
145 147 149 152 151 150 144 143 145 144 142 142 143 143 140 143 142 142 143 
142 143 140 140 139 140 146 148 148 147 147 147 145 143 140 141 143 146 147 
146 145 145 143 141 140 140 142 143 143 139 138 137 144 138 136 135 136 137 
137 137 138 142 147 148 150 149 149 145 143 143 141 144 143 144 145 143 143 
145 146 143 142 144 147 149 149 151 148 145 147 145 143 141 140 139 136 135 
134 135 137 137 139 141 140 145 149 149 146 147 143 142 141 141 142 145 143 
143 141 140 140 141 142 144 141 142 140 139 140 142 143 144 145 146 143 142 
143 145 146 148 149 148 143 141 139 139 137 137 139 139 139 137 136 134 136 
136 134 133 134 138 139 141 139 144 145 146 148 146 147 147 147 147 143 145 
142 143 142 139 142 144 144 142 142 142 140 138 137 136 137 140 143 142 142 
139 139 138 135 136 136 136 137 137 138 139 139 144 149 149 145 143 144 144 
144 143 142 143 141 140 139 139 139 140 143 145 144 143 139 139 138 138 141 
143 142 141 140 141 144 144 145 142 140 139 135 134 136 139 137 138 138 138 
136 131 130 126 125 134 132 131 131 135 140 145 144 146 145 143 140 138 136 
139 145 146 145 144 142 142 141 138 140 139 138 141 140 141 140 137 138 136 
135 134 136 133 136 137 138 139 136 136 137 139 139 137 138 133 134 137 141 
142 138 135 135 141 143 144 141 141 137 137 138 138 139 138 143 144 144 144 
142 140 138 135 136 135 135 135 133 135 134 135 136 137 136 131 131 132 138 
136 133 135 136 136 133 133 134 133 136 131 131 128 129 131 135 144 144 144 
141 138 134 134 134 134 139 140 140 139 137 138 135 134 135 132 134 136 131 
133 132 133 134 137 137 137 131 130 131 134 139 140 139 139 140 140 141 141 
139 135 135 135 135 137 137 138 141 144 143 143 140 139 137 138 138 139 139 
141 144 144 145 144 142 140 138 138 136 135 134 132 129 129 130 131 133 133 
133 133 133 134 136 134 133 134 136 136 133 131 127 125 131 125 124 121 124 
128 132 136 139 139 135 134 129 128 125 125 129 131 131 135 137 139 137 134 
135 132 132 131 128 129 126 129 133 138 138 139 135 135 136 138 141 140 140 
140 138 138 138 140 138 134 130 129 130 133 135 138 140 142 142 141 138 135 
134 135 135 138 143 144 146 145 142 142 142 139 137 137 137 137 134 137 133 
130 129 130 130 131 132 131 131 132 134 136 135 135 135 135 133 129 124 122 
125 119 118 120 122 123 123 125 128 130 128 128 126 128 128 128 126 126 127 
130 133 136 136 133 133 129 131 132 131 130 130 129 130 133 133 131 131 133 
137 138 140 141 142 140 133 133 137 140 136 134 129 129 131 135 137 140 142 
145 145 141 137 135 134 132 132 135 140 141 144 145 143 140 138 135 131 133 
135 137 134 131 128 127 128 131 131 131 131 133 133 133 136 137 136 137 139 
139 132 126 121 115 112 118 119 121 121 121 123 124 124 124 124 126 126 127 
131 131 129 126 126 129 129 134 136 134 133 129 128 127 124 124 126 129 129 
131 131 131 133 132 131 132 135 137 137 137 128 122 124 123 123 125 128 131 
132 135 136 140 137 140 140 137 137 134 131 125 126 130 135 137 138 136 135 
131 130 130 131 130 132 134 134 132 132 131 130 132 134 133 132 129 128 133 
135 138 136 136 137 137 132 127 123 120 119 115 113 115 114 121 124 125 124 
124 125 126 128 129 130 130 128 127 127 128 131 133 135 133 132 127 121 120 
120 121 120 124 124 128 133 133 132 130 129 131 133 135 135 134 129 122 120 
119 120 125 124 127 131 136 137 139 138 137 135 133 133 130 127 124 125 126 
131 136 139 136 137 134 131 130 130 130 130 129 126 123 127 129 128 130 130 
130 129 130 130 130 129 130 132 134 137 139 134 130 124 124 127 115 117 117 
116 120 124 125 123 122 126 127 122 122 125 127 126 123 125 127 127 132 133 
134 133 128 124 122 123 125 127 127 124 127 131 132 131 128 125 126 128 129 
128 128 128 123 123 121 115 119 116 118 122 130 131 135 134 134 133 131 126 
123 122 122 123 125 128 131 130 130 133 131 127 125 124 128 130 129 129 126 
127 129 129 128 127 126 125 124 123 123 125 128 131 131 131 132 128 127 123 
121 121 113 115 116 115 117 118 121 123 124 126 122 122 122 126 127 125 123 
124 125 125 130 129 129 133 126 122 121 122 123 121 121 118 117 119 124 124 
122 121 122 125 125 126 122 121 120 120 119 114 117 118 119 123 127 128 128 
129 128 127 125 122 119 118 120 124 126 126 128 127 126 129 126 121 117 117 
123 126 125 127 126 125 126 128 126 127 120 118 117 116 115 114 122 128 130 
129 130 129 128 126 126 129 123 124 119 116 116 119 122 124 123 121 118 120 
123 127 125 123 120 119 121 120 126 126 126 126 120 119 120 125 120 124 123 
119 115 118 121 120 121 118 120 117 118 122 118 122 121 121 122 120 124 125 
120 122 124 125 124 125 123 123 122 121 119 118 118 121 124 124 122 123 123 
126 124 121 121 120 123 124 122 121 120 119 117 117 117 119 117 116 114 115 
116 115 120 124 127 126 126 125 126 124 124 125 123 125 122 116 113 115 117 
119 119 116 118 118 122 125 122 120 116 115 117 117 121 123 124 121 119 120 
119 123 122 119 117 119 116 118 120 120 119 119 121 120 121 125 123 121 120 
123 125 124 125 127 123 124 122 121 119 119 119 119 116 117 116 115 117 118 
120 117 118 119 123 125 125 125 123 126 125 123 121 120 117 117 117 117 113 
113 112 112 111 113 114 116 118 122 122 123 121 120 121 118 118 116 120 123 
122 117 114 118 118 117 119 119 119 120 123 125 124 120 114 113 115 116 117 
116 120 117 117 118 117 117 117 113 114 114 116 120 120 118 116 121 122 123 
122 125 123 124 124 126 126 127 127 125 124 121 119 118 117 118 119 122 118 
117 114 112 114 119 122 121 119 116 118 117 117 119 120 120 121 117 114 115 
119 119 119 117 113 113 114 115 113 114 114 113 112 111 113 115 116 117 119 
115 117 118 115 116 117 116 114 117 120 121 124 123 122 121 120 122 122 120 
118 119 116 118 119 119 119 119 118 118 116 115 112 111 114 115 116 117 119 
121 120 120 120 119 120 122 125 124 124 123 122 122 119 118 118 118 118 117 
115 114 116 116 109 107 111 108 113 117 120 118 121 123 117 114 115 115 115 
118 115 116 116 118 119 120 121 121 117 117 118 119 116 113 111 110 109 110 
111 114 116 120 116 115 115 117 114 113 116 117 114 116 116 118 122 123 123 
122 121 119 121 119 118 117 114 116 119 121 118 116 114 109 105 105 106 109 
112 113 115 117 119 118 118 119 118 115 117 121 125 125 124 121 120 119 117 
114 117 115 118 117 112 111 113 111 107 106 107 106 109 114 118 114 117 115 
111 111 112 112 113 111 110 109 112 114 116 121 120 120 118 117 117 118 115 
116 117 115 117 118 118 118 117 122 115 111 108 107 113 115 118 118 115 117 
113 113 112 115 119 120 120 119 121 120 120 119 116 115 115 116 116 113 111 
105 104 103 106 109 113 115 113 112 114 112 109 109 109 111 114 119 123 124 
121 117 116 118 115 115 117 115 114 115 109 108 107 106 105 103 108 108 108 
113 117 116 115 113 113 114 113 112 113 112 113 113 115 114 114 117 116 116 
116 116 117 122 114 116 120 120 119 119 119 119 117 120 114 113 116 117 108 
109 109 111 112 112 110 113 113 113 116 120 120 120 120 118 116 115 115 114 
114 115 115 113 109 105 102 103 107 109 111 112 109 107 108 107 106 106 108 
110 109 112 117 120 119 115 116 119 116 114 115 109 107 108 109 110 108 105 
105 102 104 107 112 119 121 119 116 112 112 112 111 113 114 117 118 115 112 
109 111 113 113 114 115 115 115 115 110 111 112 114 115 117 116 115 115 114 
110 110 113 114 108 110 108 110 109 109 109 113 115 115 117 119 121 122 121 
121 119 116 117 115 114 115 115 114 113 113 110 109 111 110 111 110 106 104 
109 109 108 108 108 108 107 113 114 115 116 113 112 114 113 113 111 107 105 
106 106 108 108 108 108 106 108 112 116 121 122 117 113 112 113 114 112 112 
115 116 113 107 107 107 107 111 110 109 111 109 104 105 105 106 108 110 110 
110 109 110 106 107 105 104 106 107 112 115 111 110 107 107 105 108 113 116 
116 117 114 115 114 114 115 119 123 118 116 116 115 112 115 113 110 108 109 
107 105 104 102 102 107 111 109 106 103 105 104 108 108 111 110 111 110 108 
108 109 111 111 111 110 112 109 108 111 110 109 109 110 114 116 119 117 114 
111 112 115 115 113 113 114 111 109 107 109 109 111 109 106 107 105 101 104 
106 109 109 107 107 105 104 104 100 104 105 106 108 110 113 113 109 107 106 
106 105 107 115 118 116 112 112 109 106 109 111 115 116 111 108 109 107 109 
112 112 111 108 107 106 106 107 106 103 105 107 112 109 109 108 107 106 104 
105 104 104 101 100 104 108 110 112 108 107 104 103 103 107 106 107 109 109 
114 112 114 112 112 110 109 109 109 108 107 106 103 105 104 109 108 109 107 
105 106 106 107 109 111 114 112 109 109 108 103 99 99 111 115 113 113 115 
110 112 112 108 105 103 103 107 112 113 110 106 106 105 104 106 106 106 106 
104 101 101 103 106 108 109 109 106 105 107 109 104 102 98 99 101 103 104 
105 103 101 102 102 103 100 98 98 97 99 102 104 107 106 104 101 100 101 
105 103 104 104 105 105 104 103 103 105 105 105 104 106 106 105 103 103 104 
103 104 101 99 98 101 105 104 105 107 109 110 112 110 110 107 101 102 105 
112 117 112 110 110 111 110 109 105 101 102 101 104 108 106 104 102 103 105 
104 105 107 105 106 103 102 104 106 107 108 106 108 106 104 104 104 101 101 
94 91 94 98 101 104 102 101 102 100 101 102 100 98 99 100 99 97 98 
99 100 100 102 100 102 102 100 99 100 100 101 99 96 95 96 101 101 102 
103 101 101 100 99 99 98 100 98 99 99 99 101 103 106 107 106 105 110 
109 109 107 104 101 106 110 103 100 97 103 103 104 104 105 105 106 103 104 
103 103 104 105 104 102 102 103 102 101 96 97 100 104 104 106 106 104 104 
104 102 101 101 99 90 88 93 96 100 102 103 105 106 104 102 100 96 97 
100 101 102 100 99 94 93 95 100 100 100 100 98 97 98 95 98 96 93 
90 90 90 93 99 102 103 103 102 100 97 96 96 99 96 97 96 97 99 
102 101 101 103 108 106 108 106 102 103 104 106 104 104 103 92 92 95 100 
102 99 96 98 98 97 98 100 98 99 98 100 102 101 99 97 97 98 96 
100 103 107 102 101 98 96 96 99 98 95 95 99 101 100 103 105 104 104 
104 100 94 93 93 93 95 99 98 96 91 93 97 98 99 99 99 99 98 
97 95 95 93 95 95 97 98 99 102 100 100 101 102 100 98 97 96 97 
99 98 96 96 97 98 98 96 96 98 99 102 105 106 106 104 106 108 105 
105 85 89 94 99 101 98 96 95 96 95 94 97 98 94 92 93 93 94 
96 98 98 97 96 100 103 102 99 96 95 93 93 94 94 96 97 97 99 
100 104 107 102 101 101 97 91 90 89 89 92 93 94 92 91 93 96 96 
97 96 98 98 94 94 97 99 98 97 97 96 95 93 92 91 93 92 95 
96 96 93 91 92 94 95 95 94 94 97 97 92 93 94 95 94 96 103 
106 105 105 102 99 95 88 91 91 90 92 91 89 91 92 93 95 94 94 
92 89 88 89 91 96 96 94 93 91 93 92 91 90 87 88 89 90 95 
99 101 103 98 99 96 97 97 96 95 93 90 89 90 89 88 88 92 94 
94 92 94 97 96 94 90 90 88 90 91 92 93 90 88 91 88 84 84 
86 91 94 94 96 99 99 95 94 92 92 93 94 94 95 90 86 89 91 
89 89 92 96 99 104 104 103 103 102 103 88 86 87 87 87 87 87 88 
87 86 89 90 93 91 89 90 91 93 94 92 92 91 93 96 96 92 91 
88 86 86 90 95 99 102 103 100 97 92 92 93 91 91 91 91 91 91 
92 90 91 94 96 98 98 96 94 92 89 87 86 84 85 87 87 86 84 
82 86 87 84 85 86 92 99 100 98 97 97 96 97 96 94 94 96 95 
93 90 90 92 94 93 92 95 94 96 101 100 99 97 98 97 82 82 84 
84 84 84 86 86 86 86 85 87 89 90 90 92 92 94 95 93 95 96 
98 98 95 92 91 89 86 85 87 86 90 94 98 97 93 88 88 88 89 
91 92 94 93 93 93 94 95 98 98 98 98 95 92 91 91 86 80 79 
80 82 83 84 81 80 82 83 80 85 86 91 94 92 91 92 96 95 95 
97 96 97 98 95 91 90 87 87 88 91 93 95 95 98 98 97 96 95 
92 91 73 78 79 81 84 83 83 83 82 80 80 81 85 85 87 88 88 
89 90 90 92 95 94 96 96 92 90 86 85 84 82 81 82 86 93 92 
89 87 86 89 93 94 95 94 93 92 92 92 93 96 98 94 93 92 90 
86 83 82 77 78 78 79 79 81 80 78 81 83 83 82 85 90 94 92 
88 89 88 93 94 96 95 96 92 95 90 87 86 90 91 91 90 92 95 
97 100 98 96 95 95 98 66 71 75 77 79 80 82 84 87 85 85 84 
83 84 80 78 81 82 84 82 83 86 91 92 91 91 89 86 85 84 85 
82 84 85 88 86 86 85 87 88 91 93 95 96 93 90 87 86 90 92 
91 89 89 91 89 88 83 84 81 80 80 79 79 79 78 78 79 81 83 
83 84 87 89 88 86 87 85 88 85 85 87 88 87 85 85 84 84 86 
87 88 90 91 92 89 88 87 84 85 83 83 65 69 71 75 75 75 79 
83 86 86 85 81 79 78 76 74 76 82 83 80 79 78 82 84 86 89 
88 88 89 90 90 86 87 89 88 85 86 85 83 81 84 86 88 88 89 
87 85 82 83 87 85 83 81 79 80 80 79 80 77 80 81 81 82 81 
78 75 74 77 79 80 81 81 81 83 82 82 80 81 78 76 76 80 80 
79 76 72 73 78 81 83 85 86 89 88 86 82 80 80 76 74 67 72 
74 75 77 78 79 81 83 84 85 81 80 77 71 71 74 78 78 77 77 
74 75 76 78 80 83 83 86 86 85 82 83 85 83 84 87 86 86 84 
83 82 85 86 83 84 84 80 80 81 80 78 75 74 74 74 77 78 81 
80 81 79 80 79 74 71 72 74 77 81 83 83 81 81 77 77 76 80 
79 78 79 79 77 78 76 75 74 74 77 78 79 80 84 84 82 77 75 
76 74 73 71 75 75 75 73 71 76 80 81 82 83 81 78 77 74 73 
73 74 74 73 73 75 79 77 77 79 76 77 76 75 77 76 75 79 81 
82 86 84 83 84 85 84 83 83 82 80 80 74 74 75 76 76 71 71 
71 69 70 74 77 80 81 77 75 73 73 72 74 77 79 82 82 83 81 
82 76 77 77 81 81 80 77 77 78 77 77 76 72 73 74 76 74 79 
80 78 78 75 72 72 71 70 75 77 77 76 75 73 76 77 78 79 81 
81 79 76 73 69 68 70 71 72 70 74 77 75 75 76 75 74 74 75 
75 75 76 79 81 80 82 79 81 84 84 82 80 81 80 79 78 75 74 
75 72 70 69 71 72 70 68 67 70 75 78 76 74 72 72 72 75 76 
79 80 79 80 81 80 79 76 72 74 74 76 76 78 80 79 77 76 73 
75 77 75 74 76 76 75 72 71 70 71 70 69 82 80 78 77 73 72 
72 71 73 73 76 76 72 72 72 71 71 73 71 72 73 74 76 77 77 
79 77 79 76 77 75 76 77 78 81 82 80 79 77 81 83 84 81 77 
77 79 77 75 73 73 71 72 71 69 67 66 67 67 67 73 73 72 72 
74 76 78 76 76 76 77 76 75 77 78 77 74 71 72 73 73 75 75 
76 75 75 77 73 72 70 69 68 70 71 72 69 69 70 76 80 82 85 
81 76 74 72 72 73 72 75 75 77 72 70 68 70 70 72 71 73 73 
73 71 71 71 74 75 74 76 74 72 73 75 76 76 78 76 74 75 74 
73 74 75 76 75 76 80 80 75 69 68 65 65 68 66 65 65 66 64 
68 71 72 69 72 74 77 76 75 75 77 75 74 74 76 74 77 76 74 
75 72 72 72 74 73 70 72 73 71 68 68 68 70 71 71 72 71 71 
70 75 75 80 77 76 75 74 72 71 71 72 72 72 71 67 63 64 69 
73 72 70 69 70 69 68 68 67 68 68 68 69 68 66 67 69 72 71 
69 67 70 71 70 69 69 69 71 72 73 74 75 71 71 70 67 62 64 
64 62 62 61 61 65 69 69 68 72 76 78 76 76 75 76 74 71 74 
76 76 78 76 74 73 68 66 66 68 71 74 74 74 68 65 65 65 67 
68 70 71 73 72 70 73 73 76 72 73 73 73 71 71 72 69 71 70 
63 59 62 63 68 70 70 69 65 68 68 66 68 68 70 71 68 67 65 
64 65 65 62 61 65 65 65 65 65 68 69 70 72 73 70 69 68 64 
65 61 60 61 67 64 63 62 60 64 62 64 67 67 67 70 71 73 73 
74 73 69 66 68 69 70 72 71 68 70 65 62 64 64 65 67 70 72 
64 60 60 63 64 67 67 67 69 67 65 64 58 50 65 66 70 72 70 
69 67 66 63 62 62 63 62 66 68 69 69 70 70 74 74 72 73 73 
70 67 62 61 60 61 62 60 60 62 63 61 61 62 62 63 64 64 65 
65 62 60 62 64 63 57 61 65 68 66 62 64 64 65 63 63 65 65 
65 67 68 67 69 69 68 69 66 59 59 61 64 67 65 65 62 60 63 
64 65 67 70 69 64 63 62 66 67 71 73 69 66 63 60 58 53 50 
58 61 65 70 71 69 68 66 65 64 67 65 63 66 66 66 64 66 68 
75 75 72 73 74 70 70 66 60 58 59 57 60 59 63 63 59 57 59 
62 61 60 59 62 61 60 61 64 66 65 61 63 64 63 63 60 62 60 
59 60 59 58 57 58 60 63 63 67 67 69 68 66 62 59 62 63 69 
68 67 64 62 59 62 68 68 69 70 64 62 61 59 60 64 67 68 67 
65 62 58 54 52 57 57 63 69 69 66 62 62 66 66 68 69 65 68 
68 67 64 63 61 65 67 67 68 71 72 70 66 60 54 55 56 57 59 
60 57 56 56 56 59 57 55 56 59 59 59 62 62 59 58 58 57 60 
60 62 59 60 61 63 63 61 57 58 57 61 62 63 66 66 65 65 61 
59 58 61 63 67 66 66 65 62 60 58 60 61 66 66 63 62 62 61 
60 60 62 63 65 63 61 60 59 62 63 62 66 68 68 65 62 60 64 
67 70 68 66 65 66 63 62 61 62 64 65 67 69 69 70 70 65 60 
57 54 50 52 56 54 53 52 57 55 57 56 53 51 52 54 56 59 62 
60 58 58 54 57 59 62 61 60 61 63 60 55 54 60 62 65 67 69 
67 67 68 67 63 60 59 62 60 60 62 63 63 62 61 61 59 59 60 
60 59 58 59 59 58 58 58 63 64 64 63 55 53 53 63 64 66 63 
63 60 57 57 63 65 69 65 63 62 61 63 60 59 60 60 62 64 64 
62 66 66 64 59 57 55 53 55 55 54 55 55 57 57 55 52 52 51 
50 51 55 58 58 57 56 55 54 57 60 60 63 59 59 61 62 58 60 
64 65 69 68 65 65 66 68 68 69 65 62 58 53 53 56 56 55 55 
56 58 57 56 54 56 54 55 54 52 51 50 54 60 63 62 61 52 49 
44 63 66 67 66 60 58 54 55 62 66 70 66 62 60 59 61 57 59 
59 57 59 60 57 54 57 61 63 57 54 53 55 57 56 55 59 58 56 
56 52 51 51 53 56 56 59 61 60 59 59 59 59 59 62 61 60 58 
60 61 63 60 61 68 72 72 69 66 65 66 66 67 67 64 61 56 52 
52 51 52 51 50 50 52 52 52 52 53 55 57 56 54 54 53 56 62 
65 64 65 57 47 43 
