P2
#output from hocrtest
60 60
255
253 249 255 248 249 251 248 249 253 254 254 252 252 250 255 248 246 248 240 
230 242 246 242 251 252 255 250 243 248 251 254 251 255 255 255 255 255 249 
247 250 241 247 247 254 252 250 247 250 244 238 239 245 247 244 240 254 255 
255 252 224 255 253 252 250 250 250 246 249 252 253 252 249 249 249 251 249 
248 247 244 243 247 248 250 250 252 251 248 245 247 249 252 253 254 254 254 
254 252 247 247 248 242 245 248 253 251 249 245 246 245 242 240 242 245 248 
245 251 253 253 253 250 255 253 251 248 244 245 245 245 247 246 246 244 243 
247 250 245 238 238 236 239 242 244 248 248 248 247 245 243 243 243 247 250 
251 251 251 252 252 251 247 246 242 245 248 248 248 244 241 239 239 239 240 
239 244 242 242 245 247 250 251 253 248 248 245 242 240 237 240 239 239 236 
236 235 238 241 245 240 239 239 239 242 242 242 244 242 243 242 239 239 241 
243 243 244 244 244 244 245 246 246 243 243 244 243 248 246 243 239 234 234 
235 236 241 242 248 246 241 239 243 243 243 246 241 240 239 235 236 238 237 
234 234 232 234 233 236 236 235 234 236 235 239 238 240 241 242 241 242 241 
237 234 235 236 237 240 240 241 242 244 244 241 239 241 243 244 246 247 244 
242 231 228 231 237 243 244 249 246 247 243 241 242 240 237 229 231 234 233 
233 234 234 232 234 235 236 233 236 235 231 230 228 226 229 228 229 232 237 
237 237 237 234 233 233 236 238 237 237 237 237 238 238 232 232 234 236 238 
236 232 233 231 229 225 225 234 236 240 244 245 244 240 237 236 236 234 228 
232 234 232 230 231 232 231 231 234 237 238 229 227 226 227 223 221 220 224 
222 222 222 229 231 232 231 232 235 233 235 235 228 229 226 226 225 219 224 
232 237 239 241 238 235 234 229 226 227 232 235 239 243 238 232 229 224 229 
230 228 228 227 229 224 225 222 222 224 225 231 233 234 230 228 229 227 224 
222 221 223 224 221 223 221 220 225 227 229 229 231 230 231 228 227 223 225 
223 219 223 229 230 236 237 237 236 230 228 226 224 229 231 232 237 233 228 
224 224 227 227 224 221 221 220 219 217 214 216 216 217 225 228 229 226 224 
220 220 219 217 219 224 228 226 223 220 218 218 220 219 220 224 223 220 226 
224 219 219 220 217 218 221 220 227 232 233 231 230 229 226 227 231 230 226 
227 226 227 225 221 220 219 215 216 217 214 212 212 209 211 213 214 215 218 
218 219 220 217 216 215 216 215 219 225 226 224 225 222 218 218 220 219 218 
219 218 219 218 218 220 219 219 222 223 222 221 224 227 227 227 222 220 220 
225 224 223 220 215 215 212 211 214 215 210 209 210 206 206 210 211 212 212 
213 211 213 212 214 216 212 211 210 211 212 216 221 225 225 224 224 223 222 
219 214 214 212 213 213 212 209 208 209 211 220 223 225 222 221 221 222 220 
209 215 214 220 220 220 215 211 216 214 213 219 219 217 211 209 208 207 208 
211 210 211 210 208 207 205 204 208 206 204 204 205 206 214 219 223 219 216 
221 227 222 218 215 215 211 207 206 204 207 205 207 209 217 218 218 216 215 
214 215 217 208 201 207 210 207 211 213 213 216 214 211 213 213 212 209 209 
206 206 207 211 209 210 208 206 208 203 204 205 205 205 205 205 205 208 211 
213 208 209 216 219 218 217 213 214 210 206 203 203 204 203 203 205 211 210 
210 209 208 205 212 217 214 207 206 204 199 202 207 208 204 207 206 208 210 
209 205 201 200 200 198 198 196 202 204 205 210 208 204 200 199 198 200 202 
200 203 206 205 201 206 213 215 215 215 212 206 203 202 199 198 201 200 201 
202 206 207 205 205 203 203 207 210 212 210 209 206 199 196 202 199 198 200 
202 204 205 201 204 200 196 194 193 196 197 199 201 203 206 205 201 200 201 
202 203 199 196 196 196 195 193 192 197 197 195 194 196 192 196 196 197 198 
198 194 195 196 198 200 199 198 197 200 203 208 205 199 199 199 198 195 198 
196 193 194 197 198 197 193 201 198 193 192 192 196 199 198 200 202 199 197 
193 197 198 194 200 196 191 195 196 195 194 194 197 196 192 190 187 185 189 
192 192 193 192 191 193 193 193 192 191 193 195 197 200 202 201 196 195 201 
194 190 189 189 183 185 184 192 197 201 190 191 189 188 191 193 196 195 194 
191 189 189 188 191 193 192 192 192 188 192 196 195 197 198 199 195 194 193 
189 185 183 183 185 189 191 192 191 190 189 188 185 185 188 190 192 194 188 
189 190 192 186 190 187 184 181 184 185 189 194 201 183 187 188 188 188 188 
190 187 183 183 185 188 187 189 188 186 184 185 184 193 195 194 192 198 194 
191 188 187 188 185 181 181 183 185 185 180 177 178 179 186 182 185 183 183 
186 187 186 190 194 191 188 186 187 183 176 178 175 176 177 178 186 187 189 
186 184 186 183 179 174 173 176 179 179 181 184 183 179 180 181 184 186 188 
187 192 192 191 190 186 181 177 178 175 177 180 179 177 173 174 176 183 184 
180 176 174 179 183 186 190 191 188 182 180 180 176 176 175 173 174 175 177 
176 178 183 185 182 179 178 171 169 172 174 178 182 183 185 183 179 177 179 
183 182 183 182 187 186 186 187 186 179 173 176 175 177 179 182 174 172 176 
177 182 180 174 170 168 171 180 183 186 184 179 176 175 177 176 175 173 171 
170 171 171 174 173 177 181 179 178 178 172 169 175 175 178 180 183 185 183 
180 178 178 183 182 180 179 183 185 184 186 182 179 173 169 166 171 175 175 
173 174 178 184 185 175 168 164 163 168 170 172 175 177 175 174 171 169 169 
169 169 167 167 166 166 174 175 176 176 176 174 174 170 171 174 179 179 180 
183 185 183 183 180 178 178 178 180 174 174 174 173 171 166 165 161 160 164 
167 170 170 176 174 177 182 177 170 166 162 164 165 167 172 172 169 171 170 
167 168 169 169 170 168 166 164 160 171 169 168 168 168 168 171 170 171 175 
175 175 176 178 180 178 180 179 178 179 175 176 170 169 168 167 163 159 162 
162 165 166 165 173 177 178 180 181 180 178 173 168 165 165 163 167 171 170 
168 170 169 167 166 166 165 167 169 167 162 160 165 161 156 155 154 159 157 
159 160 165 166 164 167 168 171 171 170 173 172 170 169 169 161 158 156 155 
155 157 159 161 166 168 167 169 173 172 170 170 171 167 163 165 170 171 170 
164 164 165 163 162 163 164 165 168 166 166 168 169 166 168 158 155 152 151 
151 152 151 154 158 163 162 161 161 161 163 163 161 161 160 160 161 163 159 
154 151 154 157 157 159 162 164 166 168 167 170 167 164 160 158 157 157 159 
161 166 166 161 163 163 160 159 164 167 164 160 159 160 159 163 157 157 150 
148 150 154 152 150 150 149 151 159 160 156 157 154 155 155 159 157 155 155 
154 157 151 150 151 152 153 154 156 160 162 165 163 160 159 158 155 151 149 
148 152 152 154 158 159 157 158 159 158 158 160 159 158 157 157 158 155 157 
158 160 149 149 150 150 149 148 148 147 143 150 152 152 153 151 151 151 153 
154 154 152 151 149 149 146 144 147 146 146 146 149 149 148 150 152 152 154 
155 151 146 144 141 142 142 144 149 150 153 155 156 155 155 156 155 153 155 
157 154 152 150 149 147 147 147 146 144 145 141 144 142 146 149 148 149 149 
148 148 148 147 148 140 140 141 140 141 145 147 146 145 143 148 150 151 151 
152 151 149 151 151 148 145 140 138 135 138 144 144 148 151 153 148 145 145 
146 149 151 154 151 147 145 146 139 137 139 141 141 142 141 138 135 136 140 
141 146 149 149 145 142 141 142 141 139 138 136 136 135 137 133 135 140 144 
146 149 150 149 149 148 151 149 147 143 138 135 127 128 134 141 147 150 147 
141 139 141 140 140 142 144 145 144 142 142 136 132 132 137 136 137 136 137 
135 138 138 143 150 152 151 144 139 139 137 137 138 136 138 137 133 127 122 
126 131 134 142 146 144 138 139 140 142 143 142 137 132 130 127 128 135 141 
145 145 141 137 138 140 136 139 146 147 145 143 140 139 128 130 131 133 133 
132 133 133 132 135 137 142 148 148 145 140 136 136 137 135 131 133 134 133 
132 134 131 134 136 134 138 143 143 140 136 134 137 137 138 135 134 134 135 
139 140 143 142 140 136 134 133 135 133 135 145 146 142 141 140 140 130 131 
132 135 134 132 131 131 132 132 135 138 143 146 142 139 135 133 131 130 126 
126 130 132 134 132 130 135 135 135 136 134 132 132 132 132 134 135 133 135 
134 133 132 136 139 139 139 132 129 132 132 133 135 136 139 138 132 124 117 
113 125 124 125 130 130 129 127 128 127 122 126 131 134 136 135 135 132 130 
128 124 120 121 122 127 129 125 126 130 130 129 129 128 126 127 128 128 125 
124 124 125 128 129 127 131 135 136 133 131 130 133 133 132 135 136 137 135 
126 117 113 108 119 121 122 124 125 126 126 124 118 116 117 115 118 120 119 
123 125 124 124 121 116 115 119 122 123 123 122 121 123 122 122 123 122 123 
124 125 123 121 126 123 124 127 130 129 128 130 129 128 128 134 137 134 131 
128 131 127 124 117 111 106 118 118 115 118 122 124 125 125 119 117 118 114 
114 114 113 117 120 118 118 112 109 109 110 114 117 116 117 119 120 117 116 
118 118 117 118 122 124 124 125 125 124 123 123 121 123 125 125 125 125 126 
130 128 123 119 120 119 119 115 114 112 116 117 114 117 117 117 119 119 115 
113 112 108 111 113 112 113 111 110 112 109 109 107 109 113 117 116 117 116 
116 115 115 117 116 112 114 115 119 119 121 124 122 120 120 116 117 121 124 
125 124 121 120 121 118 114 114 115 111 111 120 121 115 112 106 104 108 111 
112 113 112 110 107 107 109 110 109 110 112 109 107 108 107 107 111 112 114 
119 119 118 119 118 116 117 116 112 113 115 117 117 116 115 111 109 104 109 
108 110 113 114 115 111 111 113 112 115 117 116 108 110 115 115 112 113 114 
109 105 104 104 105 105 103 106 109 111 110 112 114 115 115 114 115 112 111 
109 108 110 114 114 113 113 115 117 117 114 111 109 111 113 108 106 105 104 
105 101 103 100 101 103 101 100 101 105 108 108 109 111 110 104 108 114 114 
102 101 99 100 95 99 95 93 93 92 100 103 102 101 104 109 112 115 112 
110 108 107 102 97 104 107 106 106 103 100 102 105 106 103 100 100 100 98 
96 95 93 95 97 97 95 97 98 97 95 95 99 101 103 110 110 111 107 
106 105 95 97 97 98 100 97 99 97 93 93 89 95 97 100 100 101 102 
104 103 105 105 104 96 90 85 87 95 96 101 101 98 99 97 95 96 96 
101 102 99 98 98 97 100 98 100 99 96 96 95 93 96 98 99 103 109 
110 111 109 103 101 99 99 98 95 95 94 93 94 95 94 93 95 95 97 
97 97 96 91 90 91 95 98 94 90 87 88 92 95 95 100 98 99 97 
93 90 92 98 99 95 92 94 96 93 91 90 95 96 97 94 95 95 94 
97 100 102 104 105 102 99 94 90 99 98 92 91 92 91 91 91 86 84 
82 81 84 88 90 87 91 90 90 90 91 90 89 86 90 95 96 95 95 
96 96 96 93 93 92 95 95 94 92 92 89 87 85 88 90 92 93 93 
89 91 89 93 95 99 101 103 102 102 95 97 97 94 87 87 88 88 87 
84 83 83 82 83 84 85 86 87 87 86 86 90 90 86 86 89 95 98 
95 93 91 94 97 95 92 90 89 89 88 93 92 90 87 84 80 83 86 
87 86 86 84 81 83 85 90 92 93 96 98 94 83 83 91 91 87 84 
81 83 85 84 82 81 82 84 84 83 84 83 82 82 80 85 84 81 86 
88 88 86 84 80 77 76 77 79 77 81 85 85 85 85 86 88 85 82 
77 75 78 75 72 75 77 76 80 85 89 92 91 94 89 82 76 79 72 
75 80 82 81 88 90 89 87 82 77 79 77 72 75 78 75 74 76 79 
77 74 77 80 78 79 82 84 82 82 79 79 77 78 77 74 75 78 84 
87 81 77 75 72 71 72 70 72 72 77 78 84 87 89 87 87 83 81 
75 78 58 58 65 74 80 83 85 83 81 76 74 76 75 73 73 71 69 
66 67 68 69 70 72 72 72 77 82 79 78 77 76 74 71 70 69 68 
69 76 82 82 76 74 74 70 69 67 66 69 72 74 79 83 81 81 81 
79 75 73 71 68 68 72 74 74 77 81 83 82 77 72 73 72 72 70 
67 63 62 62 64 65 68 71 72 75 78 83 82 76 70 65 69 69 71 
70 71 70 69 70 72 75 75 73 69 69 68 68 64 66 68 69 72 71 
69 70 74 78 76 74 73 73 68 71 70 71 72 73 72 72 66 63 61 
61 65 67 66 62 59 60 58 59 63 61 63 72 85 87 84 76 66 60 
66 67 68 71 73 74 72 68 66 66 68 67 69 69 67 67 65 64 64 
70 69 65 63 60 65 73 77 78 74 74 67 67 65 66 64 65 64 65 
64 62 60 62 64 65 65 63 62 60 58 57 58 55 54 57 62 62 64 
63 61 58 59 61 67 69 71 72 68 64 58 58 62 64 67 64 61 61 
68 65 62 63 61 61 62 61 62 67 72 75 72 74 65 63 61 59 57 
58 54 54 55 59 58 60 61 62 61 61 58 57 54 54 52 51 46 47 
51 55 58 60 53 51 54 58 64 67 67 64 62 57 54 51 56 64 63 
61 61 63 65 63 64 65 61 61 64 60 58 60 63 64 65 62 62 64 
62 59 56 55 49 50 51 57 56 54 53 56 56 58 56 54 52 50 46 
47 44 44 49 56 60 61 59 56 54 51 53 57 54 49 49 48 49 51 
53 57 58 57 60 60 59 59 61 62 61 57 56 56 54 56 57 58 62 
60 58 55 55 50 49 50 47 46 44 46 44 43 43 47 49 49 51 52 
51 53 51 51 45 42 40 51 58 51 61 59 56 53 47 50 47 40 39 
43 47 47 48 55 56 53 54 56 54 55 57 64 58 53 53 51 49 47 
49 50 52 53 52 52 51 46 45 46 40 41 40 41 41 41 42 45 50 
49 51 52 52 51 50 49 42 39 38 45 52 59 60 55 55 46 43 44 
43 40 39 41 45 46 48 50 48 47 47 49 48 48 49 49 44 37 37 
40 46 44 43 46 50 50 51 51 52 47 42 38 37 36 34 30 34 36 
36 39 44 47 49 50 49 53 51 45 38 35 34 35 36 34 40 39 40 
38 36 38 39 42 40 38 35 34 36 37 41 45 46 47 47 42 40 35 
37 34 32 37 35 39 40 43 48 52 48 47 49 44 38 38 38 37 33 
35 33 33 31 32 37 36 43 50 46 46 43 39 36 35 32 33 36 35 
32 36 35 35 37 39 43 45 45 43 35 32 29 32 35 37 37 40 43 
41 40 39 33 30 27 26 27 31 35 39 36 33 40 39 40 37 35 37 
36 38 34 30 28 25 23 23 29 32 36 38 38 37 32 31 33 38 36 
35 39 41 40 35 36 36 38 39 41 43 42 42 36 34 31 32 34 34 
36 37 37 38 37 35 31 30 29 27 27 33 35 33 30 28 37 35 34 
34 35 38 36 33 29 24 23 21 21 23 32 35 32 33 28 29 29 32 
32 34 36 42 43 44 39 37 38 38 34 34 36 36 36 36 33 31 28 
30 31 34 36 36 35 35 36 36 32 31 27 23 21 26 29 29 31 28 
34 33 32 31 32 36 34 32 31 30 30 29 27 31 36 34 28 29 26 
26 28 31 33 33 34 39 41 39 39 42 38 37 31 31 31 33 32 31 
30 28 24 25 27 27 29 31 30 31 33 31 27 27 24 26 27 29 30 
31 27 23 26 24 23 26 28 30 31 31 30 28 26 22 21 22 21 21 
21 24 25 24 28 31 32 32 31 34 36 39 39 41 39 35 32 29 26 
28 25 22 22 23 23 25 23 22 26 27 25 26 26 27 25 25 25 26 
28 29 27 28 24 25 21 24 26 30 31 32 31 27 25 27 27 23 20 
20 20 21 20 23 21 22 22 27 28 32 32 35 39 40 43 45 46 44 
37 30 25 25 23 21 21 24 23 23 21 24 26 30 29 28 26 24 24 
25 28 28 27 29 31 30 26 24 
