P2
#output from hocrtest
50 50
255
249 247 247 241 245 255 253 247 251 251 253 255 253 252 250 250 247 252 245 
231 242 241 235 244 241 251 252 249 253 255 252 250 253 255 253 255 251 249 
254 255 241 250 249 250 249 249 246 238 240 230 245 248 245 243 246 254 253 
250 250 249 249 250 252 251 250 250 247 250 246 243 245 244 240 244 242 249 
250 251 252 254 252 252 252 254 252 251 248 246 248 251 250 250 250 251 248 
246 245 236 240 239 242 243 243 246 247 250 248 246 246 245 242 240 239 242 
240 239 238 239 239 246 246 246 246 246 245 246 246 245 247 247 245 243 240 
245 245 243 239 238 240 237 239 245 246 244 242 241 240 239 240 236 243 244 
245 242 241 243 243 243 242 241 238 239 240 239 234 232 232 232 231 232 234 
233 237 238 237 242 240 238 237 240 238 237 237 241 239 237 238 243 241 238 
238 237 239 236 237 237 239 242 243 243 233 231 231 228 228 230 232 235 237 
237 236 235 233 234 229 228 228 231 230 229 229 227 230 231 233 234 232 229 
225 227 234 233 238 241 238 234 234 238 235 235 237 238 237 231 229 232 231 
228 224 218 226 224 226 226 226 224 227 233 236 236 235 232 231 230 228 225 
221 221 222 223 223 227 231 231 232 234 230 233 226 227 232 234 238 242 238 
238 231 225 227 227 232 233 230 229 228 232 231 227 221 217 222 221 224 224 
227 227 227 228 232 229 229 226 226 224 221 217 212 214 215 219 221 225 228 
225 226 227 223 221 220 223 226 229 233 235 234 233 231 226 224 225 225 227 
223 219 216 219 220 215 213 218 218 220 223 224 223 220 220 223 222 224 225 
228 228 224 219 216 216 218 215 217 222 220 219 219 219 222 218 216 216 221 
221 225 227 228 228 227 222 216 222 224 229 223 219 216 214 218 215 211 211 
213 217 219 223 229 220 218 217 220 218 221 223 225 225 223 216 211 209 211 
206 210 215 217 216 216 215 214 213 213 215 223 220 222 220 220 222 223 217 
216 220 221 225 219 216 217 213 214 213 213 213 214 210 211 210 209 203 207 
208 206 208 216 217 219 223 216 209 204 201 200 197 200 208 215 215 216 212 
215 216 214 216 214 210 204 210 212 214 211 209 208 212 215 218 219 217 213 
207 208 208 208 213 214 206 204 202 198 196 197 200 196 198 206 206 207 213 
209 199 198 195 194 194 193 198 204 209 208 210 212 217 216 216 212 211 207 
207 206 210 207 203 201 200 202 206 208 205 199 200 199 201 203 201 198 202 
199 194 193 194 198 199 197 194 199 203 206 206 203 198 194 191 196 193 190 
196 199 203 201 203 204 205 203 205 206 202 199 200 201 199 197 196 196 196 
199 203 204 199 197 195 191 191 192 196 194 192 191 189 191 195 198 200 198 
198 197 199 198 194 195 193 191 191 191 189 189 194 196 198 197 199 198 197 
197 196 198 198 199 198 200 194 190 184 185 194 198 201 196 195 196 193 194 
190 188 194 195 191 191 189 189 194 195 189 188 190 187 187 182 181 184 186 
190 192 190 187 185 186 189 190 190 188 188 191 192 197 199 200 198 189 187 
187 187 186 185 187 191 192 191 185 186 187 186 186 187 191 193 188 188 188 
188 185 185 176 175 177 179 177 178 182 185 189 190 190 189 186 181 183 186 
188 186 184 186 189 188 191 187 189 183 181 184 182 182 181 180 177 180 186 
188 179 178 181 181 181 183 186 190 182 180 182 183 181 182 179 179 179 178 
177 175 174 176 183 184 188 187 180 178 177 181 181 181 173 176 183 186 184 
180 176 170 173 179 176 173 169 172 170 173 179 181 176 172 174 176 174 175 
175 176 184 182 175 177 180 181 180 182 180 172 170 172 169 169 172 173 173 
172 174 174 176 181 180 179 178 180 181 181 181 178 172 167 169 168 168 167 
167 165 166 167 171 174 174 174 177 178 173 169 164 161 175 172 163 167 171 
174 175 172 171 171 171 170 168 168 164 165 166 168 171 172 174 175 177 176 
172 172 173 172 171 170 169 167 167 168 165 165 164 160 160 162 160 165 171 
171 172 173 170 167 165 161 173 167 161 159 162 168 168 166 168 175 169 168 
165 161 159 161 170 171 172 173 170 167 166 168 169 169 168 166 166 166 165 
167 165 165 162 159 159 158 159 161 163 164 167 169 169 171 171 171 168 172 
157 154 152 152 152 152 147 150 157 162 155 151 150 155 156 158 163 168 169 
165 161 158 155 157 161 161 161 162 162 164 165 167 166 162 160 154 154 155 
154 159 160 160 160 161 163 165 165 163 162 161 146 148 147 150 149 145 141 
141 148 151 145 151 151 152 152 157 162 166 170 166 153 152 151 151 150 152 
156 155 156 160 163 163 161 156 152 153 148 149 149 155 153 151 150 154 154 
155 153 156 159 162 140 144 148 150 145 141 140 134 140 142 135 141 141 146 
148 147 151 154 155 153 152 151 152 152 148 148 149 151 154 156 161 159 155 
149 144 146 147 145 142 143 141 144 147 150 152 148 145 146 146 143 140 145 
148 152 147 141 137 136 138 138 136 136 138 146 144 142 142 142 142 147 148 
150 150 150 148 149 149 150 151 154 149 145 142 141 137 141 141 140 140 136 
135 137 147 151 150 145 143 138 136 135 139 141 147 148 143 138 135 135 135 
138 134 136 139 144 142 139 138 136 138 140 145 150 151 153 150 145 143 144 
143 144 143 139 134 133 139 142 144 144 139 133 133 136 141 143 142 140 139 
137 134 133 134 132 135 138 138 134 133 132 131 134 131 135 137 142 145 143 
135 130 134 139 144 145 148 150 148 143 143 142 140 139 134 126 128 133 135 
137 139 141 134 132 131 130 129 132 131 128 130 130 135 133 125 123 126 127 
127 128 128 131 128 129 130 131 134 137 143 136 131 122 126 133 137 140 141 
143 142 141 143 138 136 136 132 129 129 136 134 129 133 133 129 127 126 127 
128 127 125 128 125 126 133 130 117 117 118 122 123 124 127 129 128 128 128 
127 126 126 130 131 128 123 122 124 127 130 128 128 128 125 133 131 129 129 
127 125 127 131 131 132 132 134 134 134 131 131 126 126 123 122 122 122 126 
126 116 114 113 116 119 120 125 128 128 128 129 126 122 120 123 128 129 123 
121 120 120 121 121 122 121 119 123 120 116 118 119 118 117 121 125 124 128 
124 126 130 127 119 114 110 114 117 116 120 127 127 112 112 107 104 103 100 
101 109 118 119 120 122 121 121 121 122 121 118 115 112 110 114 117 124 125 
118 115 118 113 115 115 115 117 119 121 121 122 123 122 123 123 113 109 111 
109 114 107 110 113 113 105 106 106 106 103 102 103 104 110 114 115 118 118 
116 114 114 112 109 109 106 105 108 114 121 114 111 117 114 111 112 110 111 
110 113 114 111 109 106 106 106 119 116 112 107 109 108 106 107 104 103 101 
99 100 102 99 100 100 101 107 110 110 109 110 108 108 107 109 109 105 104 
103 102 99 102 97 103 107 105 105 108 107 108 106 104 103 103 100 98 96 
100 105 106 108 107 109 107 108 104 99 99 96 94 94 96 99 97 96 98 
102 103 100 103 104 103 103 105 106 105 101 100 99 98 98 94 93 96 98 
97 102 105 104 100 100 99 97 97 93 91 90 88 88 90 92 98 102 104 
107 104 95 94 86 85 87 88 90 92 94 96 100 97 93 95 97 96 100 
103 103 103 97 96 96 95 93 94 91 96 96 96 97 98 98 96 97 97 
96 95 93 91 89 80 80 83 80 88 100 104 102 101 98 100 87 88 87 
89 87 89 90 94 99 98 96 94 95 98 102 95 95 96 95 92 95 93 
89 90 92 92 95 94 93 92 90 88 89 91 87 91 93 88 84 80 77 
75 75 82 90 93 89 90 94 94 86 87 86 87 86 86 86 88 91 91 
89 92 94 96 96 90 90 87 88 93 95 92 84 84 85 88 91 90 89 
82 79 80 83 79 78 80 82 82 82 83 81 69 70 77 80 84 83 86 
88 92 85 87 92 91 91 88 84 87 85 83 82 84 89 89 83 78 74 
70 72 76 83 86 83 79 81 83 85 86 84 75 69 73 75 75 75 75 
79 82 83 88 87 81 76 79 83 84 84 85 84 88 77 79 81 83 85 
85 85 83 79 78 77 80 83 84 81 72 70 70 71 74 76 77 82 79 
78 80 78 79 79 74 72 76 77 79 75 73 72 75 77 79 83 85 83 
83 79 79 77 78 74 72 72 74 75 75 83 83 79 77 76 74 76 78 
79 80 79 74 72 74 72 72 73 76 84 84 81 75 69 69 67 64 65 
69 72 71 74 71 67 72 75 77 82 79 68 67 69 72 76 79 77 80 
65 66 66 69 76 77 74 68 68 69 71 68 68 67 66 70 71 69 65 
65 67 67 71 77 78 70 63 56 57 55 59 64 68 71 73 72 64 63 
60 57 56 60 58 60 60 61 70 71 71 72 49 50 51 59 62 65 64 
60 59 59 61 61 62 60 60 62 61 57 56 62 63 63 69 73 75 68 
61 54 54 56 56 62 63 65 67 63 59 55 51 51 52 53 55 58 58 
57 59 62 62 66 50 49 50 51 50 53 55 53 54 53 52 55 56 56 
59 58 56 55 52 52 54 56 58 58 60 61 58 57 58 60 57 60 57 
57 58 57 50 47 45 44 50 51 52 54 56 58 59 62 63 61 52 51 
48 46 48 50 53 50 50 47 46 47 48 49 52 54 52 52 50 43 45 
43 43 44 49 51 56 57 57 57 57 53 48 44 45 49 43 44 42 46 
49 51 52 52 54 55 53 54 50 49 49 51 47 46 48 48 48 47 45 
44 43 40 40 47 51 50 52 44 41 33 32 30 34 37 41 44 50 52 
49 45 45 49 44 35 35 38 37 38 37 42 45 47 49 44 42 50 51 
54 57 57 43 43 41 37 40 40 40 40 41 38 37 37 31 35 39 46 
44 40 37 34 32 31 35 35 33 37 40 38 34 36 35 39 42 45 42 
43 41 44 48 47 44 43 42 39 42 47 49 51 53 53 35 36 31 31 
35 36 36 36 37 33 31 31 29 32 37 43 35 34 38 36 36 37 39 
34 30 31 33 35 32 29 28 34 36 38 39 38 33 34 39 41 40 36 
32 30 34 41 44 43 36 31 35 35 31 28 36 38 36 29 28 26 26 
26 24 24 25 28 29 26 26 28 30 33 30 25 22 27 28 30 30 25 
23 26 26 30 31 33 30 26 28 26 30 26 24 28 32 36 39 42 33 
32 29 29 26 24 28 27 30 27 25 23 19 19 20 20 18 18 20 18 
17 18 17 16 17 16 17 22 24 22 23 21 21 24 24 31 30 30 30 
26 25 23 26 24 22 28 28 30 28 25 17 11 22 19 20 17 18 14 
21 21 22 22 20 14 13 14 12 14 15 16 14 15 15 13 12 13 15 
19 23 22 22 20 19 21 23 29 28 23 22 24 23 25 26 20 20 25 
27 28 31 25 23 21 15 13 17 14 13 9 14 19 19 21 20 15 11 
8 9 10 10 12 11 14 16 16 14 12 11 12 16 18 18 17 15 16 
12 13 14 18 17 17 16 18 20 17 16 15 19 23 24 21 22 21 8 
10 12 12 11 8 10 13 15 18 19 17 12 10 12 11 10 9 6 5 
3 8 7 8 12 12 14 16 15 17 17 17 16 14 14 14 17 15 14 
18 19 18 19 18 19 22 22 20 20 21 
