P2
#output from hocrtest
10 10
255
231 226 242 237 239 238 238 240 240 255 227 222 230 230 228 224 219 215 216 
215 193 193 192 193 199 205 205 205 205 212 184 183 185 183 190 193 194 190 
187 185 152 149 148 156 157 156 152 149 143 133 124 137 132 130 133 132 133 
127 121 117 102 102 101 99 104 103 100 103 105 104 80 78 78 84 82 80 
77 78 87 90 64 64 63 64 60 56 53 52 59 56 52 52 52 51 50 
50 48 36 46 36 
