P2
#output from hocrtest
60 60
255
253 249 251 246 255 255 252 252 254 255 255 252 252 250 250 249 247 248 245 
228 248 247 240 251 249 250 246 243 254 255 254 251 254 255 254 255 255 253 
254 255 245 250 249 254 253 253 245 249 242 234 233 239 242 239 239 250 251 
251 250 230 255 253 253 250 255 255 251 253 254 254 251 249 249 248 248 249 
247 248 251 248 253 252 251 253 252 250 248 245 252 252 254 254 253 253 254 
255 255 252 254 255 250 251 252 252 251 250 244 245 242 238 236 237 243 242 
242 248 249 250 250 250 253 253 247 250 249 250 249 249 251 251 249 245 245 
246 249 247 241 242 244 248 253 254 250 252 249 249 246 248 249 246 248 249 
250 252 254 255 253 253 251 250 250 248 255 251 249 245 242 240 237 237 240 
238 244 243 241 246 246 248 249 250 241 242 238 238 239 240 246 249 249 247 
247 240 239 239 243 243 241 242 248 245 249 248 245 244 244 246 244 245 246 
244 244 243 245 248 247 248 246 247 244 243 246 246 249 252 248 245 239 237 
235 235 239 238 243 243 240 240 240 244 243 244 237 238 236 230 229 235 240 
244 240 237 236 234 236 235 236 234 237 238 239 243 243 241 237 236 239 240 
238 237 237 238 239 240 242 242 242 243 243 241 238 240 242 243 246 249 248 
247 239 234 234 236 239 242 244 244 243 241 241 242 240 236 236 235 236 234 
231 235 238 237 237 234 236 234 238 235 234 232 228 226 229 233 231 234 235 
235 235 237 235 234 234 237 240 239 239 238 237 236 237 232 233 234 234 235 
235 231 234 235 234 231 230 234 236 241 245 242 239 237 237 237 235 234 230 
234 235 231 229 231 234 234 232 232 235 233 232 230 232 229 230 226 224 226 
225 225 226 231 232 233 232 231 232 231 235 236 228 226 224 227 229 224 225 
229 231 231 232 231 230 233 230 228 228 227 235 238 241 237 230 228 229 229 
231 229 226 226 224 224 224 222 224 225 226 233 234 229 229 226 227 231 227 
227 224 224 227 223 224 226 224 226 223 227 226 225 225 226 224 220 219 222 
222 218 217 222 227 228 229 227 227 226 228 227 223 225 230 231 231 228 223 
222 222 225 225 220 219 219 215 216 215 216 218 219 224 229 230 230 228 229 
225 226 223 221 219 220 225 225 225 222 217 216 217 216 216 222 222 222 223 
221 217 220 219 214 215 212 217 224 225 226 225 228 230 231 232 231 231 225 
221 214 215 217 214 216 216 212 210 215 212 213 216 216 217 217 219 220 224 
222 219 220 219 220 220 219 218 221 223 226 225 223 218 213 212 215 214 216 
220 218 218 215 216 218 219 218 219 218 218 219 222 224 223 224 222 220 221 
223 223 221 213 210 211 211 210 212 213 208 208 210 209 212 217 218 218 218 
220 218 222 221 219 219 216 213 214 215 216 216 221 224 222 222 217 214 215 
214 211 209 213 213 213 213 211 211 212 215 217 220 220 220 223 228 227 224 
216 214 214 217 218 217 213 214 219 215 213 214 215 214 206 205 206 206 209 
214 215 214 216 216 216 215 211 211 213 208 211 211 212 214 216 215 205 206 
211 212 214 211 206 209 209 207 206 208 208 207 208 210 213 214 213 214 217 
220 219 221 215 207 208 206 204 205 212 213 214 210 209 213 211 210 207 209 
208 207 209 212 213 209 211 212 215 210 207 204 203 204 204 205 205 204 203 
204 198 202 205 206 210 211 210 208 205 202 199 202 204 204 205 206 208 206 
205 206 207 208 215 218 216 209 204 199 197 198 208 209 203 202 204 207 209 
210 205 208 210 209 209 206 203 201 202 204 209 209 204 198 199 201 202 200 
200 202 203 200 198 201 207 210 208 209 208 203 200 200 197 198 200 199 201 
202 200 203 204 204 203 205 210 213 213 210 205 202 198 198 203 199 193 198 
201 196 204 201 209 211 208 206 206 203 199 196 196 199 205 207 202 197 196 
197 200 196 197 197 196 196 195 194 196 196 195 194 196 195 194 194 196 196 
193 192 193 194 193 196 198 199 197 197 196 201 201 197 192 195 192 193 195 
193 191 195 194 194 197 193 208 205 200 198 198 197 197 196 196 200 203 201 
194 191 191 190 196 195 196 198 195 193 190 193 195 196 195 194 195 194 194 
193 191 188 189 185 187 186 188 188 189 193 193 193 191 192 194 195 191 191 
189 187 189 191 188 189 191 195 200 207 192 192 193 191 190 190 190 191 191 
192 192 194 192 187 187 187 190 192 192 193 192 190 191 193 194 192 192 195 
193 194 189 188 187 186 188 189 188 186 186 185 184 186 186 188 190 192 193 
189 190 188 184 187 191 192 187 189 190 194 200 205 182 189 190 186 187 188 
186 189 187 189 189 190 188 185 184 181 176 178 184 191 190 190 187 192 190 
189 186 187 190 191 186 184 183 184 184 183 181 178 177 182 179 181 180 183 
186 188 190 191 190 188 187 185 190 189 185 189 186 188 188 189 179 184 185 
186 183 183 181 178 177 178 178 182 183 180 182 181 176 177 178 177 177 180 
182 189 189 187 185 184 184 183 180 177 179 183 182 178 175 176 175 182 180 
177 176 179 182 186 189 191 189 187 185 184 185 183 184 187 183 182 182 182 
171 173 179 181 180 177 179 176 174 174 177 179 181 179 179 176 176 176 177 
178 175 178 180 184 183 181 184 184 181 178 176 177 178 183 185 180 178 178 
179 187 182 172 170 173 178 184 188 192 190 182 180 180 180 180 179 183 180 
179 179 178 172 171 175 179 175 173 175 171 170 173 173 176 178 180 181 181 
180 177 176 177 180 178 180 185 183 181 182 179 175 173 171 166 169 174 179 
180 180 183 181 181 175 167 167 170 174 173 175 175 177 176 175 173 170 172 
172 173 169 170 169 167 172 173 172 173 170 168 167 161 165 168 174 177 178 
182 183 183 182 185 179 180 180 181 180 181 178 173 171 168 166 163 164 166 
168 169 174 179 178 177 178 175 172 169 167 171 172 171 172 171 170 169 167 
165 169 170 170 169 166 161 162 160 169 167 164 163 161 157 165 161 164 164 
168 170 172 176 179 178 179 179 179 178 178 177 174 170 167 166 164 160 162 
162 163 165 167 171 176 178 178 176 177 174 173 170 169 171 171 173 174 174 
171 170 168 167 168 168 166 163 164 161 159 155 163 159 158 156 154 153 156 
151 151 159 161 162 168 168 168 170 170 169 168 169 167 173 167 160 156 154 
154 155 160 161 165 168 168 169 169 169 170 169 169 167 168 167 171 171 172 
168 168 168 165 166 167 168 170 171 168 163 164 165 163 165 160 157 157 155 
154 151 147 145 150 153 159 160 163 161 162 161 160 159 159 161 160 165 160 
154 154 155 156 156 157 159 161 161 164 165 164 163 161 159 159 160 161 163 
164 165 166 165 164 162 161 161 166 170 168 167 168 164 162 166 163 163 160 
156 156 156 152 148 148 145 148 151 155 154 156 154 155 154 151 153 149 152 
154 155 148 145 149 151 153 154 157 160 161 161 159 156 151 150 147 148 149 
152 153 152 154 156 156 155 157 155 155 157 160 162 159 160 160 157 158 162 
162 161 152 153 153 149 146 145 144 143 140 146 149 150 150 148 151 153 149 
151 150 150 151 150 146 146 148 150 149 147 149 151 152 152 151 150 149 151 
151 150 147 144 143 144 143 143 146 149 151 150 153 151 150 158 155 156 156 
156 155 157 156 156 148 147 145 143 139 141 138 136 139 145 145 140 142 142 
144 143 142 140 143 140 141 143 142 143 147 150 147 144 144 149 149 151 150 
151 148 147 149 150 148 148 144 141 138 141 145 144 145 146 147 144 144 146 
145 146 147 150 149 147 144 143 138 136 137 137 136 137 139 138 137 137 138 
136 139 141 140 140 136 135 139 139 141 142 138 137 134 136 137 139 140 145 
146 147 147 145 147 150 152 152 150 146 141 140 132 138 138 141 145 146 144 
141 139 139 140 140 141 139 140 140 138 139 133 130 132 133 130 131 133 137 
138 140 140 142 145 145 142 139 135 137 136 136 140 141 139 136 132 129 124 
122 131 137 143 146 145 140 142 144 147 150 148 142 135 132 132 134 137 140 
147 144 142 141 139 138 136 139 142 142 142 140 137 137 125 127 129 129 130 
134 135 136 136 135 136 139 143 142 138 132 131 130 128 133 134 133 136 135 
132 131 127 130 134 135 137 140 140 138 138 139 143 144 145 140 136 136 135 
136 136 134 135 136 137 139 139 137 137 139 144 144 139 137 138 139 127 129 
130 133 133 133 133 135 132 132 133 136 141 140 138 132 128 127 125 126 125 
128 132 128 130 130 130 132 134 134 136 135 133 132 134 136 138 140 136 138 
136 135 132 133 136 136 134 131 133 137 139 137 137 137 140 140 134 130 126 
124 130 128 128 131 130 129 129 127 124 121 125 127 129 131 128 126 123 122 
125 123 120 120 121 123 119 117 122 129 133 128 129 128 128 128 129 131 130 
127 126 128 130 130 130 129 130 134 131 128 129 135 136 136 137 137 138 136 
128 121 120 116 126 125 124 128 127 125 124 120 115 113 116 114 117 117 116 
119 120 120 125 124 120 118 118 119 115 120 122 125 126 126 124 123 124 124 
124 127 124 123 123 124 124 127 128 128 128 128 126 126 128 132 134 134 133 
133 133 131 125 120 115 109 123 121 119 121 124 126 125 121 118 115 116 112 
112 111 115 114 115 115 122 120 117 116 118 120 120 121 117 120 120 119 119 
121 122 119 122 122 122 122 123 123 123 125 125 124 128 128 124 123 124 125 
129 128 128 126 127 127 123 119 116 115 121 119 118 120 119 121 121 118 115 
114 111 107 110 114 116 117 116 112 114 113 112 113 116 120 121 118 114 118 
119 116 117 122 118 114 115 116 118 117 116 116 117 120 118 115 118 123 122 
124 124 119 119 119 118 116 117 117 114 113 115 115 120 118 110 110 111 113 
114 113 112 111 109 105 108 112 114 116 115 108 109 112 113 115 113 119 117 
116 115 119 117 117 116 120 117 116 115 115 117 115 113 111 108 109 105 107 
109 112 114 114 115 111 108 109 108 113 116 115 113 110 113 113 116 116 110 
110 105 105 106 106 104 102 103 102 106 107 110 114 110 110 107 112 109 109 
107 104 101 107 108 111 109 110 113 116 113 112 114 116 119 114 112 107 105 
107 105 107 104 104 108 105 103 101 102 105 107 110 113 117 110 113 117 118 
107 103 103 102 100 101 100 96 94 94 100 102 101 99 103 108 109 111 106 
107 106 104 100 94 95 96 98 99 99 98 96 99 98 98 98 101 105 106 
102 100 98 99 99 102 102 103 103 102 98 95 98 101 104 110 111 112 110 
114 105 94 100 100 100 97 93 95 96 92 91 93 98 98 99 99 99 99 
100 97 98 99 102 98 95 88 89 92 96 97 98 97 96 93 89 90 95 
100 103 99 99 102 101 102 102 105 102 99 99 99 96 94 97 98 102 106 
110 110 112 112 109 111 97 96 94 91 91 92 95 97 93 94 99 95 94 
91 92 89 86 89 92 96 98 98 91 88 86 88 91 88 90 91 91 89 
86 88 91 99 98 95 95 99 98 98 97 98 98 96 96 98 100 98 96 
95 97 99 102 102 102 102 100 96 97 95 90 88 91 91 93 96 91 88 
90 88 89 90 90 87 88 89 91 94 90 92 89 88 91 94 98 92 91 
93 91 89 87 93 94 99 96 95 92 96 90 89 89 92 89 85 87 92 
95 96 94 96 96 95 96 98 100 101 101 105 94 94 87 85 90 91 91 
90 88 86 86 84 83 85 88 89 88 86 87 89 92 85 85 86 91 94 
95 94 93 95 93 92 91 89 91 96 92 92 87 90 89 86 87 91 88 
80 82 84 86 86 86 90 92 91 93 96 95 92 85 84 89 90 85 84 
83 87 88 91 88 87 87 82 81 79 84 84 84 83 82 86 82 77 79 
81 86 89 89 88 84 80 80 81 79 85 85 86 85 85 82 82 84 83 
81 85 85 80 77 78 78 80 82 87 90 92 92 94 90 85 79 78 74 
74 78 81 82 88 86 88 89 86 80 79 74 72 75 78 78 79 80 80 
77 73 73 75 76 81 83 85 83 82 78 76 73 75 75 76 76 78 78 
82 82 81 78 80 79 76 73 74 73 74 78 84 86 88 87 91 83 80 
76 77 66 64 66 70 72 78 80 83 79 77 74 73 70 71 73 72 73 
72 71 74 75 74 74 74 75 76 78 77 79 76 78 77 72 70 69 71 
72 74 75 80 78 77 76 75 73 73 69 70 72 71 74 80 79 78 80 
79 74 72 70 67 71 72 71 71 70 74 79 79 75 71 68 67 67 67 
65 62 64 64 66 68 71 75 75 77 74 76 77 73 66 65 68 66 69 
72 74 76 75 73 74 79 78 74 69 69 66 67 64 62 65 63 66 65 
63 64 70 74 74 72 71 70 68 69 67 62 59 60 62 63 60 60 57 
54 61 66 68 67 63 62 57 59 60 60 62 70 75 76 74 67 59 57 
62 65 68 71 73 75 76 75 74 74 72 69 69 68 68 66 62 61 61 
63 64 62 61 60 65 72 74 78 74 75 67 70 69 63 56 58 60 58 
58 60 57 58 64 67 66 66 63 61 56 55 56 54 53 55 60 61 62 
58 56 54 57 58 67 69 72 72 68 66 64 63 63 62 64 64 63 62 
64 61 59 59 59 57 59 56 60 65 70 73 73 74 67 69 67 61 54 
53 49 51 49 53 52 55 59 62 61 61 56 55 46 48 49 50 46 47 
50 55 57 57 51 51 55 58 64 65 64 62 59 58 58 56 58 63 60 
59 60 61 60 57 59 59 56 53 53 53 58 61 62 63 63 63 64 68 
66 62 58 56 48 48 48 52 52 53 54 58 59 55 52 51 52 49 46 
48 47 48 52 56 59 57 56 53 53 52 54 54 53 46 46 47 52 50 
52 55 53 53 55 57 57 55 56 59 58 52 52 54 57 58 59 60 64 
61 64 64 63 56 54 52 46 47 46 48 46 42 43 46 47 49 50 52 
49 51 49 50 46 45 49 54 58 54 58 60 58 55 48 49 48 40 40 
44 50 49 50 51 51 50 52 54 54 52 53 58 54 47 47 49 51 52 
56 57 58 59 59 62 59 46 43 45 42 42 39 37 38 39 40 39 44 
45 48 49 48 48 47 46 44 43 44 46 51 55 56 56 54 52 49 47 
47 40 40 40 45 46 47 48 48 47 51 53 50 49 49 49 44 39 36 
40 47 48 50 51 51 50 57 59 55 47 43 40 40 41 41 39 40 40 
38 35 35 39 43 44 44 45 44 42 40 38 38 38 41 43 45 45 46 
48 50 46 44 41 40 40 38 36 38 39 42 47 52 52 51 47 44 41 
39 37 35 36 36 40 39 43 44 48 49 51 50 46 41 41 41 44 40 
38 36 34 32 28 32 34 41 41 40 40 37 35 35 36 34 37 39 41 
42 47 44 44 43 43 46 45 45 42 35 32 33 34 38 41 45 48 52 
45 41 39 36 36 34 31 30 32 35 35 31 29 41 38 37 38 39 39 
37 38 38 33 28 25 27 26 28 32 38 36 36 34 34 35 35 38 37 
38 39 42 44 44 43 43 42 41 43 44 44 42 35 33 29 32 35 39 
44 45 44 40 37 35 30 30 31 33 30 36 35 33 31 30 36 34 33 
35 37 40 38 37 34 27 22 23 24 25 31 35 33 33 32 31 35 35 
35 35 38 42 41 43 43 43 43 40 37 35 36 36 39 39 38 34 31 
32 35 39 42 41 36 35 35 33 30 31 31 28 28 29 32 33 32 29 
31 27 27 29 31 38 35 31 29 27 29 29 28 31 35 35 29 26 30 
30 32 33 34 34 34 35 37 38 39 39 39 36 31 32 31 32 34 35 
34 31 28 30 28 29 31 32 32 32 35 34 29 30 29 29 30 32 33 
35 32 27 22 23 24 26 27 31 33 26 27 27 26 27 24 23 23 23 
21 25 29 31 35 36 35 36 34 33 34 35 36 39 38 35 33 30 27 
27 24 21 23 23 24 24 22 23 28 30 29 33 31 30 25 25 23 25 
28 29 30 38 36 34 21 24 26 28 26 28 29 24 24 26 27 26 22 
19 19 19 20 27 25 26 29 33 35 37 38 38 38 38 41 42 42 41 
38 32 26 22 18 17 21 23 26 25 22 23 25 28 28 27 27 23 20 
24 25 23 26 30 33 38 34 34 
