P2
#output from hocrtest
20 20
255
240 234 240 229 232 248 249 233 238 244 245 248 255 255 248 249 246 241 241 
217 229 230 231 229 231 238 240 230 231 236 240 245 252 255 249 248 247 244 
243 244 224 226 227 225 235 231 227 225 219 222 226 228 233 232 235 238 236 
235 232 224 216 220 220 222 221 216 214 217 219 220 223 221 220 217 224 221 
220 218 219 218 210 212 214 216 213 208 207 208 214 211 218 217 215 221 221 
214 211 204 206 204 197 198 200 205 201 195 189 196 197 193 188 188 191 202 
203 201 193 189 188 190 186 190 192 192 186 183 181 189 188 187 183 181 186 
190 199 188 179 174 166 164 169 169 177 178 179 171 173 177 174 167 170 175 
178 179 180 176 176 176 166 165 156 160 165 165 159 153 157 160 159 159 164 
160 161 154 155 160 165 169 164 165 144 145 146 144 138 138 145 148 149 144 
149 144 146 145 150 151 154 155 158 163 137 137 137 131 126 127 129 132 142 
139 137 135 134 134 133 133 132 128 130 130 134 133 132 126 120 119 112 112 
110 111 114 113 126 123 118 115 117 118 116 125 127 126 122 114 110 113 107 
102 97 95 96 99 105 102 103 101 105 105 98 103 118 117 112 108 108 104 
100 94 92 90 95 95 97 99 99 101 99 98 92 94 108 111 104 101 102 
100 89 81 86 87 95 89 90 91 91 89 87 91 90 87 82 81 81 82 
85 79 76 76 78 74 72 70 75 75 74 70 67 66 68 69 59 62 66 
67 68 69 66 63 62 61 61 63 66 72 68 59 51 51 53 53 51 53 
50 51 53 52 53 52 48 49 50 55 60 61 61 55 48 46 40 38 38 
43 51 52 49 48 47 49 45 43 46 46 43 37 39 41 38 39 38 38 
30 30 36 48 49 46 43 39 41 42 48 46 33 33 30 30 25 26 26 
28 
