P2
#output from hocrtest
60 60
255
254 250 255 243 252 254 253 252 255 255 251 249 250 249 250 247 248 248 240 
230 244 246 241 254 252 254 249 245 255 253 252 252 255 255 254 255 254 249 
249 250 238 244 248 255 255 254 246 246 247 237 234 242 249 244 243 249 249 
247 247 227 255 252 253 247 251 252 250 251 255 253 248 244 246 245 247 244 
243 246 243 242 248 249 251 255 255 253 249 248 250 251 252 255 255 255 255 
255 251 245 246 246 242 245 249 255 255 251 247 248 247 243 239 239 245 248 
246 247 248 245 245 243 251 250 249 246 246 247 247 249 251 251 248 245 243 
242 243 242 237 237 237 240 245 246 249 250 249 248 244 245 244 240 245 250 
250 249 251 253 250 247 245 242 241 245 250 250 246 244 243 241 238 237 239 
238 245 246 243 244 245 243 242 241 240 239 239 239 239 239 241 242 243 241 
241 239 239 239 240 244 241 240 239 241 240 243 242 241 240 240 238 239 241 
241 242 243 243 244 243 244 245 244 242 241 243 243 247 247 245 243 236 234 
234 239 241 241 244 248 241 236 236 240 236 235 237 235 234 232 233 235 237 
235 235 233 234 233 235 234 235 234 233 232 234 237 238 241 242 240 237 236 
232 232 234 238 240 240 240 241 242 243 243 242 238 239 243 246 247 245 243 
241 235 229 232 236 240 242 243 243 238 237 232 237 237 232 230 229 231 233 
234 237 237 236 236 235 236 235 234 234 232 228 228 222 225 228 229 234 238 
238 238 238 232 232 234 238 240 237 236 236 236 237 236 233 232 232 232 234 
232 228 232 232 227 225 221 228 232 236 241 242 238 234 231 232 231 229 228 
230 230 229 227 229 231 233 232 235 239 239 234 232 230 231 227 223 222 225 
224 226 230 235 236 233 226 225 232 235 236 234 229 231 227 227 227 223 223 
226 228 228 230 233 233 233 230 226 225 227 231 235 238 238 232 229 227 227 
230 232 227 226 228 227 223 221 218 221 224 231 235 235 231 230 229 230 227 
224 224 226 225 223 224 226 224 224 224 226 227 229 227 227 228 229 226 228 
225 222 220 224 224 225 230 231 232 229 229 227 226 228 232 235 234 233 228 
226 226 229 229 228 218 219 221 220 218 217 217 220 223 227 228 230 228 227 
224 224 222 222 224 227 226 225 226 218 210 213 217 216 219 220 217 215 224 
226 222 222 220 218 220 221 221 223 229 230 229 229 230 230 230 232 232 233 
229 222 222 222 220 219 218 215 213 216 216 215 216 216 217 219 220 220 223 
222 218 218 215 218 219 220 220 222 227 224 220 216 211 210 210 216 216 216 
213 217 221 223 220 221 219 218 221 222 222 219 223 227 231 230 226 225 225 
227 228 227 221 210 209 208 205 209 212 207 204 207 207 208 213 215 218 217 
215 216 217 217 214 213 212 211 211 211 213 214 220 220 216 213 213 213 215 
218 215 214 213 216 218 217 216 212 211 211 215 218 219 216 219 225 225 224 
219 214 216 215 215 215 212 209 212 211 209 211 213 212 208 208 207 206 208 
212 212 211 212 213 211 209 206 206 203 200 206 208 208 215 217 218 205 204 
206 207 211 213 212 213 213 213 212 211 209 207 206 205 209 209 211 211 212 
215 214 215 210 206 207 208 207 209 214 214 214 209 208 210 210 206 208 209 
207 207 207 211 209 208 210 208 208 206 202 202 201 201 203 204 205 207 210 
212 202 201 204 204 207 211 211 212 209 208 204 205 204 203 203 203 207 205 
206 206 208 208 214 216 212 206 205 205 203 206 213 211 203 203 204 206 210 
211 205 204 205 206 205 205 202 202 203 203 203 201 200 200 199 199 200 201 
203 209 214 211 205 202 206 205 209 211 209 202 202 203 202 200 198 198 197 
200 200 202 201 203 204 206 209 210 209 205 206 206 201 203 205 204 199 199 
199 198 201 201 207 203 199 199 201 201 200 198 197 198 201 203 199 197 200 
203 204 202 201 205 202 205 198 196 197 198 201 201 199 197 195 198 198 198 
195 193 192 193 194 196 195 193 193 196 199 202 201 199 197 199 199 199 200 
198 195 195 195 196 197 193 205 199 191 192 194 197 200 200 200 201 202 199 
193 194 195 195 203 203 201 205 200 196 194 196 198 200 199 199 194 188 187 
193 191 192 191 190 190 187 187 187 187 189 190 194 198 201 200 199 198 199 
198 194 195 195 190 190 190 195 199 202 191 188 185 186 189 189 191 194 192 
189 185 188 184 188 190 194 194 194 193 195 196 195 194 196 197 195 195 195 
191 189 186 186 186 188 188 186 182 182 181 181 180 183 185 188 190 193 191 
190 191 193 187 190 190 189 187 192 192 194 198 203 183 185 186 185 186 186 
189 189 188 187 186 187 185 183 184 183 180 184 186 194 194 192 189 193 192 
190 188 188 189 186 182 183 183 184 183 180 177 175 176 180 181 182 180 184 
189 190 191 192 191 189 186 184 185 183 180 183 183 184 184 186 188 187 188 
186 185 182 179 175 173 173 169 179 180 180 183 183 179 179 181 183 184 185 
185 192 193 187 184 183 181 179 180 179 181 183 182 178 174 171 172 180 180 
180 178 182 187 192 191 192 190 188 184 182 181 180 178 179 177 176 176 178 
175 176 184 184 184 177 177 171 171 174 174 179 180 181 182 181 179 178 180 
184 181 180 184 190 190 183 183 182 181 180 178 182 182 184 185 178 175 176 
176 180 182 175 173 176 181 188 189 191 189 184 177 179 178 180 176 176 173 
171 169 167 174 173 179 181 180 177 175 171 169 172 171 174 177 182 184 184 
182 179 182 184 180 179 179 185 184 185 181 179 179 176 174 171 174 178 181 
179 180 184 183 180 179 173 172 173 176 177 178 176 178 174 173 169 171 169 
168 170 167 166 165 163 176 175 175 175 175 173 173 170 170 172 175 175 180 
185 183 183 184 181 181 182 176 176 173 175 173 169 170 171 171 168 167 169 
170 172 177 181 181 182 185 179 176 174 172 174 175 175 175 173 171 169 169 
166 167 163 167 168 166 162 159 157 171 170 167 169 168 165 166 169 170 174 
175 174 177 179 179 180 179 180 180 177 175 173 167 164 161 160 160 160 165 
168 171 172 172 174 178 179 179 179 179 176 177 175 175 173 173 178 176 172 
169 169 168 167 169 167 166 166 167 164 160 156 158 155 155 155 156 155 158 
157 158 163 167 164 167 169 171 174 171 171 171 170 166 164 157 150 149 146 
147 155 161 165 169 170 169 170 170 173 173 171 170 164 166 168 174 177 176 
171 170 168 165 167 168 167 169 171 170 170 167 168 168 171 153 148 148 148 
149 149 150 150 155 161 165 163 163 164 162 158 158 158 160 160 157 156 148 
146 144 145 145 149 155 158 161 160 165 167 170 167 165 163 162 159 158 160 
163 167 167 163 163 160 159 161 167 167 165 163 164 163 161 161 159 159 153 
148 148 150 152 151 150 150 151 157 160 155 154 155 154 152 154 156 157 155 
152 149 145 142 141 144 146 147 151 156 159 159 159 156 159 156 155 154 151 
151 151 151 157 160 159 156 157 155 156 159 163 165 165 161 159 157 158 156 
159 163 153 151 149 147 148 150 149 148 146 151 156 152 153 152 152 153 150 
151 153 152 151 150 144 144 141 144 144 145 144 145 148 148 148 151 152 154 
155 153 148 144 142 139 141 145 150 153 156 157 160 158 156 158 156 152 156 
155 155 154 152 152 149 147 147 143 146 148 145 142 139 146 149 146 147 149 
152 151 147 148 149 143 143 145 143 143 144 144 141 142 142 145 146 148 145 
146 145 145 150 151 149 149 144 139 137 143 149 148 150 154 154 149 146 145 
144 145 148 150 149 148 147 148 141 139 141 143 142 142 141 136 135 137 139 
139 143 148 150 150 147 148 152 147 146 142 142 142 141 140 137 138 141 145 
144 148 143 142 142 143 147 148 149 143 138 137 133 136 142 146 150 151 148 
144 142 138 137 136 137 141 143 142 140 142 138 133 133 137 136 137 139 137 
137 140 137 140 147 149 150 150 147 150 153 148 146 144 142 140 137 136 130 
130 134 135 139 144 141 137 138 136 138 139 139 135 129 131 129 132 138 142 
144 146 145 143 141 137 134 133 138 141 141 140 138 139 132 133 133 135 135 
137 139 136 138 137 138 139 142 144 143 141 141 140 141 142 137 135 135 136 
137 138 133 135 135 135 137 140 141 136 135 134 135 134 132 128 129 132 133 
136 139 141 140 139 139 137 135 133 132 134 140 144 141 140 140 140 134 135 
135 137 136 135 134 136 137 136 137 135 137 139 142 139 137 134 132 131 128 
128 131 131 133 131 130 133 136 138 140 136 136 133 134 134 134 136 132 131 
130 128 129 133 137 139 136 133 131 133 135 133 133 134 134 137 134 127 121 
121 132 133 132 134 131 128 128 129 130 127 129 130 131 132 134 133 128 127 
128 124 121 122 123 125 125 124 126 127 127 126 123 124 124 124 128 131 128 
127 124 125 128 126 126 127 129 136 133 133 131 136 136 134 134 134 131 129 
121 112 106 101 123 125 127 127 128 125 125 123 119 117 117 112 117 118 118 
120 120 119 122 123 119 115 121 124 124 126 124 121 122 121 118 119 120 120 
124 124 123 123 122 121 121 124 124 123 123 126 127 128 129 133 133 131 130 
128 127 124 119 112 107 102 122 122 121 122 124 124 125 124 121 119 119 116 
116 116 112 112 117 116 117 115 113 114 118 124 125 123 123 120 119 117 116 
115 116 112 110 117 119 119 121 123 121 121 119 118 118 120 119 123 124 123 
125 125 124 122 122 122 117 113 110 110 120 120 119 117 117 115 117 117 115 
116 116 112 113 115 114 112 112 109 112 110 109 110 114 120 123 121 121 116 
116 114 115 117 118 112 111 113 115 114 115 118 116 115 114 109 110 114 117 
122 124 120 118 116 113 114 116 116 111 112 113 113 117 117 111 110 111 109 
110 110 109 110 109 110 110 111 111 113 115 110 109 108 109 111 112 115 116 
117 117 115 116 116 115 116 114 112 110 114 115 113 113 112 107 104 98 97 
102 106 110 111 116 115 114 115 114 117 121 122 108 109 112 113 112 114 110 
107 104 103 102 103 103 103 103 106 107 108 112 117 116 112 111 110 108 107 
106 104 106 109 110 108 106 107 111 112 109 105 107 112 113 107 106 102 100 
99 96 98 96 100 101 97 102 104 110 114 111 114 119 116 109 114 116 115 
104 103 102 101 99 100 98 97 95 94 97 100 100 100 104 109 113 115 109 
106 105 102 98 95 96 97 101 101 101 102 103 104 101 99 99 100 103 100 
95 94 92 94 97 97 97 101 98 95 94 95 101 106 111 116 116 115 113 
110 109 91 98 99 101 100 98 97 95 91 89 88 92 94 97 97 97 101 
104 102 100 103 102 95 91 88 90 93 95 95 96 100 100 98 95 93 97 
101 103 99 96 96 94 94 98 100 99 99 95 92 90 97 99 102 109 113 
115 114 111 107 106 106 101 99 95 96 95 94 93 95 90 91 91 93 94 
93 92 93 89 91 92 95 95 90 86 85 86 88 90 89 91 94 97 97 
94 94 94 96 99 99 95 97 94 92 90 90 94 94 94 94 98 95 94 
98 104 106 106 106 103 101 100 98 97 96 93 92 92 91 92 92 88 86 
83 85 88 87 89 85 85 87 87 87 85 86 86 85 86 91 93 91 90 
93 96 94 94 96 94 94 94 95 95 92 86 85 84 84 85 84 87 90 
92 91 92 95 98 99 97 98 97 97 97 100 93 91 87 86 89 91 91 
90 86 84 83 84 88 86 86 85 81 81 82 84 84 81 81 83 89 95 
91 88 83 87 90 91 91 89 90 90 89 90 91 88 82 82 81 84 86 
82 85 85 85 83 84 88 94 95 96 95 92 90 86 86 90 89 87 86 
84 89 92 91 82 82 79 79 79 74 76 75 76 76 76 80 79 78 81 
82 85 85 84 80 77 77 80 82 80 85 87 88 87 84 81 81 81 79 
76 75 80 79 77 77 77 77 81 89 92 93 94 91 84 80 79 81 82 
84 86 86 85 90 94 93 86 81 76 75 72 68 70 73 73 72 73 74 
73 69 73 76 76 78 80 81 82 82 81 80 78 78 76 76 77 79 78 
81 80 77 75 69 71 72 70 73 74 75 79 88 92 90 88 86 82 80 
78 80 68 66 68 73 78 85 90 92 83 77 75 75 73 71 69 69 69 
67 68 68 67 65 68 69 71 72 76 74 74 75 75 75 72 70 69 69 
69 76 76 74 75 72 69 68 66 67 69 71 74 74 79 85 84 83 87 
82 74 67 65 64 67 70 71 71 75 79 87 85 80 74 72 71 72 68 
64 62 64 65 67 68 68 69 70 70 72 76 77 73 69 65 66 67 69 
68 68 70 69 70 70 71 74 73 67 65 65 65 64 63 65 65 72 73 
75 75 75 77 74 70 67 64 64 68 70 68 66 66 68 68 65 62 61 
61 64 65 66 64 62 61 59 61 63 62 62 69 75 77 76 72 65 63 
65 67 67 67 67 66 67 65 67 67 70 70 70 70 68 66 65 63 60 
62 67 66 68 65 67 73 75 76 73 73 66 67 69 67 64 62 61 61 
62 63 61 61 64 67 63 61 58 55 56 55 55 57 57 61 63 65 63 
63 61 59 60 61 63 66 67 65 61 62 58 60 61 64 65 62 63 62 
67 64 62 61 64 66 65 63 65 70 72 73 73 75 63 62 64 63 58 
57 49 50 52 56 56 59 59 62 61 61 58 56 49 50 48 51 48 49 
52 56 59 62 56 54 53 54 57 60 58 57 52 52 56 56 60 64 62 
62 62 63 66 65 65 64 64 63 63 62 63 65 66 69 68 66 61 63 
63 59 56 55 48 48 48 52 56 55 55 56 57 57 55 53 52 49 47 
45 45 47 51 56 60 60 57 54 53 49 49 51 50 45 45 48 51 54 
54 56 54 53 56 57 58 57 58 60 61 57 56 55 57 59 62 62 66 
64 55 52 52 45 47 48 45 47 47 49 50 47 47 48 49 47 49 51 
52 52 47 46 45 45 45 48 52 52 55 56 54 54 50 50 48 43 40 
45 48 50 49 51 47 48 49 50 52 51 53 58 58 56 54 53 53 53 
55 55 55 55 50 51 51 44 43 45 42 42 43 45 47 47 44 40 45 
44 43 46 46 48 49 49 44 41 40 46 51 56 56 55 55 53 51 53 
51 46 43 45 48 48 47 48 46 46 44 46 46 48 50 49 45 40 37 
42 49 49 53 53 53 52 49 50 51 48 40 40 39 35 37 38 43 43 
42 41 42 40 42 43 41 47 49 45 39 32 32 38 41 41 41 42 48 
48 48 47 46 44 43 41 38 36 39 39 41 45 46 46 45 44 42 38 
36 33 33 39 39 45 46 46 49 53 43 44 48 45 42 42 39 39 37 
42 40 39 33 33 32 33 38 39 38 42 41 36 34 33 32 35 36 35 
36 38 38 39 43 44 46 48 48 41 35 34 35 36 37 39 41 40 41 
39 36 33 30 28 31 30 31 33 33 33 29 27 37 34 34 35 34 36 
36 37 39 38 37 35 32 33 29 28 32 33 35 33 29 28 32 35 35 
35 35 34 35 34 39 42 41 40 43 45 46 40 35 33 34 31 34 36 
40 39 37 31 32 31 27 27 30 31 33 36 35 33 28 25 37 35 34 
33 34 36 33 33 32 29 28 29 29 29 33 33 30 33 32 32 30 31 
33 33 33 35 37 34 34 34 39 39 36 35 40 37 37 38 33 30 29 
30 33 35 36 35 31 29 29 29 27 29 29 28 27 30 35 36 34 31 
31 29 29 29 32 36 34 30 30 28 29 31 32 33 37 34 29 31 30 
29 27 29 31 34 35 37 36 34 33 36 38 37 34 33 35 36 36 37 
32 30 26 30 31 30 32 31 29 29 30 29 26 26 24 25 28 31 32 
35 31 27 21 22 24 26 28 30 32 28 27 25 23 26 25 26 24 24 
24 28 26 27 28 30 31 29 29 28 31 32 31 35 36 37 36 35 34 
34 33 28 29 29 30 30 26 26 29 32 29 28 24 23 20 20 19 21 
26 29 28 33 32 31 20 24 27 31 32 32 31 25 25 23 24 24 23 
25 24 24 22 27 24 21 21 23 25 30 28 29 34 32 37 40 42 41 
40 37 32 32 30 27 29 30 31 28 25 26 29 32 32 29 23 22 19 
21 25 24 25 29 34 36 34 32 
