P2
#output from hocrtest
40 40
255
246 247 250 244 255 248 249 245 242 246 252 254 253 253 253 252 249 247 241 
226 240 244 237 254 248 253 250 250 254 249 245 239 243 246 249 252 251 248 
247 254 245 247 249 248 252 248 245 241 237 238 242 252 250 248 249 252 252 
246 243 237 242 246 246 253 253 253 251 247 249 245 241 240 242 245 248 248 
248 245 245 247 247 249 248 245 247 244 243 238 242 243 246 249 244 243 247 
247 241 234 237 235 236 240 243 251 251 252 248 247 244 238 234 236 238 241 
244 242 239 237 238 238 247 247 249 245 239 241 239 236 238 239 240 236 236 
236 237 239 232 229 228 231 234 239 243 243 244 235 230 235 236 234 234 237 
241 243 245 241 240 239 240 240 233 236 236 235 231 233 231 230 231 229 232 
229 233 234 231 233 229 227 230 231 228 232 233 234 235 229 230 231 233 229 
227 223 227 231 233 233 231 233 235 237 227 228 226 223 219 221 220 222 225 
222 223 222 223 223 223 220 220 222 222 221 225 224 226 227 224 224 221 220 
220 219 221 220 224 229 229 221 220 221 220 220 228 227 225 220 219 217 217 
213 214 212 216 216 216 221 217 215 219 219 222 221 223 221 218 218 218 218 
214 210 212 210 215 216 217 220 223 223 224 225 220 218 229 229 231 229 226 
219 214 206 209 211 216 220 220 226 221 219 217 217 217 214 212 211 211 212 
214 214 211 209 214 215 215 212 213 213 214 210 205 203 203 208 216 217 224 
221 220 216 211 206 204 204 211 213 211 212 209 211 212 206 206 205 204 200 
197 196 203 203 201 200 203 208 206 210 208 211 207 205 205 204 198 199 211 
209 211 211 204 204 204 202 198 203 207 207 202 198 196 197 195 194 193 196 
194 197 199 202 203 199 198 201 204 210 207 204 199 197 199 200 197 193 195 
197 207 205 207 205 200 199 197 198 196 200 205 205 201 197 188 186 186 187 
187 194 194 192 196 197 199 193 191 195 201 205 205 202 201 195 198 203 196 
192 192 193 195 192 191 190 189 190 190 192 194 199 199 201 198 194 187 189 
189 186 187 193 195 191 191 191 188 182 185 186 190 191 194 194 198 195 191 
191 188 187 185 184 183 181 183 187 186 185 188 187 192 194 192 193 193 188 
183 186 185 183 182 188 188 185 183 175 172 173 176 173 183 186 187 186 190 
183 179 177 176 173 171 172 179 180 182 185 182 184 188 189 188 185 190 188 
183 179 180 182 178 176 176 176 178 179 174 168 171 164 169 170 174 182 183 
180 177 172 170 171 169 166 163 163 183 181 177 177 176 174 170 179 179 177 
178 178 174 174 177 180 177 174 176 175 171 169 168 166 167 167 168 174 173 
176 180 176 170 166 163 159 158 157 161 160 174 175 175 173 178 176 170 170 
171 170 169 169 165 168 169 166 164 164 165 166 169 168 166 166 165 169 170 
170 167 169 165 166 164 163 158 155 152 152 161 164 179 176 173 174 175 173 
166 164 162 162 164 164 149 150 161 161 158 157 155 155 151 153 154 152 150 
155 156 154 153 158 156 156 155 153 151 150 153 152 156 163 169 168 160 157 
163 167 165 158 155 156 157 153 144 145 148 148 150 152 156 154 152 153 151 
148 146 149 145 143 145 150 145 149 154 151 156 154 153 152 150 149 156 155 
152 154 156 163 165 155 151 148 150 145 140 145 142 141 142 147 148 148 147 
146 140 142 145 146 146 146 145 149 148 149 146 143 143 146 144 145 145 145 
151 148 147 147 152 156 158 155 146 141 138 139 140 141 133 134 137 141 142 
146 143 137 135 137 140 140 138 138 137 138 141 142 140 135 133 134 135 136 
137 139 148 147 147 152 154 161 155 152 145 136 132 136 136 134 132 130 133 
135 134 138 133 134 130 133 138 141 144 143 138 137 135 134 132 127 123 125 
127 130 134 134 138 138 133 132 135 136 132 128 122 123 125 128 132 134 133 
133 134 131 132 132 127 127 125 127 131 132 131 130 131 132 134 133 129 127 
121 123 129 131 133 136 124 123 119 119 121 122 117 111 110 114 115 117 120 
122 123 121 118 116 119 120 125 126 123 124 127 130 128 129 131 134 131 127 
122 121 118 118 123 125 126 129 113 113 108 111 115 117 112 109 110 109 111 
115 114 114 114 113 113 113 113 112 113 118 122 124 124 126 124 125 123 125 
121 115 113 117 117 116 113 117 120 122 105 105 103 112 109 108 106 103 107 
106 105 105 106 105 106 106 105 107 106 107 109 112 119 119 119 115 113 117 
112 109 107 104 110 109 113 114 111 110 114 112 103 104 104 107 106 106 100 
97 98 95 87 99 101 100 98 100 99 98 101 102 99 102 106 106 106 105 
105 107 104 104 106 103 104 106 104 100 95 93 97 114 109 108 107 107 102 
105 98 93 93 93 87 92 94 94 94 94 93 89 90 92 90 93 90 95 
100 100 97 98 99 98 100 102 104 101 95 96 93 92 93 97 103 104 102 
101 101 103 101 94 89 88 81 86 87 84 84 86 83 84 85 83 86 87 
86 97 98 95 92 91 90 86 87 88 88 92 91 92 91 90 91 94 94 
95 93 92 93 95 95 91 88 85 83 82 85 82 82 82 78 81 79 79 
77 79 87 95 94 90 92 86 84 81 84 87 88 88 89 88 88 89 91 
94 79 81 82 88 87 84 86 85 82 80 79 83 83 83 90 82 80 82 
81 80 79 75 74 82 84 92 99 97 93 83 82 84 89 88 86 88 88 
87 87 86 67 69 74 81 78 74 73 69 66 68 66 70 72 76 79 77 
74 73 77 77 78 79 77 83 84 86 89 88 88 83 80 72 77 80 80 
82 84 87 90 94 68 67 65 67 69 65 65 61 62 60 61 61 60 62 
65 69 68 67 68 70 72 73 72 71 74 75 77 75 75 74 77 75 76 
77 78 78 80 80 78 82 67 70 67 68 69 63 62 60 60 58 58 59 
58 61 63 68 66 68 70 68 68 67 63 64 65 65 64 61 60 61 62 
64 66 67 68 70 65 63 61 58 65 65 61 58 61 58 60 57 56 57 
58 58 57 59 61 64 62 65 65 63 63 62 59 58 58 56 53 48 50 
53 57 58 61 63 66 65 65 65 65 63 63 60 56 54 58 60 59 53 
50 52 51 53 54 55 52 51 50 49 49 50 52 52 51 50 51 44 43 
43 43 48 52 54 57 59 59 62 57 63 63 63 45 46 40 33 30 27 
30 42 47 49 49 49 48 47 41 42 43 45 47 46 47 49 54 54 48 
39 40 41 40 44 46 49 50 55 56 56 56 58 59 61 39 38 31 28 
28 29 33 38 37 40 42 44 45 43 40 38 37 37 37 38 40 43 44 
44 40 37 36 33 33 37 41 43 51 55 51 47 48 49 49 46 32 33 
30 29 30 28 33 33 36 38 43 44 41 36 35 35 32 32 29 31 30 
27 29 34 32 27 26 24 26 31 35 33 34 36 34 32 40 45 45 44 
31 34 27 24 25 27 30 30 29 32 37 40 39 29 27 23 16 16 18 
20 23 21 22 26 23 22 24 22 22 26 30 29 29 31 30 31 36 37 
40 40 26 31 30 24 23 26 26 27 24 26 28 29 28 22 20 17 15 
15 20 19 21 19 18 19 18 17 17 15 15 15 19 20 18 23 25 31 
33 34 28 26 
