P2
#output from hocrtest
110 110
255
246 241 248 246 255 255 254 250 251 251 254 254 255 250 248 249 246 247 242 
235 247 246 236 247 245 246 242 238 241 244 247 246 253 254 252 253 254 255 
254 250 248 252 250 253 254 253 252 249 245 236 241 250 252 246 247 255 254 
252 249 241 253 253 255 247 250 249 241 246 251 251 250 246 249 246 250 251 
255 254 255 253 251 253 254 253 255 255 251 243 255 254 253 251 246 248 248 
249 245 226 253 251 253 255 252 255 254 255 246 255 255 253 245 244 249 252 
254 254 252 251 249 250 252 253 253 251 248 248 247 246 246 249 252 248 242 
246 245 244 240 239 235 240 244 247 252 253 252 252 252 255 254 251 254 253 
251 251 252 252 249 249 246 243 244 249 251 250 249 251 251 250 250 248 252 
250 254 250 248 248 245 244 248 250 249 249 249 250 249 248 253 253 253 251 
252 251 253 253 255 255 253 252 255 253 251 250 248 246 245 246 244 241 252 
253 255 255 255 255 254 254 251 254 254 253 249 247 252 254 254 252 250 248 
244 246 248 248 249 247 245 244 244 244 244 249 249 249 247 245 244 245 244 
241 240 241 244 245 250 251 250 250 252 255 255 254 253 250 247 247 246 245 
243 241 242 242 246 249 252 255 254 254 254 253 252 253 255 254 253 252 250 
248 244 238 244 248 249 252 251 252 251 251 249 249 250 248 252 252 252 253 
251 250 252 252 254 253 251 247 249 248 247 244 241 240 246 249 250 254 255 
255 255 255 254 255 255 255 250 250 253 254 253 252 251 248 245 245 245 248 
247 240 242 243 243 242 243 248 246 248 246 245 246 245 243 242 240 241 243 
247 248 248 247 251 252 252 253 251 251 248 243 241 240 240 238 237 239 244 
246 248 251 253 254 255 254 252 253 253 252 251 248 248 245 245 243 236 239 
244 247 249 249 249 247 248 244 244 244 245 248 249 249 248 245 246 247 249 
252 254 254 249 249 247 247 241 240 242 245 248 249 253 253 252 253 252 254 
254 254 254 250 249 250 251 251 251 249 248 247 249 249 249 248 243 242 241 
241 241 243 247 247 247 246 244 244 243 243 242 239 240 243 244 247 247 247 
249 249 252 252 247 248 245 241 239 238 236 235 235 239 243 245 249 251 251 
252 253 252 251 251 253 254 252 251 249 244 245 244 239 240 241 243 245 247 
248 246 246 245 243 239 239 243 248 247 245 244 242 246 248 250 253 252 250 
249 246 247 246 242 242 244 243 245 247 245 244 247 246 246 247 248 245 248 
246 245 244 245 247 247 247 246 246 246 245 242 242 242 238 236 240 242 246 
246 248 244 242 244 246 246 244 243 241 241 240 242 245 248 248 247 247 246 
246 245 244 242 238 236 233 231 231 236 237 238 242 243 245 248 249 250 251 
251 249 250 250 249 249 248 248 245 242 243 241 244 244 246 249 249 246 247 
245 244 244 245 246 245 243 241 240 242 242 246 249 250 250 250 251 249 247 
242 241 242 241 241 242 240 242 247 248 246 248 249 247 242 240 240 240 239 
243 247 247 246 246 243 241 238 240 238 236 236 238 240 245 249 246 240 239 
243 247 246 242 241 242 241 238 240 241 243 244 246 246 245 244 242 241 241 
240 237 236 234 232 237 238 236 240 244 245 247 247 247 248 244 241 242 242 
243 244 244 245 246 245 245 240 241 240 242 245 246 246 246 244 243 242 241 
242 239 238 240 239 242 244 244 248 249 248 246 246 244 243 240 238 238 238 
238 239 239 241 244 246 246 245 244 243 233 235 236 239 237 242 245 248 246 
245 242 239 239 240 240 237 234 236 238 241 245 245 242 238 240 241 243 240 
238 241 241 239 237 239 240 242 245 246 244 242 239 238 238 239 239 237 235 
235 236 238 238 242 243 245 247 246 246 247 243 241 239 240 240 239 240 241 
242 240 241 239 239 239 240 241 243 243 242 240 238 239 239 239 236 235 238 
239 242 243 242 243 243 243 242 240 240 239 235 233 232 230 236 239 241 243 
242 240 241 240 240 240 233 231 229 236 239 242 243 241 241 242 236 236 238 
240 239 238 234 235 235 235 238 238 237 236 239 242 243 241 240 240 239 239 
234 234 235 235 241 243 240 241 239 238 237 237 237 237 234 233 234 235 236 
241 240 239 238 236 237 238 237 237 236 237 240 240 240 241 241 242 240 240 
240 240 238 240 240 240 240 241 241 240 236 232 232 233 234 235 238 241 240 
238 238 239 238 238 239 239 236 234 230 229 233 236 241 241 241 238 237 237 
236 238 229 228 231 238 244 243 242 239 237 235 231 231 234 236 236 236 231 
231 231 231 229 234 235 234 235 239 241 242 241 240 234 233 232 232 233 234 
238 238 237 238 239 239 239 238 236 234 232 231 233 238 242 242 238 238 235 
234 233 235 235 235 233 234 237 239 239 240 240 240 238 239 237 238 239 241 
241 239 237 238 239 237 235 230 229 228 229 232 233 238 239 239 240 242 241 
240 238 240 239 234 228 226 227 232 235 236 238 236 233 232 229 225 227 228 
231 240 242 242 238 235 233 231 231 229 231 235 235 236 231 229 229 232 230 
232 232 234 236 239 239 238 238 240 235 232 229 227 229 231 232 232 231 230 
229 230 234 234 234 231 232 228 230 235 240 240 237 235 234 232 231 232 234 
235 234 236 239 242 241 239 241 240 238 235 235 237 237 239 237 232 229 231 
232 234 231 228 225 226 228 232 235 238 238 236 236 239 238 239 238 239 237 
234 230 229 229 227 231 235 235 236 233 229 228 232 227 229 232 238 239 239 
238 234 234 233 233 231 233 238 239 239 238 236 236 237 234 230 231 233 234 
236 238 237 237 236 233 231 228 227 229 228 229 229 230 229 229 227 227 229 
230 231 230 230 232 233 236 236 235 235 235 234 230 226 227 227 233 234 236 
238 239 239 241 239 238 236 234 235 234 236 235 231 229 230 232 233 229 229 
226 224 225 229 227 231 234 234 234 235 235 235 236 235 235 232 227 227 226 
225 228 233 235 234 229 227 227 227 232 234 236 237 237 237 237 237 236 235 
234 233 232 236 236 236 236 238 239 238 237 235 234 234 232 233 232 230 232 
233 231 231 228 230 231 232 232 232 232 232 232 230 229 228 228 234 232 232 
233 234 232 232 230 229 229 230 230 226 223 225 229 230 227 229 232 230 233 
231 228 232 231 230 234 236 235 233 232 234 237 235 233 232 230 223 221 220 
222 227 232 231 233 234 232 233 232 234 232 234 231 229 228 229 230 232 231 
230 230 230 228 229 232 232 233 235 233 234 233 236 235 235 236 231 228 226 
225 226 224 228 232 234 233 233 232 230 228 228 226 224 226 229 229 229 230 
228 227 229 230 229 228 227 228 227 229 228 230 233 232 231 231 230 228 229 
228 229 230 229 232 227 224 223 228 229 228 229 232 231 231 231 228 229 229 
227 230 234 234 231 231 232 233 234 236 232 229 223 221 220 224 227 229 229 
229 228 225 225 227 229 230 229 229 229 230 230 230 229 228 226 223 224 224 
224 233 231 232 233 230 227 229 227 228 232 232 232 230 228 227 223 220 224 
230 231 230 230 230 227 226 226 227 226 224 226 227 228 228 226 226 225 226 
226 226 227 227 225 223 224 224 228 227 226 228 227 225 225 224 226 227 229 
229 225 221 220 220 222 223 224 226 229 230 232 231 229 226 229 229 228 229 
230 230 231 229 227 229 228 228 223 219 219 221 226 226 228 225 224 223 225 
226 226 225 225 226 223 223 225 224 226 228 227 229 231 227 231 231 231 231 
235 230 225 225 225 226 229 230 229 227 227 228 224 223 227 230 228 225 223 
222 222 224 226 228 227 227 227 227 225 225 224 224 224 224 222 219 220 220 
219 221 224 227 227 225 224 227 226 224 223 223 224 223 226 226 224 223 224 
223 224 225 223 224 225 228 228 227 226 224 226 223 224 222 223 227 228 226 
223 223 224 224 222 218 218 219 220 221 223 221 217 216 222 222 223 223 225 
227 228 225 230 230 231 231 228 228 233 230 227 231 231 232 233 228 224 219 
216 216 216 221 224 224 222 223 223 223 227 228 225 220 219 218 219 220 223 
228 228 227 227 226 224 222 223 225 225 224 221 217 219 217 220 222 223 224 
225 225 222 222 219 220 221 222 224 222 221 221 221 222 223 224 222 223 220 
219 224 224 224 226 223 221 222 224 223 221 219 222 223 222 219 220 224 226 
225 222 222 221 220 218 218 217 217 216 219 224 226 225 227 231 230 230 233 
231 233 231 229 229 232 229 228 230 231 233 231 229 225 219 215 213 213 215 
216 219 220 221 222 219 222 226 225 225 223 220 219 222 224 226 227 225 226 
225 222 220 222 225 224 222 218 216 218 218 219 223 222 222 222 223 220 219 
219 221 220 218 223 223 221 220 220 220 218 222 226 225 223 225 224 221 221 
223 221 219 217 216 217 215 213 218 217 218 218 215 217 218 221 220 222 221 
218 218 218 220 217 215 212 217 225 226 227 230 231 231 229 229 230 229 228 
223 218 214 211 226 229 230 228 226 224 219 215 209 209 210 209 215 216 215 
216 216 217 220 223 222 220 221 221 221 222 221 217 218 217 216 217 218 220 
224 221 218 216 215 214 214 218 221 220 218 219 220 219 217 217 220 221 220 
222 223 222 221 220 218 216 219 222 220 219 219 223 221 221 222 222 222 220 
215 212 209 211 215 214 214 212 212 215 216 219 221 221 220 220 219 218 218 
216 215 213 216 221 224 228 233 232 228 227 226 224 223 224 221 219 217 216 
224 225 222 219 220 221 219 216 212 213 214 218 219 218 217 215 216 217 216 
218 219 217 219 221 221 219 218 214 213 210 209 209 213 218 220 218 219 214 
212 209 211 216 218 212 211 215 217 214 215 215 217 218 219 218 218 220 221 
222 221 218 218 217 212 209 210 214 214 216 220 221 220 218 213 211 211 213 
212 211 212 211 210 212 214 217 218 219 220 217 215 217 217 217 216 216 220 
221 222 226 230 230 226 225 222 221 222 223 221 219 218 220 216 217 210 211 
213 214 216 216 214 213 212 215 217 217 217 217 213 213 213 214 216 221 221 
222 220 218 217 216 213 210 210 213 216 219 219 220 216 212 212 210 213 212 
211 209 209 213 215 214 212 213 216 217 218 217 218 219 219 216 213 213 214 
213 209 210 210 211 214 211 214 215 216 216 215 214 214 214 209 211 211 211 
210 211 212 214 216 217 216 212 211 212 217 216 214 213 215 218 220 224 226 
225 226 226 221 220 221 219 217 214 211 210 214 215 212 211 209 207 208 206 
204 203 205 206 209 210 211 213 212 209 206 206 210 214 216 218 218 218 216 
213 212 206 209 213 216 218 216 215 211 205 205 204 206 208 210 208 208 210 
213 210 208 210 211 210 212 208 209 210 211 213 212 212 211 209 206 208 210 
213 217 215 216 216 217 216 216 218 217 215 212 210 208 210 210 210 213 217 
218 219 219 216 215 214 217 216 215 214 214 214 216 221 223 224 225 223 220 
220 222 219 212 210 207 207 216 214 211 210 207 205 205 203 204 204 204 204 
204 207 209 211 212 209 204 207 211 213 214 214 215 215 212 211 213 210 211 
215 216 216 216 212 210 206 203 203 205 206 206 205 208 208 209 207 203 201 
201 203 205 204 208 206 210 210 209 209 207 208 207 205 207 212 216 214 213 
215 214 213 212 214 214 214 211 208 205 204 201 203 205 211 212 213 214 217 
215 217 218 219 215 215 213 213 213 216 217 220 221 219 215 215 217 215 212 
208 207 207 211 212 212 212 209 211 210 206 207 208 207 206 206 207 211 214 
212 210 207 210 213 213 214 212 212 212 210 212 214 213 211 212 213 215 215 
211 210 207 203 202 201 201 204 203 206 208 208 206 202 203 203 206 207 207 
208 211 213 212 208 208 206 202 204 203 206 209 212 212 210 211 209 206 208 
207 210 211 209 204 198 196 195 197 198 207 209 211 210 211 210 211 213 212 
208 208 210 209 205 208 209 211 212 215 214 216 213 213 210 207 206 207 207 
210 212 215 213 216 212 211 212 209 206 206 205 203 206 212 210 209 210 210 
210 207 209 209 207 206 208 210 212 213 212 211 211 211 209 208 208 205 203 
204 205 200 201 202 203 205 204 203 203 204 206 209 210 211 211 214 217 213 
209 209 201 196 197 199 204 209 211 211 209 207 205 205 204 204 205 206 205 
201 198 197 194 194 195 199 201 203 203 201 204 207 210 207 204 204 207 207 
206 207 209 208 206 206 207 208 207 207 206 206 207 206 211 213 212 211 212 
211 208 205 205 205 205 207 207 205 209 211 213 213 213 211 211 211 213 211 
207 205 204 206 208 208 209 212 212 212 208 209 207 204 198 197 200 201 202 
205 206 207 204 202 202 204 207 207 206 208 209 210 209 207 206 204 206 202 
199 199 202 205 207 205 205 204 202 202 202 201 199 201 201 202 200 201 196 
194 194 198 202 203 201 201 199 202 204 201 203 206 210 212 212 209 203 200 
202 204 204 204 204 205 206 204 204 204 210 208 209 210 211 209 205 203 203 
205 206 207 206 204 205 207 208 211 209 208 209 212 212 210 207 207 205 204 
206 206 207 207 209 211 209 208 206 203 201 199 201 202 202 204 207 205 205 
203 203 203 204 205 207 211 213 212 210 208 203 202 203 201 200 199 198 200 
205 203 202 201 197 201 201 201 201 201 203 204 203 205 202 199 196 197 199 
200 199 201 202 205 203 203 204 206 208 208 209 206 201 201 200 200 198 197 
198 200 202 202 196 192 202 205 206 208 209 207 205 205 206 206 208 208 203 
200 201 200 200 202 204 206 208 209 207 206 206 205 202 202 203 205 206 209 
210 210 209 208 204 203 202 203 203 204 201 205 205 205 202 202 202 201 200 
202 203 206 209 210 211 209 206 202 201 198 201 200 199 199 203 203 203 203 
201 199 198 199 200 201 201 201 203 204 202 198 195 196 198 202 201 202 206 
205 203 200 202 201 204 205 204 206 201 203 200 196 195 194 193 195 197 199 
198 203 199 200 198 198 199 201 203 203 207 207 204 203 196 195 194 189 188 
193 198 198 200 204 204 203 203 203 201 199 200 204 204 206 210 211 208 205 
202 201 200 199 198 200 199 198 197 201 200 199 201 202 202 202 204 206 209 
208 209 208 206 204 202 200 197 199 200 203 207 209 208 207 205 198 195 196 
196 197 197 198 202 203 200 199 197 197 198 202 203 203 202 203 201 196 194 
196 203 205 205 207 204 200 199 199 199 196 194 192 191 191 189 186 198 196 
195 195 197 199 202 202 202 203 200 197 193 187 187 186 190 190 193 192 193 
194 196 195 195 198 198 197 195 196 200 201 205 208 210 208 203 202 198 193 
194 195 197 199 198 201 200 199 201 204 203 202 204 204 207 209 209 206 201 
202 199 198 196 197 199 198 205 205 204 204 200 194 190 192 191 194 195 196 
196 197 195 196 197 198 201 204 204 202 195 194 190 190 191 194 198 200 203 
202 201 198 196 195 194 192 191 190 188 189 187 184 193 190 190 191 192 194 
195 201 202 200 196 192 188 184 185 188 191 192 192 192 188 189 194 197 198 
198 198 198 195 195 196 198 200 203 206 206 203 202 198 196 193 194 195 197 
199 199 200 199 200 199 195 193 194 195 198 204 204 199 194 196 197 197 196 
198 200 203 205 204 203 195 190 187 184 185 191 194 194 196 196 195 195 197 
196 195 197 200 201 200 195 195 195 193 189 189 195 194 197 200 198 197 195 
195 196 200 199 197 192 190 192 192 192 192 188 185 186 188 193 199 199 195 
194 191 189 189 192 194 194 192 192 192 193 194 196 200 203 201 196 195 192 
193 192 194 198 200 200 200 199 197 195 194 193 195 194 198 198 198 200 200 
200 200 196 193 193 190 193 196 196 196 197 196 194 193 192 196 198 202 204 
205 200 193 191 189 186 188 192 195 197 194 195 192 189 189 188 188 189 190 
189 194 194 194 195 194 192 188 188 189 192 195 195 195 194 194 198 200 197 
197 193 188 189 188 188 186 182 183 188 188 188 192 192 192 190 188 188 190 
194 194 192 190 187 188 188 190 194 198 201 197 194 191 188 190 191 192 195 
196 195 195 194 195 192 192 190 192 193 199 199 198 200 200 203 204 201 199 
197 194 193 192 189 190 193 193 193 192 191 193 197 201 201 201 195 192 191 
192 194 197 197 199 200 198 194 190 187 189 187 186 188 191 189 190 195 193 
192 196 189 187 186 187 190 190 190 189 188 185 186 191 195 195 194 190 191 
193 186 184 185 185 187 186 186 188 189 191 189 190 190 189 192 191 191 185 
180 182 185 187 189 191 188 188 189 186 184 184 186 190 190 191 190 190 192 
192 190 190 185 185 187 194 197 194 195 195 195 197 193 192 192 190 191 191 
193 192 191 188 185 186 185 189 191 194 192 194 189 186 188 190 193 199 200 
200 199 194 190 187 183 182 183 182 185 188 188 191 195 192 190 194 192 191 
193 192 190 189 187 184 183 183 182 188 194 193 191 186 186 193 182 185 186 
186 183 183 180 183 186 188 188 189 189 189 187 183 181 180 180 180 182 182 
184 184 179 174 169 175 177 180 183 185 187 187 185 185 187 185 182 181 181 
182 186 194 197 196 193 191 188 190 191 191 188 189 190 190 188 188 187 186 
187 188 189 187 188 189 187 188 184 180 183 186 190 194 195 194 193 190 187 
184 182 183 183 185 187 188 192 194 193 192 189 189 188 189 191 192 188 186 
182 181 181 180 179 182 186 186 185 184 184 184 185 184 182 181 179 181 179 
179 179 182 181 184 185 185 185 182 181 183 183 182 183 184 183 181 177 175 
173 173 172 178 184 183 186 187 184 183 184 183 182 180 178 179 182 188 191 
193 191 188 186 185 188 190 186 186 187 183 183 184 185 184 184 185 185 188 
185 184 185 184 183 181 181 184 185 184 186 186 185 184 181 180 179 179 179 
179 180 182 190 194 194 193 191 188 186 188 187 188 185 183 182 179 180 180 
179 180 180 181 181 179 179 182 183 184 184 181 180 179 174 175 175 176 180 
183 185 184 184 181 179 181 182 179 185 187 184 181 179 179 176 175 175 175 
177 178 183 184 184 181 179 177 177 177 175 175 174 177 183 185 189 185 183 
182 183 183 178 177 176 172 176 179 182 186 188 190 188 186 183 181 185 184 
183 185 185 188 189 191 192 191 187 185 184 182 177 175 175 173 175 180 189 
191 191 189 185 185 188 188 187 183 179 178 180 179 180 181 182 183 181 178 
179 177 175 176 182 182 184 181 178 179 175 174 175 175 178 181 178 177 177 
177 177 175 177 179 182 183 182 180 179 181 179 177 175 174 176 177 181 181 
181 180 177 177 176 177 172 173 173 176 180 180 181 182 183 183 180 175 173 
174 174 173 176 175 175 183 183 185 184 183 180 178 181 184 183 186 188 185 
187 188 189 189 184 182 182 179 174 174 173 172 174 177 184 188 189 187 184 
184 187 190 190 183 178 175 173 175 173 173 173 177 177 176 177 179 178 178 
180 179 179 176 177 177 176 173 173 174 173 174 171 171 173 174 174 172 173 
173 177 182 185 182 182 183 180 178 175 176 177 180 183 180 182 178 177 175 
174 175 172 170 170 172 176 175 175 179 182 176 174 170 168 170 170 170 173 
174 176 179 183 185 184 180 176 173 176 179 182 183 182 180 181 184 182 182 
181 181 177 173 173 175 174 170 170 172 177 181 184 187 186 185 187 192 191 
183 179 174 171 171 176 175 176 176 176 176 175 176 175 178 177 177 178 177 
175 174 174 174 172 175 174 175 169 167 171 171 171 172 173 173 176 184 187 
185 185 183 179 176 173 169 171 175 179 179 181 178 179 175 176 176 172 170 
169 170 169 170 172 172 171 166 168 166 165 166 167 167 170 171 174 176 178 
180 179 178 174 172 173 173 174 175 176 175 178 178 179 181 185 186 182 177 
177 176 177 172 172 174 176 178 178 180 181 182 185 190 189 186 181 173 172 
171 168 169 172 174 178 178 174 175 175 175 177 177 176 176 176 176 177 175 
174 178 178 176 172 168 170 169 170 171 175 176 178 182 186 184 181 177 176 
177 176 173 173 172 175 175 175 171 168 172 173 177 175 173 168 164 162 167 
170 171 167 166 165 165 162 165 167 169 171 169 174 176 178 179 179 179 179 
174 172 171 171 172 171 172 176 176 175 177 179 180 184 181 180 175 174 171 
171 170 171 170 171 171 172 173 178 181 184 184 183 178 177 174 170 169 172 
174 177 180 181 185 185 186 174 173 174 176 173 172 173 173 172 171 173 175 
173 172 172 171 170 171 174 176 175 179 183 185 182 177 174 174 174 170 171 
170 170 169 169 167 170 170 171 173 173 170 167 164 166 170 174 175 171 170 
170 167 167 169 171 172 173 172 175 175 174 173 172 169 167 165 165 168 169 
169 170 168 171 172 174 174 175 176 179 181 176 171 171 167 168 169 169 170 
170 171 170 172 177 180 184 185 185 181 177 177 173 173 173 175 178 177 180 
180 185 186 174 169 169 171 170 169 168 166 165 168 170 172 170 169 171 172 
174 174 172 171 171 172 177 179 177 175 172 171 170 166 169 171 171 171 169 
167 168 168 168 170 174 173 171 167 166 166 168 168 164 162 162 165 166 168 
171 173 174 172 176 175 168 164 164 162 159 160 162 163 165 167 165 165 168 
170 172 174 171 170 171 177 172 173 172 167 167 167 165 166 165 166 168 171 
174 177 179 180 181 180 174 175 173 174 174 172 172 169 171 171 171 171 171 
167 166 165 166 166 166 167 167 167 168 170 169 168 170 170 171 170 171 169 
168 168 169 172 171 171 169 167 168 169 172 173 173 174 171 169 169 167 161 
164 168 169 167 166 166 163 161 163 164 164 163 164 166 167 167 170 172 174 
176 174 167 164 162 161 162 160 161 162 163 164 161 162 166 168 169 171 170 
169 171 174 170 168 167 164 165 164 163 163 167 168 168 171 171 172 177 179 
179 176 172 171 170 170 171 168 163 161 163 164 164 160 171 168 165 162 161 
161 164 166 167 168 167 163 163 170 170 168 169 168 169 169 168 165 166 166 
165 163 160 158 160 161 167 170 172 173 170 169 171 167 163 165 167 169 167 
166 163 160 158 161 164 164 161 159 160 159 162 163 164 166 168 170 169 167 
168 167 164 163 163 164 164 162 163 160 163 164 165 167 167 169 169 169 170 
171 170 168 169 167 162 161 165 169 170 170 168 167 169 172 173 171 168 167 
167 167 166 164 161 161 160 160 160 159 170 170 169 166 160 160 165 165 172 
169 169 166 166 167 167 168 169 166 165 166 167 164 163 163 162 160 155 157 
155 157 162 168 170 170 167 168 168 167 165 165 168 167 166 164 162 161 158 
159 163 163 164 162 158 161 163 160 158 159 159 166 169 170 168 168 166 165 
164 165 165 164 161 158 161 161 161 161 166 169 169 169 165 168 173 173 171 
168 163 163 163 163 164 165 166 164 167 173 173 169 166 164 165 162 160 158 
162 161 160 160 163 166 166 164 160 157 159 159 166 166 168 168 169 166 168 
169 168 169 168 166 164 161 161 159 161 161 158 155 151 151 154 159 162 168 
168 171 168 168 164 164 164 161 158 157 161 162 161 159 158 160 162 162 162 
160 157 159 160 159 157 158 158 161 165 167 166 167 166 166 165 164 162 159 
159 157 158 161 159 159 162 165 167 168 167 170 172 173 172 170 166 164 163 
161 158 158 162 164 163 163 164 164 161 157 160 161 159 161 162 160 158 158 
156 152 156 155 155 154 155 154 157 159 162 164 165 162 163 164 163 163 163 
165 164 161 161 159 159 156 151 150 144 147 153 153 156 163 165 162 162 164 
162 160 161 159 159 156 158 159 159 159 157 160 162 161 160 158 161 162 160 
162 161 162 162 164 166 167 167 168 168 169 167 166 161 159 158 156 156 156 
155 152 155 160 163 167 166 167 168 169 171 171 167 169 164 162 157 157 161 
162 163 161 160 159 158 157 156 158 159 161 161 163 158 155 156 156 151 152 
153 153 152 150 151 155 159 159 156 151 154 156 158 158 158 160 160 163 161 
163 162 160 154 153 148 147 150 154 156 157 159 159 164 165 165 160 160 156 
153 152 155 157 157 160 160 156 156 157 158 155 154 156 154 156 157 158 158 
160 160 162 164 165 167 169 169 168 164 160 155 152 150 153 153 154 152 155 
157 159 161 162 163 164 167 168 167 165 162 161 156 155 156 155 160 155 154 
152 155 156 155 156 156 157 160 161 156 153 154 155 150 150 148 150 150 147 
152 155 159 158 155 150 151 154 152 152 152 156 161 162 166 167 166 164 160 
155 150 148 153 153 152 153 154 159 161 162 162 158 157 159 159 156 156 156 
157 157 155 152 153 158 159 154 151 151 149 151 155 156 156 154 155 158 160 
165 164 165 167 163 159 155 151 152 152 154 154 154 153 153 153 155 156 158 
159 163 165 165 163 161 159 157 155 155 153 155 156 154 151 148 146 146 147 
150 154 153 153 152 148 148 147 147 160 159 153 152 152 151 153 157 155 154 
152 151 151 151 152 150 150 152 154 155 159 160 160 157 157 155 153 152 155 
153 153 154 154 155 155 160 158 157 156 157 160 156 157 157 154 156 154 152 
151 156 159 162 158 156 151 151 151 152 154 154 155 155 155 158 156 157 156 
154 153 149 148 149 153 156 157 157 154 153 153 154 153 151 153 157 159 161 
159 158 156 154 153 153 153 154 156 156 150 145 145 146 147 148 152 152 151 
148 145 144 143 146 156 155 153 150 150 150 152 152 152 150 147 147 148 150 
151 153 150 152 154 156 159 158 158 155 150 147 146 148 149 150 149 149 148 
150 151 153 151 155 156 155 158 157 156 154 153 152 150 149 149 151 157 158 
159 156 154 154 151 151 152 152 154 153 152 154 157 157 156 154 151 147 145 
147 151 155 159 161 159 154 152 154 152 149 148 148 150 153 152 153 153 151 
151 149 150 153 155 155 152 147 148 146 147 150 153 155 154 155 152 145 146 
139 160 158 153 152 151 152 151 149 148 147 142 140 142 145 150 152 150 149 
149 152 152 151 151 148 145 143 142 143 144 146 150 149 146 148 151 155 154 
157 156 157 158 157 154 149 146 145 145 148 149 148 150 148 150 150 151 152 
151 151 152 150 152 153 154 156 155 154 153 150 146 144 144 148 148 151 154 
154 153 149 148 151 153 150 147 147 150 152 154 153 152 151 149 146 146 146 
151 155 157 154 151 149 146 147 150 154 152 151 151 151 155 156 157 158 153 
150 149 152 151 148 145 143 140 138 140 143 149 150 149 148 146 147 147 149 
148 145 139 137 142 142 147 146 149 145 147 147 149 151 151 151 150 152 153 
150 149 145 142 142 139 140 141 142 145 143 144 145 148 149 145 145 146 152 
150 149 149 151 151 150 150 150 146 145 143 145 144 145 146 147 154 152 152 
155 155 149 147 151 149 151 151 151 149 145 145 142 144 147 149 151 153 148 
148 147 147 146 151 152 153 149 147 148 150 152 152 152 152 152 151 153 152 
146 142 142 139 140 142 144 147 149 148 147 147 145 144 143 144 140 139 139 
143 146 148 152 151 149 149 150 152 147 145 142 142 141 140 138 139 141 139 
136 136 137 137 139 138 138 140 142 144 145 146 142 141 146 146 145 142 145 
147 147 146 147 145 143 143 142 140 138 139 141 147 149 153 155 154 150 145 
144 143 142 143 144 145 144 143 146 148 149 149 146 149 150 150 149 147 148 
151 153 154 153 153 150 146 143 141 140 142 145 149 150 152 149 147 145 142 
144 146 144 145 148 146 145 142 143 144 144 144 143 142 143 144 146 148 149 
147 146 146 146 149 144 138 134 133 136 138 139 140 141 142 141 138 134 133 
133 133 133 136 139 141 139 137 139 140 141 140 141 143 144 144 143 143 142 
144 145 146 142 139 137 137 140 145 147 149 149 148 147 146 143 142 141 143 
145 145 147 148 149 148 145 146 150 153 153 151 147 146 146 148 148 150 151 
151 150 143 140 137 137 138 140 143 146 149 149 149 150 148 147 146 143 142 
144 143 140 140 138 141 142 142 144 145 143 144 145 142 139 140 140 141 143 
144 140 135 129 127 133 136 138 143 145 145 144 140 136 133 133 135 136 138 
142 143 141 138 137 138 137 136 139 142 144 142 143 142 142 144 146 146 142 
144 138 136 141 144 145 145 146 149 147 149 143 142 140 135 135 136 144 146 
145 144 144 144 145 148 150 149 149 147 145 143 144 146 147 145 144 138 134 
131 132 134 136 139 141 144 144 145 146 143 141 144 144 142 141 134 133 139 
141 143 143 142 141 143 143 142 141 140 136 134 131 133 132 135 136 134 131 
131 132 135 138 142 143 143 145 142 139 138 140 142 143 144 146 143 137 134 
134 135 135 136 136 139 144 143 141 139 139 141 141 140 141 144 137 137 138 
139 145 147 145 146 148 148 145 145 144 139 136 136 142 142 139 138 138 137 
141 144 148 147 148 148 148 149 147 147 146 142 138 133 131 135 131 130 130 
132 134 139 140 138 137 136 137 140 143 145 141 136 134 138 140 141 143 141 
138 139 141 141 138 134 134 133 129 129 131 130 132 129 130 131 131 132 135 
138 141 143 141 139 139 139 143 143 141 145 144 143 139 135 132 137 138 139 
138 139 142 140 142 140 137 136 133 132 130 137 138 141 141 140 142 143 138 
136 137 137 137 140 141 140 138 138 141 139 136 135 134 134 137 136 136 135 
137 141 143 144 144 146 145 143 141 138 141 137 136 134 133 133 135 138 136 
132 130 129 130 134 135 135 132 132 133 137 137 135 138 135 137 137 137 136 
136 137 137 136 133 133 136 134 134 132 130 130 125 124 125 126 133 137 137 
136 135 135 138 136 137 138 135 134 132 131 129 133 139 139 140 140 138 138 
139 136 135 132 129 128 127 133 137 139 137 139 135 135 134 131 129 126 129 
135 138 138 141 138 137 137 137 136 135 132 132 133 134 132 131 136 140 142 
142 142 147 147 146 146 145 139 138 137 135 136 142 142 140 135 132 132 135 
137 139 135 131 129 131 132 131 136 136 135 135 132 132 133 137 136 139 139 
137 132 133 134 133 133 127 127 124 123 126 124 130 133 134 134 132 134 134 
131 133 133 132 133 133 131 134 138 141 139 139 137 138 140 141 136 135 130 
129 130 131 134 135 135 134 132 129 130 126 124 126 126 130 132 132 133 136 
137 134 132 132 134 133 134 133 133 132 132 133 135 135 139 137 138 144 141 
140 141 136 135 135 137 137 136 137 137 135 134 133 133 136 138 135 132 130 
129 134 135 132 132 133 130 131 131 133 135 138 139 137 137 135 133 133 134 
134 134 133 132 130 129 130 130 132 131 131 131 129 129 129 130 133 132 131 
130 125 126 131 136 139 139 138 136 139 142 139 137 136 131 131 133 134 130 
128 130 130 129 128 127 127 125 127 127 129 128 126 128 129 131 130 130 133 
133 132 133 133 131 128 128 130 132 134 136 138 140 141 139 136 135 131 132 
131 135 131 132 133 133 131 132 130 130 134 138 136 132 130 126 133 132 131 
130 132 130 131 132 135 136 139 139 137 136 131 130 131 132 132 133 137 136 
134 130 127 128 131 135 135 132 127 128 128 130 133 131 131 130 125 125 127 
133 133 134 131 131 135 136 135 132 133 132 132 132 130 127 127 127 129 131 
128 129 130 129 128 127 127 126 126 128 128 131 130 131 131 132 134 134 132 
129 129 129 132 134 135 135 135 137 138 137 133 130 127 135 136 137 135 134 
135 134 131 131 128 131 135 139 136 134 127 122 124 124 124 124 126 127 130 
131 128 128 129 124 125 125 123 126 127 129 128 131 136 135 134 134 131 129 
131 132 135 133 134 131 131 131 132 133 132 130 131 127 125 125 126 128 128 
131 134 132 132 129 131 131 132 133 130 132 132 132 134 133 133 137 135 135 
131 130 128 128 126 125 124 125 127 131 134 134 133 130 126 122 123 123 127 
130 130 133 134 133 134 132 130 130 125 133 135 136 136 134 131 131 129 128 
124 129 129 136 132 126 126 126 123 123 120 120 119 121 123 124 121 123 123 
120 121 122 122 122 119 119 119 120 125 133 136 135 133 131 131 131 130 128 
131 132 131 132 133 135 135 132 134 125 120 120 123 126 130 134 137 134 134 
127 127 126 128 130 131 133 132 133 134 134 131 132 132 131 131 130 126 126 
121 122 120 121 125 128 133 131 133 131 128 125 124 123 125 130 131 133 132 
130 128 126 125 125 120 129 129 129 130 125 125 125 125 126 122 126 126 127 
129 129 126 122 121 123 123 124 122 121 120 120 121 121 120 119 122 123 122 
119 115 114 120 119 123 136 136 136 134 132 131 128 129 125 126 130 129 128 
128 128 131 129 127 122 121 121 122 124 129 129 130 131 130 127 125 126 127 
127 128 128 127 127 125 121 125 127 129 132 133 130 125 124 121 122 124 125 
125 125 125 125 129 130 129 130 131 128 127 128 127 127 126 127 126 125 125 
126 124 116 120 124 126 126 124 123 123 121 119 121 124 127 130 129 124 119 
116 119 122 123 128 126 125 124 124 116 114 113 116 121 122 119 117 114 115 
116 123 131 130 130 128 124 124 124 123 123 125 127 127 126 128 132 132 129 
127 122 119 121 122 122 123 121 124 126 127 125 124 122 123 125 125 123 120 
123 123 123 124 126 127 128 132 130 127 126 123 123 126 126 124 121 118 118 
119 122 125 128 128 129 128 127 128 128 130 129 128 125 128 130 132 111 115 
118 121 120 117 118 121 119 122 118 118 119 117 115 117 114 114 115 118 119 
122 122 121 117 116 111 110 113 115 118 124 122 119 116 115 116 121 124 126 
126 124 120 122 122 120 121 125 130 128 127 126 126 123 123 124 123 119 121 
120 117 118 116 115 121 124 122 117 116 118 117 121 122 121 120 121 121 120 
122 123 126 129 129 124 122 122 122 126 126 123 121 117 118 119 121 125 127 
128 133 135 130 128 127 130 129 126 124 126 129 133 112 113 114 114 114 116 
122 125 124 122 119 115 117 117 116 119 116 117 117 119 120 120 119 119 117 
117 113 112 117 119 120 121 120 116 114 117 120 126 127 125 121 121 118 118 
119 119 120 118 120 119 118 120 121 121 120 119 122 120 122 121 119 117 114 
116 119 119 116 113 118 120 118 122 119 120 117 115 115 117 119 120 123 123 
125 122 120 118 119 121 120 119 117 115 115 117 117 119 120 128 132 132 127 
125 123 125 126 127 124 124 123 124 117 117 114 111 113 121 124 127 127 123 
118 118 120 119 120 118 116 118 119 119 119 118 119 118 117 116 114 114 115 
114 115 114 114 114 114 116 121 124 123 122 120 115 112 112 114 116 116 117 
118 117 115 114 117 119 117 115 114 113 114 116 115 116 115 114 115 114 113 
116 117 118 119 122 121 120 117 114 113 116 117 116 116 118 116 113 114 116 
115 118 114 113 112 113 116 113 111 115 119 122 126 122 121 119 117 121 125 
127 128 123 121 122 120 119 116 115 112 116 114 118 121 118 114 114 116 117 
118 119 121 121 121 121 120 121 121 120 116 114 117 117 117 117 119 117 117 
114 112 113 118 121 120 119 115 113 110 110 113 114 114 116 116 114 114 113 
116 119 117 116 113 112 110 108 108 111 111 114 113 110 109 111 115 114 115 
117 116 116 116 113 113 113 116 115 113 111 108 107 110 113 112 113 109 109 
109 109 111 110 109 111 112 111 109 112 113 114 113 119 121 123 125 120 118 
118 116 117 115 112 111 112 113 114 112 109 110 111 115 114 114 115 116 119 
121 119 119 118 116 110 108 108 109 112 116 117 120 120 118 117 117 116 117 
120 120 119 116 110 103 100 99 110 112 114 117 115 117 115 113 116 116 113 
110 107 103 105 107 108 108 110 109 107 104 105 106 111 112 117 115 116 116 
114 111 112 114 115 111 109 110 109 112 115 115 114 114 111 107 104 107 108 
106 105 104 107 108 110 110 111 109 112 114 117 120 115 113 110 111 112 109 
111 113 114 113 112 111 110 110 113 112 113 110 111 112 111 114 115 116 116 
116 111 106 107 107 110 113 117 119 118 117 116 117 116 117 118 115 114 111 
106 104 101 99 105 109 113 116 120 123 125 122 121 119 116 113 110 108 110 
111 107 104 106 106 105 104 102 103 108 110 116 118 117 115 112 111 113 114 
110 105 105 106 111 114 115 114 114 115 110 108 108 109 108 104 103 103 105 
108 112 112 113 113 115 116 117 117 115 113 108 105 105 104 105 108 107 108 
109 110 111 111 112 113 112 107 108 108 107 108 110 111 112 113 112 111 109 
108 108 109 110 110 111 113 114 117 116 117 116 113 108 103 100 100 98 98 
98 100 101 105 110 115 120 116 118 117 118 116 111 112 111 112 105 104 106 
108 109 109 104 105 106 109 112 112 109 107 105 102 102 105 106 108 108 108 
110 112 111 110 111 114 111 110 108 106 106 102 103 103 103 105 106 106 109 
114 116 117 115 117 115 114 113 103 103 103 103 105 105 105 105 108 110 110 
110 108 108 107 107 106 103 105 105 110 113 114 112 109 107 107 102 98 98 
101 106 108 109 110 113 114 112 108 103 101 100 102 101 100 98 97 99 103 
104 107 111 112 112 116 117 116 115 114 112 113 109 106 105 104 106 108 107 
108 109 113 113 112 108 106 105 103 102 104 105 106 105 107 109 111 109 108 
109 112 111 110 112 110 110 108 108 107 105 107 109 107 106 111 111 112 112 
112 110 106 105 103 106 107 107 105 104 102 103 105 107 107 109 108 105 103 
103 104 104 104 105 107 110 112 110 105 106 104 100 103 103 102 104 107 108 
109 111 111 112 110 106 105 104 102 100 100 97 96 95 100 102 102 101 105 
106 109 111 111 112 112 111 112 110 109 108 107 109 108 109 111 110 110 109 
110 109 108 106 103 97 99 102 106 106 109 113 117 114 110 109 109 109 108 
109 107 108 106 105 105 107 106 107 105 103 104 104 105 108 110 108 101 98 
102 104 105 105 99 99 101 101 102 109 107 108 105 102 100 102 104 103 103 
103 104 108 111 110 106 105 102 99 99 102 102 103 103 104 104 106 109 111 
107 107 102 102 101 102 101 97 96 94 93 92 95 94 99 102 107 109 107 
105 106 103 106 106 102 102 106 107 106 107 109 107 106 105 104 107 107 106 
101 97 97 101 104 107 110 111 112 112 110 109 107 109 109 107 106 102 101 
97 97 99 99 98 98 97 97 98 98 99 103 105 102 100 102 104 106 102 
99 98 99 103 107 111 109 108 104 104 100 100 100 104 102 102 101 103 106 
108 108 105 103 102 102 101 94 94 95 95 97 101 106 109 109 108 105 102 
102 102 98 95 96 94 94 92 93 95 101 102 104 104 102 99 96 96 97 
96 97 98 102 103 104 104 106 107 106 106 108 109 109 104 98 95 97 100 
103 105 108 112 111 109 106 106 105 106 108 107 104 99 98 96 95 96 97 
94 94 97 99 98 94 95 96 102 103 101 100 100 100 98 99 96 99 102 
103 104 105 104 102 100 98 100 98 100 99 97 95 96 99 100 97 94 95 
97 97 96 92 90 88 90 92 94 102 106 106 104 102 98 100 100 99 98 
98 96 97 97 97 96 99 100 100 99 99 98 93 93 95 96 97 99 100 
99 98 99 101 104 106 107 105 103 102 100 96 94 94 95 99 99 106 105 
103 99 97 100 99 99 100 98 96 98 97 94 92 95 93 90 90 93 95 
94 90 88 91 101 102 106 94 95 96 94 95 94 94 98 97 96 94 97 
96 97 96 100 98 98 96 97 95 94 96 92 87 87 89 93 90 90 90 
87 86 87 90 91 99 101 101 102 101 96 93 97 95 96 98 95 97 94 
92 90 95 97 94 94 94 95 95 97 100 100 97 96 95 95 96 97 98 
98 98 100 101 100 96 94 94 92 91 95 98 98 99 97 93 92 93 96 
96 98 98 97 95 96 95 95 92 92 92 90 91 92 95 95 94 92 92 
93 96 95 93 95 95 92 92 91 91 94 93 94 94 93 92 92 93 96 
95 95 94 93 93 93 95 94 92 91 89 91 90 89 90 88 87 88 90 
91 97 98 97 97 96 94 92 92 93 92 92 87 88 90 91 90 90 91 
91 90 90 94 96 100 100 99 96 94 94 93 93 94 92 94 94 93 92 
92 90 93 95 101 101 101 98 96 96 93 92 92 90 90 89 92 92 95 
94 92 91 91 90 91 90 88 90 94 94 95 94 92 92 91 91 92 96 
98 98 94 93 90 87 89 90 93 93 92 92 88 89 91 92 92 89 90 
91 92 93 94 92 91 91 92 93 94 93 92 90 90 89 91 94 96 95 
96 93 91 89 91 94 91 89 85 85 86 89 88 88 87 88 89 90 93 
96 98 101 98 98 96 97 94 90 92 88 87 87 88 90 90 92 93 94 
101 104 101 99 97 93 93 92 92 90 89 88 89 92 93 92 92 88 86 
86 86 86 87 92 94 93 92 91 88 87 86 86 86 95 96 98 97 96 
94 90 93 92 95 90 90 90 88 89 92 92 91 86 88 90 91 91 89 
88 89 89 92 94 96 93 93 91 88 87 84 87 88 88 92 90 89 89 
90 92 93 91 88 85 85 87 85 86 86 86 88 88 89 93 93 97 96 
96 93 92 94 90 88 83 85 83 84 86 88 89 90 91 99 104 104 103 
98 91 89 91 92 90 89 87 85 90 87 84 81 81 81 82 83 86 88 
91 91 89 89 89 88 87 85 85 84 95 96 97 96 96 93 90 90 91 
90 88 86 86 83 85 92 93 89 84 85 86 87 91 88 87 88 89 89 
90 94 89 85 84 84 86 85 85 85 87 88 87 86 87 88 90 88 86 
85 82 82 83 86 86 85 86 89 89 89 91 90 93 95 93 91 90 91 
88 86 86 88 85 85 87 88 90 91 89 92 92 93 95 92 87 86 88 
91 89 89 86 88 88 86 81 76 76 78 78 79 81 82 85 86 90 90 
88 87 89 88 86 85 85 87 89 93 92 91 90 90 90 89 85 82 82 
81 80 83 81 84 84 85 84 86 89 90 90 89 89 87 87 86 85 84 
83 83 87 86 86 83 81 81 79 82 83 86 87 86 83 80 80 79 82 
85 87 89 91 92 90 92 93 93 92 93 92 90 90 92 90 86 88 87 
82 81 84 85 88 88 87 86 83 84 83 82 84 84 85 88 87 87 85 
84 85 82 77 75 76 78 78 79 79 81 84 85 86 87 85 86 87 83 
83 83 81 80 85 86 87 86 84 87 85 84 83 78 73 74 74 78 80 
85 84 82 82 87 88 88 89 87 85 87 83 81 83 81 82 82 82 80 
76 72 73 75 75 78 79 80 83 83 81 80 78 75 77 79 83 86 88 
88 87 88 86 90 91 92 91 92 90 91 87 84 82 83 83 83 86 87 
86 84 83 81 82 80 80 80 82 83 83 82 83 83 82 81 81 80 77 
77 73 75 77 81 80 79 81 82 83 80 80 82 83 84 85 83 85 82 
84 86 86 83 83 86 82 81 78 73 72 71 73 79 78 81 79 78 83 
89 86 86 87 85 83 84 83 86 85 86 86 83 80 79 74 72 73 72 
75 79 81 83 86 85 83 81 79 78 79 77 78 82 84 84 84 85 85 
92 91 91 93 96 90 88 85 80 76 75 74 78 82 85 87 83 82 81 
80 78 79 81 83 84 82 81 84 85 85 80 80 82 82 79 76 77 75 
78 78 77 75 73 74 76 78 79 82 82 84 84 85 83 82 83 83 85 
86 86 83 81 75 75 77 77 78 82 81 83 82 79 80 83 84 86 85 
81 79 79 79 79 79 79 82 82 81 78 77 78 80 78 80 84 83 89 
90 89 84 81 75 74 75 73 74 78 80 79 80 80 81 84 85 85 86 
87 85 82 82 78 75 72 71 75 79 81 82 82 81 79 77 76 76 82 
81 83 83 83 85 86 87 83 78 80 81 80 77 77 75 76 74 73 72 
72 73 77 79 80 81 83 86 89 77 76 77 79 88 88 87 84 83 82 
79 77 77 76 77 79 80 81 80 80 82 80 82 83 84 82 81 78 77 
78 80 79 80 79 79 77 78 77 80 81 82 85 88 91 91 91 87 83 
77 73 70 69 71 71 72 73 77 77 79 81 79 78 79 80 80 79 80 
78 76 75 72 75 81 83 83 81 81 81 75 73 75 80 81 82 83 86 
84 85 85 83 79 80 80 79 76 75 76 76 77 75 73 73 74 76 80 
79 78 76 80 81 78 79 79 81 84 83 82 79 78 79 78 76 76 73 
73 76 76 77 78 78 79 76 75 74 74 77 74 71 71 73 74 75 77 
76 77 76 78 77 79 79 79 82 83 85 86 84 82 82 78 73 72 69 
68 70 72 73 74 74 75 76 76 77 81 82 83 80 78 79 78 75 77 
78 80 81 81 77 77 77 76 75 76 78 80 79 76 77 76 76 77 80 
82 84 82 78 75 73 74 74 73 71 71 70 72 76 79 78 76 71 69 
65 76 77 81 81 79 77 74 71 73 74 76 74 73 71 73 75 74 76 
75 74 74 73 69 65 68 71 73 67 67 71 74 76 77 74 76 75 75 
77 73 75 76 76 79 79 82 81 80 81 77 74 73 73 75 77 77 75 
76 77 79 79 78 81 83 84 82 79 78 80 77 75 77 78 75 73 71 
70 70 70 69 66 66 68 72 74 74 74 74 75 76 79 82 83 82 78 
76 74 75 76 74 72 73 75 77 76 76 76 74 74 75 75 77 76 78 
80 76 75 72 69 68 67 69 71 71 72 74 75 75 74 74 73 71 70 
68 66 66 68 69 68 68 72 72 74 75 73 72 71 71 75 73 76 76 
78 79 80 81 78 76 77 71 71 73 73 74 76 75 75 80 78 77 77 
73 76 77 75 75 74 72 74 73 71 70 70 67 67 68 66 67 67 67 
67 66 67 70 72 71 70 70 70 71 73 78 78 75 73 72 71 74 78 
80 80 78 81 81 79 74 74 74 72 74 77 72 71 75 78 76 76 73 
71 69 69 68 68 69 70 72 75 78 76 74 74 71 65 64 64 66 69 
70 69 69 72 71 74 75 71 68 68 70 71 69 73 74 78 80 80 81 
79 75 73 69 70 71 70 72 69 72 75 76 75 77 74 72 69 70 69 
69 73 72 72 70 68 67 67 65 65 67 71 68 72 72 70 70 71 71 
70 70 69 69 68 70 70 72 73 74 72 71 69 71 72 74 74 73 75 
75 74 71 70 69 70 73 77 74 76 75 74 72 71 69 67 64 65 67 
66 67 71 72 74 74 74 72 75 64 63 66 65 65 65 67 68 67 71 
71 72 73 69 68 69 69 70 71 76 77 78 78 79 79 76 72 69 70 
74 73 72 73 71 73 76 77 76 75 71 69 66 70 71 69 70 70 69 
65 63 65 62 63 61 58 66 68 72 73 73 73 72 71 72 72 72 71 
71 71 70 72 72 73 72 70 66 64 66 69 68 69 68 69 69 71 71 
74 72 69 69 75 78 75 74 73 73 70 68 68 67 69 71 65 66 67 
68 67 68 68 68 62 61 62 67 69 70 70 69 65 66 66 70 69 69 
68 69 67 67 68 69 71 75 75 78 81 76 74 71 69 69 69 70 71 
69 71 69 69 68 68 68 68 69 73 73 68 65 66 68 66 64 66 65 
62 61 59 64 66 72 72 73 72 73 75 75 72 73 70 68 65 65 68 
68 69 66 62 61 59 60 59 59 64 64 65 65 68 70 73 69 64 62 
73 76 77 75 75 72 67 64 62 61 65 67 65 63 62 63 63 62 60 
58 57 61 60 62 66 68 67 65 61 63 65 69 68 66 67 68 65 63 
63 61 65 70 74 74 73 72 73 72 68 66 65 64 62 62 65 66 66 
62 60 61 59 61 65 66 64 63 63 64 64 64 70 70 69 66 65 67 
70 70 69 67 66 71 74 72 69 68 67 63 60 63 66 66 68 65 63 
61 58 58 58 57 56 55 56 59 64 65 64 64 65 62 69 68 71 70 
69 66 62 59 62 61 63 66 66 67 62 64 61 60 63 58 57 58 59 
62 64 66 69 67 63 63 62 63 65 66 67 65 63 62 59 57 55 58 
63 65 68 68 68 67 64 62 61 57 56 56 56 57 56 55 53 56 56 
56 60 61 60 61 61 60 63 65 72 73 75 73 71 70 71 69 69 68 
66 68 71 72 69 65 60 58 57 59 63 65 70 67 67 68 67 61 60 
56 53 54 52 55 58 62 62 63 63 61 68 69 70 70 65 64 57 56 
56 61 65 67 65 64 61 61 60 60 59 56 57 58 61 63 64 65 65 
64 60 60 59 62 63 60 61 59 60 59 56 53 55 55 58 58 60 63 
63 62 59 57 55 53 52 52 55 56 54 54 56 56 53 55 58 61 63 
65 64 64 64 62 64 67 70 68 66 65 64 64 67 68 68 69 69 68 
64 61 57 53 51 52 55 60 63 61 64 66 63 61 58 53 54 56 54 
56 62 63 60 60 62 63 59 61 61 60 57 54 50 50 52 54 61 61 
62 64 65 67 66 63 64 62 61 63 62 62 62 61 62 62 63 65 62 
67 64 61 60 61 59 56 55 52 54 55 59 59 59 56 55 56 54 55 
54 50 48 48 51 53 54 54 54 55 55 55 57 60 63 62 63 63 62 
57 59 61 65 65 65 65 61 60 59 59 63 64 66 65 62 59 60 59 
58 57 57 58 63 64 64 67 65 59 56 54 53 58 59 56 57 62 60 
62 63 63 52 54 54 54 55 55 54 54 56 59 65 64 64 64 62 62 
61 61 62 62 61 60 59 57 57 57 57 57 58 59 58 58 54 53 53 
55 55 54 55 54 56 54 57 58 56 54 48 52 54 55 55 52 50 51 
53 53 56 56 57 55 55 53 55 57 60 61 61 61 58 58 58 60 60 
61 59 59 59 63 60 58 59 61 60 60 57 57 58 60 60 57 56 56 
61 64 65 69 67 66 66 64 58 56 56 56 58 59 60 61 62 62 54 
55 55 53 52 53 54 56 58 58 60 61 64 63 61 60 59 62 60 57 
58 59 55 55 53 50 53 50 54 53 52 50 50 48 49 50 52 52 54 
55 56 56 56 57 56 55 53 55 58 58 57 55 54 56 59 60 63 58 
54 52 52 51 53 53 54 56 56 59 62 63 61 60 61 60 56 53 53 
60 60 58 57 57 55 54 51 52 55 56 56 56 56 57 59 60 60 62 
65 65 64 64 62 61 60 58 57 55 55 58 60 64 51 50 50 49 50 
48 46 47 49 53 54 59 61 59 58 55 52 54 54 55 58 57 54 53 
52 48 50 47 49 45 43 42 44 44 44 48 49 49 50 54 53 51 49 
53 55 57 55 56 55 57 55 52 53 57 61 61 63 58 54 52 53 53 
52 53 56 56 56 60 65 66 64 63 62 60 59 58 57 59 56 55 56 
56 57 57 55 54 53 51 53 54 54 56 56 56 54 52 54 54 57 60 
61 59 55 56 60 56 55 50 48 48 47 45 46 46 51 49 46 46 48 
50 55 59 60 59 58 54 51 53 53 54 54 56 52 52 50 48 48 46 
48 45 44 43 44 44 47 49 48 50 53 55 56 53 53 54 57 58 54 
52 51 51 51 53 53 52 55 55 53 49 46 46 52 51 52 51 54 55 
55 56 60 60 61 60 62 63 63 63 62 62 59 55 55 54 57 56 55 
50 46 43 47 49 49 52 51 52 50 47 52 54 56 58 57 56 54 52 
51 51 51 48 45 44 44 43 45 45 49 51 49 46 46 47 49 53 55 
52 55 50 46 45 47 50 50 52 50 48 46 46 47 47 47 41 41 43 
43 43 47 46 44 47 50 52 52 51 51 53 55 52 49 49 49 46 50 
53 53 53 55 52 49 44 38 36 43 45 49 50 50 49 48 49 52 53 
53 51 53 55 56 55 54 55 56 56 54 52 55 55 53 49 43 40 42 
45 46 47 49 49 48 48 50 52 52 51 54 49 47 45 43 45 45 44 
43 43 42 41 39 39 40 42 44 43 44 47 50 52 54 54 57 54 48 
46 43 41 42 43 45 48 48 46 47 44 43 40 38 41 40 40 41 42 
40 43 48 49 49 49 46 49 52 50 47 46 49 46 51 54 51 51 49 
47 44 38 33 30 34 33 34 39 39 40 44 45 48 47 46 46 46 48 
47 48 52 53 54 54 53 50 52 51 51 47 43 41 45 49 48 48 47 
49 48 50 51 49 48 49 51 49 46 45 42 44 46 47 48 50 42 41 
38 38 37 41 45 44 46 50 53 53 54 56 56 56 51 48 39 37 37 
39 41 41 44 45 46 43 41 38 37 38 38 39 39 39 41 45 50 51 
51 50 48 48 47 47 47 47 46 44 46 47 47 48 43 39 36 33 27 
25 25 28 33 36 37 37 39 43 44 48 47 46 42 40 43 46 49 50 
49 48 47 46 47 48 48 44 42 42 45 47 45 43 42 44 43 44 45 
42 42 44 45 42 43 43 46 48 48 44 44 42 38 38 40 40 42 46 
51 51 53 53 48 46 48 46 49 49 46 44 39 37 35 38 39 43 45 
45 41 37 37 38 39 40 40 42 42 43 46 49 50 51 52 47 46 48 
46 47 48 48 47 48 48 48 48 44 39 35 36 37 33 31 31 33 36 
39 39 39 38 39 43 47 44 45 41 41 43 46 46 45 44 44 45 44 
44 41 42 42 43 44 44 44 43 39 36 39 40 41 42 39 38 37 40 
39 41 45 52 51 51 49 47 46 38 36 37 37 41 42 46 45 45 45 
40 42 45 44 43 46 43 39 36 34 32 34 35 37 43 43 42 39 40 
38 37 40 44 45 48 46 44 45 49 48 47 46 45 45 45 46 44 47 
45 42 41 42 42 40 37 38 39 39 39 39 38 38 40 40 39 40 37 
35 36 44 47 48 42 40 40 44 44 43 42 40 40 34 33 33 34 37 
37 37 39 39 39 38 38 35 34 34 34 36 34 34 33 35 38 45 46 
49 50 48 48 48 34 33 34 33 35 37 41 42 43 41 37 40 40 42 
43 41 38 35 33 34 32 32 31 33 36 37 41 40 37 35 36 38 42 
42 45 42 37 35 39 39 41 40 40 40 38 37 37 37 38 38 39 40 
41 40 38 39 39 38 35 36 37 41 39 38 40 41 39 36 38 46 50 
49 46 46 46 45 43 40 39 36 36 33 34 33 32 33 33 34 35 36 
37 37 38 35 35 38 37 40 38 40 41 38 40 44 45 45 44 42 45 
44 29 29 29 34 36 37 40 41 40 39 37 41 39 41 40 38 35 35 
32 33 30 30 32 38 40 41 43 42 40 35 36 37 39 41 45 45 40 
36 36 32 33 35 37 39 40 41 40 41 40 38 39 40 42 42 39 40 
41 38 36 38 39 42 45 42 40 40 39 40 42 47 48 51 51 51 48 
48 44 40 37 37 37 34 34 32 31 32 32 34 38 39 39 38 36 36 
39 41 42 43 40 41 43 44 47 45 43 42 40 39 43 44 
