P2
#output from hocrtest
100 100
255
248 245 251 247 249 245 248 249 252 252 250 248 248 251 249 249 246 248 241 
231 242 245 240 245 247 255 251 247 250 252 253 250 250 252 248 248 244 243 
241 243 241 247 250 253 255 251 251 248 246 237 246 252 253 245 249 254 255 
254 252 240 249 255 250 246 248 248 239 242 246 246 249 242 251 245 248 253 
255 254 255 255 254 255 254 255 254 251 251 240 254 253 255 254 251 253 254 
255 249 231 253 251 247 247 248 248 246 244 247 251 252 250 247 247 248 249 
249 249 247 247 245 243 247 248 247 249 248 252 250 247 249 252 252 251 249 
249 246 244 240 238 236 239 244 247 250 252 253 250 250 249 248 245 250 251 
254 253 255 254 254 254 253 249 249 252 251 250 247 244 240 241 244 246 248 
244 249 248 247 252 255 253 254 254 254 255 254 254 252 250 251 248 252 253 
255 254 252 253 253 252 250 248 255 254 251 251 249 247 246 246 249 251 250 
248 247 247 248 249 248 246 246 245 245 244 246 248 251 252 251 251 247 246 
245 248 251 252 251 250 246 242 239 239 238 242 246 246 246 242 241 243 243 
243 241 240 245 247 251 253 252 250 252 254 255 254 253 252 251 250 248 247 
245 245 245 246 248 249 250 249 250 253 253 251 251 252 253 253 253 255 254 
253 251 249 252 254 254 253 251 251 250 249 247 246 248 244 249 250 251 250 
249 248 248 249 249 247 247 246 249 248 244 242 239 238 240 242 243 246 250 
252 251 250 248 248 247 249 253 253 255 253 252 251 248 244 244 244 247 245 
243 236 237 238 239 239 239 240 244 249 252 252 252 251 253 254 252 253 253 
253 254 251 246 246 248 249 245 247 249 251 251 248 248 250 248 246 244 245 
244 244 246 250 253 252 251 248 252 251 251 252 249 249 246 244 244 240 238 
240 251 248 249 249 248 248 247 246 245 247 247 248 250 245 238 237 235 235 
239 241 244 247 251 250 248 246 245 246 246 248 252 251 252 252 249 250 248 
246 247 247 248 246 245 240 237 240 241 243 245 247 247 250 249 247 247 248 
249 247 245 248 250 250 249 248 248 245 246 247 244 247 249 252 253 249 248 
248 247 247 247 245 244 242 243 247 248 246 246 244 247 250 251 254 249 247 
242 241 240 237 238 239 248 247 246 245 244 245 246 243 243 245 246 246 246 
245 240 236 235 234 236 238 242 245 248 249 247 249 249 250 248 247 247 247 
247 246 247 247 246 245 245 246 245 246 245 241 241 238 238 242 245 246 248 
248 245 243 244 246 245 244 241 242 245 245 243 243 243 240 239 243 243 244 
247 250 248 246 247 247 245 244 249 247 245 242 244 247 249 249 246 245 244 
247 246 247 242 238 237 236 235 234 235 233 242 244 243 242 243 242 244 243 
244 244 247 247 246 245 243 239 237 237 239 238 243 245 247 248 248 251 252 
252 246 242 241 241 242 242 241 240 241 241 246 248 249 245 242 244 245 242 
240 240 243 247 243 246 244 241 243 244 242 243 242 241 242 239 238 237 239 
241 243 242 242 242 242 245 243 243 242 239 239 240 243 244 243 243 240 242 
247 248 246 246 244 246 243 241 239 236 235 235 236 236 238 239 247 247 245 
243 241 242 241 237 238 238 236 239 241 242 241 239 235 235 235 237 240 244 
244 245 246 248 249 248 245 240 237 236 236 239 240 240 241 241 244 244 245 
245 240 241 243 241 240 240 239 241 241 241 240 241 241 243 241 240 240 237 
238 238 237 236 238 241 241 239 236 238 239 243 243 243 237 237 238 242 242 
244 240 238 238 243 245 245 242 243 241 240 241 240 237 233 231 232 234 234 
236 239 244 244 241 242 243 244 243 240 239 237 236 239 237 241 240 238 235 
235 236 238 238 241 241 242 245 246 249 249 247 241 237 235 235 234 234 236 
237 237 239 241 243 243 241 241 241 242 240 235 233 234 237 237 235 236 238 
240 240 240 238 238 235 237 235 235 234 234 234 235 235 235 238 241 241 241 
237 236 237 239 240 240 239 238 238 243 247 242 243 237 232 233 231 230 233 
233 233 235 234 234 234 231 241 240 239 236 239 241 240 237 238 238 237 237 
233 233 234 233 237 236 239 240 238 239 237 240 243 245 244 244 242 239 235 
236 234 234 233 232 232 232 232 234 235 237 238 239 241 242 238 235 233 235 
235 232 232 233 232 233 234 237 239 238 233 232 233 234 234 234 235 236 237 
234 237 238 239 241 238 235 235 236 236 236 239 240 243 246 248 243 241 238 
233 233 229 228 230 232 235 236 236 235 235 235 232 233 232 235 236 236 232 
230 233 234 230 233 232 230 229 230 234 237 239 241 236 239 237 239 240 241 
241 241 240 240 238 238 237 235 234 232 229 229 231 234 235 234 233 237 236 
234 230 231 232 233 233 233 234 233 232 232 232 232 234 235 230 232 233 233 
235 236 236 236 238 235 237 237 238 238 233 233 230 233 233 235 238 242 244 
245 244 242 240 236 232 227 225 226 228 228 230 232 231 232 233 228 230 231 
231 236 239 236 232 229 229 229 228 228 229 231 230 231 232 232 234 237 236 
237 235 237 239 240 240 239 238 238 236 236 236 233 234 233 228 228 229 230 
228 225 229 233 232 229 229 227 228 232 234 233 233 232 231 230 230 230 232 
235 233 235 235 234 234 234 235 235 235 234 236 242 241 239 236 232 231 232 
231 235 236 234 235 236 237 240 242 238 234 228 227 230 231 230 230 234 234 
234 233 231 227 225 227 232 234 232 231 228 226 228 226 228 228 232 232 232 
230 228 231 234 234 234 234 237 238 237 237 237 234 235 233 229 232 234 236 
237 237 237 237 235 230 225 224 225 227 223 224 223 228 230 232 231 232 230 
229 230 228 230 232 234 235 237 234 233 234 234 232 230 231 232 238 242 240 
240 237 235 234 230 226 228 230 228 227 231 232 230 231 228 225 223 223 226 
227 225 226 230 230 231 233 231 225 224 224 225 225 225 226 227 228 230 229 
228 229 230 229 229 226 221 225 226 227 230 230 232 232 229 231 234 233 236 
235 234 235 236 237 235 238 238 238 236 232 229 226 225 224 222 221 221 226 
229 230 230 230 233 232 232 232 235 238 238 238 235 232 229 229 231 231 228 
228 229 229 231 232 231 227 229 231 223 219 220 223 223 224 227 228 225 228 
225 221 225 227 227 228 225 227 230 229 230 232 233 222 225 221 218 216 214 
218 222 227 230 230 230 229 229 227 229 228 228 227 223 222 222 225 227 227 
224 226 230 230 234 233 234 237 237 233 231 233 234 233 234 230 224 219 218 
218 217 213 217 223 227 228 230 228 229 229 227 227 227 231 234 235 235 232 
225 221 223 222 222 223 223 224 226 231 232 231 231 230 225 224 222 223 225 
226 227 227 225 226 223 220 222 227 229 228 227 227 228 226 225 219 219 220 
217 218 219 217 218 220 222 228 230 231 227 227 227 227 228 229 228 226 223 
223 223 218 218 221 222 224 227 230 233 234 235 233 229 225 222 221 223 225 
225 224 221 221 223 222 217 217 217 220 225 226 227 227 228 227 224 223 224 
230 232 233 231 228 225 222 224 223 221 219 221 224 225 227 226 228 227 227 
224 227 225 223 224 224 222 221 222 220 219 218 218 219 220 221 224 226 227 
225 222 216 215 212 211 212 213 215 218 221 223 225 224 224 227 228 227 228 
229 229 229 228 225 225 223 221 219 219 222 221 224 226 229 229 228 226 225 
222 220 219 220 221 218 217 218 218 221 222 219 221 221 220 226 228 229 228 
229 227 224 225 227 231 233 231 226 223 223 220 218 217 219 219 220 222 223 
223 223 224 227 226 224 223 221 219 217 219 220 221 224 223 220 218 217 217 
216 219 223 226 226 220 218 218 219 213 213 213 213 212 219 220 221 223 225 
224 226 227 227 229 229 229 227 226 227 225 222 216 217 218 221 223 223 224 
224 223 222 223 220 217 217 218 218 218 220 220 216 218 224 221 219 218 219 
219 223 223 226 231 232 233 231 226 229 230 229 228 224 223 222 218 217 213 
213 214 216 220 223 225 222 222 222 223 222 220 216 213 213 215 218 219 222 
224 224 223 222 223 220 219 221 224 225 224 222 219 220 213 215 215 216 218 
222 224 222 222 222 221 222 223 223 222 219 220 220 221 221 221 218 216 216 
215 219 220 223 223 224 223 224 226 222 220 218 218 217 219 217 218 219 223 
226 223 223 221 220 219 216 215 218 219 222 228 229 224 225 227 227 227 225 
224 224 221 220 220 221 220 220 223 225 230 230 231 227 221 217 214 212 210 
214 218 221 224 224 222 222 223 220 223 221 219 218 220 223 225 227 226 232 
219 219 218 222 224 226 224 220 219 219 216 215 217 218 219 218 216 215 213 
213 214 214 214 216 215 216 217 219 219 217 220 221 221 221 222 220 218 216 
216 214 213 213 215 219 219 217 221 220 219 217 214 213 213 216 218 219 218 
218 217 217 220 218 218 216 218 220 220 219 220 220 222 221 226 226 226 223 
217 210 208 209 210 214 214 218 219 220 219 216 214 213 213 211 213 212 217 
219 222 221 223 227 220 218 219 219 219 219 219 217 217 216 214 214 216 217 
217 215 211 209 209 208 209 211 212 215 213 216 216 214 213 215 215 216 216 
217 219 219 216 213 211 209 213 215 215 216 218 220 220 221 219 217 215 214 
212 211 211 213 214 213 215 213 214 214 212 213 215 215 217 218 218 214 214 
213 216 216 215 217 218 216 215 214 212 212 213 216 216 219 217 216 215 215 
217 216 218 216 218 220 219 217 215 215 220 220 219 217 217 215 217 218 217 
215 214 211 214 216 216 212 209 203 203 202 202 206 210 214 215 215 215 211 
209 207 210 215 215 212 213 214 213 209 210 211 213 213 216 213 214 217 219 
220 219 215 214 213 211 209 209 211 210 212 218 217 215 212 206 206 207 211 
212 213 212 210 209 208 211 213 215 214 216 214 213 215 213 212 212 216 217 
217 216 215 216 217 213 214 214 211 217 220 219 218 219 221 212 213 207 209 
211 211 213 213 215 213 211 212 212 215 215 211 203 201 204 204 205 211 213 
214 210 209 208 208 206 204 206 211 213 214 214 215 213 210 213 214 215 213 
211 209 210 214 213 212 208 209 212 213 213 211 212 214 213 210 213 212 212 
209 203 202 202 206 207 206 207 206 206 205 206 207 213 214 212 216 215 214 
212 211 210 212 212 211 211 205 205 206 209 210 209 207 212 216 218 218 218 
217 212 213 210 208 208 208 209 208 209 208 208 208 207 207 205 202 199 199 
199 200 200 204 206 206 202 202 202 200 200 199 204 208 208 212 212 211 211 
205 206 202 206 209 209 211 210 214 210 206 205 204 208 209 210 209 208 208 
208 204 205 208 208 203 198 196 198 202 202 206 205 205 204 202 200 203 211 
212 214 212 212 211 210 211 212 215 212 210 208 208 205 208 209 209 210 212 
215 216 217 217 216 215 206 207 208 208 208 205 207 211 211 212 210 208 206 
205 205 203 199 202 202 204 207 206 204 202 200 199 199 196 198 196 201 204 
204 206 205 209 207 203 201 202 207 206 205 207 210 213 215 213 214 209 209 
210 210 209 207 203 202 201 201 204 206 205 203 202 204 204 206 206 203 201 
196 192 196 197 207 206 209 208 207 206 204 206 207 205 205 210 210 208 204 
206 207 209 210 211 211 212 211 212 212 213 192 196 199 205 206 206 209 211 
210 209 206 205 204 204 204 204 204 205 205 206 206 203 198 198 200 200 198 
196 198 197 200 202 203 205 205 208 204 202 201 202 204 204 205 206 210 219 
220 220 216 213 211 209 206 202 202 202 199 199 200 204 204 203 202 207 209 
206 210 208 205 203 200 198 201 199 203 207 207 207 204 204 206 207 207 203 
202 205 205 205 200 203 205 206 208 207 207 207 210 212 213 217 189 192 198 
201 203 205 205 203 200 197 197 198 197 201 202 203 202 200 199 201 201 199 
194 194 198 198 195 194 194 197 199 202 202 205 206 206 202 200 198 200 200 
201 204 205 206 211 214 216 212 208 204 203 199 195 197 200 198 196 199 200 
198 196 198 203 205 206 207 208 208 207 204 202 203 201 200 200 202 201 202 
204 206 206 206 201 201 202 198 201 200 200 201 206 208 209 207 207 207 209 
208 210 188 185 190 192 196 201 200 200 197 192 196 199 198 201 202 202 201 
198 197 197 194 192 192 192 193 195 196 193 193 197 197 198 197 196 198 197 
194 196 198 197 197 196 199 200 200 203 203 205 204 203 204 205 201 197 196 
193 193 193 195 197 197 198 200 201 205 207 210 211 207 206 206 203 203 199 
197 194 196 198 199 201 204 209 208 205 203 205 203 200 197 197 198 200 202 
205 205 204 201 201 201 201 200 198 193 195 197 199 197 196 196 193 196 196 
196 198 203 201 198 197 198 197 194 192 193 193 192 193 196 194 192 193 191 
192 193 197 200 200 197 197 192 195 196 191 194 199 203 205 205 204 200 198 
201 202 199 200 197 196 194 192 195 195 196 196 198 200 201 200 198 199 196 
197 198 197 199 197 196 194 197 198 198 196 200 207 207 205 202 204 203 201 
201 201 199 200 202 204 204 202 200 199 200 199 200 199 196 197 198 197 198 
199 199 197 196 195 197 199 201 199 196 195 193 193 192 192 193 193 194 194 
200 196 193 191 190 194 196 196 197 198 198 199 197 198 197 195 193 194 195 
198 197 197 197 200 199 199 198 199 198 198 196 195 193 191 192 193 190 190 
189 192 190 192 187 183 187 191 195 198 199 196 196 197 197 197 199 207 205 
202 200 203 204 200 200 200 197 199 201 200 200 198 196 198 200 200 203 206 
202 201 200 198 196 198 199 199 197 195 194 196 196 194 191 190 190 189 188 
192 192 193 196 197 199 196 194 188 186 186 190 193 192 193 194 196 194 195 
194 193 192 194 197 199 200 202 202 203 201 194 193 193 195 196 197 197 201 
195 194 192 191 187 185 186 187 188 186 188 185 186 186 191 195 195 197 198 
196 198 198 201 199 196 194 194 197 192 197 197 195 196 196 195 193 188 185 
189 192 193 200 202 201 197 196 196 196 196 201 201 200 195 192 190 186 184 
185 186 184 184 184 188 191 190 193 197 195 193 191 186 186 187 189 192 193 
194 194 197 195 196 194 193 190 192 194 199 202 205 203 203 202 195 191 192 
192 193 193 195 201 199 197 194 189 187 185 186 190 192 192 191 187 182 180 
185 199 200 199 198 196 195 197 200 200 198 193 189 191 189 190 191 194 194 
191 189 191 189 187 187 186 190 195 193 189 186 186 187 190 192 198 196 196 
191 184 181 179 181 183 184 181 180 180 181 188 192 193 195 194 193 190 184 
184 186 188 192 191 194 195 196 195 194 192 191 194 195 196 198 200 199 195 
195 193 189 186 186 187 189 194 195 195 196 194 190 183 182 182 187 192 192 
190 190 184 181 183 188 198 201 201 200 191 188 187 192 194 193 190 191 195 
194 191 192 193 191 188 185 185 185 186 186 183 181 188 187 184 182 184 188 
188 195 197 194 193 189 181 175 172 177 184 186 187 184 182 182 185 190 191 
194 192 192 191 187 188 191 192 193 195 196 195 194 189 189 187 187 191 192 
195 194 195 191 190 189 186 185 183 184 185 194 195 194 192 192 193 193 189 
188 188 191 194 198 198 191 184 182 180 183 193 195 194 195 190 187 189 190 
190 189 191 193 195 194 191 191 191 189 186 184 186 185 189 194 194 194 187 
189 189 189 188 190 189 189 192 192 191 189 183 178 177 180 186 189 189 186 
187 184 183 185 190 194 193 191 191 191 193 193 194 196 198 197 192 190 186 
187 186 187 191 192 193 192 192 186 187 189 188 189 185 185 188 193 197 198 
193 192 189 190 189 186 187 190 192 196 200 198 191 189 186 188 192 195 195 
195 190 186 186 187 185 188 191 192 194 190 189 188 186 185 183 182 181 183 
186 194 195 195 190 190 189 187 186 187 187 188 189 190 190 189 185 181 180 
182 184 184 187 185 187 183 178 181 188 191 190 190 187 188 186 185 184 186 
189 188 184 184 183 184 182 187 191 193 194 193 191 185 184 188 188 188 187 
187 188 192 193 195 191 188 186 190 191 191 190 189 194 197 200 202 199 197 
194 193 193 192 188 189 191 191 191 190 187 189 193 194 195 194 189 185 182 
182 184 184 186 189 190 193 192 191 185 187 184 182 183 186 186 185 187 185 
184 184 180 177 174 175 181 183 184 183 182 179 180 180 188 190 191 187 186 
185 183 183 185 185 187 186 184 182 179 183 182 186 189 187 193 194 191 185 
181 185 186 185 185 187 185 187 189 187 184 180 179 181 185 185 184 181 185 
188 190 192 187 188 186 188 190 185 185 183 185 186 184 187 189 192 192 192 
195 193 188 180 176 179 181 182 184 187 187 189 185 178 184 185 184 187 188 
186 185 183 181 180 178 178 178 176 178 180 181 184 185 185 183 187 186 185 
187 185 184 181 179 177 175 173 178 183 189 189 186 181 179 181 178 183 186 
189 186 190 184 183 183 184 188 188 185 184 180 177 177 176 177 176 177 175 
178 175 174 169 170 178 182 183 183 181 181 179 179 175 174 172 170 174 177 
182 185 189 190 190 189 188 186 184 183 183 182 183 185 187 186 186 184 183 
186 186 183 182 182 182 181 179 177 172 173 174 177 178 179 180 181 180 181 
182 182 184 184 184 183 179 179 180 177 174 170 169 173 177 182 185 183 180 
176 179 176 176 178 181 183 184 182 183 183 182 184 181 176 177 175 175 175 
174 175 177 176 175 176 174 172 172 172 180 182 182 182 180 179 176 174 172 
167 167 167 169 178 181 184 185 181 180 181 181 182 182 183 181 183 186 185 
186 182 180 178 174 183 182 178 178 178 174 176 173 172 168 169 172 172 172 
174 172 174 176 179 181 180 182 181 174 172 169 171 173 174 173 170 169 172 
175 175 178 182 184 183 182 183 181 180 180 179 181 180 181 180 177 174 173 
173 173 173 174 174 174 175 178 179 179 178 174 172 171 169 171 172 172 176 
177 178 175 175 173 168 170 172 169 176 179 180 180 178 178 177 176 176 175 
175 176 181 183 184 180 178 175 176 176 172 173 169 169 173 174 178 177 173 
169 170 172 168 167 166 162 166 173 178 181 184 183 180 176 174 172 174 173 
171 171 169 170 173 178 180 180 182 182 180 181 180 178 178 175 175 174 177 
177 175 172 168 169 172 174 177 175 174 173 177 178 180 182 182 180 176 171 
171 168 167 169 173 176 179 176 175 175 169 171 172 171 178 179 175 175 171 
172 173 171 168 168 167 170 172 174 176 177 175 173 173 168 169 170 170 171 
173 176 173 175 173 173 171 172 170 169 169 168 169 173 178 181 179 175 172 
171 171 171 172 169 169 171 169 170 171 174 175 175 177 179 179 183 182 180 
180 178 175 171 170 171 172 168 165 167 167 169 171 171 173 174 176 176 175 
177 177 176 178 174 170 167 165 165 165 167 168 173 172 172 174 175 178 176 
179 180 177 172 171 172 171 167 165 166 165 164 166 169 172 173 173 169 166 
160 165 168 170 170 172 173 171 172 169 172 172 174 175 174 173 171 170 169 
170 172 176 174 172 171 174 170 170 173 176 173 169 167 167 170 170 169 171 
172 171 173 175 176 175 173 169 164 165 168 171 167 164 163 164 165 164 162 
160 162 162 163 165 171 172 171 169 168 168 166 163 170 168 168 170 175 173 
172 174 173 175 176 179 179 177 175 173 171 168 167 165 166 165 165 169 170 
172 173 172 171 165 162 167 170 167 167 171 172 169 168 170 168 171 176 177 
176 176 175 171 169 167 164 165 170 172 174 176 173 173 171 174 172 170 168 
170 171 168 165 165 166 167 167 169 171 168 166 165 162 162 165 164 162 160 
159 157 157 156 157 159 159 162 164 168 169 171 172 171 171 170 168 164 164 
165 166 170 164 165 168 170 172 175 178 179 178 178 178 177 174 169 165 162 
162 160 160 163 167 171 173 170 170 167 166 167 167 168 169 173 174 173 172 
172 173 173 173 172 172 171 171 170 170 172 171 169 170 173 175 176 173 174 
173 174 173 171 170 173 171 169 161 158 164 168 169 167 169 164 160 157 159 
161 162 161 160 157 156 153 154 156 159 163 163 168 170 172 172 171 172 173 
172 171 167 163 163 158 160 164 161 160 161 166 170 177 175 175 172 170 170 
170 165 165 161 159 158 157 160 163 165 169 172 173 173 173 173 163 163 165 
164 169 175 176 177 176 174 172 170 170 170 169 169 172 173 172 170 168 171 
172 172 173 169 164 163 162 163 163 169 172 172 169 163 161 165 167 165 165 
165 163 161 160 162 164 164 165 162 160 157 155 156 160 163 168 171 171 173 
175 171 168 168 169 167 167 163 161 163 161 161 161 157 156 156 158 162 166 
164 164 160 158 161 163 161 161 158 158 157 154 158 163 160 164 167 170 170 
169 173 163 164 168 169 173 176 177 177 173 172 168 168 169 168 169 169 170 
171 171 170 169 165 164 163 165 161 158 155 153 159 163 166 166 165 166 166 
168 168 165 161 160 160 162 163 162 163 165 164 165 161 160 160 158 159 159 
159 163 166 166 169 173 170 167 162 162 161 162 157 155 156 158 160 157 154 
156 155 156 160 163 161 155 150 153 153 150 154 156 155 154 156 153 154 158 
158 160 163 162 160 161 167 166 169 169 167 169 169 168 171 168 165 164 165 
166 165 164 165 167 168 166 166 165 165 161 160 163 158 157 154 153 157 160 
159 160 161 162 161 162 161 160 157 156 159 160 160 160 160 160 161 162 159 
159 158 158 160 158 162 164 165 167 167 169 166 162 160 160 160 160 155 151 
152 156 158 159 159 162 158 159 159 159 158 157 158 158 156 154 155 159 160 
161 160 152 155 153 152 156 155 155 155 156 157 166 166 168 167 164 162 161 
161 162 161 157 156 156 156 158 159 159 160 164 163 162 161 158 157 166 166 
162 157 158 157 159 161 161 159 156 155 157 156 156 154 156 156 156 155 154 
154 156 159 159 158 157 154 154 162 160 161 163 165 169 168 167 162 159 158 
160 159 156 152 149 150 157 159 161 161 160 159 160 160 156 156 158 161 162 
161 156 154 152 154 157 158 152 152 154 153 156 156 156 156 159 160 166 165 
166 165 160 155 154 155 156 157 155 153 153 152 154 157 159 161 159 160 160 
160 160 158 165 166 161 156 159 160 161 160 158 157 154 153 152 151 149 151 
155 157 155 154 153 155 157 155 153 154 156 156 157 159 154 156 158 161 166 
166 166 161 157 156 158 157 157 152 150 153 158 158 158 157 157 156 154 154 
150 152 155 157 157 156 152 151 152 154 156 155 155 154 155 154 157 156 155 
154 156 155 159 160 157 159 157 151 151 151 151 158 156 155 152 153 154 155 
156 157 158 159 157 155 156 155 156 158 159 158 158 156 154 155 158 159 155 
153 150 150 150 152 155 158 159 155 154 162 163 156 152 152 153 150 149 154 
154 156 157 159 162 164 163 159 153 152 157 158 160 158 156 156 158 158 159 
159 157 157 154 153 151 152 153 152 152 154 151 149 148 150 153 155 153 153 
153 156 154 156 154 156 159 164 150 153 155 155 153 150 147 148 152 155 154 
151 147 148 152 153 153 153 152 151 152 151 151 153 151 153 154 155 153 151 
152 151 154 156 154 152 151 152 154 156 158 158 157 157 158 162 161 156 153 
149 149 149 151 154 153 153 154 156 153 151 154 155 154 156 158 157 155 155 
151 147 147 148 149 152 151 149 147 148 147 148 151 152 154 154 151 150 149 
153 154 152 151 148 149 148 147 147 144 142 145 143 146 148 147 147 146 147 
145 147 151 153 152 150 149 148 151 151 150 152 152 151 149 150 153 155 155 
154 153 153 153 153 153 154 154 154 153 152 151 153 154 154 154 151 151 152 
153 154 156 153 154 151 149 152 153 155 155 153 150 153 152 151 150 151 152 
153 155 156 155 152 149 147 145 146 148 151 151 150 148 148 147 148 150 151 
152 153 151 148 147 146 147 147 142 140 143 144 145 145 143 144 145 146 144 
146 148 148 145 145 143 146 149 152 153 152 152 150 153 155 155 149 147 145 
143 144 149 153 154 157 156 148 145 146 147 147 148 150 148 149 152 149 149 
149 149 146 145 146 149 153 156 155 155 149 144 145 145 150 149 148 146 148 
150 149 148 149 149 148 150 152 153 152 149 147 144 145 146 148 150 148 147 
148 149 151 151 149 148 151 151 148 144 142 144 145 141 140 141 142 142 140 
139 143 149 153 147 146 146 147 144 142 143 147 149 152 155 156 156 154 154 
152 146 142 143 145 145 145 147 151 152 155 151 144 144 145 144 143 144 145 
148 148 149 146 146 149 150 143 138 140 140 143 148 149 148 145 143 145 145 
151 148 148 149 148 146 145 145 149 148 149 148 151 147 147 144 143 143 145 
145 149 152 150 148 147 147 149 149 148 146 148 150 149 147 144 143 141 140 
142 143 141 140 139 138 137 137 138 156 154 148 145 144 140 142 144 145 147 
148 150 153 151 150 145 140 138 141 140 143 145 146 147 150 152 151 147 144 
143 142 142 144 143 144 146 146 145 143 144 147 142 141 145 142 143 145 145 
144 145 148 153 150 148 141 139 141 141 143 143 145 148 145 146 144 145 143 
142 142 140 142 140 143 148 151 150 146 145 144 147 146 144 146 149 152 153 
153 149 146 144 141 140 141 141 142 142 139 137 136 140 144 143 142 141 139 
137 135 136 139 141 143 145 147 146 143 140 138 138 140 140 143 145 147 147 
149 152 146 144 144 145 148 145 145 144 143 144 145 143 143 142 140 138 137 
138 137 138 138 139 141 140 146 150 148 145 141 138 135 137 138 139 146 149 
147 144 143 143 142 143 144 141 143 142 141 143 147 149 147 146 143 142 140 
143 146 149 151 152 151 146 144 143 139 138 138 137 138 139 137 136 135 136 
140 138 137 138 139 138 137 134 138 139 141 142 142 143 143 145 145 139 141 
139 143 146 145 147 149 149 147 144 143 140 138 136 136 137 140 142 142 140 
139 138 136 135 136 137 137 138 137 139 140 140 146 146 147 143 140 140 139 
142 141 143 144 143 139 137 135 135 136 142 144 143 145 143 143 143 145 146 
142 142 139 134 135 138 143 145 145 143 141 137 136 138 137 136 137 139 140 
138 133 131 128 128 136 135 134 134 137 140 144 143 142 141 138 136 134 134 
138 144 145 143 141 138 137 138 141 144 144 143 145 143 143 140 138 138 136 
134 134 135 134 135 135 136 135 133 134 137 139 144 141 139 137 138 140 143 
146 142 136 133 139 139 141 139 139 134 131 129 128 129 129 137 139 141 143 
142 140 138 136 138 135 136 134 130 130 127 130 134 138 137 135 133 132 137 
134 132 134 138 138 137 135 134 132 136 128 130 127 128 130 134 145 145 140 
137 132 128 128 131 131 138 140 142 141 137 136 132 133 137 137 137 137 133 
134 135 135 134 137 137 137 129 127 131 133 138 139 140 142 144 144 146 145 
140 139 136 135 136 138 139 140 142 142 140 139 137 135 131 129 125 127 128 
131 139 141 143 143 143 140 138 139 137 137 137 135 132 128 125 127 132 135 
134 134 133 132 134 133 134 135 138 138 137 134 130 128 134 126 125 123 124 
127 132 137 139 136 122 123 123 124 124 126 129 134 134 138 140 140 136 134 
132 132 131 130 127 129 131 132 135 140 139 139 131 131 133 135 141 142 141 
142 140 138 139 141 137 135 129 130 130 133 136 139 142 144 141 139 136 133 
132 129 126 126 128 130 136 137 141 144 143 139 136 135 136 138 138 138 135 
128 128 128 130 135 133 133 131 130 130 132 133 134 136 138 133 129 122 119 
123 123 123 125 123 124 124 124 126 125 121 120 122 126 128 130 128 127 129 
133 136 138 137 136 133 131 131 132 130 131 132 130 132 135 135 134 130 131 
133 136 138 138 138 137 134 133 137 138 136 135 128 129 130 134 136 140 143 
144 142 137 133 130 130 126 124 128 131 134 140 141 143 142 141 138 135 136 
135 136 136 135 128 123 124 126 128 131 130 133 134 131 133 137 135 135 138 
140 132 126 120 115 112 123 125 127 127 125 126 127 124 122 121 124 125 128 
133 131 130 128 128 128 129 131 135 134 135 130 129 128 127 129 133 134 133 
135 134 134 133 131 128 129 133 134 134 135 129 122 121 120 123 126 129 131 
133 136 137 139 137 140 139 136 133 129 127 124 124 127 130 131 135 136 137 
137 134 134 134 136 135 135 135 138 129 123 122 122 126 129 128 127 128 135 
137 136 134 133 135 137 133 128 124 122 120 121 122 123 120 124 128 129 127 
125 124 124 124 126 129 127 124 123 123 125 128 133 134 134 133 128 124 123 
124 126 124 124 123 127 134 132 130 129 127 129 132 132 130 129 127 122 121 
121 122 126 125 128 132 135 134 135 137 136 134 132 133 127 123 122 123 125 
129 133 136 136 139 138 136 135 134 132 132 129 124 121 123 123 121 121 124 
127 126 127 129 129 130 130 131 131 133 136 133 130 125 126 126 120 122 120 
119 120 126 126 127 124 125 122 120 120 122 124 120 123 124 124 126 131 133 
133 132 129 125 124 126 128 125 122 121 123 128 131 130 128 125 128 127 128 
127 127 129 127 128 126 121 122 117 119 123 132 130 133 131 132 131 128 126 
120 121 122 122 125 127 130 129 131 133 130 126 123 121 126 129 126 124 123 
123 123 124 123 123 124 124 122 123 122 124 126 127 127 126 126 127 129 125 
122 122 117 120 119 116 115 118 120 123 126 127 122 123 125 125 126 122 125 
123 121 122 131 130 131 132 126 123 122 123 123 117 114 114 115 116 123 123 
123 122 124 125 123 124 124 124 125 126 124 120 119 120 120 124 129 127 126 
126 127 130 125 122 118 117 120 124 126 127 134 131 132 135 130 123 119 117 
124 128 127 128 127 126 125 126 125 125 120 121 120 120 119 117 120 123 124 
125 127 128 128 127 127 129 125 125 121 116 115 118 120 122 120 122 120 123 
125 128 128 123 122 119 117 117 125 127 130 127 120 118 119 122 121 119 119 
116 114 117 120 121 121 117 120 120 118 121 118 122 126 126 126 124 124 125 
122 121 121 119 121 122 123 124 123 120 117 118 117 122 128 128 128 127 126 
127 125 122 121 120 123 125 125 123 123 120 119 120 121 123 121 121 119 121 
122 120 119 121 122 122 123 122 122 122 123 124 125 125 123 114 112 114 113 
120 120 118 117 121 127 130 129 126 121 116 116 117 120 123 125 121 118 118 
119 123 124 117 116 115 115 117 121 121 119 117 121 120 122 124 123 124 126 
127 127 126 126 125 123 122 121 120 118 118 120 120 118 118 117 116 117 119 
121 118 120 122 123 124 124 124 122 123 126 125 125 126 122 121 122 121 119 
119 119 119 120 120 120 118 116 119 119 119 117 116 119 119 119 118 122 123 
122 115 115 115 115 117 120 120 120 122 124 128 127 124 119 114 115 115 117 
116 121 119 118 118 117 116 114 111 111 113 116 118 120 121 118 121 121 121 
121 125 124 126 127 129 128 129 130 127 125 121 119 118 118 117 118 120 120 
121 117 112 114 117 123 121 121 116 116 113 114 116 118 119 121 119 119 122 
124 124 121 117 117 118 116 116 115 115 115 114 113 113 114 114 114 115 118 
115 117 119 119 118 117 116 115 115 116 118 123 124 124 123 123 128 129 125 
120 119 117 118 119 120 121 121 120 118 114 111 109 110 110 114 115 115 120 
122 118 117 118 117 120 124 127 126 126 123 121 121 119 118 117 116 116 116 
112 112 114 115 113 112 113 109 113 116 120 120 121 122 118 114 113 112 113 
115 115 116 117 120 121 124 122 121 118 117 115 116 112 110 108 109 108 108 
110 111 111 113 113 115 114 117 118 116 120 121 118 117 114 117 123 124 125 
123 123 122 123 120 116 114 112 114 119 121 120 118 115 110 105 103 103 106 
111 114 114 115 116 115 114 114 115 113 116 124 126 127 127 122 120 119 117 
114 115 114 116 111 104 106 110 109 110 110 109 107 110 114 118 115 118 118 
115 113 109 106 107 106 106 106 111 112 116 122 121 122 117 113 115 117 113 
112 113 113 115 115 117 117 116 120 111 106 102 101 114 115 119 122 118 115 
108 111 112 115 120 121 123 123 123 121 120 113 111 111 113 115 116 116 113 
106 104 103 104 108 113 116 113 111 110 105 104 107 108 112 117 122 125 125 
123 119 116 117 115 111 111 108 105 103 100 102 105 107 109 107 108 106 105 
114 118 116 116 117 116 113 109 105 103 104 106 107 108 110 112 116 117 117 
117 114 113 117 111 109 116 117 118 119 120 119 119 117 111 111 114 117 109 
109 111 114 114 110 109 112 112 112 115 120 121 120 119 116 114 108 110 110 
110 113 114 115 111 105 101 101 107 112 115 115 112 109 109 106 103 105 109 
112 113 115 120 121 121 118 117 117 114 111 110 99 99 98 103 105 106 107 
106 103 105 105 109 117 120 118 114 112 110 108 105 103 107 112 112 107 104 
103 108 112 113 115 117 114 114 112 106 105 107 111 114 116 113 113 109 107 
107 111 115 117 110 110 109 111 111 108 109 113 114 111 113 116 119 119 117 
117 114 110 114 112 110 112 112 111 108 105 104 106 109 109 113 110 106 105 
110 109 108 108 111 111 111 115 117 116 118 114 113 113 111 110 106 101 101 
100 104 106 107 108 106 103 105 109 111 118 120 117 113 111 110 109 106 106 
108 111 108 104 104 105 106 110 108 105 105 102 97 100 99 100 104 106 109 
110 109 109 103 104 99 98 100 97 113 115 112 110 108 106 105 108 111 110 
109 109 109 112 112 114 113 115 119 119 116 113 109 108 109 108 106 105 107 
107 108 106 104 104 109 110 109 104 102 105 107 110 109 109 109 109 109 106 
106 107 109 108 110 107 108 109 107 111 109 106 107 107 111 113 116 116 113 
108 109 110 108 109 110 112 110 107 106 109 110 112 109 106 105 102 98 98 
101 103 108 108 109 108 107 106 104 107 104 104 105 108 114 114 109 108 107 
106 104 104 111 112 110 108 107 105 104 107 110 114 115 114 110 111 107 108 
110 109 109 106 106 105 106 107 106 105 107 108 111 108 108 106 104 103 105 
106 105 102 100 100 103 107 108 109 104 104 103 103 103 108 107 108 110 108 
111 111 111 109 108 105 103 104 104 106 106 107 104 106 107 111 110 111 106 
104 103 102 103 104 104 108 110 111 112 110 105 104 104 113 114 114 113 116 
110 112 110 108 106 103 100 104 108 108 104 102 104 102 103 104 105 106 106 
102 99 98 101 103 105 107 108 105 104 105 107 104 104 100 100 101 103 103 
103 101 96 97 100 102 101 100 97 96 98 101 102 103 100 100 101 100 98 
105 104 107 107 106 106 107 106 103 102 101 99 99 101 105 106 106 102 104 
104 105 104 101 98 99 101 99 100 102 105 107 110 111 110 108 103 105 106 
111 112 109 106 106 108 108 108 108 103 103 99 102 104 103 101 99 100 100 
100 103 106 107 107 105 103 102 102 104 106 106 106 105 102 100 102 99 100 
95 94 97 101 104 103 101 100 101 100 100 103 103 101 100 100 101 100 98 
98 99 100 102 102 105 103 100 98 97 100 103 101 97 95 96 96 98 101 
102 101 104 103 100 100 98 97 95 97 95 97 97 97 102 101 101 101 111 
110 108 106 104 103 106 107 101 96 93 97 99 102 107 107 104 104 101 100 
97 99 102 103 99 99 98 100 100 100 98 100 101 101 100 98 102 101 101 
100 99 101 100 98 91 91 93 95 99 102 104 107 106 103 103 102 100 101 
102 104 107 105 100 96 95 96 100 100 104 102 100 97 94 91 96 97 95 
92 91 89 95 100 98 102 104 102 99 96 94 94 95 94 93 92 95 96 
99 98 98 99 107 107 105 106 104 105 106 104 101 101 98 88 88 94 99 
98 98 96 96 96 95 95 100 98 98 98 97 98 97 99 99 100 102 97 
97 100 101 99 97 97 95 97 98 97 97 96 96 98 99 101 106 109 106 
103 100 96 97 98 99 101 103 103 100 99 99 100 101 98 98 100 98 98 
94 92 91 93 96 98 99 99 100 105 103 102 102 100 98 96 95 96 97 
99 98 95 95 95 96 95 94 95 100 102 103 105 109 109 108 107 106 102 
102 83 85 91 97 96 97 94 93 93 89 91 99 102 98 96 94 93 96 
101 103 104 98 94 96 96 96 95 93 90 87 91 92 94 98 98 96 98 
101 104 105 101 99 98 97 92 93 94 94 97 104 105 101 97 98 99 98 
97 95 95 96 94 93 95 95 99 99 101 100 98 96 95 93 94 93 92 
93 94 93 94 96 100 101 100 97 95 96 98 94 95 97 99 95 97 105 
110 108 106 100 97 96 85 88 89 91 91 88 85 87 89 90 94 98 100 
100 95 92 93 96 101 102 99 92 90 91 90 91 91 85 83 84 87 92 
97 100 102 98 100 99 102 102 97 93 91 90 89 90 88 88 92 98 100 
97 93 95 98 97 92 88 86 86 89 92 94 94 93 93 97 95 92 89 
92 94 93 90 89 93 94 90 92 93 95 97 97 97 95 92 91 91 92 
91 94 94 95 97 105 103 102 102 100 101 83 84 85 86 85 85 87 88 
88 90 93 95 96 94 91 91 93 95 98 98 96 92 92 92 92 91 90 
88 86 86 88 91 94 99 99 97 96 93 96 95 92 91 93 92 92 90 
89 90 91 93 93 95 95 95 95 95 90 85 85 83 85 89 91 89 88 
88 90 90 89 90 92 94 95 94 91 95 95 92 93 93 92 95 98 97 
94 93 92 93 95 94 94 94 93 91 94 91 94 93 95 94 80 81 84 
84 84 85 85 88 88 87 89 89 90 90 90 92 91 92 95 95 93 92 
95 95 96 96 95 90 87 82 82 82 88 93 96 95 91 89 88 85 85 
87 89 91 92 93 92 93 92 91 88 88 88 87 89 90 89 84 79 78 
79 83 86 86 84 85 88 89 87 91 94 95 94 91 87 90 92 92 93 
93 94 98 96 95 91 90 88 90 92 94 95 95 94 93 93 91 94 94 
90 88 74 78 78 81 83 83 84 84 84 83 83 80 81 81 87 89 87 
88 92 92 91 91 90 91 96 94 89 85 83 81 78 77 77 84 89 90 
89 86 85 86 89 91 92 91 91 92 91 88 88 88 87 84 86 85 85 
84 82 82 79 79 81 84 85 84 82 82 85 88 89 90 94 94 96 93 
88 88 87 90 93 95 94 95 92 92 87 83 83 93 96 96 97 97 99 
98 97 95 95 97 97 100 68 73 76 76 78 81 84 86 89 89 87 82 
80 80 78 78 81 83 83 81 79 80 86 88 89 89 86 84 82 82 80 
76 79 82 85 86 89 88 87 88 91 91 92 92 91 90 84 82 83 84 
86 83 83 83 84 83 82 83 81 80 82 84 85 82 81 82 83 85 86 
88 88 91 91 89 85 85 83 88 89 88 88 89 86 84 83 81 83 85 
89 90 93 92 93 92 90 90 89 91 88 87 70 73 75 75 76 77 80 
84 88 86 84 77 72 72 72 74 78 82 80 79 76 74 77 79 81 84 
82 83 86 87 85 82 84 87 87 87 90 89 85 85 87 89 90 91 89 
87 83 80 82 84 83 82 80 80 82 81 80 81 77 77 79 81 82 82 
81 78 77 76 77 79 81 81 81 84 81 80 80 86 82 79 78 81 81 
78 76 74 75 81 83 85 85 86 89 88 89 88 86 86 82 79 71 76 
77 77 77 81 79 80 82 83 82 79 77 75 69 71 73 77 75 75 73 
69 72 72 73 77 78 81 83 85 84 82 84 84 81 85 88 87 86 83 
83 82 86 87 84 82 80 79 80 80 80 80 79 78 80 79 79 79 78 
76 76 78 80 81 78 74 73 71 71 77 80 81 79 77 73 75 77 84 
84 83 81 80 79 80 79 79 77 79 80 82 81 83 85 85 85 81 80 
80 80 77 73 77 78 78 77 76 77 78 79 80 80 79 75 75 73 74 
74 74 73 73 73 73 76 74 75 77 76 77 76 77 77 75 78 79 81 
81 85 84 81 81 82 83 85 84 82 79 78 74 75 75 75 73 74 76 
79 77 76 76 76 78 78 78 78 77 78 76 76 76 77 80 81 80 77 
75 73 77 76 83 82 82 78 78 79 80 82 83 80 79 78 79 78 82 
83 83 80 77 75 78 78 75 75 78 79 78 77 77 78 77 75 75 77 
80 77 75 72 70 68 68 69 72 73 74 77 73 75 76 77 77 76 76 
74 77 77 78 80 81 82 81 80 82 83 84 83 83 81 81 77 74 74 
74 72 71 73 76 79 76 74 73 73 75 75 75 75 72 72 74 76 78 
79 79 80 78 79 79 79 75 72 74 73 73 74 77 81 81 81 80 75 
75 76 76 77 78 78 79 75 75 71 76 75 73 81 81 81 80 76 74 
73 71 69 69 72 74 73 73 71 68 67 67 67 70 73 75 77 79 79 
81 80 80 78 77 75 78 80 79 80 80 80 79 79 83 83 84 82 77 
76 78 76 76 75 76 73 75 75 75 75 72 72 71 70 75 74 73 72 
71 73 76 77 76 78 77 79 76 76 78 78 73 72 71 72 72 76 76 
79 75 74 76 74 68 66 68 68 69 72 73 72 70 74 80 83 84 84 
84 78 75 74 74 74 73 73 71 72 70 68 66 66 66 67 66 68 70 
71 70 71 72 74 77 74 75 74 73 77 80 82 83 81 78 77 76 75 
76 78 79 77 74 74 79 78 75 70 68 66 67 72 70 69 69 72 70 
72 77 76 74 73 72 73 72 72 70 75 77 78 78 77 76 78 76 75 
73 70 69 70 71 71 68 68 67 64 61 62 63 68 71 72 73 74 73 
75 80 82 86 80 80 78 76 76 76 74 74 72 73 71 68 64 62 65 
69 68 66 64 65 66 65 67 67 68 69 68 69 68 68 70 72 74 74 
71 69 72 75 74 73 74 75 75 75 74 75 76 73 72 70 66 64 67 
66 64 65 64 66 68 72 72 72 71 72 73 72 71 69 74 72 72 73 
73 74 76 75 74 73 66 65 64 67 66 67 67 68 63 60 62 62 65 
68 71 72 74 75 76 79 78 80 75 76 76 76 77 77 76 74 73 71 
66 64 64 64 68 70 68 67 62 62 62 63 68 69 71 70 68 67 64 
63 64 62 61 62 64 65 65 66 65 70 71 73 75 76 73 71 70 69 
67 63 60 60 64 63 63 64 64 65 62 64 68 67 66 68 69 71 71 
70 69 67 65 68 70 70 71 72 71 71 63 60 61 63 61 62 64 65 
61 59 60 62 62 66 67 66 68 67 66 67 64 56 68 70 70 75 76 
75 75 73 68 66 65 64 64 66 69 69 67 67 65 66 68 70 76 75 
68 66 63 61 61 61 60 59 61 61 59 59 58 59 61 63 64 67 68 
68 66 64 65 69 67 61 63 65 67 65 64 65 64 66 65 65 66 65 
65 68 68 67 69 68 64 63 62 58 60 61 64 67 67 66 59 58 61 
65 64 62 65 65 62 62 64 69 69 71 69 67 64 62 61 59 58 54 
63 64 67 71 74 74 72 69 67 64 67 64 63 67 69 67 65 66 66 
68 66 67 71 72 68 68 63 57 55 55 54 58 60 60 59 58 55 56 
57 56 59 61 64 63 60 60 65 69 69 63 65 66 67 65 63 64 61 
62 63 65 62 61 62 63 64 63 65 64 64 63 62 59 59 63 64 69 
70 68 60 60 56 58 64 66 70 70 65 64 65 65 65 68 68 68 67 
62 59 57 58 56 60 61 65 70 72 71 69 67 68 65 67 67 63 66 
68 67 64 62 56 57 60 62 65 69 69 68 65 60 55 53 54 55 57 
57 53 54 55 54 54 52 55 57 59 59 59 61 63 64 62 62 62 65 
65 66 63 64 64 65 65 62 58 60 61 61 61 60 62 63 62 60 57 
58 59 65 66 69 69 68 65 64 58 55 58 61 70 71 69 66 66 65 
66 65 66 65 66 62 61 60 62 63 67 65 67 69 70 68 67 66 66 
66 69 65 62 63 66 65 62 59 56 57 58 62 65 68 69 69 66 64 
56 52 49 51 53 51 49 52 55 55 56 56 56 56 57 57 58 59 60 
61 59 59 55 57 63 66 65 65 64 65 62 57 57 61 61 61 63 63 
59 61 63 63 60 62 65 68 65 64 65 66 66 66 63 62 61 61 64 
65 64 62 64 63 63 63 63 65 66 63 61 55 54 54 63 64 65 63 
62 62 59 59 63 63 65 59 56 55 56 59 57 54 52 54 54 59 61 
61 65 67 67 62 57 56 55 57 56 54 53 54 55 56 56 55 57 57 
55 56 57 57 55 56 57 55 52 56 63 65 66 61 58 61 60 58 59 
62 63 67 65 61 61 64 67 70 67 66 66 64 58 62 63 63 62 64 
64 63 61 59 59 58 57 56 55 54 54 55 58 62 62 63 59 51 47 
42 59 61 63 63 61 61 56 56 61 62 64 58 52 51 54 58 54 57 
54 51 53 58 56 54 59 62 65 59 56 55 56 58 57 54 56 56 54 
52 50 51 54 56 58 60 62 62 59 60 58 56 54 56 63 65 65 62 
62 63 64 64 63 71 73 73 68 63 64 67 66 66 68 67 65 61 58 
58 58 58 60 61 58 57 56 55 55 55 55 59 57 58 59 58 61 62 
63 62 60 53 47 43 
